G04 #@! TF.GenerationSoftware,KiCad,Pcbnew,(5.1.8)-1*
G04 #@! TF.CreationDate,2021-03-01T02:23:44-08:00*
G04 #@! TF.ProjectId,UAS,5541532e-6b69-4636-9164-5f7063625858,1*
G04 #@! TF.SameCoordinates,Original*
G04 #@! TF.FileFunction,Copper,L2,Bot*
G04 #@! TF.FilePolarity,Positive*
%FSLAX46Y46*%
G04 Gerber Fmt 4.6, Leading zero omitted, Abs format (unit mm)*
G04 Created by KiCad (PCBNEW (5.1.8)-1) date 2021-03-01 02:23:44*
%MOMM*%
%LPD*%
G01*
G04 APERTURE LIST*
G04 #@! TA.AperFunction,ComponentPad*
%ADD10C,3.250000*%
G04 #@! TD*
G04 #@! TA.AperFunction,ComponentPad*
%ADD11O,3.000000X1.800000*%
G04 #@! TD*
G04 #@! TA.AperFunction,ComponentPad*
%ADD12C,1.500000*%
G04 #@! TD*
G04 #@! TA.AperFunction,SMDPad,CuDef*
%ADD13O,3.500000X1.800000*%
G04 #@! TD*
G04 #@! TA.AperFunction,ComponentPad*
%ADD14O,1.800000X3.000000*%
G04 #@! TD*
G04 #@! TA.AperFunction,SMDPad,CuDef*
%ADD15R,1.500000X3.000000*%
G04 #@! TD*
G04 #@! TA.AperFunction,ComponentPad*
%ADD16O,1.700000X1.950000*%
G04 #@! TD*
G04 #@! TA.AperFunction,SMDPad,CuDef*
%ADD17R,2.700000X1.000000*%
G04 #@! TD*
G04 #@! TA.AperFunction,SMDPad,CuDef*
%ADD18R,3.800000X1.800000*%
G04 #@! TD*
G04 #@! TA.AperFunction,ViaPad*
%ADD19C,2.500000*%
G04 #@! TD*
G04 #@! TA.AperFunction,ViaPad*
%ADD20C,0.900000*%
G04 #@! TD*
G04 #@! TA.AperFunction,ViaPad*
%ADD21C,0.800000*%
G04 #@! TD*
G04 #@! TA.AperFunction,ViaPad*
%ADD22C,0.700000*%
G04 #@! TD*
G04 #@! TA.AperFunction,ViaPad*
%ADD23C,1.100000*%
G04 #@! TD*
G04 #@! TA.AperFunction,ViaPad*
%ADD24C,0.600000*%
G04 #@! TD*
G04 #@! TA.AperFunction,Conductor*
%ADD25C,0.700000*%
G04 #@! TD*
G04 #@! TA.AperFunction,Conductor*
%ADD26C,0.600000*%
G04 #@! TD*
G04 #@! TA.AperFunction,Conductor*
%ADD27C,0.800000*%
G04 #@! TD*
G04 #@! TA.AperFunction,Conductor*
%ADD28C,1.000000*%
G04 #@! TD*
G04 #@! TA.AperFunction,Conductor*
%ADD29C,1.200000*%
G04 #@! TD*
G04 #@! TA.AperFunction,Conductor*
%ADD30C,0.254000*%
G04 #@! TD*
G04 #@! TA.AperFunction,Conductor*
%ADD31C,0.152400*%
G04 #@! TD*
G04 APERTURE END LIST*
D10*
X148800000Y-118360000D03*
X162000000Y-105160000D03*
D11*
X147780000Y-114290000D03*
X147780000Y-111750000D03*
X147780000Y-109210000D03*
X147780000Y-106670000D03*
X147780000Y-104130000D03*
D12*
X124750000Y-112750000D03*
X126750000Y-112750000D03*
X128750000Y-112750000D03*
X157000000Y-112750000D03*
X159000000Y-112750000D03*
X161000000Y-112750000D03*
D13*
X153960000Y-101710000D03*
X153960000Y-104250000D03*
X153960000Y-106790000D03*
D14*
X134310000Y-104080000D03*
X131770000Y-104080000D03*
X129230000Y-104080000D03*
X126690000Y-104080000D03*
D15*
X124950000Y-79600000D03*
X124950000Y-75600000D03*
X126950000Y-79600000D03*
X126950000Y-75600000D03*
X128950000Y-79600000D03*
X128950000Y-75600000D03*
X130950000Y-79600000D03*
X130950000Y-75600000D03*
X132950000Y-79600000D03*
X132950000Y-75600000D03*
X134950000Y-79600000D03*
X134950000Y-75600000D03*
X136950000Y-79600000D03*
X136950000Y-75600000D03*
X138950000Y-79600000D03*
X138950000Y-75600000D03*
D16*
X135500000Y-118000000D03*
X138000000Y-118000000D03*
X140500000Y-118000000D03*
G04 #@! TA.AperFunction,ComponentPad*
G36*
G01*
X143850000Y-117275000D02*
X143850000Y-118725000D01*
G75*
G02*
X143600000Y-118975000I-250000J0D01*
G01*
X142400000Y-118975000D01*
G75*
G02*
X142150000Y-118725000I0J250000D01*
G01*
X142150000Y-117275000D01*
G75*
G02*
X142400000Y-117025000I250000J0D01*
G01*
X143600000Y-117025000D01*
G75*
G02*
X143850000Y-117275000I0J-250000D01*
G01*
G37*
G04 #@! TD.AperFunction*
D10*
X120430000Y-107300000D03*
X133930000Y-91300000D03*
D14*
X134120000Y-108140000D03*
X131580000Y-108140000D03*
X129040000Y-108140000D03*
X126500000Y-108140000D03*
X123960000Y-108140000D03*
D17*
X126900000Y-91000000D03*
X126900000Y-89000000D03*
D18*
X122450000Y-86650000D03*
X122450000Y-93350000D03*
D17*
X126900000Y-100500000D03*
X126900000Y-98500000D03*
D18*
X122450000Y-96150000D03*
X122450000Y-102850000D03*
D17*
X158950000Y-92500000D03*
X158950000Y-94500000D03*
D18*
X163400000Y-96850000D03*
X163400000Y-90150000D03*
D17*
X158950000Y-83000000D03*
X158950000Y-85000000D03*
D18*
X163400000Y-87350000D03*
X163400000Y-80650000D03*
D19*
X120000000Y-118550000D03*
X120000000Y-76000000D03*
X165725000Y-76000000D03*
X165720000Y-118540000D03*
D20*
X152000000Y-104250000D03*
X151765000Y-97891600D03*
X154305000Y-97891600D03*
D21*
X157000000Y-96500000D03*
D20*
X159385000Y-101803200D03*
D21*
X159400000Y-97900000D03*
D22*
X134340600Y-81305400D03*
X132359400Y-81330800D03*
X136347200Y-81330800D03*
X138328400Y-81330800D03*
X130352800Y-81330800D03*
X128346200Y-81330800D03*
X140131800Y-81343500D03*
X158250000Y-105500000D03*
D23*
X125210000Y-118760000D03*
D22*
X131300000Y-120457999D03*
X152800000Y-119000000D03*
D23*
X128500000Y-118750000D03*
D22*
X153500000Y-112750000D03*
D23*
X146700000Y-101800000D03*
X146700000Y-97800000D03*
X125200000Y-88980000D03*
X126900000Y-88100000D03*
X128500000Y-98500000D03*
X125300000Y-98480000D03*
X126669800Y-81381600D03*
D21*
X165500000Y-99850000D03*
D23*
X127550000Y-77600000D03*
D20*
X155750000Y-104250000D03*
D21*
X164500000Y-101800000D03*
D23*
X126920000Y-99730000D03*
X126930000Y-91740000D03*
X149225000Y-97815400D03*
D21*
X151206200Y-103460000D03*
D24*
X137250000Y-103350000D03*
X137250000Y-100150000D03*
X144600000Y-98450000D03*
X156000000Y-95500000D03*
D23*
X166550000Y-107850000D03*
X137250000Y-111550000D03*
D24*
X140750000Y-114950000D03*
X149850000Y-116100000D03*
D23*
X166550000Y-111100000D03*
X140750000Y-111550000D03*
D25*
X156900000Y-83000000D02*
X158950000Y-83000000D01*
X151770000Y-97886600D02*
X151770000Y-88130000D01*
X151770000Y-88130000D02*
X156900000Y-83000000D01*
X151765000Y-97891600D02*
X151770000Y-97886600D01*
X157000000Y-85000000D02*
X158950000Y-85000000D01*
X154305000Y-87695000D02*
X157000000Y-85000000D01*
X154305000Y-97891600D02*
X154305000Y-87695000D01*
X157000000Y-93641398D02*
X157000000Y-96500000D01*
X158141398Y-92500000D02*
X157000000Y-93641398D01*
X158850000Y-92500000D02*
X158141398Y-92500000D01*
X158950000Y-97450000D02*
X159400000Y-97900000D01*
X158950000Y-94500000D02*
X158950000Y-97450000D01*
D26*
X134950000Y-75600000D02*
X134950000Y-79600000D01*
X134950000Y-80696000D02*
X134340600Y-81305400D01*
X134950000Y-79600000D02*
X134950000Y-80696000D01*
X132950000Y-75600000D02*
X132950000Y-79600000D01*
X132950000Y-80740200D02*
X132359400Y-81330800D01*
X132950000Y-79600000D02*
X132950000Y-80740200D01*
X136950000Y-75600000D02*
X136950000Y-79600000D01*
X136950000Y-80728000D02*
X136347200Y-81330800D01*
X136950000Y-79600000D02*
X136950000Y-80728000D01*
X138950000Y-80709200D02*
X138328400Y-81330800D01*
X138950000Y-79600000D02*
X138950000Y-80709200D01*
X130950000Y-75600000D02*
X130950000Y-79600000D01*
X130950000Y-80733600D02*
X130352800Y-81330800D01*
X130950000Y-79600000D02*
X130950000Y-80733600D01*
X128950000Y-75600000D02*
X128950000Y-79600000D01*
X128950000Y-80727000D02*
X128346200Y-81330800D01*
X128950000Y-79600000D02*
X128950000Y-80727000D01*
X140550900Y-76073000D02*
X140550900Y-80924400D01*
X140077900Y-75600000D02*
X140550900Y-76073000D01*
X140550900Y-80924400D02*
X140131800Y-81343500D01*
X138950000Y-75600000D02*
X140077900Y-75600000D01*
X156960000Y-106790000D02*
X158250000Y-105500000D01*
X153960000Y-106790000D02*
X156960000Y-106790000D01*
X131342001Y-120500000D02*
X131300000Y-120457999D01*
X151807989Y-120500000D02*
X131342001Y-120500000D01*
X152800000Y-119507989D02*
X151807989Y-120500000D01*
X152800000Y-119000000D02*
X152800000Y-119507989D01*
X153500000Y-112750000D02*
X157000000Y-112750000D01*
X125320000Y-98500000D02*
X125300000Y-98480000D01*
D27*
X126950000Y-75600000D02*
X126950000Y-79600000D01*
X126950000Y-75600000D02*
X126950000Y-77000000D01*
D28*
X126950000Y-81101400D02*
X126669800Y-81381600D01*
X126900000Y-88100000D02*
X126900000Y-89000000D01*
X126880000Y-88980000D02*
X126900000Y-89000000D01*
X125200000Y-88980000D02*
X126880000Y-88980000D01*
X126880000Y-98480000D02*
X126900000Y-98500000D01*
X125300000Y-98480000D02*
X126880000Y-98480000D01*
X128500000Y-98500000D02*
X126900000Y-98500000D01*
D27*
X126950000Y-77000000D02*
X127550000Y-77600000D01*
D28*
X126950000Y-79600000D02*
X126950000Y-81101400D01*
D26*
X126900000Y-99750000D02*
X126920000Y-99730000D01*
X126900000Y-100500000D02*
X126900000Y-99750000D01*
D29*
X134310000Y-104080000D02*
X134310000Y-99910000D01*
X134310000Y-99910000D02*
X134310000Y-97090000D01*
D28*
X134310000Y-97490000D02*
X134310000Y-97090000D01*
D27*
X124950000Y-75600000D02*
X124950000Y-79600000D01*
D29*
X149225000Y-97104200D02*
X149225000Y-97815400D01*
X148420800Y-96300000D02*
X149225000Y-97104200D01*
X135100000Y-96300000D02*
X148420800Y-96300000D01*
X134310000Y-97090000D02*
X135100000Y-96300000D01*
D28*
X134310000Y-101580000D02*
X134310000Y-104080000D01*
D29*
X133230000Y-100500000D02*
X134310000Y-101580000D01*
X126900000Y-100500000D02*
X133230000Y-100500000D01*
D27*
X124950000Y-84487800D02*
X124950000Y-79600000D01*
X125399800Y-84937600D02*
X124950000Y-84487800D01*
X128625600Y-84937600D02*
X125399800Y-84937600D01*
X129184400Y-85496400D02*
X128625600Y-84937600D01*
X129184400Y-90474800D02*
X129184400Y-85496400D01*
X128659200Y-91000000D02*
X129184400Y-90474800D01*
X126900000Y-91000000D02*
X128659200Y-91000000D01*
D26*
X152956200Y-101710000D02*
X153960000Y-101710000D01*
X151206200Y-103460000D02*
X152956200Y-101710000D01*
D28*
X146990000Y-113500000D02*
X147780000Y-114290000D01*
X140250000Y-113500000D02*
X146990000Y-113500000D01*
X138672999Y-115077001D02*
X140250000Y-113500000D01*
X159000000Y-113810660D02*
X156310660Y-116500000D01*
X159000000Y-112750000D02*
X159000000Y-113810660D01*
X156310660Y-116500000D02*
X153000000Y-116500000D01*
X150790000Y-114290000D02*
X147780000Y-114290000D01*
X153000000Y-116500000D02*
X150790000Y-114290000D01*
X138672999Y-115077001D02*
X132422999Y-115077001D01*
X132422999Y-115077001D02*
X131250000Y-116250000D01*
X126750000Y-113810660D02*
X126750000Y-112750000D01*
X129189340Y-116250000D02*
X126750000Y-113810660D01*
X131250000Y-116250000D02*
X129189340Y-116250000D01*
D26*
X137250000Y-103350000D02*
X137250000Y-100150000D01*
X144600000Y-98450000D02*
X145950000Y-99800000D01*
X145950000Y-99800000D02*
X154500000Y-99800000D01*
X156000000Y-98300000D02*
X156000000Y-95500000D01*
X154500000Y-99800000D02*
X156000000Y-98300000D01*
X140750000Y-114950000D02*
X141550000Y-115750000D01*
X141900000Y-116100000D02*
X149850000Y-116100000D01*
X141550000Y-115750000D02*
X141900000Y-116100000D01*
D30*
X123846299Y-73953492D02*
X123824513Y-74025311D01*
X123817157Y-74100000D01*
X123817157Y-77100000D01*
X123824513Y-77174689D01*
X123846299Y-77246508D01*
X123881678Y-77312696D01*
X123929289Y-77370711D01*
X123987304Y-77418322D01*
X124053492Y-77453701D01*
X124125311Y-77475487D01*
X124169000Y-77479790D01*
X124169001Y-77720210D01*
X124125311Y-77724513D01*
X124053492Y-77746299D01*
X123987304Y-77781678D01*
X123929289Y-77829289D01*
X123881678Y-77887304D01*
X123846299Y-77953492D01*
X123824513Y-78025311D01*
X123817157Y-78100000D01*
X123817157Y-81100000D01*
X123824513Y-81174689D01*
X123846299Y-81246508D01*
X123881678Y-81312696D01*
X123929289Y-81370711D01*
X123987304Y-81418322D01*
X124053492Y-81453701D01*
X124125311Y-81475487D01*
X124169001Y-81479790D01*
X124169000Y-84449443D01*
X124165222Y-84487800D01*
X124169000Y-84526157D01*
X124169000Y-84526159D01*
X124180301Y-84640902D01*
X124224960Y-84788121D01*
X124224961Y-84788122D01*
X124297481Y-84923799D01*
X124311990Y-84941478D01*
X124395078Y-85042722D01*
X124424879Y-85067179D01*
X124820417Y-85462717D01*
X124844878Y-85492522D01*
X124933827Y-85565520D01*
X124963800Y-85590119D01*
X125069297Y-85646508D01*
X125099478Y-85662640D01*
X125246697Y-85707299D01*
X125361440Y-85718600D01*
X125361442Y-85718600D01*
X125399799Y-85722378D01*
X125438156Y-85718600D01*
X128302100Y-85718600D01*
X128403401Y-85819902D01*
X128403401Y-87882960D01*
X128374482Y-87874188D01*
X128250000Y-87861928D01*
X127185750Y-87865000D01*
X127027000Y-88023750D01*
X127027000Y-88873000D01*
X127047000Y-88873000D01*
X127047000Y-89127000D01*
X127027000Y-89127000D01*
X127027000Y-89147000D01*
X126773000Y-89147000D01*
X126773000Y-89127000D01*
X125073750Y-89127000D01*
X124915000Y-89285750D01*
X124911928Y-89500000D01*
X124924188Y-89624482D01*
X124960498Y-89744180D01*
X125019463Y-89854494D01*
X125098815Y-89951185D01*
X125195506Y-90030537D01*
X125305820Y-90089502D01*
X125425518Y-90125812D01*
X125459874Y-90129196D01*
X125403492Y-90146299D01*
X125337304Y-90181678D01*
X125279289Y-90229289D01*
X125231678Y-90287304D01*
X125196299Y-90353492D01*
X125174513Y-90425311D01*
X125167157Y-90500000D01*
X125167157Y-91500000D01*
X125174513Y-91574689D01*
X125196299Y-91646508D01*
X125231678Y-91712696D01*
X125279289Y-91770711D01*
X125337304Y-91818322D01*
X125403492Y-91853701D01*
X125475311Y-91875487D01*
X125550000Y-91882843D01*
X126009174Y-91882843D01*
X126034778Y-92011563D01*
X126104958Y-92180994D01*
X126206845Y-92333478D01*
X126336522Y-92463155D01*
X126489006Y-92565042D01*
X126658437Y-92635222D01*
X126838304Y-92671000D01*
X127021696Y-92671000D01*
X127201563Y-92635222D01*
X127370994Y-92565042D01*
X127523478Y-92463155D01*
X127653155Y-92333478D01*
X127755042Y-92180994D01*
X127825222Y-92011563D01*
X127850826Y-91882843D01*
X128250000Y-91882843D01*
X128324689Y-91875487D01*
X128396508Y-91853701D01*
X128462696Y-91818322D01*
X128508174Y-91781000D01*
X128620843Y-91781000D01*
X128659200Y-91784778D01*
X128697557Y-91781000D01*
X128697560Y-91781000D01*
X128812303Y-91769699D01*
X128959522Y-91725040D01*
X129095199Y-91652519D01*
X129214122Y-91554922D01*
X129238578Y-91525122D01*
X129661274Y-91102426D01*
X131924000Y-91102426D01*
X131924000Y-91497574D01*
X132001090Y-91885129D01*
X132152306Y-92250197D01*
X132371838Y-92578750D01*
X132651250Y-92858162D01*
X132979803Y-93077694D01*
X133344871Y-93228910D01*
X133732426Y-93306000D01*
X134127574Y-93306000D01*
X134515129Y-93228910D01*
X134880197Y-93077694D01*
X135208750Y-92858162D01*
X135488162Y-92578750D01*
X135707694Y-92250197D01*
X135858910Y-91885129D01*
X135936000Y-91497574D01*
X135936000Y-91102426D01*
X135858910Y-90714871D01*
X135707694Y-90349803D01*
X135488162Y-90021250D01*
X135208750Y-89741838D01*
X134880197Y-89522306D01*
X134515129Y-89371090D01*
X134127574Y-89294000D01*
X133732426Y-89294000D01*
X133344871Y-89371090D01*
X132979803Y-89522306D01*
X132651250Y-89741838D01*
X132371838Y-90021250D01*
X132152306Y-90349803D01*
X132001090Y-90714871D01*
X131924000Y-91102426D01*
X129661274Y-91102426D01*
X129709528Y-91054173D01*
X129739322Y-91029722D01*
X129763775Y-90999926D01*
X129836919Y-90910800D01*
X129891332Y-90809000D01*
X129909440Y-90775122D01*
X129954099Y-90627903D01*
X129965400Y-90513160D01*
X129965400Y-90513157D01*
X129969178Y-90474800D01*
X129965400Y-90436443D01*
X129965400Y-85534757D01*
X129969178Y-85496400D01*
X129965400Y-85458040D01*
X129954099Y-85343297D01*
X129909440Y-85196078D01*
X129836919Y-85060401D01*
X129797957Y-85012925D01*
X129763775Y-84971274D01*
X129763774Y-84971273D01*
X129739322Y-84941478D01*
X129709527Y-84917026D01*
X129204978Y-84412478D01*
X129180522Y-84382678D01*
X129061599Y-84285081D01*
X128925922Y-84212560D01*
X128778703Y-84167901D01*
X128663960Y-84156600D01*
X128663957Y-84156600D01*
X128625600Y-84152822D01*
X128587243Y-84156600D01*
X125731000Y-84156600D01*
X125731000Y-81529477D01*
X125748815Y-81551185D01*
X125845506Y-81630537D01*
X125955820Y-81689502D01*
X126075518Y-81725812D01*
X126200000Y-81738072D01*
X126664250Y-81735000D01*
X126823000Y-81576250D01*
X126823000Y-79727000D01*
X126803000Y-79727000D01*
X126803000Y-79473000D01*
X126823000Y-79473000D01*
X126823000Y-77623750D01*
X126799250Y-77600000D01*
X126823000Y-77576250D01*
X126823000Y-75727000D01*
X126803000Y-75727000D01*
X126803000Y-75473000D01*
X126823000Y-75473000D01*
X126823000Y-75453000D01*
X127077000Y-75453000D01*
X127077000Y-75473000D01*
X127097000Y-75473000D01*
X127097000Y-75727000D01*
X127077000Y-75727000D01*
X127077000Y-77576250D01*
X127100750Y-77600000D01*
X127077000Y-77623750D01*
X127077000Y-79473000D01*
X127097000Y-79473000D01*
X127097000Y-79727000D01*
X127077000Y-79727000D01*
X127077000Y-81576250D01*
X127235750Y-81735000D01*
X127700000Y-81738072D01*
X127736746Y-81734453D01*
X127778395Y-81796785D01*
X127880215Y-81898605D01*
X127999942Y-81978604D01*
X128132975Y-82033708D01*
X128274203Y-82061800D01*
X128418197Y-82061800D01*
X128559425Y-82033708D01*
X128692458Y-81978604D01*
X128812185Y-81898605D01*
X128914005Y-81796785D01*
X128994004Y-81677058D01*
X129015913Y-81624166D01*
X129157236Y-81482843D01*
X129637722Y-81482843D01*
X129649892Y-81544025D01*
X129704996Y-81677058D01*
X129784995Y-81796785D01*
X129886815Y-81898605D01*
X130006542Y-81978604D01*
X130139575Y-82033708D01*
X130280803Y-82061800D01*
X130424797Y-82061800D01*
X130566025Y-82033708D01*
X130699058Y-81978604D01*
X130818785Y-81898605D01*
X130920605Y-81796785D01*
X131000604Y-81677058D01*
X131022512Y-81624166D01*
X131163836Y-81482843D01*
X131644322Y-81482843D01*
X131656492Y-81544025D01*
X131711596Y-81677058D01*
X131791595Y-81796785D01*
X131893415Y-81898605D01*
X132013142Y-81978604D01*
X132146175Y-82033708D01*
X132287403Y-82061800D01*
X132431397Y-82061800D01*
X132572625Y-82033708D01*
X132705658Y-81978604D01*
X132825385Y-81898605D01*
X132927205Y-81796785D01*
X133007204Y-81677058D01*
X133029113Y-81624166D01*
X133170436Y-81482843D01*
X133630575Y-81482843D01*
X133637692Y-81518625D01*
X133692796Y-81651658D01*
X133772795Y-81771385D01*
X133874615Y-81873205D01*
X133994342Y-81953204D01*
X134127375Y-82008308D01*
X134268603Y-82036400D01*
X134412597Y-82036400D01*
X134553825Y-82008308D01*
X134686858Y-81953204D01*
X134806585Y-81873205D01*
X134908405Y-81771385D01*
X134988404Y-81651658D01*
X135010313Y-81598766D01*
X135126235Y-81482843D01*
X135632122Y-81482843D01*
X135644292Y-81544025D01*
X135699396Y-81677058D01*
X135779395Y-81796785D01*
X135881215Y-81898605D01*
X136000942Y-81978604D01*
X136133975Y-82033708D01*
X136275203Y-82061800D01*
X136419197Y-82061800D01*
X136560425Y-82033708D01*
X136693458Y-81978604D01*
X136813185Y-81898605D01*
X136915005Y-81796785D01*
X136995004Y-81677058D01*
X137016913Y-81624166D01*
X137158236Y-81482843D01*
X137613322Y-81482843D01*
X137625492Y-81544025D01*
X137680596Y-81677058D01*
X137760595Y-81796785D01*
X137862415Y-81898605D01*
X137982142Y-81978604D01*
X138115175Y-82033708D01*
X138256403Y-82061800D01*
X138400397Y-82061800D01*
X138541625Y-82033708D01*
X138674658Y-81978604D01*
X138794385Y-81898605D01*
X138896205Y-81796785D01*
X138976204Y-81677058D01*
X138998113Y-81624166D01*
X139139436Y-81482843D01*
X139414196Y-81482843D01*
X139428892Y-81556725D01*
X139483996Y-81689758D01*
X139563995Y-81809485D01*
X139665815Y-81911305D01*
X139785542Y-81991304D01*
X139918575Y-82046408D01*
X140059803Y-82074500D01*
X140203797Y-82074500D01*
X140345025Y-82046408D01*
X140478058Y-81991304D01*
X140597785Y-81911305D01*
X140699605Y-81809485D01*
X140779604Y-81689758D01*
X140801513Y-81636865D01*
X141008774Y-81429604D01*
X141034770Y-81408270D01*
X141119870Y-81304574D01*
X141183106Y-81186268D01*
X141222046Y-81057899D01*
X141231900Y-80957853D01*
X141235195Y-80924400D01*
X141231900Y-80890947D01*
X141231900Y-79750000D01*
X161117157Y-79750000D01*
X161117157Y-81550000D01*
X161124513Y-81624689D01*
X161146299Y-81696508D01*
X161181678Y-81762696D01*
X161229289Y-81820711D01*
X161287304Y-81868322D01*
X161353492Y-81903701D01*
X161425311Y-81925487D01*
X161500000Y-81932843D01*
X165300000Y-81932843D01*
X165374689Y-81925487D01*
X165446508Y-81903701D01*
X165512696Y-81868322D01*
X165570711Y-81820711D01*
X165618322Y-81762696D01*
X165653701Y-81696508D01*
X165675487Y-81624689D01*
X165682843Y-81550000D01*
X165682843Y-79750000D01*
X165675487Y-79675311D01*
X165653701Y-79603492D01*
X165618322Y-79537304D01*
X165570711Y-79479289D01*
X165512696Y-79431678D01*
X165446508Y-79396299D01*
X165374689Y-79374513D01*
X165300000Y-79367157D01*
X161500000Y-79367157D01*
X161425311Y-79374513D01*
X161353492Y-79396299D01*
X161287304Y-79431678D01*
X161229289Y-79479289D01*
X161181678Y-79537304D01*
X161146299Y-79603492D01*
X161124513Y-79675311D01*
X161117157Y-79750000D01*
X141231900Y-79750000D01*
X141231900Y-76106452D01*
X141235195Y-76072999D01*
X141222046Y-75939501D01*
X141206605Y-75888600D01*
X141191669Y-75839360D01*
X164094000Y-75839360D01*
X164094000Y-76160640D01*
X164156678Y-76475745D01*
X164279626Y-76772568D01*
X164458119Y-77039702D01*
X164685298Y-77266881D01*
X164952432Y-77445374D01*
X165249255Y-77568322D01*
X165564360Y-77631000D01*
X165885640Y-77631000D01*
X166200745Y-77568322D01*
X166497568Y-77445374D01*
X166764702Y-77266881D01*
X166991881Y-77039702D01*
X167170374Y-76772568D01*
X167293322Y-76475745D01*
X167356000Y-76160640D01*
X167356000Y-75839360D01*
X167293322Y-75524255D01*
X167170374Y-75227432D01*
X166991881Y-74960298D01*
X166764702Y-74733119D01*
X166497568Y-74554626D01*
X166200745Y-74431678D01*
X165885640Y-74369000D01*
X165564360Y-74369000D01*
X165249255Y-74431678D01*
X164952432Y-74554626D01*
X164685298Y-74733119D01*
X164458119Y-74960298D01*
X164279626Y-75227432D01*
X164156678Y-75524255D01*
X164094000Y-75839360D01*
X141191669Y-75839360D01*
X141183106Y-75811132D01*
X141119870Y-75692826D01*
X141034769Y-75589130D01*
X141008783Y-75567804D01*
X140583104Y-75142126D01*
X140561770Y-75116130D01*
X140458074Y-75031030D01*
X140339768Y-74967794D01*
X140211399Y-74928854D01*
X140111353Y-74919000D01*
X140082843Y-74916192D01*
X140082843Y-74100000D01*
X140075487Y-74025311D01*
X140053701Y-73953492D01*
X140020298Y-73891000D01*
X165698921Y-73891000D01*
X166129238Y-73933193D01*
X166522893Y-74052044D01*
X166885957Y-74245089D01*
X167204615Y-74504979D01*
X167466728Y-74821820D01*
X167662303Y-75183528D01*
X167783899Y-75576343D01*
X167829001Y-76005456D01*
X167829000Y-118523920D01*
X167786807Y-118954236D01*
X167667957Y-119347888D01*
X167474911Y-119710956D01*
X167215018Y-120029616D01*
X166898183Y-120291725D01*
X166536472Y-120487302D01*
X166143658Y-120608898D01*
X165714554Y-120653999D01*
X152617069Y-120653999D01*
X153257884Y-120013185D01*
X153283870Y-119991859D01*
X153368970Y-119888163D01*
X153432206Y-119769857D01*
X153471146Y-119641488D01*
X153481000Y-119541442D01*
X153481000Y-119541441D01*
X153484295Y-119507990D01*
X153481000Y-119474539D01*
X153481000Y-119266116D01*
X153502908Y-119213225D01*
X153531000Y-119071997D01*
X153531000Y-118928003D01*
X153502908Y-118786775D01*
X153447804Y-118653742D01*
X153367805Y-118534015D01*
X153265985Y-118432195D01*
X153186912Y-118379360D01*
X164089000Y-118379360D01*
X164089000Y-118700640D01*
X164151678Y-119015745D01*
X164274626Y-119312568D01*
X164453119Y-119579702D01*
X164680298Y-119806881D01*
X164947432Y-119985374D01*
X165244255Y-120108322D01*
X165559360Y-120171000D01*
X165880640Y-120171000D01*
X166195745Y-120108322D01*
X166492568Y-119985374D01*
X166759702Y-119806881D01*
X166986881Y-119579702D01*
X167165374Y-119312568D01*
X167288322Y-119015745D01*
X167351000Y-118700640D01*
X167351000Y-118379360D01*
X167288322Y-118064255D01*
X167165374Y-117767432D01*
X166986881Y-117500298D01*
X166759702Y-117273119D01*
X166492568Y-117094626D01*
X166195745Y-116971678D01*
X165880640Y-116909000D01*
X165559360Y-116909000D01*
X165244255Y-116971678D01*
X164947432Y-117094626D01*
X164680298Y-117273119D01*
X164453119Y-117500298D01*
X164274626Y-117767432D01*
X164151678Y-118064255D01*
X164089000Y-118379360D01*
X153186912Y-118379360D01*
X153146258Y-118352196D01*
X153013225Y-118297092D01*
X152871997Y-118269000D01*
X152728003Y-118269000D01*
X152586775Y-118297092D01*
X152453742Y-118352196D01*
X152334015Y-118432195D01*
X152232195Y-118534015D01*
X152152196Y-118653742D01*
X152097092Y-118786775D01*
X152069000Y-118928003D01*
X152069000Y-119071997D01*
X152097092Y-119213225D01*
X152107224Y-119237686D01*
X151525911Y-119819000D01*
X150177912Y-119819000D01*
X150358162Y-119638750D01*
X150577694Y-119310197D01*
X150728910Y-118945129D01*
X150806000Y-118557574D01*
X150806000Y-118162426D01*
X150728910Y-117774871D01*
X150577694Y-117409803D01*
X150358162Y-117081250D01*
X150078750Y-116801838D01*
X150017628Y-116760998D01*
X150048640Y-116754829D01*
X150079696Y-116741965D01*
X150111868Y-116732206D01*
X150141517Y-116716358D01*
X150172574Y-116703494D01*
X150200525Y-116684817D01*
X150230174Y-116668970D01*
X150256162Y-116647643D01*
X150284112Y-116628967D01*
X150307879Y-116605200D01*
X150333870Y-116583870D01*
X150355200Y-116557879D01*
X150378967Y-116534112D01*
X150397643Y-116506162D01*
X150418970Y-116480174D01*
X150434817Y-116450525D01*
X150453494Y-116422574D01*
X150466358Y-116391517D01*
X150482206Y-116361868D01*
X150491965Y-116329696D01*
X150504829Y-116298640D01*
X150511388Y-116265668D01*
X150521146Y-116233499D01*
X150524441Y-116200047D01*
X150531000Y-116167073D01*
X150531000Y-116133453D01*
X150534295Y-116100000D01*
X150531000Y-116066547D01*
X150531000Y-116032927D01*
X150524441Y-115999953D01*
X150521146Y-115966501D01*
X150511388Y-115934332D01*
X150504829Y-115901360D01*
X150491965Y-115870304D01*
X150482206Y-115838132D01*
X150466358Y-115808483D01*
X150453494Y-115777426D01*
X150434817Y-115749475D01*
X150418970Y-115719826D01*
X150397643Y-115693838D01*
X150378967Y-115665888D01*
X150355200Y-115642121D01*
X150333870Y-115616130D01*
X150307879Y-115594800D01*
X150284112Y-115571033D01*
X150256162Y-115552357D01*
X150230174Y-115531030D01*
X150200525Y-115515183D01*
X150172574Y-115496506D01*
X150141517Y-115483642D01*
X150111868Y-115467794D01*
X150079696Y-115458035D01*
X150048640Y-115445171D01*
X150015668Y-115438612D01*
X149983499Y-115428854D01*
X149950047Y-115425559D01*
X149917073Y-115419000D01*
X148985245Y-115419000D01*
X149095129Y-115360266D01*
X149290186Y-115200186D01*
X149314138Y-115171000D01*
X150425079Y-115171000D01*
X152346439Y-117092361D01*
X152374025Y-117125975D01*
X152407637Y-117153559D01*
X152508174Y-117236068D01*
X152596201Y-117283119D01*
X152661225Y-117317875D01*
X152827294Y-117368252D01*
X152956727Y-117381000D01*
X152956730Y-117381000D01*
X153000000Y-117385262D01*
X153043270Y-117381000D01*
X156267390Y-117381000D01*
X156310660Y-117385262D01*
X156353930Y-117381000D01*
X156353933Y-117381000D01*
X156483366Y-117368252D01*
X156649435Y-117317875D01*
X156802485Y-117236068D01*
X156936635Y-117125975D01*
X156964226Y-117092355D01*
X159303201Y-114753380D01*
X161519000Y-114753380D01*
X161519000Y-114946620D01*
X161556699Y-115136147D01*
X161630649Y-115314678D01*
X161738007Y-115475351D01*
X161874649Y-115611993D01*
X162035322Y-115719351D01*
X162213853Y-115793301D01*
X162403380Y-115831000D01*
X162596620Y-115831000D01*
X162786147Y-115793301D01*
X162964678Y-115719351D01*
X163125351Y-115611993D01*
X163261993Y-115475351D01*
X163369351Y-115314678D01*
X163443301Y-115136147D01*
X163481000Y-114946620D01*
X163481000Y-114753380D01*
X163443301Y-114563853D01*
X163369351Y-114385322D01*
X163261993Y-114224649D01*
X163125351Y-114088007D01*
X162964678Y-113980649D01*
X162786147Y-113906699D01*
X162596620Y-113869000D01*
X162403380Y-113869000D01*
X162213853Y-113906699D01*
X162035322Y-113980649D01*
X161874649Y-114088007D01*
X161738007Y-114224649D01*
X161630649Y-114385322D01*
X161556699Y-114563853D01*
X161519000Y-114753380D01*
X159303201Y-114753380D01*
X159592361Y-114464221D01*
X159625975Y-114436635D01*
X159682095Y-114368252D01*
X159736068Y-114302486D01*
X159786171Y-114208749D01*
X159817875Y-114149435D01*
X159868252Y-113983366D01*
X159881000Y-113853933D01*
X159881000Y-113853931D01*
X159885262Y-113810661D01*
X159881000Y-113767391D01*
X159881000Y-113706993D01*
X160222612Y-113706993D01*
X160288137Y-113945860D01*
X160535116Y-114061760D01*
X160799960Y-114127250D01*
X161072492Y-114139812D01*
X161342238Y-114098965D01*
X161598832Y-114006277D01*
X161711863Y-113945860D01*
X161777388Y-113706993D01*
X161000000Y-112929605D01*
X160222612Y-113706993D01*
X159881000Y-113706993D01*
X159881000Y-113482947D01*
X160043007Y-113527388D01*
X160820395Y-112750000D01*
X161179605Y-112750000D01*
X161956993Y-113527388D01*
X162195860Y-113461863D01*
X162311760Y-113214884D01*
X162377250Y-112950040D01*
X162389812Y-112677508D01*
X162348965Y-112407762D01*
X162256277Y-112151168D01*
X162195860Y-112038137D01*
X161956993Y-111972612D01*
X161179605Y-112750000D01*
X160820395Y-112750000D01*
X160043007Y-111972612D01*
X159869643Y-112020168D01*
X159720970Y-111871495D01*
X159603505Y-111793007D01*
X160222612Y-111793007D01*
X161000000Y-112570395D01*
X161777388Y-111793007D01*
X161711863Y-111554140D01*
X161464884Y-111438240D01*
X161200040Y-111372750D01*
X160927508Y-111360188D01*
X160657762Y-111401035D01*
X160401168Y-111493723D01*
X160288137Y-111554140D01*
X160222612Y-111793007D01*
X159603505Y-111793007D01*
X159535729Y-111747721D01*
X159329900Y-111662464D01*
X159111394Y-111619000D01*
X158888606Y-111619000D01*
X158670100Y-111662464D01*
X158464271Y-111747721D01*
X158279030Y-111871495D01*
X158121495Y-112029030D01*
X158000000Y-112210860D01*
X157878505Y-112029030D01*
X157720970Y-111871495D01*
X157535729Y-111747721D01*
X157329900Y-111662464D01*
X157111394Y-111619000D01*
X156888606Y-111619000D01*
X156670100Y-111662464D01*
X156464271Y-111747721D01*
X156279030Y-111871495D01*
X156121495Y-112029030D01*
X156094788Y-112069000D01*
X153766116Y-112069000D01*
X153713225Y-112047092D01*
X153571997Y-112019000D01*
X153428003Y-112019000D01*
X153286775Y-112047092D01*
X153153742Y-112102196D01*
X153034015Y-112182195D01*
X152932195Y-112284015D01*
X152852196Y-112403742D01*
X152797092Y-112536775D01*
X152769000Y-112678003D01*
X152769000Y-112821997D01*
X152797092Y-112963225D01*
X152852196Y-113096258D01*
X152932195Y-113215985D01*
X153034015Y-113317805D01*
X153153742Y-113397804D01*
X153286775Y-113452908D01*
X153428003Y-113481000D01*
X153571997Y-113481000D01*
X153713225Y-113452908D01*
X153766116Y-113431000D01*
X156094788Y-113431000D01*
X156121495Y-113470970D01*
X156279030Y-113628505D01*
X156464271Y-113752279D01*
X156670100Y-113837536D01*
X156888606Y-113881000D01*
X157111394Y-113881000D01*
X157329900Y-113837536D01*
X157535729Y-113752279D01*
X157720970Y-113628505D01*
X157878505Y-113470970D01*
X158000000Y-113289140D01*
X158110389Y-113454349D01*
X156446953Y-115117785D01*
X156481000Y-114946620D01*
X156481000Y-114753380D01*
X156443301Y-114563853D01*
X156369351Y-114385322D01*
X156261993Y-114224649D01*
X156125351Y-114088007D01*
X155964678Y-113980649D01*
X155786147Y-113906699D01*
X155596620Y-113869000D01*
X155403380Y-113869000D01*
X155213853Y-113906699D01*
X155035322Y-113980649D01*
X154874649Y-114088007D01*
X154738007Y-114224649D01*
X154630649Y-114385322D01*
X154556699Y-114563853D01*
X154519000Y-114753380D01*
X154519000Y-114946620D01*
X154556699Y-115136147D01*
X154630649Y-115314678D01*
X154738007Y-115475351D01*
X154874649Y-115611993D01*
X154885136Y-115619000D01*
X153364922Y-115619000D01*
X151443566Y-113697645D01*
X151415975Y-113664025D01*
X151281825Y-113553932D01*
X151128775Y-113472125D01*
X150962706Y-113421748D01*
X150833273Y-113409000D01*
X150833270Y-113409000D01*
X150790000Y-113404738D01*
X150746730Y-113409000D01*
X149314138Y-113409000D01*
X149290186Y-113379814D01*
X149095129Y-113219734D01*
X148983054Y-113159829D01*
X149084751Y-113119554D01*
X149338396Y-112955748D01*
X149555210Y-112745606D01*
X149726862Y-112497204D01*
X149846755Y-112220087D01*
X149871036Y-112114740D01*
X149750378Y-111877000D01*
X147907000Y-111877000D01*
X147907000Y-111897000D01*
X147653000Y-111897000D01*
X147653000Y-111877000D01*
X145809622Y-111877000D01*
X145688964Y-112114740D01*
X145713245Y-112220087D01*
X145833138Y-112497204D01*
X145917302Y-112619000D01*
X140293269Y-112619000D01*
X140249999Y-112614738D01*
X140206729Y-112619000D01*
X140206727Y-112619000D01*
X140077294Y-112631748D01*
X139911225Y-112682125D01*
X139865198Y-112706727D01*
X139758174Y-112763932D01*
X139690022Y-112819863D01*
X139624025Y-112874025D01*
X139596439Y-112907639D01*
X138308078Y-114196001D01*
X132466268Y-114196001D01*
X132422998Y-114191739D01*
X132379728Y-114196001D01*
X132379726Y-114196001D01*
X132250293Y-114208749D01*
X132084224Y-114259126D01*
X131984485Y-114312438D01*
X131931173Y-114340933D01*
X131882314Y-114381031D01*
X131797024Y-114451026D01*
X131769439Y-114484639D01*
X131212015Y-115042063D01*
X131231000Y-114946620D01*
X131231000Y-114753380D01*
X131193301Y-114563853D01*
X131119351Y-114385322D01*
X131011993Y-114224649D01*
X130875351Y-114088007D01*
X130714678Y-113980649D01*
X130536147Y-113906699D01*
X130346620Y-113869000D01*
X130153380Y-113869000D01*
X129963853Y-113906699D01*
X129785322Y-113980649D01*
X129624649Y-114088007D01*
X129488007Y-114224649D01*
X129380649Y-114385322D01*
X129306699Y-114563853D01*
X129269000Y-114753380D01*
X129269000Y-114946620D01*
X129303047Y-115117785D01*
X128213338Y-114028077D01*
X128285116Y-114061760D01*
X128549960Y-114127250D01*
X128822492Y-114139812D01*
X129092238Y-114098965D01*
X129348832Y-114006277D01*
X129461863Y-113945860D01*
X129527388Y-113706993D01*
X128750000Y-112929605D01*
X128735858Y-112943748D01*
X128556253Y-112764143D01*
X128570395Y-112750000D01*
X128929605Y-112750000D01*
X129706993Y-113527388D01*
X129945860Y-113461863D01*
X130061760Y-113214884D01*
X130127250Y-112950040D01*
X130139812Y-112677508D01*
X130098965Y-112407762D01*
X130006277Y-112151168D01*
X129945860Y-112038137D01*
X129706993Y-111972612D01*
X128929605Y-112750000D01*
X128570395Y-112750000D01*
X127793007Y-111972612D01*
X127619643Y-112020168D01*
X127470970Y-111871495D01*
X127353505Y-111793007D01*
X127972612Y-111793007D01*
X128750000Y-112570395D01*
X129527388Y-111793007D01*
X129461863Y-111554140D01*
X129257640Y-111458304D01*
X136319000Y-111458304D01*
X136319000Y-111641696D01*
X136354778Y-111821563D01*
X136424958Y-111990994D01*
X136526845Y-112143478D01*
X136656522Y-112273155D01*
X136809006Y-112375042D01*
X136978437Y-112445222D01*
X137158304Y-112481000D01*
X137341696Y-112481000D01*
X137521563Y-112445222D01*
X137690994Y-112375042D01*
X137843478Y-112273155D01*
X137973155Y-112143478D01*
X138075042Y-111990994D01*
X138145222Y-111821563D01*
X138181000Y-111641696D01*
X138181000Y-111458304D01*
X139819000Y-111458304D01*
X139819000Y-111641696D01*
X139854778Y-111821563D01*
X139924958Y-111990994D01*
X140026845Y-112143478D01*
X140156522Y-112273155D01*
X140309006Y-112375042D01*
X140478437Y-112445222D01*
X140658304Y-112481000D01*
X140841696Y-112481000D01*
X141021563Y-112445222D01*
X141190994Y-112375042D01*
X141343478Y-112273155D01*
X141473155Y-112143478D01*
X141575042Y-111990994D01*
X141645222Y-111821563D01*
X141681000Y-111641696D01*
X141681000Y-111458304D01*
X141666471Y-111385260D01*
X145688964Y-111385260D01*
X145809622Y-111623000D01*
X147653000Y-111623000D01*
X147653000Y-111603000D01*
X147907000Y-111603000D01*
X147907000Y-111623000D01*
X149750378Y-111623000D01*
X149871036Y-111385260D01*
X149846755Y-111279913D01*
X149729246Y-111008304D01*
X165619000Y-111008304D01*
X165619000Y-111191696D01*
X165654778Y-111371563D01*
X165724958Y-111540994D01*
X165826845Y-111693478D01*
X165956522Y-111823155D01*
X166109006Y-111925042D01*
X166278437Y-111995222D01*
X166458304Y-112031000D01*
X166641696Y-112031000D01*
X166821563Y-111995222D01*
X166990994Y-111925042D01*
X167143478Y-111823155D01*
X167273155Y-111693478D01*
X167375042Y-111540994D01*
X167445222Y-111371563D01*
X167481000Y-111191696D01*
X167481000Y-111008304D01*
X167445222Y-110828437D01*
X167375042Y-110659006D01*
X167273155Y-110506522D01*
X167143478Y-110376845D01*
X166990994Y-110274958D01*
X166821563Y-110204778D01*
X166641696Y-110169000D01*
X166458304Y-110169000D01*
X166278437Y-110204778D01*
X166109006Y-110274958D01*
X165956522Y-110376845D01*
X165826845Y-110506522D01*
X165724958Y-110659006D01*
X165654778Y-110828437D01*
X165619000Y-111008304D01*
X149729246Y-111008304D01*
X149726862Y-111002796D01*
X149555210Y-110754394D01*
X149338396Y-110544252D01*
X149084751Y-110380446D01*
X148983054Y-110340171D01*
X149095129Y-110280266D01*
X149290186Y-110120186D01*
X149450266Y-109925129D01*
X149569216Y-109702589D01*
X149642465Y-109461120D01*
X149667198Y-109210000D01*
X149642465Y-108958880D01*
X149569216Y-108717411D01*
X149450266Y-108494871D01*
X149290186Y-108299814D01*
X149095129Y-108139734D01*
X148872589Y-108020784D01*
X148631120Y-107947535D01*
X148554615Y-107940000D01*
X148631120Y-107932465D01*
X148872589Y-107859216D01*
X149095129Y-107740266D01*
X149290186Y-107580186D01*
X149450266Y-107385129D01*
X149569216Y-107162589D01*
X149642465Y-106921120D01*
X149667198Y-106670000D01*
X149642465Y-106418880D01*
X149569216Y-106177411D01*
X149450266Y-105954871D01*
X149290186Y-105759814D01*
X149095129Y-105599734D01*
X148872589Y-105480784D01*
X148631120Y-105407535D01*
X148554615Y-105400000D01*
X148631120Y-105392465D01*
X148872589Y-105319216D01*
X149095129Y-105200266D01*
X149290186Y-105040186D01*
X149450266Y-104845129D01*
X149569216Y-104622589D01*
X149571596Y-104614740D01*
X151618964Y-104614740D01*
X151643245Y-104720087D01*
X151763138Y-104997204D01*
X151934790Y-105245606D01*
X152151604Y-105455748D01*
X152405249Y-105619554D01*
X152506946Y-105659829D01*
X152394871Y-105719734D01*
X152199814Y-105879814D01*
X152039734Y-106074871D01*
X151920784Y-106297411D01*
X151847535Y-106538880D01*
X151822802Y-106790000D01*
X151847535Y-107041120D01*
X151920784Y-107282589D01*
X152039734Y-107505129D01*
X152199814Y-107700186D01*
X152394871Y-107860266D01*
X152617411Y-107979216D01*
X152858880Y-108052465D01*
X153047070Y-108071000D01*
X154872930Y-108071000D01*
X155061120Y-108052465D01*
X155302589Y-107979216D01*
X155525129Y-107860266D01*
X155649369Y-107758304D01*
X165619000Y-107758304D01*
X165619000Y-107941696D01*
X165654778Y-108121563D01*
X165724958Y-108290994D01*
X165826845Y-108443478D01*
X165956522Y-108573155D01*
X166109006Y-108675042D01*
X166278437Y-108745222D01*
X166458304Y-108781000D01*
X166641696Y-108781000D01*
X166821563Y-108745222D01*
X166990994Y-108675042D01*
X167143478Y-108573155D01*
X167273155Y-108443478D01*
X167375042Y-108290994D01*
X167445222Y-108121563D01*
X167481000Y-107941696D01*
X167481000Y-107758304D01*
X167445222Y-107578437D01*
X167375042Y-107409006D01*
X167273155Y-107256522D01*
X167143478Y-107126845D01*
X166990994Y-107024958D01*
X166821563Y-106954778D01*
X166641696Y-106919000D01*
X166458304Y-106919000D01*
X166278437Y-106954778D01*
X166109006Y-107024958D01*
X165956522Y-107126845D01*
X165826845Y-107256522D01*
X165724958Y-107409006D01*
X165654778Y-107578437D01*
X165619000Y-107758304D01*
X155649369Y-107758304D01*
X155720186Y-107700186D01*
X155880266Y-107505129D01*
X155898508Y-107471000D01*
X156926547Y-107471000D01*
X156960000Y-107474295D01*
X156993453Y-107471000D01*
X157093499Y-107461146D01*
X157221868Y-107422206D01*
X157340174Y-107358970D01*
X157443870Y-107273870D01*
X157465204Y-107247874D01*
X158543368Y-106169712D01*
X158596258Y-106147804D01*
X158715985Y-106067805D01*
X158817805Y-105965985D01*
X158897804Y-105846258D01*
X158952908Y-105713225D01*
X158981000Y-105571997D01*
X158981000Y-105428003D01*
X158952908Y-105286775D01*
X158897804Y-105153742D01*
X158817805Y-105034015D01*
X158746216Y-104962426D01*
X159994000Y-104962426D01*
X159994000Y-105357574D01*
X160071090Y-105745129D01*
X160222306Y-106110197D01*
X160441838Y-106438750D01*
X160721250Y-106718162D01*
X161049803Y-106937694D01*
X161414871Y-107088910D01*
X161802426Y-107166000D01*
X162197574Y-107166000D01*
X162585129Y-107088910D01*
X162950197Y-106937694D01*
X163278750Y-106718162D01*
X163558162Y-106438750D01*
X163777694Y-106110197D01*
X163928910Y-105745129D01*
X164006000Y-105357574D01*
X164006000Y-104962426D01*
X163928910Y-104574871D01*
X163777694Y-104209803D01*
X163558162Y-103881250D01*
X163278750Y-103601838D01*
X162950197Y-103382306D01*
X162585129Y-103231090D01*
X162197574Y-103154000D01*
X161802426Y-103154000D01*
X161414871Y-103231090D01*
X161049803Y-103382306D01*
X160721250Y-103601838D01*
X160441838Y-103881250D01*
X160222306Y-104209803D01*
X160071090Y-104574871D01*
X159994000Y-104962426D01*
X158746216Y-104962426D01*
X158715985Y-104932195D01*
X158596258Y-104852196D01*
X158463225Y-104797092D01*
X158321997Y-104769000D01*
X158178003Y-104769000D01*
X158036775Y-104797092D01*
X157903742Y-104852196D01*
X157784015Y-104932195D01*
X157682195Y-105034015D01*
X157602196Y-105153742D01*
X157580288Y-105206632D01*
X156677922Y-106109000D01*
X155898508Y-106109000D01*
X155880266Y-106074871D01*
X155720186Y-105879814D01*
X155525129Y-105719734D01*
X155413054Y-105659829D01*
X155514751Y-105619554D01*
X155768396Y-105455748D01*
X155985210Y-105245606D01*
X156156862Y-104997204D01*
X156276755Y-104720087D01*
X156301036Y-104614740D01*
X156180378Y-104377000D01*
X154087000Y-104377000D01*
X154087000Y-104397000D01*
X153833000Y-104397000D01*
X153833000Y-104377000D01*
X151739622Y-104377000D01*
X151618964Y-104614740D01*
X149571596Y-104614740D01*
X149642465Y-104381120D01*
X149667198Y-104130000D01*
X149642465Y-103878880D01*
X149569216Y-103637411D01*
X149450266Y-103414871D01*
X149290186Y-103219814D01*
X149095129Y-103059734D01*
X148872589Y-102940784D01*
X148631120Y-102867535D01*
X148442930Y-102849000D01*
X147117070Y-102849000D01*
X146928880Y-102867535D01*
X146687411Y-102940784D01*
X146464871Y-103059734D01*
X146269814Y-103219814D01*
X146109734Y-103414871D01*
X145990784Y-103637411D01*
X145917535Y-103878880D01*
X145892802Y-104130000D01*
X145917535Y-104381120D01*
X145990784Y-104622589D01*
X146109734Y-104845129D01*
X146269814Y-105040186D01*
X146464871Y-105200266D01*
X146687411Y-105319216D01*
X146928880Y-105392465D01*
X147005385Y-105400000D01*
X146928880Y-105407535D01*
X146687411Y-105480784D01*
X146464871Y-105599734D01*
X146269814Y-105759814D01*
X146109734Y-105954871D01*
X145990784Y-106177411D01*
X145917535Y-106418880D01*
X145892802Y-106670000D01*
X145917535Y-106921120D01*
X145990784Y-107162589D01*
X146109734Y-107385129D01*
X146269814Y-107580186D01*
X146464871Y-107740266D01*
X146687411Y-107859216D01*
X146928880Y-107932465D01*
X147005385Y-107940000D01*
X146928880Y-107947535D01*
X146687411Y-108020784D01*
X146464871Y-108139734D01*
X146269814Y-108299814D01*
X146109734Y-108494871D01*
X145990784Y-108717411D01*
X145917535Y-108958880D01*
X145892802Y-109210000D01*
X145917535Y-109461120D01*
X145990784Y-109702589D01*
X146109734Y-109925129D01*
X146269814Y-110120186D01*
X146464871Y-110280266D01*
X146576946Y-110340171D01*
X146475249Y-110380446D01*
X146221604Y-110544252D01*
X146004790Y-110754394D01*
X145833138Y-111002796D01*
X145713245Y-111279913D01*
X145688964Y-111385260D01*
X141666471Y-111385260D01*
X141645222Y-111278437D01*
X141575042Y-111109006D01*
X141473155Y-110956522D01*
X141343478Y-110826845D01*
X141190994Y-110724958D01*
X141021563Y-110654778D01*
X140841696Y-110619000D01*
X140658304Y-110619000D01*
X140478437Y-110654778D01*
X140309006Y-110724958D01*
X140156522Y-110826845D01*
X140026845Y-110956522D01*
X139924958Y-111109006D01*
X139854778Y-111278437D01*
X139819000Y-111458304D01*
X138181000Y-111458304D01*
X138145222Y-111278437D01*
X138075042Y-111109006D01*
X137973155Y-110956522D01*
X137843478Y-110826845D01*
X137690994Y-110724958D01*
X137521563Y-110654778D01*
X137341696Y-110619000D01*
X137158304Y-110619000D01*
X136978437Y-110654778D01*
X136809006Y-110724958D01*
X136656522Y-110826845D01*
X136526845Y-110956522D01*
X136424958Y-111109006D01*
X136354778Y-111278437D01*
X136319000Y-111458304D01*
X129257640Y-111458304D01*
X129214884Y-111438240D01*
X128950040Y-111372750D01*
X128677508Y-111360188D01*
X128407762Y-111401035D01*
X128151168Y-111493723D01*
X128038137Y-111554140D01*
X127972612Y-111793007D01*
X127353505Y-111793007D01*
X127285729Y-111747721D01*
X127079900Y-111662464D01*
X126861394Y-111619000D01*
X126638606Y-111619000D01*
X126420100Y-111662464D01*
X126214271Y-111747721D01*
X126029030Y-111871495D01*
X125871495Y-112029030D01*
X125750000Y-112210860D01*
X125628505Y-112029030D01*
X125470970Y-111871495D01*
X125285729Y-111747721D01*
X125079900Y-111662464D01*
X124861394Y-111619000D01*
X124638606Y-111619000D01*
X124420100Y-111662464D01*
X124214271Y-111747721D01*
X124029030Y-111871495D01*
X123871495Y-112029030D01*
X123747721Y-112214271D01*
X123662464Y-112420100D01*
X123619000Y-112638606D01*
X123619000Y-112861394D01*
X123662464Y-113079900D01*
X123747721Y-113285729D01*
X123871495Y-113470970D01*
X124029030Y-113628505D01*
X124214271Y-113752279D01*
X124420100Y-113837536D01*
X124638606Y-113881000D01*
X124861394Y-113881000D01*
X125079900Y-113837536D01*
X125285729Y-113752279D01*
X125470970Y-113628505D01*
X125628505Y-113470970D01*
X125750000Y-113289140D01*
X125869000Y-113467236D01*
X125869000Y-113767389D01*
X125864738Y-113810660D01*
X125869000Y-113853930D01*
X125869000Y-113853932D01*
X125881748Y-113983365D01*
X125929206Y-114139812D01*
X125932125Y-114149434D01*
X126013932Y-114302485D01*
X126045486Y-114340933D01*
X126124025Y-114436635D01*
X126157645Y-114464226D01*
X128535779Y-116842361D01*
X128563365Y-116875975D01*
X128629362Y-116930137D01*
X128697514Y-116986068D01*
X128850565Y-117067875D01*
X129016634Y-117118252D01*
X129146067Y-117131000D01*
X129146070Y-117131000D01*
X129189340Y-117135262D01*
X129232610Y-117131000D01*
X131206730Y-117131000D01*
X131250000Y-117135262D01*
X131293270Y-117131000D01*
X131293273Y-117131000D01*
X131422706Y-117118252D01*
X131588775Y-117067875D01*
X131741825Y-116986068D01*
X131875975Y-116875975D01*
X131903566Y-116842356D01*
X132787921Y-115958001D01*
X138629729Y-115958001D01*
X138672999Y-115962263D01*
X138716269Y-115958001D01*
X138716272Y-115958001D01*
X138845705Y-115945253D01*
X139011774Y-115894876D01*
X139164824Y-115813069D01*
X139298974Y-115702976D01*
X139326565Y-115669356D01*
X140067866Y-114928055D01*
X140065705Y-114950000D01*
X140069000Y-114983453D01*
X140069000Y-115017073D01*
X140075559Y-115050048D01*
X140078854Y-115083498D01*
X140088611Y-115115663D01*
X140095171Y-115148640D01*
X140108038Y-115179704D01*
X140117795Y-115211868D01*
X140133638Y-115241508D01*
X140146506Y-115272574D01*
X140165190Y-115300536D01*
X140181031Y-115330173D01*
X140202349Y-115356150D01*
X140221033Y-115384112D01*
X140315888Y-115478967D01*
X140315891Y-115478969D01*
X141092115Y-116255194D01*
X141092121Y-116255199D01*
X141394796Y-116557874D01*
X141416130Y-116583870D01*
X141519826Y-116668970D01*
X141638132Y-116732206D01*
X141766501Y-116771146D01*
X141900000Y-116784295D01*
X141933453Y-116781000D01*
X142009187Y-116781000D01*
X141952512Y-116827512D01*
X141873810Y-116923411D01*
X141815329Y-117032821D01*
X141779317Y-117151538D01*
X141767157Y-117275000D01*
X141767157Y-118725000D01*
X141779317Y-118848462D01*
X141815329Y-118967179D01*
X141873810Y-119076589D01*
X141952512Y-119172488D01*
X142048411Y-119251190D01*
X142157821Y-119309671D01*
X142276538Y-119345683D01*
X142400000Y-119357843D01*
X143600000Y-119357843D01*
X143723462Y-119345683D01*
X143842179Y-119309671D01*
X143951589Y-119251190D01*
X144047488Y-119172488D01*
X144126190Y-119076589D01*
X144184671Y-118967179D01*
X144220683Y-118848462D01*
X144232843Y-118725000D01*
X144232843Y-117275000D01*
X144220683Y-117151538D01*
X144184671Y-117032821D01*
X144126190Y-116923411D01*
X144047488Y-116827512D01*
X143990813Y-116781000D01*
X147552436Y-116781000D01*
X147521250Y-116801838D01*
X147241838Y-117081250D01*
X147022306Y-117409803D01*
X146871090Y-117774871D01*
X146794000Y-118162426D01*
X146794000Y-118557574D01*
X146871090Y-118945129D01*
X147022306Y-119310197D01*
X147241838Y-119638750D01*
X147422088Y-119819000D01*
X131659436Y-119819000D01*
X131646258Y-119810195D01*
X131513225Y-119755091D01*
X131371997Y-119726999D01*
X131228003Y-119726999D01*
X131086775Y-119755091D01*
X130953742Y-119810195D01*
X130834015Y-119890194D01*
X130732195Y-119992014D01*
X130652196Y-120111741D01*
X130597092Y-120244774D01*
X130569000Y-120386002D01*
X130569000Y-120529996D01*
X130593666Y-120653999D01*
X120021081Y-120653999D01*
X119590765Y-120611806D01*
X119197113Y-120492956D01*
X118834042Y-120299908D01*
X118515384Y-120040017D01*
X118253275Y-119723183D01*
X118057698Y-119361472D01*
X117936102Y-118968658D01*
X117891001Y-118539554D01*
X117891001Y-118389360D01*
X118369000Y-118389360D01*
X118369000Y-118710640D01*
X118431678Y-119025745D01*
X118554626Y-119322568D01*
X118733119Y-119589702D01*
X118960298Y-119816881D01*
X119227432Y-119995374D01*
X119524255Y-120118322D01*
X119839360Y-120181000D01*
X120160640Y-120181000D01*
X120475745Y-120118322D01*
X120772568Y-119995374D01*
X121039702Y-119816881D01*
X121266881Y-119589702D01*
X121445374Y-119322568D01*
X121568322Y-119025745D01*
X121631000Y-118710640D01*
X121631000Y-118668304D01*
X124279000Y-118668304D01*
X124279000Y-118851696D01*
X124314778Y-119031563D01*
X124384958Y-119200994D01*
X124486845Y-119353478D01*
X124616522Y-119483155D01*
X124769006Y-119585042D01*
X124938437Y-119655222D01*
X125118304Y-119691000D01*
X125301696Y-119691000D01*
X125481563Y-119655222D01*
X125650994Y-119585042D01*
X125803478Y-119483155D01*
X125933155Y-119353478D01*
X126035042Y-119200994D01*
X126105222Y-119031563D01*
X126141000Y-118851696D01*
X126141000Y-118668304D01*
X126139011Y-118658304D01*
X127569000Y-118658304D01*
X127569000Y-118841696D01*
X127604778Y-119021563D01*
X127674958Y-119190994D01*
X127776845Y-119343478D01*
X127906522Y-119473155D01*
X128059006Y-119575042D01*
X128228437Y-119645222D01*
X128408304Y-119681000D01*
X128591696Y-119681000D01*
X128771563Y-119645222D01*
X128940994Y-119575042D01*
X129093478Y-119473155D01*
X129223155Y-119343478D01*
X129325042Y-119190994D01*
X129395222Y-119021563D01*
X129431000Y-118841696D01*
X129431000Y-118658304D01*
X129395222Y-118478437D01*
X129345861Y-118359267D01*
X134033680Y-118359267D01*
X134107558Y-118640830D01*
X134234947Y-118902570D01*
X134410951Y-119134429D01*
X134628807Y-119327496D01*
X134880142Y-119474352D01*
X135143110Y-119566476D01*
X135373000Y-119445155D01*
X135373000Y-118127000D01*
X134173835Y-118127000D01*
X134033680Y-118359267D01*
X129345861Y-118359267D01*
X129325042Y-118309006D01*
X129223155Y-118156522D01*
X129093478Y-118026845D01*
X128940994Y-117924958D01*
X128771563Y-117854778D01*
X128591696Y-117819000D01*
X128408304Y-117819000D01*
X128228437Y-117854778D01*
X128059006Y-117924958D01*
X127906522Y-118026845D01*
X127776845Y-118156522D01*
X127674958Y-118309006D01*
X127604778Y-118478437D01*
X127569000Y-118658304D01*
X126139011Y-118658304D01*
X126105222Y-118488437D01*
X126035042Y-118319006D01*
X125933155Y-118166522D01*
X125803478Y-118036845D01*
X125650994Y-117934958D01*
X125481563Y-117864778D01*
X125301696Y-117829000D01*
X125118304Y-117829000D01*
X124938437Y-117864778D01*
X124769006Y-117934958D01*
X124616522Y-118036845D01*
X124486845Y-118166522D01*
X124384958Y-118319006D01*
X124314778Y-118488437D01*
X124279000Y-118668304D01*
X121631000Y-118668304D01*
X121631000Y-118389360D01*
X121568322Y-118074255D01*
X121445374Y-117777432D01*
X121354035Y-117640733D01*
X134033680Y-117640733D01*
X134173835Y-117873000D01*
X135373000Y-117873000D01*
X135373000Y-116554845D01*
X135627000Y-116554845D01*
X135627000Y-117873000D01*
X135647000Y-117873000D01*
X135647000Y-118127000D01*
X135627000Y-118127000D01*
X135627000Y-119445155D01*
X135856890Y-119566476D01*
X136119858Y-119474352D01*
X136371193Y-119327496D01*
X136589049Y-119134429D01*
X136765053Y-118902570D01*
X136886465Y-118653110D01*
X136971509Y-118812215D01*
X137125340Y-118999660D01*
X137312784Y-119153491D01*
X137526637Y-119267798D01*
X137758682Y-119338188D01*
X138000000Y-119361956D01*
X138241317Y-119338188D01*
X138473362Y-119267798D01*
X138687215Y-119153491D01*
X138874660Y-118999660D01*
X139028491Y-118812216D01*
X139142798Y-118598363D01*
X139213188Y-118366318D01*
X139231000Y-118185472D01*
X139231000Y-117814529D01*
X139231000Y-117814528D01*
X139269000Y-117814528D01*
X139269000Y-118185471D01*
X139286812Y-118366317D01*
X139357202Y-118598362D01*
X139471509Y-118812215D01*
X139625340Y-118999660D01*
X139812784Y-119153491D01*
X140026637Y-119267798D01*
X140258682Y-119338188D01*
X140500000Y-119361956D01*
X140741317Y-119338188D01*
X140973362Y-119267798D01*
X141187215Y-119153491D01*
X141374660Y-118999660D01*
X141528491Y-118812216D01*
X141642798Y-118598363D01*
X141713188Y-118366318D01*
X141731000Y-118185472D01*
X141731000Y-117814529D01*
X141713188Y-117633683D01*
X141642798Y-117401638D01*
X141528491Y-117187785D01*
X141374660Y-117000340D01*
X141187216Y-116846509D01*
X140973363Y-116732202D01*
X140741318Y-116661812D01*
X140500000Y-116638044D01*
X140258683Y-116661812D01*
X140026638Y-116732202D01*
X139812785Y-116846509D01*
X139625341Y-117000340D01*
X139471509Y-117187784D01*
X139357202Y-117401637D01*
X139286812Y-117633682D01*
X139269000Y-117814528D01*
X139231000Y-117814528D01*
X139213188Y-117633683D01*
X139142798Y-117401638D01*
X139028491Y-117187785D01*
X138874660Y-117000340D01*
X138687216Y-116846509D01*
X138473363Y-116732202D01*
X138241318Y-116661812D01*
X138000000Y-116638044D01*
X137758683Y-116661812D01*
X137526638Y-116732202D01*
X137312785Y-116846509D01*
X137125341Y-117000340D01*
X136971509Y-117187784D01*
X136886465Y-117346890D01*
X136765053Y-117097430D01*
X136589049Y-116865571D01*
X136371193Y-116672504D01*
X136119858Y-116525648D01*
X135856890Y-116433524D01*
X135627000Y-116554845D01*
X135373000Y-116554845D01*
X135143110Y-116433524D01*
X134880142Y-116525648D01*
X134628807Y-116672504D01*
X134410951Y-116865571D01*
X134234947Y-117097430D01*
X134107558Y-117359170D01*
X134033680Y-117640733D01*
X121354035Y-117640733D01*
X121266881Y-117510298D01*
X121039702Y-117283119D01*
X120772568Y-117104626D01*
X120475745Y-116981678D01*
X120160640Y-116919000D01*
X119839360Y-116919000D01*
X119524255Y-116981678D01*
X119227432Y-117104626D01*
X118960298Y-117283119D01*
X118733119Y-117510298D01*
X118554626Y-117777432D01*
X118431678Y-118074255D01*
X118369000Y-118389360D01*
X117891001Y-118389360D01*
X117891001Y-114753380D01*
X122269000Y-114753380D01*
X122269000Y-114946620D01*
X122306699Y-115136147D01*
X122380649Y-115314678D01*
X122488007Y-115475351D01*
X122624649Y-115611993D01*
X122785322Y-115719351D01*
X122963853Y-115793301D01*
X123153380Y-115831000D01*
X123346620Y-115831000D01*
X123536147Y-115793301D01*
X123714678Y-115719351D01*
X123875351Y-115611993D01*
X124011993Y-115475351D01*
X124119351Y-115314678D01*
X124193301Y-115136147D01*
X124231000Y-114946620D01*
X124231000Y-114753380D01*
X124193301Y-114563853D01*
X124119351Y-114385322D01*
X124011993Y-114224649D01*
X123875351Y-114088007D01*
X123714678Y-113980649D01*
X123536147Y-113906699D01*
X123346620Y-113869000D01*
X123153380Y-113869000D01*
X122963853Y-113906699D01*
X122785322Y-113980649D01*
X122624649Y-114088007D01*
X122488007Y-114224649D01*
X122380649Y-114385322D01*
X122306699Y-114563853D01*
X122269000Y-114753380D01*
X117891001Y-114753380D01*
X117891001Y-107102426D01*
X118424000Y-107102426D01*
X118424000Y-107497574D01*
X118501090Y-107885129D01*
X118652306Y-108250197D01*
X118871838Y-108578750D01*
X119151250Y-108858162D01*
X119479803Y-109077694D01*
X119844871Y-109228910D01*
X120232426Y-109306000D01*
X120627574Y-109306000D01*
X121015129Y-109228910D01*
X121380197Y-109077694D01*
X121708750Y-108858162D01*
X121988162Y-108578750D01*
X122207694Y-108250197D01*
X122358910Y-107885129D01*
X122436000Y-107497574D01*
X122436000Y-107477071D01*
X122679000Y-107477071D01*
X122679000Y-108802930D01*
X122697535Y-108991120D01*
X122770784Y-109232589D01*
X122889735Y-109455129D01*
X123049815Y-109650186D01*
X123244872Y-109810266D01*
X123467412Y-109929216D01*
X123708881Y-110002465D01*
X123960000Y-110027198D01*
X124211120Y-110002465D01*
X124452589Y-109929216D01*
X124675129Y-109810266D01*
X124870186Y-109650186D01*
X125030266Y-109455129D01*
X125149216Y-109232589D01*
X125222465Y-108991120D01*
X125230000Y-108914615D01*
X125237535Y-108991120D01*
X125310784Y-109232589D01*
X125429735Y-109455129D01*
X125589815Y-109650186D01*
X125784872Y-109810266D01*
X126007412Y-109929216D01*
X126248881Y-110002465D01*
X126500000Y-110027198D01*
X126751120Y-110002465D01*
X126992589Y-109929216D01*
X127215129Y-109810266D01*
X127410186Y-109650186D01*
X127570266Y-109455129D01*
X127630171Y-109343054D01*
X127670446Y-109444751D01*
X127834252Y-109698396D01*
X128044394Y-109915210D01*
X128292796Y-110086862D01*
X128569913Y-110206755D01*
X128675260Y-110231036D01*
X128913000Y-110110378D01*
X128913000Y-108267000D01*
X129167000Y-108267000D01*
X129167000Y-110110378D01*
X129404740Y-110231036D01*
X129510087Y-110206755D01*
X129787204Y-110086862D01*
X130035606Y-109915210D01*
X130245748Y-109698396D01*
X130310000Y-109598905D01*
X130374252Y-109698396D01*
X130584394Y-109915210D01*
X130832796Y-110086862D01*
X131109913Y-110206755D01*
X131215260Y-110231036D01*
X131453000Y-110110378D01*
X131453000Y-108267000D01*
X129167000Y-108267000D01*
X128913000Y-108267000D01*
X128893000Y-108267000D01*
X128893000Y-108013000D01*
X128913000Y-108013000D01*
X128913000Y-106169622D01*
X128675260Y-106048964D01*
X128569913Y-106073245D01*
X128292796Y-106193138D01*
X128044394Y-106364790D01*
X127834252Y-106581604D01*
X127670446Y-106835249D01*
X127630171Y-106936946D01*
X127570266Y-106824871D01*
X127410186Y-106629814D01*
X127215128Y-106469734D01*
X126992588Y-106350784D01*
X126751119Y-106277535D01*
X126500000Y-106252802D01*
X126248880Y-106277535D01*
X126007411Y-106350784D01*
X125784871Y-106469734D01*
X125589814Y-106629814D01*
X125429734Y-106824872D01*
X125310784Y-107047412D01*
X125237535Y-107288881D01*
X125230000Y-107365385D01*
X125222465Y-107288880D01*
X125149216Y-107047411D01*
X125030266Y-106824871D01*
X124870186Y-106629814D01*
X124675128Y-106469734D01*
X124452588Y-106350784D01*
X124211119Y-106277535D01*
X123960000Y-106252802D01*
X123708880Y-106277535D01*
X123467411Y-106350784D01*
X123244871Y-106469734D01*
X123049814Y-106629814D01*
X122889734Y-106824872D01*
X122770784Y-107047412D01*
X122697535Y-107288881D01*
X122679000Y-107477071D01*
X122436000Y-107477071D01*
X122436000Y-107102426D01*
X122358910Y-106714871D01*
X122207694Y-106349803D01*
X121988162Y-106021250D01*
X121708750Y-105741838D01*
X121380197Y-105522306D01*
X121015129Y-105371090D01*
X120627574Y-105294000D01*
X120232426Y-105294000D01*
X119844871Y-105371090D01*
X119479803Y-105522306D01*
X119151250Y-105741838D01*
X118871838Y-106021250D01*
X118652306Y-106349803D01*
X118501090Y-106714871D01*
X118424000Y-107102426D01*
X117891001Y-107102426D01*
X117891001Y-101950000D01*
X120167157Y-101950000D01*
X120167157Y-103750000D01*
X120174513Y-103824689D01*
X120196299Y-103896508D01*
X120231678Y-103962696D01*
X120279289Y-104020711D01*
X120337304Y-104068322D01*
X120403492Y-104103701D01*
X120475311Y-104125487D01*
X120550000Y-104132843D01*
X124350000Y-104132843D01*
X124424689Y-104125487D01*
X124496508Y-104103701D01*
X124562696Y-104068322D01*
X124620711Y-104020711D01*
X124668322Y-103962696D01*
X124703701Y-103896508D01*
X124725487Y-103824689D01*
X124732843Y-103750000D01*
X124732843Y-101950000D01*
X124725487Y-101875311D01*
X124703701Y-101803492D01*
X124668322Y-101737304D01*
X124620711Y-101679289D01*
X124562696Y-101631678D01*
X124496508Y-101596299D01*
X124424689Y-101574513D01*
X124350000Y-101567157D01*
X120550000Y-101567157D01*
X120475311Y-101574513D01*
X120403492Y-101596299D01*
X120337304Y-101631678D01*
X120279289Y-101679289D01*
X120231678Y-101737304D01*
X120196299Y-101803492D01*
X120174513Y-101875311D01*
X120167157Y-101950000D01*
X117891001Y-101950000D01*
X117891001Y-99000000D01*
X124911928Y-99000000D01*
X124924188Y-99124482D01*
X124960498Y-99244180D01*
X125019463Y-99354494D01*
X125098815Y-99451185D01*
X125195506Y-99530537D01*
X125305820Y-99589502D01*
X125425518Y-99625812D01*
X125459874Y-99629196D01*
X125403492Y-99646299D01*
X125337304Y-99681678D01*
X125279289Y-99729289D01*
X125231678Y-99787304D01*
X125196299Y-99853492D01*
X125174513Y-99925311D01*
X125167157Y-100000000D01*
X125167157Y-101000000D01*
X125174513Y-101074689D01*
X125196299Y-101146508D01*
X125231678Y-101212696D01*
X125279289Y-101270711D01*
X125337304Y-101318322D01*
X125403492Y-101353701D01*
X125475311Y-101375487D01*
X125550000Y-101382843D01*
X126470634Y-101382843D01*
X126522771Y-101410711D01*
X126707690Y-101466805D01*
X126851813Y-101481000D01*
X132823657Y-101481000D01*
X133329001Y-101986344D01*
X133329000Y-102656101D01*
X133239734Y-102764872D01*
X133179829Y-102876947D01*
X133139554Y-102775249D01*
X132975748Y-102521604D01*
X132765606Y-102304790D01*
X132517204Y-102133138D01*
X132240087Y-102013245D01*
X132134740Y-101988964D01*
X131897000Y-102109622D01*
X131897000Y-103953000D01*
X131917000Y-103953000D01*
X131917000Y-104207000D01*
X131897000Y-104207000D01*
X131897000Y-104227000D01*
X131643000Y-104227000D01*
X131643000Y-104207000D01*
X131623000Y-104207000D01*
X131623000Y-103953000D01*
X131643000Y-103953000D01*
X131643000Y-102109622D01*
X131405260Y-101988964D01*
X131299913Y-102013245D01*
X131022796Y-102133138D01*
X130774394Y-102304790D01*
X130564252Y-102521604D01*
X130400446Y-102775249D01*
X130360171Y-102876946D01*
X130300266Y-102764871D01*
X130140186Y-102569814D01*
X129945128Y-102409734D01*
X129722588Y-102290784D01*
X129481119Y-102217535D01*
X129230000Y-102192802D01*
X128978880Y-102217535D01*
X128737411Y-102290784D01*
X128514871Y-102409734D01*
X128319814Y-102569814D01*
X128159734Y-102764872D01*
X128040784Y-102987412D01*
X127967535Y-103228881D01*
X127960000Y-103305385D01*
X127952465Y-103228880D01*
X127879216Y-102987411D01*
X127760266Y-102764871D01*
X127600186Y-102569814D01*
X127405128Y-102409734D01*
X127182588Y-102290784D01*
X126941119Y-102217535D01*
X126690000Y-102192802D01*
X126438880Y-102217535D01*
X126197411Y-102290784D01*
X125974871Y-102409734D01*
X125779814Y-102569814D01*
X125619734Y-102764872D01*
X125500784Y-102987412D01*
X125427535Y-103228881D01*
X125409000Y-103417071D01*
X125409000Y-104742930D01*
X125427535Y-104931120D01*
X125500784Y-105172589D01*
X125619735Y-105395129D01*
X125779815Y-105590186D01*
X125974872Y-105750266D01*
X126197412Y-105869216D01*
X126438881Y-105942465D01*
X126690000Y-105967198D01*
X126941120Y-105942465D01*
X127182589Y-105869216D01*
X127405129Y-105750266D01*
X127600186Y-105590186D01*
X127760266Y-105395129D01*
X127879216Y-105172589D01*
X127952465Y-104931120D01*
X127960000Y-104854615D01*
X127967535Y-104931120D01*
X128040784Y-105172589D01*
X128159735Y-105395129D01*
X128319815Y-105590186D01*
X128514872Y-105750266D01*
X128737412Y-105869216D01*
X128978881Y-105942465D01*
X129230000Y-105967198D01*
X129481120Y-105942465D01*
X129722589Y-105869216D01*
X129945129Y-105750266D01*
X130140186Y-105590186D01*
X130300266Y-105395129D01*
X130360171Y-105283054D01*
X130400446Y-105384751D01*
X130564252Y-105638396D01*
X130774394Y-105855210D01*
X131022796Y-106026862D01*
X131123021Y-106070224D01*
X131109913Y-106073245D01*
X130832796Y-106193138D01*
X130584394Y-106364790D01*
X130374252Y-106581604D01*
X130310000Y-106681095D01*
X130245748Y-106581604D01*
X130035606Y-106364790D01*
X129787204Y-106193138D01*
X129510087Y-106073245D01*
X129404740Y-106048964D01*
X129167000Y-106169622D01*
X129167000Y-108013000D01*
X131453000Y-108013000D01*
X131453000Y-107993000D01*
X131707000Y-107993000D01*
X131707000Y-108013000D01*
X131727000Y-108013000D01*
X131727000Y-108267000D01*
X131707000Y-108267000D01*
X131707000Y-110110378D01*
X131944740Y-110231036D01*
X132050087Y-110206755D01*
X132327204Y-110086862D01*
X132575606Y-109915210D01*
X132785748Y-109698396D01*
X132949554Y-109444751D01*
X132989829Y-109343053D01*
X133049735Y-109455129D01*
X133209815Y-109650186D01*
X133404872Y-109810266D01*
X133627412Y-109929216D01*
X133868881Y-110002465D01*
X134120000Y-110027198D01*
X134371120Y-110002465D01*
X134612589Y-109929216D01*
X134835129Y-109810266D01*
X135030186Y-109650186D01*
X135190266Y-109455129D01*
X135309216Y-109232589D01*
X135382465Y-108991120D01*
X135401000Y-108802930D01*
X135401000Y-107477070D01*
X135382465Y-107288880D01*
X135309216Y-107047411D01*
X135190266Y-106824871D01*
X135030186Y-106629814D01*
X134835128Y-106469734D01*
X134612588Y-106350784D01*
X134371119Y-106277535D01*
X134120000Y-106252802D01*
X133868880Y-106277535D01*
X133627411Y-106350784D01*
X133404871Y-106469734D01*
X133209814Y-106629814D01*
X133049734Y-106824872D01*
X132989829Y-106936947D01*
X132949554Y-106835249D01*
X132785748Y-106581604D01*
X132575606Y-106364790D01*
X132327204Y-106193138D01*
X132226979Y-106149776D01*
X132240087Y-106146755D01*
X132517204Y-106026862D01*
X132765606Y-105855210D01*
X132975748Y-105638396D01*
X133139554Y-105384751D01*
X133179829Y-105283053D01*
X133239735Y-105395129D01*
X133399815Y-105590186D01*
X133594872Y-105750266D01*
X133817412Y-105869216D01*
X134058881Y-105942465D01*
X134310000Y-105967198D01*
X134561120Y-105942465D01*
X134802589Y-105869216D01*
X135025129Y-105750266D01*
X135220186Y-105590186D01*
X135380266Y-105395129D01*
X135499216Y-105172589D01*
X135572465Y-104931120D01*
X135591000Y-104742930D01*
X135591000Y-103417070D01*
X135572465Y-103228880D01*
X135499216Y-102987411D01*
X135380266Y-102764871D01*
X135291000Y-102656101D01*
X135291000Y-101628186D01*
X135295746Y-101580000D01*
X135291000Y-101531813D01*
X135291000Y-100082927D01*
X136569000Y-100082927D01*
X136569000Y-100217073D01*
X136569001Y-100217078D01*
X136569000Y-103282927D01*
X136569000Y-103417073D01*
X136575559Y-103450048D01*
X136578854Y-103483498D01*
X136588612Y-103515665D01*
X136595171Y-103548640D01*
X136608036Y-103579699D01*
X136617794Y-103611867D01*
X136633640Y-103641513D01*
X136646506Y-103672574D01*
X136665185Y-103700529D01*
X136681030Y-103730173D01*
X136702354Y-103756156D01*
X136721033Y-103784112D01*
X136744805Y-103807884D01*
X136766130Y-103833869D01*
X136792117Y-103855196D01*
X136815888Y-103878967D01*
X136843840Y-103897644D01*
X136869826Y-103918970D01*
X136899475Y-103934817D01*
X136927426Y-103953494D01*
X136958483Y-103966358D01*
X136988132Y-103982206D01*
X137020304Y-103991965D01*
X137051360Y-104004829D01*
X137084332Y-104011388D01*
X137116501Y-104021146D01*
X137149953Y-104024441D01*
X137182927Y-104031000D01*
X137216547Y-104031000D01*
X137250000Y-104034295D01*
X137283453Y-104031000D01*
X137317073Y-104031000D01*
X137350048Y-104024441D01*
X137383498Y-104021146D01*
X137415665Y-104011388D01*
X137448640Y-104004829D01*
X137479699Y-103991964D01*
X137511867Y-103982206D01*
X137541513Y-103966360D01*
X137572574Y-103953494D01*
X137600529Y-103934815D01*
X137630173Y-103918970D01*
X137656156Y-103897646D01*
X137684112Y-103878967D01*
X137707884Y-103855195D01*
X137733869Y-103833870D01*
X137755196Y-103807883D01*
X137778967Y-103784112D01*
X137797644Y-103756160D01*
X137818970Y-103730174D01*
X137834817Y-103700525D01*
X137853494Y-103672574D01*
X137866358Y-103641517D01*
X137882206Y-103611868D01*
X137891965Y-103579696D01*
X137904829Y-103548640D01*
X137911388Y-103515668D01*
X137921146Y-103483499D01*
X137924441Y-103450047D01*
X137931000Y-103417073D01*
X137931000Y-100082927D01*
X137924441Y-100049953D01*
X137921146Y-100016501D01*
X137911388Y-99984332D01*
X137904829Y-99951360D01*
X137891965Y-99920304D01*
X137882206Y-99888132D01*
X137866358Y-99858483D01*
X137853494Y-99827426D01*
X137834817Y-99799475D01*
X137818970Y-99769826D01*
X137797643Y-99743838D01*
X137778967Y-99715888D01*
X137755200Y-99692121D01*
X137733870Y-99666130D01*
X137707879Y-99644800D01*
X137684112Y-99621033D01*
X137656162Y-99602357D01*
X137630174Y-99581030D01*
X137600525Y-99565183D01*
X137572574Y-99546506D01*
X137541517Y-99533642D01*
X137511868Y-99517794D01*
X137479696Y-99508035D01*
X137448640Y-99495171D01*
X137415668Y-99488612D01*
X137383499Y-99478854D01*
X137350047Y-99475559D01*
X137317073Y-99469000D01*
X137283453Y-99469000D01*
X137250000Y-99465705D01*
X137216547Y-99469000D01*
X137182927Y-99469000D01*
X137149952Y-99475559D01*
X137116502Y-99478854D01*
X137084335Y-99488612D01*
X137051360Y-99495171D01*
X137020301Y-99508036D01*
X136988133Y-99517794D01*
X136958487Y-99533640D01*
X136927426Y-99546506D01*
X136899471Y-99565185D01*
X136869827Y-99581030D01*
X136843844Y-99602354D01*
X136815888Y-99621033D01*
X136792116Y-99644805D01*
X136766131Y-99666130D01*
X136744806Y-99692115D01*
X136721033Y-99715888D01*
X136702353Y-99743845D01*
X136681031Y-99769826D01*
X136665188Y-99799467D01*
X136646506Y-99827426D01*
X136633639Y-99858491D01*
X136617795Y-99888132D01*
X136608039Y-99920295D01*
X136595171Y-99951360D01*
X136588610Y-99984342D01*
X136578855Y-100016501D01*
X136575561Y-100049943D01*
X136569000Y-100082927D01*
X135291000Y-100082927D01*
X135291000Y-98450000D01*
X143915705Y-98450000D01*
X143919000Y-98483453D01*
X143919000Y-98517073D01*
X143925559Y-98550048D01*
X143928854Y-98583498D01*
X143938611Y-98615663D01*
X143945171Y-98648640D01*
X143958038Y-98679704D01*
X143967795Y-98711868D01*
X143983638Y-98741508D01*
X143996506Y-98772574D01*
X144015190Y-98800536D01*
X144031031Y-98830173D01*
X144052349Y-98856150D01*
X144071033Y-98884112D01*
X144165888Y-98978967D01*
X144165891Y-98978969D01*
X145444804Y-100257884D01*
X145466130Y-100283870D01*
X145569826Y-100368970D01*
X145688132Y-100432206D01*
X145816501Y-100471146D01*
X145916547Y-100481000D01*
X145916548Y-100481000D01*
X145949999Y-100484295D01*
X145983450Y-100481000D01*
X152748561Y-100481000D01*
X152617411Y-100520784D01*
X152394871Y-100639734D01*
X152199814Y-100799814D01*
X152039734Y-100994871D01*
X151920784Y-101217411D01*
X151847535Y-101458880D01*
X151822802Y-101710000D01*
X151838073Y-101865049D01*
X150998012Y-102705110D01*
X150978391Y-102709013D01*
X150836258Y-102767887D01*
X150708341Y-102853358D01*
X150599558Y-102962141D01*
X150514087Y-103090058D01*
X150455213Y-103232191D01*
X150425200Y-103383078D01*
X150425200Y-103536922D01*
X150455213Y-103687809D01*
X150514087Y-103829942D01*
X150599558Y-103957859D01*
X150708341Y-104066642D01*
X150836258Y-104152113D01*
X150978391Y-104210987D01*
X151129278Y-104241000D01*
X151283122Y-104241000D01*
X151434009Y-104210987D01*
X151576142Y-104152113D01*
X151704059Y-104066642D01*
X151708676Y-104062025D01*
X151739622Y-104123000D01*
X153833000Y-104123000D01*
X153833000Y-104103000D01*
X154087000Y-104103000D01*
X154087000Y-104123000D01*
X156180378Y-104123000D01*
X156301036Y-103885260D01*
X156276755Y-103779913D01*
X156156862Y-103502796D01*
X155985210Y-103254394D01*
X155768396Y-103044252D01*
X155514751Y-102880446D01*
X155413054Y-102840171D01*
X155525129Y-102780266D01*
X155720186Y-102620186D01*
X155880266Y-102425129D01*
X155999216Y-102202589D01*
X156072465Y-101961120D01*
X156096079Y-101721354D01*
X158554000Y-101721354D01*
X158554000Y-101885046D01*
X158585935Y-102045594D01*
X158648577Y-102196826D01*
X158739520Y-102332932D01*
X158855268Y-102448680D01*
X158991374Y-102539623D01*
X159142606Y-102602265D01*
X159303154Y-102634200D01*
X159466846Y-102634200D01*
X159627394Y-102602265D01*
X159778626Y-102539623D01*
X159914732Y-102448680D01*
X160030480Y-102332932D01*
X160121423Y-102196826D01*
X160184065Y-102045594D01*
X160216000Y-101885046D01*
X160216000Y-101721354D01*
X160184065Y-101560806D01*
X160121423Y-101409574D01*
X160030480Y-101273468D01*
X159914732Y-101157720D01*
X159778626Y-101066777D01*
X159627394Y-101004135D01*
X159466846Y-100972200D01*
X159303154Y-100972200D01*
X159142606Y-101004135D01*
X158991374Y-101066777D01*
X158855268Y-101157720D01*
X158739520Y-101273468D01*
X158648577Y-101409574D01*
X158585935Y-101560806D01*
X158554000Y-101721354D01*
X156096079Y-101721354D01*
X156097198Y-101710000D01*
X156072465Y-101458880D01*
X155999216Y-101217411D01*
X155880266Y-100994871D01*
X155720186Y-100799814D01*
X155525129Y-100639734D01*
X155302589Y-100520784D01*
X155061120Y-100447535D01*
X154872930Y-100429000D01*
X154767866Y-100429000D01*
X154880174Y-100368970D01*
X154983870Y-100283870D01*
X155005204Y-100257874D01*
X156457889Y-98805191D01*
X156483869Y-98783870D01*
X156505191Y-98757889D01*
X156505194Y-98757886D01*
X156568969Y-98680175D01*
X156568970Y-98680174D01*
X156632206Y-98561868D01*
X156671146Y-98433499D01*
X156681000Y-98333453D01*
X156681000Y-98333452D01*
X156684295Y-98300001D01*
X156681000Y-98266550D01*
X156681000Y-97213214D01*
X156772191Y-97250987D01*
X156923078Y-97281000D01*
X157076922Y-97281000D01*
X157227809Y-97250987D01*
X157369942Y-97192113D01*
X157497859Y-97106642D01*
X157606642Y-96997859D01*
X157692113Y-96869942D01*
X157750987Y-96727809D01*
X157781000Y-96576922D01*
X157781000Y-96423078D01*
X157750987Y-96272191D01*
X157731000Y-96223939D01*
X157731000Y-95382843D01*
X158219000Y-95382843D01*
X158219001Y-97414099D01*
X158215465Y-97450000D01*
X158219001Y-97485901D01*
X158229579Y-97593301D01*
X158234798Y-97610506D01*
X158271377Y-97731094D01*
X158339256Y-97858086D01*
X158407720Y-97941509D01*
X158407723Y-97941512D01*
X158430606Y-97969395D01*
X158458489Y-97992278D01*
X158687900Y-98221689D01*
X158707887Y-98269942D01*
X158793358Y-98397859D01*
X158902141Y-98506642D01*
X159030058Y-98592113D01*
X159172191Y-98650987D01*
X159323078Y-98681000D01*
X159476922Y-98681000D01*
X159627809Y-98650987D01*
X159769942Y-98592113D01*
X159897859Y-98506642D01*
X160006642Y-98397859D01*
X160092113Y-98269942D01*
X160150987Y-98127809D01*
X160181000Y-97976922D01*
X160181000Y-97823078D01*
X160150987Y-97672191D01*
X160092113Y-97530058D01*
X160006642Y-97402141D01*
X159897859Y-97293358D01*
X159769942Y-97207887D01*
X159721689Y-97187900D01*
X159681000Y-97147211D01*
X159681000Y-95950000D01*
X161117157Y-95950000D01*
X161117157Y-97750000D01*
X161124513Y-97824689D01*
X161146299Y-97896508D01*
X161181678Y-97962696D01*
X161229289Y-98020711D01*
X161287304Y-98068322D01*
X161353492Y-98103701D01*
X161425311Y-98125487D01*
X161500000Y-98132843D01*
X165300000Y-98132843D01*
X165374689Y-98125487D01*
X165446508Y-98103701D01*
X165512696Y-98068322D01*
X165570711Y-98020711D01*
X165618322Y-97962696D01*
X165653701Y-97896508D01*
X165675487Y-97824689D01*
X165682843Y-97750000D01*
X165682843Y-95950000D01*
X165675487Y-95875311D01*
X165653701Y-95803492D01*
X165618322Y-95737304D01*
X165570711Y-95679289D01*
X165512696Y-95631678D01*
X165446508Y-95596299D01*
X165374689Y-95574513D01*
X165300000Y-95567157D01*
X161500000Y-95567157D01*
X161425311Y-95574513D01*
X161353492Y-95596299D01*
X161287304Y-95631678D01*
X161229289Y-95679289D01*
X161181678Y-95737304D01*
X161146299Y-95803492D01*
X161124513Y-95875311D01*
X161117157Y-95950000D01*
X159681000Y-95950000D01*
X159681000Y-95382843D01*
X160300000Y-95382843D01*
X160374689Y-95375487D01*
X160446508Y-95353701D01*
X160512696Y-95318322D01*
X160570711Y-95270711D01*
X160618322Y-95212696D01*
X160653701Y-95146508D01*
X160675487Y-95074689D01*
X160682843Y-95000000D01*
X160682843Y-94000000D01*
X160675487Y-93925311D01*
X160653701Y-93853492D01*
X160618322Y-93787304D01*
X160570711Y-93729289D01*
X160512696Y-93681678D01*
X160446508Y-93646299D01*
X160374689Y-93624513D01*
X160300000Y-93617157D01*
X158058030Y-93617157D01*
X158292345Y-93382843D01*
X160300000Y-93382843D01*
X160374689Y-93375487D01*
X160446508Y-93353701D01*
X160512696Y-93318322D01*
X160570711Y-93270711D01*
X160618322Y-93212696D01*
X160653701Y-93146508D01*
X160675487Y-93074689D01*
X160682843Y-93000000D01*
X160682843Y-92000000D01*
X160675487Y-91925311D01*
X160653701Y-91853492D01*
X160618322Y-91787304D01*
X160570711Y-91729289D01*
X160512696Y-91681678D01*
X160446508Y-91646299D01*
X160374689Y-91624513D01*
X160300000Y-91617157D01*
X157600000Y-91617157D01*
X157525311Y-91624513D01*
X157453492Y-91646299D01*
X157387304Y-91681678D01*
X157329289Y-91729289D01*
X157281678Y-91787304D01*
X157246299Y-91853492D01*
X157224513Y-91925311D01*
X157217157Y-92000000D01*
X157217157Y-92390451D01*
X156508489Y-93099120D01*
X156480605Y-93122004D01*
X156457722Y-93149887D01*
X156457720Y-93149889D01*
X156389256Y-93233312D01*
X156369266Y-93270711D01*
X156321377Y-93360304D01*
X156279578Y-93498098D01*
X156269000Y-93605498D01*
X156269000Y-93605507D01*
X156265465Y-93641398D01*
X156269000Y-93677289D01*
X156269000Y-94871606D01*
X156261868Y-94867794D01*
X156229696Y-94858035D01*
X156198640Y-94845171D01*
X156165668Y-94838612D01*
X156133499Y-94828854D01*
X156100047Y-94825559D01*
X156067073Y-94819000D01*
X156033453Y-94819000D01*
X156000000Y-94815705D01*
X155966547Y-94819000D01*
X155932927Y-94819000D01*
X155899952Y-94825559D01*
X155866502Y-94828854D01*
X155834335Y-94838612D01*
X155801360Y-94845171D01*
X155770301Y-94858036D01*
X155738133Y-94867794D01*
X155708487Y-94883640D01*
X155677426Y-94896506D01*
X155649471Y-94915185D01*
X155619827Y-94931030D01*
X155593844Y-94952354D01*
X155565888Y-94971033D01*
X155542116Y-94994805D01*
X155516131Y-95016130D01*
X155494806Y-95042115D01*
X155471033Y-95065888D01*
X155452353Y-95093845D01*
X155431031Y-95119826D01*
X155415188Y-95149467D01*
X155396506Y-95177426D01*
X155383639Y-95208491D01*
X155367795Y-95238132D01*
X155358039Y-95270295D01*
X155345171Y-95301360D01*
X155338610Y-95334342D01*
X155328855Y-95366501D01*
X155325561Y-95399943D01*
X155319000Y-95432927D01*
X155319000Y-95567073D01*
X155319001Y-95567078D01*
X155319000Y-98017920D01*
X155020739Y-98316181D01*
X155041423Y-98285226D01*
X155104065Y-98133994D01*
X155136000Y-97973446D01*
X155136000Y-97809754D01*
X155104065Y-97649206D01*
X155041423Y-97497974D01*
X155036000Y-97489858D01*
X155036000Y-89250000D01*
X161117157Y-89250000D01*
X161117157Y-91050000D01*
X161124513Y-91124689D01*
X161146299Y-91196508D01*
X161181678Y-91262696D01*
X161229289Y-91320711D01*
X161287304Y-91368322D01*
X161353492Y-91403701D01*
X161425311Y-91425487D01*
X161500000Y-91432843D01*
X165300000Y-91432843D01*
X165374689Y-91425487D01*
X165446508Y-91403701D01*
X165512696Y-91368322D01*
X165570711Y-91320711D01*
X165618322Y-91262696D01*
X165653701Y-91196508D01*
X165675487Y-91124689D01*
X165682843Y-91050000D01*
X165682843Y-89250000D01*
X165675487Y-89175311D01*
X165653701Y-89103492D01*
X165618322Y-89037304D01*
X165570711Y-88979289D01*
X165512696Y-88931678D01*
X165446508Y-88896299D01*
X165374689Y-88874513D01*
X165300000Y-88867157D01*
X161500000Y-88867157D01*
X161425311Y-88874513D01*
X161353492Y-88896299D01*
X161287304Y-88931678D01*
X161229289Y-88979289D01*
X161181678Y-89037304D01*
X161146299Y-89103492D01*
X161124513Y-89175311D01*
X161117157Y-89250000D01*
X155036000Y-89250000D01*
X155036000Y-87997789D01*
X156583789Y-86450000D01*
X161117157Y-86450000D01*
X161117157Y-88250000D01*
X161124513Y-88324689D01*
X161146299Y-88396508D01*
X161181678Y-88462696D01*
X161229289Y-88520711D01*
X161287304Y-88568322D01*
X161353492Y-88603701D01*
X161425311Y-88625487D01*
X161500000Y-88632843D01*
X165300000Y-88632843D01*
X165374689Y-88625487D01*
X165446508Y-88603701D01*
X165512696Y-88568322D01*
X165570711Y-88520711D01*
X165618322Y-88462696D01*
X165653701Y-88396508D01*
X165675487Y-88324689D01*
X165682843Y-88250000D01*
X165682843Y-86450000D01*
X165675487Y-86375311D01*
X165653701Y-86303492D01*
X165618322Y-86237304D01*
X165570711Y-86179289D01*
X165512696Y-86131678D01*
X165446508Y-86096299D01*
X165374689Y-86074513D01*
X165300000Y-86067157D01*
X161500000Y-86067157D01*
X161425311Y-86074513D01*
X161353492Y-86096299D01*
X161287304Y-86131678D01*
X161229289Y-86179289D01*
X161181678Y-86237304D01*
X161146299Y-86303492D01*
X161124513Y-86375311D01*
X161117157Y-86450000D01*
X156583789Y-86450000D01*
X157299445Y-85734345D01*
X157329289Y-85770711D01*
X157387304Y-85818322D01*
X157453492Y-85853701D01*
X157525311Y-85875487D01*
X157600000Y-85882843D01*
X160300000Y-85882843D01*
X160374689Y-85875487D01*
X160446508Y-85853701D01*
X160512696Y-85818322D01*
X160570711Y-85770711D01*
X160618322Y-85712696D01*
X160653701Y-85646508D01*
X160675487Y-85574689D01*
X160682843Y-85500000D01*
X160682843Y-84500000D01*
X160675487Y-84425311D01*
X160653701Y-84353492D01*
X160618322Y-84287304D01*
X160570711Y-84229289D01*
X160512696Y-84181678D01*
X160446508Y-84146299D01*
X160374689Y-84124513D01*
X160300000Y-84117157D01*
X157600000Y-84117157D01*
X157525311Y-84124513D01*
X157453492Y-84146299D01*
X157387304Y-84181678D01*
X157329289Y-84229289D01*
X157296699Y-84269000D01*
X157035891Y-84269000D01*
X157000000Y-84265465D01*
X156964109Y-84269000D01*
X156964099Y-84269000D01*
X156856699Y-84279578D01*
X156718905Y-84321377D01*
X156591914Y-84389256D01*
X156508491Y-84457719D01*
X156508488Y-84457722D01*
X156480605Y-84480605D01*
X156457722Y-84508488D01*
X153813489Y-87152722D01*
X153785606Y-87175605D01*
X153762723Y-87203488D01*
X153762720Y-87203491D01*
X153694256Y-87286914D01*
X153626377Y-87413906D01*
X153615011Y-87451377D01*
X153585095Y-87550000D01*
X153584579Y-87551700D01*
X153570465Y-87695000D01*
X153574001Y-87730901D01*
X153574000Y-97489858D01*
X153568577Y-97497974D01*
X153505935Y-97649206D01*
X153474000Y-97809754D01*
X153474000Y-97973446D01*
X153505935Y-98133994D01*
X153568577Y-98285226D01*
X153659520Y-98421332D01*
X153775268Y-98537080D01*
X153911374Y-98628023D01*
X154062606Y-98690665D01*
X154223154Y-98722600D01*
X154386846Y-98722600D01*
X154547394Y-98690665D01*
X154698626Y-98628023D01*
X154729582Y-98607339D01*
X154217922Y-99119000D01*
X146232080Y-99119000D01*
X145128969Y-98015891D01*
X145128967Y-98015888D01*
X145034112Y-97921033D01*
X145006150Y-97902349D01*
X144980173Y-97881031D01*
X144950536Y-97865190D01*
X144922574Y-97846506D01*
X144891508Y-97833638D01*
X144861868Y-97817795D01*
X144829704Y-97808038D01*
X144798640Y-97795171D01*
X144765663Y-97788611D01*
X144733498Y-97778854D01*
X144700048Y-97775559D01*
X144667073Y-97769000D01*
X144633453Y-97769000D01*
X144600000Y-97765705D01*
X144566547Y-97769000D01*
X144532927Y-97769000D01*
X144499952Y-97775559D01*
X144466502Y-97778854D01*
X144434337Y-97788611D01*
X144401360Y-97795171D01*
X144370296Y-97808038D01*
X144338132Y-97817795D01*
X144308492Y-97833638D01*
X144277426Y-97846506D01*
X144249464Y-97865190D01*
X144219827Y-97881031D01*
X144193850Y-97902349D01*
X144165888Y-97921033D01*
X144142111Y-97944810D01*
X144116131Y-97966131D01*
X144094810Y-97992111D01*
X144071033Y-98015888D01*
X144052349Y-98043850D01*
X144031031Y-98069827D01*
X144015190Y-98099464D01*
X143996506Y-98127426D01*
X143983638Y-98158492D01*
X143967795Y-98188132D01*
X143958038Y-98220296D01*
X143945171Y-98251360D01*
X143938611Y-98284337D01*
X143928854Y-98316502D01*
X143925559Y-98349952D01*
X143919000Y-98382927D01*
X143919000Y-98416547D01*
X143915705Y-98450000D01*
X135291000Y-98450000D01*
X135291000Y-97496343D01*
X135506344Y-97281000D01*
X148014457Y-97281000D01*
X148244000Y-97510544D01*
X148244000Y-97863587D01*
X148258195Y-98007710D01*
X148314290Y-98192629D01*
X148405383Y-98363051D01*
X148527973Y-98512428D01*
X148677350Y-98635018D01*
X148847772Y-98726111D01*
X149032691Y-98782205D01*
X149225000Y-98801146D01*
X149417310Y-98782205D01*
X149602229Y-98726111D01*
X149772651Y-98635018D01*
X149922028Y-98512428D01*
X150044618Y-98363051D01*
X150135711Y-98192629D01*
X150191805Y-98007709D01*
X150206000Y-97863586D01*
X150206000Y-97809754D01*
X150934000Y-97809754D01*
X150934000Y-97973446D01*
X150965935Y-98133994D01*
X151028577Y-98285226D01*
X151119520Y-98421332D01*
X151235268Y-98537080D01*
X151371374Y-98628023D01*
X151522606Y-98690665D01*
X151683154Y-98722600D01*
X151846846Y-98722600D01*
X152007394Y-98690665D01*
X152158626Y-98628023D01*
X152294732Y-98537080D01*
X152410480Y-98421332D01*
X152501423Y-98285226D01*
X152564065Y-98133994D01*
X152596000Y-97973446D01*
X152596000Y-97809754D01*
X152564065Y-97649206D01*
X152501423Y-97497974D01*
X152501000Y-97497341D01*
X152501000Y-88432789D01*
X157202790Y-83731000D01*
X157296699Y-83731000D01*
X157329289Y-83770711D01*
X157387304Y-83818322D01*
X157453492Y-83853701D01*
X157525311Y-83875487D01*
X157600000Y-83882843D01*
X160300000Y-83882843D01*
X160374689Y-83875487D01*
X160446508Y-83853701D01*
X160512696Y-83818322D01*
X160570711Y-83770711D01*
X160618322Y-83712696D01*
X160653701Y-83646508D01*
X160675487Y-83574689D01*
X160682843Y-83500000D01*
X160682843Y-82500000D01*
X160675487Y-82425311D01*
X160653701Y-82353492D01*
X160618322Y-82287304D01*
X160570711Y-82229289D01*
X160512696Y-82181678D01*
X160446508Y-82146299D01*
X160374689Y-82124513D01*
X160300000Y-82117157D01*
X157600000Y-82117157D01*
X157525311Y-82124513D01*
X157453492Y-82146299D01*
X157387304Y-82181678D01*
X157329289Y-82229289D01*
X157296699Y-82269000D01*
X156935891Y-82269000D01*
X156900000Y-82265465D01*
X156864109Y-82269000D01*
X156864099Y-82269000D01*
X156756699Y-82279578D01*
X156618905Y-82321377D01*
X156491914Y-82389256D01*
X156408491Y-82457719D01*
X156408488Y-82457722D01*
X156380605Y-82480605D01*
X156357722Y-82508488D01*
X151278489Y-87587722D01*
X151250606Y-87610605D01*
X151227723Y-87638488D01*
X151227720Y-87638491D01*
X151159256Y-87721914D01*
X151091377Y-87848906D01*
X151074756Y-87903701D01*
X151054808Y-87969463D01*
X151049579Y-87986700D01*
X151035465Y-88130000D01*
X151039001Y-88165901D01*
X151039000Y-97482375D01*
X151028577Y-97497974D01*
X150965935Y-97649206D01*
X150934000Y-97809754D01*
X150206000Y-97809754D01*
X150206000Y-97152387D01*
X150210746Y-97104200D01*
X150191805Y-96911890D01*
X150135711Y-96726971D01*
X150044618Y-96556549D01*
X149952745Y-96444601D01*
X149922028Y-96407172D01*
X149884598Y-96376454D01*
X149148550Y-95640406D01*
X149117828Y-95602972D01*
X148968451Y-95480382D01*
X148798029Y-95389289D01*
X148613110Y-95333195D01*
X148468987Y-95319000D01*
X148468986Y-95319000D01*
X148420800Y-95314254D01*
X148372614Y-95319000D01*
X135148186Y-95319000D01*
X135100000Y-95314254D01*
X135051813Y-95319000D01*
X134907690Y-95333195D01*
X134722771Y-95389289D01*
X134552349Y-95480382D01*
X134402972Y-95602972D01*
X134372254Y-95640402D01*
X133650402Y-96362255D01*
X133612973Y-96392972D01*
X133582256Y-96430401D01*
X133582255Y-96430402D01*
X133490382Y-96542350D01*
X133399289Y-96712772D01*
X133343195Y-96897691D01*
X133324254Y-97090000D01*
X133329001Y-97138196D01*
X133329000Y-99524005D01*
X133278187Y-99519000D01*
X133278186Y-99519000D01*
X133230000Y-99514254D01*
X133181814Y-99519000D01*
X128618552Y-99519000D01*
X128701185Y-99451185D01*
X128780537Y-99354494D01*
X128839502Y-99244180D01*
X128875812Y-99124482D01*
X128888072Y-99000000D01*
X128885000Y-98785750D01*
X128726250Y-98627000D01*
X127027000Y-98627000D01*
X127027000Y-98647000D01*
X126773000Y-98647000D01*
X126773000Y-98627000D01*
X125073750Y-98627000D01*
X124915000Y-98785750D01*
X124911928Y-99000000D01*
X117891001Y-99000000D01*
X117891001Y-98000000D01*
X124911928Y-98000000D01*
X124915000Y-98214250D01*
X125073750Y-98373000D01*
X126773000Y-98373000D01*
X126773000Y-97523750D01*
X127027000Y-97523750D01*
X127027000Y-98373000D01*
X128726250Y-98373000D01*
X128885000Y-98214250D01*
X128888072Y-98000000D01*
X128875812Y-97875518D01*
X128839502Y-97755820D01*
X128780537Y-97645506D01*
X128701185Y-97548815D01*
X128604494Y-97469463D01*
X128494180Y-97410498D01*
X128374482Y-97374188D01*
X128250000Y-97361928D01*
X127185750Y-97365000D01*
X127027000Y-97523750D01*
X126773000Y-97523750D01*
X126614250Y-97365000D01*
X125550000Y-97361928D01*
X125425518Y-97374188D01*
X125305820Y-97410498D01*
X125195506Y-97469463D01*
X125098815Y-97548815D01*
X125019463Y-97645506D01*
X124960498Y-97755820D01*
X124924188Y-97875518D01*
X124911928Y-98000000D01*
X117891001Y-98000000D01*
X117891001Y-95250000D01*
X120167157Y-95250000D01*
X120167157Y-97050000D01*
X120174513Y-97124689D01*
X120196299Y-97196508D01*
X120231678Y-97262696D01*
X120279289Y-97320711D01*
X120337304Y-97368322D01*
X120403492Y-97403701D01*
X120475311Y-97425487D01*
X120550000Y-97432843D01*
X124350000Y-97432843D01*
X124424689Y-97425487D01*
X124496508Y-97403701D01*
X124562696Y-97368322D01*
X124620711Y-97320711D01*
X124668322Y-97262696D01*
X124703701Y-97196508D01*
X124725487Y-97124689D01*
X124732843Y-97050000D01*
X124732843Y-95250000D01*
X124725487Y-95175311D01*
X124703701Y-95103492D01*
X124668322Y-95037304D01*
X124620711Y-94979289D01*
X124562696Y-94931678D01*
X124496508Y-94896299D01*
X124424689Y-94874513D01*
X124350000Y-94867157D01*
X120550000Y-94867157D01*
X120475311Y-94874513D01*
X120403492Y-94896299D01*
X120337304Y-94931678D01*
X120279289Y-94979289D01*
X120231678Y-95037304D01*
X120196299Y-95103492D01*
X120174513Y-95175311D01*
X120167157Y-95250000D01*
X117891001Y-95250000D01*
X117891001Y-92450000D01*
X120167157Y-92450000D01*
X120167157Y-94250000D01*
X120174513Y-94324689D01*
X120196299Y-94396508D01*
X120231678Y-94462696D01*
X120279289Y-94520711D01*
X120337304Y-94568322D01*
X120403492Y-94603701D01*
X120475311Y-94625487D01*
X120550000Y-94632843D01*
X124350000Y-94632843D01*
X124424689Y-94625487D01*
X124496508Y-94603701D01*
X124562696Y-94568322D01*
X124620711Y-94520711D01*
X124668322Y-94462696D01*
X124703701Y-94396508D01*
X124725487Y-94324689D01*
X124732843Y-94250000D01*
X124732843Y-92450000D01*
X124725487Y-92375311D01*
X124703701Y-92303492D01*
X124668322Y-92237304D01*
X124620711Y-92179289D01*
X124562696Y-92131678D01*
X124496508Y-92096299D01*
X124424689Y-92074513D01*
X124350000Y-92067157D01*
X120550000Y-92067157D01*
X120475311Y-92074513D01*
X120403492Y-92096299D01*
X120337304Y-92131678D01*
X120279289Y-92179289D01*
X120231678Y-92237304D01*
X120196299Y-92303492D01*
X120174513Y-92375311D01*
X120167157Y-92450000D01*
X117891001Y-92450000D01*
X117891001Y-88500000D01*
X124911928Y-88500000D01*
X124915000Y-88714250D01*
X125073750Y-88873000D01*
X126773000Y-88873000D01*
X126773000Y-88023750D01*
X126614250Y-87865000D01*
X125550000Y-87861928D01*
X125425518Y-87874188D01*
X125305820Y-87910498D01*
X125195506Y-87969463D01*
X125098815Y-88048815D01*
X125019463Y-88145506D01*
X124960498Y-88255820D01*
X124924188Y-88375518D01*
X124911928Y-88500000D01*
X117891001Y-88500000D01*
X117891001Y-85750000D01*
X120167157Y-85750000D01*
X120167157Y-87550000D01*
X120174513Y-87624689D01*
X120196299Y-87696508D01*
X120231678Y-87762696D01*
X120279289Y-87820711D01*
X120337304Y-87868322D01*
X120403492Y-87903701D01*
X120475311Y-87925487D01*
X120550000Y-87932843D01*
X124350000Y-87932843D01*
X124424689Y-87925487D01*
X124496508Y-87903701D01*
X124562696Y-87868322D01*
X124620711Y-87820711D01*
X124668322Y-87762696D01*
X124703701Y-87696508D01*
X124725487Y-87624689D01*
X124732843Y-87550000D01*
X124732843Y-85750000D01*
X124725487Y-85675311D01*
X124703701Y-85603492D01*
X124668322Y-85537304D01*
X124620711Y-85479289D01*
X124562696Y-85431678D01*
X124496508Y-85396299D01*
X124424689Y-85374513D01*
X124350000Y-85367157D01*
X120550000Y-85367157D01*
X120475311Y-85374513D01*
X120403492Y-85396299D01*
X120337304Y-85431678D01*
X120279289Y-85479289D01*
X120231678Y-85537304D01*
X120196299Y-85603492D01*
X120174513Y-85675311D01*
X120167157Y-85750000D01*
X117891001Y-85750000D01*
X117891001Y-76021080D01*
X117908818Y-75839360D01*
X118369000Y-75839360D01*
X118369000Y-76160640D01*
X118431678Y-76475745D01*
X118554626Y-76772568D01*
X118733119Y-77039702D01*
X118960298Y-77266881D01*
X119227432Y-77445374D01*
X119524255Y-77568322D01*
X119839360Y-77631000D01*
X120160640Y-77631000D01*
X120475745Y-77568322D01*
X120772568Y-77445374D01*
X121039702Y-77266881D01*
X121266881Y-77039702D01*
X121445374Y-76772568D01*
X121568322Y-76475745D01*
X121631000Y-76160640D01*
X121631000Y-75839360D01*
X121568322Y-75524255D01*
X121445374Y-75227432D01*
X121266881Y-74960298D01*
X121039702Y-74733119D01*
X120772568Y-74554626D01*
X120475745Y-74431678D01*
X120160640Y-74369000D01*
X119839360Y-74369000D01*
X119524255Y-74431678D01*
X119227432Y-74554626D01*
X118960298Y-74733119D01*
X118733119Y-74960298D01*
X118554626Y-75227432D01*
X118431678Y-75524255D01*
X118369000Y-75839360D01*
X117908818Y-75839360D01*
X117933194Y-75590763D01*
X118052044Y-75197112D01*
X118245090Y-74834042D01*
X118504980Y-74515385D01*
X118821820Y-74253272D01*
X119183528Y-74057697D01*
X119576343Y-73936101D01*
X120005446Y-73891000D01*
X123879702Y-73891000D01*
X123846299Y-73953492D01*
G04 #@! TA.AperFunction,Conductor*
D31*
G36*
X123846299Y-73953492D02*
G01*
X123824513Y-74025311D01*
X123817157Y-74100000D01*
X123817157Y-77100000D01*
X123824513Y-77174689D01*
X123846299Y-77246508D01*
X123881678Y-77312696D01*
X123929289Y-77370711D01*
X123987304Y-77418322D01*
X124053492Y-77453701D01*
X124125311Y-77475487D01*
X124169000Y-77479790D01*
X124169001Y-77720210D01*
X124125311Y-77724513D01*
X124053492Y-77746299D01*
X123987304Y-77781678D01*
X123929289Y-77829289D01*
X123881678Y-77887304D01*
X123846299Y-77953492D01*
X123824513Y-78025311D01*
X123817157Y-78100000D01*
X123817157Y-81100000D01*
X123824513Y-81174689D01*
X123846299Y-81246508D01*
X123881678Y-81312696D01*
X123929289Y-81370711D01*
X123987304Y-81418322D01*
X124053492Y-81453701D01*
X124125311Y-81475487D01*
X124169001Y-81479790D01*
X124169000Y-84449443D01*
X124165222Y-84487800D01*
X124169000Y-84526157D01*
X124169000Y-84526159D01*
X124180301Y-84640902D01*
X124224960Y-84788121D01*
X124224961Y-84788122D01*
X124297481Y-84923799D01*
X124311990Y-84941478D01*
X124395078Y-85042722D01*
X124424879Y-85067179D01*
X124820417Y-85462717D01*
X124844878Y-85492522D01*
X124933827Y-85565520D01*
X124963800Y-85590119D01*
X125069297Y-85646508D01*
X125099478Y-85662640D01*
X125246697Y-85707299D01*
X125361440Y-85718600D01*
X125361442Y-85718600D01*
X125399799Y-85722378D01*
X125438156Y-85718600D01*
X128302100Y-85718600D01*
X128403401Y-85819902D01*
X128403401Y-87882960D01*
X128374482Y-87874188D01*
X128250000Y-87861928D01*
X127185750Y-87865000D01*
X127027000Y-88023750D01*
X127027000Y-88873000D01*
X127047000Y-88873000D01*
X127047000Y-89127000D01*
X127027000Y-89127000D01*
X127027000Y-89147000D01*
X126773000Y-89147000D01*
X126773000Y-89127000D01*
X125073750Y-89127000D01*
X124915000Y-89285750D01*
X124911928Y-89500000D01*
X124924188Y-89624482D01*
X124960498Y-89744180D01*
X125019463Y-89854494D01*
X125098815Y-89951185D01*
X125195506Y-90030537D01*
X125305820Y-90089502D01*
X125425518Y-90125812D01*
X125459874Y-90129196D01*
X125403492Y-90146299D01*
X125337304Y-90181678D01*
X125279289Y-90229289D01*
X125231678Y-90287304D01*
X125196299Y-90353492D01*
X125174513Y-90425311D01*
X125167157Y-90500000D01*
X125167157Y-91500000D01*
X125174513Y-91574689D01*
X125196299Y-91646508D01*
X125231678Y-91712696D01*
X125279289Y-91770711D01*
X125337304Y-91818322D01*
X125403492Y-91853701D01*
X125475311Y-91875487D01*
X125550000Y-91882843D01*
X126009174Y-91882843D01*
X126034778Y-92011563D01*
X126104958Y-92180994D01*
X126206845Y-92333478D01*
X126336522Y-92463155D01*
X126489006Y-92565042D01*
X126658437Y-92635222D01*
X126838304Y-92671000D01*
X127021696Y-92671000D01*
X127201563Y-92635222D01*
X127370994Y-92565042D01*
X127523478Y-92463155D01*
X127653155Y-92333478D01*
X127755042Y-92180994D01*
X127825222Y-92011563D01*
X127850826Y-91882843D01*
X128250000Y-91882843D01*
X128324689Y-91875487D01*
X128396508Y-91853701D01*
X128462696Y-91818322D01*
X128508174Y-91781000D01*
X128620843Y-91781000D01*
X128659200Y-91784778D01*
X128697557Y-91781000D01*
X128697560Y-91781000D01*
X128812303Y-91769699D01*
X128959522Y-91725040D01*
X129095199Y-91652519D01*
X129214122Y-91554922D01*
X129238578Y-91525122D01*
X129661274Y-91102426D01*
X131924000Y-91102426D01*
X131924000Y-91497574D01*
X132001090Y-91885129D01*
X132152306Y-92250197D01*
X132371838Y-92578750D01*
X132651250Y-92858162D01*
X132979803Y-93077694D01*
X133344871Y-93228910D01*
X133732426Y-93306000D01*
X134127574Y-93306000D01*
X134515129Y-93228910D01*
X134880197Y-93077694D01*
X135208750Y-92858162D01*
X135488162Y-92578750D01*
X135707694Y-92250197D01*
X135858910Y-91885129D01*
X135936000Y-91497574D01*
X135936000Y-91102426D01*
X135858910Y-90714871D01*
X135707694Y-90349803D01*
X135488162Y-90021250D01*
X135208750Y-89741838D01*
X134880197Y-89522306D01*
X134515129Y-89371090D01*
X134127574Y-89294000D01*
X133732426Y-89294000D01*
X133344871Y-89371090D01*
X132979803Y-89522306D01*
X132651250Y-89741838D01*
X132371838Y-90021250D01*
X132152306Y-90349803D01*
X132001090Y-90714871D01*
X131924000Y-91102426D01*
X129661274Y-91102426D01*
X129709528Y-91054173D01*
X129739322Y-91029722D01*
X129763775Y-90999926D01*
X129836919Y-90910800D01*
X129891332Y-90809000D01*
X129909440Y-90775122D01*
X129954099Y-90627903D01*
X129965400Y-90513160D01*
X129965400Y-90513157D01*
X129969178Y-90474800D01*
X129965400Y-90436443D01*
X129965400Y-85534757D01*
X129969178Y-85496400D01*
X129965400Y-85458040D01*
X129954099Y-85343297D01*
X129909440Y-85196078D01*
X129836919Y-85060401D01*
X129797957Y-85012925D01*
X129763775Y-84971274D01*
X129763774Y-84971273D01*
X129739322Y-84941478D01*
X129709527Y-84917026D01*
X129204978Y-84412478D01*
X129180522Y-84382678D01*
X129061599Y-84285081D01*
X128925922Y-84212560D01*
X128778703Y-84167901D01*
X128663960Y-84156600D01*
X128663957Y-84156600D01*
X128625600Y-84152822D01*
X128587243Y-84156600D01*
X125731000Y-84156600D01*
X125731000Y-81529477D01*
X125748815Y-81551185D01*
X125845506Y-81630537D01*
X125955820Y-81689502D01*
X126075518Y-81725812D01*
X126200000Y-81738072D01*
X126664250Y-81735000D01*
X126823000Y-81576250D01*
X126823000Y-79727000D01*
X126803000Y-79727000D01*
X126803000Y-79473000D01*
X126823000Y-79473000D01*
X126823000Y-77623750D01*
X126799250Y-77600000D01*
X126823000Y-77576250D01*
X126823000Y-75727000D01*
X126803000Y-75727000D01*
X126803000Y-75473000D01*
X126823000Y-75473000D01*
X126823000Y-75453000D01*
X127077000Y-75453000D01*
X127077000Y-75473000D01*
X127097000Y-75473000D01*
X127097000Y-75727000D01*
X127077000Y-75727000D01*
X127077000Y-77576250D01*
X127100750Y-77600000D01*
X127077000Y-77623750D01*
X127077000Y-79473000D01*
X127097000Y-79473000D01*
X127097000Y-79727000D01*
X127077000Y-79727000D01*
X127077000Y-81576250D01*
X127235750Y-81735000D01*
X127700000Y-81738072D01*
X127736746Y-81734453D01*
X127778395Y-81796785D01*
X127880215Y-81898605D01*
X127999942Y-81978604D01*
X128132975Y-82033708D01*
X128274203Y-82061800D01*
X128418197Y-82061800D01*
X128559425Y-82033708D01*
X128692458Y-81978604D01*
X128812185Y-81898605D01*
X128914005Y-81796785D01*
X128994004Y-81677058D01*
X129015913Y-81624166D01*
X129157236Y-81482843D01*
X129637722Y-81482843D01*
X129649892Y-81544025D01*
X129704996Y-81677058D01*
X129784995Y-81796785D01*
X129886815Y-81898605D01*
X130006542Y-81978604D01*
X130139575Y-82033708D01*
X130280803Y-82061800D01*
X130424797Y-82061800D01*
X130566025Y-82033708D01*
X130699058Y-81978604D01*
X130818785Y-81898605D01*
X130920605Y-81796785D01*
X131000604Y-81677058D01*
X131022512Y-81624166D01*
X131163836Y-81482843D01*
X131644322Y-81482843D01*
X131656492Y-81544025D01*
X131711596Y-81677058D01*
X131791595Y-81796785D01*
X131893415Y-81898605D01*
X132013142Y-81978604D01*
X132146175Y-82033708D01*
X132287403Y-82061800D01*
X132431397Y-82061800D01*
X132572625Y-82033708D01*
X132705658Y-81978604D01*
X132825385Y-81898605D01*
X132927205Y-81796785D01*
X133007204Y-81677058D01*
X133029113Y-81624166D01*
X133170436Y-81482843D01*
X133630575Y-81482843D01*
X133637692Y-81518625D01*
X133692796Y-81651658D01*
X133772795Y-81771385D01*
X133874615Y-81873205D01*
X133994342Y-81953204D01*
X134127375Y-82008308D01*
X134268603Y-82036400D01*
X134412597Y-82036400D01*
X134553825Y-82008308D01*
X134686858Y-81953204D01*
X134806585Y-81873205D01*
X134908405Y-81771385D01*
X134988404Y-81651658D01*
X135010313Y-81598766D01*
X135126235Y-81482843D01*
X135632122Y-81482843D01*
X135644292Y-81544025D01*
X135699396Y-81677058D01*
X135779395Y-81796785D01*
X135881215Y-81898605D01*
X136000942Y-81978604D01*
X136133975Y-82033708D01*
X136275203Y-82061800D01*
X136419197Y-82061800D01*
X136560425Y-82033708D01*
X136693458Y-81978604D01*
X136813185Y-81898605D01*
X136915005Y-81796785D01*
X136995004Y-81677058D01*
X137016913Y-81624166D01*
X137158236Y-81482843D01*
X137613322Y-81482843D01*
X137625492Y-81544025D01*
X137680596Y-81677058D01*
X137760595Y-81796785D01*
X137862415Y-81898605D01*
X137982142Y-81978604D01*
X138115175Y-82033708D01*
X138256403Y-82061800D01*
X138400397Y-82061800D01*
X138541625Y-82033708D01*
X138674658Y-81978604D01*
X138794385Y-81898605D01*
X138896205Y-81796785D01*
X138976204Y-81677058D01*
X138998113Y-81624166D01*
X139139436Y-81482843D01*
X139414196Y-81482843D01*
X139428892Y-81556725D01*
X139483996Y-81689758D01*
X139563995Y-81809485D01*
X139665815Y-81911305D01*
X139785542Y-81991304D01*
X139918575Y-82046408D01*
X140059803Y-82074500D01*
X140203797Y-82074500D01*
X140345025Y-82046408D01*
X140478058Y-81991304D01*
X140597785Y-81911305D01*
X140699605Y-81809485D01*
X140779604Y-81689758D01*
X140801513Y-81636865D01*
X141008774Y-81429604D01*
X141034770Y-81408270D01*
X141119870Y-81304574D01*
X141183106Y-81186268D01*
X141222046Y-81057899D01*
X141231900Y-80957853D01*
X141235195Y-80924400D01*
X141231900Y-80890947D01*
X141231900Y-79750000D01*
X161117157Y-79750000D01*
X161117157Y-81550000D01*
X161124513Y-81624689D01*
X161146299Y-81696508D01*
X161181678Y-81762696D01*
X161229289Y-81820711D01*
X161287304Y-81868322D01*
X161353492Y-81903701D01*
X161425311Y-81925487D01*
X161500000Y-81932843D01*
X165300000Y-81932843D01*
X165374689Y-81925487D01*
X165446508Y-81903701D01*
X165512696Y-81868322D01*
X165570711Y-81820711D01*
X165618322Y-81762696D01*
X165653701Y-81696508D01*
X165675487Y-81624689D01*
X165682843Y-81550000D01*
X165682843Y-79750000D01*
X165675487Y-79675311D01*
X165653701Y-79603492D01*
X165618322Y-79537304D01*
X165570711Y-79479289D01*
X165512696Y-79431678D01*
X165446508Y-79396299D01*
X165374689Y-79374513D01*
X165300000Y-79367157D01*
X161500000Y-79367157D01*
X161425311Y-79374513D01*
X161353492Y-79396299D01*
X161287304Y-79431678D01*
X161229289Y-79479289D01*
X161181678Y-79537304D01*
X161146299Y-79603492D01*
X161124513Y-79675311D01*
X161117157Y-79750000D01*
X141231900Y-79750000D01*
X141231900Y-76106452D01*
X141235195Y-76072999D01*
X141222046Y-75939501D01*
X141206605Y-75888600D01*
X141191669Y-75839360D01*
X164094000Y-75839360D01*
X164094000Y-76160640D01*
X164156678Y-76475745D01*
X164279626Y-76772568D01*
X164458119Y-77039702D01*
X164685298Y-77266881D01*
X164952432Y-77445374D01*
X165249255Y-77568322D01*
X165564360Y-77631000D01*
X165885640Y-77631000D01*
X166200745Y-77568322D01*
X166497568Y-77445374D01*
X166764702Y-77266881D01*
X166991881Y-77039702D01*
X167170374Y-76772568D01*
X167293322Y-76475745D01*
X167356000Y-76160640D01*
X167356000Y-75839360D01*
X167293322Y-75524255D01*
X167170374Y-75227432D01*
X166991881Y-74960298D01*
X166764702Y-74733119D01*
X166497568Y-74554626D01*
X166200745Y-74431678D01*
X165885640Y-74369000D01*
X165564360Y-74369000D01*
X165249255Y-74431678D01*
X164952432Y-74554626D01*
X164685298Y-74733119D01*
X164458119Y-74960298D01*
X164279626Y-75227432D01*
X164156678Y-75524255D01*
X164094000Y-75839360D01*
X141191669Y-75839360D01*
X141183106Y-75811132D01*
X141119870Y-75692826D01*
X141034769Y-75589130D01*
X141008783Y-75567804D01*
X140583104Y-75142126D01*
X140561770Y-75116130D01*
X140458074Y-75031030D01*
X140339768Y-74967794D01*
X140211399Y-74928854D01*
X140111353Y-74919000D01*
X140082843Y-74916192D01*
X140082843Y-74100000D01*
X140075487Y-74025311D01*
X140053701Y-73953492D01*
X140020298Y-73891000D01*
X165698921Y-73891000D01*
X166129238Y-73933193D01*
X166522893Y-74052044D01*
X166885957Y-74245089D01*
X167204615Y-74504979D01*
X167466728Y-74821820D01*
X167662303Y-75183528D01*
X167783899Y-75576343D01*
X167829001Y-76005456D01*
X167829000Y-118523920D01*
X167786807Y-118954236D01*
X167667957Y-119347888D01*
X167474911Y-119710956D01*
X167215018Y-120029616D01*
X166898183Y-120291725D01*
X166536472Y-120487302D01*
X166143658Y-120608898D01*
X165714554Y-120653999D01*
X152617069Y-120653999D01*
X153257884Y-120013185D01*
X153283870Y-119991859D01*
X153368970Y-119888163D01*
X153432206Y-119769857D01*
X153471146Y-119641488D01*
X153481000Y-119541442D01*
X153481000Y-119541441D01*
X153484295Y-119507990D01*
X153481000Y-119474539D01*
X153481000Y-119266116D01*
X153502908Y-119213225D01*
X153531000Y-119071997D01*
X153531000Y-118928003D01*
X153502908Y-118786775D01*
X153447804Y-118653742D01*
X153367805Y-118534015D01*
X153265985Y-118432195D01*
X153186912Y-118379360D01*
X164089000Y-118379360D01*
X164089000Y-118700640D01*
X164151678Y-119015745D01*
X164274626Y-119312568D01*
X164453119Y-119579702D01*
X164680298Y-119806881D01*
X164947432Y-119985374D01*
X165244255Y-120108322D01*
X165559360Y-120171000D01*
X165880640Y-120171000D01*
X166195745Y-120108322D01*
X166492568Y-119985374D01*
X166759702Y-119806881D01*
X166986881Y-119579702D01*
X167165374Y-119312568D01*
X167288322Y-119015745D01*
X167351000Y-118700640D01*
X167351000Y-118379360D01*
X167288322Y-118064255D01*
X167165374Y-117767432D01*
X166986881Y-117500298D01*
X166759702Y-117273119D01*
X166492568Y-117094626D01*
X166195745Y-116971678D01*
X165880640Y-116909000D01*
X165559360Y-116909000D01*
X165244255Y-116971678D01*
X164947432Y-117094626D01*
X164680298Y-117273119D01*
X164453119Y-117500298D01*
X164274626Y-117767432D01*
X164151678Y-118064255D01*
X164089000Y-118379360D01*
X153186912Y-118379360D01*
X153146258Y-118352196D01*
X153013225Y-118297092D01*
X152871997Y-118269000D01*
X152728003Y-118269000D01*
X152586775Y-118297092D01*
X152453742Y-118352196D01*
X152334015Y-118432195D01*
X152232195Y-118534015D01*
X152152196Y-118653742D01*
X152097092Y-118786775D01*
X152069000Y-118928003D01*
X152069000Y-119071997D01*
X152097092Y-119213225D01*
X152107224Y-119237686D01*
X151525911Y-119819000D01*
X150177912Y-119819000D01*
X150358162Y-119638750D01*
X150577694Y-119310197D01*
X150728910Y-118945129D01*
X150806000Y-118557574D01*
X150806000Y-118162426D01*
X150728910Y-117774871D01*
X150577694Y-117409803D01*
X150358162Y-117081250D01*
X150078750Y-116801838D01*
X150017628Y-116760998D01*
X150048640Y-116754829D01*
X150079696Y-116741965D01*
X150111868Y-116732206D01*
X150141517Y-116716358D01*
X150172574Y-116703494D01*
X150200525Y-116684817D01*
X150230174Y-116668970D01*
X150256162Y-116647643D01*
X150284112Y-116628967D01*
X150307879Y-116605200D01*
X150333870Y-116583870D01*
X150355200Y-116557879D01*
X150378967Y-116534112D01*
X150397643Y-116506162D01*
X150418970Y-116480174D01*
X150434817Y-116450525D01*
X150453494Y-116422574D01*
X150466358Y-116391517D01*
X150482206Y-116361868D01*
X150491965Y-116329696D01*
X150504829Y-116298640D01*
X150511388Y-116265668D01*
X150521146Y-116233499D01*
X150524441Y-116200047D01*
X150531000Y-116167073D01*
X150531000Y-116133453D01*
X150534295Y-116100000D01*
X150531000Y-116066547D01*
X150531000Y-116032927D01*
X150524441Y-115999953D01*
X150521146Y-115966501D01*
X150511388Y-115934332D01*
X150504829Y-115901360D01*
X150491965Y-115870304D01*
X150482206Y-115838132D01*
X150466358Y-115808483D01*
X150453494Y-115777426D01*
X150434817Y-115749475D01*
X150418970Y-115719826D01*
X150397643Y-115693838D01*
X150378967Y-115665888D01*
X150355200Y-115642121D01*
X150333870Y-115616130D01*
X150307879Y-115594800D01*
X150284112Y-115571033D01*
X150256162Y-115552357D01*
X150230174Y-115531030D01*
X150200525Y-115515183D01*
X150172574Y-115496506D01*
X150141517Y-115483642D01*
X150111868Y-115467794D01*
X150079696Y-115458035D01*
X150048640Y-115445171D01*
X150015668Y-115438612D01*
X149983499Y-115428854D01*
X149950047Y-115425559D01*
X149917073Y-115419000D01*
X148985245Y-115419000D01*
X149095129Y-115360266D01*
X149290186Y-115200186D01*
X149314138Y-115171000D01*
X150425079Y-115171000D01*
X152346439Y-117092361D01*
X152374025Y-117125975D01*
X152407637Y-117153559D01*
X152508174Y-117236068D01*
X152596201Y-117283119D01*
X152661225Y-117317875D01*
X152827294Y-117368252D01*
X152956727Y-117381000D01*
X152956730Y-117381000D01*
X153000000Y-117385262D01*
X153043270Y-117381000D01*
X156267390Y-117381000D01*
X156310660Y-117385262D01*
X156353930Y-117381000D01*
X156353933Y-117381000D01*
X156483366Y-117368252D01*
X156649435Y-117317875D01*
X156802485Y-117236068D01*
X156936635Y-117125975D01*
X156964226Y-117092355D01*
X159303201Y-114753380D01*
X161519000Y-114753380D01*
X161519000Y-114946620D01*
X161556699Y-115136147D01*
X161630649Y-115314678D01*
X161738007Y-115475351D01*
X161874649Y-115611993D01*
X162035322Y-115719351D01*
X162213853Y-115793301D01*
X162403380Y-115831000D01*
X162596620Y-115831000D01*
X162786147Y-115793301D01*
X162964678Y-115719351D01*
X163125351Y-115611993D01*
X163261993Y-115475351D01*
X163369351Y-115314678D01*
X163443301Y-115136147D01*
X163481000Y-114946620D01*
X163481000Y-114753380D01*
X163443301Y-114563853D01*
X163369351Y-114385322D01*
X163261993Y-114224649D01*
X163125351Y-114088007D01*
X162964678Y-113980649D01*
X162786147Y-113906699D01*
X162596620Y-113869000D01*
X162403380Y-113869000D01*
X162213853Y-113906699D01*
X162035322Y-113980649D01*
X161874649Y-114088007D01*
X161738007Y-114224649D01*
X161630649Y-114385322D01*
X161556699Y-114563853D01*
X161519000Y-114753380D01*
X159303201Y-114753380D01*
X159592361Y-114464221D01*
X159625975Y-114436635D01*
X159682095Y-114368252D01*
X159736068Y-114302486D01*
X159786171Y-114208749D01*
X159817875Y-114149435D01*
X159868252Y-113983366D01*
X159881000Y-113853933D01*
X159881000Y-113853931D01*
X159885262Y-113810661D01*
X159881000Y-113767391D01*
X159881000Y-113706993D01*
X160222612Y-113706993D01*
X160288137Y-113945860D01*
X160535116Y-114061760D01*
X160799960Y-114127250D01*
X161072492Y-114139812D01*
X161342238Y-114098965D01*
X161598832Y-114006277D01*
X161711863Y-113945860D01*
X161777388Y-113706993D01*
X161000000Y-112929605D01*
X160222612Y-113706993D01*
X159881000Y-113706993D01*
X159881000Y-113482947D01*
X160043007Y-113527388D01*
X160820395Y-112750000D01*
X161179605Y-112750000D01*
X161956993Y-113527388D01*
X162195860Y-113461863D01*
X162311760Y-113214884D01*
X162377250Y-112950040D01*
X162389812Y-112677508D01*
X162348965Y-112407762D01*
X162256277Y-112151168D01*
X162195860Y-112038137D01*
X161956993Y-111972612D01*
X161179605Y-112750000D01*
X160820395Y-112750000D01*
X160043007Y-111972612D01*
X159869643Y-112020168D01*
X159720970Y-111871495D01*
X159603505Y-111793007D01*
X160222612Y-111793007D01*
X161000000Y-112570395D01*
X161777388Y-111793007D01*
X161711863Y-111554140D01*
X161464884Y-111438240D01*
X161200040Y-111372750D01*
X160927508Y-111360188D01*
X160657762Y-111401035D01*
X160401168Y-111493723D01*
X160288137Y-111554140D01*
X160222612Y-111793007D01*
X159603505Y-111793007D01*
X159535729Y-111747721D01*
X159329900Y-111662464D01*
X159111394Y-111619000D01*
X158888606Y-111619000D01*
X158670100Y-111662464D01*
X158464271Y-111747721D01*
X158279030Y-111871495D01*
X158121495Y-112029030D01*
X158000000Y-112210860D01*
X157878505Y-112029030D01*
X157720970Y-111871495D01*
X157535729Y-111747721D01*
X157329900Y-111662464D01*
X157111394Y-111619000D01*
X156888606Y-111619000D01*
X156670100Y-111662464D01*
X156464271Y-111747721D01*
X156279030Y-111871495D01*
X156121495Y-112029030D01*
X156094788Y-112069000D01*
X153766116Y-112069000D01*
X153713225Y-112047092D01*
X153571997Y-112019000D01*
X153428003Y-112019000D01*
X153286775Y-112047092D01*
X153153742Y-112102196D01*
X153034015Y-112182195D01*
X152932195Y-112284015D01*
X152852196Y-112403742D01*
X152797092Y-112536775D01*
X152769000Y-112678003D01*
X152769000Y-112821997D01*
X152797092Y-112963225D01*
X152852196Y-113096258D01*
X152932195Y-113215985D01*
X153034015Y-113317805D01*
X153153742Y-113397804D01*
X153286775Y-113452908D01*
X153428003Y-113481000D01*
X153571997Y-113481000D01*
X153713225Y-113452908D01*
X153766116Y-113431000D01*
X156094788Y-113431000D01*
X156121495Y-113470970D01*
X156279030Y-113628505D01*
X156464271Y-113752279D01*
X156670100Y-113837536D01*
X156888606Y-113881000D01*
X157111394Y-113881000D01*
X157329900Y-113837536D01*
X157535729Y-113752279D01*
X157720970Y-113628505D01*
X157878505Y-113470970D01*
X158000000Y-113289140D01*
X158110389Y-113454349D01*
X156446953Y-115117785D01*
X156481000Y-114946620D01*
X156481000Y-114753380D01*
X156443301Y-114563853D01*
X156369351Y-114385322D01*
X156261993Y-114224649D01*
X156125351Y-114088007D01*
X155964678Y-113980649D01*
X155786147Y-113906699D01*
X155596620Y-113869000D01*
X155403380Y-113869000D01*
X155213853Y-113906699D01*
X155035322Y-113980649D01*
X154874649Y-114088007D01*
X154738007Y-114224649D01*
X154630649Y-114385322D01*
X154556699Y-114563853D01*
X154519000Y-114753380D01*
X154519000Y-114946620D01*
X154556699Y-115136147D01*
X154630649Y-115314678D01*
X154738007Y-115475351D01*
X154874649Y-115611993D01*
X154885136Y-115619000D01*
X153364922Y-115619000D01*
X151443566Y-113697645D01*
X151415975Y-113664025D01*
X151281825Y-113553932D01*
X151128775Y-113472125D01*
X150962706Y-113421748D01*
X150833273Y-113409000D01*
X150833270Y-113409000D01*
X150790000Y-113404738D01*
X150746730Y-113409000D01*
X149314138Y-113409000D01*
X149290186Y-113379814D01*
X149095129Y-113219734D01*
X148983054Y-113159829D01*
X149084751Y-113119554D01*
X149338396Y-112955748D01*
X149555210Y-112745606D01*
X149726862Y-112497204D01*
X149846755Y-112220087D01*
X149871036Y-112114740D01*
X149750378Y-111877000D01*
X147907000Y-111877000D01*
X147907000Y-111897000D01*
X147653000Y-111897000D01*
X147653000Y-111877000D01*
X145809622Y-111877000D01*
X145688964Y-112114740D01*
X145713245Y-112220087D01*
X145833138Y-112497204D01*
X145917302Y-112619000D01*
X140293269Y-112619000D01*
X140249999Y-112614738D01*
X140206729Y-112619000D01*
X140206727Y-112619000D01*
X140077294Y-112631748D01*
X139911225Y-112682125D01*
X139865198Y-112706727D01*
X139758174Y-112763932D01*
X139690022Y-112819863D01*
X139624025Y-112874025D01*
X139596439Y-112907639D01*
X138308078Y-114196001D01*
X132466268Y-114196001D01*
X132422998Y-114191739D01*
X132379728Y-114196001D01*
X132379726Y-114196001D01*
X132250293Y-114208749D01*
X132084224Y-114259126D01*
X131984485Y-114312438D01*
X131931173Y-114340933D01*
X131882314Y-114381031D01*
X131797024Y-114451026D01*
X131769439Y-114484639D01*
X131212015Y-115042063D01*
X131231000Y-114946620D01*
X131231000Y-114753380D01*
X131193301Y-114563853D01*
X131119351Y-114385322D01*
X131011993Y-114224649D01*
X130875351Y-114088007D01*
X130714678Y-113980649D01*
X130536147Y-113906699D01*
X130346620Y-113869000D01*
X130153380Y-113869000D01*
X129963853Y-113906699D01*
X129785322Y-113980649D01*
X129624649Y-114088007D01*
X129488007Y-114224649D01*
X129380649Y-114385322D01*
X129306699Y-114563853D01*
X129269000Y-114753380D01*
X129269000Y-114946620D01*
X129303047Y-115117785D01*
X128213338Y-114028077D01*
X128285116Y-114061760D01*
X128549960Y-114127250D01*
X128822492Y-114139812D01*
X129092238Y-114098965D01*
X129348832Y-114006277D01*
X129461863Y-113945860D01*
X129527388Y-113706993D01*
X128750000Y-112929605D01*
X128735858Y-112943748D01*
X128556253Y-112764143D01*
X128570395Y-112750000D01*
X128929605Y-112750000D01*
X129706993Y-113527388D01*
X129945860Y-113461863D01*
X130061760Y-113214884D01*
X130127250Y-112950040D01*
X130139812Y-112677508D01*
X130098965Y-112407762D01*
X130006277Y-112151168D01*
X129945860Y-112038137D01*
X129706993Y-111972612D01*
X128929605Y-112750000D01*
X128570395Y-112750000D01*
X127793007Y-111972612D01*
X127619643Y-112020168D01*
X127470970Y-111871495D01*
X127353505Y-111793007D01*
X127972612Y-111793007D01*
X128750000Y-112570395D01*
X129527388Y-111793007D01*
X129461863Y-111554140D01*
X129257640Y-111458304D01*
X136319000Y-111458304D01*
X136319000Y-111641696D01*
X136354778Y-111821563D01*
X136424958Y-111990994D01*
X136526845Y-112143478D01*
X136656522Y-112273155D01*
X136809006Y-112375042D01*
X136978437Y-112445222D01*
X137158304Y-112481000D01*
X137341696Y-112481000D01*
X137521563Y-112445222D01*
X137690994Y-112375042D01*
X137843478Y-112273155D01*
X137973155Y-112143478D01*
X138075042Y-111990994D01*
X138145222Y-111821563D01*
X138181000Y-111641696D01*
X138181000Y-111458304D01*
X139819000Y-111458304D01*
X139819000Y-111641696D01*
X139854778Y-111821563D01*
X139924958Y-111990994D01*
X140026845Y-112143478D01*
X140156522Y-112273155D01*
X140309006Y-112375042D01*
X140478437Y-112445222D01*
X140658304Y-112481000D01*
X140841696Y-112481000D01*
X141021563Y-112445222D01*
X141190994Y-112375042D01*
X141343478Y-112273155D01*
X141473155Y-112143478D01*
X141575042Y-111990994D01*
X141645222Y-111821563D01*
X141681000Y-111641696D01*
X141681000Y-111458304D01*
X141666471Y-111385260D01*
X145688964Y-111385260D01*
X145809622Y-111623000D01*
X147653000Y-111623000D01*
X147653000Y-111603000D01*
X147907000Y-111603000D01*
X147907000Y-111623000D01*
X149750378Y-111623000D01*
X149871036Y-111385260D01*
X149846755Y-111279913D01*
X149729246Y-111008304D01*
X165619000Y-111008304D01*
X165619000Y-111191696D01*
X165654778Y-111371563D01*
X165724958Y-111540994D01*
X165826845Y-111693478D01*
X165956522Y-111823155D01*
X166109006Y-111925042D01*
X166278437Y-111995222D01*
X166458304Y-112031000D01*
X166641696Y-112031000D01*
X166821563Y-111995222D01*
X166990994Y-111925042D01*
X167143478Y-111823155D01*
X167273155Y-111693478D01*
X167375042Y-111540994D01*
X167445222Y-111371563D01*
X167481000Y-111191696D01*
X167481000Y-111008304D01*
X167445222Y-110828437D01*
X167375042Y-110659006D01*
X167273155Y-110506522D01*
X167143478Y-110376845D01*
X166990994Y-110274958D01*
X166821563Y-110204778D01*
X166641696Y-110169000D01*
X166458304Y-110169000D01*
X166278437Y-110204778D01*
X166109006Y-110274958D01*
X165956522Y-110376845D01*
X165826845Y-110506522D01*
X165724958Y-110659006D01*
X165654778Y-110828437D01*
X165619000Y-111008304D01*
X149729246Y-111008304D01*
X149726862Y-111002796D01*
X149555210Y-110754394D01*
X149338396Y-110544252D01*
X149084751Y-110380446D01*
X148983054Y-110340171D01*
X149095129Y-110280266D01*
X149290186Y-110120186D01*
X149450266Y-109925129D01*
X149569216Y-109702589D01*
X149642465Y-109461120D01*
X149667198Y-109210000D01*
X149642465Y-108958880D01*
X149569216Y-108717411D01*
X149450266Y-108494871D01*
X149290186Y-108299814D01*
X149095129Y-108139734D01*
X148872589Y-108020784D01*
X148631120Y-107947535D01*
X148554615Y-107940000D01*
X148631120Y-107932465D01*
X148872589Y-107859216D01*
X149095129Y-107740266D01*
X149290186Y-107580186D01*
X149450266Y-107385129D01*
X149569216Y-107162589D01*
X149642465Y-106921120D01*
X149667198Y-106670000D01*
X149642465Y-106418880D01*
X149569216Y-106177411D01*
X149450266Y-105954871D01*
X149290186Y-105759814D01*
X149095129Y-105599734D01*
X148872589Y-105480784D01*
X148631120Y-105407535D01*
X148554615Y-105400000D01*
X148631120Y-105392465D01*
X148872589Y-105319216D01*
X149095129Y-105200266D01*
X149290186Y-105040186D01*
X149450266Y-104845129D01*
X149569216Y-104622589D01*
X149571596Y-104614740D01*
X151618964Y-104614740D01*
X151643245Y-104720087D01*
X151763138Y-104997204D01*
X151934790Y-105245606D01*
X152151604Y-105455748D01*
X152405249Y-105619554D01*
X152506946Y-105659829D01*
X152394871Y-105719734D01*
X152199814Y-105879814D01*
X152039734Y-106074871D01*
X151920784Y-106297411D01*
X151847535Y-106538880D01*
X151822802Y-106790000D01*
X151847535Y-107041120D01*
X151920784Y-107282589D01*
X152039734Y-107505129D01*
X152199814Y-107700186D01*
X152394871Y-107860266D01*
X152617411Y-107979216D01*
X152858880Y-108052465D01*
X153047070Y-108071000D01*
X154872930Y-108071000D01*
X155061120Y-108052465D01*
X155302589Y-107979216D01*
X155525129Y-107860266D01*
X155649369Y-107758304D01*
X165619000Y-107758304D01*
X165619000Y-107941696D01*
X165654778Y-108121563D01*
X165724958Y-108290994D01*
X165826845Y-108443478D01*
X165956522Y-108573155D01*
X166109006Y-108675042D01*
X166278437Y-108745222D01*
X166458304Y-108781000D01*
X166641696Y-108781000D01*
X166821563Y-108745222D01*
X166990994Y-108675042D01*
X167143478Y-108573155D01*
X167273155Y-108443478D01*
X167375042Y-108290994D01*
X167445222Y-108121563D01*
X167481000Y-107941696D01*
X167481000Y-107758304D01*
X167445222Y-107578437D01*
X167375042Y-107409006D01*
X167273155Y-107256522D01*
X167143478Y-107126845D01*
X166990994Y-107024958D01*
X166821563Y-106954778D01*
X166641696Y-106919000D01*
X166458304Y-106919000D01*
X166278437Y-106954778D01*
X166109006Y-107024958D01*
X165956522Y-107126845D01*
X165826845Y-107256522D01*
X165724958Y-107409006D01*
X165654778Y-107578437D01*
X165619000Y-107758304D01*
X155649369Y-107758304D01*
X155720186Y-107700186D01*
X155880266Y-107505129D01*
X155898508Y-107471000D01*
X156926547Y-107471000D01*
X156960000Y-107474295D01*
X156993453Y-107471000D01*
X157093499Y-107461146D01*
X157221868Y-107422206D01*
X157340174Y-107358970D01*
X157443870Y-107273870D01*
X157465204Y-107247874D01*
X158543368Y-106169712D01*
X158596258Y-106147804D01*
X158715985Y-106067805D01*
X158817805Y-105965985D01*
X158897804Y-105846258D01*
X158952908Y-105713225D01*
X158981000Y-105571997D01*
X158981000Y-105428003D01*
X158952908Y-105286775D01*
X158897804Y-105153742D01*
X158817805Y-105034015D01*
X158746216Y-104962426D01*
X159994000Y-104962426D01*
X159994000Y-105357574D01*
X160071090Y-105745129D01*
X160222306Y-106110197D01*
X160441838Y-106438750D01*
X160721250Y-106718162D01*
X161049803Y-106937694D01*
X161414871Y-107088910D01*
X161802426Y-107166000D01*
X162197574Y-107166000D01*
X162585129Y-107088910D01*
X162950197Y-106937694D01*
X163278750Y-106718162D01*
X163558162Y-106438750D01*
X163777694Y-106110197D01*
X163928910Y-105745129D01*
X164006000Y-105357574D01*
X164006000Y-104962426D01*
X163928910Y-104574871D01*
X163777694Y-104209803D01*
X163558162Y-103881250D01*
X163278750Y-103601838D01*
X162950197Y-103382306D01*
X162585129Y-103231090D01*
X162197574Y-103154000D01*
X161802426Y-103154000D01*
X161414871Y-103231090D01*
X161049803Y-103382306D01*
X160721250Y-103601838D01*
X160441838Y-103881250D01*
X160222306Y-104209803D01*
X160071090Y-104574871D01*
X159994000Y-104962426D01*
X158746216Y-104962426D01*
X158715985Y-104932195D01*
X158596258Y-104852196D01*
X158463225Y-104797092D01*
X158321997Y-104769000D01*
X158178003Y-104769000D01*
X158036775Y-104797092D01*
X157903742Y-104852196D01*
X157784015Y-104932195D01*
X157682195Y-105034015D01*
X157602196Y-105153742D01*
X157580288Y-105206632D01*
X156677922Y-106109000D01*
X155898508Y-106109000D01*
X155880266Y-106074871D01*
X155720186Y-105879814D01*
X155525129Y-105719734D01*
X155413054Y-105659829D01*
X155514751Y-105619554D01*
X155768396Y-105455748D01*
X155985210Y-105245606D01*
X156156862Y-104997204D01*
X156276755Y-104720087D01*
X156301036Y-104614740D01*
X156180378Y-104377000D01*
X154087000Y-104377000D01*
X154087000Y-104397000D01*
X153833000Y-104397000D01*
X153833000Y-104377000D01*
X151739622Y-104377000D01*
X151618964Y-104614740D01*
X149571596Y-104614740D01*
X149642465Y-104381120D01*
X149667198Y-104130000D01*
X149642465Y-103878880D01*
X149569216Y-103637411D01*
X149450266Y-103414871D01*
X149290186Y-103219814D01*
X149095129Y-103059734D01*
X148872589Y-102940784D01*
X148631120Y-102867535D01*
X148442930Y-102849000D01*
X147117070Y-102849000D01*
X146928880Y-102867535D01*
X146687411Y-102940784D01*
X146464871Y-103059734D01*
X146269814Y-103219814D01*
X146109734Y-103414871D01*
X145990784Y-103637411D01*
X145917535Y-103878880D01*
X145892802Y-104130000D01*
X145917535Y-104381120D01*
X145990784Y-104622589D01*
X146109734Y-104845129D01*
X146269814Y-105040186D01*
X146464871Y-105200266D01*
X146687411Y-105319216D01*
X146928880Y-105392465D01*
X147005385Y-105400000D01*
X146928880Y-105407535D01*
X146687411Y-105480784D01*
X146464871Y-105599734D01*
X146269814Y-105759814D01*
X146109734Y-105954871D01*
X145990784Y-106177411D01*
X145917535Y-106418880D01*
X145892802Y-106670000D01*
X145917535Y-106921120D01*
X145990784Y-107162589D01*
X146109734Y-107385129D01*
X146269814Y-107580186D01*
X146464871Y-107740266D01*
X146687411Y-107859216D01*
X146928880Y-107932465D01*
X147005385Y-107940000D01*
X146928880Y-107947535D01*
X146687411Y-108020784D01*
X146464871Y-108139734D01*
X146269814Y-108299814D01*
X146109734Y-108494871D01*
X145990784Y-108717411D01*
X145917535Y-108958880D01*
X145892802Y-109210000D01*
X145917535Y-109461120D01*
X145990784Y-109702589D01*
X146109734Y-109925129D01*
X146269814Y-110120186D01*
X146464871Y-110280266D01*
X146576946Y-110340171D01*
X146475249Y-110380446D01*
X146221604Y-110544252D01*
X146004790Y-110754394D01*
X145833138Y-111002796D01*
X145713245Y-111279913D01*
X145688964Y-111385260D01*
X141666471Y-111385260D01*
X141645222Y-111278437D01*
X141575042Y-111109006D01*
X141473155Y-110956522D01*
X141343478Y-110826845D01*
X141190994Y-110724958D01*
X141021563Y-110654778D01*
X140841696Y-110619000D01*
X140658304Y-110619000D01*
X140478437Y-110654778D01*
X140309006Y-110724958D01*
X140156522Y-110826845D01*
X140026845Y-110956522D01*
X139924958Y-111109006D01*
X139854778Y-111278437D01*
X139819000Y-111458304D01*
X138181000Y-111458304D01*
X138145222Y-111278437D01*
X138075042Y-111109006D01*
X137973155Y-110956522D01*
X137843478Y-110826845D01*
X137690994Y-110724958D01*
X137521563Y-110654778D01*
X137341696Y-110619000D01*
X137158304Y-110619000D01*
X136978437Y-110654778D01*
X136809006Y-110724958D01*
X136656522Y-110826845D01*
X136526845Y-110956522D01*
X136424958Y-111109006D01*
X136354778Y-111278437D01*
X136319000Y-111458304D01*
X129257640Y-111458304D01*
X129214884Y-111438240D01*
X128950040Y-111372750D01*
X128677508Y-111360188D01*
X128407762Y-111401035D01*
X128151168Y-111493723D01*
X128038137Y-111554140D01*
X127972612Y-111793007D01*
X127353505Y-111793007D01*
X127285729Y-111747721D01*
X127079900Y-111662464D01*
X126861394Y-111619000D01*
X126638606Y-111619000D01*
X126420100Y-111662464D01*
X126214271Y-111747721D01*
X126029030Y-111871495D01*
X125871495Y-112029030D01*
X125750000Y-112210860D01*
X125628505Y-112029030D01*
X125470970Y-111871495D01*
X125285729Y-111747721D01*
X125079900Y-111662464D01*
X124861394Y-111619000D01*
X124638606Y-111619000D01*
X124420100Y-111662464D01*
X124214271Y-111747721D01*
X124029030Y-111871495D01*
X123871495Y-112029030D01*
X123747721Y-112214271D01*
X123662464Y-112420100D01*
X123619000Y-112638606D01*
X123619000Y-112861394D01*
X123662464Y-113079900D01*
X123747721Y-113285729D01*
X123871495Y-113470970D01*
X124029030Y-113628505D01*
X124214271Y-113752279D01*
X124420100Y-113837536D01*
X124638606Y-113881000D01*
X124861394Y-113881000D01*
X125079900Y-113837536D01*
X125285729Y-113752279D01*
X125470970Y-113628505D01*
X125628505Y-113470970D01*
X125750000Y-113289140D01*
X125869000Y-113467236D01*
X125869000Y-113767389D01*
X125864738Y-113810660D01*
X125869000Y-113853930D01*
X125869000Y-113853932D01*
X125881748Y-113983365D01*
X125929206Y-114139812D01*
X125932125Y-114149434D01*
X126013932Y-114302485D01*
X126045486Y-114340933D01*
X126124025Y-114436635D01*
X126157645Y-114464226D01*
X128535779Y-116842361D01*
X128563365Y-116875975D01*
X128629362Y-116930137D01*
X128697514Y-116986068D01*
X128850565Y-117067875D01*
X129016634Y-117118252D01*
X129146067Y-117131000D01*
X129146070Y-117131000D01*
X129189340Y-117135262D01*
X129232610Y-117131000D01*
X131206730Y-117131000D01*
X131250000Y-117135262D01*
X131293270Y-117131000D01*
X131293273Y-117131000D01*
X131422706Y-117118252D01*
X131588775Y-117067875D01*
X131741825Y-116986068D01*
X131875975Y-116875975D01*
X131903566Y-116842356D01*
X132787921Y-115958001D01*
X138629729Y-115958001D01*
X138672999Y-115962263D01*
X138716269Y-115958001D01*
X138716272Y-115958001D01*
X138845705Y-115945253D01*
X139011774Y-115894876D01*
X139164824Y-115813069D01*
X139298974Y-115702976D01*
X139326565Y-115669356D01*
X140067866Y-114928055D01*
X140065705Y-114950000D01*
X140069000Y-114983453D01*
X140069000Y-115017073D01*
X140075559Y-115050048D01*
X140078854Y-115083498D01*
X140088611Y-115115663D01*
X140095171Y-115148640D01*
X140108038Y-115179704D01*
X140117795Y-115211868D01*
X140133638Y-115241508D01*
X140146506Y-115272574D01*
X140165190Y-115300536D01*
X140181031Y-115330173D01*
X140202349Y-115356150D01*
X140221033Y-115384112D01*
X140315888Y-115478967D01*
X140315891Y-115478969D01*
X141092115Y-116255194D01*
X141092121Y-116255199D01*
X141394796Y-116557874D01*
X141416130Y-116583870D01*
X141519826Y-116668970D01*
X141638132Y-116732206D01*
X141766501Y-116771146D01*
X141900000Y-116784295D01*
X141933453Y-116781000D01*
X142009187Y-116781000D01*
X141952512Y-116827512D01*
X141873810Y-116923411D01*
X141815329Y-117032821D01*
X141779317Y-117151538D01*
X141767157Y-117275000D01*
X141767157Y-118725000D01*
X141779317Y-118848462D01*
X141815329Y-118967179D01*
X141873810Y-119076589D01*
X141952512Y-119172488D01*
X142048411Y-119251190D01*
X142157821Y-119309671D01*
X142276538Y-119345683D01*
X142400000Y-119357843D01*
X143600000Y-119357843D01*
X143723462Y-119345683D01*
X143842179Y-119309671D01*
X143951589Y-119251190D01*
X144047488Y-119172488D01*
X144126190Y-119076589D01*
X144184671Y-118967179D01*
X144220683Y-118848462D01*
X144232843Y-118725000D01*
X144232843Y-117275000D01*
X144220683Y-117151538D01*
X144184671Y-117032821D01*
X144126190Y-116923411D01*
X144047488Y-116827512D01*
X143990813Y-116781000D01*
X147552436Y-116781000D01*
X147521250Y-116801838D01*
X147241838Y-117081250D01*
X147022306Y-117409803D01*
X146871090Y-117774871D01*
X146794000Y-118162426D01*
X146794000Y-118557574D01*
X146871090Y-118945129D01*
X147022306Y-119310197D01*
X147241838Y-119638750D01*
X147422088Y-119819000D01*
X131659436Y-119819000D01*
X131646258Y-119810195D01*
X131513225Y-119755091D01*
X131371997Y-119726999D01*
X131228003Y-119726999D01*
X131086775Y-119755091D01*
X130953742Y-119810195D01*
X130834015Y-119890194D01*
X130732195Y-119992014D01*
X130652196Y-120111741D01*
X130597092Y-120244774D01*
X130569000Y-120386002D01*
X130569000Y-120529996D01*
X130593666Y-120653999D01*
X120021081Y-120653999D01*
X119590765Y-120611806D01*
X119197113Y-120492956D01*
X118834042Y-120299908D01*
X118515384Y-120040017D01*
X118253275Y-119723183D01*
X118057698Y-119361472D01*
X117936102Y-118968658D01*
X117891001Y-118539554D01*
X117891001Y-118389360D01*
X118369000Y-118389360D01*
X118369000Y-118710640D01*
X118431678Y-119025745D01*
X118554626Y-119322568D01*
X118733119Y-119589702D01*
X118960298Y-119816881D01*
X119227432Y-119995374D01*
X119524255Y-120118322D01*
X119839360Y-120181000D01*
X120160640Y-120181000D01*
X120475745Y-120118322D01*
X120772568Y-119995374D01*
X121039702Y-119816881D01*
X121266881Y-119589702D01*
X121445374Y-119322568D01*
X121568322Y-119025745D01*
X121631000Y-118710640D01*
X121631000Y-118668304D01*
X124279000Y-118668304D01*
X124279000Y-118851696D01*
X124314778Y-119031563D01*
X124384958Y-119200994D01*
X124486845Y-119353478D01*
X124616522Y-119483155D01*
X124769006Y-119585042D01*
X124938437Y-119655222D01*
X125118304Y-119691000D01*
X125301696Y-119691000D01*
X125481563Y-119655222D01*
X125650994Y-119585042D01*
X125803478Y-119483155D01*
X125933155Y-119353478D01*
X126035042Y-119200994D01*
X126105222Y-119031563D01*
X126141000Y-118851696D01*
X126141000Y-118668304D01*
X126139011Y-118658304D01*
X127569000Y-118658304D01*
X127569000Y-118841696D01*
X127604778Y-119021563D01*
X127674958Y-119190994D01*
X127776845Y-119343478D01*
X127906522Y-119473155D01*
X128059006Y-119575042D01*
X128228437Y-119645222D01*
X128408304Y-119681000D01*
X128591696Y-119681000D01*
X128771563Y-119645222D01*
X128940994Y-119575042D01*
X129093478Y-119473155D01*
X129223155Y-119343478D01*
X129325042Y-119190994D01*
X129395222Y-119021563D01*
X129431000Y-118841696D01*
X129431000Y-118658304D01*
X129395222Y-118478437D01*
X129345861Y-118359267D01*
X134033680Y-118359267D01*
X134107558Y-118640830D01*
X134234947Y-118902570D01*
X134410951Y-119134429D01*
X134628807Y-119327496D01*
X134880142Y-119474352D01*
X135143110Y-119566476D01*
X135373000Y-119445155D01*
X135373000Y-118127000D01*
X134173835Y-118127000D01*
X134033680Y-118359267D01*
X129345861Y-118359267D01*
X129325042Y-118309006D01*
X129223155Y-118156522D01*
X129093478Y-118026845D01*
X128940994Y-117924958D01*
X128771563Y-117854778D01*
X128591696Y-117819000D01*
X128408304Y-117819000D01*
X128228437Y-117854778D01*
X128059006Y-117924958D01*
X127906522Y-118026845D01*
X127776845Y-118156522D01*
X127674958Y-118309006D01*
X127604778Y-118478437D01*
X127569000Y-118658304D01*
X126139011Y-118658304D01*
X126105222Y-118488437D01*
X126035042Y-118319006D01*
X125933155Y-118166522D01*
X125803478Y-118036845D01*
X125650994Y-117934958D01*
X125481563Y-117864778D01*
X125301696Y-117829000D01*
X125118304Y-117829000D01*
X124938437Y-117864778D01*
X124769006Y-117934958D01*
X124616522Y-118036845D01*
X124486845Y-118166522D01*
X124384958Y-118319006D01*
X124314778Y-118488437D01*
X124279000Y-118668304D01*
X121631000Y-118668304D01*
X121631000Y-118389360D01*
X121568322Y-118074255D01*
X121445374Y-117777432D01*
X121354035Y-117640733D01*
X134033680Y-117640733D01*
X134173835Y-117873000D01*
X135373000Y-117873000D01*
X135373000Y-116554845D01*
X135627000Y-116554845D01*
X135627000Y-117873000D01*
X135647000Y-117873000D01*
X135647000Y-118127000D01*
X135627000Y-118127000D01*
X135627000Y-119445155D01*
X135856890Y-119566476D01*
X136119858Y-119474352D01*
X136371193Y-119327496D01*
X136589049Y-119134429D01*
X136765053Y-118902570D01*
X136886465Y-118653110D01*
X136971509Y-118812215D01*
X137125340Y-118999660D01*
X137312784Y-119153491D01*
X137526637Y-119267798D01*
X137758682Y-119338188D01*
X138000000Y-119361956D01*
X138241317Y-119338188D01*
X138473362Y-119267798D01*
X138687215Y-119153491D01*
X138874660Y-118999660D01*
X139028491Y-118812216D01*
X139142798Y-118598363D01*
X139213188Y-118366318D01*
X139231000Y-118185472D01*
X139231000Y-117814529D01*
X139231000Y-117814528D01*
X139269000Y-117814528D01*
X139269000Y-118185471D01*
X139286812Y-118366317D01*
X139357202Y-118598362D01*
X139471509Y-118812215D01*
X139625340Y-118999660D01*
X139812784Y-119153491D01*
X140026637Y-119267798D01*
X140258682Y-119338188D01*
X140500000Y-119361956D01*
X140741317Y-119338188D01*
X140973362Y-119267798D01*
X141187215Y-119153491D01*
X141374660Y-118999660D01*
X141528491Y-118812216D01*
X141642798Y-118598363D01*
X141713188Y-118366318D01*
X141731000Y-118185472D01*
X141731000Y-117814529D01*
X141713188Y-117633683D01*
X141642798Y-117401638D01*
X141528491Y-117187785D01*
X141374660Y-117000340D01*
X141187216Y-116846509D01*
X140973363Y-116732202D01*
X140741318Y-116661812D01*
X140500000Y-116638044D01*
X140258683Y-116661812D01*
X140026638Y-116732202D01*
X139812785Y-116846509D01*
X139625341Y-117000340D01*
X139471509Y-117187784D01*
X139357202Y-117401637D01*
X139286812Y-117633682D01*
X139269000Y-117814528D01*
X139231000Y-117814528D01*
X139213188Y-117633683D01*
X139142798Y-117401638D01*
X139028491Y-117187785D01*
X138874660Y-117000340D01*
X138687216Y-116846509D01*
X138473363Y-116732202D01*
X138241318Y-116661812D01*
X138000000Y-116638044D01*
X137758683Y-116661812D01*
X137526638Y-116732202D01*
X137312785Y-116846509D01*
X137125341Y-117000340D01*
X136971509Y-117187784D01*
X136886465Y-117346890D01*
X136765053Y-117097430D01*
X136589049Y-116865571D01*
X136371193Y-116672504D01*
X136119858Y-116525648D01*
X135856890Y-116433524D01*
X135627000Y-116554845D01*
X135373000Y-116554845D01*
X135143110Y-116433524D01*
X134880142Y-116525648D01*
X134628807Y-116672504D01*
X134410951Y-116865571D01*
X134234947Y-117097430D01*
X134107558Y-117359170D01*
X134033680Y-117640733D01*
X121354035Y-117640733D01*
X121266881Y-117510298D01*
X121039702Y-117283119D01*
X120772568Y-117104626D01*
X120475745Y-116981678D01*
X120160640Y-116919000D01*
X119839360Y-116919000D01*
X119524255Y-116981678D01*
X119227432Y-117104626D01*
X118960298Y-117283119D01*
X118733119Y-117510298D01*
X118554626Y-117777432D01*
X118431678Y-118074255D01*
X118369000Y-118389360D01*
X117891001Y-118389360D01*
X117891001Y-114753380D01*
X122269000Y-114753380D01*
X122269000Y-114946620D01*
X122306699Y-115136147D01*
X122380649Y-115314678D01*
X122488007Y-115475351D01*
X122624649Y-115611993D01*
X122785322Y-115719351D01*
X122963853Y-115793301D01*
X123153380Y-115831000D01*
X123346620Y-115831000D01*
X123536147Y-115793301D01*
X123714678Y-115719351D01*
X123875351Y-115611993D01*
X124011993Y-115475351D01*
X124119351Y-115314678D01*
X124193301Y-115136147D01*
X124231000Y-114946620D01*
X124231000Y-114753380D01*
X124193301Y-114563853D01*
X124119351Y-114385322D01*
X124011993Y-114224649D01*
X123875351Y-114088007D01*
X123714678Y-113980649D01*
X123536147Y-113906699D01*
X123346620Y-113869000D01*
X123153380Y-113869000D01*
X122963853Y-113906699D01*
X122785322Y-113980649D01*
X122624649Y-114088007D01*
X122488007Y-114224649D01*
X122380649Y-114385322D01*
X122306699Y-114563853D01*
X122269000Y-114753380D01*
X117891001Y-114753380D01*
X117891001Y-107102426D01*
X118424000Y-107102426D01*
X118424000Y-107497574D01*
X118501090Y-107885129D01*
X118652306Y-108250197D01*
X118871838Y-108578750D01*
X119151250Y-108858162D01*
X119479803Y-109077694D01*
X119844871Y-109228910D01*
X120232426Y-109306000D01*
X120627574Y-109306000D01*
X121015129Y-109228910D01*
X121380197Y-109077694D01*
X121708750Y-108858162D01*
X121988162Y-108578750D01*
X122207694Y-108250197D01*
X122358910Y-107885129D01*
X122436000Y-107497574D01*
X122436000Y-107477071D01*
X122679000Y-107477071D01*
X122679000Y-108802930D01*
X122697535Y-108991120D01*
X122770784Y-109232589D01*
X122889735Y-109455129D01*
X123049815Y-109650186D01*
X123244872Y-109810266D01*
X123467412Y-109929216D01*
X123708881Y-110002465D01*
X123960000Y-110027198D01*
X124211120Y-110002465D01*
X124452589Y-109929216D01*
X124675129Y-109810266D01*
X124870186Y-109650186D01*
X125030266Y-109455129D01*
X125149216Y-109232589D01*
X125222465Y-108991120D01*
X125230000Y-108914615D01*
X125237535Y-108991120D01*
X125310784Y-109232589D01*
X125429735Y-109455129D01*
X125589815Y-109650186D01*
X125784872Y-109810266D01*
X126007412Y-109929216D01*
X126248881Y-110002465D01*
X126500000Y-110027198D01*
X126751120Y-110002465D01*
X126992589Y-109929216D01*
X127215129Y-109810266D01*
X127410186Y-109650186D01*
X127570266Y-109455129D01*
X127630171Y-109343054D01*
X127670446Y-109444751D01*
X127834252Y-109698396D01*
X128044394Y-109915210D01*
X128292796Y-110086862D01*
X128569913Y-110206755D01*
X128675260Y-110231036D01*
X128913000Y-110110378D01*
X128913000Y-108267000D01*
X129167000Y-108267000D01*
X129167000Y-110110378D01*
X129404740Y-110231036D01*
X129510087Y-110206755D01*
X129787204Y-110086862D01*
X130035606Y-109915210D01*
X130245748Y-109698396D01*
X130310000Y-109598905D01*
X130374252Y-109698396D01*
X130584394Y-109915210D01*
X130832796Y-110086862D01*
X131109913Y-110206755D01*
X131215260Y-110231036D01*
X131453000Y-110110378D01*
X131453000Y-108267000D01*
X129167000Y-108267000D01*
X128913000Y-108267000D01*
X128893000Y-108267000D01*
X128893000Y-108013000D01*
X128913000Y-108013000D01*
X128913000Y-106169622D01*
X128675260Y-106048964D01*
X128569913Y-106073245D01*
X128292796Y-106193138D01*
X128044394Y-106364790D01*
X127834252Y-106581604D01*
X127670446Y-106835249D01*
X127630171Y-106936946D01*
X127570266Y-106824871D01*
X127410186Y-106629814D01*
X127215128Y-106469734D01*
X126992588Y-106350784D01*
X126751119Y-106277535D01*
X126500000Y-106252802D01*
X126248880Y-106277535D01*
X126007411Y-106350784D01*
X125784871Y-106469734D01*
X125589814Y-106629814D01*
X125429734Y-106824872D01*
X125310784Y-107047412D01*
X125237535Y-107288881D01*
X125230000Y-107365385D01*
X125222465Y-107288880D01*
X125149216Y-107047411D01*
X125030266Y-106824871D01*
X124870186Y-106629814D01*
X124675128Y-106469734D01*
X124452588Y-106350784D01*
X124211119Y-106277535D01*
X123960000Y-106252802D01*
X123708880Y-106277535D01*
X123467411Y-106350784D01*
X123244871Y-106469734D01*
X123049814Y-106629814D01*
X122889734Y-106824872D01*
X122770784Y-107047412D01*
X122697535Y-107288881D01*
X122679000Y-107477071D01*
X122436000Y-107477071D01*
X122436000Y-107102426D01*
X122358910Y-106714871D01*
X122207694Y-106349803D01*
X121988162Y-106021250D01*
X121708750Y-105741838D01*
X121380197Y-105522306D01*
X121015129Y-105371090D01*
X120627574Y-105294000D01*
X120232426Y-105294000D01*
X119844871Y-105371090D01*
X119479803Y-105522306D01*
X119151250Y-105741838D01*
X118871838Y-106021250D01*
X118652306Y-106349803D01*
X118501090Y-106714871D01*
X118424000Y-107102426D01*
X117891001Y-107102426D01*
X117891001Y-101950000D01*
X120167157Y-101950000D01*
X120167157Y-103750000D01*
X120174513Y-103824689D01*
X120196299Y-103896508D01*
X120231678Y-103962696D01*
X120279289Y-104020711D01*
X120337304Y-104068322D01*
X120403492Y-104103701D01*
X120475311Y-104125487D01*
X120550000Y-104132843D01*
X124350000Y-104132843D01*
X124424689Y-104125487D01*
X124496508Y-104103701D01*
X124562696Y-104068322D01*
X124620711Y-104020711D01*
X124668322Y-103962696D01*
X124703701Y-103896508D01*
X124725487Y-103824689D01*
X124732843Y-103750000D01*
X124732843Y-101950000D01*
X124725487Y-101875311D01*
X124703701Y-101803492D01*
X124668322Y-101737304D01*
X124620711Y-101679289D01*
X124562696Y-101631678D01*
X124496508Y-101596299D01*
X124424689Y-101574513D01*
X124350000Y-101567157D01*
X120550000Y-101567157D01*
X120475311Y-101574513D01*
X120403492Y-101596299D01*
X120337304Y-101631678D01*
X120279289Y-101679289D01*
X120231678Y-101737304D01*
X120196299Y-101803492D01*
X120174513Y-101875311D01*
X120167157Y-101950000D01*
X117891001Y-101950000D01*
X117891001Y-99000000D01*
X124911928Y-99000000D01*
X124924188Y-99124482D01*
X124960498Y-99244180D01*
X125019463Y-99354494D01*
X125098815Y-99451185D01*
X125195506Y-99530537D01*
X125305820Y-99589502D01*
X125425518Y-99625812D01*
X125459874Y-99629196D01*
X125403492Y-99646299D01*
X125337304Y-99681678D01*
X125279289Y-99729289D01*
X125231678Y-99787304D01*
X125196299Y-99853492D01*
X125174513Y-99925311D01*
X125167157Y-100000000D01*
X125167157Y-101000000D01*
X125174513Y-101074689D01*
X125196299Y-101146508D01*
X125231678Y-101212696D01*
X125279289Y-101270711D01*
X125337304Y-101318322D01*
X125403492Y-101353701D01*
X125475311Y-101375487D01*
X125550000Y-101382843D01*
X126470634Y-101382843D01*
X126522771Y-101410711D01*
X126707690Y-101466805D01*
X126851813Y-101481000D01*
X132823657Y-101481000D01*
X133329001Y-101986344D01*
X133329000Y-102656101D01*
X133239734Y-102764872D01*
X133179829Y-102876947D01*
X133139554Y-102775249D01*
X132975748Y-102521604D01*
X132765606Y-102304790D01*
X132517204Y-102133138D01*
X132240087Y-102013245D01*
X132134740Y-101988964D01*
X131897000Y-102109622D01*
X131897000Y-103953000D01*
X131917000Y-103953000D01*
X131917000Y-104207000D01*
X131897000Y-104207000D01*
X131897000Y-104227000D01*
X131643000Y-104227000D01*
X131643000Y-104207000D01*
X131623000Y-104207000D01*
X131623000Y-103953000D01*
X131643000Y-103953000D01*
X131643000Y-102109622D01*
X131405260Y-101988964D01*
X131299913Y-102013245D01*
X131022796Y-102133138D01*
X130774394Y-102304790D01*
X130564252Y-102521604D01*
X130400446Y-102775249D01*
X130360171Y-102876946D01*
X130300266Y-102764871D01*
X130140186Y-102569814D01*
X129945128Y-102409734D01*
X129722588Y-102290784D01*
X129481119Y-102217535D01*
X129230000Y-102192802D01*
X128978880Y-102217535D01*
X128737411Y-102290784D01*
X128514871Y-102409734D01*
X128319814Y-102569814D01*
X128159734Y-102764872D01*
X128040784Y-102987412D01*
X127967535Y-103228881D01*
X127960000Y-103305385D01*
X127952465Y-103228880D01*
X127879216Y-102987411D01*
X127760266Y-102764871D01*
X127600186Y-102569814D01*
X127405128Y-102409734D01*
X127182588Y-102290784D01*
X126941119Y-102217535D01*
X126690000Y-102192802D01*
X126438880Y-102217535D01*
X126197411Y-102290784D01*
X125974871Y-102409734D01*
X125779814Y-102569814D01*
X125619734Y-102764872D01*
X125500784Y-102987412D01*
X125427535Y-103228881D01*
X125409000Y-103417071D01*
X125409000Y-104742930D01*
X125427535Y-104931120D01*
X125500784Y-105172589D01*
X125619735Y-105395129D01*
X125779815Y-105590186D01*
X125974872Y-105750266D01*
X126197412Y-105869216D01*
X126438881Y-105942465D01*
X126690000Y-105967198D01*
X126941120Y-105942465D01*
X127182589Y-105869216D01*
X127405129Y-105750266D01*
X127600186Y-105590186D01*
X127760266Y-105395129D01*
X127879216Y-105172589D01*
X127952465Y-104931120D01*
X127960000Y-104854615D01*
X127967535Y-104931120D01*
X128040784Y-105172589D01*
X128159735Y-105395129D01*
X128319815Y-105590186D01*
X128514872Y-105750266D01*
X128737412Y-105869216D01*
X128978881Y-105942465D01*
X129230000Y-105967198D01*
X129481120Y-105942465D01*
X129722589Y-105869216D01*
X129945129Y-105750266D01*
X130140186Y-105590186D01*
X130300266Y-105395129D01*
X130360171Y-105283054D01*
X130400446Y-105384751D01*
X130564252Y-105638396D01*
X130774394Y-105855210D01*
X131022796Y-106026862D01*
X131123021Y-106070224D01*
X131109913Y-106073245D01*
X130832796Y-106193138D01*
X130584394Y-106364790D01*
X130374252Y-106581604D01*
X130310000Y-106681095D01*
X130245748Y-106581604D01*
X130035606Y-106364790D01*
X129787204Y-106193138D01*
X129510087Y-106073245D01*
X129404740Y-106048964D01*
X129167000Y-106169622D01*
X129167000Y-108013000D01*
X131453000Y-108013000D01*
X131453000Y-107993000D01*
X131707000Y-107993000D01*
X131707000Y-108013000D01*
X131727000Y-108013000D01*
X131727000Y-108267000D01*
X131707000Y-108267000D01*
X131707000Y-110110378D01*
X131944740Y-110231036D01*
X132050087Y-110206755D01*
X132327204Y-110086862D01*
X132575606Y-109915210D01*
X132785748Y-109698396D01*
X132949554Y-109444751D01*
X132989829Y-109343053D01*
X133049735Y-109455129D01*
X133209815Y-109650186D01*
X133404872Y-109810266D01*
X133627412Y-109929216D01*
X133868881Y-110002465D01*
X134120000Y-110027198D01*
X134371120Y-110002465D01*
X134612589Y-109929216D01*
X134835129Y-109810266D01*
X135030186Y-109650186D01*
X135190266Y-109455129D01*
X135309216Y-109232589D01*
X135382465Y-108991120D01*
X135401000Y-108802930D01*
X135401000Y-107477070D01*
X135382465Y-107288880D01*
X135309216Y-107047411D01*
X135190266Y-106824871D01*
X135030186Y-106629814D01*
X134835128Y-106469734D01*
X134612588Y-106350784D01*
X134371119Y-106277535D01*
X134120000Y-106252802D01*
X133868880Y-106277535D01*
X133627411Y-106350784D01*
X133404871Y-106469734D01*
X133209814Y-106629814D01*
X133049734Y-106824872D01*
X132989829Y-106936947D01*
X132949554Y-106835249D01*
X132785748Y-106581604D01*
X132575606Y-106364790D01*
X132327204Y-106193138D01*
X132226979Y-106149776D01*
X132240087Y-106146755D01*
X132517204Y-106026862D01*
X132765606Y-105855210D01*
X132975748Y-105638396D01*
X133139554Y-105384751D01*
X133179829Y-105283053D01*
X133239735Y-105395129D01*
X133399815Y-105590186D01*
X133594872Y-105750266D01*
X133817412Y-105869216D01*
X134058881Y-105942465D01*
X134310000Y-105967198D01*
X134561120Y-105942465D01*
X134802589Y-105869216D01*
X135025129Y-105750266D01*
X135220186Y-105590186D01*
X135380266Y-105395129D01*
X135499216Y-105172589D01*
X135572465Y-104931120D01*
X135591000Y-104742930D01*
X135591000Y-103417070D01*
X135572465Y-103228880D01*
X135499216Y-102987411D01*
X135380266Y-102764871D01*
X135291000Y-102656101D01*
X135291000Y-101628186D01*
X135295746Y-101580000D01*
X135291000Y-101531813D01*
X135291000Y-100082927D01*
X136569000Y-100082927D01*
X136569000Y-100217073D01*
X136569001Y-100217078D01*
X136569000Y-103282927D01*
X136569000Y-103417073D01*
X136575559Y-103450048D01*
X136578854Y-103483498D01*
X136588612Y-103515665D01*
X136595171Y-103548640D01*
X136608036Y-103579699D01*
X136617794Y-103611867D01*
X136633640Y-103641513D01*
X136646506Y-103672574D01*
X136665185Y-103700529D01*
X136681030Y-103730173D01*
X136702354Y-103756156D01*
X136721033Y-103784112D01*
X136744805Y-103807884D01*
X136766130Y-103833869D01*
X136792117Y-103855196D01*
X136815888Y-103878967D01*
X136843840Y-103897644D01*
X136869826Y-103918970D01*
X136899475Y-103934817D01*
X136927426Y-103953494D01*
X136958483Y-103966358D01*
X136988132Y-103982206D01*
X137020304Y-103991965D01*
X137051360Y-104004829D01*
X137084332Y-104011388D01*
X137116501Y-104021146D01*
X137149953Y-104024441D01*
X137182927Y-104031000D01*
X137216547Y-104031000D01*
X137250000Y-104034295D01*
X137283453Y-104031000D01*
X137317073Y-104031000D01*
X137350048Y-104024441D01*
X137383498Y-104021146D01*
X137415665Y-104011388D01*
X137448640Y-104004829D01*
X137479699Y-103991964D01*
X137511867Y-103982206D01*
X137541513Y-103966360D01*
X137572574Y-103953494D01*
X137600529Y-103934815D01*
X137630173Y-103918970D01*
X137656156Y-103897646D01*
X137684112Y-103878967D01*
X137707884Y-103855195D01*
X137733869Y-103833870D01*
X137755196Y-103807883D01*
X137778967Y-103784112D01*
X137797644Y-103756160D01*
X137818970Y-103730174D01*
X137834817Y-103700525D01*
X137853494Y-103672574D01*
X137866358Y-103641517D01*
X137882206Y-103611868D01*
X137891965Y-103579696D01*
X137904829Y-103548640D01*
X137911388Y-103515668D01*
X137921146Y-103483499D01*
X137924441Y-103450047D01*
X137931000Y-103417073D01*
X137931000Y-100082927D01*
X137924441Y-100049953D01*
X137921146Y-100016501D01*
X137911388Y-99984332D01*
X137904829Y-99951360D01*
X137891965Y-99920304D01*
X137882206Y-99888132D01*
X137866358Y-99858483D01*
X137853494Y-99827426D01*
X137834817Y-99799475D01*
X137818970Y-99769826D01*
X137797643Y-99743838D01*
X137778967Y-99715888D01*
X137755200Y-99692121D01*
X137733870Y-99666130D01*
X137707879Y-99644800D01*
X137684112Y-99621033D01*
X137656162Y-99602357D01*
X137630174Y-99581030D01*
X137600525Y-99565183D01*
X137572574Y-99546506D01*
X137541517Y-99533642D01*
X137511868Y-99517794D01*
X137479696Y-99508035D01*
X137448640Y-99495171D01*
X137415668Y-99488612D01*
X137383499Y-99478854D01*
X137350047Y-99475559D01*
X137317073Y-99469000D01*
X137283453Y-99469000D01*
X137250000Y-99465705D01*
X137216547Y-99469000D01*
X137182927Y-99469000D01*
X137149952Y-99475559D01*
X137116502Y-99478854D01*
X137084335Y-99488612D01*
X137051360Y-99495171D01*
X137020301Y-99508036D01*
X136988133Y-99517794D01*
X136958487Y-99533640D01*
X136927426Y-99546506D01*
X136899471Y-99565185D01*
X136869827Y-99581030D01*
X136843844Y-99602354D01*
X136815888Y-99621033D01*
X136792116Y-99644805D01*
X136766131Y-99666130D01*
X136744806Y-99692115D01*
X136721033Y-99715888D01*
X136702353Y-99743845D01*
X136681031Y-99769826D01*
X136665188Y-99799467D01*
X136646506Y-99827426D01*
X136633639Y-99858491D01*
X136617795Y-99888132D01*
X136608039Y-99920295D01*
X136595171Y-99951360D01*
X136588610Y-99984342D01*
X136578855Y-100016501D01*
X136575561Y-100049943D01*
X136569000Y-100082927D01*
X135291000Y-100082927D01*
X135291000Y-98450000D01*
X143915705Y-98450000D01*
X143919000Y-98483453D01*
X143919000Y-98517073D01*
X143925559Y-98550048D01*
X143928854Y-98583498D01*
X143938611Y-98615663D01*
X143945171Y-98648640D01*
X143958038Y-98679704D01*
X143967795Y-98711868D01*
X143983638Y-98741508D01*
X143996506Y-98772574D01*
X144015190Y-98800536D01*
X144031031Y-98830173D01*
X144052349Y-98856150D01*
X144071033Y-98884112D01*
X144165888Y-98978967D01*
X144165891Y-98978969D01*
X145444804Y-100257884D01*
X145466130Y-100283870D01*
X145569826Y-100368970D01*
X145688132Y-100432206D01*
X145816501Y-100471146D01*
X145916547Y-100481000D01*
X145916548Y-100481000D01*
X145949999Y-100484295D01*
X145983450Y-100481000D01*
X152748561Y-100481000D01*
X152617411Y-100520784D01*
X152394871Y-100639734D01*
X152199814Y-100799814D01*
X152039734Y-100994871D01*
X151920784Y-101217411D01*
X151847535Y-101458880D01*
X151822802Y-101710000D01*
X151838073Y-101865049D01*
X150998012Y-102705110D01*
X150978391Y-102709013D01*
X150836258Y-102767887D01*
X150708341Y-102853358D01*
X150599558Y-102962141D01*
X150514087Y-103090058D01*
X150455213Y-103232191D01*
X150425200Y-103383078D01*
X150425200Y-103536922D01*
X150455213Y-103687809D01*
X150514087Y-103829942D01*
X150599558Y-103957859D01*
X150708341Y-104066642D01*
X150836258Y-104152113D01*
X150978391Y-104210987D01*
X151129278Y-104241000D01*
X151283122Y-104241000D01*
X151434009Y-104210987D01*
X151576142Y-104152113D01*
X151704059Y-104066642D01*
X151708676Y-104062025D01*
X151739622Y-104123000D01*
X153833000Y-104123000D01*
X153833000Y-104103000D01*
X154087000Y-104103000D01*
X154087000Y-104123000D01*
X156180378Y-104123000D01*
X156301036Y-103885260D01*
X156276755Y-103779913D01*
X156156862Y-103502796D01*
X155985210Y-103254394D01*
X155768396Y-103044252D01*
X155514751Y-102880446D01*
X155413054Y-102840171D01*
X155525129Y-102780266D01*
X155720186Y-102620186D01*
X155880266Y-102425129D01*
X155999216Y-102202589D01*
X156072465Y-101961120D01*
X156096079Y-101721354D01*
X158554000Y-101721354D01*
X158554000Y-101885046D01*
X158585935Y-102045594D01*
X158648577Y-102196826D01*
X158739520Y-102332932D01*
X158855268Y-102448680D01*
X158991374Y-102539623D01*
X159142606Y-102602265D01*
X159303154Y-102634200D01*
X159466846Y-102634200D01*
X159627394Y-102602265D01*
X159778626Y-102539623D01*
X159914732Y-102448680D01*
X160030480Y-102332932D01*
X160121423Y-102196826D01*
X160184065Y-102045594D01*
X160216000Y-101885046D01*
X160216000Y-101721354D01*
X160184065Y-101560806D01*
X160121423Y-101409574D01*
X160030480Y-101273468D01*
X159914732Y-101157720D01*
X159778626Y-101066777D01*
X159627394Y-101004135D01*
X159466846Y-100972200D01*
X159303154Y-100972200D01*
X159142606Y-101004135D01*
X158991374Y-101066777D01*
X158855268Y-101157720D01*
X158739520Y-101273468D01*
X158648577Y-101409574D01*
X158585935Y-101560806D01*
X158554000Y-101721354D01*
X156096079Y-101721354D01*
X156097198Y-101710000D01*
X156072465Y-101458880D01*
X155999216Y-101217411D01*
X155880266Y-100994871D01*
X155720186Y-100799814D01*
X155525129Y-100639734D01*
X155302589Y-100520784D01*
X155061120Y-100447535D01*
X154872930Y-100429000D01*
X154767866Y-100429000D01*
X154880174Y-100368970D01*
X154983870Y-100283870D01*
X155005204Y-100257874D01*
X156457889Y-98805191D01*
X156483869Y-98783870D01*
X156505191Y-98757889D01*
X156505194Y-98757886D01*
X156568969Y-98680175D01*
X156568970Y-98680174D01*
X156632206Y-98561868D01*
X156671146Y-98433499D01*
X156681000Y-98333453D01*
X156681000Y-98333452D01*
X156684295Y-98300001D01*
X156681000Y-98266550D01*
X156681000Y-97213214D01*
X156772191Y-97250987D01*
X156923078Y-97281000D01*
X157076922Y-97281000D01*
X157227809Y-97250987D01*
X157369942Y-97192113D01*
X157497859Y-97106642D01*
X157606642Y-96997859D01*
X157692113Y-96869942D01*
X157750987Y-96727809D01*
X157781000Y-96576922D01*
X157781000Y-96423078D01*
X157750987Y-96272191D01*
X157731000Y-96223939D01*
X157731000Y-95382843D01*
X158219000Y-95382843D01*
X158219001Y-97414099D01*
X158215465Y-97450000D01*
X158219001Y-97485901D01*
X158229579Y-97593301D01*
X158234798Y-97610506D01*
X158271377Y-97731094D01*
X158339256Y-97858086D01*
X158407720Y-97941509D01*
X158407723Y-97941512D01*
X158430606Y-97969395D01*
X158458489Y-97992278D01*
X158687900Y-98221689D01*
X158707887Y-98269942D01*
X158793358Y-98397859D01*
X158902141Y-98506642D01*
X159030058Y-98592113D01*
X159172191Y-98650987D01*
X159323078Y-98681000D01*
X159476922Y-98681000D01*
X159627809Y-98650987D01*
X159769942Y-98592113D01*
X159897859Y-98506642D01*
X160006642Y-98397859D01*
X160092113Y-98269942D01*
X160150987Y-98127809D01*
X160181000Y-97976922D01*
X160181000Y-97823078D01*
X160150987Y-97672191D01*
X160092113Y-97530058D01*
X160006642Y-97402141D01*
X159897859Y-97293358D01*
X159769942Y-97207887D01*
X159721689Y-97187900D01*
X159681000Y-97147211D01*
X159681000Y-95950000D01*
X161117157Y-95950000D01*
X161117157Y-97750000D01*
X161124513Y-97824689D01*
X161146299Y-97896508D01*
X161181678Y-97962696D01*
X161229289Y-98020711D01*
X161287304Y-98068322D01*
X161353492Y-98103701D01*
X161425311Y-98125487D01*
X161500000Y-98132843D01*
X165300000Y-98132843D01*
X165374689Y-98125487D01*
X165446508Y-98103701D01*
X165512696Y-98068322D01*
X165570711Y-98020711D01*
X165618322Y-97962696D01*
X165653701Y-97896508D01*
X165675487Y-97824689D01*
X165682843Y-97750000D01*
X165682843Y-95950000D01*
X165675487Y-95875311D01*
X165653701Y-95803492D01*
X165618322Y-95737304D01*
X165570711Y-95679289D01*
X165512696Y-95631678D01*
X165446508Y-95596299D01*
X165374689Y-95574513D01*
X165300000Y-95567157D01*
X161500000Y-95567157D01*
X161425311Y-95574513D01*
X161353492Y-95596299D01*
X161287304Y-95631678D01*
X161229289Y-95679289D01*
X161181678Y-95737304D01*
X161146299Y-95803492D01*
X161124513Y-95875311D01*
X161117157Y-95950000D01*
X159681000Y-95950000D01*
X159681000Y-95382843D01*
X160300000Y-95382843D01*
X160374689Y-95375487D01*
X160446508Y-95353701D01*
X160512696Y-95318322D01*
X160570711Y-95270711D01*
X160618322Y-95212696D01*
X160653701Y-95146508D01*
X160675487Y-95074689D01*
X160682843Y-95000000D01*
X160682843Y-94000000D01*
X160675487Y-93925311D01*
X160653701Y-93853492D01*
X160618322Y-93787304D01*
X160570711Y-93729289D01*
X160512696Y-93681678D01*
X160446508Y-93646299D01*
X160374689Y-93624513D01*
X160300000Y-93617157D01*
X158058030Y-93617157D01*
X158292345Y-93382843D01*
X160300000Y-93382843D01*
X160374689Y-93375487D01*
X160446508Y-93353701D01*
X160512696Y-93318322D01*
X160570711Y-93270711D01*
X160618322Y-93212696D01*
X160653701Y-93146508D01*
X160675487Y-93074689D01*
X160682843Y-93000000D01*
X160682843Y-92000000D01*
X160675487Y-91925311D01*
X160653701Y-91853492D01*
X160618322Y-91787304D01*
X160570711Y-91729289D01*
X160512696Y-91681678D01*
X160446508Y-91646299D01*
X160374689Y-91624513D01*
X160300000Y-91617157D01*
X157600000Y-91617157D01*
X157525311Y-91624513D01*
X157453492Y-91646299D01*
X157387304Y-91681678D01*
X157329289Y-91729289D01*
X157281678Y-91787304D01*
X157246299Y-91853492D01*
X157224513Y-91925311D01*
X157217157Y-92000000D01*
X157217157Y-92390451D01*
X156508489Y-93099120D01*
X156480605Y-93122004D01*
X156457722Y-93149887D01*
X156457720Y-93149889D01*
X156389256Y-93233312D01*
X156369266Y-93270711D01*
X156321377Y-93360304D01*
X156279578Y-93498098D01*
X156269000Y-93605498D01*
X156269000Y-93605507D01*
X156265465Y-93641398D01*
X156269000Y-93677289D01*
X156269000Y-94871606D01*
X156261868Y-94867794D01*
X156229696Y-94858035D01*
X156198640Y-94845171D01*
X156165668Y-94838612D01*
X156133499Y-94828854D01*
X156100047Y-94825559D01*
X156067073Y-94819000D01*
X156033453Y-94819000D01*
X156000000Y-94815705D01*
X155966547Y-94819000D01*
X155932927Y-94819000D01*
X155899952Y-94825559D01*
X155866502Y-94828854D01*
X155834335Y-94838612D01*
X155801360Y-94845171D01*
X155770301Y-94858036D01*
X155738133Y-94867794D01*
X155708487Y-94883640D01*
X155677426Y-94896506D01*
X155649471Y-94915185D01*
X155619827Y-94931030D01*
X155593844Y-94952354D01*
X155565888Y-94971033D01*
X155542116Y-94994805D01*
X155516131Y-95016130D01*
X155494806Y-95042115D01*
X155471033Y-95065888D01*
X155452353Y-95093845D01*
X155431031Y-95119826D01*
X155415188Y-95149467D01*
X155396506Y-95177426D01*
X155383639Y-95208491D01*
X155367795Y-95238132D01*
X155358039Y-95270295D01*
X155345171Y-95301360D01*
X155338610Y-95334342D01*
X155328855Y-95366501D01*
X155325561Y-95399943D01*
X155319000Y-95432927D01*
X155319000Y-95567073D01*
X155319001Y-95567078D01*
X155319000Y-98017920D01*
X155020739Y-98316181D01*
X155041423Y-98285226D01*
X155104065Y-98133994D01*
X155136000Y-97973446D01*
X155136000Y-97809754D01*
X155104065Y-97649206D01*
X155041423Y-97497974D01*
X155036000Y-97489858D01*
X155036000Y-89250000D01*
X161117157Y-89250000D01*
X161117157Y-91050000D01*
X161124513Y-91124689D01*
X161146299Y-91196508D01*
X161181678Y-91262696D01*
X161229289Y-91320711D01*
X161287304Y-91368322D01*
X161353492Y-91403701D01*
X161425311Y-91425487D01*
X161500000Y-91432843D01*
X165300000Y-91432843D01*
X165374689Y-91425487D01*
X165446508Y-91403701D01*
X165512696Y-91368322D01*
X165570711Y-91320711D01*
X165618322Y-91262696D01*
X165653701Y-91196508D01*
X165675487Y-91124689D01*
X165682843Y-91050000D01*
X165682843Y-89250000D01*
X165675487Y-89175311D01*
X165653701Y-89103492D01*
X165618322Y-89037304D01*
X165570711Y-88979289D01*
X165512696Y-88931678D01*
X165446508Y-88896299D01*
X165374689Y-88874513D01*
X165300000Y-88867157D01*
X161500000Y-88867157D01*
X161425311Y-88874513D01*
X161353492Y-88896299D01*
X161287304Y-88931678D01*
X161229289Y-88979289D01*
X161181678Y-89037304D01*
X161146299Y-89103492D01*
X161124513Y-89175311D01*
X161117157Y-89250000D01*
X155036000Y-89250000D01*
X155036000Y-87997789D01*
X156583789Y-86450000D01*
X161117157Y-86450000D01*
X161117157Y-88250000D01*
X161124513Y-88324689D01*
X161146299Y-88396508D01*
X161181678Y-88462696D01*
X161229289Y-88520711D01*
X161287304Y-88568322D01*
X161353492Y-88603701D01*
X161425311Y-88625487D01*
X161500000Y-88632843D01*
X165300000Y-88632843D01*
X165374689Y-88625487D01*
X165446508Y-88603701D01*
X165512696Y-88568322D01*
X165570711Y-88520711D01*
X165618322Y-88462696D01*
X165653701Y-88396508D01*
X165675487Y-88324689D01*
X165682843Y-88250000D01*
X165682843Y-86450000D01*
X165675487Y-86375311D01*
X165653701Y-86303492D01*
X165618322Y-86237304D01*
X165570711Y-86179289D01*
X165512696Y-86131678D01*
X165446508Y-86096299D01*
X165374689Y-86074513D01*
X165300000Y-86067157D01*
X161500000Y-86067157D01*
X161425311Y-86074513D01*
X161353492Y-86096299D01*
X161287304Y-86131678D01*
X161229289Y-86179289D01*
X161181678Y-86237304D01*
X161146299Y-86303492D01*
X161124513Y-86375311D01*
X161117157Y-86450000D01*
X156583789Y-86450000D01*
X157299445Y-85734345D01*
X157329289Y-85770711D01*
X157387304Y-85818322D01*
X157453492Y-85853701D01*
X157525311Y-85875487D01*
X157600000Y-85882843D01*
X160300000Y-85882843D01*
X160374689Y-85875487D01*
X160446508Y-85853701D01*
X160512696Y-85818322D01*
X160570711Y-85770711D01*
X160618322Y-85712696D01*
X160653701Y-85646508D01*
X160675487Y-85574689D01*
X160682843Y-85500000D01*
X160682843Y-84500000D01*
X160675487Y-84425311D01*
X160653701Y-84353492D01*
X160618322Y-84287304D01*
X160570711Y-84229289D01*
X160512696Y-84181678D01*
X160446508Y-84146299D01*
X160374689Y-84124513D01*
X160300000Y-84117157D01*
X157600000Y-84117157D01*
X157525311Y-84124513D01*
X157453492Y-84146299D01*
X157387304Y-84181678D01*
X157329289Y-84229289D01*
X157296699Y-84269000D01*
X157035891Y-84269000D01*
X157000000Y-84265465D01*
X156964109Y-84269000D01*
X156964099Y-84269000D01*
X156856699Y-84279578D01*
X156718905Y-84321377D01*
X156591914Y-84389256D01*
X156508491Y-84457719D01*
X156508488Y-84457722D01*
X156480605Y-84480605D01*
X156457722Y-84508488D01*
X153813489Y-87152722D01*
X153785606Y-87175605D01*
X153762723Y-87203488D01*
X153762720Y-87203491D01*
X153694256Y-87286914D01*
X153626377Y-87413906D01*
X153615011Y-87451377D01*
X153585095Y-87550000D01*
X153584579Y-87551700D01*
X153570465Y-87695000D01*
X153574001Y-87730901D01*
X153574000Y-97489858D01*
X153568577Y-97497974D01*
X153505935Y-97649206D01*
X153474000Y-97809754D01*
X153474000Y-97973446D01*
X153505935Y-98133994D01*
X153568577Y-98285226D01*
X153659520Y-98421332D01*
X153775268Y-98537080D01*
X153911374Y-98628023D01*
X154062606Y-98690665D01*
X154223154Y-98722600D01*
X154386846Y-98722600D01*
X154547394Y-98690665D01*
X154698626Y-98628023D01*
X154729582Y-98607339D01*
X154217922Y-99119000D01*
X146232080Y-99119000D01*
X145128969Y-98015891D01*
X145128967Y-98015888D01*
X145034112Y-97921033D01*
X145006150Y-97902349D01*
X144980173Y-97881031D01*
X144950536Y-97865190D01*
X144922574Y-97846506D01*
X144891508Y-97833638D01*
X144861868Y-97817795D01*
X144829704Y-97808038D01*
X144798640Y-97795171D01*
X144765663Y-97788611D01*
X144733498Y-97778854D01*
X144700048Y-97775559D01*
X144667073Y-97769000D01*
X144633453Y-97769000D01*
X144600000Y-97765705D01*
X144566547Y-97769000D01*
X144532927Y-97769000D01*
X144499952Y-97775559D01*
X144466502Y-97778854D01*
X144434337Y-97788611D01*
X144401360Y-97795171D01*
X144370296Y-97808038D01*
X144338132Y-97817795D01*
X144308492Y-97833638D01*
X144277426Y-97846506D01*
X144249464Y-97865190D01*
X144219827Y-97881031D01*
X144193850Y-97902349D01*
X144165888Y-97921033D01*
X144142111Y-97944810D01*
X144116131Y-97966131D01*
X144094810Y-97992111D01*
X144071033Y-98015888D01*
X144052349Y-98043850D01*
X144031031Y-98069827D01*
X144015190Y-98099464D01*
X143996506Y-98127426D01*
X143983638Y-98158492D01*
X143967795Y-98188132D01*
X143958038Y-98220296D01*
X143945171Y-98251360D01*
X143938611Y-98284337D01*
X143928854Y-98316502D01*
X143925559Y-98349952D01*
X143919000Y-98382927D01*
X143919000Y-98416547D01*
X143915705Y-98450000D01*
X135291000Y-98450000D01*
X135291000Y-97496343D01*
X135506344Y-97281000D01*
X148014457Y-97281000D01*
X148244000Y-97510544D01*
X148244000Y-97863587D01*
X148258195Y-98007710D01*
X148314290Y-98192629D01*
X148405383Y-98363051D01*
X148527973Y-98512428D01*
X148677350Y-98635018D01*
X148847772Y-98726111D01*
X149032691Y-98782205D01*
X149225000Y-98801146D01*
X149417310Y-98782205D01*
X149602229Y-98726111D01*
X149772651Y-98635018D01*
X149922028Y-98512428D01*
X150044618Y-98363051D01*
X150135711Y-98192629D01*
X150191805Y-98007709D01*
X150206000Y-97863586D01*
X150206000Y-97809754D01*
X150934000Y-97809754D01*
X150934000Y-97973446D01*
X150965935Y-98133994D01*
X151028577Y-98285226D01*
X151119520Y-98421332D01*
X151235268Y-98537080D01*
X151371374Y-98628023D01*
X151522606Y-98690665D01*
X151683154Y-98722600D01*
X151846846Y-98722600D01*
X152007394Y-98690665D01*
X152158626Y-98628023D01*
X152294732Y-98537080D01*
X152410480Y-98421332D01*
X152501423Y-98285226D01*
X152564065Y-98133994D01*
X152596000Y-97973446D01*
X152596000Y-97809754D01*
X152564065Y-97649206D01*
X152501423Y-97497974D01*
X152501000Y-97497341D01*
X152501000Y-88432789D01*
X157202790Y-83731000D01*
X157296699Y-83731000D01*
X157329289Y-83770711D01*
X157387304Y-83818322D01*
X157453492Y-83853701D01*
X157525311Y-83875487D01*
X157600000Y-83882843D01*
X160300000Y-83882843D01*
X160374689Y-83875487D01*
X160446508Y-83853701D01*
X160512696Y-83818322D01*
X160570711Y-83770711D01*
X160618322Y-83712696D01*
X160653701Y-83646508D01*
X160675487Y-83574689D01*
X160682843Y-83500000D01*
X160682843Y-82500000D01*
X160675487Y-82425311D01*
X160653701Y-82353492D01*
X160618322Y-82287304D01*
X160570711Y-82229289D01*
X160512696Y-82181678D01*
X160446508Y-82146299D01*
X160374689Y-82124513D01*
X160300000Y-82117157D01*
X157600000Y-82117157D01*
X157525311Y-82124513D01*
X157453492Y-82146299D01*
X157387304Y-82181678D01*
X157329289Y-82229289D01*
X157296699Y-82269000D01*
X156935891Y-82269000D01*
X156900000Y-82265465D01*
X156864109Y-82269000D01*
X156864099Y-82269000D01*
X156756699Y-82279578D01*
X156618905Y-82321377D01*
X156491914Y-82389256D01*
X156408491Y-82457719D01*
X156408488Y-82457722D01*
X156380605Y-82480605D01*
X156357722Y-82508488D01*
X151278489Y-87587722D01*
X151250606Y-87610605D01*
X151227723Y-87638488D01*
X151227720Y-87638491D01*
X151159256Y-87721914D01*
X151091377Y-87848906D01*
X151074756Y-87903701D01*
X151054808Y-87969463D01*
X151049579Y-87986700D01*
X151035465Y-88130000D01*
X151039001Y-88165901D01*
X151039000Y-97482375D01*
X151028577Y-97497974D01*
X150965935Y-97649206D01*
X150934000Y-97809754D01*
X150206000Y-97809754D01*
X150206000Y-97152387D01*
X150210746Y-97104200D01*
X150191805Y-96911890D01*
X150135711Y-96726971D01*
X150044618Y-96556549D01*
X149952745Y-96444601D01*
X149922028Y-96407172D01*
X149884598Y-96376454D01*
X149148550Y-95640406D01*
X149117828Y-95602972D01*
X148968451Y-95480382D01*
X148798029Y-95389289D01*
X148613110Y-95333195D01*
X148468987Y-95319000D01*
X148468986Y-95319000D01*
X148420800Y-95314254D01*
X148372614Y-95319000D01*
X135148186Y-95319000D01*
X135100000Y-95314254D01*
X135051813Y-95319000D01*
X134907690Y-95333195D01*
X134722771Y-95389289D01*
X134552349Y-95480382D01*
X134402972Y-95602972D01*
X134372254Y-95640402D01*
X133650402Y-96362255D01*
X133612973Y-96392972D01*
X133582256Y-96430401D01*
X133582255Y-96430402D01*
X133490382Y-96542350D01*
X133399289Y-96712772D01*
X133343195Y-96897691D01*
X133324254Y-97090000D01*
X133329001Y-97138196D01*
X133329000Y-99524005D01*
X133278187Y-99519000D01*
X133278186Y-99519000D01*
X133230000Y-99514254D01*
X133181814Y-99519000D01*
X128618552Y-99519000D01*
X128701185Y-99451185D01*
X128780537Y-99354494D01*
X128839502Y-99244180D01*
X128875812Y-99124482D01*
X128888072Y-99000000D01*
X128885000Y-98785750D01*
X128726250Y-98627000D01*
X127027000Y-98627000D01*
X127027000Y-98647000D01*
X126773000Y-98647000D01*
X126773000Y-98627000D01*
X125073750Y-98627000D01*
X124915000Y-98785750D01*
X124911928Y-99000000D01*
X117891001Y-99000000D01*
X117891001Y-98000000D01*
X124911928Y-98000000D01*
X124915000Y-98214250D01*
X125073750Y-98373000D01*
X126773000Y-98373000D01*
X126773000Y-97523750D01*
X127027000Y-97523750D01*
X127027000Y-98373000D01*
X128726250Y-98373000D01*
X128885000Y-98214250D01*
X128888072Y-98000000D01*
X128875812Y-97875518D01*
X128839502Y-97755820D01*
X128780537Y-97645506D01*
X128701185Y-97548815D01*
X128604494Y-97469463D01*
X128494180Y-97410498D01*
X128374482Y-97374188D01*
X128250000Y-97361928D01*
X127185750Y-97365000D01*
X127027000Y-97523750D01*
X126773000Y-97523750D01*
X126614250Y-97365000D01*
X125550000Y-97361928D01*
X125425518Y-97374188D01*
X125305820Y-97410498D01*
X125195506Y-97469463D01*
X125098815Y-97548815D01*
X125019463Y-97645506D01*
X124960498Y-97755820D01*
X124924188Y-97875518D01*
X124911928Y-98000000D01*
X117891001Y-98000000D01*
X117891001Y-95250000D01*
X120167157Y-95250000D01*
X120167157Y-97050000D01*
X120174513Y-97124689D01*
X120196299Y-97196508D01*
X120231678Y-97262696D01*
X120279289Y-97320711D01*
X120337304Y-97368322D01*
X120403492Y-97403701D01*
X120475311Y-97425487D01*
X120550000Y-97432843D01*
X124350000Y-97432843D01*
X124424689Y-97425487D01*
X124496508Y-97403701D01*
X124562696Y-97368322D01*
X124620711Y-97320711D01*
X124668322Y-97262696D01*
X124703701Y-97196508D01*
X124725487Y-97124689D01*
X124732843Y-97050000D01*
X124732843Y-95250000D01*
X124725487Y-95175311D01*
X124703701Y-95103492D01*
X124668322Y-95037304D01*
X124620711Y-94979289D01*
X124562696Y-94931678D01*
X124496508Y-94896299D01*
X124424689Y-94874513D01*
X124350000Y-94867157D01*
X120550000Y-94867157D01*
X120475311Y-94874513D01*
X120403492Y-94896299D01*
X120337304Y-94931678D01*
X120279289Y-94979289D01*
X120231678Y-95037304D01*
X120196299Y-95103492D01*
X120174513Y-95175311D01*
X120167157Y-95250000D01*
X117891001Y-95250000D01*
X117891001Y-92450000D01*
X120167157Y-92450000D01*
X120167157Y-94250000D01*
X120174513Y-94324689D01*
X120196299Y-94396508D01*
X120231678Y-94462696D01*
X120279289Y-94520711D01*
X120337304Y-94568322D01*
X120403492Y-94603701D01*
X120475311Y-94625487D01*
X120550000Y-94632843D01*
X124350000Y-94632843D01*
X124424689Y-94625487D01*
X124496508Y-94603701D01*
X124562696Y-94568322D01*
X124620711Y-94520711D01*
X124668322Y-94462696D01*
X124703701Y-94396508D01*
X124725487Y-94324689D01*
X124732843Y-94250000D01*
X124732843Y-92450000D01*
X124725487Y-92375311D01*
X124703701Y-92303492D01*
X124668322Y-92237304D01*
X124620711Y-92179289D01*
X124562696Y-92131678D01*
X124496508Y-92096299D01*
X124424689Y-92074513D01*
X124350000Y-92067157D01*
X120550000Y-92067157D01*
X120475311Y-92074513D01*
X120403492Y-92096299D01*
X120337304Y-92131678D01*
X120279289Y-92179289D01*
X120231678Y-92237304D01*
X120196299Y-92303492D01*
X120174513Y-92375311D01*
X120167157Y-92450000D01*
X117891001Y-92450000D01*
X117891001Y-88500000D01*
X124911928Y-88500000D01*
X124915000Y-88714250D01*
X125073750Y-88873000D01*
X126773000Y-88873000D01*
X126773000Y-88023750D01*
X126614250Y-87865000D01*
X125550000Y-87861928D01*
X125425518Y-87874188D01*
X125305820Y-87910498D01*
X125195506Y-87969463D01*
X125098815Y-88048815D01*
X125019463Y-88145506D01*
X124960498Y-88255820D01*
X124924188Y-88375518D01*
X124911928Y-88500000D01*
X117891001Y-88500000D01*
X117891001Y-85750000D01*
X120167157Y-85750000D01*
X120167157Y-87550000D01*
X120174513Y-87624689D01*
X120196299Y-87696508D01*
X120231678Y-87762696D01*
X120279289Y-87820711D01*
X120337304Y-87868322D01*
X120403492Y-87903701D01*
X120475311Y-87925487D01*
X120550000Y-87932843D01*
X124350000Y-87932843D01*
X124424689Y-87925487D01*
X124496508Y-87903701D01*
X124562696Y-87868322D01*
X124620711Y-87820711D01*
X124668322Y-87762696D01*
X124703701Y-87696508D01*
X124725487Y-87624689D01*
X124732843Y-87550000D01*
X124732843Y-85750000D01*
X124725487Y-85675311D01*
X124703701Y-85603492D01*
X124668322Y-85537304D01*
X124620711Y-85479289D01*
X124562696Y-85431678D01*
X124496508Y-85396299D01*
X124424689Y-85374513D01*
X124350000Y-85367157D01*
X120550000Y-85367157D01*
X120475311Y-85374513D01*
X120403492Y-85396299D01*
X120337304Y-85431678D01*
X120279289Y-85479289D01*
X120231678Y-85537304D01*
X120196299Y-85603492D01*
X120174513Y-85675311D01*
X120167157Y-85750000D01*
X117891001Y-85750000D01*
X117891001Y-76021080D01*
X117908818Y-75839360D01*
X118369000Y-75839360D01*
X118369000Y-76160640D01*
X118431678Y-76475745D01*
X118554626Y-76772568D01*
X118733119Y-77039702D01*
X118960298Y-77266881D01*
X119227432Y-77445374D01*
X119524255Y-77568322D01*
X119839360Y-77631000D01*
X120160640Y-77631000D01*
X120475745Y-77568322D01*
X120772568Y-77445374D01*
X121039702Y-77266881D01*
X121266881Y-77039702D01*
X121445374Y-76772568D01*
X121568322Y-76475745D01*
X121631000Y-76160640D01*
X121631000Y-75839360D01*
X121568322Y-75524255D01*
X121445374Y-75227432D01*
X121266881Y-74960298D01*
X121039702Y-74733119D01*
X120772568Y-74554626D01*
X120475745Y-74431678D01*
X120160640Y-74369000D01*
X119839360Y-74369000D01*
X119524255Y-74431678D01*
X119227432Y-74554626D01*
X118960298Y-74733119D01*
X118733119Y-74960298D01*
X118554626Y-75227432D01*
X118431678Y-75524255D01*
X118369000Y-75839360D01*
X117908818Y-75839360D01*
X117933194Y-75590763D01*
X118052044Y-75197112D01*
X118245090Y-74834042D01*
X118504980Y-74515385D01*
X118821820Y-74253272D01*
X119183528Y-74057697D01*
X119576343Y-73936101D01*
X120005446Y-73891000D01*
X123879702Y-73891000D01*
X123846299Y-73953492D01*
G37*
G04 #@! TD.AperFunction*
M02*
