M48
; DRILL file {KiCad (5.1.9)-1} date 04/18/21 01:49:45
; FORMAT={-:-/ absolute / metric / decimal}
; #@! TF.CreationDate,2021-04-18T01:49:45-07:00
; #@! TF.GenerationSoftware,Kicad,Pcbnew,(5.1.9)-1
; #@! TF.FileFunction,Plated,1,2,PTH
FMAT,2
METRIC
T1C0.500
T2C0.600
T3C0.900
T4C1.000
T5C1.020
T6C2.000
T7C2.180
T8C2.700
%
G90
G05
T1
X149.046Y-115.57
X149.08Y-113.03
X150.64Y-113.03
X150.674Y-115.57
T2
X134.62Y-82.042
X134.62Y-90.17
X135.815Y-87.047
X137.065Y-86.709
X138.315Y-86.245
X142.19Y-87.326
X143.44Y-86.43
X147.955Y-116.205
X149.86Y-109.22
X157.48Y-105.41
X168.148Y-94.742
X168.402Y-96.012
X168.656Y-97.282
X168.91Y-98.552
T3
X131.89Y-120.65
X133.89Y-120.65
X135.89Y-120.65
X163.64Y-120.65
X165.64Y-120.65
X167.64Y-120.65
T4
X154.305Y-104.775
X155.575Y-100.965
X170.18Y-105.41
X173.355Y-88.265
X173.355Y-104.775
T5
X131.445Y-109.22
X131.445Y-113.03
X133.985Y-109.22
X133.985Y-113.03
X136.525Y-109.22
X136.525Y-113.03
X139.065Y-109.22
X139.065Y-113.03
X141.605Y-113.03
X158.75Y-112.39
X158.75Y-114.93
X158.75Y-117.47
X158.75Y-120.01
X158.75Y-122.55
T6
X127.0Y-81.28
X127.0Y-127.0
X172.72Y-81.28
X172.72Y-127.0
T7
X127.915Y-112.19
X141.415Y-96.19
X159.63Y-108.88
X173.06Y-122.31
T8
X146.96Y-125.49
X152.11Y-125.49
T0
M30
