%FSLAX45Y45*%
G04 Gerber Fmt 4.5, Leading zero omitted, Abs format (unit mm)*
G04 Created by KiCad (PCBNEW (5.1.9)-1) date 2021-04-18 01:50:58*
%MOMM*%
%LPD*%
G01*
G04 APERTURE LIST*
%TA.AperFunction,Profile*%
%ADD10C,0.050000*%
%TD*%
%ADD11C,0.200000*%
%ADD12C,0.300000*%
G04 APERTURE END LIST*
D10*
X12446000Y-8128000D02*
G75*
G02*
X12700000Y-7874000I254000J0D01*
G01*
X17272000Y-7874000D02*
G75*
G02*
X17526000Y-8128000I0J-254000D01*
G01*
X12446000Y-12700000D02*
X12446000Y-8128000D01*
X12700000Y-12954000D02*
G75*
G02*
X12446000Y-12700000I0J254000D01*
G01*
X17272000Y-12954000D02*
X12700000Y-12954000D01*
X17526000Y-12700000D02*
G75*
G02*
X17272000Y-12954000I-254000J0D01*
G01*
X17526000Y-8128000D02*
X17526000Y-12700000D01*
X12700000Y-7874000D02*
X17272000Y-7874000D01*
D11*
X14879600Y-11532000D02*
X14929600Y-11582000D01*
X14929600Y-11532000D02*
X14879600Y-11582000D01*
X14883000Y-11278000D02*
X14933000Y-11328000D01*
X14933000Y-11278000D02*
X14883000Y-11328000D01*
X15039000Y-11278000D02*
X15089000Y-11328000D01*
X15089000Y-11278000D02*
X15039000Y-11328000D01*
X15042400Y-11532000D02*
X15092400Y-11582000D01*
X15092400Y-11532000D02*
X15042400Y-11582000D01*
X13492000Y-8204200D02*
G75*
G03*
X13492000Y-8204200I-30000J0D01*
G01*
X13492000Y-9017000D02*
G75*
G03*
X13492000Y-9017000I-30000J0D01*
G01*
X13611500Y-8704700D02*
G75*
G03*
X13611500Y-8704700I-30000J0D01*
G01*
X13736500Y-8670900D02*
G75*
G03*
X13736500Y-8670900I-30000J0D01*
G01*
X13861500Y-8624500D02*
G75*
G03*
X13861500Y-8624500I-30000J0D01*
G01*
X14249000Y-8732600D02*
G75*
G03*
X14249000Y-8732600I-30000J0D01*
G01*
X14374000Y-8643000D02*
G75*
G03*
X14374000Y-8643000I-30000J0D01*
G01*
X14825500Y-11620500D02*
G75*
G03*
X14825500Y-11620500I-30000J0D01*
G01*
X15016000Y-10922000D02*
G75*
G03*
X15016000Y-10922000I-30000J0D01*
G01*
X15778000Y-10541000D02*
G75*
G03*
X15778000Y-10541000I-30000J0D01*
G01*
X16844800Y-9474200D02*
G75*
G03*
X16844800Y-9474200I-30000J0D01*
G01*
X16870200Y-9601200D02*
G75*
G03*
X16870200Y-9601200I-30000J0D01*
G01*
X16895600Y-9728200D02*
G75*
G03*
X16895600Y-9728200I-30000J0D01*
G01*
X16921001Y-9855200D02*
G75*
G03*
X16921001Y-9855200I-30000J0D01*
G01*
X13189000Y-12020000D02*
X13189000Y-12110000D01*
X13144000Y-12065000D02*
X13234000Y-12065000D01*
X13389000Y-12020000D02*
X13389000Y-12110000D01*
X13344000Y-12065000D02*
X13434000Y-12065000D01*
X13589000Y-12020000D02*
X13589000Y-12110000D01*
X13544000Y-12065000D02*
X13634000Y-12065000D01*
X16364000Y-12020000D02*
X16364000Y-12110000D01*
X16319000Y-12065000D02*
X16409000Y-12065000D01*
X16564000Y-12020000D02*
X16564000Y-12110000D01*
X16519000Y-12065000D02*
X16609000Y-12065000D01*
X16764000Y-12020000D02*
X16764000Y-12110000D01*
X16719000Y-12065000D02*
X16809000Y-12065000D01*
X15465856Y-10512856D02*
X15465856Y-10442144D01*
X15395144Y-10442144D01*
X15395144Y-10512856D01*
X15465856Y-10512856D01*
X15592856Y-10131856D02*
X15592856Y-10061144D01*
X15522144Y-10061144D01*
X15522144Y-10131856D01*
X15592856Y-10131856D01*
X17053356Y-10576356D02*
X17053356Y-10505644D01*
X16982644Y-10505644D01*
X16982644Y-10576356D01*
X17053356Y-10576356D01*
X17370856Y-8861856D02*
X17370856Y-8791144D01*
X17300144Y-8791144D01*
X17300144Y-8861856D01*
X17370856Y-8861856D01*
X17370856Y-10512856D02*
X17370856Y-10442144D01*
X17300144Y-10442144D01*
X17300144Y-10512856D01*
X17370856Y-10512856D01*
X13144500Y-10973000D02*
X13195500Y-10922000D01*
X13144500Y-10871000D01*
X13093500Y-10922000D01*
X13144500Y-10973000D01*
X13144500Y-11354000D02*
X13195500Y-11303000D01*
X13144500Y-11252000D01*
X13093500Y-11303000D01*
X13144500Y-11354000D01*
X13398500Y-10973000D02*
X13449500Y-10922000D01*
X13398500Y-10871000D01*
X13347500Y-10922000D01*
X13398500Y-10973000D01*
X13398500Y-11354000D02*
X13449500Y-11303000D01*
X13398500Y-11252000D01*
X13347500Y-11303000D01*
X13398500Y-11354000D01*
X13652500Y-10973000D02*
X13703500Y-10922000D01*
X13652500Y-10871000D01*
X13601500Y-10922000D01*
X13652500Y-10973000D01*
X13652500Y-11354000D02*
X13703500Y-11303000D01*
X13652500Y-11252000D01*
X13601500Y-11303000D01*
X13652500Y-11354000D01*
X13906500Y-10973000D02*
X13957500Y-10922000D01*
X13906500Y-10871000D01*
X13855500Y-10922000D01*
X13906500Y-10973000D01*
X13906500Y-11354000D02*
X13957500Y-11303000D01*
X13906500Y-11252000D01*
X13855500Y-11303000D01*
X13906500Y-11354000D01*
X14160500Y-11354000D02*
X14211500Y-11303000D01*
X14160500Y-11252000D01*
X14109500Y-11303000D01*
X14160500Y-11354000D01*
X15875000Y-11290000D02*
X15926000Y-11239000D01*
X15875000Y-11188000D01*
X15824000Y-11239000D01*
X15875000Y-11290000D01*
X15875000Y-11544000D02*
X15926000Y-11493000D01*
X15875000Y-11442000D01*
X15824000Y-11493000D01*
X15875000Y-11544000D01*
X15875000Y-11798000D02*
X15926000Y-11747000D01*
X15875000Y-11696000D01*
X15824000Y-11747000D01*
X15875000Y-11798000D01*
X15875000Y-12052000D02*
X15926000Y-12001000D01*
X15875000Y-11950000D01*
X15824000Y-12001000D01*
X15875000Y-12052000D01*
X15875000Y-12306000D02*
X15926000Y-12255000D01*
X15875000Y-12204000D01*
X15824000Y-12255000D01*
X15875000Y-12306000D01*
X12600000Y-8028000D02*
X12800000Y-8228000D01*
X12800000Y-8028000D02*
X12600000Y-8228000D01*
X12800000Y-8128000D02*
G75*
G03*
X12800000Y-8128000I-100000J0D01*
G01*
X12600000Y-12600000D02*
X12800000Y-12800000D01*
X12800000Y-12600000D02*
X12600000Y-12800000D01*
X12800000Y-12700000D02*
G75*
G03*
X12800000Y-12700000I-100000J0D01*
G01*
X17172000Y-8028000D02*
X17372000Y-8228000D01*
X17372000Y-8028000D02*
X17172000Y-8228000D01*
X17372000Y-8128000D02*
G75*
G03*
X17372000Y-8128000I-100000J0D01*
G01*
X17172000Y-12600000D02*
X17372000Y-12800000D01*
X17372000Y-12600000D02*
X17172000Y-12800000D01*
X17372000Y-12700000D02*
G75*
G03*
X17372000Y-12700000I-100000J0D01*
G01*
X12682500Y-11110000D02*
X12900500Y-11328000D01*
X12900500Y-11110000D02*
X12682500Y-11328000D01*
X12791500Y-11110000D02*
X12791500Y-11328000D01*
X12682500Y-11219000D02*
X12900500Y-11219000D01*
X14032500Y-9510000D02*
X14250500Y-9728000D01*
X14250500Y-9510000D02*
X14032500Y-9728000D01*
X14141500Y-9510000D02*
X14141500Y-9728000D01*
X14032500Y-9619000D02*
X14250500Y-9619000D01*
X15854000Y-10779000D02*
X16072000Y-10997000D01*
X16072000Y-10779000D02*
X15854000Y-10997000D01*
X15963000Y-10779000D02*
X15963000Y-10997000D01*
X15854000Y-10888000D02*
X16072000Y-10888000D01*
X17197000Y-12122000D02*
X17415000Y-12340000D01*
X17415000Y-12122000D02*
X17197000Y-12340000D01*
X17306000Y-12122000D02*
X17306000Y-12340000D01*
X17197000Y-12231000D02*
X17415000Y-12231000D01*
X14561000Y-12414000D02*
X14831000Y-12684000D01*
X14831000Y-12414000D02*
X14561000Y-12684000D01*
X14791460Y-12644460D02*
X14791460Y-12453540D01*
X14600540Y-12453540D01*
X14600540Y-12644460D01*
X14791460Y-12644460D01*
X15076000Y-12414000D02*
X15346000Y-12684000D01*
X15346000Y-12414000D02*
X15076000Y-12684000D01*
X15306460Y-12644460D02*
X15306460Y-12453540D01*
X15115540Y-12453540D01*
X15115540Y-12644460D01*
X15306460Y-12644460D01*
D12*
X12729928Y-13422214D02*
X12729928Y-13122214D01*
X12801357Y-13122214D01*
X12844214Y-13136500D01*
X12872786Y-13165071D01*
X12887071Y-13193643D01*
X12901357Y-13250786D01*
X12901357Y-13293643D01*
X12887071Y-13350786D01*
X12872786Y-13379357D01*
X12844214Y-13407928D01*
X12801357Y-13422214D01*
X12729928Y-13422214D01*
X13029928Y-13422214D02*
X13029928Y-13222214D01*
X13029928Y-13279357D02*
X13044214Y-13250786D01*
X13058500Y-13236500D01*
X13087071Y-13222214D01*
X13115643Y-13222214D01*
X13215643Y-13422214D02*
X13215643Y-13222214D01*
X13215643Y-13122214D02*
X13201357Y-13136500D01*
X13215643Y-13150786D01*
X13229928Y-13136500D01*
X13215643Y-13122214D01*
X13215643Y-13150786D01*
X13401357Y-13422214D02*
X13372786Y-13407928D01*
X13358500Y-13379357D01*
X13358500Y-13122214D01*
X13558500Y-13422214D02*
X13529928Y-13407928D01*
X13515643Y-13379357D01*
X13515643Y-13122214D01*
X13901357Y-13422214D02*
X13901357Y-13122214D01*
X14001357Y-13336500D01*
X14101357Y-13122214D01*
X14101357Y-13422214D01*
X14372786Y-13422214D02*
X14372786Y-13265071D01*
X14358500Y-13236500D01*
X14329928Y-13222214D01*
X14272786Y-13222214D01*
X14244214Y-13236500D01*
X14372786Y-13407928D02*
X14344214Y-13422214D01*
X14272786Y-13422214D01*
X14244214Y-13407928D01*
X14229928Y-13379357D01*
X14229928Y-13350786D01*
X14244214Y-13322214D01*
X14272786Y-13307928D01*
X14344214Y-13307928D01*
X14372786Y-13293643D01*
X14515643Y-13222214D02*
X14515643Y-13522214D01*
X14515643Y-13236500D02*
X14544214Y-13222214D01*
X14601357Y-13222214D01*
X14629928Y-13236500D01*
X14644214Y-13250786D01*
X14658500Y-13279357D01*
X14658500Y-13365071D01*
X14644214Y-13393643D01*
X14629928Y-13407928D01*
X14601357Y-13422214D01*
X14544214Y-13422214D01*
X14515643Y-13407928D01*
X14787071Y-13393643D02*
X14801357Y-13407928D01*
X14787071Y-13422214D01*
X14772786Y-13407928D01*
X14787071Y-13393643D01*
X14787071Y-13422214D01*
X14787071Y-13236500D02*
X14801357Y-13250786D01*
X14787071Y-13265071D01*
X14772786Y-13250786D01*
X14787071Y-13236500D01*
X14787071Y-13265071D01*
X12393500Y-13891500D02*
X12443500Y-13941500D01*
X12443500Y-13891500D02*
X12393500Y-13941500D01*
X12787071Y-13752214D02*
X12815643Y-13752214D01*
X12844214Y-13766500D01*
X12858500Y-13780786D01*
X12872786Y-13809357D01*
X12887071Y-13866500D01*
X12887071Y-13937928D01*
X12872786Y-13995071D01*
X12858500Y-14023643D01*
X12844214Y-14037928D01*
X12815643Y-14052214D01*
X12787071Y-14052214D01*
X12758500Y-14037928D01*
X12744214Y-14023643D01*
X12729928Y-13995071D01*
X12715643Y-13937928D01*
X12715643Y-13866500D01*
X12729928Y-13809357D01*
X12744214Y-13780786D01*
X12758500Y-13766500D01*
X12787071Y-13752214D01*
X13015643Y-14023643D02*
X13029928Y-14037928D01*
X13015643Y-14052214D01*
X13001357Y-14037928D01*
X13015643Y-14023643D01*
X13015643Y-14052214D01*
X13301357Y-13752214D02*
X13158500Y-13752214D01*
X13144214Y-13895071D01*
X13158500Y-13880786D01*
X13187071Y-13866500D01*
X13258500Y-13866500D01*
X13287071Y-13880786D01*
X13301357Y-13895071D01*
X13315643Y-13923643D01*
X13315643Y-13995071D01*
X13301357Y-14023643D01*
X13287071Y-14037928D01*
X13258500Y-14052214D01*
X13187071Y-14052214D01*
X13158500Y-14037928D01*
X13144214Y-14023643D01*
X13501357Y-13752214D02*
X13529928Y-13752214D01*
X13558500Y-13766500D01*
X13572786Y-13780786D01*
X13587071Y-13809357D01*
X13601357Y-13866500D01*
X13601357Y-13937928D01*
X13587071Y-13995071D01*
X13572786Y-14023643D01*
X13558500Y-14037928D01*
X13529928Y-14052214D01*
X13501357Y-14052214D01*
X13472786Y-14037928D01*
X13458500Y-14023643D01*
X13444214Y-13995071D01*
X13429928Y-13937928D01*
X13429928Y-13866500D01*
X13444214Y-13809357D01*
X13458500Y-13780786D01*
X13472786Y-13766500D01*
X13501357Y-13752214D01*
X13729928Y-14052214D02*
X13729928Y-13852214D01*
X13729928Y-13880786D02*
X13744214Y-13866500D01*
X13772786Y-13852214D01*
X13815643Y-13852214D01*
X13844214Y-13866500D01*
X13858500Y-13895071D01*
X13858500Y-14052214D01*
X13858500Y-13895071D02*
X13872786Y-13866500D01*
X13901357Y-13852214D01*
X13944214Y-13852214D01*
X13972786Y-13866500D01*
X13987071Y-13895071D01*
X13987071Y-14052214D01*
X14129928Y-14052214D02*
X14129928Y-13852214D01*
X14129928Y-13880786D02*
X14144214Y-13866500D01*
X14172786Y-13852214D01*
X14215643Y-13852214D01*
X14244214Y-13866500D01*
X14258500Y-13895071D01*
X14258500Y-14052214D01*
X14258500Y-13895071D02*
X14272786Y-13866500D01*
X14301357Y-13852214D01*
X14344214Y-13852214D01*
X14372786Y-13866500D01*
X14387071Y-13895071D01*
X14387071Y-14052214D01*
X14972786Y-13737928D02*
X14715643Y-14123643D01*
X15358500Y-13752214D02*
X15387071Y-13752214D01*
X15415643Y-13766500D01*
X15429928Y-13780786D01*
X15444214Y-13809357D01*
X15458500Y-13866500D01*
X15458500Y-13937928D01*
X15444214Y-13995071D01*
X15429928Y-14023643D01*
X15415643Y-14037928D01*
X15387071Y-14052214D01*
X15358500Y-14052214D01*
X15329928Y-14037928D01*
X15315643Y-14023643D01*
X15301357Y-13995071D01*
X15287071Y-13937928D01*
X15287071Y-13866500D01*
X15301357Y-13809357D01*
X15315643Y-13780786D01*
X15329928Y-13766500D01*
X15358500Y-13752214D01*
X15587071Y-14023643D02*
X15601357Y-14037928D01*
X15587071Y-14052214D01*
X15572786Y-14037928D01*
X15587071Y-14023643D01*
X15587071Y-14052214D01*
X15787071Y-13752214D02*
X15815643Y-13752214D01*
X15844214Y-13766500D01*
X15858500Y-13780786D01*
X15872786Y-13809357D01*
X15887071Y-13866500D01*
X15887071Y-13937928D01*
X15872786Y-13995071D01*
X15858500Y-14023643D01*
X15844214Y-14037928D01*
X15815643Y-14052214D01*
X15787071Y-14052214D01*
X15758500Y-14037928D01*
X15744214Y-14023643D01*
X15729928Y-13995071D01*
X15715643Y-13937928D01*
X15715643Y-13866500D01*
X15729928Y-13809357D01*
X15744214Y-13780786D01*
X15758500Y-13766500D01*
X15787071Y-13752214D01*
X16001357Y-13780786D02*
X16015643Y-13766500D01*
X16044214Y-13752214D01*
X16115643Y-13752214D01*
X16144214Y-13766500D01*
X16158500Y-13780786D01*
X16172786Y-13809357D01*
X16172786Y-13837928D01*
X16158500Y-13880786D01*
X15987071Y-14052214D01*
X16172786Y-14052214D01*
X16358500Y-13752214D02*
X16387071Y-13752214D01*
X16415643Y-13766500D01*
X16429928Y-13780786D01*
X16444214Y-13809357D01*
X16458500Y-13866500D01*
X16458500Y-13937928D01*
X16444214Y-13995071D01*
X16429928Y-14023643D01*
X16415643Y-14037928D01*
X16387071Y-14052214D01*
X16358500Y-14052214D01*
X16329928Y-14037928D01*
X16315643Y-14023643D01*
X16301357Y-13995071D01*
X16287071Y-13937928D01*
X16287071Y-13866500D01*
X16301357Y-13809357D01*
X16315643Y-13780786D01*
X16329928Y-13766500D01*
X16358500Y-13752214D01*
X16572786Y-13752214D02*
X16572786Y-13809357D01*
X16687071Y-13752214D02*
X16687071Y-13809357D01*
X17129928Y-14166500D02*
X17115643Y-14152214D01*
X17087071Y-14109357D01*
X17072786Y-14080786D01*
X17058500Y-14037928D01*
X17044214Y-13966500D01*
X17044214Y-13909357D01*
X17058500Y-13837928D01*
X17072786Y-13795071D01*
X17087071Y-13766500D01*
X17115643Y-13723643D01*
X17129928Y-13709357D01*
X17372786Y-13852214D02*
X17372786Y-14052214D01*
X17301357Y-13737928D02*
X17229928Y-13952214D01*
X17415643Y-13952214D01*
X17758500Y-14052214D02*
X17758500Y-13752214D01*
X17887071Y-14052214D02*
X17887071Y-13895071D01*
X17872786Y-13866500D01*
X17844214Y-13852214D01*
X17801357Y-13852214D01*
X17772786Y-13866500D01*
X17758500Y-13880786D01*
X18072786Y-14052214D02*
X18044214Y-14037928D01*
X18029928Y-14023643D01*
X18015643Y-13995071D01*
X18015643Y-13909357D01*
X18029928Y-13880786D01*
X18044214Y-13866500D01*
X18072786Y-13852214D01*
X18115643Y-13852214D01*
X18144214Y-13866500D01*
X18158500Y-13880786D01*
X18172786Y-13909357D01*
X18172786Y-13995071D01*
X18158500Y-14023643D01*
X18144214Y-14037928D01*
X18115643Y-14052214D01*
X18072786Y-14052214D01*
X18344214Y-14052214D02*
X18315643Y-14037928D01*
X18301357Y-14009357D01*
X18301357Y-13752214D01*
X18572786Y-14037928D02*
X18544214Y-14052214D01*
X18487071Y-14052214D01*
X18458500Y-14037928D01*
X18444214Y-14009357D01*
X18444214Y-13895071D01*
X18458500Y-13866500D01*
X18487071Y-13852214D01*
X18544214Y-13852214D01*
X18572786Y-13866500D01*
X18587071Y-13895071D01*
X18587071Y-13923643D01*
X18444214Y-13952214D01*
X18701357Y-14037928D02*
X18729928Y-14052214D01*
X18787071Y-14052214D01*
X18815643Y-14037928D01*
X18829928Y-14009357D01*
X18829928Y-13995071D01*
X18815643Y-13966500D01*
X18787071Y-13952214D01*
X18744214Y-13952214D01*
X18715643Y-13937928D01*
X18701357Y-13909357D01*
X18701357Y-13895071D01*
X18715643Y-13866500D01*
X18744214Y-13852214D01*
X18787071Y-13852214D01*
X18815643Y-13866500D01*
X18929928Y-14166500D02*
X18944214Y-14152214D01*
X18972786Y-14109357D01*
X18987071Y-14080786D01*
X19001357Y-14037928D01*
X19015643Y-13966500D01*
X19015643Y-13909357D01*
X19001357Y-13837928D01*
X18987071Y-13795071D01*
X18972786Y-13766500D01*
X18944214Y-13723643D01*
X18929928Y-13709357D01*
X12443500Y-14312500D02*
G75*
G03*
X12443500Y-14312500I-30000J0D01*
G01*
X12787071Y-14148214D02*
X12815643Y-14148214D01*
X12844214Y-14162500D01*
X12858500Y-14176786D01*
X12872786Y-14205357D01*
X12887071Y-14262500D01*
X12887071Y-14333928D01*
X12872786Y-14391071D01*
X12858500Y-14419643D01*
X12844214Y-14433928D01*
X12815643Y-14448214D01*
X12787071Y-14448214D01*
X12758500Y-14433928D01*
X12744214Y-14419643D01*
X12729928Y-14391071D01*
X12715643Y-14333928D01*
X12715643Y-14262500D01*
X12729928Y-14205357D01*
X12744214Y-14176786D01*
X12758500Y-14162500D01*
X12787071Y-14148214D01*
X13015643Y-14419643D02*
X13029928Y-14433928D01*
X13015643Y-14448214D01*
X13001357Y-14433928D01*
X13015643Y-14419643D01*
X13015643Y-14448214D01*
X13287071Y-14148214D02*
X13229928Y-14148214D01*
X13201357Y-14162500D01*
X13187071Y-14176786D01*
X13158500Y-14219643D01*
X13144214Y-14276786D01*
X13144214Y-14391071D01*
X13158500Y-14419643D01*
X13172786Y-14433928D01*
X13201357Y-14448214D01*
X13258500Y-14448214D01*
X13287071Y-14433928D01*
X13301357Y-14419643D01*
X13315643Y-14391071D01*
X13315643Y-14319643D01*
X13301357Y-14291071D01*
X13287071Y-14276786D01*
X13258500Y-14262500D01*
X13201357Y-14262500D01*
X13172786Y-14276786D01*
X13158500Y-14291071D01*
X13144214Y-14319643D01*
X13501357Y-14148214D02*
X13529928Y-14148214D01*
X13558500Y-14162500D01*
X13572786Y-14176786D01*
X13587071Y-14205357D01*
X13601357Y-14262500D01*
X13601357Y-14333928D01*
X13587071Y-14391071D01*
X13572786Y-14419643D01*
X13558500Y-14433928D01*
X13529928Y-14448214D01*
X13501357Y-14448214D01*
X13472786Y-14433928D01*
X13458500Y-14419643D01*
X13444214Y-14391071D01*
X13429928Y-14333928D01*
X13429928Y-14262500D01*
X13444214Y-14205357D01*
X13458500Y-14176786D01*
X13472786Y-14162500D01*
X13501357Y-14148214D01*
X13729928Y-14448214D02*
X13729928Y-14248214D01*
X13729928Y-14276786D02*
X13744214Y-14262500D01*
X13772786Y-14248214D01*
X13815643Y-14248214D01*
X13844214Y-14262500D01*
X13858500Y-14291071D01*
X13858500Y-14448214D01*
X13858500Y-14291071D02*
X13872786Y-14262500D01*
X13901357Y-14248214D01*
X13944214Y-14248214D01*
X13972786Y-14262500D01*
X13987071Y-14291071D01*
X13987071Y-14448214D01*
X14129928Y-14448214D02*
X14129928Y-14248214D01*
X14129928Y-14276786D02*
X14144214Y-14262500D01*
X14172786Y-14248214D01*
X14215643Y-14248214D01*
X14244214Y-14262500D01*
X14258500Y-14291071D01*
X14258500Y-14448214D01*
X14258500Y-14291071D02*
X14272786Y-14262500D01*
X14301357Y-14248214D01*
X14344214Y-14248214D01*
X14372786Y-14262500D01*
X14387071Y-14291071D01*
X14387071Y-14448214D01*
X14972786Y-14133928D02*
X14715643Y-14519643D01*
X15358500Y-14148214D02*
X15387071Y-14148214D01*
X15415643Y-14162500D01*
X15429928Y-14176786D01*
X15444214Y-14205357D01*
X15458500Y-14262500D01*
X15458500Y-14333928D01*
X15444214Y-14391071D01*
X15429928Y-14419643D01*
X15415643Y-14433928D01*
X15387071Y-14448214D01*
X15358500Y-14448214D01*
X15329928Y-14433928D01*
X15315643Y-14419643D01*
X15301357Y-14391071D01*
X15287071Y-14333928D01*
X15287071Y-14262500D01*
X15301357Y-14205357D01*
X15315643Y-14176786D01*
X15329928Y-14162500D01*
X15358500Y-14148214D01*
X15587071Y-14419643D02*
X15601357Y-14433928D01*
X15587071Y-14448214D01*
X15572786Y-14433928D01*
X15587071Y-14419643D01*
X15587071Y-14448214D01*
X15787071Y-14148214D02*
X15815643Y-14148214D01*
X15844214Y-14162500D01*
X15858500Y-14176786D01*
X15872786Y-14205357D01*
X15887071Y-14262500D01*
X15887071Y-14333928D01*
X15872786Y-14391071D01*
X15858500Y-14419643D01*
X15844214Y-14433928D01*
X15815643Y-14448214D01*
X15787071Y-14448214D01*
X15758500Y-14433928D01*
X15744214Y-14419643D01*
X15729928Y-14391071D01*
X15715643Y-14333928D01*
X15715643Y-14262500D01*
X15729928Y-14205357D01*
X15744214Y-14176786D01*
X15758500Y-14162500D01*
X15787071Y-14148214D01*
X16001357Y-14176786D02*
X16015643Y-14162500D01*
X16044214Y-14148214D01*
X16115643Y-14148214D01*
X16144214Y-14162500D01*
X16158500Y-14176786D01*
X16172786Y-14205357D01*
X16172786Y-14233928D01*
X16158500Y-14276786D01*
X15987071Y-14448214D01*
X16172786Y-14448214D01*
X16429928Y-14248214D02*
X16429928Y-14448214D01*
X16358500Y-14133928D02*
X16287071Y-14348214D01*
X16472786Y-14348214D01*
X16572786Y-14148214D02*
X16572786Y-14205357D01*
X16687071Y-14148214D02*
X16687071Y-14205357D01*
X17129928Y-14562500D02*
X17115643Y-14548214D01*
X17087071Y-14505357D01*
X17072786Y-14476786D01*
X17058500Y-14433928D01*
X17044214Y-14362500D01*
X17044214Y-14305357D01*
X17058500Y-14233928D01*
X17072786Y-14191071D01*
X17087071Y-14162500D01*
X17115643Y-14119643D01*
X17129928Y-14105357D01*
X17401357Y-14448214D02*
X17229928Y-14448214D01*
X17315643Y-14448214D02*
X17315643Y-14148214D01*
X17287071Y-14191071D01*
X17258500Y-14219643D01*
X17229928Y-14233928D01*
X17658500Y-14248214D02*
X17658500Y-14448214D01*
X17587071Y-14133928D02*
X17515643Y-14348214D01*
X17701357Y-14348214D01*
X18044214Y-14448214D02*
X18044214Y-14148214D01*
X18172786Y-14448214D02*
X18172786Y-14291071D01*
X18158500Y-14262500D01*
X18129928Y-14248214D01*
X18087071Y-14248214D01*
X18058500Y-14262500D01*
X18044214Y-14276786D01*
X18358500Y-14448214D02*
X18329928Y-14433928D01*
X18315643Y-14419643D01*
X18301357Y-14391071D01*
X18301357Y-14305357D01*
X18315643Y-14276786D01*
X18329928Y-14262500D01*
X18358500Y-14248214D01*
X18401357Y-14248214D01*
X18429928Y-14262500D01*
X18444214Y-14276786D01*
X18458500Y-14305357D01*
X18458500Y-14391071D01*
X18444214Y-14419643D01*
X18429928Y-14433928D01*
X18401357Y-14448214D01*
X18358500Y-14448214D01*
X18629928Y-14448214D02*
X18601357Y-14433928D01*
X18587071Y-14405357D01*
X18587071Y-14148214D01*
X18858500Y-14433928D02*
X18829928Y-14448214D01*
X18772786Y-14448214D01*
X18744214Y-14433928D01*
X18729928Y-14405357D01*
X18729928Y-14291071D01*
X18744214Y-14262500D01*
X18772786Y-14248214D01*
X18829928Y-14248214D01*
X18858500Y-14262500D01*
X18872786Y-14291071D01*
X18872786Y-14319643D01*
X18729928Y-14348214D01*
X18987071Y-14433928D02*
X19015643Y-14448214D01*
X19072786Y-14448214D01*
X19101357Y-14433928D01*
X19115643Y-14405357D01*
X19115643Y-14391071D01*
X19101357Y-14362500D01*
X19072786Y-14348214D01*
X19029928Y-14348214D01*
X19001357Y-14333928D01*
X18987071Y-14305357D01*
X18987071Y-14291071D01*
X19001357Y-14262500D01*
X19029928Y-14248214D01*
X19072786Y-14248214D01*
X19101357Y-14262500D01*
X19215643Y-14562500D02*
X19229928Y-14548214D01*
X19258500Y-14505357D01*
X19272786Y-14476786D01*
X19287071Y-14433928D01*
X19301357Y-14362500D01*
X19301357Y-14305357D01*
X19287071Y-14233928D01*
X19272786Y-14191071D01*
X19258500Y-14162500D01*
X19229928Y-14119643D01*
X19215643Y-14105357D01*
X12398500Y-14663500D02*
X12398500Y-14753500D01*
X12353500Y-14708500D02*
X12443500Y-14708500D01*
X12787071Y-14544214D02*
X12815643Y-14544214D01*
X12844214Y-14558500D01*
X12858500Y-14572786D01*
X12872786Y-14601357D01*
X12887071Y-14658500D01*
X12887071Y-14729928D01*
X12872786Y-14787071D01*
X12858500Y-14815643D01*
X12844214Y-14829928D01*
X12815643Y-14844214D01*
X12787071Y-14844214D01*
X12758500Y-14829928D01*
X12744214Y-14815643D01*
X12729928Y-14787071D01*
X12715643Y-14729928D01*
X12715643Y-14658500D01*
X12729928Y-14601357D01*
X12744214Y-14572786D01*
X12758500Y-14558500D01*
X12787071Y-14544214D01*
X13015643Y-14815643D02*
X13029928Y-14829928D01*
X13015643Y-14844214D01*
X13001357Y-14829928D01*
X13015643Y-14815643D01*
X13015643Y-14844214D01*
X13172786Y-14844214D02*
X13229928Y-14844214D01*
X13258500Y-14829928D01*
X13272786Y-14815643D01*
X13301357Y-14772786D01*
X13315643Y-14715643D01*
X13315643Y-14601357D01*
X13301357Y-14572786D01*
X13287071Y-14558500D01*
X13258500Y-14544214D01*
X13201357Y-14544214D01*
X13172786Y-14558500D01*
X13158500Y-14572786D01*
X13144214Y-14601357D01*
X13144214Y-14672786D01*
X13158500Y-14701357D01*
X13172786Y-14715643D01*
X13201357Y-14729928D01*
X13258500Y-14729928D01*
X13287071Y-14715643D01*
X13301357Y-14701357D01*
X13315643Y-14672786D01*
X13501357Y-14544214D02*
X13529928Y-14544214D01*
X13558500Y-14558500D01*
X13572786Y-14572786D01*
X13587071Y-14601357D01*
X13601357Y-14658500D01*
X13601357Y-14729928D01*
X13587071Y-14787071D01*
X13572786Y-14815643D01*
X13558500Y-14829928D01*
X13529928Y-14844214D01*
X13501357Y-14844214D01*
X13472786Y-14829928D01*
X13458500Y-14815643D01*
X13444214Y-14787071D01*
X13429928Y-14729928D01*
X13429928Y-14658500D01*
X13444214Y-14601357D01*
X13458500Y-14572786D01*
X13472786Y-14558500D01*
X13501357Y-14544214D01*
X13729928Y-14844214D02*
X13729928Y-14644214D01*
X13729928Y-14672786D02*
X13744214Y-14658500D01*
X13772786Y-14644214D01*
X13815643Y-14644214D01*
X13844214Y-14658500D01*
X13858500Y-14687071D01*
X13858500Y-14844214D01*
X13858500Y-14687071D02*
X13872786Y-14658500D01*
X13901357Y-14644214D01*
X13944214Y-14644214D01*
X13972786Y-14658500D01*
X13987071Y-14687071D01*
X13987071Y-14844214D01*
X14129928Y-14844214D02*
X14129928Y-14644214D01*
X14129928Y-14672786D02*
X14144214Y-14658500D01*
X14172786Y-14644214D01*
X14215643Y-14644214D01*
X14244214Y-14658500D01*
X14258500Y-14687071D01*
X14258500Y-14844214D01*
X14258500Y-14687071D02*
X14272786Y-14658500D01*
X14301357Y-14644214D01*
X14344214Y-14644214D01*
X14372786Y-14658500D01*
X14387071Y-14687071D01*
X14387071Y-14844214D01*
X14972786Y-14529928D02*
X14715643Y-14915643D01*
X15358500Y-14544214D02*
X15387071Y-14544214D01*
X15415643Y-14558500D01*
X15429928Y-14572786D01*
X15444214Y-14601357D01*
X15458500Y-14658500D01*
X15458500Y-14729928D01*
X15444214Y-14787071D01*
X15429928Y-14815643D01*
X15415643Y-14829928D01*
X15387071Y-14844214D01*
X15358500Y-14844214D01*
X15329928Y-14829928D01*
X15315643Y-14815643D01*
X15301357Y-14787071D01*
X15287071Y-14729928D01*
X15287071Y-14658500D01*
X15301357Y-14601357D01*
X15315643Y-14572786D01*
X15329928Y-14558500D01*
X15358500Y-14544214D01*
X15587071Y-14815643D02*
X15601357Y-14829928D01*
X15587071Y-14844214D01*
X15572786Y-14829928D01*
X15587071Y-14815643D01*
X15587071Y-14844214D01*
X15787071Y-14544214D02*
X15815643Y-14544214D01*
X15844214Y-14558500D01*
X15858500Y-14572786D01*
X15872786Y-14601357D01*
X15887071Y-14658500D01*
X15887071Y-14729928D01*
X15872786Y-14787071D01*
X15858500Y-14815643D01*
X15844214Y-14829928D01*
X15815643Y-14844214D01*
X15787071Y-14844214D01*
X15758500Y-14829928D01*
X15744214Y-14815643D01*
X15729928Y-14787071D01*
X15715643Y-14729928D01*
X15715643Y-14658500D01*
X15729928Y-14601357D01*
X15744214Y-14572786D01*
X15758500Y-14558500D01*
X15787071Y-14544214D01*
X15987071Y-14544214D02*
X16172786Y-14544214D01*
X16072786Y-14658500D01*
X16115643Y-14658500D01*
X16144214Y-14672786D01*
X16158500Y-14687071D01*
X16172786Y-14715643D01*
X16172786Y-14787071D01*
X16158500Y-14815643D01*
X16144214Y-14829928D01*
X16115643Y-14844214D01*
X16029928Y-14844214D01*
X16001357Y-14829928D01*
X15987071Y-14815643D01*
X16444214Y-14544214D02*
X16301357Y-14544214D01*
X16287071Y-14687071D01*
X16301357Y-14672786D01*
X16329928Y-14658500D01*
X16401357Y-14658500D01*
X16429928Y-14672786D01*
X16444214Y-14687071D01*
X16458500Y-14715643D01*
X16458500Y-14787071D01*
X16444214Y-14815643D01*
X16429928Y-14829928D01*
X16401357Y-14844214D01*
X16329928Y-14844214D01*
X16301357Y-14829928D01*
X16287071Y-14815643D01*
X16572786Y-14544214D02*
X16572786Y-14601357D01*
X16687071Y-14544214D02*
X16687071Y-14601357D01*
X17129928Y-14958500D02*
X17115643Y-14944214D01*
X17087071Y-14901357D01*
X17072786Y-14872786D01*
X17058500Y-14829928D01*
X17044214Y-14758500D01*
X17044214Y-14701357D01*
X17058500Y-14629928D01*
X17072786Y-14587071D01*
X17087071Y-14558500D01*
X17115643Y-14515643D01*
X17129928Y-14501357D01*
X17372786Y-14544214D02*
X17315643Y-14544214D01*
X17287071Y-14558500D01*
X17272786Y-14572786D01*
X17244214Y-14615643D01*
X17229928Y-14672786D01*
X17229928Y-14787071D01*
X17244214Y-14815643D01*
X17258500Y-14829928D01*
X17287071Y-14844214D01*
X17344214Y-14844214D01*
X17372786Y-14829928D01*
X17387071Y-14815643D01*
X17401357Y-14787071D01*
X17401357Y-14715643D01*
X17387071Y-14687071D01*
X17372786Y-14672786D01*
X17344214Y-14658500D01*
X17287071Y-14658500D01*
X17258500Y-14672786D01*
X17244214Y-14687071D01*
X17229928Y-14715643D01*
X17758500Y-14844214D02*
X17758500Y-14544214D01*
X17887071Y-14844214D02*
X17887071Y-14687071D01*
X17872786Y-14658500D01*
X17844214Y-14644214D01*
X17801357Y-14644214D01*
X17772786Y-14658500D01*
X17758500Y-14672786D01*
X18072786Y-14844214D02*
X18044214Y-14829928D01*
X18029928Y-14815643D01*
X18015643Y-14787071D01*
X18015643Y-14701357D01*
X18029928Y-14672786D01*
X18044214Y-14658500D01*
X18072786Y-14644214D01*
X18115643Y-14644214D01*
X18144214Y-14658500D01*
X18158500Y-14672786D01*
X18172786Y-14701357D01*
X18172786Y-14787071D01*
X18158500Y-14815643D01*
X18144214Y-14829928D01*
X18115643Y-14844214D01*
X18072786Y-14844214D01*
X18344214Y-14844214D02*
X18315643Y-14829928D01*
X18301357Y-14801357D01*
X18301357Y-14544214D01*
X18572786Y-14829928D02*
X18544214Y-14844214D01*
X18487071Y-14844214D01*
X18458500Y-14829928D01*
X18444214Y-14801357D01*
X18444214Y-14687071D01*
X18458500Y-14658500D01*
X18487071Y-14644214D01*
X18544214Y-14644214D01*
X18572786Y-14658500D01*
X18587071Y-14687071D01*
X18587071Y-14715643D01*
X18444214Y-14744214D01*
X18701357Y-14829928D02*
X18729928Y-14844214D01*
X18787071Y-14844214D01*
X18815643Y-14829928D01*
X18829928Y-14801357D01*
X18829928Y-14787071D01*
X18815643Y-14758500D01*
X18787071Y-14744214D01*
X18744214Y-14744214D01*
X18715643Y-14729928D01*
X18701357Y-14701357D01*
X18701357Y-14687071D01*
X18715643Y-14658500D01*
X18744214Y-14644214D01*
X18787071Y-14644214D01*
X18815643Y-14658500D01*
X18929928Y-14958500D02*
X18944214Y-14944214D01*
X18972786Y-14901357D01*
X18987071Y-14872786D01*
X19001357Y-14829928D01*
X19015643Y-14758500D01*
X19015643Y-14701357D01*
X19001357Y-14629928D01*
X18987071Y-14587071D01*
X18972786Y-14558500D01*
X18944214Y-14515643D01*
X18929928Y-14501357D01*
X12428856Y-15139856D02*
X12428856Y-15069144D01*
X12358144Y-15069144D01*
X12358144Y-15139856D01*
X12428856Y-15139856D01*
X12887071Y-15240214D02*
X12715643Y-15240214D01*
X12801357Y-15240214D02*
X12801357Y-14940214D01*
X12772786Y-14983071D01*
X12744214Y-15011643D01*
X12715643Y-15025928D01*
X13015643Y-15211643D02*
X13029928Y-15225928D01*
X13015643Y-15240214D01*
X13001357Y-15225928D01*
X13015643Y-15211643D01*
X13015643Y-15240214D01*
X13215643Y-14940214D02*
X13244214Y-14940214D01*
X13272786Y-14954500D01*
X13287071Y-14968786D01*
X13301357Y-14997357D01*
X13315643Y-15054500D01*
X13315643Y-15125928D01*
X13301357Y-15183071D01*
X13287071Y-15211643D01*
X13272786Y-15225928D01*
X13244214Y-15240214D01*
X13215643Y-15240214D01*
X13187071Y-15225928D01*
X13172786Y-15211643D01*
X13158500Y-15183071D01*
X13144214Y-15125928D01*
X13144214Y-15054500D01*
X13158500Y-14997357D01*
X13172786Y-14968786D01*
X13187071Y-14954500D01*
X13215643Y-14940214D01*
X13501357Y-14940214D02*
X13529928Y-14940214D01*
X13558500Y-14954500D01*
X13572786Y-14968786D01*
X13587071Y-14997357D01*
X13601357Y-15054500D01*
X13601357Y-15125928D01*
X13587071Y-15183071D01*
X13572786Y-15211643D01*
X13558500Y-15225928D01*
X13529928Y-15240214D01*
X13501357Y-15240214D01*
X13472786Y-15225928D01*
X13458500Y-15211643D01*
X13444214Y-15183071D01*
X13429928Y-15125928D01*
X13429928Y-15054500D01*
X13444214Y-14997357D01*
X13458500Y-14968786D01*
X13472786Y-14954500D01*
X13501357Y-14940214D01*
X13729928Y-15240214D02*
X13729928Y-15040214D01*
X13729928Y-15068786D02*
X13744214Y-15054500D01*
X13772786Y-15040214D01*
X13815643Y-15040214D01*
X13844214Y-15054500D01*
X13858500Y-15083071D01*
X13858500Y-15240214D01*
X13858500Y-15083071D02*
X13872786Y-15054500D01*
X13901357Y-15040214D01*
X13944214Y-15040214D01*
X13972786Y-15054500D01*
X13987071Y-15083071D01*
X13987071Y-15240214D01*
X14129928Y-15240214D02*
X14129928Y-15040214D01*
X14129928Y-15068786D02*
X14144214Y-15054500D01*
X14172786Y-15040214D01*
X14215643Y-15040214D01*
X14244214Y-15054500D01*
X14258500Y-15083071D01*
X14258500Y-15240214D01*
X14258500Y-15083071D02*
X14272786Y-15054500D01*
X14301357Y-15040214D01*
X14344214Y-15040214D01*
X14372786Y-15054500D01*
X14387071Y-15083071D01*
X14387071Y-15240214D01*
X14972786Y-14925928D02*
X14715643Y-15311643D01*
X15358500Y-14940214D02*
X15387071Y-14940214D01*
X15415643Y-14954500D01*
X15429928Y-14968786D01*
X15444214Y-14997357D01*
X15458500Y-15054500D01*
X15458500Y-15125928D01*
X15444214Y-15183071D01*
X15429928Y-15211643D01*
X15415643Y-15225928D01*
X15387071Y-15240214D01*
X15358500Y-15240214D01*
X15329928Y-15225928D01*
X15315643Y-15211643D01*
X15301357Y-15183071D01*
X15287071Y-15125928D01*
X15287071Y-15054500D01*
X15301357Y-14997357D01*
X15315643Y-14968786D01*
X15329928Y-14954500D01*
X15358500Y-14940214D01*
X15587071Y-15211643D02*
X15601357Y-15225928D01*
X15587071Y-15240214D01*
X15572786Y-15225928D01*
X15587071Y-15211643D01*
X15587071Y-15240214D01*
X15787071Y-14940214D02*
X15815643Y-14940214D01*
X15844214Y-14954500D01*
X15858500Y-14968786D01*
X15872786Y-14997357D01*
X15887071Y-15054500D01*
X15887071Y-15125928D01*
X15872786Y-15183071D01*
X15858500Y-15211643D01*
X15844214Y-15225928D01*
X15815643Y-15240214D01*
X15787071Y-15240214D01*
X15758500Y-15225928D01*
X15744214Y-15211643D01*
X15729928Y-15183071D01*
X15715643Y-15125928D01*
X15715643Y-15054500D01*
X15729928Y-14997357D01*
X15744214Y-14968786D01*
X15758500Y-14954500D01*
X15787071Y-14940214D01*
X15987071Y-14940214D02*
X16172786Y-14940214D01*
X16072786Y-15054500D01*
X16115643Y-15054500D01*
X16144214Y-15068786D01*
X16158500Y-15083071D01*
X16172786Y-15111643D01*
X16172786Y-15183071D01*
X16158500Y-15211643D01*
X16144214Y-15225928D01*
X16115643Y-15240214D01*
X16029928Y-15240214D01*
X16001357Y-15225928D01*
X15987071Y-15211643D01*
X16315643Y-15240214D02*
X16372786Y-15240214D01*
X16401357Y-15225928D01*
X16415643Y-15211643D01*
X16444214Y-15168786D01*
X16458500Y-15111643D01*
X16458500Y-14997357D01*
X16444214Y-14968786D01*
X16429928Y-14954500D01*
X16401357Y-14940214D01*
X16344214Y-14940214D01*
X16315643Y-14954500D01*
X16301357Y-14968786D01*
X16287071Y-14997357D01*
X16287071Y-15068786D01*
X16301357Y-15097357D01*
X16315643Y-15111643D01*
X16344214Y-15125928D01*
X16401357Y-15125928D01*
X16429928Y-15111643D01*
X16444214Y-15097357D01*
X16458500Y-15068786D01*
X16572786Y-14940214D02*
X16572786Y-14997357D01*
X16687071Y-14940214D02*
X16687071Y-14997357D01*
X17129928Y-15354500D02*
X17115643Y-15340214D01*
X17087071Y-15297357D01*
X17072786Y-15268786D01*
X17058500Y-15225928D01*
X17044214Y-15154500D01*
X17044214Y-15097357D01*
X17058500Y-15025928D01*
X17072786Y-14983071D01*
X17087071Y-14954500D01*
X17115643Y-14911643D01*
X17129928Y-14897357D01*
X17387071Y-14940214D02*
X17244214Y-14940214D01*
X17229928Y-15083071D01*
X17244214Y-15068786D01*
X17272786Y-15054500D01*
X17344214Y-15054500D01*
X17372786Y-15068786D01*
X17387071Y-15083071D01*
X17401357Y-15111643D01*
X17401357Y-15183071D01*
X17387071Y-15211643D01*
X17372786Y-15225928D01*
X17344214Y-15240214D01*
X17272786Y-15240214D01*
X17244214Y-15225928D01*
X17229928Y-15211643D01*
X17758500Y-15240214D02*
X17758500Y-14940214D01*
X17887071Y-15240214D02*
X17887071Y-15083071D01*
X17872786Y-15054500D01*
X17844214Y-15040214D01*
X17801357Y-15040214D01*
X17772786Y-15054500D01*
X17758500Y-15068786D01*
X18072786Y-15240214D02*
X18044214Y-15225928D01*
X18029928Y-15211643D01*
X18015643Y-15183071D01*
X18015643Y-15097357D01*
X18029928Y-15068786D01*
X18044214Y-15054500D01*
X18072786Y-15040214D01*
X18115643Y-15040214D01*
X18144214Y-15054500D01*
X18158500Y-15068786D01*
X18172786Y-15097357D01*
X18172786Y-15183071D01*
X18158500Y-15211643D01*
X18144214Y-15225928D01*
X18115643Y-15240214D01*
X18072786Y-15240214D01*
X18344214Y-15240214D02*
X18315643Y-15225928D01*
X18301357Y-15197357D01*
X18301357Y-14940214D01*
X18572786Y-15225928D02*
X18544214Y-15240214D01*
X18487071Y-15240214D01*
X18458500Y-15225928D01*
X18444214Y-15197357D01*
X18444214Y-15083071D01*
X18458500Y-15054500D01*
X18487071Y-15040214D01*
X18544214Y-15040214D01*
X18572786Y-15054500D01*
X18587071Y-15083071D01*
X18587071Y-15111643D01*
X18444214Y-15140214D01*
X18701357Y-15225928D02*
X18729928Y-15240214D01*
X18787071Y-15240214D01*
X18815643Y-15225928D01*
X18829928Y-15197357D01*
X18829928Y-15183071D01*
X18815643Y-15154500D01*
X18787071Y-15140214D01*
X18744214Y-15140214D01*
X18715643Y-15125928D01*
X18701357Y-15097357D01*
X18701357Y-15083071D01*
X18715643Y-15054500D01*
X18744214Y-15040214D01*
X18787071Y-15040214D01*
X18815643Y-15054500D01*
X18929928Y-15354500D02*
X18944214Y-15340214D01*
X18972786Y-15297357D01*
X18987071Y-15268786D01*
X19001357Y-15225928D01*
X19015643Y-15154500D01*
X19015643Y-15097357D01*
X19001357Y-15025928D01*
X18987071Y-14983071D01*
X18972786Y-14954500D01*
X18944214Y-14911643D01*
X18929928Y-14897357D01*
X12392500Y-15551500D02*
X12443500Y-15500500D01*
X12392500Y-15449500D01*
X12341500Y-15500500D01*
X12392500Y-15551500D01*
X12887071Y-15636214D02*
X12715643Y-15636214D01*
X12801357Y-15636214D02*
X12801357Y-15336214D01*
X12772786Y-15379071D01*
X12744214Y-15407643D01*
X12715643Y-15421928D01*
X13015643Y-15607643D02*
X13029928Y-15621928D01*
X13015643Y-15636214D01*
X13001357Y-15621928D01*
X13015643Y-15607643D01*
X13015643Y-15636214D01*
X13215643Y-15336214D02*
X13244214Y-15336214D01*
X13272786Y-15350500D01*
X13287071Y-15364786D01*
X13301357Y-15393357D01*
X13315643Y-15450500D01*
X13315643Y-15521928D01*
X13301357Y-15579071D01*
X13287071Y-15607643D01*
X13272786Y-15621928D01*
X13244214Y-15636214D01*
X13215643Y-15636214D01*
X13187071Y-15621928D01*
X13172786Y-15607643D01*
X13158500Y-15579071D01*
X13144214Y-15521928D01*
X13144214Y-15450500D01*
X13158500Y-15393357D01*
X13172786Y-15364786D01*
X13187071Y-15350500D01*
X13215643Y-15336214D01*
X13429928Y-15364786D02*
X13444214Y-15350500D01*
X13472786Y-15336214D01*
X13544214Y-15336214D01*
X13572786Y-15350500D01*
X13587071Y-15364786D01*
X13601357Y-15393357D01*
X13601357Y-15421928D01*
X13587071Y-15464786D01*
X13415643Y-15636214D01*
X13601357Y-15636214D01*
X13729928Y-15636214D02*
X13729928Y-15436214D01*
X13729928Y-15464786D02*
X13744214Y-15450500D01*
X13772786Y-15436214D01*
X13815643Y-15436214D01*
X13844214Y-15450500D01*
X13858500Y-15479071D01*
X13858500Y-15636214D01*
X13858500Y-15479071D02*
X13872786Y-15450500D01*
X13901357Y-15436214D01*
X13944214Y-15436214D01*
X13972786Y-15450500D01*
X13987071Y-15479071D01*
X13987071Y-15636214D01*
X14129928Y-15636214D02*
X14129928Y-15436214D01*
X14129928Y-15464786D02*
X14144214Y-15450500D01*
X14172786Y-15436214D01*
X14215643Y-15436214D01*
X14244214Y-15450500D01*
X14258500Y-15479071D01*
X14258500Y-15636214D01*
X14258500Y-15479071D02*
X14272786Y-15450500D01*
X14301357Y-15436214D01*
X14344214Y-15436214D01*
X14372786Y-15450500D01*
X14387071Y-15479071D01*
X14387071Y-15636214D01*
X14972786Y-15321928D02*
X14715643Y-15707643D01*
X15358500Y-15336214D02*
X15387071Y-15336214D01*
X15415643Y-15350500D01*
X15429928Y-15364786D01*
X15444214Y-15393357D01*
X15458500Y-15450500D01*
X15458500Y-15521928D01*
X15444214Y-15579071D01*
X15429928Y-15607643D01*
X15415643Y-15621928D01*
X15387071Y-15636214D01*
X15358500Y-15636214D01*
X15329928Y-15621928D01*
X15315643Y-15607643D01*
X15301357Y-15579071D01*
X15287071Y-15521928D01*
X15287071Y-15450500D01*
X15301357Y-15393357D01*
X15315643Y-15364786D01*
X15329928Y-15350500D01*
X15358500Y-15336214D01*
X15587071Y-15607643D02*
X15601357Y-15621928D01*
X15587071Y-15636214D01*
X15572786Y-15621928D01*
X15587071Y-15607643D01*
X15587071Y-15636214D01*
X15787071Y-15336214D02*
X15815643Y-15336214D01*
X15844214Y-15350500D01*
X15858500Y-15364786D01*
X15872786Y-15393357D01*
X15887071Y-15450500D01*
X15887071Y-15521928D01*
X15872786Y-15579071D01*
X15858500Y-15607643D01*
X15844214Y-15621928D01*
X15815643Y-15636214D01*
X15787071Y-15636214D01*
X15758500Y-15621928D01*
X15744214Y-15607643D01*
X15729928Y-15579071D01*
X15715643Y-15521928D01*
X15715643Y-15450500D01*
X15729928Y-15393357D01*
X15744214Y-15364786D01*
X15758500Y-15350500D01*
X15787071Y-15336214D01*
X16144214Y-15436214D02*
X16144214Y-15636214D01*
X16072786Y-15321928D02*
X16001357Y-15536214D01*
X16187071Y-15536214D01*
X16358500Y-15336214D02*
X16387071Y-15336214D01*
X16415643Y-15350500D01*
X16429928Y-15364786D01*
X16444214Y-15393357D01*
X16458500Y-15450500D01*
X16458500Y-15521928D01*
X16444214Y-15579071D01*
X16429928Y-15607643D01*
X16415643Y-15621928D01*
X16387071Y-15636214D01*
X16358500Y-15636214D01*
X16329928Y-15621928D01*
X16315643Y-15607643D01*
X16301357Y-15579071D01*
X16287071Y-15521928D01*
X16287071Y-15450500D01*
X16301357Y-15393357D01*
X16315643Y-15364786D01*
X16329928Y-15350500D01*
X16358500Y-15336214D01*
X16572786Y-15336214D02*
X16572786Y-15393357D01*
X16687071Y-15336214D02*
X16687071Y-15393357D01*
X17129928Y-15750500D02*
X17115643Y-15736214D01*
X17087071Y-15693357D01*
X17072786Y-15664786D01*
X17058500Y-15621928D01*
X17044214Y-15550500D01*
X17044214Y-15493357D01*
X17058500Y-15421928D01*
X17072786Y-15379071D01*
X17087071Y-15350500D01*
X17115643Y-15307643D01*
X17129928Y-15293357D01*
X17401357Y-15636214D02*
X17229928Y-15636214D01*
X17315643Y-15636214D02*
X17315643Y-15336214D01*
X17287071Y-15379071D01*
X17258500Y-15407643D01*
X17229928Y-15421928D01*
X17658500Y-15436214D02*
X17658500Y-15636214D01*
X17587071Y-15321928D02*
X17515643Y-15536214D01*
X17701357Y-15536214D01*
X18044214Y-15636214D02*
X18044214Y-15336214D01*
X18172786Y-15636214D02*
X18172786Y-15479071D01*
X18158500Y-15450500D01*
X18129928Y-15436214D01*
X18087071Y-15436214D01*
X18058500Y-15450500D01*
X18044214Y-15464786D01*
X18358500Y-15636214D02*
X18329928Y-15621928D01*
X18315643Y-15607643D01*
X18301357Y-15579071D01*
X18301357Y-15493357D01*
X18315643Y-15464786D01*
X18329928Y-15450500D01*
X18358500Y-15436214D01*
X18401357Y-15436214D01*
X18429928Y-15450500D01*
X18444214Y-15464786D01*
X18458500Y-15493357D01*
X18458500Y-15579071D01*
X18444214Y-15607643D01*
X18429928Y-15621928D01*
X18401357Y-15636214D01*
X18358500Y-15636214D01*
X18629928Y-15636214D02*
X18601357Y-15621928D01*
X18587071Y-15593357D01*
X18587071Y-15336214D01*
X18858500Y-15621928D02*
X18829928Y-15636214D01*
X18772786Y-15636214D01*
X18744214Y-15621928D01*
X18729928Y-15593357D01*
X18729928Y-15479071D01*
X18744214Y-15450500D01*
X18772786Y-15436214D01*
X18829928Y-15436214D01*
X18858500Y-15450500D01*
X18872786Y-15479071D01*
X18872786Y-15507643D01*
X18729928Y-15536214D01*
X18987071Y-15621928D02*
X19015643Y-15636214D01*
X19072786Y-15636214D01*
X19101357Y-15621928D01*
X19115643Y-15593357D01*
X19115643Y-15579071D01*
X19101357Y-15550500D01*
X19072786Y-15536214D01*
X19029928Y-15536214D01*
X19001357Y-15521928D01*
X18987071Y-15493357D01*
X18987071Y-15479071D01*
X19001357Y-15450500D01*
X19029928Y-15436214D01*
X19072786Y-15436214D01*
X19101357Y-15450500D01*
X19215643Y-15750500D02*
X19229928Y-15736214D01*
X19258500Y-15693357D01*
X19272786Y-15664786D01*
X19287071Y-15621928D01*
X19301357Y-15550500D01*
X19301357Y-15493357D01*
X19287071Y-15421928D01*
X19272786Y-15379071D01*
X19258500Y-15350500D01*
X19229928Y-15307643D01*
X19215643Y-15293357D01*
X12243500Y-15796500D02*
X12443500Y-15996500D01*
X12443500Y-15796500D02*
X12243500Y-15996500D01*
X12443500Y-15896500D02*
G75*
G03*
X12443500Y-15896500I-100000J0D01*
G01*
X12715643Y-15760786D02*
X12729928Y-15746500D01*
X12758500Y-15732214D01*
X12829928Y-15732214D01*
X12858500Y-15746500D01*
X12872786Y-15760786D01*
X12887071Y-15789357D01*
X12887071Y-15817928D01*
X12872786Y-15860786D01*
X12701357Y-16032214D01*
X12887071Y-16032214D01*
X13015643Y-16003643D02*
X13029928Y-16017928D01*
X13015643Y-16032214D01*
X13001357Y-16017928D01*
X13015643Y-16003643D01*
X13015643Y-16032214D01*
X13215643Y-15732214D02*
X13244214Y-15732214D01*
X13272786Y-15746500D01*
X13287071Y-15760786D01*
X13301357Y-15789357D01*
X13315643Y-15846500D01*
X13315643Y-15917928D01*
X13301357Y-15975071D01*
X13287071Y-16003643D01*
X13272786Y-16017928D01*
X13244214Y-16032214D01*
X13215643Y-16032214D01*
X13187071Y-16017928D01*
X13172786Y-16003643D01*
X13158500Y-15975071D01*
X13144214Y-15917928D01*
X13144214Y-15846500D01*
X13158500Y-15789357D01*
X13172786Y-15760786D01*
X13187071Y-15746500D01*
X13215643Y-15732214D01*
X13501357Y-15732214D02*
X13529928Y-15732214D01*
X13558500Y-15746500D01*
X13572786Y-15760786D01*
X13587071Y-15789357D01*
X13601357Y-15846500D01*
X13601357Y-15917928D01*
X13587071Y-15975071D01*
X13572786Y-16003643D01*
X13558500Y-16017928D01*
X13529928Y-16032214D01*
X13501357Y-16032214D01*
X13472786Y-16017928D01*
X13458500Y-16003643D01*
X13444214Y-15975071D01*
X13429928Y-15917928D01*
X13429928Y-15846500D01*
X13444214Y-15789357D01*
X13458500Y-15760786D01*
X13472786Y-15746500D01*
X13501357Y-15732214D01*
X13729928Y-16032214D02*
X13729928Y-15832214D01*
X13729928Y-15860786D02*
X13744214Y-15846500D01*
X13772786Y-15832214D01*
X13815643Y-15832214D01*
X13844214Y-15846500D01*
X13858500Y-15875071D01*
X13858500Y-16032214D01*
X13858500Y-15875071D02*
X13872786Y-15846500D01*
X13901357Y-15832214D01*
X13944214Y-15832214D01*
X13972786Y-15846500D01*
X13987071Y-15875071D01*
X13987071Y-16032214D01*
X14129928Y-16032214D02*
X14129928Y-15832214D01*
X14129928Y-15860786D02*
X14144214Y-15846500D01*
X14172786Y-15832214D01*
X14215643Y-15832214D01*
X14244214Y-15846500D01*
X14258500Y-15875071D01*
X14258500Y-16032214D01*
X14258500Y-15875071D02*
X14272786Y-15846500D01*
X14301357Y-15832214D01*
X14344214Y-15832214D01*
X14372786Y-15846500D01*
X14387071Y-15875071D01*
X14387071Y-16032214D01*
X14972786Y-15717928D02*
X14715643Y-16103643D01*
X15358500Y-15732214D02*
X15387071Y-15732214D01*
X15415643Y-15746500D01*
X15429928Y-15760786D01*
X15444214Y-15789357D01*
X15458500Y-15846500D01*
X15458500Y-15917928D01*
X15444214Y-15975071D01*
X15429928Y-16003643D01*
X15415643Y-16017928D01*
X15387071Y-16032214D01*
X15358500Y-16032214D01*
X15329928Y-16017928D01*
X15315643Y-16003643D01*
X15301357Y-15975071D01*
X15287071Y-15917928D01*
X15287071Y-15846500D01*
X15301357Y-15789357D01*
X15315643Y-15760786D01*
X15329928Y-15746500D01*
X15358500Y-15732214D01*
X15587071Y-16003643D02*
X15601357Y-16017928D01*
X15587071Y-16032214D01*
X15572786Y-16017928D01*
X15587071Y-16003643D01*
X15587071Y-16032214D01*
X15787071Y-15732214D02*
X15815643Y-15732214D01*
X15844214Y-15746500D01*
X15858500Y-15760786D01*
X15872786Y-15789357D01*
X15887071Y-15846500D01*
X15887071Y-15917928D01*
X15872786Y-15975071D01*
X15858500Y-16003643D01*
X15844214Y-16017928D01*
X15815643Y-16032214D01*
X15787071Y-16032214D01*
X15758500Y-16017928D01*
X15744214Y-16003643D01*
X15729928Y-15975071D01*
X15715643Y-15917928D01*
X15715643Y-15846500D01*
X15729928Y-15789357D01*
X15744214Y-15760786D01*
X15758500Y-15746500D01*
X15787071Y-15732214D01*
X15987071Y-15732214D02*
X16187071Y-15732214D01*
X16058500Y-16032214D01*
X16315643Y-16032214D02*
X16372786Y-16032214D01*
X16401357Y-16017928D01*
X16415643Y-16003643D01*
X16444214Y-15960786D01*
X16458500Y-15903643D01*
X16458500Y-15789357D01*
X16444214Y-15760786D01*
X16429928Y-15746500D01*
X16401357Y-15732214D01*
X16344214Y-15732214D01*
X16315643Y-15746500D01*
X16301357Y-15760786D01*
X16287071Y-15789357D01*
X16287071Y-15860786D01*
X16301357Y-15889357D01*
X16315643Y-15903643D01*
X16344214Y-15917928D01*
X16401357Y-15917928D01*
X16429928Y-15903643D01*
X16444214Y-15889357D01*
X16458500Y-15860786D01*
X16572786Y-15732214D02*
X16572786Y-15789357D01*
X16687071Y-15732214D02*
X16687071Y-15789357D01*
X17129928Y-16146500D02*
X17115643Y-16132214D01*
X17087071Y-16089357D01*
X17072786Y-16060786D01*
X17058500Y-16017928D01*
X17044214Y-15946500D01*
X17044214Y-15889357D01*
X17058500Y-15817928D01*
X17072786Y-15775071D01*
X17087071Y-15746500D01*
X17115643Y-15703643D01*
X17129928Y-15689357D01*
X17372786Y-15832214D02*
X17372786Y-16032214D01*
X17301357Y-15717928D02*
X17229928Y-15932214D01*
X17415643Y-15932214D01*
X17758500Y-16032214D02*
X17758500Y-15732214D01*
X17887071Y-16032214D02*
X17887071Y-15875071D01*
X17872786Y-15846500D01*
X17844214Y-15832214D01*
X17801357Y-15832214D01*
X17772786Y-15846500D01*
X17758500Y-15860786D01*
X18072786Y-16032214D02*
X18044214Y-16017928D01*
X18029928Y-16003643D01*
X18015643Y-15975071D01*
X18015643Y-15889357D01*
X18029928Y-15860786D01*
X18044214Y-15846500D01*
X18072786Y-15832214D01*
X18115643Y-15832214D01*
X18144214Y-15846500D01*
X18158500Y-15860786D01*
X18172786Y-15889357D01*
X18172786Y-15975071D01*
X18158500Y-16003643D01*
X18144214Y-16017928D01*
X18115643Y-16032214D01*
X18072786Y-16032214D01*
X18344214Y-16032214D02*
X18315643Y-16017928D01*
X18301357Y-15989357D01*
X18301357Y-15732214D01*
X18572786Y-16017928D02*
X18544214Y-16032214D01*
X18487071Y-16032214D01*
X18458500Y-16017928D01*
X18444214Y-15989357D01*
X18444214Y-15875071D01*
X18458500Y-15846500D01*
X18487071Y-15832214D01*
X18544214Y-15832214D01*
X18572786Y-15846500D01*
X18587071Y-15875071D01*
X18587071Y-15903643D01*
X18444214Y-15932214D01*
X18701357Y-16017928D02*
X18729928Y-16032214D01*
X18787071Y-16032214D01*
X18815643Y-16017928D01*
X18829928Y-15989357D01*
X18829928Y-15975071D01*
X18815643Y-15946500D01*
X18787071Y-15932214D01*
X18744214Y-15932214D01*
X18715643Y-15917928D01*
X18701357Y-15889357D01*
X18701357Y-15875071D01*
X18715643Y-15846500D01*
X18744214Y-15832214D01*
X18787071Y-15832214D01*
X18815643Y-15846500D01*
X18929928Y-16146500D02*
X18944214Y-16132214D01*
X18972786Y-16089357D01*
X18987071Y-16060786D01*
X19001357Y-16017928D01*
X19015643Y-15946500D01*
X19015643Y-15889357D01*
X19001357Y-15817928D01*
X18987071Y-15775071D01*
X18972786Y-15746500D01*
X18944214Y-15703643D01*
X18929928Y-15689357D01*
X12225500Y-16183500D02*
X12443500Y-16401500D01*
X12443500Y-16183500D02*
X12225500Y-16401500D01*
X12334500Y-16183500D02*
X12334500Y-16401500D01*
X12225500Y-16292500D02*
X12443500Y-16292500D01*
X12715643Y-16156786D02*
X12729928Y-16142500D01*
X12758500Y-16128214D01*
X12829928Y-16128214D01*
X12858500Y-16142500D01*
X12872786Y-16156786D01*
X12887071Y-16185357D01*
X12887071Y-16213928D01*
X12872786Y-16256786D01*
X12701357Y-16428214D01*
X12887071Y-16428214D01*
X13015643Y-16399643D02*
X13029928Y-16413928D01*
X13015643Y-16428214D01*
X13001357Y-16413928D01*
X13015643Y-16399643D01*
X13015643Y-16428214D01*
X13315643Y-16428214D02*
X13144214Y-16428214D01*
X13229928Y-16428214D02*
X13229928Y-16128214D01*
X13201357Y-16171071D01*
X13172786Y-16199643D01*
X13144214Y-16213928D01*
X13487071Y-16256786D02*
X13458500Y-16242500D01*
X13444214Y-16228214D01*
X13429928Y-16199643D01*
X13429928Y-16185357D01*
X13444214Y-16156786D01*
X13458500Y-16142500D01*
X13487071Y-16128214D01*
X13544214Y-16128214D01*
X13572786Y-16142500D01*
X13587071Y-16156786D01*
X13601357Y-16185357D01*
X13601357Y-16199643D01*
X13587071Y-16228214D01*
X13572786Y-16242500D01*
X13544214Y-16256786D01*
X13487071Y-16256786D01*
X13458500Y-16271071D01*
X13444214Y-16285357D01*
X13429928Y-16313928D01*
X13429928Y-16371071D01*
X13444214Y-16399643D01*
X13458500Y-16413928D01*
X13487071Y-16428214D01*
X13544214Y-16428214D01*
X13572786Y-16413928D01*
X13587071Y-16399643D01*
X13601357Y-16371071D01*
X13601357Y-16313928D01*
X13587071Y-16285357D01*
X13572786Y-16271071D01*
X13544214Y-16256786D01*
X13729928Y-16428214D02*
X13729928Y-16228214D01*
X13729928Y-16256786D02*
X13744214Y-16242500D01*
X13772786Y-16228214D01*
X13815643Y-16228214D01*
X13844214Y-16242500D01*
X13858500Y-16271071D01*
X13858500Y-16428214D01*
X13858500Y-16271071D02*
X13872786Y-16242500D01*
X13901357Y-16228214D01*
X13944214Y-16228214D01*
X13972786Y-16242500D01*
X13987071Y-16271071D01*
X13987071Y-16428214D01*
X14129928Y-16428214D02*
X14129928Y-16228214D01*
X14129928Y-16256786D02*
X14144214Y-16242500D01*
X14172786Y-16228214D01*
X14215643Y-16228214D01*
X14244214Y-16242500D01*
X14258500Y-16271071D01*
X14258500Y-16428214D01*
X14258500Y-16271071D02*
X14272786Y-16242500D01*
X14301357Y-16228214D01*
X14344214Y-16228214D01*
X14372786Y-16242500D01*
X14387071Y-16271071D01*
X14387071Y-16428214D01*
X14972786Y-16113928D02*
X14715643Y-16499643D01*
X15358500Y-16128214D02*
X15387071Y-16128214D01*
X15415643Y-16142500D01*
X15429928Y-16156786D01*
X15444214Y-16185357D01*
X15458500Y-16242500D01*
X15458500Y-16313928D01*
X15444214Y-16371071D01*
X15429928Y-16399643D01*
X15415643Y-16413928D01*
X15387071Y-16428214D01*
X15358500Y-16428214D01*
X15329928Y-16413928D01*
X15315643Y-16399643D01*
X15301357Y-16371071D01*
X15287071Y-16313928D01*
X15287071Y-16242500D01*
X15301357Y-16185357D01*
X15315643Y-16156786D01*
X15329928Y-16142500D01*
X15358500Y-16128214D01*
X15587071Y-16399643D02*
X15601357Y-16413928D01*
X15587071Y-16428214D01*
X15572786Y-16413928D01*
X15587071Y-16399643D01*
X15587071Y-16428214D01*
X15787071Y-16128214D02*
X15815643Y-16128214D01*
X15844214Y-16142500D01*
X15858500Y-16156786D01*
X15872786Y-16185357D01*
X15887071Y-16242500D01*
X15887071Y-16313928D01*
X15872786Y-16371071D01*
X15858500Y-16399643D01*
X15844214Y-16413928D01*
X15815643Y-16428214D01*
X15787071Y-16428214D01*
X15758500Y-16413928D01*
X15744214Y-16399643D01*
X15729928Y-16371071D01*
X15715643Y-16313928D01*
X15715643Y-16242500D01*
X15729928Y-16185357D01*
X15744214Y-16156786D01*
X15758500Y-16142500D01*
X15787071Y-16128214D01*
X16058500Y-16256786D02*
X16029928Y-16242500D01*
X16015643Y-16228214D01*
X16001357Y-16199643D01*
X16001357Y-16185357D01*
X16015643Y-16156786D01*
X16029928Y-16142500D01*
X16058500Y-16128214D01*
X16115643Y-16128214D01*
X16144214Y-16142500D01*
X16158500Y-16156786D01*
X16172786Y-16185357D01*
X16172786Y-16199643D01*
X16158500Y-16228214D01*
X16144214Y-16242500D01*
X16115643Y-16256786D01*
X16058500Y-16256786D01*
X16029928Y-16271071D01*
X16015643Y-16285357D01*
X16001357Y-16313928D01*
X16001357Y-16371071D01*
X16015643Y-16399643D01*
X16029928Y-16413928D01*
X16058500Y-16428214D01*
X16115643Y-16428214D01*
X16144214Y-16413928D01*
X16158500Y-16399643D01*
X16172786Y-16371071D01*
X16172786Y-16313928D01*
X16158500Y-16285357D01*
X16144214Y-16271071D01*
X16115643Y-16256786D01*
X16429928Y-16128214D02*
X16372786Y-16128214D01*
X16344214Y-16142500D01*
X16329928Y-16156786D01*
X16301357Y-16199643D01*
X16287071Y-16256786D01*
X16287071Y-16371071D01*
X16301357Y-16399643D01*
X16315643Y-16413928D01*
X16344214Y-16428214D01*
X16401357Y-16428214D01*
X16429928Y-16413928D01*
X16444214Y-16399643D01*
X16458500Y-16371071D01*
X16458500Y-16299643D01*
X16444214Y-16271071D01*
X16429928Y-16256786D01*
X16401357Y-16242500D01*
X16344214Y-16242500D01*
X16315643Y-16256786D01*
X16301357Y-16271071D01*
X16287071Y-16299643D01*
X16572786Y-16128214D02*
X16572786Y-16185357D01*
X16687071Y-16128214D02*
X16687071Y-16185357D01*
X17129928Y-16542500D02*
X17115643Y-16528214D01*
X17087071Y-16485357D01*
X17072786Y-16456786D01*
X17058500Y-16413928D01*
X17044214Y-16342500D01*
X17044214Y-16285357D01*
X17058500Y-16213928D01*
X17072786Y-16171071D01*
X17087071Y-16142500D01*
X17115643Y-16099643D01*
X17129928Y-16085357D01*
X17372786Y-16228214D02*
X17372786Y-16428214D01*
X17301357Y-16113928D02*
X17229928Y-16328214D01*
X17415643Y-16328214D01*
X17758500Y-16428214D02*
X17758500Y-16128214D01*
X17887071Y-16428214D02*
X17887071Y-16271071D01*
X17872786Y-16242500D01*
X17844214Y-16228214D01*
X17801357Y-16228214D01*
X17772786Y-16242500D01*
X17758500Y-16256786D01*
X18072786Y-16428214D02*
X18044214Y-16413928D01*
X18029928Y-16399643D01*
X18015643Y-16371071D01*
X18015643Y-16285357D01*
X18029928Y-16256786D01*
X18044214Y-16242500D01*
X18072786Y-16228214D01*
X18115643Y-16228214D01*
X18144214Y-16242500D01*
X18158500Y-16256786D01*
X18172786Y-16285357D01*
X18172786Y-16371071D01*
X18158500Y-16399643D01*
X18144214Y-16413928D01*
X18115643Y-16428214D01*
X18072786Y-16428214D01*
X18344214Y-16428214D02*
X18315643Y-16413928D01*
X18301357Y-16385357D01*
X18301357Y-16128214D01*
X18572786Y-16413928D02*
X18544214Y-16428214D01*
X18487071Y-16428214D01*
X18458500Y-16413928D01*
X18444214Y-16385357D01*
X18444214Y-16271071D01*
X18458500Y-16242500D01*
X18487071Y-16228214D01*
X18544214Y-16228214D01*
X18572786Y-16242500D01*
X18587071Y-16271071D01*
X18587071Y-16299643D01*
X18444214Y-16328214D01*
X18701357Y-16413928D02*
X18729928Y-16428214D01*
X18787071Y-16428214D01*
X18815643Y-16413928D01*
X18829928Y-16385357D01*
X18829928Y-16371071D01*
X18815643Y-16342500D01*
X18787071Y-16328214D01*
X18744214Y-16328214D01*
X18715643Y-16313928D01*
X18701357Y-16285357D01*
X18701357Y-16271071D01*
X18715643Y-16242500D01*
X18744214Y-16228214D01*
X18787071Y-16228214D01*
X18815643Y-16242500D01*
X18929928Y-16542500D02*
X18944214Y-16528214D01*
X18972786Y-16485357D01*
X18987071Y-16456786D01*
X19001357Y-16413928D01*
X19015643Y-16342500D01*
X19015643Y-16285357D01*
X19001357Y-16213928D01*
X18987071Y-16171071D01*
X18972786Y-16142500D01*
X18944214Y-16099643D01*
X18929928Y-16085357D01*
X12173500Y-16553500D02*
X12443500Y-16823500D01*
X12443500Y-16553500D02*
X12173500Y-16823500D01*
X12403960Y-16783960D02*
X12403960Y-16593040D01*
X12213040Y-16593040D01*
X12213040Y-16783960D01*
X12403960Y-16783960D01*
X12715643Y-16552786D02*
X12729928Y-16538500D01*
X12758500Y-16524214D01*
X12829928Y-16524214D01*
X12858500Y-16538500D01*
X12872786Y-16552786D01*
X12887071Y-16581357D01*
X12887071Y-16609928D01*
X12872786Y-16652786D01*
X12701357Y-16824214D01*
X12887071Y-16824214D01*
X13015643Y-16795643D02*
X13029928Y-16809928D01*
X13015643Y-16824214D01*
X13001357Y-16809928D01*
X13015643Y-16795643D01*
X13015643Y-16824214D01*
X13129928Y-16524214D02*
X13329928Y-16524214D01*
X13201357Y-16824214D01*
X13501357Y-16524214D02*
X13529928Y-16524214D01*
X13558500Y-16538500D01*
X13572786Y-16552786D01*
X13587071Y-16581357D01*
X13601357Y-16638500D01*
X13601357Y-16709928D01*
X13587071Y-16767071D01*
X13572786Y-16795643D01*
X13558500Y-16809928D01*
X13529928Y-16824214D01*
X13501357Y-16824214D01*
X13472786Y-16809928D01*
X13458500Y-16795643D01*
X13444214Y-16767071D01*
X13429928Y-16709928D01*
X13429928Y-16638500D01*
X13444214Y-16581357D01*
X13458500Y-16552786D01*
X13472786Y-16538500D01*
X13501357Y-16524214D01*
X13729928Y-16824214D02*
X13729928Y-16624214D01*
X13729928Y-16652786D02*
X13744214Y-16638500D01*
X13772786Y-16624214D01*
X13815643Y-16624214D01*
X13844214Y-16638500D01*
X13858500Y-16667071D01*
X13858500Y-16824214D01*
X13858500Y-16667071D02*
X13872786Y-16638500D01*
X13901357Y-16624214D01*
X13944214Y-16624214D01*
X13972786Y-16638500D01*
X13987071Y-16667071D01*
X13987071Y-16824214D01*
X14129928Y-16824214D02*
X14129928Y-16624214D01*
X14129928Y-16652786D02*
X14144214Y-16638500D01*
X14172786Y-16624214D01*
X14215643Y-16624214D01*
X14244214Y-16638500D01*
X14258500Y-16667071D01*
X14258500Y-16824214D01*
X14258500Y-16667071D02*
X14272786Y-16638500D01*
X14301357Y-16624214D01*
X14344214Y-16624214D01*
X14372786Y-16638500D01*
X14387071Y-16667071D01*
X14387071Y-16824214D01*
X14972786Y-16509928D02*
X14715643Y-16895643D01*
X15358500Y-16524214D02*
X15387071Y-16524214D01*
X15415643Y-16538500D01*
X15429928Y-16552786D01*
X15444214Y-16581357D01*
X15458500Y-16638500D01*
X15458500Y-16709928D01*
X15444214Y-16767071D01*
X15429928Y-16795643D01*
X15415643Y-16809928D01*
X15387071Y-16824214D01*
X15358500Y-16824214D01*
X15329928Y-16809928D01*
X15315643Y-16795643D01*
X15301357Y-16767071D01*
X15287071Y-16709928D01*
X15287071Y-16638500D01*
X15301357Y-16581357D01*
X15315643Y-16552786D01*
X15329928Y-16538500D01*
X15358500Y-16524214D01*
X15587071Y-16795643D02*
X15601357Y-16809928D01*
X15587071Y-16824214D01*
X15572786Y-16809928D01*
X15587071Y-16795643D01*
X15587071Y-16824214D01*
X15887071Y-16824214D02*
X15715643Y-16824214D01*
X15801357Y-16824214D02*
X15801357Y-16524214D01*
X15772786Y-16567071D01*
X15744214Y-16595643D01*
X15715643Y-16609928D01*
X16072786Y-16524214D02*
X16101357Y-16524214D01*
X16129928Y-16538500D01*
X16144214Y-16552786D01*
X16158500Y-16581357D01*
X16172786Y-16638500D01*
X16172786Y-16709928D01*
X16158500Y-16767071D01*
X16144214Y-16795643D01*
X16129928Y-16809928D01*
X16101357Y-16824214D01*
X16072786Y-16824214D01*
X16044214Y-16809928D01*
X16029928Y-16795643D01*
X16015643Y-16767071D01*
X16001357Y-16709928D01*
X16001357Y-16638500D01*
X16015643Y-16581357D01*
X16029928Y-16552786D01*
X16044214Y-16538500D01*
X16072786Y-16524214D01*
X16429928Y-16524214D02*
X16372786Y-16524214D01*
X16344214Y-16538500D01*
X16329928Y-16552786D01*
X16301357Y-16595643D01*
X16287071Y-16652786D01*
X16287071Y-16767071D01*
X16301357Y-16795643D01*
X16315643Y-16809928D01*
X16344214Y-16824214D01*
X16401357Y-16824214D01*
X16429928Y-16809928D01*
X16444214Y-16795643D01*
X16458500Y-16767071D01*
X16458500Y-16695643D01*
X16444214Y-16667071D01*
X16429928Y-16652786D01*
X16401357Y-16638500D01*
X16344214Y-16638500D01*
X16315643Y-16652786D01*
X16301357Y-16667071D01*
X16287071Y-16695643D01*
X16572786Y-16524214D02*
X16572786Y-16581357D01*
X16687071Y-16524214D02*
X16687071Y-16581357D01*
X17129928Y-16938500D02*
X17115643Y-16924214D01*
X17087071Y-16881357D01*
X17072786Y-16852786D01*
X17058500Y-16809928D01*
X17044214Y-16738500D01*
X17044214Y-16681357D01*
X17058500Y-16609928D01*
X17072786Y-16567071D01*
X17087071Y-16538500D01*
X17115643Y-16495643D01*
X17129928Y-16481357D01*
X17229928Y-16552786D02*
X17244214Y-16538500D01*
X17272786Y-16524214D01*
X17344214Y-16524214D01*
X17372786Y-16538500D01*
X17387071Y-16552786D01*
X17401357Y-16581357D01*
X17401357Y-16609928D01*
X17387071Y-16652786D01*
X17215643Y-16824214D01*
X17401357Y-16824214D01*
X17758500Y-16824214D02*
X17758500Y-16524214D01*
X17887071Y-16824214D02*
X17887071Y-16667071D01*
X17872786Y-16638500D01*
X17844214Y-16624214D01*
X17801357Y-16624214D01*
X17772786Y-16638500D01*
X17758500Y-16652786D01*
X18072786Y-16824214D02*
X18044214Y-16809928D01*
X18029928Y-16795643D01*
X18015643Y-16767071D01*
X18015643Y-16681357D01*
X18029928Y-16652786D01*
X18044214Y-16638500D01*
X18072786Y-16624214D01*
X18115643Y-16624214D01*
X18144214Y-16638500D01*
X18158500Y-16652786D01*
X18172786Y-16681357D01*
X18172786Y-16767071D01*
X18158500Y-16795643D01*
X18144214Y-16809928D01*
X18115643Y-16824214D01*
X18072786Y-16824214D01*
X18344214Y-16824214D02*
X18315643Y-16809928D01*
X18301357Y-16781357D01*
X18301357Y-16524214D01*
X18572786Y-16809928D02*
X18544214Y-16824214D01*
X18487071Y-16824214D01*
X18458500Y-16809928D01*
X18444214Y-16781357D01*
X18444214Y-16667071D01*
X18458500Y-16638500D01*
X18487071Y-16624214D01*
X18544214Y-16624214D01*
X18572786Y-16638500D01*
X18587071Y-16667071D01*
X18587071Y-16695643D01*
X18444214Y-16724214D01*
X18701357Y-16809928D02*
X18729928Y-16824214D01*
X18787071Y-16824214D01*
X18815643Y-16809928D01*
X18829928Y-16781357D01*
X18829928Y-16767071D01*
X18815643Y-16738500D01*
X18787071Y-16724214D01*
X18744214Y-16724214D01*
X18715643Y-16709928D01*
X18701357Y-16681357D01*
X18701357Y-16667071D01*
X18715643Y-16638500D01*
X18744214Y-16624214D01*
X18787071Y-16624214D01*
X18815643Y-16638500D01*
X18929928Y-16938500D02*
X18944214Y-16924214D01*
X18972786Y-16881357D01*
X18987071Y-16852786D01*
X19001357Y-16809928D01*
X19015643Y-16738500D01*
X19015643Y-16681357D01*
X19001357Y-16609928D01*
X18987071Y-16567071D01*
X18972786Y-16538500D01*
X18944214Y-16495643D01*
X18929928Y-16481357D01*
M02*
