G04 #@! TF.GenerationSoftware,KiCad,Pcbnew,(5.1.9)-1*
G04 #@! TF.CreationDate,2021-04-18T01:44:30-07:00*
G04 #@! TF.ProjectId,UAS_V2,5541535f-5632-42e6-9b69-6361645f7063,rev?*
G04 #@! TF.SameCoordinates,Original*
G04 #@! TF.FileFunction,Soldermask,Bot*
G04 #@! TF.FilePolarity,Negative*
%FSLAX46Y46*%
G04 Gerber Fmt 4.6, Leading zero omitted, Abs format (unit mm)*
G04 Created by KiCad (PCBNEW (5.1.9)-1) date 2021-04-18 01:44:30*
%MOMM*%
%LPD*%
G01*
G04 APERTURE LIST*
%ADD10C,1.900000*%
%ADD11O,3.400000X2.200000*%
%ADD12C,3.400000*%
%ADD13O,2.200000X3.400000*%
%ADD14C,3.650000*%
%ADD15C,4.400000*%
G04 APERTURE END LIST*
G36*
G01*
X148401000Y-116035000D02*
X148401000Y-115105000D01*
G75*
G02*
X148601000Y-114905000I200000J0D01*
G01*
X149491000Y-114905000D01*
G75*
G02*
X149691000Y-115105000I0J-200000D01*
G01*
X149691000Y-116035000D01*
G75*
G02*
X149491000Y-116235000I-200000J0D01*
G01*
X148601000Y-116235000D01*
G75*
G02*
X148401000Y-116035000I0J200000D01*
G01*
G37*
G36*
G01*
X150029000Y-116035000D02*
X150029000Y-115105000D01*
G75*
G02*
X150229000Y-114905000I200000J0D01*
G01*
X151119000Y-114905000D01*
G75*
G02*
X151319000Y-115105000I0J-200000D01*
G01*
X151319000Y-116035000D01*
G75*
G02*
X151119000Y-116235000I-200000J0D01*
G01*
X150229000Y-116235000D01*
G75*
G02*
X150029000Y-116035000I0J200000D01*
G01*
G37*
G36*
G01*
X149715000Y-112565000D02*
X149715000Y-113495000D01*
G75*
G02*
X149515000Y-113695000I-200000J0D01*
G01*
X148645000Y-113695000D01*
G75*
G02*
X148445000Y-113495000I0J200000D01*
G01*
X148445000Y-112565000D01*
G75*
G02*
X148645000Y-112365000I200000J0D01*
G01*
X149515000Y-112365000D01*
G75*
G02*
X149715000Y-112565000I0J-200000D01*
G01*
G37*
G36*
G01*
X151275000Y-112565000D02*
X151275000Y-113495000D01*
G75*
G02*
X151075000Y-113695000I-200000J0D01*
G01*
X150205000Y-113695000D01*
G75*
G02*
X150005000Y-113495000I0J200000D01*
G01*
X150005000Y-112565000D01*
G75*
G02*
X150205000Y-112365000I200000J0D01*
G01*
X151075000Y-112365000D01*
G75*
G02*
X151275000Y-112565000I0J-200000D01*
G01*
G37*
G36*
G01*
X172295000Y-92095000D02*
X174995000Y-92095000D01*
G75*
G02*
X175195000Y-92295000I0J-200000D01*
G01*
X175195000Y-93295000D01*
G75*
G02*
X174995000Y-93495000I-200000J0D01*
G01*
X172295000Y-93495000D01*
G75*
G02*
X172095000Y-93295000I0J200000D01*
G01*
X172095000Y-92295000D01*
G75*
G02*
X172295000Y-92095000I200000J0D01*
G01*
G37*
G36*
G01*
X169595000Y-95395000D02*
X171295000Y-95395000D01*
G75*
G02*
X171495000Y-95595000I0J-200000D01*
G01*
X171495000Y-96195000D01*
G75*
G02*
X171295000Y-96395000I-200000J0D01*
G01*
X169595000Y-96395000D01*
G75*
G02*
X169395000Y-96195000I0J200000D01*
G01*
X169395000Y-95595000D01*
G75*
G02*
X169595000Y-95395000I200000J0D01*
G01*
G37*
G36*
G01*
X169595000Y-94145000D02*
X171295000Y-94145000D01*
G75*
G02*
X171495000Y-94345000I0J-200000D01*
G01*
X171495000Y-94945000D01*
G75*
G02*
X171295000Y-95145000I-200000J0D01*
G01*
X169595000Y-95145000D01*
G75*
G02*
X169395000Y-94945000I0J200000D01*
G01*
X169395000Y-94345000D01*
G75*
G02*
X169595000Y-94145000I200000J0D01*
G01*
G37*
G36*
G01*
X169595000Y-96645000D02*
X171295000Y-96645000D01*
G75*
G02*
X171495000Y-96845000I0J-200000D01*
G01*
X171495000Y-97445000D01*
G75*
G02*
X171295000Y-97645000I-200000J0D01*
G01*
X169595000Y-97645000D01*
G75*
G02*
X169395000Y-97445000I0J200000D01*
G01*
X169395000Y-96845000D01*
G75*
G02*
X169595000Y-96645000I200000J0D01*
G01*
G37*
G36*
G01*
X169595000Y-97895000D02*
X171295000Y-97895000D01*
G75*
G02*
X171495000Y-98095000I0J-200000D01*
G01*
X171495000Y-98695000D01*
G75*
G02*
X171295000Y-98895000I-200000J0D01*
G01*
X169595000Y-98895000D01*
G75*
G02*
X169395000Y-98695000I0J200000D01*
G01*
X169395000Y-98095000D01*
G75*
G02*
X169595000Y-97895000I200000J0D01*
G01*
G37*
G36*
G01*
X172295000Y-99545000D02*
X174995000Y-99545000D01*
G75*
G02*
X175195000Y-99745000I0J-200000D01*
G01*
X175195000Y-100745000D01*
G75*
G02*
X174995000Y-100945000I-200000J0D01*
G01*
X172295000Y-100945000D01*
G75*
G02*
X172095000Y-100745000I0J200000D01*
G01*
X172095000Y-99745000D01*
G75*
G02*
X172295000Y-99545000I200000J0D01*
G01*
G37*
G36*
G01*
X137940000Y-84670000D02*
X137940000Y-82970000D01*
G75*
G02*
X138140000Y-82770000I200000J0D01*
G01*
X138740000Y-82770000D01*
G75*
G02*
X138940000Y-82970000I0J-200000D01*
G01*
X138940000Y-84670000D01*
G75*
G02*
X138740000Y-84870000I-200000J0D01*
G01*
X138140000Y-84870000D01*
G75*
G02*
X137940000Y-84670000I0J200000D01*
G01*
G37*
G36*
G01*
X139190000Y-84670000D02*
X139190000Y-82970000D01*
G75*
G02*
X139390000Y-82770000I200000J0D01*
G01*
X139990000Y-82770000D01*
G75*
G02*
X140190000Y-82970000I0J-200000D01*
G01*
X140190000Y-84670000D01*
G75*
G02*
X139990000Y-84870000I-200000J0D01*
G01*
X139390000Y-84870000D01*
G75*
G02*
X139190000Y-84670000I0J200000D01*
G01*
G37*
G36*
G01*
X140440000Y-84670000D02*
X140440000Y-82970000D01*
G75*
G02*
X140640000Y-82770000I200000J0D01*
G01*
X141240000Y-82770000D01*
G75*
G02*
X141440000Y-82970000I0J-200000D01*
G01*
X141440000Y-84670000D01*
G75*
G02*
X141240000Y-84870000I-200000J0D01*
G01*
X140640000Y-84870000D01*
G75*
G02*
X140440000Y-84670000I0J200000D01*
G01*
G37*
G36*
G01*
X141690000Y-84670000D02*
X141690000Y-82970000D01*
G75*
G02*
X141890000Y-82770000I200000J0D01*
G01*
X142490000Y-82770000D01*
G75*
G02*
X142690000Y-82970000I0J-200000D01*
G01*
X142690000Y-84670000D01*
G75*
G02*
X142490000Y-84870000I-200000J0D01*
G01*
X141890000Y-84870000D01*
G75*
G02*
X141690000Y-84670000I0J200000D01*
G01*
G37*
G36*
G01*
X136690000Y-84670000D02*
X136690000Y-82970000D01*
G75*
G02*
X136890000Y-82770000I200000J0D01*
G01*
X137490000Y-82770000D01*
G75*
G02*
X137690000Y-82970000I0J-200000D01*
G01*
X137690000Y-84670000D01*
G75*
G02*
X137490000Y-84870000I-200000J0D01*
G01*
X136890000Y-84870000D01*
G75*
G02*
X136690000Y-84670000I0J200000D01*
G01*
G37*
G36*
G01*
X135440000Y-84670000D02*
X135440000Y-82970000D01*
G75*
G02*
X135640000Y-82770000I200000J0D01*
G01*
X136240000Y-82770000D01*
G75*
G02*
X136440000Y-82970000I0J-200000D01*
G01*
X136440000Y-84670000D01*
G75*
G02*
X136240000Y-84870000I-200000J0D01*
G01*
X135640000Y-84870000D01*
G75*
G02*
X135440000Y-84670000I0J200000D01*
G01*
G37*
G36*
G01*
X134190000Y-84670000D02*
X134190000Y-82970000D01*
G75*
G02*
X134390000Y-82770000I200000J0D01*
G01*
X134990000Y-82770000D01*
G75*
G02*
X135190000Y-82970000I0J-200000D01*
G01*
X135190000Y-84670000D01*
G75*
G02*
X134990000Y-84870000I-200000J0D01*
G01*
X134390000Y-84870000D01*
G75*
G02*
X134190000Y-84670000I0J200000D01*
G01*
G37*
G36*
G01*
X142940000Y-84670000D02*
X142940000Y-82970000D01*
G75*
G02*
X143140000Y-82770000I200000J0D01*
G01*
X143740000Y-82770000D01*
G75*
G02*
X143940000Y-82970000I0J-200000D01*
G01*
X143940000Y-84670000D01*
G75*
G02*
X143740000Y-84870000I-200000J0D01*
G01*
X143140000Y-84870000D01*
G75*
G02*
X142940000Y-84670000I0J200000D01*
G01*
G37*
G36*
G01*
X132140000Y-81970000D02*
X132140000Y-79270000D01*
G75*
G02*
X132340000Y-79070000I200000J0D01*
G01*
X133340000Y-79070000D01*
G75*
G02*
X133540000Y-79270000I0J-200000D01*
G01*
X133540000Y-81970000D01*
G75*
G02*
X133340000Y-82170000I-200000J0D01*
G01*
X132340000Y-82170000D01*
G75*
G02*
X132140000Y-81970000I0J200000D01*
G01*
G37*
G36*
G01*
X144590000Y-81970000D02*
X144590000Y-79270000D01*
G75*
G02*
X144790000Y-79070000I200000J0D01*
G01*
X145790000Y-79070000D01*
G75*
G02*
X145990000Y-79270000I0J-200000D01*
G01*
X145990000Y-81970000D01*
G75*
G02*
X145790000Y-82170000I-200000J0D01*
G01*
X144790000Y-82170000D01*
G75*
G02*
X144590000Y-81970000I0J200000D01*
G01*
G37*
G36*
G01*
X137815000Y-92925000D02*
X137815000Y-91225000D01*
G75*
G02*
X138015000Y-91025000I200000J0D01*
G01*
X138615000Y-91025000D01*
G75*
G02*
X138815000Y-91225000I0J-200000D01*
G01*
X138815000Y-92925000D01*
G75*
G02*
X138615000Y-93125000I-200000J0D01*
G01*
X138015000Y-93125000D01*
G75*
G02*
X137815000Y-92925000I0J200000D01*
G01*
G37*
G36*
G01*
X139065000Y-92925000D02*
X139065000Y-91225000D01*
G75*
G02*
X139265000Y-91025000I200000J0D01*
G01*
X139865000Y-91025000D01*
G75*
G02*
X140065000Y-91225000I0J-200000D01*
G01*
X140065000Y-92925000D01*
G75*
G02*
X139865000Y-93125000I-200000J0D01*
G01*
X139265000Y-93125000D01*
G75*
G02*
X139065000Y-92925000I0J200000D01*
G01*
G37*
G36*
G01*
X140315000Y-92925000D02*
X140315000Y-91225000D01*
G75*
G02*
X140515000Y-91025000I200000J0D01*
G01*
X141115000Y-91025000D01*
G75*
G02*
X141315000Y-91225000I0J-200000D01*
G01*
X141315000Y-92925000D01*
G75*
G02*
X141115000Y-93125000I-200000J0D01*
G01*
X140515000Y-93125000D01*
G75*
G02*
X140315000Y-92925000I0J200000D01*
G01*
G37*
G36*
G01*
X141565000Y-92925000D02*
X141565000Y-91225000D01*
G75*
G02*
X141765000Y-91025000I200000J0D01*
G01*
X142365000Y-91025000D01*
G75*
G02*
X142565000Y-91225000I0J-200000D01*
G01*
X142565000Y-92925000D01*
G75*
G02*
X142365000Y-93125000I-200000J0D01*
G01*
X141765000Y-93125000D01*
G75*
G02*
X141565000Y-92925000I0J200000D01*
G01*
G37*
G36*
G01*
X136565000Y-92925000D02*
X136565000Y-91225000D01*
G75*
G02*
X136765000Y-91025000I200000J0D01*
G01*
X137365000Y-91025000D01*
G75*
G02*
X137565000Y-91225000I0J-200000D01*
G01*
X137565000Y-92925000D01*
G75*
G02*
X137365000Y-93125000I-200000J0D01*
G01*
X136765000Y-93125000D01*
G75*
G02*
X136565000Y-92925000I0J200000D01*
G01*
G37*
G36*
G01*
X135315000Y-92925000D02*
X135315000Y-91225000D01*
G75*
G02*
X135515000Y-91025000I200000J0D01*
G01*
X136115000Y-91025000D01*
G75*
G02*
X136315000Y-91225000I0J-200000D01*
G01*
X136315000Y-92925000D01*
G75*
G02*
X136115000Y-93125000I-200000J0D01*
G01*
X135515000Y-93125000D01*
G75*
G02*
X135315000Y-92925000I0J200000D01*
G01*
G37*
G36*
G01*
X134065000Y-92925000D02*
X134065000Y-91225000D01*
G75*
G02*
X134265000Y-91025000I200000J0D01*
G01*
X134865000Y-91025000D01*
G75*
G02*
X135065000Y-91225000I0J-200000D01*
G01*
X135065000Y-92925000D01*
G75*
G02*
X134865000Y-93125000I-200000J0D01*
G01*
X134265000Y-93125000D01*
G75*
G02*
X134065000Y-92925000I0J200000D01*
G01*
G37*
G36*
G01*
X142815000Y-92925000D02*
X142815000Y-91225000D01*
G75*
G02*
X143015000Y-91025000I200000J0D01*
G01*
X143615000Y-91025000D01*
G75*
G02*
X143815000Y-91225000I0J-200000D01*
G01*
X143815000Y-92925000D01*
G75*
G02*
X143615000Y-93125000I-200000J0D01*
G01*
X143015000Y-93125000D01*
G75*
G02*
X142815000Y-92925000I0J200000D01*
G01*
G37*
G36*
G01*
X132015000Y-90225000D02*
X132015000Y-87525000D01*
G75*
G02*
X132215000Y-87325000I200000J0D01*
G01*
X133215000Y-87325000D01*
G75*
G02*
X133415000Y-87525000I0J-200000D01*
G01*
X133415000Y-90225000D01*
G75*
G02*
X133215000Y-90425000I-200000J0D01*
G01*
X132215000Y-90425000D01*
G75*
G02*
X132015000Y-90225000I0J200000D01*
G01*
G37*
G36*
G01*
X144465000Y-90225000D02*
X144465000Y-87525000D01*
G75*
G02*
X144665000Y-87325000I200000J0D01*
G01*
X145665000Y-87325000D01*
G75*
G02*
X145865000Y-87525000I0J-200000D01*
G01*
X145865000Y-90225000D01*
G75*
G02*
X145665000Y-90425000I-200000J0D01*
G01*
X144665000Y-90425000D01*
G75*
G02*
X144465000Y-90225000I0J200000D01*
G01*
G37*
G36*
G01*
X166690000Y-121400000D02*
X166690000Y-119900000D01*
G75*
G02*
X166890000Y-119700000I200000J0D01*
G01*
X168390000Y-119700000D01*
G75*
G02*
X168590000Y-119900000I0J-200000D01*
G01*
X168590000Y-121400000D01*
G75*
G02*
X168390000Y-121600000I-200000J0D01*
G01*
X166890000Y-121600000D01*
G75*
G02*
X166690000Y-121400000I0J200000D01*
G01*
G37*
D10*
X165640000Y-120650000D03*
X163640000Y-120650000D03*
G36*
G01*
X134940000Y-121400000D02*
X134940000Y-119900000D01*
G75*
G02*
X135140000Y-119700000I200000J0D01*
G01*
X136640000Y-119700000D01*
G75*
G02*
X136840000Y-119900000I0J-200000D01*
G01*
X136840000Y-121400000D01*
G75*
G02*
X136640000Y-121600000I-200000J0D01*
G01*
X135140000Y-121600000D01*
G75*
G02*
X134940000Y-121400000I0J200000D01*
G01*
G37*
X133890000Y-120650000D03*
X131890000Y-120650000D03*
D11*
X163830000Y-106085000D03*
G36*
G01*
X165330000Y-109725000D02*
X162330000Y-109725000D01*
G75*
G02*
X162130000Y-109525000I0J200000D01*
G01*
X162130000Y-107725000D01*
G75*
G02*
X162330000Y-107525000I200000J0D01*
G01*
X165330000Y-107525000D01*
G75*
G02*
X165530000Y-107725000I0J-200000D01*
G01*
X165530000Y-109525000D01*
G75*
G02*
X165330000Y-109725000I-200000J0D01*
G01*
G37*
X163830000Y-111165000D03*
X163830000Y-113705000D03*
D12*
X173060000Y-122310000D03*
X159630000Y-108880000D03*
D11*
X158750000Y-112390000D03*
X158750000Y-114930000D03*
G36*
G01*
X157250000Y-116370000D02*
X160250000Y-116370000D01*
G75*
G02*
X160450000Y-116570000I0J-200000D01*
G01*
X160450000Y-118370000D01*
G75*
G02*
X160250000Y-118570000I-200000J0D01*
G01*
X157250000Y-118570000D01*
G75*
G02*
X157050000Y-118370000I0J200000D01*
G01*
X157050000Y-116570000D01*
G75*
G02*
X157250000Y-116370000I200000J0D01*
G01*
G37*
G36*
G01*
X157250000Y-118910000D02*
X160250000Y-118910000D01*
G75*
G02*
X160450000Y-119110000I0J-200000D01*
G01*
X160450000Y-120910000D01*
G75*
G02*
X160250000Y-121110000I-200000J0D01*
G01*
X157250000Y-121110000D01*
G75*
G02*
X157050000Y-120910000I0J200000D01*
G01*
X157050000Y-119110000D01*
G75*
G02*
X157250000Y-118910000I200000J0D01*
G01*
G37*
X158750000Y-122550000D03*
D13*
X139065000Y-109220000D03*
X136525000Y-109220000D03*
X133985000Y-109220000D03*
X131445000Y-109220000D03*
D14*
X127915000Y-112190000D03*
X141415000Y-96190000D03*
D13*
X141605000Y-113030000D03*
X139065000Y-113030000D03*
X136525000Y-113030000D03*
X133985000Y-113030000D03*
X131445000Y-113030000D03*
G36*
G01*
X128060000Y-99040000D02*
X125360000Y-99040000D01*
G75*
G02*
X125160000Y-98840000I0J200000D01*
G01*
X125160000Y-97840000D01*
G75*
G02*
X125360000Y-97640000I200000J0D01*
G01*
X128060000Y-97640000D01*
G75*
G02*
X128260000Y-97840000I0J-200000D01*
G01*
X128260000Y-98840000D01*
G75*
G02*
X128060000Y-99040000I-200000J0D01*
G01*
G37*
G36*
G01*
X130760000Y-95740000D02*
X129060000Y-95740000D01*
G75*
G02*
X128860000Y-95540000I0J200000D01*
G01*
X128860000Y-94940000D01*
G75*
G02*
X129060000Y-94740000I200000J0D01*
G01*
X130760000Y-94740000D01*
G75*
G02*
X130960000Y-94940000I0J-200000D01*
G01*
X130960000Y-95540000D01*
G75*
G02*
X130760000Y-95740000I-200000J0D01*
G01*
G37*
G36*
G01*
X130760000Y-96990000D02*
X129060000Y-96990000D01*
G75*
G02*
X128860000Y-96790000I0J200000D01*
G01*
X128860000Y-96190000D01*
G75*
G02*
X129060000Y-95990000I200000J0D01*
G01*
X130760000Y-95990000D01*
G75*
G02*
X130960000Y-96190000I0J-200000D01*
G01*
X130960000Y-96790000D01*
G75*
G02*
X130760000Y-96990000I-200000J0D01*
G01*
G37*
G36*
G01*
X130760000Y-94490000D02*
X129060000Y-94490000D01*
G75*
G02*
X128860000Y-94290000I0J200000D01*
G01*
X128860000Y-93690000D01*
G75*
G02*
X129060000Y-93490000I200000J0D01*
G01*
X130760000Y-93490000D01*
G75*
G02*
X130960000Y-93690000I0J-200000D01*
G01*
X130960000Y-94290000D01*
G75*
G02*
X130760000Y-94490000I-200000J0D01*
G01*
G37*
G36*
G01*
X130760000Y-93240000D02*
X129060000Y-93240000D01*
G75*
G02*
X128860000Y-93040000I0J200000D01*
G01*
X128860000Y-92440000D01*
G75*
G02*
X129060000Y-92240000I200000J0D01*
G01*
X130760000Y-92240000D01*
G75*
G02*
X130960000Y-92440000I0J-200000D01*
G01*
X130960000Y-93040000D01*
G75*
G02*
X130760000Y-93240000I-200000J0D01*
G01*
G37*
G36*
G01*
X128060000Y-91590000D02*
X125360000Y-91590000D01*
G75*
G02*
X125160000Y-91390000I0J200000D01*
G01*
X125160000Y-90390000D01*
G75*
G02*
X125360000Y-90190000I200000J0D01*
G01*
X128060000Y-90190000D01*
G75*
G02*
X128260000Y-90390000I0J-200000D01*
G01*
X128260000Y-91390000D01*
G75*
G02*
X128060000Y-91590000I-200000J0D01*
G01*
G37*
G36*
G01*
X128060000Y-109200000D02*
X125360000Y-109200000D01*
G75*
G02*
X125160000Y-109000000I0J200000D01*
G01*
X125160000Y-108000000D01*
G75*
G02*
X125360000Y-107800000I200000J0D01*
G01*
X128060000Y-107800000D01*
G75*
G02*
X128260000Y-108000000I0J-200000D01*
G01*
X128260000Y-109000000D01*
G75*
G02*
X128060000Y-109200000I-200000J0D01*
G01*
G37*
G36*
G01*
X130760000Y-105900000D02*
X129060000Y-105900000D01*
G75*
G02*
X128860000Y-105700000I0J200000D01*
G01*
X128860000Y-105100000D01*
G75*
G02*
X129060000Y-104900000I200000J0D01*
G01*
X130760000Y-104900000D01*
G75*
G02*
X130960000Y-105100000I0J-200000D01*
G01*
X130960000Y-105700000D01*
G75*
G02*
X130760000Y-105900000I-200000J0D01*
G01*
G37*
G36*
G01*
X130760000Y-107150000D02*
X129060000Y-107150000D01*
G75*
G02*
X128860000Y-106950000I0J200000D01*
G01*
X128860000Y-106350000D01*
G75*
G02*
X129060000Y-106150000I200000J0D01*
G01*
X130760000Y-106150000D01*
G75*
G02*
X130960000Y-106350000I0J-200000D01*
G01*
X130960000Y-106950000D01*
G75*
G02*
X130760000Y-107150000I-200000J0D01*
G01*
G37*
G36*
G01*
X130760000Y-104650000D02*
X129060000Y-104650000D01*
G75*
G02*
X128860000Y-104450000I0J200000D01*
G01*
X128860000Y-103850000D01*
G75*
G02*
X129060000Y-103650000I200000J0D01*
G01*
X130760000Y-103650000D01*
G75*
G02*
X130960000Y-103850000I0J-200000D01*
G01*
X130960000Y-104450000D01*
G75*
G02*
X130760000Y-104650000I-200000J0D01*
G01*
G37*
G36*
G01*
X130760000Y-103400000D02*
X129060000Y-103400000D01*
G75*
G02*
X128860000Y-103200000I0J200000D01*
G01*
X128860000Y-102600000D01*
G75*
G02*
X129060000Y-102400000I200000J0D01*
G01*
X130760000Y-102400000D01*
G75*
G02*
X130960000Y-102600000I0J-200000D01*
G01*
X130960000Y-103200000D01*
G75*
G02*
X130760000Y-103400000I-200000J0D01*
G01*
G37*
G36*
G01*
X128060000Y-101750000D02*
X125360000Y-101750000D01*
G75*
G02*
X125160000Y-101550000I0J200000D01*
G01*
X125160000Y-100550000D01*
G75*
G02*
X125360000Y-100350000I200000J0D01*
G01*
X128060000Y-100350000D01*
G75*
G02*
X128260000Y-100550000I0J-200000D01*
G01*
X128260000Y-101550000D01*
G75*
G02*
X128060000Y-101750000I-200000J0D01*
G01*
G37*
D15*
X152110000Y-125490000D03*
G36*
G01*
X144760000Y-127490000D02*
X144760000Y-123490000D01*
G75*
G02*
X144960000Y-123290000I200000J0D01*
G01*
X148960000Y-123290000D01*
G75*
G02*
X149160000Y-123490000I0J-200000D01*
G01*
X149160000Y-127490000D01*
G75*
G02*
X148960000Y-127690000I-200000J0D01*
G01*
X144960000Y-127690000D01*
G75*
G02*
X144760000Y-127490000I0J200000D01*
G01*
G37*
M02*
