G04 #@! TF.GenerationSoftware,KiCad,Pcbnew,(5.1.9)-1*
G04 #@! TF.CreationDate,2021-04-18T01:44:30-07:00*
G04 #@! TF.ProjectId,UAS_V2,5541535f-5632-42e6-9b69-6361645f7063,rev?*
G04 #@! TF.SameCoordinates,Original*
G04 #@! TF.FileFunction,Paste,Bot*
G04 #@! TF.FilePolarity,Positive*
%FSLAX46Y46*%
G04 Gerber Fmt 4.6, Leading zero omitted, Abs format (unit mm)*
G04 Created by KiCad (PCBNEW (5.1.9)-1) date 2021-04-18 01:44:30*
%MOMM*%
%LPD*%
G01*
G04 APERTURE LIST*
%ADD10R,2.700000X1.000000*%
%ADD11R,1.700000X0.600000*%
%ADD12R,0.600000X1.700000*%
%ADD13R,1.000000X2.700000*%
%ADD14O,3.000000X1.800000*%
%ADD15R,3.000000X1.800000*%
G04 APERTURE END LIST*
D10*
X173645000Y-92795000D03*
D11*
X170445000Y-95895000D03*
X170445000Y-94645000D03*
X170445000Y-97145000D03*
X170445000Y-98395000D03*
D10*
X173645000Y-100245000D03*
D12*
X138440000Y-83820000D03*
X139690000Y-83820000D03*
X140940000Y-83820000D03*
X142190000Y-83820000D03*
X137190000Y-83820000D03*
X135940000Y-83820000D03*
X134690000Y-83820000D03*
X143440000Y-83820000D03*
D13*
X132840000Y-80620000D03*
X145290000Y-80620000D03*
D12*
X138315000Y-92075000D03*
X139565000Y-92075000D03*
X140815000Y-92075000D03*
X142065000Y-92075000D03*
X137065000Y-92075000D03*
X135815000Y-92075000D03*
X134565000Y-92075000D03*
X143315000Y-92075000D03*
D13*
X132715000Y-88875000D03*
X145165000Y-88875000D03*
D14*
X163830000Y-106085000D03*
D15*
X163830000Y-108625000D03*
D14*
X163830000Y-111165000D03*
X163830000Y-113705000D03*
D10*
X126710000Y-98340000D03*
D11*
X129910000Y-95240000D03*
X129910000Y-96490000D03*
X129910000Y-93990000D03*
X129910000Y-92740000D03*
D10*
X126710000Y-90890000D03*
X126710000Y-108500000D03*
D11*
X129910000Y-105400000D03*
X129910000Y-106650000D03*
X129910000Y-104150000D03*
X129910000Y-102900000D03*
D10*
X126710000Y-101050000D03*
M02*
