%TF.GenerationSoftware,KiCad,Pcbnew,(5.1.8)-1*%
%TF.CreationDate,2021-01-10T21:03:03-08:00*%
%TF.ProjectId,PJS,504a532e-6b69-4636-9164-5f7063625858,rev?*%
%TF.SameCoordinates,Original*%
%TF.FileFunction,Copper,L1,Top*%
%TF.FilePolarity,Positive*%
%FSLAX46Y46*%
G04 Gerber Fmt 4.6, Leading zero omitted, Abs format (unit mm)*
G04 Created by KiCad (PCBNEW (5.1.8)-1) date 2021-01-10 21:03:03*
%MOMM*%
%LPD*%
G01*
G04 APERTURE LIST*
%TA.AperFunction,ComponentPad*%
%ADD10C,4.000000*%
%TD*%
%TA.AperFunction,ComponentPad*%
%ADD11C,1.524000*%
%TD*%
%TA.AperFunction,ComponentPad*%
%ADD12C,1.308000*%
%TD*%
%TA.AperFunction,ComponentPad*%
%ADD13C,4.064000*%
%TD*%
%TA.AperFunction,SMDPad,CuDef*%
%ADD14R,1.000000X0.800000*%
%TD*%
%TA.AperFunction,SMDPad,CuDef*%
%ADD15R,1.500000X1.150000*%
%TD*%
%TA.AperFunction,SMDPad,CuDef*%
%ADD16R,1.150000X2.200000*%
%TD*%
%TA.AperFunction,SMDPad,CuDef*%
%ADD17R,1.160000X1.200000*%
%TD*%
%TA.AperFunction,SMDPad,CuDef*%
%ADD18R,1.160000X1.250000*%
%TD*%
%TA.AperFunction,SMDPad,CuDef*%
%ADD19R,0.950000X2.500000*%
%TD*%
%TA.AperFunction,SMDPad,CuDef*%
%ADD20R,0.800000X1.240000*%
%TD*%
%TA.AperFunction,ComponentPad*%
%ADD21C,0.800000*%
%TD*%
%TA.AperFunction,ComponentPad*%
%ADD22C,6.000000*%
%TD*%
%TA.AperFunction,SMDPad,CuDef*%
%ADD23R,2.420000X1.580000*%
%TD*%
%TA.AperFunction,SMDPad,CuDef*%
%ADD24R,1.550000X0.600000*%
%TD*%
%TA.AperFunction,SMDPad,CuDef*%
%ADD25R,1.550000X0.500000*%
%TD*%
%TA.AperFunction,SMDPad,CuDef*%
%ADD26R,2.400000X3.100000*%
%TD*%
%TA.AperFunction,ComponentPad*%
%ADD27O,1.270000X1.000000*%
%TD*%
%TA.AperFunction,ComponentPad*%
%ADD28C,1.900000*%
%TD*%
%TA.AperFunction,ComponentPad*%
%ADD29R,3.800000X3.800000*%
%TD*%
%TA.AperFunction,SMDPad,CuDef*%
%ADD30R,1.199998X1.005599*%
%TD*%
%TA.AperFunction,SMDPad,CuDef*%
%ADD31R,1.270000X5.080000*%
%TD*%
%TA.AperFunction,SMDPad,CuDef*%
%ADD32R,3.960000X3.960000*%
%TD*%
%TA.AperFunction,ComponentPad*%
%ADD33C,1.530000*%
%TD*%
%TA.AperFunction,SMDPad,CuDef*%
%ADD34R,1.400000X1.000000*%
%TD*%
%TA.AperFunction,SMDPad,CuDef*%
%ADD35R,0.540000X0.600000*%
%TD*%
%TA.AperFunction,SMDPad,CuDef*%
%ADD36R,0.700000X4.199999*%
%TD*%
%TA.AperFunction,SMDPad,CuDef*%
%ADD37R,0.600000X2.000000*%
%TD*%
%TA.AperFunction,SMDPad,CuDef*%
%ADD38R,2.700000X1.000000*%
%TD*%
%TA.AperFunction,SMDPad,CuDef*%
%ADD39R,3.800000X1.800000*%
%TD*%
%TA.AperFunction,SMDPad,CuDef*%
%ADD40R,0.640000X0.560000*%
%TD*%
%TA.AperFunction,ViaPad*%
%ADD41C,6.000000*%
%TD*%
%TA.AperFunction,ViaPad*%
%ADD42C,0.800000*%
%TD*%
%TA.AperFunction,Conductor*%
%ADD43C,1.000000*%
%TD*%
%TA.AperFunction,Conductor*%
%ADD44C,0.250000*%
%TD*%
%TA.AperFunction,Conductor*%
%ADD45C,4.000000*%
%TD*%
%TA.AperFunction,Conductor*%
%ADD46C,0.750000*%
%TD*%
%TA.AperFunction,Conductor*%
%ADD47C,0.500000*%
%TD*%
%TA.AperFunction,Conductor*%
%ADD48C,5.000000*%
%TD*%
G04 APERTURE END LIST*
D10*
%TO.P,VR1,*%
%TO.N,*%
X124146500Y-73084499D03*
X137346500Y-59884499D03*
D11*
%TO.P,VR1,5*%
%TO.N,+5V*%
X138366500Y-63944499D03*
%TO.P,VR1,4*%
%TO.N,GND*%
X138366500Y-66484499D03*
%TO.P,VR1,3*%
%TO.N,+12V*%
X138366500Y-69024499D03*
%TO.P,VR1,2*%
%TO.N,Net-(VR1-Pad2)*%
X138366500Y-71564499D03*
%TO.P,VR1,1*%
%TO.N,Net-(VR1-Pad1)*%
X138376500Y-74114499D03*
%TD*%
D12*
%TO.P,A5,3*%
%TO.N,GND*%
X137414000Y-142112999D03*
%TO.P,A5,5*%
%TO.N,Net-(A5-Pad5)*%
X137414000Y-137032999D03*
%TO.P,A5,2*%
%TO.N,Net-(A5-Pad2)*%
X137414000Y-144652999D03*
D13*
%TO.P,A5, *%
%TO.N,N/C*%
X126111000Y-130047999D03*
D12*
%TO.P,A5,4*%
%TO.N,/Alt_SCK*%
X137414000Y-139572999D03*
%TO.P,A5,1*%
%TO.N,+5V*%
X137414000Y-147192999D03*
%TO.P,A5,6*%
%TO.N,/Alt_SDI*%
X137414000Y-134492999D03*
%TO.P,A5,8*%
%TO.N,Net-(A5-Pad8)*%
X137414000Y-129412999D03*
%TO.P,A5,7*%
%TO.N,Net-(A5-Pad7)*%
X137414000Y-131952999D03*
D13*
%TO.P,A5, *%
%TO.N,N/C*%
X126111000Y-146557999D03*
%TD*%
D14*
%TO.P,D1,2*%
%TO.N,Net-(D1-Pad2)*%
X102901600Y-145988999D03*
%TO.P,D1,1*%
%TO.N,Net-(D1-Pad1)*%
X102901600Y-147888999D03*
%TO.P,D1,3*%
%TO.N,+5V*%
X100501600Y-146938999D03*
%TD*%
D15*
%TO.P,XM1,9*%
%TO.N,GND*%
X151270000Y-55575999D03*
X159050000Y-55575999D03*
D16*
X163355000Y-56370999D03*
D17*
%TO.P,XM1,*%
%TO.N,*%
X149470000Y-56700999D03*
D18*
X149470000Y-65700999D03*
D16*
%TO.P,XM1,9*%
%TO.N,GND*%
X149065000Y-67850999D03*
D19*
X163455000Y-67700999D03*
D20*
%TO.P,XM1,8*%
%TO.N,Net-(J1-Pad8)*%
X151410000Y-68330999D03*
%TO.P,XM1,7*%
%TO.N,Net-(J1-Pad7)*%
X152510000Y-68330999D03*
%TO.P,XM1,6*%
%TO.N,Net-(J1-Pad6)*%
X153610000Y-68330999D03*
%TO.P,XM1,5*%
%TO.N,Net-(J1-Pad5)*%
X154710000Y-68330999D03*
%TO.P,XM1,4*%
%TO.N,Net-(J1-Pad4)*%
X155810000Y-68330999D03*
%TO.P,XM1,3*%
%TO.N,Net-(J1-Pad3)*%
X156910000Y-68330999D03*
%TO.P,XM1,2*%
%TO.N,Net-(J1-Pad2)*%
X158010000Y-68330999D03*
%TO.P,XM1,1*%
%TO.N,Net-(J1-Pad1)*%
X159110000Y-68330999D03*
%TD*%
D21*
%TO.P,K1,5*%
%TO.N,/Door_RelayOut1*%
X101342500Y-115642999D03*
%TO.P,K1,3*%
%TO.N,+12V*%
X101342500Y-120642999D03*
%TO.P,K1,2*%
%TO.N,Net-(K1-Pad2)*%
X101342500Y-125642999D03*
%TO.P,K1,1*%
%TO.N,+5V*%
X101342500Y-140642999D03*
%TO.P,K1,5*%
%TO.N,/Door_RelayOut1*%
X108842500Y-115642999D03*
%TO.P,K1,6*%
%TO.N,+12V*%
X108842500Y-120642999D03*
%TO.P,K1,7*%
%TO.N,Net-(K1-Pad7)*%
X108842500Y-125642999D03*
%TO.P,K1,8*%
%TO.N,Net-(D1-Pad1)*%
X108842500Y-140642999D03*
%TD*%
%TO.P,X3,*%
%TO.N,GND*%
%TA.AperFunction,ComponentPad*%
G36*
G01*
X145875000Y-48664999D02*
X145875000Y-51664999D01*
G75*
G02*
X144375000Y-53164999I-1500000J0D01*
G01*
X141375000Y-53164999D01*
G75*
G02*
X139875000Y-51664999I0J1500000D01*
G01*
X139875000Y-48664999D01*
G75*
G02*
X141375000Y-47164999I1500000J0D01*
G01*
X144375000Y-47164999D01*
G75*
G02*
X145875000Y-48664999I0J-1500000D01*
G01*
G37*
%TD.AperFunction*%
D22*
%TO.P,X3,2*%
%TO.N,Net-(X3-Pad2)*%
X135675000Y-50164999D03*
%TD*%
D23*
%TO.P,C3,2*%
%TO.N,GND*%
X98692000Y-86733999D03*
%TO.P,C3,1*%
%TO.N,+12V*%
X101992000Y-86733999D03*
%TD*%
D24*
%TO.P,A1,6*%
%TO.N,/UAS_DriverOUT1*%
X99360000Y-65023999D03*
D25*
%TO.P,A1,5*%
%TO.N,+12V*%
X99360000Y-63753999D03*
%TO.P,A1,1*%
%TO.N,GND*%
X105110000Y-67563999D03*
D24*
%TO.P,A1,7*%
X99360000Y-66293999D03*
D25*
%TO.P,A1,2*%
%TO.N,/UAS_DriverIN2*%
X105110000Y-66293999D03*
%TO.P,A1,4*%
%TO.N,Net-(A1-Pad4)*%
X105110000Y-63753999D03*
%TO.P,A1,3*%
%TO.N,/UAS_DriverIN1*%
X105110000Y-65023999D03*
D24*
%TO.P,A1,8*%
%TO.N,/UAS_DriverOUT2*%
X99360000Y-67563999D03*
D26*
%TO.P,A1,1*%
%TO.N,GND*%
X102235000Y-65658999D03*
%TD*%
D24*
%TO.P,A2,6*%
%TO.N,/Link_DriverOUT1*%
X99360000Y-78316665D03*
D25*
%TO.P,A2,5*%
%TO.N,+12V*%
X99360000Y-77046665D03*
%TO.P,A2,1*%
%TO.N,GND*%
X105110000Y-80856665D03*
D24*
%TO.P,A2,7*%
X99360000Y-79586665D03*
D25*
%TO.P,A2,2*%
%TO.N,/Link_DriverIN2*%
X105110000Y-79586665D03*
%TO.P,A2,4*%
%TO.N,Net-(A2-Pad4)*%
X105110000Y-77046665D03*
%TO.P,A2,3*%
%TO.N,/Link_DriverIN1*%
X105110000Y-78316665D03*
D24*
%TO.P,A2,8*%
%TO.N,/Link_DriverOUT2*%
X99360000Y-80856665D03*
D26*
%TO.P,A2,1*%
%TO.N,GND*%
X102235000Y-78951665D03*
%TD*%
D24*
%TO.P,A3,6*%
%TO.N,/LockA_DriverOUT1*%
X99360000Y-91609331D03*
D25*
%TO.P,A3,5*%
%TO.N,+12V*%
X99360000Y-90339331D03*
%TO.P,A3,1*%
%TO.N,GND*%
X105110000Y-94149331D03*
D24*
%TO.P,A3,7*%
X99360000Y-92879331D03*
D25*
%TO.P,A3,2*%
%TO.N,/LockA_DriverIN2*%
X105110000Y-92879331D03*
%TO.P,A3,4*%
%TO.N,Net-(A3-Pad4)*%
X105110000Y-90339331D03*
%TO.P,A3,3*%
%TO.N,/LockA_DriverIN1*%
X105110000Y-91609331D03*
D24*
%TO.P,A3,8*%
%TO.N,/LockA_DriverOUT2*%
X99360000Y-94149331D03*
D26*
%TO.P,A3,1*%
%TO.N,GND*%
X102235000Y-92244331D03*
%TD*%
D24*
%TO.P,A4,6*%
%TO.N,/LockB_DriverOUT1*%
X99360000Y-104901999D03*
D25*
%TO.P,A4,5*%
%TO.N,+12V*%
X99360000Y-103631999D03*
%TO.P,A4,1*%
%TO.N,GND*%
X105110000Y-107441999D03*
D24*
%TO.P,A4,7*%
X99360000Y-106171999D03*
D25*
%TO.P,A4,2*%
%TO.N,/LockB_DriverIN2*%
X105110000Y-106171999D03*
%TO.P,A4,4*%
%TO.N,Net-(A4-Pad4)*%
X105110000Y-103631999D03*
%TO.P,A4,3*%
%TO.N,/LockB_DriverIN1*%
X105110000Y-104901999D03*
D24*
%TO.P,A4,8*%
%TO.N,/LockB_DriverOUT2*%
X99360000Y-107441999D03*
D26*
%TO.P,A4,1*%
%TO.N,GND*%
X102235000Y-105536999D03*
%TD*%
D27*
%TO.P,A6,13*%
%TO.N,N/C*%
X125092600Y-111454999D03*
%TO.P,A6,11*%
X129092600Y-111454999D03*
D28*
%TO.P,A6,1*%
%TO.N,GND*%
X142122600Y-96844999D03*
%TO.P,A6,4*%
%TO.N,/RF_CH2*%
X142122600Y-104464999D03*
D27*
%TO.P,A6,8*%
%TO.N,/RF_CH6*%
X135092600Y-111454999D03*
%TO.P,A6,7*%
%TO.N,/RF_CH5*%
X137092600Y-111454999D03*
%TO.P,A6,9*%
%TO.N,N/C*%
X133092600Y-111454999D03*
D28*
%TO.P,A6,5*%
%TO.N,/RF_CH3*%
X142122600Y-107004999D03*
%TO.P,A6,2*%
%TO.N,+5V*%
X142122600Y-99384999D03*
%TO.P,A6,3*%
%TO.N,/RF_CH1*%
X142122600Y-101924999D03*
%TO.P,A6,6*%
%TO.N,/RF_CH4*%
X142122600Y-109544999D03*
D27*
%TO.P,A6,14*%
%TO.N,N/C*%
X123092600Y-111454999D03*
%TO.P,A6,12*%
X127092600Y-111454999D03*
%TO.P,A6,10*%
X131092600Y-111454999D03*
%TD*%
D10*
%TO.P,X2,2*%
%TO.N,GND*%
X81715000Y-119414999D03*
D29*
%TO.P,X2,1*%
%TO.N,/Door_RelayOut1*%
X86715000Y-119414999D03*
%TD*%
D10*
%TO.P,X1,2*%
%TO.N,GND*%
X81765000Y-128464999D03*
D29*
%TO.P,X1,1*%
%TO.N,/Door_RelayOut1*%
X86765000Y-128464999D03*
%TD*%
%TO.P,X4,1*%
%TO.N,Net-(X3-Pad2)*%
%TA.AperFunction,ComponentPad*%
G36*
G01*
X127307600Y-48995199D02*
X127307600Y-51995199D01*
G75*
G02*
X125807600Y-53495199I-1500000J0D01*
G01*
X122807600Y-53495199D01*
G75*
G02*
X121307600Y-51995199I0J1500000D01*
G01*
X121307600Y-48995199D01*
G75*
G02*
X122807600Y-47495199I1500000J0D01*
G01*
X125807600Y-47495199D01*
G75*
G02*
X127307600Y-48995199I0J-1500000D01*
G01*
G37*
%TD.AperFunction*%
D22*
%TO.P,X4,2*%
%TO.N,+12V*%
X117107600Y-50495199D03*
%TD*%
D30*
%TO.P,R5,1*%
%TO.N,Net-(Q1-Pad1)*%
X112242600Y-147918798D03*
%TO.P,R5,2*%
%TO.N,/Relay_Signal*%
X112242600Y-146213200D03*
%TD*%
D31*
%TO.P,BT1,1*%
%TO.N,/3.3V_Coin*%
X167830000Y-122554999D03*
X145860000Y-122554999D03*
D32*
%TO.P,BT1,2*%
%TO.N,GND*%
X156845000Y-122554999D03*
%TD*%
D33*
%TO.P,U2,ONOFF*%
%TO.N,N/C*%
X161772600Y-111048799D03*
%TO.P,U2,PGM*%
X159232600Y-111048799D03*
%TO.P,U2,G2*%
X156692600Y-111048799D03*
%TO.P,U2,3.3V_1*%
X154152600Y-111048799D03*
%TO.P,U2,VBAT*%
%TO.N,/3.3V_Coin*%
X151612600Y-111048799D03*
%TO.P,U2,VIN*%
%TO.N,N/C*%
X164312600Y-78028799D03*
%TO.P,U2,G3*%
X164312600Y-80568799D03*
%TO.P,U2,3.3V_2*%
X164312600Y-83108799D03*
%TO.P,U2,23*%
%TO.N,/S3_UAS*%
X164312600Y-85648799D03*
%TO.P,U2,22*%
%TO.N,/S2_Door*%
X164312600Y-88188799D03*
%TO.P,U2,21*%
%TO.N,/S1_Link*%
X164312600Y-90728799D03*
%TO.P,U2,20*%
%TO.N,Net-(U2-Pad20)*%
X164312600Y-93268799D03*
%TO.P,U2,19*%
%TO.N,/Alt_SCK*%
X164312600Y-95808799D03*
%TO.P,U2,18*%
%TO.N,/Alt_SDI*%
X164312600Y-98348799D03*
%TO.P,U2,17*%
%TO.N,Net-(U2-Pad17)*%
X164312600Y-100888799D03*
%TO.P,U2,16*%
%TO.N,Net-(U2-Pad16)*%
X164312600Y-103428799D03*
%TO.P,U2,15*%
%TO.N,Net-(U2-Pad15)*%
X164312600Y-105968799D03*
%TO.P,U2,14*%
%TO.N,/RF_CH6*%
X164312600Y-108508799D03*
%TO.P,U2,13*%
%TO.N,/RF_CH5*%
X164312600Y-111048799D03*
%TO.P,U2,G1*%
%TO.N,GND*%
X149072600Y-78028799D03*
%TO.P,U2,0*%
%TO.N,/UAS_DriverIN1*%
X149072600Y-80568799D03*
%TO.P,U2,1*%
%TO.N,/UAS_DriverIN2*%
X149072600Y-83108799D03*
%TO.P,U2,2*%
%TO.N,/Link_DriverIN1*%
X149072600Y-85648799D03*
%TO.P,U2,3*%
%TO.N,/Link_DriverIN2*%
X149072600Y-88188799D03*
%TO.P,U2,4*%
%TO.N,/LockA_DriverIN1*%
X149072600Y-90728799D03*
%TO.P,U2,5*%
%TO.N,/LockA_DriverIN2*%
X149072600Y-93268799D03*
%TO.P,U2,6*%
%TO.N,/LockB_DriverIN1*%
X149072600Y-95808799D03*
%TO.P,U2,7*%
%TO.N,/LockB_DriverIN2*%
X149072600Y-98348799D03*
%TO.P,U2,8*%
%TO.N,/RF_CH1*%
X149072600Y-100888799D03*
%TO.P,U2,9*%
%TO.N,/RF_CH2*%
X149072600Y-103428799D03*
%TO.P,U2,10*%
%TO.N,/RF_CH3*%
X149072600Y-105968799D03*
%TO.P,U2,11*%
%TO.N,/RF_CH4*%
X149072600Y-108508799D03*
%TO.P,U2,12*%
%TO.N,/Relay_Signal*%
X149072600Y-111048799D03*
%TD*%
D34*
%TO.P,Q1,2*%
%TO.N,GND*%
X107754600Y-145938199D03*
%TO.P,Q1,1*%
%TO.N,Net-(Q1-Pad1)*%
X107754600Y-147838199D03*
%TO.P,Q1,3*%
%TO.N,Net-(D1-Pad1)*%
X105554600Y-146888199D03*
%TD*%
D23*
%TO.P,C1,2*%
%TO.N,GND*%
X98725000Y-59874999D03*
%TO.P,C1,1*%
%TO.N,+12V*%
X102025000Y-59874999D03*
%TD*%
%TO.P,C2,1*%
%TO.N,+12V*%
X101957000Y-73458999D03*
%TO.P,C2,2*%
%TO.N,GND*%
X98657000Y-73458999D03*
%TD*%
%TO.P,C4,1*%
%TO.N,+12V*%
X102077000Y-100158999D03*
%TO.P,C4,2*%
%TO.N,GND*%
X98777000Y-100158999D03*
%TD*%
D35*
%TO.P,C5,1*%
%TO.N,+12V*%
X97908000Y-63740499D03*
%TO.P,C5,2*%
%TO.N,GND*%
X97048000Y-63740499D03*
%TD*%
%TO.P,C6,2*%
%TO.N,GND*%
X96981000Y-77073999D03*
%TO.P,C6,1*%
%TO.N,+12V*%
X97841000Y-77073999D03*
%TD*%
%TO.P,C7,2*%
%TO.N,GND*%
X97006000Y-90333499D03*
%TO.P,C7,1*%
%TO.N,+12V*%
X97866000Y-90333499D03*
%TD*%
%TO.P,C8,1*%
%TO.N,+12V*%
X97711000Y-103638999D03*
%TO.P,C8,2*%
%TO.N,GND*%
X96851000Y-103638999D03*
%TD*%
D36*
%TO.P,J1,*%
%TO.N,*%
X152192600Y-86811499D03*
D37*
%TO.P,J1,8*%
%TO.N,Net-(J1-Pad8)*%
X153192600Y-88911499D03*
%TO.P,J1,7*%
%TO.N,Net-(J1-Pad7)*%
X154192600Y-88911499D03*
%TO.P,J1,6*%
%TO.N,Net-(J1-Pad6)*%
X155192600Y-88911499D03*
%TO.P,J1,5*%
%TO.N,Net-(J1-Pad5)*%
X156192600Y-88911499D03*
%TO.P,J1,3*%
%TO.N,Net-(J1-Pad3)*%
X158192600Y-88911499D03*
%TO.P,J1,4*%
%TO.N,Net-(J1-Pad4)*%
X157192600Y-88911499D03*
%TO.P,J1,1*%
%TO.N,Net-(J1-Pad1)*%
X160192600Y-88911499D03*
%TO.P,J1,2*%
%TO.N,Net-(J1-Pad2)*%
X159192600Y-88911499D03*
D36*
%TO.P,J1,*%
%TO.N,*%
X161192600Y-86811499D03*
%TD*%
D38*
%TO.P,J2,1*%
%TO.N,/UAS_DriverOUT1*%
X88113000Y-68394999D03*
%TO.P,J2,2*%
%TO.N,/UAS_DriverOUT2*%
X88113000Y-70394999D03*
D39*
%TO.P,J2,S2*%
%TO.N,N/C*%
X83663000Y-72744999D03*
%TO.P,J2,S1*%
X83663000Y-66044999D03*
%TD*%
%TO.P,J3,S1*%
%TO.N,N/C*%
X83663000Y-79138332D03*
%TO.P,J3,S2*%
X83663000Y-85838332D03*
D38*
%TO.P,J3,2*%
%TO.N,/Link_DriverOUT2*%
X88113000Y-83488332D03*
%TO.P,J3,1*%
%TO.N,/Link_DriverOUT1*%
X88113000Y-81488332D03*
%TD*%
D39*
%TO.P,J4,S1*%
%TO.N,N/C*%
X83625000Y-92231665D03*
%TO.P,J4,S2*%
X83625000Y-98931665D03*
D38*
%TO.P,J4,2*%
%TO.N,/LockA_DriverOUT2*%
X88075000Y-96581665D03*
%TO.P,J4,1*%
%TO.N,/LockA_DriverOUT1*%
X88075000Y-94581665D03*
%TD*%
%TO.P,J5,1*%
%TO.N,/LockB_DriverOUT1*%
X88085000Y-107674999D03*
%TO.P,J5,2*%
%TO.N,/LockB_DriverOUT2*%
X88085000Y-109674999D03*
D39*
%TO.P,J5,S2*%
%TO.N,N/C*%
X83635000Y-112024999D03*
%TO.P,J5,S1*%
X83635000Y-105324999D03*
%TD*%
%TO.P,J6,S1*%
%TO.N,N/C*%
X181499600Y-125396999D03*
%TO.P,J6,S2*%
X181499600Y-118696999D03*
D38*
%TO.P,J6,2*%
%TO.N,GND*%
X177049600Y-121046999D03*
%TO.P,J6,1*%
%TO.N,/S1_Link*%
X177049600Y-123046999D03*
%TD*%
D39*
%TO.P,J7,S1*%
%TO.N,N/C*%
X181525000Y-113585999D03*
%TO.P,J7,S2*%
X181525000Y-106885999D03*
D38*
%TO.P,J7,2*%
%TO.N,GND*%
X177075000Y-109235999D03*
%TO.P,J7,1*%
%TO.N,/S1_Link*%
X177075000Y-111235999D03*
%TD*%
%TO.P,J8,1*%
%TO.N,/S2_Door*%
X177075000Y-99424999D03*
%TO.P,J8,2*%
%TO.N,GND*%
X177075000Y-97424999D03*
D39*
%TO.P,J8,S2*%
%TO.N,N/C*%
X181525000Y-95074999D03*
%TO.P,J8,S1*%
X181525000Y-101774999D03*
%TD*%
%TO.P,J9,S1*%
%TO.N,N/C*%
X181525000Y-89963999D03*
%TO.P,J9,S2*%
X181525000Y-83263999D03*
D38*
%TO.P,J9,2*%
%TO.N,GND*%
X177075000Y-85613999D03*
%TO.P,J9,1*%
%TO.N,/S2_Door*%
X177075000Y-87613999D03*
%TD*%
%TO.P,J10,1*%
%TO.N,/S3_UAS*%
X177075000Y-75802999D03*
%TO.P,J10,2*%
%TO.N,GND*%
X177075000Y-73802999D03*
D39*
%TO.P,J10,S2*%
%TO.N,N/C*%
X181525000Y-71452999D03*
%TO.P,J10,S1*%
X181525000Y-78152999D03*
%TD*%
D40*
%TO.P,R1,1*%
%TO.N,Net-(A1-Pad4)*%
X106654600Y-63731799D03*
%TO.P,R1,2*%
%TO.N,GND*%
X106654600Y-62861799D03*
%TD*%
%TO.P,R2,2*%
%TO.N,GND*%
X106730800Y-76145999D03*
%TO.P,R2,1*%
%TO.N,Net-(A2-Pad4)*%
X106730800Y-77015999D03*
%TD*%
%TO.P,R3,1*%
%TO.N,Net-(A3-Pad4)*%
X106705400Y-90325599D03*
%TO.P,R3,2*%
%TO.N,GND*%
X106705400Y-89455599D03*
%TD*%
%TO.P,R4,2*%
%TO.N,GND*%
X106730800Y-102679499D03*
%TO.P,R4,1*%
%TO.N,Net-(A4-Pad4)*%
X106730800Y-103549499D03*
%TD*%
D41*
%TO.N,*%
X168275000Y-136524999D03*
X168275000Y-60324999D03*
X92075000Y-60324999D03*
X92075000Y-136524999D03*
D42*
%TO.N,GND*%
X175425000Y-97424999D03*
X178685000Y-85624999D03*
X175425000Y-85594999D03*
X178715000Y-73814999D03*
X175435000Y-73804999D03*
X178665000Y-121034999D03*
X175425000Y-121054999D03*
X178685000Y-109244999D03*
X175465000Y-109254999D03*
X178675000Y-97434999D03*
X101635000Y-66658999D03*
X101635000Y-65658999D03*
X102835000Y-64658999D03*
X102835000Y-66658999D03*
X102835000Y-65658999D03*
X101635000Y-64658999D03*
X101635000Y-79951665D03*
X101635000Y-78951665D03*
X102835000Y-77951665D03*
X102835000Y-79951665D03*
X102835000Y-78951665D03*
X101635000Y-77951665D03*
X101635000Y-93244331D03*
X101635000Y-92244331D03*
X102835000Y-91244331D03*
X102835000Y-93244331D03*
X102835000Y-92244331D03*
X101635000Y-91244331D03*
X101635000Y-106536999D03*
X102835000Y-105536999D03*
X102835000Y-104536999D03*
X102835000Y-106536999D03*
X101635000Y-105536999D03*
X101635000Y-104536999D03*
X155555000Y-123834999D03*
X158225000Y-123854999D03*
X158095000Y-121294999D03*
X107205000Y-62584999D03*
X96510000Y-63689999D03*
X97195000Y-74189999D03*
X97215000Y-72939999D03*
X97295000Y-99664999D03*
X98585000Y-92914999D03*
X96475000Y-90319999D03*
X96240000Y-103629999D03*
X107265000Y-76114999D03*
X98575000Y-79604999D03*
X96410000Y-77044999D03*
X155525000Y-121264999D03*
X156845000Y-122554999D03*
X152400000Y-55879999D03*
X160020000Y-55879999D03*
X163830000Y-57784999D03*
X163195000Y-66039999D03*
X148590000Y-69214999D03*
X98404680Y-106182159D03*
X107185000Y-89204999D03*
X98565000Y-66274999D03*
X97235000Y-59424999D03*
X97235000Y-60394999D03*
X107845000Y-145274999D03*
X97285000Y-100674999D03*
X97225000Y-86284999D03*
X97215000Y-87344999D03*
X106155000Y-67564999D03*
X106065000Y-80834999D03*
X106155000Y-94154999D03*
X107325000Y-102634999D03*
X106165000Y-107474999D03*
%TO.N,/UAS_DriverIN2*%
X112125000Y-66324999D03*
X119755000Y-63524999D03*
%TO.N,/UAS_DriverIN1*%
X112125000Y-65024999D03*
X119657340Y-61887339D03*
%TO.N,/Link_DriverIN1*%
X119625000Y-78184999D03*
X112175000Y-78184999D03*
%TO.N,/Link_DriverIN2*%
X112025000Y-79644999D03*
X119615000Y-79654999D03*
%TO.N,/LockA_DriverIN2*%
X112075000Y-92899999D03*
X119705000Y-90329999D03*
%TO.N,/LockA_DriverIN1*%
X112050000Y-91624999D03*
X119705000Y-88729999D03*
%TO.N,/LockB_DriverIN1*%
X112075000Y-104874999D03*
X119775000Y-102134999D03*
%TO.N,/LockB_DriverIN2*%
X112050000Y-106174999D03*
X119675000Y-103854999D03*
%TD*%
D43*
%TO.N,/UAS_DriverOUT1*%
X93075000Y-68394999D02*
X88113000Y-68394999D01*
X96446000Y-65023999D02*
X93075000Y-68394999D01*
X99360000Y-65023999D02*
X96446000Y-65023999D01*
D44*
%TO.N,+12V*%
X102380998Y-99904999D02*
X102077000Y-99904999D01*
D45*
X101342500Y-120642999D02*
X108842500Y-120642999D01*
D46*
X117374500Y-69024499D02*
X115563000Y-67212999D01*
D43*
X138366500Y-69024499D02*
X117374500Y-69024499D01*
D47*
X102077000Y-100158999D02*
X102507000Y-99728999D01*
D43*
X111975000Y-59849999D02*
X115784999Y-56040000D01*
X98749500Y-63750499D02*
X98208001Y-63750499D01*
X102650000Y-59849999D02*
X98749500Y-63750499D01*
X111975000Y-59849999D02*
X102650000Y-59849999D01*
X111640000Y-73434999D02*
X115184999Y-69890000D01*
X102971666Y-73434999D02*
X111640000Y-73434999D01*
X99360000Y-77046665D02*
X102971666Y-73434999D01*
X99100669Y-90359330D02*
X98156001Y-90359330D01*
X102725000Y-86734999D02*
X99100669Y-90359330D01*
X111390000Y-86734999D02*
X102725000Y-86734999D01*
X115784999Y-82340000D02*
X111390000Y-86734999D01*
X111415000Y-100134999D02*
X115315001Y-96234998D01*
X102857000Y-100134999D02*
X111415000Y-100134999D01*
X99360000Y-103631999D02*
X102857000Y-100134999D01*
X99360000Y-77046665D02*
X98146666Y-77046665D01*
D47*
X102387000Y-73028999D02*
X101957000Y-73458999D01*
D43*
X97821001Y-103631999D02*
X97821001Y-103638999D01*
X99360000Y-103631999D02*
X97821001Y-103631999D01*
D45*
X110489317Y-120642999D02*
X115784999Y-115347317D01*
X115784999Y-51817800D02*
X115784999Y-115347317D01*
X117107600Y-50495199D02*
X115784999Y-51817800D01*
X108842500Y-120642999D02*
X110489317Y-120642999D01*
D44*
%TO.N,GND*%
X106928200Y-62861799D02*
X107205000Y-62584999D01*
X106654600Y-62861799D02*
X106928200Y-62861799D01*
X96560500Y-63740499D02*
X96510000Y-63689999D01*
X97048000Y-63740499D02*
X96560500Y-63740499D01*
X98620668Y-92879331D02*
X98585000Y-92914999D01*
X99535000Y-92879331D02*
X98620668Y-92879331D01*
X96488500Y-90333499D02*
X96475000Y-90319999D01*
X97006000Y-90333499D02*
X96488500Y-90333499D01*
X96249000Y-103608999D02*
X96240000Y-103599999D01*
X96851000Y-103608999D02*
X96249000Y-103608999D01*
X107234000Y-76145999D02*
X107265000Y-76114999D01*
X106730800Y-76145999D02*
X107234000Y-76145999D01*
X98593334Y-79586665D02*
X98575000Y-79604999D01*
X99535000Y-79586665D02*
X98593334Y-79586665D01*
X156815000Y-122554999D02*
X155525000Y-121264999D01*
X156845000Y-122554999D02*
X156815000Y-122554999D01*
X152096000Y-55575999D02*
X152400000Y-55879999D01*
X151270000Y-55575999D02*
X152096000Y-55575999D01*
X163355000Y-57309999D02*
X163830000Y-57784999D01*
X163355000Y-56370999D02*
X163355000Y-57309999D01*
X163455000Y-66299999D02*
X163195000Y-66039999D01*
X163455000Y-67700999D02*
X163455000Y-66299999D01*
X149065000Y-68739999D02*
X148590000Y-69214999D01*
X149065000Y-67850999D02*
X149065000Y-68739999D01*
X177075000Y-97424999D02*
X176405000Y-97424999D01*
X177049600Y-121046999D02*
X176707000Y-121046999D01*
D47*
X106934400Y-89455599D02*
X107185000Y-89204999D01*
X106705400Y-89455599D02*
X106934400Y-89455599D01*
X96439000Y-77073999D02*
X96410000Y-77044999D01*
X96981000Y-77073999D02*
X96439000Y-77073999D01*
X98584000Y-66293999D02*
X98565000Y-66274999D01*
X99535000Y-66293999D02*
X98584000Y-66293999D01*
D44*
X107754600Y-145365399D02*
X107845000Y-145274999D01*
X107754600Y-145938199D02*
X107754600Y-145365399D01*
X99349840Y-106182159D02*
X99360000Y-106171999D01*
X98404680Y-106182159D02*
X99349840Y-106182159D01*
D47*
X98205000Y-60394999D02*
X98725000Y-59874999D01*
X97235000Y-60394999D02*
X98205000Y-60394999D01*
X98275000Y-59424999D02*
X98725000Y-59874999D01*
X97235000Y-59424999D02*
X98275000Y-59424999D01*
X98138000Y-72939999D02*
X98657000Y-73458999D01*
X97215000Y-72939999D02*
X98138000Y-72939999D01*
X97926000Y-74189999D02*
X98657000Y-73458999D01*
X97195000Y-74189999D02*
X97926000Y-74189999D01*
X98243000Y-86284999D02*
X98692000Y-86733999D01*
X97225000Y-86284999D02*
X98243000Y-86284999D01*
X98081000Y-87344999D02*
X98692000Y-86733999D01*
X97215000Y-87344999D02*
X98081000Y-87344999D01*
X98283000Y-99664999D02*
X98777000Y-100158999D01*
X97295000Y-99664999D02*
X98283000Y-99664999D01*
X98261000Y-100674999D02*
X98777000Y-100158999D01*
X97285000Y-100674999D02*
X98261000Y-100674999D01*
D44*
X175484000Y-109235999D02*
X175465000Y-109254999D01*
X177075000Y-109235999D02*
X175484000Y-109235999D01*
X177084000Y-109244999D02*
X177075000Y-109235999D01*
X178685000Y-109244999D02*
X177084000Y-109244999D01*
X177056000Y-85594999D02*
X177075000Y-85613999D01*
X175425000Y-85594999D02*
X177056000Y-85594999D01*
X177086000Y-85624999D02*
X177075000Y-85613999D01*
X178685000Y-85624999D02*
X177086000Y-85624999D01*
X177073000Y-73804999D02*
X177075000Y-73802999D01*
X175435000Y-73804999D02*
X177073000Y-73804999D01*
X177087000Y-73814999D02*
X177075000Y-73802999D01*
X178715000Y-73814999D02*
X177087000Y-73814999D01*
X177061600Y-121034999D02*
X177049600Y-121046999D01*
X178665000Y-121034999D02*
X177061600Y-121034999D01*
X177041600Y-121054999D02*
X177049600Y-121046999D01*
X175425000Y-121054999D02*
X177041600Y-121054999D01*
X177065000Y-97434999D02*
X177075000Y-97424999D01*
X177085000Y-97434999D02*
X177075000Y-97424999D01*
X178675000Y-97434999D02*
X177085000Y-97434999D01*
X175425000Y-97424999D02*
X177075000Y-97424999D01*
X159354000Y-55879999D02*
X159050000Y-55575999D01*
X160020000Y-55879999D02*
X159354000Y-55879999D01*
X106154000Y-67563999D02*
X106155000Y-67564999D01*
X104935000Y-67563999D02*
X106154000Y-67563999D01*
X104935000Y-80856665D02*
X106043334Y-80856665D01*
X106043334Y-80856665D02*
X106065000Y-80834999D01*
X104935000Y-94149331D02*
X104940668Y-94154999D01*
X104940668Y-94154999D02*
X106155000Y-94154999D01*
X106730800Y-102679499D02*
X107280500Y-102679499D01*
X107280500Y-102679499D02*
X107325000Y-102634999D01*
X104935000Y-107441999D02*
X104968000Y-107474999D01*
X104968000Y-107474999D02*
X106165000Y-107474999D01*
%TO.N,/UAS_DriverIN2*%
X148640800Y-83108799D02*
X149072600Y-83108799D01*
X105141000Y-66324999D02*
X105110000Y-66293999D01*
X112125000Y-66324999D02*
X105141000Y-66324999D01*
X146958800Y-83108799D02*
X149072600Y-83108799D01*
X143850000Y-79999999D02*
X146958800Y-83108799D01*
X139400000Y-57299999D02*
X143850000Y-61749999D01*
X119755000Y-63524999D02*
X119755000Y-63514999D01*
X143850000Y-61749999D02*
X143850000Y-79999999D01*
X125970000Y-57299999D02*
X139400000Y-57299999D01*
X119755000Y-63514999D02*
X125970000Y-57299999D01*
%TO.N,Net-(A1-Pad4)*%
X104957200Y-63731799D02*
X104935000Y-63753999D01*
X106654600Y-63731799D02*
X104957200Y-63731799D01*
%TO.N,/UAS_DriverIN1*%
X105111000Y-65024999D02*
X105110000Y-65023999D01*
X112125000Y-65024999D02*
X105111000Y-65024999D01*
X125294680Y-56249999D02*
X119657340Y-61887339D01*
X140100000Y-56249999D02*
X125294680Y-56249999D01*
X145250000Y-61399999D02*
X140100000Y-56249999D01*
X145250000Y-79319999D02*
X145250000Y-61399999D01*
X146498800Y-80568799D02*
X145250000Y-79319999D01*
X149072600Y-80568799D02*
X146498800Y-80568799D01*
D43*
%TO.N,/UAS_DriverOUT2*%
X94335000Y-70394999D02*
X88113000Y-70394999D01*
X97166000Y-67563999D02*
X94335000Y-70394999D01*
X99360000Y-67563999D02*
X97166000Y-67563999D01*
%TO.N,/Link_DriverOUT2*%
X94591667Y-83488332D02*
X88113000Y-83488332D01*
X97223334Y-80856665D02*
X94591667Y-83488332D01*
X99360000Y-80856665D02*
X97223334Y-80856665D01*
D44*
%TO.N,/Link_DriverIN1*%
X105066666Y-78184999D02*
X104935000Y-78316665D01*
X112175000Y-78184999D02*
X105066666Y-78184999D01*
X138660000Y-78184999D02*
X146123800Y-85648799D01*
X146123800Y-85648799D02*
X149072600Y-85648799D01*
X119655000Y-78184999D02*
X138660000Y-78184999D01*
X119635000Y-78204999D02*
X119655000Y-78184999D01*
%TO.N,Net-(A2-Pad4)*%
X104965666Y-77015999D02*
X104935000Y-77046665D01*
X106730800Y-77015999D02*
X104965666Y-77015999D01*
%TO.N,/Link_DriverIN2*%
X111966666Y-79586665D02*
X112025000Y-79644999D01*
X104935000Y-79586665D02*
X111966666Y-79586665D01*
X146313800Y-88188799D02*
X137770000Y-79644999D01*
X137770000Y-79644999D02*
X119625000Y-79644999D01*
X149072600Y-88188799D02*
X146313800Y-88188799D01*
X119625000Y-79644999D02*
X119615000Y-79654999D01*
D43*
%TO.N,/Link_DriverOUT1*%
X93551667Y-81488332D02*
X88113000Y-81488332D01*
X96535001Y-78504998D02*
X93551667Y-81488332D01*
X98928333Y-78504998D02*
X96535001Y-78504998D01*
X99116666Y-78316665D02*
X98928333Y-78504998D01*
X99360000Y-78316665D02*
X99116666Y-78316665D01*
D47*
%TO.N,/LockA_DriverOUT1*%
X88974000Y-94149331D02*
X88863000Y-94260331D01*
D43*
X93358334Y-94581665D02*
X88075000Y-94581665D01*
X96330668Y-91609331D02*
X93358334Y-94581665D01*
X99360000Y-91609331D02*
X96330668Y-91609331D01*
D44*
%TO.N,/LockA_DriverIN2*%
X105130668Y-92899999D02*
X105110000Y-92879331D01*
X112075000Y-92899999D02*
X105130668Y-92899999D01*
X146043800Y-93268799D02*
X143125000Y-90349999D01*
X119725000Y-90349999D02*
X119705000Y-90329999D01*
X149072600Y-93268799D02*
X146043800Y-93268799D01*
X143125000Y-90349999D02*
X119725000Y-90349999D01*
%TO.N,Net-(A3-Pad4)*%
X104948732Y-90325599D02*
X104935000Y-90339331D01*
X106705400Y-90325599D02*
X104948732Y-90325599D01*
%TO.N,/LockA_DriverIN1*%
X105125668Y-91624999D02*
X105110000Y-91609331D01*
X112050000Y-91624999D02*
X105125668Y-91624999D01*
X144175000Y-88749999D02*
X119725000Y-88749999D01*
X119725000Y-88749999D02*
X119705000Y-88729999D01*
X146153800Y-90728799D02*
X144175000Y-88749999D01*
X149072600Y-90728799D02*
X146153800Y-90728799D01*
D43*
%TO.N,/LockA_DriverOUT2*%
X94488334Y-96581665D02*
X88075000Y-96581665D01*
X96920668Y-94149331D02*
X94488334Y-96581665D01*
X99360000Y-94149331D02*
X96920668Y-94149331D01*
%TO.N,/LockB_DriverOUT2*%
X94745000Y-109674999D02*
X88085000Y-109674999D01*
X96978000Y-107441999D02*
X94745000Y-109674999D01*
X99360000Y-107441999D02*
X96978000Y-107441999D01*
D44*
%TO.N,/LockB_DriverIN1*%
X112048000Y-104901999D02*
X112075000Y-104874999D01*
X105110000Y-104901999D02*
X112048000Y-104901999D01*
X119775000Y-102134999D02*
X119785000Y-102134999D01*
X146183800Y-95808799D02*
X149072600Y-95808799D01*
X143225000Y-92849999D02*
X146183800Y-95808799D01*
X129070000Y-92849999D02*
X143225000Y-92849999D01*
X119785000Y-102134999D02*
X129070000Y-92849999D01*
%TO.N,Net-(A4-Pad4)*%
X104954000Y-103612999D02*
X104935000Y-103631999D01*
D47*
X106680000Y-103612999D02*
X104954000Y-103612999D01*
D44*
%TO.N,/LockB_DriverIN2*%
X105113000Y-106174999D02*
X105110000Y-106171999D01*
X112050000Y-106174999D02*
X105113000Y-106174999D01*
X119675000Y-103854999D02*
X119675000Y-103844999D01*
X129395000Y-94124999D02*
X142500000Y-94124999D01*
X142500000Y-94124999D02*
X146723800Y-98348799D01*
X146723800Y-98348799D02*
X149072600Y-98348799D01*
X119675000Y-103844999D02*
X129395000Y-94124999D01*
D43*
%TO.N,/LockB_DriverOUT1*%
X96388000Y-104901999D02*
X93615000Y-107674999D01*
X93615000Y-107674999D02*
X88085000Y-107674999D01*
X99360000Y-104901999D02*
X96388000Y-104901999D01*
D44*
%TO.N,/Alt_SDI*%
X171668638Y-103018637D02*
X166998800Y-98348799D01*
X166998800Y-98348799D02*
X164312600Y-98348799D01*
X171592438Y-127736599D02*
X171668638Y-105790999D01*
X171592438Y-128382561D02*
X171592438Y-127736599D01*
X168606200Y-131368799D02*
X171592438Y-128382561D01*
X144625000Y-134574999D02*
X147831200Y-131368799D01*
X171668638Y-105790999D02*
X171668638Y-103018637D01*
X137496000Y-134574999D02*
X144625000Y-134574999D01*
X147831200Y-131368799D02*
X168606200Y-131368799D01*
X137414000Y-134492999D02*
X137496000Y-134574999D01*
%TO.N,+5V*%
X100501600Y-143628399D02*
X100501600Y-146938999D01*
X101342500Y-142787499D02*
X100501600Y-143628399D01*
X101342500Y-140642999D02*
X101342500Y-142787499D01*
%TO.N,/Alt_SCK*%
X148075000Y-132774999D02*
X141277000Y-139572999D01*
X141277000Y-139572999D02*
X137414000Y-139572999D01*
X168925000Y-132774999D02*
X148075000Y-132774999D01*
X172666957Y-101196956D02*
X172666957Y-129033042D01*
X167278800Y-95808799D02*
X172666957Y-101196956D01*
X172666957Y-129033042D02*
X168925000Y-132774999D01*
X164312600Y-95808799D02*
X167278800Y-95808799D01*
%TO.N,/RF_CH1*%
X145941200Y-100888799D02*
X149072600Y-100888799D01*
X144915000Y-101914999D02*
X145941200Y-100888799D01*
X144925000Y-101924999D02*
X144915000Y-101914999D01*
X142122600Y-101924999D02*
X144925000Y-101924999D01*
%TO.N,/RF_CH3*%
X142122600Y-107004999D02*
X144905000Y-107004999D01*
X145941200Y-105968799D02*
X149072600Y-105968799D01*
X144905000Y-107004999D02*
X145941200Y-105968799D01*
%TO.N,/RF_CH2*%
X142122600Y-104464999D02*
X145185000Y-104464999D01*
X146221200Y-103428799D02*
X149072600Y-103428799D01*
X145185000Y-104464999D02*
X146221200Y-103428799D01*
%TO.N,/RF_CH4*%
X146141200Y-108508799D02*
X149072600Y-108508799D01*
X145105000Y-109544999D02*
X146141200Y-108508799D01*
X142122600Y-109544999D02*
X145105000Y-109544999D01*
D43*
%TO.N,/3.3V_Coin*%
X164515000Y-114574999D02*
X167830000Y-117889999D01*
X167830000Y-117889999D02*
X167830000Y-122554999D01*
X145860000Y-122554999D02*
X145860000Y-117859999D01*
X145860000Y-117859999D02*
X149145000Y-114574999D01*
X151575000Y-111086399D02*
X151612600Y-111048799D01*
X149145000Y-114574999D02*
X151525000Y-114574999D01*
X151525000Y-114574999D02*
X164515000Y-114574999D01*
X151612600Y-111048799D02*
X151695000Y-111131199D01*
X151585000Y-111076399D02*
X151612600Y-111048799D01*
X151585000Y-113114999D02*
X151585000Y-111076399D01*
X150125000Y-114574999D02*
X151585000Y-113114999D01*
X149145000Y-114574999D02*
X150125000Y-114574999D01*
D44*
%TO.N,/S1_Link*%
X175291476Y-111235999D02*
X177075000Y-111235999D01*
X173635000Y-94414999D02*
X173635000Y-109579523D01*
X169948800Y-90728799D02*
X173635000Y-94414999D01*
X173635000Y-109579523D02*
X175291476Y-111235999D01*
X164312600Y-90728799D02*
X169948800Y-90728799D01*
X173765000Y-114545999D02*
X177075000Y-111235999D01*
X173765000Y-121362399D02*
X173765000Y-114545999D01*
X175449600Y-123046999D02*
X173765000Y-121362399D01*
X177049600Y-123046999D02*
X175449600Y-123046999D01*
%TO.N,/S2_Door*%
X177075000Y-87613999D02*
X175936400Y-87613999D01*
X177075000Y-99424999D02*
X176292000Y-99424999D01*
X170761000Y-87613999D02*
X177075000Y-87613999D01*
X170186200Y-88188799D02*
X170761000Y-87613999D01*
X164312600Y-88188799D02*
X170186200Y-88188799D01*
X175828200Y-99424999D02*
X177075000Y-99424999D01*
X177075000Y-87613999D02*
X174455000Y-90233999D01*
X174455000Y-90233999D02*
X174455000Y-98051799D01*
X174455000Y-98051799D02*
X175828200Y-99424999D01*
%TO.N,/S3_UAS*%
X174158400Y-75802999D02*
X177075000Y-75802999D01*
X172780700Y-77180699D02*
X174158400Y-75802999D01*
X172780700Y-82819299D02*
X172780700Y-77180699D01*
X169951200Y-85648799D02*
X172780700Y-82819299D01*
X164312600Y-85648799D02*
X169951200Y-85648799D01*
%TO.N,Net-(Q1-Pad1)*%
X107835199Y-147918798D02*
X107754600Y-147838199D01*
X112242600Y-147918798D02*
X107835199Y-147918798D01*
%TO.N,/Relay_Signal*%
X119385000Y-138732199D02*
X112242600Y-146213200D01*
X119385000Y-112464999D02*
X119385000Y-138732199D01*
X121700000Y-110149999D02*
X119385000Y-112464999D01*
X138960000Y-110149999D02*
X121700000Y-110149999D01*
X144900000Y-112574999D02*
X141385000Y-112574999D01*
X146426200Y-111048799D02*
X144900000Y-112574999D01*
X149072600Y-111048799D02*
X146426200Y-111048799D01*
X141385000Y-112574999D02*
X138960000Y-110149999D01*
D45*
%TO.N,/Door_RelayOut1*%
X86765000Y-119464999D02*
X86715000Y-119414999D01*
X86765000Y-128464999D02*
X86765000Y-119464999D01*
X96907000Y-115642999D02*
X108842500Y-115642999D01*
X93135000Y-119414999D02*
X96907000Y-115642999D01*
X86715000Y-119414999D02*
X93135000Y-119414999D01*
D44*
%TO.N,/RF_CH6*%
X135092600Y-117617399D02*
X135092600Y-111454999D01*
X143912600Y-129387599D02*
X135092600Y-120567599D01*
X168937400Y-129387599D02*
X143912600Y-129387599D01*
X170517919Y-127807080D02*
X168937400Y-129387599D01*
X135092600Y-120567599D02*
X135092600Y-117617399D01*
X170517919Y-126618999D02*
X170517919Y-127807080D01*
X170594119Y-112104118D02*
X170594119Y-115036599D01*
X170594119Y-115036599D02*
X170517919Y-126618999D01*
X166998800Y-108508799D02*
X170594119Y-112104118D01*
X164312600Y-108508799D02*
X166998800Y-108508799D01*
%TO.N,/RF_CH5*%
X164499800Y-111235999D02*
X164312600Y-111048799D01*
X137092600Y-117559999D02*
X137092600Y-111454999D01*
X144793800Y-128193799D02*
X137092600Y-120492599D01*
X168402000Y-128193799D02*
X144793800Y-128193799D01*
X169519600Y-127076199D02*
X168402000Y-128193799D01*
X169519600Y-113629599D02*
X169519600Y-127076199D01*
X137092600Y-120492599D02*
X137092600Y-117559999D01*
X166938800Y-111048799D02*
X169519600Y-113629599D01*
X164312600Y-111048799D02*
X166938800Y-111048799D01*
%TO.N,Net-(J1-Pad8)*%
X151410000Y-74834999D02*
X151410000Y-68330999D01*
X153192600Y-76617599D02*
X151410000Y-74834999D01*
X153192600Y-88911499D02*
X153192600Y-76617599D01*
%TO.N,Net-(J1-Pad7)*%
X152510000Y-74834999D02*
X152510000Y-68330999D01*
X154192600Y-76517599D02*
X152510000Y-74834999D01*
X154192600Y-88911499D02*
X154192600Y-76517599D01*
%TO.N,Net-(J1-Pad6)*%
X153610000Y-74834999D02*
X153610000Y-68330999D01*
X155192600Y-76417599D02*
X153610000Y-74834999D01*
X155192600Y-88911499D02*
X155192600Y-76417599D01*
%TO.N,Net-(J1-Pad5)*%
X154710000Y-74759999D02*
X154710000Y-68330999D01*
X156192600Y-76242599D02*
X154710000Y-74759999D01*
X156192600Y-88911499D02*
X156192600Y-76242599D01*
%TO.N,Net-(J1-Pad3)*%
X156910000Y-74634999D02*
X156910000Y-68330999D01*
X158192600Y-75917599D02*
X156910000Y-74634999D01*
X158192600Y-88911499D02*
X158192600Y-75917599D01*
%TO.N,Net-(J1-Pad4)*%
X155810000Y-74784999D02*
X155810000Y-68330999D01*
X157192600Y-76167599D02*
X155810000Y-74784999D01*
X157192600Y-88911499D02*
X157192600Y-76167599D01*
%TO.N,Net-(J1-Pad1)*%
X159110000Y-74609999D02*
X159110000Y-68330999D01*
X160192600Y-75692599D02*
X159110000Y-74609999D01*
X160192600Y-88911499D02*
X160192600Y-75692599D01*
%TO.N,Net-(J1-Pad2)*%
X158010000Y-74684999D02*
X158010000Y-68330999D01*
X159192600Y-75867599D02*
X158010000Y-74684999D01*
X159192600Y-88911499D02*
X159192600Y-75867599D01*
D48*
%TO.N,Net-(X3-Pad2)*%
X124637800Y-50164999D02*
X124307600Y-50495199D01*
X135675000Y-50164999D02*
X124637800Y-50164999D01*
D44*
%TO.N,Net-(D1-Pad1)*%
X105475000Y-144010499D02*
X108842500Y-140642999D01*
X105475000Y-146808599D02*
X105475000Y-144010499D01*
X105554600Y-146888199D02*
X105475000Y-146808599D01*
X102967600Y-147954999D02*
X102901600Y-147888999D01*
X104455000Y-147954999D02*
X102967600Y-147954999D01*
X105521800Y-146888199D02*
X104455000Y-147954999D01*
X105554600Y-146888199D02*
X105521800Y-146888199D01*
%TD*%
M02*
