M48
; DRILL file {KiCad (5.1.8)-1} date 01/10/21 21:03:16
; FORMAT={-:-/ absolute / inch / decimal}
; #@! TF.CreationDate,2021-01-10T21:03:16-08:00
; #@! TF.GenerationSoftware,Kicad,Pcbnew,(5.1.8)-1
FMAT,2
INCH
T1C0.0157
T2C0.0217
T3C0.0300
T4C0.0315
T5C0.0402
T6C0.0984
T7C0.1063
T8C0.1181
T9C0.1772
%
G90
G05
T1
X3.789Y-4.0799
X3.7957Y-3.0333
X3.7982Y-3.5559
X3.7996Y-2.5075
X3.8266Y-2.9209
X3.8274Y-2.8717
X3.8274Y-3.4388
X3.8278Y-3.397
X3.8281Y-2.3396
X3.8281Y-2.3778
X3.8301Y-3.9636
X3.8305Y-3.9238
X3.8742Y-4.1804
X3.8805Y-2.6093
X3.8809Y-3.1341
X3.8813Y-3.6581
X4.0014Y-2.5456
X4.0014Y-2.585
X4.0014Y-2.6244
X4.0014Y-3.069
X4.0014Y-3.1083
X4.0014Y-3.1477
X4.0014Y-3.5923
X4.0014Y-3.6317
X4.0014Y-3.671
X4.0014Y-4.1156
X4.0014Y-4.155
X4.0014Y-4.1944
X4.0486Y-2.5456
X4.0486Y-2.585
X4.0486Y-2.6244
X4.0486Y-3.069
X4.0486Y-3.1083
X4.0486Y-3.1477
X4.0486Y-3.5923
X4.0486Y-3.6317
X4.0486Y-3.671
X4.0486Y-4.1156
X4.0486Y-4.155
X4.0486Y-4.1944
X4.1758Y-3.1825
X4.1793Y-2.66
X4.1793Y-3.7069
X4.1797Y-4.2313
X4.2199Y-3.512
X4.2207Y-2.464
X4.223Y-2.9967
X4.2254Y-4.0407
X4.2459Y-5.7195
X4.4104Y-3.1356
X4.4114Y-3.6073
X4.4114Y-4.1801
X4.4124Y-3.6575
X4.4124Y-4.1289
X4.4144Y-2.56
X4.4144Y-2.6112
X4.4163Y-3.0781
X4.7093Y-3.136
X4.7096Y-3.0781
X4.7109Y-2.4365
X4.7116Y-4.0888
X4.7128Y-3.4933
X4.7128Y-3.5563
X4.7148Y-2.501
X4.7156Y-4.0211
X5.85Y-2.725
X6.0Y-2.2
X6.123Y-4.7742
X6.1242Y-4.8754
X6.175Y-4.825
X6.2242Y-4.7754
X6.2293Y-4.8762
X6.3Y-2.2
X6.425Y-2.6
X6.45Y-2.275
X6.9065Y-3.3699
X6.9065Y-3.8356
X6.9065Y-4.7659
X6.9069Y-2.9057
X6.9081Y-4.3014
X7.0341Y-4.7652
X7.0344Y-3.836
X7.0348Y-3.3711
X7.0348Y-4.301
X7.036Y-2.9061
X3.9899Y-4.5529
X3.9899Y-4.7497
X3.9899Y-4.9466
X3.9899Y-5.5371
X4.2851Y-4.5529
X4.2851Y-4.7497
X4.2851Y-4.9466
X4.2851Y-5.5371
T2
X4.8462Y-4.388
X4.9249Y-4.388
X5.0036Y-4.388
X5.0824Y-4.388
X5.1611Y-4.388
X5.2399Y-4.388
X5.3186Y-4.388
X5.3973Y-4.388
T3
X5.4475Y-2.5175
X5.4475Y-2.6175
X5.4475Y-2.7175
X5.4475Y-2.8175
X5.4479Y-2.9179
T4
X5.5954Y-3.8128
X5.5954Y-3.9128
X5.5954Y-4.0128
X5.5954Y-4.1128
X5.5954Y-4.2128
X5.5954Y-4.3128
X5.41Y-5.095
X5.41Y-5.195
X5.41Y-5.295
X5.41Y-5.395
X5.41Y-5.495
X5.41Y-5.595
X5.41Y-5.695
X5.41Y-5.795
T5
X5.869Y-3.072
X5.869Y-3.172
X5.869Y-3.272
X5.869Y-3.372
X5.869Y-3.472
X5.869Y-3.572
X5.869Y-3.672
X5.869Y-3.772
X5.869Y-3.872
X5.869Y-3.972
X5.869Y-4.072
X5.869Y-4.172
X5.869Y-4.272
X5.869Y-4.372
X5.969Y-4.372
X6.069Y-4.372
X6.169Y-4.372
X6.269Y-4.372
X6.369Y-4.372
X6.469Y-3.072
X6.469Y-3.172
X6.469Y-3.272
X6.469Y-3.372
X6.469Y-3.472
X6.469Y-3.572
X6.469Y-3.672
X6.469Y-3.772
X6.469Y-3.872
X6.469Y-3.972
X6.469Y-4.072
X6.469Y-4.172
X6.469Y-4.272
X6.469Y-4.372
T6
X4.965Y-5.12
X4.965Y-5.77
T7
X3.2191Y-5.0577
X3.4159Y-5.0577
X3.2171Y-4.7014
X3.414Y-4.7014
T8
X3.625Y-2.375
X3.625Y-5.375
X6.625Y-2.375
X6.625Y-5.375
X4.8877Y-2.8773
X5.4073Y-2.3577
T9
X5.3415Y-1.975
X5.625Y-1.975
X4.6105Y-1.988
X4.894Y-1.988
T0
M30
