G04 #@! TF.GenerationSoftware,KiCad,Pcbnew,(5.1.8)-1*
G04 #@! TF.CreationDate,2021-03-01T00:16:04-08:00*
G04 #@! TF.ProjectId,UAS,5541532e-6b69-4636-9164-5f7063625858,1*
G04 #@! TF.SameCoordinates,Original*
G04 #@! TF.FileFunction,Paste,Top*
G04 #@! TF.FilePolarity,Positive*
%FSLAX46Y46*%
G04 Gerber Fmt 4.6, Leading zero omitted, Abs format (unit mm)*
G04 Created by KiCad (PCBNEW (5.1.8)-1) date 2021-03-01 00:16:04*
%MOMM*%
%LPD*%
G01*
G04 APERTURE LIST*
%ADD10R,3.000000X1.500000*%
%ADD11R,1.500000X3.000000*%
%ADD12R,1.000000X2.700000*%
%ADD13R,1.800000X3.800000*%
%ADD14O,1.800000X3.500000*%
G04 APERTURE END LIST*
D10*
X166550000Y-111100000D03*
D11*
X140750000Y-111550000D03*
D10*
X166550000Y-107850000D03*
D11*
X137250000Y-111550000D03*
D12*
X133950000Y-82850000D03*
X131950000Y-82850000D03*
X135950000Y-82850000D03*
X137950000Y-82850000D03*
X129950000Y-82850000D03*
X127950000Y-82850000D03*
X139950000Y-82850000D03*
D13*
X142300000Y-78400000D03*
X125600000Y-78400000D03*
D14*
X164470000Y-87150000D03*
X161930000Y-87150000D03*
X159390000Y-87150000D03*
X156850000Y-87150000D03*
X154310000Y-87150000D03*
X151770000Y-87150000D03*
X149230000Y-87150000D03*
X146690000Y-87150000D03*
X164470000Y-99850000D03*
X161930000Y-99850000D03*
X159390000Y-99850000D03*
X156850000Y-99850000D03*
X154310000Y-99850000D03*
X151770000Y-99850000D03*
X149230000Y-99850000D03*
X146690000Y-99850000D03*
D11*
X128500000Y-118750000D03*
X125210000Y-118760000D03*
D12*
X155000000Y-82900000D03*
X153000000Y-82900000D03*
X157000000Y-82900000D03*
X159000000Y-82900000D03*
X151000000Y-82900000D03*
X149000000Y-82900000D03*
X161000000Y-82900000D03*
D13*
X163350000Y-78450000D03*
X146650000Y-78450000D03*
M02*
