G04 #@! TF.GenerationSoftware,KiCad,Pcbnew,(5.1.9)-1*
G04 #@! TF.CreationDate,2021-04-18T01:47:18-07:00*
G04 #@! TF.ProjectId,UAS_Teensy,5541535f-5465-4656-9e73-792e6b696361,rev?*
G04 #@! TF.SameCoordinates,Original*
G04 #@! TF.FileFunction,Soldermask,Top*
G04 #@! TF.FilePolarity,Negative*
%FSLAX46Y46*%
G04 Gerber Fmt 4.6, Leading zero omitted, Abs format (unit mm)*
G04 Created by KiCad (PCBNEW (5.1.9)-1) date 2021-04-18 01:47:18*
%MOMM*%
%LPD*%
G01*
G04 APERTURE LIST*
%ADD10C,1.900000*%
%ADD11C,3.940000*%
%ADD12C,2.000000*%
G04 APERTURE END LIST*
G36*
G01*
X120716000Y-102592000D02*
X120716000Y-99592000D01*
G75*
G02*
X120916000Y-99392000I200000J0D01*
G01*
X122416000Y-99392000D01*
G75*
G02*
X122616000Y-99592000I0J-200000D01*
G01*
X122616000Y-102592000D01*
G75*
G02*
X122416000Y-102792000I-200000J0D01*
G01*
X120916000Y-102792000D01*
G75*
G02*
X120716000Y-102592000I0J200000D01*
G01*
G37*
G36*
G01*
X83632000Y-102592000D02*
X83632000Y-99592000D01*
G75*
G02*
X83832000Y-99392000I200000J0D01*
G01*
X85332000Y-99392000D01*
G75*
G02*
X85532000Y-99592000I0J-200000D01*
G01*
X85532000Y-102592000D01*
G75*
G02*
X85332000Y-102792000I-200000J0D01*
G01*
X83832000Y-102792000D01*
G75*
G02*
X83632000Y-102592000I0J200000D01*
G01*
G37*
G36*
G01*
X124195000Y-63015000D02*
X121495000Y-63015000D01*
G75*
G02*
X121295000Y-62815000I0J200000D01*
G01*
X121295000Y-61815000D01*
G75*
G02*
X121495000Y-61615000I200000J0D01*
G01*
X124195000Y-61615000D01*
G75*
G02*
X124395000Y-61815000I0J-200000D01*
G01*
X124395000Y-62815000D01*
G75*
G02*
X124195000Y-63015000I-200000J0D01*
G01*
G37*
G36*
G01*
X120495000Y-64665000D02*
X118795000Y-64665000D01*
G75*
G02*
X118595000Y-64465000I0J200000D01*
G01*
X118595000Y-63865000D01*
G75*
G02*
X118795000Y-63665000I200000J0D01*
G01*
X120495000Y-63665000D01*
G75*
G02*
X120695000Y-63865000I0J-200000D01*
G01*
X120695000Y-64465000D01*
G75*
G02*
X120495000Y-64665000I-200000J0D01*
G01*
G37*
G36*
G01*
X120495000Y-65915000D02*
X118795000Y-65915000D01*
G75*
G02*
X118595000Y-65715000I0J200000D01*
G01*
X118595000Y-65115000D01*
G75*
G02*
X118795000Y-64915000I200000J0D01*
G01*
X120495000Y-64915000D01*
G75*
G02*
X120695000Y-65115000I0J-200000D01*
G01*
X120695000Y-65715000D01*
G75*
G02*
X120495000Y-65915000I-200000J0D01*
G01*
G37*
G36*
G01*
X120495000Y-68415000D02*
X118795000Y-68415000D01*
G75*
G02*
X118595000Y-68215000I0J200000D01*
G01*
X118595000Y-67615000D01*
G75*
G02*
X118795000Y-67415000I200000J0D01*
G01*
X120495000Y-67415000D01*
G75*
G02*
X120695000Y-67615000I0J-200000D01*
G01*
X120695000Y-68215000D01*
G75*
G02*
X120495000Y-68415000I-200000J0D01*
G01*
G37*
G36*
G01*
X120495000Y-67165000D02*
X118795000Y-67165000D01*
G75*
G02*
X118595000Y-66965000I0J200000D01*
G01*
X118595000Y-66365000D01*
G75*
G02*
X118795000Y-66165000I200000J0D01*
G01*
X120495000Y-66165000D01*
G75*
G02*
X120695000Y-66365000I0J-200000D01*
G01*
X120695000Y-66965000D01*
G75*
G02*
X120495000Y-67165000I-200000J0D01*
G01*
G37*
G36*
G01*
X124195000Y-70465000D02*
X121495000Y-70465000D01*
G75*
G02*
X121295000Y-70265000I0J200000D01*
G01*
X121295000Y-69265000D01*
G75*
G02*
X121495000Y-69065000I200000J0D01*
G01*
X124195000Y-69065000D01*
G75*
G02*
X124395000Y-69265000I0J-200000D01*
G01*
X124395000Y-70265000D01*
G75*
G02*
X124195000Y-70465000I-200000J0D01*
G01*
G37*
G36*
G01*
X84085000Y-69065000D02*
X86785000Y-69065000D01*
G75*
G02*
X86985000Y-69265000I0J-200000D01*
G01*
X86985000Y-70265000D01*
G75*
G02*
X86785000Y-70465000I-200000J0D01*
G01*
X84085000Y-70465000D01*
G75*
G02*
X83885000Y-70265000I0J200000D01*
G01*
X83885000Y-69265000D01*
G75*
G02*
X84085000Y-69065000I200000J0D01*
G01*
G37*
G36*
G01*
X87785000Y-67415000D02*
X89485000Y-67415000D01*
G75*
G02*
X89685000Y-67615000I0J-200000D01*
G01*
X89685000Y-68215000D01*
G75*
G02*
X89485000Y-68415000I-200000J0D01*
G01*
X87785000Y-68415000D01*
G75*
G02*
X87585000Y-68215000I0J200000D01*
G01*
X87585000Y-67615000D01*
G75*
G02*
X87785000Y-67415000I200000J0D01*
G01*
G37*
G36*
G01*
X87785000Y-66165000D02*
X89485000Y-66165000D01*
G75*
G02*
X89685000Y-66365000I0J-200000D01*
G01*
X89685000Y-66965000D01*
G75*
G02*
X89485000Y-67165000I-200000J0D01*
G01*
X87785000Y-67165000D01*
G75*
G02*
X87585000Y-66965000I0J200000D01*
G01*
X87585000Y-66365000D01*
G75*
G02*
X87785000Y-66165000I200000J0D01*
G01*
G37*
G36*
G01*
X87785000Y-63665000D02*
X89485000Y-63665000D01*
G75*
G02*
X89685000Y-63865000I0J-200000D01*
G01*
X89685000Y-64465000D01*
G75*
G02*
X89485000Y-64665000I-200000J0D01*
G01*
X87785000Y-64665000D01*
G75*
G02*
X87585000Y-64465000I0J200000D01*
G01*
X87585000Y-63865000D01*
G75*
G02*
X87785000Y-63665000I200000J0D01*
G01*
G37*
G36*
G01*
X87785000Y-64915000D02*
X89485000Y-64915000D01*
G75*
G02*
X89685000Y-65115000I0J-200000D01*
G01*
X89685000Y-65715000D01*
G75*
G02*
X89485000Y-65915000I-200000J0D01*
G01*
X87785000Y-65915000D01*
G75*
G02*
X87585000Y-65715000I0J200000D01*
G01*
X87585000Y-65115000D01*
G75*
G02*
X87785000Y-64915000I200000J0D01*
G01*
G37*
G36*
G01*
X84085000Y-61615000D02*
X86785000Y-61615000D01*
G75*
G02*
X86985000Y-61815000I0J-200000D01*
G01*
X86985000Y-62815000D01*
G75*
G02*
X86785000Y-63015000I-200000J0D01*
G01*
X84085000Y-63015000D01*
G75*
G02*
X83885000Y-62815000I0J200000D01*
G01*
X83885000Y-61815000D01*
G75*
G02*
X84085000Y-61615000I200000J0D01*
G01*
G37*
G36*
G01*
X79513000Y-86845000D02*
X82213000Y-86845000D01*
G75*
G02*
X82413000Y-87045000I0J-200000D01*
G01*
X82413000Y-88045000D01*
G75*
G02*
X82213000Y-88245000I-200000J0D01*
G01*
X79513000Y-88245000D01*
G75*
G02*
X79313000Y-88045000I0J200000D01*
G01*
X79313000Y-87045000D01*
G75*
G02*
X79513000Y-86845000I200000J0D01*
G01*
G37*
G36*
G01*
X83213000Y-85195000D02*
X84913000Y-85195000D01*
G75*
G02*
X85113000Y-85395000I0J-200000D01*
G01*
X85113000Y-85995000D01*
G75*
G02*
X84913000Y-86195000I-200000J0D01*
G01*
X83213000Y-86195000D01*
G75*
G02*
X83013000Y-85995000I0J200000D01*
G01*
X83013000Y-85395000D01*
G75*
G02*
X83213000Y-85195000I200000J0D01*
G01*
G37*
G36*
G01*
X83213000Y-83945000D02*
X84913000Y-83945000D01*
G75*
G02*
X85113000Y-84145000I0J-200000D01*
G01*
X85113000Y-84745000D01*
G75*
G02*
X84913000Y-84945000I-200000J0D01*
G01*
X83213000Y-84945000D01*
G75*
G02*
X83013000Y-84745000I0J200000D01*
G01*
X83013000Y-84145000D01*
G75*
G02*
X83213000Y-83945000I200000J0D01*
G01*
G37*
G36*
G01*
X83213000Y-81445000D02*
X84913000Y-81445000D01*
G75*
G02*
X85113000Y-81645000I0J-200000D01*
G01*
X85113000Y-82245000D01*
G75*
G02*
X84913000Y-82445000I-200000J0D01*
G01*
X83213000Y-82445000D01*
G75*
G02*
X83013000Y-82245000I0J200000D01*
G01*
X83013000Y-81645000D01*
G75*
G02*
X83213000Y-81445000I200000J0D01*
G01*
G37*
G36*
G01*
X83213000Y-82695000D02*
X84913000Y-82695000D01*
G75*
G02*
X85113000Y-82895000I0J-200000D01*
G01*
X85113000Y-83495000D01*
G75*
G02*
X84913000Y-83695000I-200000J0D01*
G01*
X83213000Y-83695000D01*
G75*
G02*
X83013000Y-83495000I0J200000D01*
G01*
X83013000Y-82895000D01*
G75*
G02*
X83213000Y-82695000I200000J0D01*
G01*
G37*
G36*
G01*
X79513000Y-79395000D02*
X82213000Y-79395000D01*
G75*
G02*
X82413000Y-79595000I0J-200000D01*
G01*
X82413000Y-80595000D01*
G75*
G02*
X82213000Y-80795000I-200000J0D01*
G01*
X79513000Y-80795000D01*
G75*
G02*
X79313000Y-80595000I0J200000D01*
G01*
X79313000Y-79595000D01*
G75*
G02*
X79513000Y-79395000I200000J0D01*
G01*
G37*
G36*
G01*
X128767000Y-80795000D02*
X126067000Y-80795000D01*
G75*
G02*
X125867000Y-80595000I0J200000D01*
G01*
X125867000Y-79595000D01*
G75*
G02*
X126067000Y-79395000I200000J0D01*
G01*
X128767000Y-79395000D01*
G75*
G02*
X128967000Y-79595000I0J-200000D01*
G01*
X128967000Y-80595000D01*
G75*
G02*
X128767000Y-80795000I-200000J0D01*
G01*
G37*
G36*
G01*
X125067000Y-82445000D02*
X123367000Y-82445000D01*
G75*
G02*
X123167000Y-82245000I0J200000D01*
G01*
X123167000Y-81645000D01*
G75*
G02*
X123367000Y-81445000I200000J0D01*
G01*
X125067000Y-81445000D01*
G75*
G02*
X125267000Y-81645000I0J-200000D01*
G01*
X125267000Y-82245000D01*
G75*
G02*
X125067000Y-82445000I-200000J0D01*
G01*
G37*
G36*
G01*
X125067000Y-83695000D02*
X123367000Y-83695000D01*
G75*
G02*
X123167000Y-83495000I0J200000D01*
G01*
X123167000Y-82895000D01*
G75*
G02*
X123367000Y-82695000I200000J0D01*
G01*
X125067000Y-82695000D01*
G75*
G02*
X125267000Y-82895000I0J-200000D01*
G01*
X125267000Y-83495000D01*
G75*
G02*
X125067000Y-83695000I-200000J0D01*
G01*
G37*
G36*
G01*
X125067000Y-86195000D02*
X123367000Y-86195000D01*
G75*
G02*
X123167000Y-85995000I0J200000D01*
G01*
X123167000Y-85395000D01*
G75*
G02*
X123367000Y-85195000I200000J0D01*
G01*
X125067000Y-85195000D01*
G75*
G02*
X125267000Y-85395000I0J-200000D01*
G01*
X125267000Y-85995000D01*
G75*
G02*
X125067000Y-86195000I-200000J0D01*
G01*
G37*
G36*
G01*
X125067000Y-84945000D02*
X123367000Y-84945000D01*
G75*
G02*
X123167000Y-84745000I0J200000D01*
G01*
X123167000Y-84145000D01*
G75*
G02*
X123367000Y-83945000I200000J0D01*
G01*
X125067000Y-83945000D01*
G75*
G02*
X125267000Y-84145000I0J-200000D01*
G01*
X125267000Y-84745000D01*
G75*
G02*
X125067000Y-84945000I-200000J0D01*
G01*
G37*
G36*
G01*
X128767000Y-88245000D02*
X126067000Y-88245000D01*
G75*
G02*
X125867000Y-88045000I0J200000D01*
G01*
X125867000Y-87045000D01*
G75*
G02*
X126067000Y-86845000I200000J0D01*
G01*
X128767000Y-86845000D01*
G75*
G02*
X128967000Y-87045000I0J-200000D01*
G01*
X128967000Y-88045000D01*
G75*
G02*
X128767000Y-88245000I-200000J0D01*
G01*
G37*
G36*
G01*
X82723279Y-93332800D02*
X84526679Y-93332800D01*
G75*
G02*
X84726679Y-93532800I0J-200000D01*
G01*
X84726679Y-94193200D01*
G75*
G02*
X84526679Y-94393200I-200000J0D01*
G01*
X82723279Y-94393200D01*
G75*
G02*
X82523279Y-94193200I0J200000D01*
G01*
X82523279Y-93532800D01*
G75*
G02*
X82723279Y-93332800I200000J0D01*
G01*
G37*
G36*
G01*
X82723279Y-94582800D02*
X84526679Y-94582800D01*
G75*
G02*
X84726679Y-94782800I0J-200000D01*
G01*
X84726679Y-95443200D01*
G75*
G02*
X84526679Y-95643200I-200000J0D01*
G01*
X82723279Y-95643200D01*
G75*
G02*
X82523279Y-95443200I0J200000D01*
G01*
X82523279Y-94782800D01*
G75*
G02*
X82723279Y-94582800I200000J0D01*
G01*
G37*
G36*
G01*
X78817978Y-92508301D02*
X78817978Y-91517701D01*
G75*
G02*
X79017978Y-91317701I200000J0D01*
G01*
X81811978Y-91317701D01*
G75*
G02*
X82011978Y-91517701I0J-200000D01*
G01*
X82011978Y-92508301D01*
G75*
G02*
X81811978Y-92708301I-200000J0D01*
G01*
X79017978Y-92708301D01*
G75*
G02*
X78817978Y-92508301I0J200000D01*
G01*
G37*
G36*
G01*
X78817978Y-97458299D02*
X78817978Y-96467699D01*
G75*
G02*
X79017978Y-96267699I200000J0D01*
G01*
X81811978Y-96267699D01*
G75*
G02*
X82011978Y-96467699I0J-200000D01*
G01*
X82011978Y-97458299D01*
G75*
G02*
X81811978Y-97658299I-200000J0D01*
G01*
X79017978Y-97658299D01*
G75*
G02*
X78817978Y-97458299I0J200000D01*
G01*
G37*
G36*
G01*
X116650000Y-103610000D02*
X116650000Y-100910000D01*
G75*
G02*
X116850000Y-100710000I200000J0D01*
G01*
X117850000Y-100710000D01*
G75*
G02*
X118050000Y-100910000I0J-200000D01*
G01*
X118050000Y-103610000D01*
G75*
G02*
X117850000Y-103810000I-200000J0D01*
G01*
X116850000Y-103810000D01*
G75*
G02*
X116650000Y-103610000I0J200000D01*
G01*
G37*
G36*
G01*
X104200000Y-103610000D02*
X104200000Y-100910000D01*
G75*
G02*
X104400000Y-100710000I200000J0D01*
G01*
X105400000Y-100710000D01*
G75*
G02*
X105600000Y-100910000I0J-200000D01*
G01*
X105600000Y-103610000D01*
G75*
G02*
X105400000Y-103810000I-200000J0D01*
G01*
X104400000Y-103810000D01*
G75*
G02*
X104200000Y-103610000I0J200000D01*
G01*
G37*
G36*
G01*
X115000000Y-99910000D02*
X115000000Y-98210000D01*
G75*
G02*
X115200000Y-98010000I200000J0D01*
G01*
X115800000Y-98010000D01*
G75*
G02*
X116000000Y-98210000I0J-200000D01*
G01*
X116000000Y-99910000D01*
G75*
G02*
X115800000Y-100110000I-200000J0D01*
G01*
X115200000Y-100110000D01*
G75*
G02*
X115000000Y-99910000I0J200000D01*
G01*
G37*
G36*
G01*
X106250000Y-99910000D02*
X106250000Y-98210000D01*
G75*
G02*
X106450000Y-98010000I200000J0D01*
G01*
X107050000Y-98010000D01*
G75*
G02*
X107250000Y-98210000I0J-200000D01*
G01*
X107250000Y-99910000D01*
G75*
G02*
X107050000Y-100110000I-200000J0D01*
G01*
X106450000Y-100110000D01*
G75*
G02*
X106250000Y-99910000I0J200000D01*
G01*
G37*
G36*
G01*
X107500000Y-99910000D02*
X107500000Y-98210000D01*
G75*
G02*
X107700000Y-98010000I200000J0D01*
G01*
X108300000Y-98010000D01*
G75*
G02*
X108500000Y-98210000I0J-200000D01*
G01*
X108500000Y-99910000D01*
G75*
G02*
X108300000Y-100110000I-200000J0D01*
G01*
X107700000Y-100110000D01*
G75*
G02*
X107500000Y-99910000I0J200000D01*
G01*
G37*
G36*
G01*
X108750000Y-99910000D02*
X108750000Y-98210000D01*
G75*
G02*
X108950000Y-98010000I200000J0D01*
G01*
X109550000Y-98010000D01*
G75*
G02*
X109750000Y-98210000I0J-200000D01*
G01*
X109750000Y-99910000D01*
G75*
G02*
X109550000Y-100110000I-200000J0D01*
G01*
X108950000Y-100110000D01*
G75*
G02*
X108750000Y-99910000I0J200000D01*
G01*
G37*
G36*
G01*
X113750000Y-99910000D02*
X113750000Y-98210000D01*
G75*
G02*
X113950000Y-98010000I200000J0D01*
G01*
X114550000Y-98010000D01*
G75*
G02*
X114750000Y-98210000I0J-200000D01*
G01*
X114750000Y-99910000D01*
G75*
G02*
X114550000Y-100110000I-200000J0D01*
G01*
X113950000Y-100110000D01*
G75*
G02*
X113750000Y-99910000I0J200000D01*
G01*
G37*
G36*
G01*
X112500000Y-99910000D02*
X112500000Y-98210000D01*
G75*
G02*
X112700000Y-98010000I200000J0D01*
G01*
X113300000Y-98010000D01*
G75*
G02*
X113500000Y-98210000I0J-200000D01*
G01*
X113500000Y-99910000D01*
G75*
G02*
X113300000Y-100110000I-200000J0D01*
G01*
X112700000Y-100110000D01*
G75*
G02*
X112500000Y-99910000I0J200000D01*
G01*
G37*
G36*
G01*
X111250000Y-99910000D02*
X111250000Y-98210000D01*
G75*
G02*
X111450000Y-98010000I200000J0D01*
G01*
X112050000Y-98010000D01*
G75*
G02*
X112250000Y-98210000I0J-200000D01*
G01*
X112250000Y-99910000D01*
G75*
G02*
X112050000Y-100110000I-200000J0D01*
G01*
X111450000Y-100110000D01*
G75*
G02*
X111250000Y-99910000I0J200000D01*
G01*
G37*
G36*
G01*
X110000000Y-99910000D02*
X110000000Y-98210000D01*
G75*
G02*
X110200000Y-98010000I200000J0D01*
G01*
X110800000Y-98010000D01*
G75*
G02*
X111000000Y-98210000I0J-200000D01*
G01*
X111000000Y-99910000D01*
G75*
G02*
X110800000Y-100110000I-200000J0D01*
G01*
X110200000Y-100110000D01*
G75*
G02*
X110000000Y-99910000I0J200000D01*
G01*
G37*
G36*
G01*
X101410000Y-103610000D02*
X101410000Y-100910000D01*
G75*
G02*
X101610000Y-100710000I200000J0D01*
G01*
X102610000Y-100710000D01*
G75*
G02*
X102810000Y-100910000I0J-200000D01*
G01*
X102810000Y-103610000D01*
G75*
G02*
X102610000Y-103810000I-200000J0D01*
G01*
X101610000Y-103810000D01*
G75*
G02*
X101410000Y-103610000I0J200000D01*
G01*
G37*
G36*
G01*
X88960000Y-103610000D02*
X88960000Y-100910000D01*
G75*
G02*
X89160000Y-100710000I200000J0D01*
G01*
X90160000Y-100710000D01*
G75*
G02*
X90360000Y-100910000I0J-200000D01*
G01*
X90360000Y-103610000D01*
G75*
G02*
X90160000Y-103810000I-200000J0D01*
G01*
X89160000Y-103810000D01*
G75*
G02*
X88960000Y-103610000I0J200000D01*
G01*
G37*
G36*
G01*
X99760000Y-99910000D02*
X99760000Y-98210000D01*
G75*
G02*
X99960000Y-98010000I200000J0D01*
G01*
X100560000Y-98010000D01*
G75*
G02*
X100760000Y-98210000I0J-200000D01*
G01*
X100760000Y-99910000D01*
G75*
G02*
X100560000Y-100110000I-200000J0D01*
G01*
X99960000Y-100110000D01*
G75*
G02*
X99760000Y-99910000I0J200000D01*
G01*
G37*
G36*
G01*
X91010000Y-99910000D02*
X91010000Y-98210000D01*
G75*
G02*
X91210000Y-98010000I200000J0D01*
G01*
X91810000Y-98010000D01*
G75*
G02*
X92010000Y-98210000I0J-200000D01*
G01*
X92010000Y-99910000D01*
G75*
G02*
X91810000Y-100110000I-200000J0D01*
G01*
X91210000Y-100110000D01*
G75*
G02*
X91010000Y-99910000I0J200000D01*
G01*
G37*
G36*
G01*
X92260000Y-99910000D02*
X92260000Y-98210000D01*
G75*
G02*
X92460000Y-98010000I200000J0D01*
G01*
X93060000Y-98010000D01*
G75*
G02*
X93260000Y-98210000I0J-200000D01*
G01*
X93260000Y-99910000D01*
G75*
G02*
X93060000Y-100110000I-200000J0D01*
G01*
X92460000Y-100110000D01*
G75*
G02*
X92260000Y-99910000I0J200000D01*
G01*
G37*
G36*
G01*
X93510000Y-99910000D02*
X93510000Y-98210000D01*
G75*
G02*
X93710000Y-98010000I200000J0D01*
G01*
X94310000Y-98010000D01*
G75*
G02*
X94510000Y-98210000I0J-200000D01*
G01*
X94510000Y-99910000D01*
G75*
G02*
X94310000Y-100110000I-200000J0D01*
G01*
X93710000Y-100110000D01*
G75*
G02*
X93510000Y-99910000I0J200000D01*
G01*
G37*
G36*
G01*
X98510000Y-99910000D02*
X98510000Y-98210000D01*
G75*
G02*
X98710000Y-98010000I200000J0D01*
G01*
X99310000Y-98010000D01*
G75*
G02*
X99510000Y-98210000I0J-200000D01*
G01*
X99510000Y-99910000D01*
G75*
G02*
X99310000Y-100110000I-200000J0D01*
G01*
X98710000Y-100110000D01*
G75*
G02*
X98510000Y-99910000I0J200000D01*
G01*
G37*
G36*
G01*
X97260000Y-99910000D02*
X97260000Y-98210000D01*
G75*
G02*
X97460000Y-98010000I200000J0D01*
G01*
X98060000Y-98010000D01*
G75*
G02*
X98260000Y-98210000I0J-200000D01*
G01*
X98260000Y-99910000D01*
G75*
G02*
X98060000Y-100110000I-200000J0D01*
G01*
X97460000Y-100110000D01*
G75*
G02*
X97260000Y-99910000I0J200000D01*
G01*
G37*
G36*
G01*
X96010000Y-99910000D02*
X96010000Y-98210000D01*
G75*
G02*
X96210000Y-98010000I200000J0D01*
G01*
X96810000Y-98010000D01*
G75*
G02*
X97010000Y-98210000I0J-200000D01*
G01*
X97010000Y-99910000D01*
G75*
G02*
X96810000Y-100110000I-200000J0D01*
G01*
X96210000Y-100110000D01*
G75*
G02*
X96010000Y-99910000I0J200000D01*
G01*
G37*
G36*
G01*
X94760000Y-99910000D02*
X94760000Y-98210000D01*
G75*
G02*
X94960000Y-98010000I200000J0D01*
G01*
X95560000Y-98010000D01*
G75*
G02*
X95760000Y-98210000I0J-200000D01*
G01*
X95760000Y-99910000D01*
G75*
G02*
X95560000Y-100110000I-200000J0D01*
G01*
X94960000Y-100110000D01*
G75*
G02*
X94760000Y-99910000I0J200000D01*
G01*
G37*
D10*
X111130000Y-76200000D03*
X108590000Y-76200000D03*
X106050000Y-76200000D03*
X103500000Y-76200000D03*
X100960000Y-76200000D03*
X98430000Y-76200000D03*
X108590000Y-57150000D03*
X106040000Y-57150000D03*
X103510000Y-57150000D03*
X100960000Y-57150000D03*
D11*
X93980000Y-74930000D03*
X115570000Y-74930000D03*
X93980000Y-58420000D03*
X115570000Y-58420000D03*
D12*
X113030000Y-92710000D03*
X115570000Y-92710000D03*
X113030000Y-90170000D03*
X115570000Y-90170000D03*
X113030000Y-87630000D03*
X115570000Y-87630000D03*
X113030000Y-85090000D03*
X115570000Y-85090000D03*
X113030000Y-82550000D03*
X115570000Y-82550000D03*
X87630000Y-95250000D03*
X90170000Y-95250000D03*
X92710000Y-95250000D03*
X95250000Y-95250000D03*
X97790000Y-95250000D03*
X100330000Y-95250000D03*
X102870000Y-95250000D03*
X105410000Y-95250000D03*
X107950000Y-95250000D03*
X110490000Y-95250000D03*
X113030000Y-95250000D03*
X115570000Y-95250000D03*
X118110000Y-95250000D03*
X90170000Y-82550000D03*
X87630000Y-80010000D03*
X90170000Y-80010000D03*
X92710000Y-80010000D03*
X95250000Y-80010000D03*
X97790000Y-80010000D03*
X100330000Y-80010000D03*
X102870000Y-80010000D03*
X105410000Y-80010000D03*
X107950000Y-80010000D03*
X110490000Y-80010000D03*
X113030000Y-80010000D03*
X115570000Y-80010000D03*
X118110000Y-80010000D03*
X120650000Y-95250000D03*
X120650000Y-92710000D03*
X120650000Y-90170000D03*
X120650000Y-80010000D03*
X120650000Y-82550000D03*
X120650000Y-85090000D03*
X120650000Y-87630000D03*
G36*
G01*
X125556721Y-95135200D02*
X123753321Y-95135200D01*
G75*
G02*
X123553321Y-94935200I0J200000D01*
G01*
X123553321Y-94274800D01*
G75*
G02*
X123753321Y-94074800I200000J0D01*
G01*
X125556721Y-94074800D01*
G75*
G02*
X125756721Y-94274800I0J-200000D01*
G01*
X125756721Y-94935200D01*
G75*
G02*
X125556721Y-95135200I-200000J0D01*
G01*
G37*
G36*
G01*
X125556721Y-93885200D02*
X123753321Y-93885200D01*
G75*
G02*
X123553321Y-93685200I0J200000D01*
G01*
X123553321Y-93024800D01*
G75*
G02*
X123753321Y-92824800I200000J0D01*
G01*
X125556721Y-92824800D01*
G75*
G02*
X125756721Y-93024800I0J-200000D01*
G01*
X125756721Y-93685200D01*
G75*
G02*
X125556721Y-93885200I-200000J0D01*
G01*
G37*
G36*
G01*
X129462022Y-95959699D02*
X129462022Y-96950299D01*
G75*
G02*
X129262022Y-97150299I-200000J0D01*
G01*
X126468022Y-97150299D01*
G75*
G02*
X126268022Y-96950299I0J200000D01*
G01*
X126268022Y-95959699D01*
G75*
G02*
X126468022Y-95759699I200000J0D01*
G01*
X129262022Y-95759699D01*
G75*
G02*
X129462022Y-95959699I0J-200000D01*
G01*
G37*
G36*
G01*
X129462022Y-91009701D02*
X129462022Y-92000301D01*
G75*
G02*
X129262022Y-92200301I-200000J0D01*
G01*
X126468022Y-92200301D01*
G75*
G02*
X126268022Y-92000301I0J200000D01*
G01*
X126268022Y-91009701D01*
G75*
G02*
X126468022Y-90809701I200000J0D01*
G01*
X129262022Y-90809701D01*
G75*
G02*
X129462022Y-91009701I0J-200000D01*
G01*
G37*
M02*
