G04 #@! TF.GenerationSoftware,KiCad,Pcbnew,(5.1.9)-1*
G04 #@! TF.CreationDate,2021-04-18T01:47:18-07:00*
G04 #@! TF.ProjectId,UAS_Teensy,5541535f-5465-4656-9e73-792e6b696361,rev?*
G04 #@! TF.SameCoordinates,Original*
G04 #@! TF.FileFunction,Copper,L2,Bot*
G04 #@! TF.FilePolarity,Positive*
%FSLAX46Y46*%
G04 Gerber Fmt 4.6, Leading zero omitted, Abs format (unit mm)*
G04 Created by KiCad (PCBNEW (5.1.9)-1) date 2021-04-18 01:47:18*
%MOMM*%
%LPD*%
G01*
G04 APERTURE LIST*
G04 #@! TA.AperFunction,ComponentPad*
%ADD10C,1.500000*%
G04 #@! TD*
G04 #@! TA.AperFunction,ComponentPad*
%ADD11C,3.540000*%
G04 #@! TD*
G04 #@! TA.AperFunction,ComponentPad*
%ADD12C,1.600000*%
G04 #@! TD*
G04 #@! TA.AperFunction,ViaPad*
%ADD13C,2.250000*%
G04 #@! TD*
G04 #@! TA.AperFunction,ViaPad*
%ADD14C,0.600000*%
G04 #@! TD*
G04 #@! TA.AperFunction,Conductor*
%ADD15C,0.200000*%
G04 #@! TD*
G04 #@! TA.AperFunction,Conductor*
%ADD16C,0.300000*%
G04 #@! TD*
G04 #@! TA.AperFunction,Conductor*
%ADD17C,0.400000*%
G04 #@! TD*
G04 #@! TA.AperFunction,Conductor*
%ADD18C,0.254000*%
G04 #@! TD*
G04 #@! TA.AperFunction,Conductor*
%ADD19C,0.150000*%
G04 #@! TD*
G04 APERTURE END LIST*
D10*
X111130000Y-76200000D03*
X108590000Y-76200000D03*
X106050000Y-76200000D03*
X103500000Y-76200000D03*
X100960000Y-76200000D03*
X98430000Y-76200000D03*
X108590000Y-57150000D03*
X106040000Y-57150000D03*
X103510000Y-57150000D03*
X100960000Y-57150000D03*
D11*
X93980000Y-74930000D03*
X115570000Y-74930000D03*
X93980000Y-58420000D03*
X115570000Y-58420000D03*
D12*
X113030000Y-92710000D03*
X115570000Y-92710000D03*
X113030000Y-90170000D03*
X115570000Y-90170000D03*
X113030000Y-87630000D03*
X115570000Y-87630000D03*
X113030000Y-85090000D03*
X115570000Y-85090000D03*
X113030000Y-82550000D03*
X115570000Y-82550000D03*
X87630000Y-95250000D03*
X90170000Y-95250000D03*
X92710000Y-95250000D03*
X95250000Y-95250000D03*
X97790000Y-95250000D03*
X100330000Y-95250000D03*
X102870000Y-95250000D03*
X105410000Y-95250000D03*
X107950000Y-95250000D03*
X110490000Y-95250000D03*
X113030000Y-95250000D03*
X115570000Y-95250000D03*
X118110000Y-95250000D03*
X90170000Y-82550000D03*
X87630000Y-80010000D03*
X90170000Y-80010000D03*
X92710000Y-80010000D03*
X95250000Y-80010000D03*
X97790000Y-80010000D03*
X100330000Y-80010000D03*
X102870000Y-80010000D03*
X105410000Y-80010000D03*
X107950000Y-80010000D03*
X110490000Y-80010000D03*
X113030000Y-80010000D03*
X115570000Y-80010000D03*
X118110000Y-80010000D03*
X120650000Y-95250000D03*
X120650000Y-92710000D03*
X120650000Y-90170000D03*
X120650000Y-80010000D03*
X120650000Y-82550000D03*
X120650000Y-85090000D03*
X120650000Y-87630000D03*
D13*
X86360000Y-55880000D03*
X121920000Y-55880000D03*
X127000000Y-101600000D03*
X81280000Y-101600000D03*
D14*
X107442000Y-83801000D03*
X110998000Y-81280000D03*
X118364000Y-78105000D03*
X112268000Y-78105000D03*
X106172000Y-98044000D03*
X106172000Y-100076000D03*
X87376000Y-66548000D03*
X118364000Y-65278000D03*
X120904000Y-65532000D03*
X89897164Y-67056000D03*
X91059000Y-99949000D03*
X91059005Y-98043995D03*
X125476000Y-83312000D03*
X85344000Y-84836000D03*
X82804000Y-84328000D03*
X120904000Y-99186986D03*
X122555006Y-102870000D03*
X88900000Y-85725000D03*
X116840000Y-71755000D03*
X120015000Y-71755000D03*
X122682000Y-85090000D03*
X126111000Y-84582000D03*
D15*
X118110000Y-83185000D02*
X118110000Y-80010000D01*
X117494000Y-83801000D02*
X118110000Y-83185000D01*
X107442000Y-83801000D02*
X117494000Y-83801000D01*
X114300000Y-81280000D02*
X115570000Y-80010000D01*
X110998000Y-81280000D02*
X114300000Y-81280000D01*
X112268000Y-78105000D02*
X118364000Y-78105000D01*
D16*
X105664000Y-80010000D02*
X108590000Y-77084000D01*
X108590000Y-77084000D02*
X108590000Y-76200000D01*
X105410000Y-80010000D02*
X105664000Y-80010000D01*
D17*
X87630000Y-82550000D02*
X87630000Y-84455000D01*
X87630000Y-84455000D02*
X88900000Y-85725000D01*
X116840000Y-71755000D02*
X119380000Y-71755000D01*
X119380000Y-71755000D02*
X120015000Y-71755000D01*
X87630000Y-82550000D02*
X87630000Y-80010000D01*
D15*
X122682000Y-80772000D02*
X122682000Y-85090000D01*
X122682000Y-80772000D02*
X121920000Y-80010000D01*
X121920000Y-80010000D02*
X120650000Y-80010000D01*
X126111000Y-84582000D02*
X127254000Y-85725000D01*
X127254000Y-85725000D02*
X127254000Y-94234000D01*
X126238000Y-95250000D02*
X120650000Y-95250000D01*
X127254000Y-94234000D02*
X126238000Y-95250000D01*
D18*
X122284545Y-54038909D02*
X122635208Y-54144780D01*
X122958625Y-54316744D01*
X123242484Y-54548254D01*
X123475965Y-54830486D01*
X123650183Y-55152695D01*
X123758502Y-55502614D01*
X123800000Y-55897443D01*
X123800001Y-77120071D01*
X123796807Y-77152500D01*
X123809550Y-77281883D01*
X123847290Y-77406293D01*
X123908575Y-77520950D01*
X123991052Y-77621448D01*
X124091550Y-77703925D01*
X124206207Y-77765210D01*
X124330617Y-77802950D01*
X124427581Y-77812500D01*
X124460000Y-77815693D01*
X124492419Y-77812500D01*
X128237721Y-77812500D01*
X128387869Y-77827222D01*
X128501246Y-77861453D01*
X128605819Y-77917055D01*
X128697596Y-77991907D01*
X128773091Y-78083164D01*
X128829419Y-78187344D01*
X128864440Y-78300476D01*
X128880000Y-78448522D01*
X128880001Y-101567701D01*
X128841090Y-101964545D01*
X128735220Y-102315205D01*
X128563256Y-102638622D01*
X128331749Y-102922479D01*
X128049509Y-103155968D01*
X127727306Y-103330182D01*
X127377385Y-103438501D01*
X126982557Y-103479999D01*
X81312270Y-103479999D01*
X80915456Y-103441091D01*
X80564795Y-103335220D01*
X80241378Y-103163257D01*
X79957519Y-102931748D01*
X79724036Y-102649514D01*
X79549817Y-102327304D01*
X79441499Y-101977385D01*
X79400001Y-101582557D01*
X79400001Y-101426655D01*
X79520000Y-101426655D01*
X79520000Y-101773345D01*
X79587636Y-102113373D01*
X79720308Y-102433673D01*
X79912919Y-102721935D01*
X80158065Y-102967081D01*
X80446327Y-103159692D01*
X80766627Y-103292364D01*
X81106655Y-103360000D01*
X81453345Y-103360000D01*
X81793373Y-103292364D01*
X82113673Y-103159692D01*
X82401935Y-102967081D01*
X82647081Y-102721935D01*
X82839692Y-102433673D01*
X82972364Y-102113373D01*
X83040000Y-101773345D01*
X83040000Y-101426655D01*
X125240000Y-101426655D01*
X125240000Y-101773345D01*
X125307636Y-102113373D01*
X125440308Y-102433673D01*
X125632919Y-102721935D01*
X125878065Y-102967081D01*
X126166327Y-103159692D01*
X126486627Y-103292364D01*
X126826655Y-103360000D01*
X127173345Y-103360000D01*
X127513373Y-103292364D01*
X127833673Y-103159692D01*
X128121935Y-102967081D01*
X128367081Y-102721935D01*
X128559692Y-102433673D01*
X128692364Y-102113373D01*
X128760000Y-101773345D01*
X128760000Y-101426655D01*
X128692364Y-101086627D01*
X128559692Y-100766327D01*
X128367081Y-100478065D01*
X128121935Y-100232919D01*
X127833673Y-100040308D01*
X127513373Y-99907636D01*
X127173345Y-99840000D01*
X126826655Y-99840000D01*
X126486627Y-99907636D01*
X126166327Y-100040308D01*
X125878065Y-100232919D01*
X125632919Y-100478065D01*
X125440308Y-100766327D01*
X125307636Y-101086627D01*
X125240000Y-101426655D01*
X83040000Y-101426655D01*
X82972364Y-101086627D01*
X82839692Y-100766327D01*
X82647081Y-100478065D01*
X82401935Y-100232919D01*
X82113673Y-100040308D01*
X81793373Y-99907636D01*
X81453345Y-99840000D01*
X81106655Y-99840000D01*
X80766627Y-99907636D01*
X80446327Y-100040308D01*
X80158065Y-100232919D01*
X79912919Y-100478065D01*
X79720308Y-100766327D01*
X79587636Y-101086627D01*
X79520000Y-101426655D01*
X79400001Y-101426655D01*
X79400001Y-96242702D01*
X86816903Y-96242702D01*
X86888486Y-96486671D01*
X87143996Y-96607571D01*
X87418184Y-96676300D01*
X87700512Y-96690217D01*
X87980130Y-96648787D01*
X88246292Y-96553603D01*
X88371514Y-96486671D01*
X88443097Y-96242702D01*
X87630000Y-95429605D01*
X86816903Y-96242702D01*
X79400001Y-96242702D01*
X79400001Y-95320512D01*
X86189783Y-95320512D01*
X86231213Y-95600130D01*
X86326397Y-95866292D01*
X86393329Y-95991514D01*
X86637298Y-96063097D01*
X87450395Y-95250000D01*
X87809605Y-95250000D01*
X88622702Y-96063097D01*
X88866671Y-95991514D01*
X88897194Y-95927008D01*
X88898320Y-95929727D01*
X89055363Y-96164759D01*
X89255241Y-96364637D01*
X89490273Y-96521680D01*
X89751426Y-96629853D01*
X90028665Y-96685000D01*
X90311335Y-96685000D01*
X90588574Y-96629853D01*
X90849727Y-96521680D01*
X91084759Y-96364637D01*
X91284637Y-96164759D01*
X91440000Y-95932241D01*
X91595363Y-96164759D01*
X91795241Y-96364637D01*
X92030273Y-96521680D01*
X92291426Y-96629853D01*
X92568665Y-96685000D01*
X92851335Y-96685000D01*
X93128574Y-96629853D01*
X93389727Y-96521680D01*
X93624759Y-96364637D01*
X93824637Y-96164759D01*
X93980000Y-95932241D01*
X94135363Y-96164759D01*
X94335241Y-96364637D01*
X94570273Y-96521680D01*
X94831426Y-96629853D01*
X95108665Y-96685000D01*
X95391335Y-96685000D01*
X95668574Y-96629853D01*
X95929727Y-96521680D01*
X96164759Y-96364637D01*
X96364637Y-96164759D01*
X96520000Y-95932241D01*
X96675363Y-96164759D01*
X96875241Y-96364637D01*
X97110273Y-96521680D01*
X97371426Y-96629853D01*
X97648665Y-96685000D01*
X97931335Y-96685000D01*
X98208574Y-96629853D01*
X98469727Y-96521680D01*
X98704759Y-96364637D01*
X98904637Y-96164759D01*
X99060000Y-95932241D01*
X99215363Y-96164759D01*
X99415241Y-96364637D01*
X99650273Y-96521680D01*
X99911426Y-96629853D01*
X100188665Y-96685000D01*
X100471335Y-96685000D01*
X100748574Y-96629853D01*
X101009727Y-96521680D01*
X101244759Y-96364637D01*
X101444637Y-96164759D01*
X101600000Y-95932241D01*
X101755363Y-96164759D01*
X101955241Y-96364637D01*
X102190273Y-96521680D01*
X102451426Y-96629853D01*
X102728665Y-96685000D01*
X103011335Y-96685000D01*
X103288574Y-96629853D01*
X103549727Y-96521680D01*
X103784759Y-96364637D01*
X103984637Y-96164759D01*
X104140000Y-95932241D01*
X104295363Y-96164759D01*
X104495241Y-96364637D01*
X104730273Y-96521680D01*
X104991426Y-96629853D01*
X105268665Y-96685000D01*
X105551335Y-96685000D01*
X105828574Y-96629853D01*
X106089727Y-96521680D01*
X106324759Y-96364637D01*
X106524637Y-96164759D01*
X106680000Y-95932241D01*
X106835363Y-96164759D01*
X107035241Y-96364637D01*
X107270273Y-96521680D01*
X107531426Y-96629853D01*
X107808665Y-96685000D01*
X108091335Y-96685000D01*
X108368574Y-96629853D01*
X108629727Y-96521680D01*
X108864759Y-96364637D01*
X109064637Y-96164759D01*
X109220000Y-95932241D01*
X109375363Y-96164759D01*
X109575241Y-96364637D01*
X109810273Y-96521680D01*
X110071426Y-96629853D01*
X110348665Y-96685000D01*
X110631335Y-96685000D01*
X110908574Y-96629853D01*
X111169727Y-96521680D01*
X111404759Y-96364637D01*
X111604637Y-96164759D01*
X111760000Y-95932241D01*
X111915363Y-96164759D01*
X112115241Y-96364637D01*
X112350273Y-96521680D01*
X112611426Y-96629853D01*
X112888665Y-96685000D01*
X113171335Y-96685000D01*
X113448574Y-96629853D01*
X113709727Y-96521680D01*
X113944759Y-96364637D01*
X114144637Y-96164759D01*
X114300000Y-95932241D01*
X114455363Y-96164759D01*
X114655241Y-96364637D01*
X114890273Y-96521680D01*
X115151426Y-96629853D01*
X115428665Y-96685000D01*
X115711335Y-96685000D01*
X115988574Y-96629853D01*
X116249727Y-96521680D01*
X116484759Y-96364637D01*
X116684637Y-96164759D01*
X116840000Y-95932241D01*
X116995363Y-96164759D01*
X117195241Y-96364637D01*
X117430273Y-96521680D01*
X117691426Y-96629853D01*
X117968665Y-96685000D01*
X118251335Y-96685000D01*
X118528574Y-96629853D01*
X118789727Y-96521680D01*
X119024759Y-96364637D01*
X119224637Y-96164759D01*
X119380000Y-95932241D01*
X119535363Y-96164759D01*
X119735241Y-96364637D01*
X119970273Y-96521680D01*
X120231426Y-96629853D01*
X120508665Y-96685000D01*
X120791335Y-96685000D01*
X121068574Y-96629853D01*
X121329727Y-96521680D01*
X121564759Y-96364637D01*
X121764637Y-96164759D01*
X121884748Y-95985000D01*
X126201895Y-95985000D01*
X126238000Y-95988556D01*
X126274105Y-95985000D01*
X126382085Y-95974365D01*
X126520633Y-95932337D01*
X126648320Y-95864087D01*
X126760238Y-95772238D01*
X126783258Y-95744188D01*
X127748193Y-94779254D01*
X127776238Y-94756238D01*
X127868087Y-94644320D01*
X127936337Y-94516633D01*
X127978365Y-94378085D01*
X127989000Y-94270105D01*
X127992556Y-94234000D01*
X127989000Y-94197895D01*
X127989000Y-85761096D01*
X127992555Y-85724999D01*
X127989000Y-85688902D01*
X127989000Y-85688895D01*
X127978365Y-85580915D01*
X127936337Y-85442367D01*
X127868087Y-85314680D01*
X127822271Y-85258854D01*
X127799253Y-85230806D01*
X127799250Y-85230803D01*
X127776237Y-85202762D01*
X127748197Y-85179750D01*
X127042932Y-84474485D01*
X127010068Y-84309271D01*
X126939586Y-84139111D01*
X126837262Y-83985972D01*
X126707028Y-83855738D01*
X126553889Y-83753414D01*
X126383729Y-83682932D01*
X126203089Y-83647000D01*
X126018911Y-83647000D01*
X125838271Y-83682932D01*
X125668111Y-83753414D01*
X125514972Y-83855738D01*
X125384738Y-83985972D01*
X125282414Y-84139111D01*
X125211932Y-84309271D01*
X125176000Y-84489911D01*
X125176000Y-84674089D01*
X125211932Y-84854729D01*
X125282414Y-85024889D01*
X125384738Y-85178028D01*
X125514972Y-85308262D01*
X125668111Y-85410586D01*
X125838271Y-85481068D01*
X126003485Y-85513932D01*
X126519000Y-86029447D01*
X126519001Y-93929552D01*
X125933554Y-94515000D01*
X121884748Y-94515000D01*
X121764637Y-94335241D01*
X121564759Y-94135363D01*
X121332241Y-93980000D01*
X121564759Y-93824637D01*
X121764637Y-93624759D01*
X121921680Y-93389727D01*
X122029853Y-93128574D01*
X122085000Y-92851335D01*
X122085000Y-92568665D01*
X122029853Y-92291426D01*
X121921680Y-92030273D01*
X121764637Y-91795241D01*
X121564759Y-91595363D01*
X121332241Y-91440000D01*
X121564759Y-91284637D01*
X121764637Y-91084759D01*
X121921680Y-90849727D01*
X122029853Y-90588574D01*
X122085000Y-90311335D01*
X122085000Y-90028665D01*
X122029853Y-89751426D01*
X121921680Y-89490273D01*
X121764637Y-89255241D01*
X121564759Y-89055363D01*
X121332241Y-88900000D01*
X121564759Y-88744637D01*
X121764637Y-88544759D01*
X121921680Y-88309727D01*
X122029853Y-88048574D01*
X122085000Y-87771335D01*
X122085000Y-87488665D01*
X122029853Y-87211426D01*
X121921680Y-86950273D01*
X121764637Y-86715241D01*
X121564759Y-86515363D01*
X121332241Y-86360000D01*
X121564759Y-86204637D01*
X121764637Y-86004759D01*
X121921680Y-85769727D01*
X121956170Y-85686460D01*
X122085972Y-85816262D01*
X122239111Y-85918586D01*
X122409271Y-85989068D01*
X122589911Y-86025000D01*
X122774089Y-86025000D01*
X122954729Y-85989068D01*
X123124889Y-85918586D01*
X123278028Y-85816262D01*
X123408262Y-85686028D01*
X123510586Y-85532889D01*
X123581068Y-85362729D01*
X123617000Y-85182089D01*
X123617000Y-84997911D01*
X123581068Y-84817271D01*
X123510586Y-84647111D01*
X123417000Y-84507049D01*
X123417000Y-80808105D01*
X123420556Y-80772000D01*
X123406365Y-80627915D01*
X123364337Y-80489366D01*
X123296087Y-80361680D01*
X123227253Y-80277806D01*
X123227250Y-80277803D01*
X123204237Y-80249762D01*
X123176197Y-80226750D01*
X122465258Y-79515812D01*
X122442238Y-79487762D01*
X122330320Y-79395913D01*
X122202633Y-79327663D01*
X122064085Y-79285635D01*
X121956105Y-79275000D01*
X121920000Y-79271444D01*
X121884695Y-79274921D01*
X121764637Y-79095241D01*
X121564759Y-78895363D01*
X121329727Y-78738320D01*
X121068574Y-78630147D01*
X120791335Y-78575000D01*
X120508665Y-78575000D01*
X120231426Y-78630147D01*
X119970273Y-78738320D01*
X119735241Y-78895363D01*
X119535363Y-79095241D01*
X119380000Y-79327759D01*
X119224637Y-79095241D01*
X119024759Y-78895363D01*
X118944426Y-78841687D01*
X118960028Y-78831262D01*
X119090262Y-78701028D01*
X119192586Y-78547889D01*
X119263068Y-78377729D01*
X119299000Y-78197089D01*
X119299000Y-78012911D01*
X119263068Y-77832271D01*
X119192586Y-77662111D01*
X119090262Y-77508972D01*
X118960028Y-77378738D01*
X118806889Y-77276414D01*
X118636729Y-77205932D01*
X118456089Y-77170000D01*
X118271911Y-77170000D01*
X118091271Y-77205932D01*
X117921111Y-77276414D01*
X117781049Y-77370000D01*
X112850951Y-77370000D01*
X112710889Y-77276414D01*
X112540729Y-77205932D01*
X112360089Y-77170000D01*
X112175911Y-77170000D01*
X112104475Y-77184210D01*
X112205799Y-77082886D01*
X112357371Y-76856043D01*
X112461775Y-76603989D01*
X112515000Y-76336411D01*
X112515000Y-76063589D01*
X112461775Y-75796011D01*
X112357371Y-75543957D01*
X112205799Y-75317114D01*
X112012886Y-75124201D01*
X111786043Y-74972629D01*
X111533989Y-74868225D01*
X111266411Y-74815000D01*
X110993589Y-74815000D01*
X110726011Y-74868225D01*
X110473957Y-74972629D01*
X110247114Y-75124201D01*
X110054201Y-75317114D01*
X109902629Y-75543957D01*
X109860000Y-75646873D01*
X109817371Y-75543957D01*
X109665799Y-75317114D01*
X109472886Y-75124201D01*
X109246043Y-74972629D01*
X108993989Y-74868225D01*
X108726411Y-74815000D01*
X108453589Y-74815000D01*
X108186011Y-74868225D01*
X107933957Y-74972629D01*
X107707114Y-75124201D01*
X107514201Y-75317114D01*
X107362629Y-75543957D01*
X107320000Y-75646873D01*
X107277371Y-75543957D01*
X107125799Y-75317114D01*
X106932886Y-75124201D01*
X106706043Y-74972629D01*
X106453989Y-74868225D01*
X106186411Y-74815000D01*
X105913589Y-74815000D01*
X105646011Y-74868225D01*
X105393957Y-74972629D01*
X105167114Y-75124201D01*
X104974201Y-75317114D01*
X104822629Y-75543957D01*
X104776147Y-75656175D01*
X104756277Y-75601168D01*
X104695860Y-75488137D01*
X104456993Y-75422612D01*
X103679605Y-76200000D01*
X104456993Y-76977388D01*
X104695860Y-76911863D01*
X104775476Y-76742205D01*
X104822629Y-76856043D01*
X104974201Y-77082886D01*
X105167114Y-77275799D01*
X105393957Y-77427371D01*
X105646011Y-77531775D01*
X105913589Y-77585000D01*
X106186411Y-77585000D01*
X106453989Y-77531775D01*
X106706043Y-77427371D01*
X106932886Y-77275799D01*
X107125799Y-77082886D01*
X107277371Y-76856043D01*
X107320000Y-76753127D01*
X107362629Y-76856043D01*
X107500885Y-77062958D01*
X105902907Y-78660936D01*
X105828574Y-78630147D01*
X105551335Y-78575000D01*
X105268665Y-78575000D01*
X104991426Y-78630147D01*
X104730273Y-78738320D01*
X104495241Y-78895363D01*
X104295363Y-79095241D01*
X104140000Y-79327759D01*
X103984637Y-79095241D01*
X103784759Y-78895363D01*
X103549727Y-78738320D01*
X103288574Y-78630147D01*
X103011335Y-78575000D01*
X102728665Y-78575000D01*
X102451426Y-78630147D01*
X102190273Y-78738320D01*
X101955241Y-78895363D01*
X101755363Y-79095241D01*
X101600000Y-79327759D01*
X101444637Y-79095241D01*
X101244759Y-78895363D01*
X101009727Y-78738320D01*
X100748574Y-78630147D01*
X100471335Y-78575000D01*
X100188665Y-78575000D01*
X99911426Y-78630147D01*
X99650273Y-78738320D01*
X99415241Y-78895363D01*
X99215363Y-79095241D01*
X99060000Y-79327759D01*
X98904637Y-79095241D01*
X98704759Y-78895363D01*
X98469727Y-78738320D01*
X98208574Y-78630147D01*
X97931335Y-78575000D01*
X97648665Y-78575000D01*
X97371426Y-78630147D01*
X97110273Y-78738320D01*
X96875241Y-78895363D01*
X96675363Y-79095241D01*
X96520000Y-79327759D01*
X96364637Y-79095241D01*
X96164759Y-78895363D01*
X95929727Y-78738320D01*
X95668574Y-78630147D01*
X95391335Y-78575000D01*
X95108665Y-78575000D01*
X94831426Y-78630147D01*
X94570273Y-78738320D01*
X94335241Y-78895363D01*
X94135363Y-79095241D01*
X93980000Y-79327759D01*
X93824637Y-79095241D01*
X93624759Y-78895363D01*
X93389727Y-78738320D01*
X93128574Y-78630147D01*
X92851335Y-78575000D01*
X92568665Y-78575000D01*
X92291426Y-78630147D01*
X92030273Y-78738320D01*
X91795241Y-78895363D01*
X91595363Y-79095241D01*
X91439085Y-79329128D01*
X91406671Y-79268486D01*
X91162702Y-79196903D01*
X90349605Y-80010000D01*
X91162702Y-80823097D01*
X91406671Y-80751514D01*
X91437194Y-80687008D01*
X91438320Y-80689727D01*
X91595363Y-80924759D01*
X91795241Y-81124637D01*
X92030273Y-81281680D01*
X92291426Y-81389853D01*
X92568665Y-81445000D01*
X92851335Y-81445000D01*
X93128574Y-81389853D01*
X93389727Y-81281680D01*
X93624759Y-81124637D01*
X93824637Y-80924759D01*
X93980000Y-80692241D01*
X94135363Y-80924759D01*
X94335241Y-81124637D01*
X94570273Y-81281680D01*
X94831426Y-81389853D01*
X95108665Y-81445000D01*
X95391335Y-81445000D01*
X95668574Y-81389853D01*
X95929727Y-81281680D01*
X96164759Y-81124637D01*
X96364637Y-80924759D01*
X96520000Y-80692241D01*
X96675363Y-80924759D01*
X96875241Y-81124637D01*
X97110273Y-81281680D01*
X97371426Y-81389853D01*
X97648665Y-81445000D01*
X97931335Y-81445000D01*
X98208574Y-81389853D01*
X98469727Y-81281680D01*
X98704759Y-81124637D01*
X98904637Y-80924759D01*
X99060000Y-80692241D01*
X99215363Y-80924759D01*
X99415241Y-81124637D01*
X99650273Y-81281680D01*
X99911426Y-81389853D01*
X100188665Y-81445000D01*
X100471335Y-81445000D01*
X100748574Y-81389853D01*
X101009727Y-81281680D01*
X101244759Y-81124637D01*
X101444637Y-80924759D01*
X101600000Y-80692241D01*
X101755363Y-80924759D01*
X101955241Y-81124637D01*
X102190273Y-81281680D01*
X102451426Y-81389853D01*
X102728665Y-81445000D01*
X103011335Y-81445000D01*
X103288574Y-81389853D01*
X103549727Y-81281680D01*
X103784759Y-81124637D01*
X103984637Y-80924759D01*
X104140000Y-80692241D01*
X104295363Y-80924759D01*
X104495241Y-81124637D01*
X104730273Y-81281680D01*
X104991426Y-81389853D01*
X105268665Y-81445000D01*
X105551335Y-81445000D01*
X105828574Y-81389853D01*
X106089727Y-81281680D01*
X106324759Y-81124637D01*
X106524637Y-80924759D01*
X106680000Y-80692241D01*
X106835363Y-80924759D01*
X107035241Y-81124637D01*
X107270273Y-81281680D01*
X107531426Y-81389853D01*
X107808665Y-81445000D01*
X108091335Y-81445000D01*
X108368574Y-81389853D01*
X108629727Y-81281680D01*
X108864759Y-81124637D01*
X109064637Y-80924759D01*
X109220000Y-80692241D01*
X109375363Y-80924759D01*
X109575241Y-81124637D01*
X109810273Y-81281680D01*
X110066094Y-81387645D01*
X110098932Y-81552729D01*
X110169414Y-81722889D01*
X110271738Y-81876028D01*
X110401972Y-82006262D01*
X110555111Y-82108586D01*
X110725271Y-82179068D01*
X110905911Y-82215000D01*
X111090089Y-82215000D01*
X111270729Y-82179068D01*
X111440889Y-82108586D01*
X111580951Y-82015000D01*
X111698372Y-82015000D01*
X111650147Y-82131426D01*
X111595000Y-82408665D01*
X111595000Y-82691335D01*
X111650147Y-82968574D01*
X111690502Y-83066000D01*
X108024951Y-83066000D01*
X107884889Y-82972414D01*
X107714729Y-82901932D01*
X107534089Y-82866000D01*
X107349911Y-82866000D01*
X107169271Y-82901932D01*
X106999111Y-82972414D01*
X106845972Y-83074738D01*
X106715738Y-83204972D01*
X106613414Y-83358111D01*
X106542932Y-83528271D01*
X106507000Y-83708911D01*
X106507000Y-83893089D01*
X106542932Y-84073729D01*
X106613414Y-84243889D01*
X106715738Y-84397028D01*
X106845972Y-84527262D01*
X106999111Y-84629586D01*
X107169271Y-84700068D01*
X107349911Y-84736000D01*
X107534089Y-84736000D01*
X107714729Y-84700068D01*
X107884889Y-84629586D01*
X108024951Y-84536000D01*
X111706242Y-84536000D01*
X111650147Y-84671426D01*
X111595000Y-84948665D01*
X111595000Y-85231335D01*
X111650147Y-85508574D01*
X111758320Y-85769727D01*
X111915363Y-86004759D01*
X112115241Y-86204637D01*
X112347759Y-86360000D01*
X112115241Y-86515363D01*
X111915363Y-86715241D01*
X111758320Y-86950273D01*
X111650147Y-87211426D01*
X111595000Y-87488665D01*
X111595000Y-87771335D01*
X111650147Y-88048574D01*
X111758320Y-88309727D01*
X111915363Y-88544759D01*
X112115241Y-88744637D01*
X112347759Y-88900000D01*
X112115241Y-89055363D01*
X111915363Y-89255241D01*
X111758320Y-89490273D01*
X111650147Y-89751426D01*
X111595000Y-90028665D01*
X111595000Y-90311335D01*
X111650147Y-90588574D01*
X111758320Y-90849727D01*
X111915363Y-91084759D01*
X112115241Y-91284637D01*
X112347759Y-91440000D01*
X112115241Y-91595363D01*
X111915363Y-91795241D01*
X111758320Y-92030273D01*
X111650147Y-92291426D01*
X111595000Y-92568665D01*
X111595000Y-92851335D01*
X111650147Y-93128574D01*
X111758320Y-93389727D01*
X111915363Y-93624759D01*
X112115241Y-93824637D01*
X112347759Y-93980000D01*
X112115241Y-94135363D01*
X111915363Y-94335241D01*
X111760000Y-94567759D01*
X111604637Y-94335241D01*
X111404759Y-94135363D01*
X111169727Y-93978320D01*
X110908574Y-93870147D01*
X110631335Y-93815000D01*
X110348665Y-93815000D01*
X110071426Y-93870147D01*
X109810273Y-93978320D01*
X109575241Y-94135363D01*
X109375363Y-94335241D01*
X109220000Y-94567759D01*
X109064637Y-94335241D01*
X108864759Y-94135363D01*
X108629727Y-93978320D01*
X108368574Y-93870147D01*
X108091335Y-93815000D01*
X107808665Y-93815000D01*
X107531426Y-93870147D01*
X107270273Y-93978320D01*
X107035241Y-94135363D01*
X106835363Y-94335241D01*
X106680000Y-94567759D01*
X106524637Y-94335241D01*
X106324759Y-94135363D01*
X106089727Y-93978320D01*
X105828574Y-93870147D01*
X105551335Y-93815000D01*
X105268665Y-93815000D01*
X104991426Y-93870147D01*
X104730273Y-93978320D01*
X104495241Y-94135363D01*
X104295363Y-94335241D01*
X104140000Y-94567759D01*
X103984637Y-94335241D01*
X103784759Y-94135363D01*
X103549727Y-93978320D01*
X103288574Y-93870147D01*
X103011335Y-93815000D01*
X102728665Y-93815000D01*
X102451426Y-93870147D01*
X102190273Y-93978320D01*
X101955241Y-94135363D01*
X101755363Y-94335241D01*
X101600000Y-94567759D01*
X101444637Y-94335241D01*
X101244759Y-94135363D01*
X101009727Y-93978320D01*
X100748574Y-93870147D01*
X100471335Y-93815000D01*
X100188665Y-93815000D01*
X99911426Y-93870147D01*
X99650273Y-93978320D01*
X99415241Y-94135363D01*
X99215363Y-94335241D01*
X99060000Y-94567759D01*
X98904637Y-94335241D01*
X98704759Y-94135363D01*
X98469727Y-93978320D01*
X98208574Y-93870147D01*
X97931335Y-93815000D01*
X97648665Y-93815000D01*
X97371426Y-93870147D01*
X97110273Y-93978320D01*
X96875241Y-94135363D01*
X96675363Y-94335241D01*
X96520000Y-94567759D01*
X96364637Y-94335241D01*
X96164759Y-94135363D01*
X95929727Y-93978320D01*
X95668574Y-93870147D01*
X95391335Y-93815000D01*
X95108665Y-93815000D01*
X94831426Y-93870147D01*
X94570273Y-93978320D01*
X94335241Y-94135363D01*
X94135363Y-94335241D01*
X93980000Y-94567759D01*
X93824637Y-94335241D01*
X93624759Y-94135363D01*
X93389727Y-93978320D01*
X93128574Y-93870147D01*
X92851335Y-93815000D01*
X92568665Y-93815000D01*
X92291426Y-93870147D01*
X92030273Y-93978320D01*
X91795241Y-94135363D01*
X91595363Y-94335241D01*
X91440000Y-94567759D01*
X91284637Y-94335241D01*
X91084759Y-94135363D01*
X90849727Y-93978320D01*
X90588574Y-93870147D01*
X90311335Y-93815000D01*
X90028665Y-93815000D01*
X89751426Y-93870147D01*
X89490273Y-93978320D01*
X89255241Y-94135363D01*
X89055363Y-94335241D01*
X88899085Y-94569128D01*
X88866671Y-94508486D01*
X88622702Y-94436903D01*
X87809605Y-95250000D01*
X87450395Y-95250000D01*
X86637298Y-94436903D01*
X86393329Y-94508486D01*
X86272429Y-94763996D01*
X86203700Y-95038184D01*
X86189783Y-95320512D01*
X79400001Y-95320512D01*
X79400001Y-94257298D01*
X86816903Y-94257298D01*
X87630000Y-95070395D01*
X88443097Y-94257298D01*
X88371514Y-94013329D01*
X88116004Y-93892429D01*
X87841816Y-93823700D01*
X87559488Y-93809783D01*
X87279870Y-93851213D01*
X87013708Y-93946397D01*
X86888486Y-94013329D01*
X86816903Y-94257298D01*
X79400001Y-94257298D01*
X79400001Y-79868665D01*
X86195000Y-79868665D01*
X86195000Y-80151335D01*
X86250147Y-80428574D01*
X86358320Y-80689727D01*
X86515363Y-80924759D01*
X86715241Y-81124637D01*
X86795001Y-81177930D01*
X86795000Y-82508981D01*
X86795000Y-82508982D01*
X86795001Y-84413972D01*
X86790960Y-84455000D01*
X86807082Y-84618688D01*
X86854828Y-84776086D01*
X86896864Y-84854729D01*
X86932365Y-84921146D01*
X87036710Y-85048291D01*
X87068574Y-85074441D01*
X88007346Y-86013214D01*
X88071414Y-86167889D01*
X88173738Y-86321028D01*
X88303972Y-86451262D01*
X88457111Y-86553586D01*
X88627271Y-86624068D01*
X88807911Y-86660000D01*
X88992089Y-86660000D01*
X89172729Y-86624068D01*
X89342889Y-86553586D01*
X89496028Y-86451262D01*
X89626262Y-86321028D01*
X89728586Y-86167889D01*
X89799068Y-85997729D01*
X89835000Y-85817089D01*
X89835000Y-85632911D01*
X89799068Y-85452271D01*
X89728586Y-85282111D01*
X89626262Y-85128972D01*
X89496028Y-84998738D01*
X89342889Y-84896414D01*
X89188214Y-84832346D01*
X88465000Y-84109133D01*
X88465000Y-82408665D01*
X88735000Y-82408665D01*
X88735000Y-82691335D01*
X88790147Y-82968574D01*
X88898320Y-83229727D01*
X89055363Y-83464759D01*
X89255241Y-83664637D01*
X89490273Y-83821680D01*
X89751426Y-83929853D01*
X90028665Y-83985000D01*
X90311335Y-83985000D01*
X90588574Y-83929853D01*
X90849727Y-83821680D01*
X91084759Y-83664637D01*
X91284637Y-83464759D01*
X91441680Y-83229727D01*
X91549853Y-82968574D01*
X91605000Y-82691335D01*
X91605000Y-82408665D01*
X91549853Y-82131426D01*
X91441680Y-81870273D01*
X91284637Y-81635241D01*
X91084759Y-81435363D01*
X90850872Y-81279085D01*
X90911514Y-81246671D01*
X90983097Y-81002702D01*
X90170000Y-80189605D01*
X89356903Y-81002702D01*
X89428486Y-81246671D01*
X89492992Y-81277194D01*
X89490273Y-81278320D01*
X89255241Y-81435363D01*
X89055363Y-81635241D01*
X88898320Y-81870273D01*
X88790147Y-82131426D01*
X88735000Y-82408665D01*
X88465000Y-82408665D01*
X88465000Y-81177930D01*
X88544759Y-81124637D01*
X88744637Y-80924759D01*
X88900915Y-80690872D01*
X88933329Y-80751514D01*
X89177298Y-80823097D01*
X89990395Y-80010000D01*
X89177298Y-79196903D01*
X88933329Y-79268486D01*
X88902806Y-79332992D01*
X88901680Y-79330273D01*
X88744637Y-79095241D01*
X88666694Y-79017298D01*
X89356903Y-79017298D01*
X90170000Y-79830395D01*
X90983097Y-79017298D01*
X90911514Y-78773329D01*
X90656004Y-78652429D01*
X90381816Y-78583700D01*
X90099488Y-78569783D01*
X89819870Y-78611213D01*
X89553708Y-78706397D01*
X89428486Y-78773329D01*
X89356903Y-79017298D01*
X88666694Y-79017298D01*
X88544759Y-78895363D01*
X88309727Y-78738320D01*
X88048574Y-78630147D01*
X87771335Y-78575000D01*
X87488665Y-78575000D01*
X87211426Y-78630147D01*
X86950273Y-78738320D01*
X86715241Y-78895363D01*
X86515363Y-79095241D01*
X86358320Y-79330273D01*
X86250147Y-79591426D01*
X86195000Y-79868665D01*
X79400001Y-79868665D01*
X79400001Y-78454779D01*
X79414723Y-78304631D01*
X79448954Y-78191254D01*
X79504556Y-78086681D01*
X79579408Y-77994904D01*
X79670665Y-77919409D01*
X79774845Y-77863081D01*
X79887977Y-77828060D01*
X80036023Y-77812500D01*
X83787581Y-77812500D01*
X83820000Y-77815693D01*
X83852419Y-77812500D01*
X83949383Y-77802950D01*
X84073793Y-77765210D01*
X84188450Y-77703925D01*
X84288948Y-77621448D01*
X84371425Y-77520950D01*
X84432710Y-77406293D01*
X84470450Y-77281883D01*
X84483193Y-77152500D01*
X84480000Y-77120081D01*
X84480000Y-74693128D01*
X91575000Y-74693128D01*
X91575000Y-75166872D01*
X91667423Y-75631513D01*
X91848716Y-76069195D01*
X92111914Y-76463098D01*
X92446902Y-76798086D01*
X92840805Y-77061284D01*
X93278487Y-77242577D01*
X93743128Y-77335000D01*
X94216872Y-77335000D01*
X94681513Y-77242577D01*
X95119195Y-77061284D01*
X95513098Y-76798086D01*
X95848086Y-76463098D01*
X96111284Y-76069195D01*
X96113606Y-76063589D01*
X97045000Y-76063589D01*
X97045000Y-76336411D01*
X97098225Y-76603989D01*
X97202629Y-76856043D01*
X97354201Y-77082886D01*
X97547114Y-77275799D01*
X97773957Y-77427371D01*
X98026011Y-77531775D01*
X98293589Y-77585000D01*
X98566411Y-77585000D01*
X98833989Y-77531775D01*
X99086043Y-77427371D01*
X99312886Y-77275799D01*
X99505799Y-77082886D01*
X99657371Y-76856043D01*
X99695000Y-76765198D01*
X99732629Y-76856043D01*
X99884201Y-77082886D01*
X100077114Y-77275799D01*
X100303957Y-77427371D01*
X100556011Y-77531775D01*
X100823589Y-77585000D01*
X101096411Y-77585000D01*
X101363989Y-77531775D01*
X101616043Y-77427371D01*
X101842886Y-77275799D01*
X101961692Y-77156993D01*
X102722612Y-77156993D01*
X102788137Y-77395860D01*
X103035116Y-77511760D01*
X103299960Y-77577250D01*
X103572492Y-77589812D01*
X103842238Y-77548965D01*
X104098832Y-77456277D01*
X104211863Y-77395860D01*
X104277388Y-77156993D01*
X103500000Y-76379605D01*
X102722612Y-77156993D01*
X101961692Y-77156993D01*
X102035799Y-77082886D01*
X102187371Y-76856043D01*
X102228511Y-76756721D01*
X102243723Y-76798832D01*
X102304140Y-76911863D01*
X102543007Y-76977388D01*
X103320395Y-76200000D01*
X102543007Y-75422612D01*
X102304140Y-75488137D01*
X102229836Y-75646477D01*
X102187371Y-75543957D01*
X102035799Y-75317114D01*
X101961692Y-75243007D01*
X102722612Y-75243007D01*
X103500000Y-76020395D01*
X104277388Y-75243007D01*
X104211863Y-75004140D01*
X103964884Y-74888240D01*
X103700040Y-74822750D01*
X103427508Y-74810188D01*
X103157762Y-74851035D01*
X102901168Y-74943723D01*
X102788137Y-75004140D01*
X102722612Y-75243007D01*
X101961692Y-75243007D01*
X101842886Y-75124201D01*
X101616043Y-74972629D01*
X101363989Y-74868225D01*
X101096411Y-74815000D01*
X100823589Y-74815000D01*
X100556011Y-74868225D01*
X100303957Y-74972629D01*
X100077114Y-75124201D01*
X99884201Y-75317114D01*
X99732629Y-75543957D01*
X99695000Y-75634802D01*
X99657371Y-75543957D01*
X99505799Y-75317114D01*
X99312886Y-75124201D01*
X99086043Y-74972629D01*
X98833989Y-74868225D01*
X98566411Y-74815000D01*
X98293589Y-74815000D01*
X98026011Y-74868225D01*
X97773957Y-74972629D01*
X97547114Y-75124201D01*
X97354201Y-75317114D01*
X97202629Y-75543957D01*
X97098225Y-75796011D01*
X97045000Y-76063589D01*
X96113606Y-76063589D01*
X96292577Y-75631513D01*
X96385000Y-75166872D01*
X96385000Y-74693128D01*
X113165000Y-74693128D01*
X113165000Y-75166872D01*
X113257423Y-75631513D01*
X113438716Y-76069195D01*
X113701914Y-76463098D01*
X114036902Y-76798086D01*
X114430805Y-77061284D01*
X114868487Y-77242577D01*
X115333128Y-77335000D01*
X115806872Y-77335000D01*
X116271513Y-77242577D01*
X116709195Y-77061284D01*
X117103098Y-76798086D01*
X117438086Y-76463098D01*
X117701284Y-76069195D01*
X117882577Y-75631513D01*
X117975000Y-75166872D01*
X117975000Y-74693128D01*
X117882577Y-74228487D01*
X117701284Y-73790805D01*
X117438086Y-73396902D01*
X117103098Y-73061914D01*
X116709195Y-72798716D01*
X116271513Y-72617423D01*
X115806872Y-72525000D01*
X115333128Y-72525000D01*
X114868487Y-72617423D01*
X114430805Y-72798716D01*
X114036902Y-73061914D01*
X113701914Y-73396902D01*
X113438716Y-73790805D01*
X113257423Y-74228487D01*
X113165000Y-74693128D01*
X96385000Y-74693128D01*
X96292577Y-74228487D01*
X96111284Y-73790805D01*
X95848086Y-73396902D01*
X95513098Y-73061914D01*
X95119195Y-72798716D01*
X94681513Y-72617423D01*
X94216872Y-72525000D01*
X93743128Y-72525000D01*
X93278487Y-72617423D01*
X92840805Y-72798716D01*
X92446902Y-73061914D01*
X92111914Y-73396902D01*
X91848716Y-73790805D01*
X91667423Y-74228487D01*
X91575000Y-74693128D01*
X84480000Y-74693128D01*
X84480000Y-71662911D01*
X115905000Y-71662911D01*
X115905000Y-71847089D01*
X115940932Y-72027729D01*
X116011414Y-72197889D01*
X116113738Y-72351028D01*
X116243972Y-72481262D01*
X116397111Y-72583586D01*
X116567271Y-72654068D01*
X116747911Y-72690000D01*
X116932089Y-72690000D01*
X117112729Y-72654068D01*
X117267404Y-72590000D01*
X119587596Y-72590000D01*
X119742271Y-72654068D01*
X119922911Y-72690000D01*
X120107089Y-72690000D01*
X120287729Y-72654068D01*
X120457889Y-72583586D01*
X120611028Y-72481262D01*
X120741262Y-72351028D01*
X120843586Y-72197889D01*
X120914068Y-72027729D01*
X120950000Y-71847089D01*
X120950000Y-71662911D01*
X120914068Y-71482271D01*
X120843586Y-71312111D01*
X120741262Y-71158972D01*
X120611028Y-71028738D01*
X120457889Y-70926414D01*
X120287729Y-70855932D01*
X120107089Y-70820000D01*
X119922911Y-70820000D01*
X119742271Y-70855932D01*
X119587596Y-70920000D01*
X117267404Y-70920000D01*
X117112729Y-70855932D01*
X116932089Y-70820000D01*
X116747911Y-70820000D01*
X116567271Y-70855932D01*
X116397111Y-70926414D01*
X116243972Y-71028738D01*
X116113738Y-71158972D01*
X116011414Y-71312111D01*
X115940932Y-71482271D01*
X115905000Y-71662911D01*
X84480000Y-71662911D01*
X84480000Y-58183128D01*
X91575000Y-58183128D01*
X91575000Y-58656872D01*
X91667423Y-59121513D01*
X91848716Y-59559195D01*
X92111914Y-59953098D01*
X92446902Y-60288086D01*
X92840805Y-60551284D01*
X93278487Y-60732577D01*
X93743128Y-60825000D01*
X94216872Y-60825000D01*
X94681513Y-60732577D01*
X95119195Y-60551284D01*
X95513098Y-60288086D01*
X95848086Y-59953098D01*
X96111284Y-59559195D01*
X96292577Y-59121513D01*
X96385000Y-58656872D01*
X96385000Y-58183128D01*
X96292577Y-57718487D01*
X96111284Y-57280805D01*
X95932736Y-57013589D01*
X99575000Y-57013589D01*
X99575000Y-57286411D01*
X99628225Y-57553989D01*
X99732629Y-57806043D01*
X99884201Y-58032886D01*
X100077114Y-58225799D01*
X100303957Y-58377371D01*
X100556011Y-58481775D01*
X100823589Y-58535000D01*
X101096411Y-58535000D01*
X101363989Y-58481775D01*
X101616043Y-58377371D01*
X101842886Y-58225799D01*
X102035799Y-58032886D01*
X102187371Y-57806043D01*
X102235000Y-57691056D01*
X102282629Y-57806043D01*
X102434201Y-58032886D01*
X102627114Y-58225799D01*
X102853957Y-58377371D01*
X103106011Y-58481775D01*
X103373589Y-58535000D01*
X103646411Y-58535000D01*
X103913989Y-58481775D01*
X104166043Y-58377371D01*
X104392886Y-58225799D01*
X104585799Y-58032886D01*
X104737371Y-57806043D01*
X104775000Y-57715198D01*
X104812629Y-57806043D01*
X104964201Y-58032886D01*
X105157114Y-58225799D01*
X105383957Y-58377371D01*
X105636011Y-58481775D01*
X105903589Y-58535000D01*
X106176411Y-58535000D01*
X106443989Y-58481775D01*
X106696043Y-58377371D01*
X106922886Y-58225799D01*
X107115799Y-58032886D01*
X107267371Y-57806043D01*
X107315000Y-57691056D01*
X107362629Y-57806043D01*
X107514201Y-58032886D01*
X107707114Y-58225799D01*
X107933957Y-58377371D01*
X108186011Y-58481775D01*
X108453589Y-58535000D01*
X108726411Y-58535000D01*
X108993989Y-58481775D01*
X109246043Y-58377371D01*
X109472886Y-58225799D01*
X109515557Y-58183128D01*
X113165000Y-58183128D01*
X113165000Y-58656872D01*
X113257423Y-59121513D01*
X113438716Y-59559195D01*
X113701914Y-59953098D01*
X114036902Y-60288086D01*
X114430805Y-60551284D01*
X114868487Y-60732577D01*
X115333128Y-60825000D01*
X115806872Y-60825000D01*
X116271513Y-60732577D01*
X116709195Y-60551284D01*
X117103098Y-60288086D01*
X117438086Y-59953098D01*
X117701284Y-59559195D01*
X117882577Y-59121513D01*
X117975000Y-58656872D01*
X117975000Y-58183128D01*
X117882577Y-57718487D01*
X117701284Y-57280805D01*
X117438086Y-56886902D01*
X117103098Y-56551914D01*
X116709195Y-56288716D01*
X116271513Y-56107423D01*
X115806872Y-56015000D01*
X115333128Y-56015000D01*
X114868487Y-56107423D01*
X114430805Y-56288716D01*
X114036902Y-56551914D01*
X113701914Y-56886902D01*
X113438716Y-57280805D01*
X113257423Y-57718487D01*
X113165000Y-58183128D01*
X109515557Y-58183128D01*
X109665799Y-58032886D01*
X109817371Y-57806043D01*
X109921775Y-57553989D01*
X109975000Y-57286411D01*
X109975000Y-57013589D01*
X109921775Y-56746011D01*
X109817371Y-56493957D01*
X109665799Y-56267114D01*
X109472886Y-56074201D01*
X109246043Y-55922629D01*
X108993989Y-55818225D01*
X108726411Y-55765000D01*
X108453589Y-55765000D01*
X108186011Y-55818225D01*
X107933957Y-55922629D01*
X107707114Y-56074201D01*
X107514201Y-56267114D01*
X107362629Y-56493957D01*
X107315000Y-56608944D01*
X107267371Y-56493957D01*
X107115799Y-56267114D01*
X106922886Y-56074201D01*
X106696043Y-55922629D01*
X106443989Y-55818225D01*
X106176411Y-55765000D01*
X105903589Y-55765000D01*
X105636011Y-55818225D01*
X105383957Y-55922629D01*
X105157114Y-56074201D01*
X104964201Y-56267114D01*
X104812629Y-56493957D01*
X104775000Y-56584802D01*
X104737371Y-56493957D01*
X104585799Y-56267114D01*
X104392886Y-56074201D01*
X104166043Y-55922629D01*
X103913989Y-55818225D01*
X103646411Y-55765000D01*
X103373589Y-55765000D01*
X103106011Y-55818225D01*
X102853957Y-55922629D01*
X102627114Y-56074201D01*
X102434201Y-56267114D01*
X102282629Y-56493957D01*
X102235000Y-56608944D01*
X102187371Y-56493957D01*
X102035799Y-56267114D01*
X101842886Y-56074201D01*
X101616043Y-55922629D01*
X101363989Y-55818225D01*
X101096411Y-55765000D01*
X100823589Y-55765000D01*
X100556011Y-55818225D01*
X100303957Y-55922629D01*
X100077114Y-56074201D01*
X99884201Y-56267114D01*
X99732629Y-56493957D01*
X99628225Y-56746011D01*
X99575000Y-57013589D01*
X95932736Y-57013589D01*
X95848086Y-56886902D01*
X95513098Y-56551914D01*
X95119195Y-56288716D01*
X94681513Y-56107423D01*
X94216872Y-56015000D01*
X93743128Y-56015000D01*
X93278487Y-56107423D01*
X92840805Y-56288716D01*
X92446902Y-56551914D01*
X92111914Y-56886902D01*
X91848716Y-57280805D01*
X91667423Y-57718487D01*
X91575000Y-58183128D01*
X84480000Y-58183128D01*
X84480000Y-55912279D01*
X84500161Y-55706655D01*
X84600000Y-55706655D01*
X84600000Y-56053345D01*
X84667636Y-56393373D01*
X84800308Y-56713673D01*
X84992919Y-57001935D01*
X85238065Y-57247081D01*
X85526327Y-57439692D01*
X85846627Y-57572364D01*
X86186655Y-57640000D01*
X86533345Y-57640000D01*
X86873373Y-57572364D01*
X87193673Y-57439692D01*
X87481935Y-57247081D01*
X87727081Y-57001935D01*
X87919692Y-56713673D01*
X88052364Y-56393373D01*
X88120000Y-56053345D01*
X88120000Y-55706655D01*
X120160000Y-55706655D01*
X120160000Y-56053345D01*
X120227636Y-56393373D01*
X120360308Y-56713673D01*
X120552919Y-57001935D01*
X120798065Y-57247081D01*
X121086327Y-57439692D01*
X121406627Y-57572364D01*
X121746655Y-57640000D01*
X122093345Y-57640000D01*
X122433373Y-57572364D01*
X122753673Y-57439692D01*
X123041935Y-57247081D01*
X123287081Y-57001935D01*
X123479692Y-56713673D01*
X123612364Y-56393373D01*
X123680000Y-56053345D01*
X123680000Y-55706655D01*
X123612364Y-55366627D01*
X123479692Y-55046327D01*
X123287081Y-54758065D01*
X123041935Y-54512919D01*
X122753673Y-54320308D01*
X122433373Y-54187636D01*
X122093345Y-54120000D01*
X121746655Y-54120000D01*
X121406627Y-54187636D01*
X121086327Y-54320308D01*
X120798065Y-54512919D01*
X120552919Y-54758065D01*
X120360308Y-55046327D01*
X120227636Y-55366627D01*
X120160000Y-55706655D01*
X88120000Y-55706655D01*
X88052364Y-55366627D01*
X87919692Y-55046327D01*
X87727081Y-54758065D01*
X87481935Y-54512919D01*
X87193673Y-54320308D01*
X86873373Y-54187636D01*
X86533345Y-54120000D01*
X86186655Y-54120000D01*
X85846627Y-54187636D01*
X85526327Y-54320308D01*
X85238065Y-54512919D01*
X84992919Y-54758065D01*
X84800308Y-55046327D01*
X84667636Y-55366627D01*
X84600000Y-55706655D01*
X84500161Y-55706655D01*
X84518909Y-55515455D01*
X84624780Y-55164792D01*
X84796744Y-54841375D01*
X85028254Y-54557516D01*
X85310486Y-54324035D01*
X85632695Y-54149817D01*
X85982614Y-54041498D01*
X86377443Y-54000000D01*
X121887721Y-54000000D01*
X122284545Y-54038909D01*
G04 #@! TA.AperFunction,Conductor*
D19*
G36*
X122284545Y-54038909D02*
G01*
X122635208Y-54144780D01*
X122958625Y-54316744D01*
X123242484Y-54548254D01*
X123475965Y-54830486D01*
X123650183Y-55152695D01*
X123758502Y-55502614D01*
X123800000Y-55897443D01*
X123800001Y-77120071D01*
X123796807Y-77152500D01*
X123809550Y-77281883D01*
X123847290Y-77406293D01*
X123908575Y-77520950D01*
X123991052Y-77621448D01*
X124091550Y-77703925D01*
X124206207Y-77765210D01*
X124330617Y-77802950D01*
X124427581Y-77812500D01*
X124460000Y-77815693D01*
X124492419Y-77812500D01*
X128237721Y-77812500D01*
X128387869Y-77827222D01*
X128501246Y-77861453D01*
X128605819Y-77917055D01*
X128697596Y-77991907D01*
X128773091Y-78083164D01*
X128829419Y-78187344D01*
X128864440Y-78300476D01*
X128880000Y-78448522D01*
X128880001Y-101567701D01*
X128841090Y-101964545D01*
X128735220Y-102315205D01*
X128563256Y-102638622D01*
X128331749Y-102922479D01*
X128049509Y-103155968D01*
X127727306Y-103330182D01*
X127377385Y-103438501D01*
X126982557Y-103479999D01*
X81312270Y-103479999D01*
X80915456Y-103441091D01*
X80564795Y-103335220D01*
X80241378Y-103163257D01*
X79957519Y-102931748D01*
X79724036Y-102649514D01*
X79549817Y-102327304D01*
X79441499Y-101977385D01*
X79400001Y-101582557D01*
X79400001Y-101426655D01*
X79520000Y-101426655D01*
X79520000Y-101773345D01*
X79587636Y-102113373D01*
X79720308Y-102433673D01*
X79912919Y-102721935D01*
X80158065Y-102967081D01*
X80446327Y-103159692D01*
X80766627Y-103292364D01*
X81106655Y-103360000D01*
X81453345Y-103360000D01*
X81793373Y-103292364D01*
X82113673Y-103159692D01*
X82401935Y-102967081D01*
X82647081Y-102721935D01*
X82839692Y-102433673D01*
X82972364Y-102113373D01*
X83040000Y-101773345D01*
X83040000Y-101426655D01*
X125240000Y-101426655D01*
X125240000Y-101773345D01*
X125307636Y-102113373D01*
X125440308Y-102433673D01*
X125632919Y-102721935D01*
X125878065Y-102967081D01*
X126166327Y-103159692D01*
X126486627Y-103292364D01*
X126826655Y-103360000D01*
X127173345Y-103360000D01*
X127513373Y-103292364D01*
X127833673Y-103159692D01*
X128121935Y-102967081D01*
X128367081Y-102721935D01*
X128559692Y-102433673D01*
X128692364Y-102113373D01*
X128760000Y-101773345D01*
X128760000Y-101426655D01*
X128692364Y-101086627D01*
X128559692Y-100766327D01*
X128367081Y-100478065D01*
X128121935Y-100232919D01*
X127833673Y-100040308D01*
X127513373Y-99907636D01*
X127173345Y-99840000D01*
X126826655Y-99840000D01*
X126486627Y-99907636D01*
X126166327Y-100040308D01*
X125878065Y-100232919D01*
X125632919Y-100478065D01*
X125440308Y-100766327D01*
X125307636Y-101086627D01*
X125240000Y-101426655D01*
X83040000Y-101426655D01*
X82972364Y-101086627D01*
X82839692Y-100766327D01*
X82647081Y-100478065D01*
X82401935Y-100232919D01*
X82113673Y-100040308D01*
X81793373Y-99907636D01*
X81453345Y-99840000D01*
X81106655Y-99840000D01*
X80766627Y-99907636D01*
X80446327Y-100040308D01*
X80158065Y-100232919D01*
X79912919Y-100478065D01*
X79720308Y-100766327D01*
X79587636Y-101086627D01*
X79520000Y-101426655D01*
X79400001Y-101426655D01*
X79400001Y-96242702D01*
X86816903Y-96242702D01*
X86888486Y-96486671D01*
X87143996Y-96607571D01*
X87418184Y-96676300D01*
X87700512Y-96690217D01*
X87980130Y-96648787D01*
X88246292Y-96553603D01*
X88371514Y-96486671D01*
X88443097Y-96242702D01*
X87630000Y-95429605D01*
X86816903Y-96242702D01*
X79400001Y-96242702D01*
X79400001Y-95320512D01*
X86189783Y-95320512D01*
X86231213Y-95600130D01*
X86326397Y-95866292D01*
X86393329Y-95991514D01*
X86637298Y-96063097D01*
X87450395Y-95250000D01*
X87809605Y-95250000D01*
X88622702Y-96063097D01*
X88866671Y-95991514D01*
X88897194Y-95927008D01*
X88898320Y-95929727D01*
X89055363Y-96164759D01*
X89255241Y-96364637D01*
X89490273Y-96521680D01*
X89751426Y-96629853D01*
X90028665Y-96685000D01*
X90311335Y-96685000D01*
X90588574Y-96629853D01*
X90849727Y-96521680D01*
X91084759Y-96364637D01*
X91284637Y-96164759D01*
X91440000Y-95932241D01*
X91595363Y-96164759D01*
X91795241Y-96364637D01*
X92030273Y-96521680D01*
X92291426Y-96629853D01*
X92568665Y-96685000D01*
X92851335Y-96685000D01*
X93128574Y-96629853D01*
X93389727Y-96521680D01*
X93624759Y-96364637D01*
X93824637Y-96164759D01*
X93980000Y-95932241D01*
X94135363Y-96164759D01*
X94335241Y-96364637D01*
X94570273Y-96521680D01*
X94831426Y-96629853D01*
X95108665Y-96685000D01*
X95391335Y-96685000D01*
X95668574Y-96629853D01*
X95929727Y-96521680D01*
X96164759Y-96364637D01*
X96364637Y-96164759D01*
X96520000Y-95932241D01*
X96675363Y-96164759D01*
X96875241Y-96364637D01*
X97110273Y-96521680D01*
X97371426Y-96629853D01*
X97648665Y-96685000D01*
X97931335Y-96685000D01*
X98208574Y-96629853D01*
X98469727Y-96521680D01*
X98704759Y-96364637D01*
X98904637Y-96164759D01*
X99060000Y-95932241D01*
X99215363Y-96164759D01*
X99415241Y-96364637D01*
X99650273Y-96521680D01*
X99911426Y-96629853D01*
X100188665Y-96685000D01*
X100471335Y-96685000D01*
X100748574Y-96629853D01*
X101009727Y-96521680D01*
X101244759Y-96364637D01*
X101444637Y-96164759D01*
X101600000Y-95932241D01*
X101755363Y-96164759D01*
X101955241Y-96364637D01*
X102190273Y-96521680D01*
X102451426Y-96629853D01*
X102728665Y-96685000D01*
X103011335Y-96685000D01*
X103288574Y-96629853D01*
X103549727Y-96521680D01*
X103784759Y-96364637D01*
X103984637Y-96164759D01*
X104140000Y-95932241D01*
X104295363Y-96164759D01*
X104495241Y-96364637D01*
X104730273Y-96521680D01*
X104991426Y-96629853D01*
X105268665Y-96685000D01*
X105551335Y-96685000D01*
X105828574Y-96629853D01*
X106089727Y-96521680D01*
X106324759Y-96364637D01*
X106524637Y-96164759D01*
X106680000Y-95932241D01*
X106835363Y-96164759D01*
X107035241Y-96364637D01*
X107270273Y-96521680D01*
X107531426Y-96629853D01*
X107808665Y-96685000D01*
X108091335Y-96685000D01*
X108368574Y-96629853D01*
X108629727Y-96521680D01*
X108864759Y-96364637D01*
X109064637Y-96164759D01*
X109220000Y-95932241D01*
X109375363Y-96164759D01*
X109575241Y-96364637D01*
X109810273Y-96521680D01*
X110071426Y-96629853D01*
X110348665Y-96685000D01*
X110631335Y-96685000D01*
X110908574Y-96629853D01*
X111169727Y-96521680D01*
X111404759Y-96364637D01*
X111604637Y-96164759D01*
X111760000Y-95932241D01*
X111915363Y-96164759D01*
X112115241Y-96364637D01*
X112350273Y-96521680D01*
X112611426Y-96629853D01*
X112888665Y-96685000D01*
X113171335Y-96685000D01*
X113448574Y-96629853D01*
X113709727Y-96521680D01*
X113944759Y-96364637D01*
X114144637Y-96164759D01*
X114300000Y-95932241D01*
X114455363Y-96164759D01*
X114655241Y-96364637D01*
X114890273Y-96521680D01*
X115151426Y-96629853D01*
X115428665Y-96685000D01*
X115711335Y-96685000D01*
X115988574Y-96629853D01*
X116249727Y-96521680D01*
X116484759Y-96364637D01*
X116684637Y-96164759D01*
X116840000Y-95932241D01*
X116995363Y-96164759D01*
X117195241Y-96364637D01*
X117430273Y-96521680D01*
X117691426Y-96629853D01*
X117968665Y-96685000D01*
X118251335Y-96685000D01*
X118528574Y-96629853D01*
X118789727Y-96521680D01*
X119024759Y-96364637D01*
X119224637Y-96164759D01*
X119380000Y-95932241D01*
X119535363Y-96164759D01*
X119735241Y-96364637D01*
X119970273Y-96521680D01*
X120231426Y-96629853D01*
X120508665Y-96685000D01*
X120791335Y-96685000D01*
X121068574Y-96629853D01*
X121329727Y-96521680D01*
X121564759Y-96364637D01*
X121764637Y-96164759D01*
X121884748Y-95985000D01*
X126201895Y-95985000D01*
X126238000Y-95988556D01*
X126274105Y-95985000D01*
X126382085Y-95974365D01*
X126520633Y-95932337D01*
X126648320Y-95864087D01*
X126760238Y-95772238D01*
X126783258Y-95744188D01*
X127748193Y-94779254D01*
X127776238Y-94756238D01*
X127868087Y-94644320D01*
X127936337Y-94516633D01*
X127978365Y-94378085D01*
X127989000Y-94270105D01*
X127992556Y-94234000D01*
X127989000Y-94197895D01*
X127989000Y-85761096D01*
X127992555Y-85724999D01*
X127989000Y-85688902D01*
X127989000Y-85688895D01*
X127978365Y-85580915D01*
X127936337Y-85442367D01*
X127868087Y-85314680D01*
X127822271Y-85258854D01*
X127799253Y-85230806D01*
X127799250Y-85230803D01*
X127776237Y-85202762D01*
X127748197Y-85179750D01*
X127042932Y-84474485D01*
X127010068Y-84309271D01*
X126939586Y-84139111D01*
X126837262Y-83985972D01*
X126707028Y-83855738D01*
X126553889Y-83753414D01*
X126383729Y-83682932D01*
X126203089Y-83647000D01*
X126018911Y-83647000D01*
X125838271Y-83682932D01*
X125668111Y-83753414D01*
X125514972Y-83855738D01*
X125384738Y-83985972D01*
X125282414Y-84139111D01*
X125211932Y-84309271D01*
X125176000Y-84489911D01*
X125176000Y-84674089D01*
X125211932Y-84854729D01*
X125282414Y-85024889D01*
X125384738Y-85178028D01*
X125514972Y-85308262D01*
X125668111Y-85410586D01*
X125838271Y-85481068D01*
X126003485Y-85513932D01*
X126519000Y-86029447D01*
X126519001Y-93929552D01*
X125933554Y-94515000D01*
X121884748Y-94515000D01*
X121764637Y-94335241D01*
X121564759Y-94135363D01*
X121332241Y-93980000D01*
X121564759Y-93824637D01*
X121764637Y-93624759D01*
X121921680Y-93389727D01*
X122029853Y-93128574D01*
X122085000Y-92851335D01*
X122085000Y-92568665D01*
X122029853Y-92291426D01*
X121921680Y-92030273D01*
X121764637Y-91795241D01*
X121564759Y-91595363D01*
X121332241Y-91440000D01*
X121564759Y-91284637D01*
X121764637Y-91084759D01*
X121921680Y-90849727D01*
X122029853Y-90588574D01*
X122085000Y-90311335D01*
X122085000Y-90028665D01*
X122029853Y-89751426D01*
X121921680Y-89490273D01*
X121764637Y-89255241D01*
X121564759Y-89055363D01*
X121332241Y-88900000D01*
X121564759Y-88744637D01*
X121764637Y-88544759D01*
X121921680Y-88309727D01*
X122029853Y-88048574D01*
X122085000Y-87771335D01*
X122085000Y-87488665D01*
X122029853Y-87211426D01*
X121921680Y-86950273D01*
X121764637Y-86715241D01*
X121564759Y-86515363D01*
X121332241Y-86360000D01*
X121564759Y-86204637D01*
X121764637Y-86004759D01*
X121921680Y-85769727D01*
X121956170Y-85686460D01*
X122085972Y-85816262D01*
X122239111Y-85918586D01*
X122409271Y-85989068D01*
X122589911Y-86025000D01*
X122774089Y-86025000D01*
X122954729Y-85989068D01*
X123124889Y-85918586D01*
X123278028Y-85816262D01*
X123408262Y-85686028D01*
X123510586Y-85532889D01*
X123581068Y-85362729D01*
X123617000Y-85182089D01*
X123617000Y-84997911D01*
X123581068Y-84817271D01*
X123510586Y-84647111D01*
X123417000Y-84507049D01*
X123417000Y-80808105D01*
X123420556Y-80772000D01*
X123406365Y-80627915D01*
X123364337Y-80489366D01*
X123296087Y-80361680D01*
X123227253Y-80277806D01*
X123227250Y-80277803D01*
X123204237Y-80249762D01*
X123176197Y-80226750D01*
X122465258Y-79515812D01*
X122442238Y-79487762D01*
X122330320Y-79395913D01*
X122202633Y-79327663D01*
X122064085Y-79285635D01*
X121956105Y-79275000D01*
X121920000Y-79271444D01*
X121884695Y-79274921D01*
X121764637Y-79095241D01*
X121564759Y-78895363D01*
X121329727Y-78738320D01*
X121068574Y-78630147D01*
X120791335Y-78575000D01*
X120508665Y-78575000D01*
X120231426Y-78630147D01*
X119970273Y-78738320D01*
X119735241Y-78895363D01*
X119535363Y-79095241D01*
X119380000Y-79327759D01*
X119224637Y-79095241D01*
X119024759Y-78895363D01*
X118944426Y-78841687D01*
X118960028Y-78831262D01*
X119090262Y-78701028D01*
X119192586Y-78547889D01*
X119263068Y-78377729D01*
X119299000Y-78197089D01*
X119299000Y-78012911D01*
X119263068Y-77832271D01*
X119192586Y-77662111D01*
X119090262Y-77508972D01*
X118960028Y-77378738D01*
X118806889Y-77276414D01*
X118636729Y-77205932D01*
X118456089Y-77170000D01*
X118271911Y-77170000D01*
X118091271Y-77205932D01*
X117921111Y-77276414D01*
X117781049Y-77370000D01*
X112850951Y-77370000D01*
X112710889Y-77276414D01*
X112540729Y-77205932D01*
X112360089Y-77170000D01*
X112175911Y-77170000D01*
X112104475Y-77184210D01*
X112205799Y-77082886D01*
X112357371Y-76856043D01*
X112461775Y-76603989D01*
X112515000Y-76336411D01*
X112515000Y-76063589D01*
X112461775Y-75796011D01*
X112357371Y-75543957D01*
X112205799Y-75317114D01*
X112012886Y-75124201D01*
X111786043Y-74972629D01*
X111533989Y-74868225D01*
X111266411Y-74815000D01*
X110993589Y-74815000D01*
X110726011Y-74868225D01*
X110473957Y-74972629D01*
X110247114Y-75124201D01*
X110054201Y-75317114D01*
X109902629Y-75543957D01*
X109860000Y-75646873D01*
X109817371Y-75543957D01*
X109665799Y-75317114D01*
X109472886Y-75124201D01*
X109246043Y-74972629D01*
X108993989Y-74868225D01*
X108726411Y-74815000D01*
X108453589Y-74815000D01*
X108186011Y-74868225D01*
X107933957Y-74972629D01*
X107707114Y-75124201D01*
X107514201Y-75317114D01*
X107362629Y-75543957D01*
X107320000Y-75646873D01*
X107277371Y-75543957D01*
X107125799Y-75317114D01*
X106932886Y-75124201D01*
X106706043Y-74972629D01*
X106453989Y-74868225D01*
X106186411Y-74815000D01*
X105913589Y-74815000D01*
X105646011Y-74868225D01*
X105393957Y-74972629D01*
X105167114Y-75124201D01*
X104974201Y-75317114D01*
X104822629Y-75543957D01*
X104776147Y-75656175D01*
X104756277Y-75601168D01*
X104695860Y-75488137D01*
X104456993Y-75422612D01*
X103679605Y-76200000D01*
X104456993Y-76977388D01*
X104695860Y-76911863D01*
X104775476Y-76742205D01*
X104822629Y-76856043D01*
X104974201Y-77082886D01*
X105167114Y-77275799D01*
X105393957Y-77427371D01*
X105646011Y-77531775D01*
X105913589Y-77585000D01*
X106186411Y-77585000D01*
X106453989Y-77531775D01*
X106706043Y-77427371D01*
X106932886Y-77275799D01*
X107125799Y-77082886D01*
X107277371Y-76856043D01*
X107320000Y-76753127D01*
X107362629Y-76856043D01*
X107500885Y-77062958D01*
X105902907Y-78660936D01*
X105828574Y-78630147D01*
X105551335Y-78575000D01*
X105268665Y-78575000D01*
X104991426Y-78630147D01*
X104730273Y-78738320D01*
X104495241Y-78895363D01*
X104295363Y-79095241D01*
X104140000Y-79327759D01*
X103984637Y-79095241D01*
X103784759Y-78895363D01*
X103549727Y-78738320D01*
X103288574Y-78630147D01*
X103011335Y-78575000D01*
X102728665Y-78575000D01*
X102451426Y-78630147D01*
X102190273Y-78738320D01*
X101955241Y-78895363D01*
X101755363Y-79095241D01*
X101600000Y-79327759D01*
X101444637Y-79095241D01*
X101244759Y-78895363D01*
X101009727Y-78738320D01*
X100748574Y-78630147D01*
X100471335Y-78575000D01*
X100188665Y-78575000D01*
X99911426Y-78630147D01*
X99650273Y-78738320D01*
X99415241Y-78895363D01*
X99215363Y-79095241D01*
X99060000Y-79327759D01*
X98904637Y-79095241D01*
X98704759Y-78895363D01*
X98469727Y-78738320D01*
X98208574Y-78630147D01*
X97931335Y-78575000D01*
X97648665Y-78575000D01*
X97371426Y-78630147D01*
X97110273Y-78738320D01*
X96875241Y-78895363D01*
X96675363Y-79095241D01*
X96520000Y-79327759D01*
X96364637Y-79095241D01*
X96164759Y-78895363D01*
X95929727Y-78738320D01*
X95668574Y-78630147D01*
X95391335Y-78575000D01*
X95108665Y-78575000D01*
X94831426Y-78630147D01*
X94570273Y-78738320D01*
X94335241Y-78895363D01*
X94135363Y-79095241D01*
X93980000Y-79327759D01*
X93824637Y-79095241D01*
X93624759Y-78895363D01*
X93389727Y-78738320D01*
X93128574Y-78630147D01*
X92851335Y-78575000D01*
X92568665Y-78575000D01*
X92291426Y-78630147D01*
X92030273Y-78738320D01*
X91795241Y-78895363D01*
X91595363Y-79095241D01*
X91439085Y-79329128D01*
X91406671Y-79268486D01*
X91162702Y-79196903D01*
X90349605Y-80010000D01*
X91162702Y-80823097D01*
X91406671Y-80751514D01*
X91437194Y-80687008D01*
X91438320Y-80689727D01*
X91595363Y-80924759D01*
X91795241Y-81124637D01*
X92030273Y-81281680D01*
X92291426Y-81389853D01*
X92568665Y-81445000D01*
X92851335Y-81445000D01*
X93128574Y-81389853D01*
X93389727Y-81281680D01*
X93624759Y-81124637D01*
X93824637Y-80924759D01*
X93980000Y-80692241D01*
X94135363Y-80924759D01*
X94335241Y-81124637D01*
X94570273Y-81281680D01*
X94831426Y-81389853D01*
X95108665Y-81445000D01*
X95391335Y-81445000D01*
X95668574Y-81389853D01*
X95929727Y-81281680D01*
X96164759Y-81124637D01*
X96364637Y-80924759D01*
X96520000Y-80692241D01*
X96675363Y-80924759D01*
X96875241Y-81124637D01*
X97110273Y-81281680D01*
X97371426Y-81389853D01*
X97648665Y-81445000D01*
X97931335Y-81445000D01*
X98208574Y-81389853D01*
X98469727Y-81281680D01*
X98704759Y-81124637D01*
X98904637Y-80924759D01*
X99060000Y-80692241D01*
X99215363Y-80924759D01*
X99415241Y-81124637D01*
X99650273Y-81281680D01*
X99911426Y-81389853D01*
X100188665Y-81445000D01*
X100471335Y-81445000D01*
X100748574Y-81389853D01*
X101009727Y-81281680D01*
X101244759Y-81124637D01*
X101444637Y-80924759D01*
X101600000Y-80692241D01*
X101755363Y-80924759D01*
X101955241Y-81124637D01*
X102190273Y-81281680D01*
X102451426Y-81389853D01*
X102728665Y-81445000D01*
X103011335Y-81445000D01*
X103288574Y-81389853D01*
X103549727Y-81281680D01*
X103784759Y-81124637D01*
X103984637Y-80924759D01*
X104140000Y-80692241D01*
X104295363Y-80924759D01*
X104495241Y-81124637D01*
X104730273Y-81281680D01*
X104991426Y-81389853D01*
X105268665Y-81445000D01*
X105551335Y-81445000D01*
X105828574Y-81389853D01*
X106089727Y-81281680D01*
X106324759Y-81124637D01*
X106524637Y-80924759D01*
X106680000Y-80692241D01*
X106835363Y-80924759D01*
X107035241Y-81124637D01*
X107270273Y-81281680D01*
X107531426Y-81389853D01*
X107808665Y-81445000D01*
X108091335Y-81445000D01*
X108368574Y-81389853D01*
X108629727Y-81281680D01*
X108864759Y-81124637D01*
X109064637Y-80924759D01*
X109220000Y-80692241D01*
X109375363Y-80924759D01*
X109575241Y-81124637D01*
X109810273Y-81281680D01*
X110066094Y-81387645D01*
X110098932Y-81552729D01*
X110169414Y-81722889D01*
X110271738Y-81876028D01*
X110401972Y-82006262D01*
X110555111Y-82108586D01*
X110725271Y-82179068D01*
X110905911Y-82215000D01*
X111090089Y-82215000D01*
X111270729Y-82179068D01*
X111440889Y-82108586D01*
X111580951Y-82015000D01*
X111698372Y-82015000D01*
X111650147Y-82131426D01*
X111595000Y-82408665D01*
X111595000Y-82691335D01*
X111650147Y-82968574D01*
X111690502Y-83066000D01*
X108024951Y-83066000D01*
X107884889Y-82972414D01*
X107714729Y-82901932D01*
X107534089Y-82866000D01*
X107349911Y-82866000D01*
X107169271Y-82901932D01*
X106999111Y-82972414D01*
X106845972Y-83074738D01*
X106715738Y-83204972D01*
X106613414Y-83358111D01*
X106542932Y-83528271D01*
X106507000Y-83708911D01*
X106507000Y-83893089D01*
X106542932Y-84073729D01*
X106613414Y-84243889D01*
X106715738Y-84397028D01*
X106845972Y-84527262D01*
X106999111Y-84629586D01*
X107169271Y-84700068D01*
X107349911Y-84736000D01*
X107534089Y-84736000D01*
X107714729Y-84700068D01*
X107884889Y-84629586D01*
X108024951Y-84536000D01*
X111706242Y-84536000D01*
X111650147Y-84671426D01*
X111595000Y-84948665D01*
X111595000Y-85231335D01*
X111650147Y-85508574D01*
X111758320Y-85769727D01*
X111915363Y-86004759D01*
X112115241Y-86204637D01*
X112347759Y-86360000D01*
X112115241Y-86515363D01*
X111915363Y-86715241D01*
X111758320Y-86950273D01*
X111650147Y-87211426D01*
X111595000Y-87488665D01*
X111595000Y-87771335D01*
X111650147Y-88048574D01*
X111758320Y-88309727D01*
X111915363Y-88544759D01*
X112115241Y-88744637D01*
X112347759Y-88900000D01*
X112115241Y-89055363D01*
X111915363Y-89255241D01*
X111758320Y-89490273D01*
X111650147Y-89751426D01*
X111595000Y-90028665D01*
X111595000Y-90311335D01*
X111650147Y-90588574D01*
X111758320Y-90849727D01*
X111915363Y-91084759D01*
X112115241Y-91284637D01*
X112347759Y-91440000D01*
X112115241Y-91595363D01*
X111915363Y-91795241D01*
X111758320Y-92030273D01*
X111650147Y-92291426D01*
X111595000Y-92568665D01*
X111595000Y-92851335D01*
X111650147Y-93128574D01*
X111758320Y-93389727D01*
X111915363Y-93624759D01*
X112115241Y-93824637D01*
X112347759Y-93980000D01*
X112115241Y-94135363D01*
X111915363Y-94335241D01*
X111760000Y-94567759D01*
X111604637Y-94335241D01*
X111404759Y-94135363D01*
X111169727Y-93978320D01*
X110908574Y-93870147D01*
X110631335Y-93815000D01*
X110348665Y-93815000D01*
X110071426Y-93870147D01*
X109810273Y-93978320D01*
X109575241Y-94135363D01*
X109375363Y-94335241D01*
X109220000Y-94567759D01*
X109064637Y-94335241D01*
X108864759Y-94135363D01*
X108629727Y-93978320D01*
X108368574Y-93870147D01*
X108091335Y-93815000D01*
X107808665Y-93815000D01*
X107531426Y-93870147D01*
X107270273Y-93978320D01*
X107035241Y-94135363D01*
X106835363Y-94335241D01*
X106680000Y-94567759D01*
X106524637Y-94335241D01*
X106324759Y-94135363D01*
X106089727Y-93978320D01*
X105828574Y-93870147D01*
X105551335Y-93815000D01*
X105268665Y-93815000D01*
X104991426Y-93870147D01*
X104730273Y-93978320D01*
X104495241Y-94135363D01*
X104295363Y-94335241D01*
X104140000Y-94567759D01*
X103984637Y-94335241D01*
X103784759Y-94135363D01*
X103549727Y-93978320D01*
X103288574Y-93870147D01*
X103011335Y-93815000D01*
X102728665Y-93815000D01*
X102451426Y-93870147D01*
X102190273Y-93978320D01*
X101955241Y-94135363D01*
X101755363Y-94335241D01*
X101600000Y-94567759D01*
X101444637Y-94335241D01*
X101244759Y-94135363D01*
X101009727Y-93978320D01*
X100748574Y-93870147D01*
X100471335Y-93815000D01*
X100188665Y-93815000D01*
X99911426Y-93870147D01*
X99650273Y-93978320D01*
X99415241Y-94135363D01*
X99215363Y-94335241D01*
X99060000Y-94567759D01*
X98904637Y-94335241D01*
X98704759Y-94135363D01*
X98469727Y-93978320D01*
X98208574Y-93870147D01*
X97931335Y-93815000D01*
X97648665Y-93815000D01*
X97371426Y-93870147D01*
X97110273Y-93978320D01*
X96875241Y-94135363D01*
X96675363Y-94335241D01*
X96520000Y-94567759D01*
X96364637Y-94335241D01*
X96164759Y-94135363D01*
X95929727Y-93978320D01*
X95668574Y-93870147D01*
X95391335Y-93815000D01*
X95108665Y-93815000D01*
X94831426Y-93870147D01*
X94570273Y-93978320D01*
X94335241Y-94135363D01*
X94135363Y-94335241D01*
X93980000Y-94567759D01*
X93824637Y-94335241D01*
X93624759Y-94135363D01*
X93389727Y-93978320D01*
X93128574Y-93870147D01*
X92851335Y-93815000D01*
X92568665Y-93815000D01*
X92291426Y-93870147D01*
X92030273Y-93978320D01*
X91795241Y-94135363D01*
X91595363Y-94335241D01*
X91440000Y-94567759D01*
X91284637Y-94335241D01*
X91084759Y-94135363D01*
X90849727Y-93978320D01*
X90588574Y-93870147D01*
X90311335Y-93815000D01*
X90028665Y-93815000D01*
X89751426Y-93870147D01*
X89490273Y-93978320D01*
X89255241Y-94135363D01*
X89055363Y-94335241D01*
X88899085Y-94569128D01*
X88866671Y-94508486D01*
X88622702Y-94436903D01*
X87809605Y-95250000D01*
X87450395Y-95250000D01*
X86637298Y-94436903D01*
X86393329Y-94508486D01*
X86272429Y-94763996D01*
X86203700Y-95038184D01*
X86189783Y-95320512D01*
X79400001Y-95320512D01*
X79400001Y-94257298D01*
X86816903Y-94257298D01*
X87630000Y-95070395D01*
X88443097Y-94257298D01*
X88371514Y-94013329D01*
X88116004Y-93892429D01*
X87841816Y-93823700D01*
X87559488Y-93809783D01*
X87279870Y-93851213D01*
X87013708Y-93946397D01*
X86888486Y-94013329D01*
X86816903Y-94257298D01*
X79400001Y-94257298D01*
X79400001Y-79868665D01*
X86195000Y-79868665D01*
X86195000Y-80151335D01*
X86250147Y-80428574D01*
X86358320Y-80689727D01*
X86515363Y-80924759D01*
X86715241Y-81124637D01*
X86795001Y-81177930D01*
X86795000Y-82508981D01*
X86795000Y-82508982D01*
X86795001Y-84413972D01*
X86790960Y-84455000D01*
X86807082Y-84618688D01*
X86854828Y-84776086D01*
X86896864Y-84854729D01*
X86932365Y-84921146D01*
X87036710Y-85048291D01*
X87068574Y-85074441D01*
X88007346Y-86013214D01*
X88071414Y-86167889D01*
X88173738Y-86321028D01*
X88303972Y-86451262D01*
X88457111Y-86553586D01*
X88627271Y-86624068D01*
X88807911Y-86660000D01*
X88992089Y-86660000D01*
X89172729Y-86624068D01*
X89342889Y-86553586D01*
X89496028Y-86451262D01*
X89626262Y-86321028D01*
X89728586Y-86167889D01*
X89799068Y-85997729D01*
X89835000Y-85817089D01*
X89835000Y-85632911D01*
X89799068Y-85452271D01*
X89728586Y-85282111D01*
X89626262Y-85128972D01*
X89496028Y-84998738D01*
X89342889Y-84896414D01*
X89188214Y-84832346D01*
X88465000Y-84109133D01*
X88465000Y-82408665D01*
X88735000Y-82408665D01*
X88735000Y-82691335D01*
X88790147Y-82968574D01*
X88898320Y-83229727D01*
X89055363Y-83464759D01*
X89255241Y-83664637D01*
X89490273Y-83821680D01*
X89751426Y-83929853D01*
X90028665Y-83985000D01*
X90311335Y-83985000D01*
X90588574Y-83929853D01*
X90849727Y-83821680D01*
X91084759Y-83664637D01*
X91284637Y-83464759D01*
X91441680Y-83229727D01*
X91549853Y-82968574D01*
X91605000Y-82691335D01*
X91605000Y-82408665D01*
X91549853Y-82131426D01*
X91441680Y-81870273D01*
X91284637Y-81635241D01*
X91084759Y-81435363D01*
X90850872Y-81279085D01*
X90911514Y-81246671D01*
X90983097Y-81002702D01*
X90170000Y-80189605D01*
X89356903Y-81002702D01*
X89428486Y-81246671D01*
X89492992Y-81277194D01*
X89490273Y-81278320D01*
X89255241Y-81435363D01*
X89055363Y-81635241D01*
X88898320Y-81870273D01*
X88790147Y-82131426D01*
X88735000Y-82408665D01*
X88465000Y-82408665D01*
X88465000Y-81177930D01*
X88544759Y-81124637D01*
X88744637Y-80924759D01*
X88900915Y-80690872D01*
X88933329Y-80751514D01*
X89177298Y-80823097D01*
X89990395Y-80010000D01*
X89177298Y-79196903D01*
X88933329Y-79268486D01*
X88902806Y-79332992D01*
X88901680Y-79330273D01*
X88744637Y-79095241D01*
X88666694Y-79017298D01*
X89356903Y-79017298D01*
X90170000Y-79830395D01*
X90983097Y-79017298D01*
X90911514Y-78773329D01*
X90656004Y-78652429D01*
X90381816Y-78583700D01*
X90099488Y-78569783D01*
X89819870Y-78611213D01*
X89553708Y-78706397D01*
X89428486Y-78773329D01*
X89356903Y-79017298D01*
X88666694Y-79017298D01*
X88544759Y-78895363D01*
X88309727Y-78738320D01*
X88048574Y-78630147D01*
X87771335Y-78575000D01*
X87488665Y-78575000D01*
X87211426Y-78630147D01*
X86950273Y-78738320D01*
X86715241Y-78895363D01*
X86515363Y-79095241D01*
X86358320Y-79330273D01*
X86250147Y-79591426D01*
X86195000Y-79868665D01*
X79400001Y-79868665D01*
X79400001Y-78454779D01*
X79414723Y-78304631D01*
X79448954Y-78191254D01*
X79504556Y-78086681D01*
X79579408Y-77994904D01*
X79670665Y-77919409D01*
X79774845Y-77863081D01*
X79887977Y-77828060D01*
X80036023Y-77812500D01*
X83787581Y-77812500D01*
X83820000Y-77815693D01*
X83852419Y-77812500D01*
X83949383Y-77802950D01*
X84073793Y-77765210D01*
X84188450Y-77703925D01*
X84288948Y-77621448D01*
X84371425Y-77520950D01*
X84432710Y-77406293D01*
X84470450Y-77281883D01*
X84483193Y-77152500D01*
X84480000Y-77120081D01*
X84480000Y-74693128D01*
X91575000Y-74693128D01*
X91575000Y-75166872D01*
X91667423Y-75631513D01*
X91848716Y-76069195D01*
X92111914Y-76463098D01*
X92446902Y-76798086D01*
X92840805Y-77061284D01*
X93278487Y-77242577D01*
X93743128Y-77335000D01*
X94216872Y-77335000D01*
X94681513Y-77242577D01*
X95119195Y-77061284D01*
X95513098Y-76798086D01*
X95848086Y-76463098D01*
X96111284Y-76069195D01*
X96113606Y-76063589D01*
X97045000Y-76063589D01*
X97045000Y-76336411D01*
X97098225Y-76603989D01*
X97202629Y-76856043D01*
X97354201Y-77082886D01*
X97547114Y-77275799D01*
X97773957Y-77427371D01*
X98026011Y-77531775D01*
X98293589Y-77585000D01*
X98566411Y-77585000D01*
X98833989Y-77531775D01*
X99086043Y-77427371D01*
X99312886Y-77275799D01*
X99505799Y-77082886D01*
X99657371Y-76856043D01*
X99695000Y-76765198D01*
X99732629Y-76856043D01*
X99884201Y-77082886D01*
X100077114Y-77275799D01*
X100303957Y-77427371D01*
X100556011Y-77531775D01*
X100823589Y-77585000D01*
X101096411Y-77585000D01*
X101363989Y-77531775D01*
X101616043Y-77427371D01*
X101842886Y-77275799D01*
X101961692Y-77156993D01*
X102722612Y-77156993D01*
X102788137Y-77395860D01*
X103035116Y-77511760D01*
X103299960Y-77577250D01*
X103572492Y-77589812D01*
X103842238Y-77548965D01*
X104098832Y-77456277D01*
X104211863Y-77395860D01*
X104277388Y-77156993D01*
X103500000Y-76379605D01*
X102722612Y-77156993D01*
X101961692Y-77156993D01*
X102035799Y-77082886D01*
X102187371Y-76856043D01*
X102228511Y-76756721D01*
X102243723Y-76798832D01*
X102304140Y-76911863D01*
X102543007Y-76977388D01*
X103320395Y-76200000D01*
X102543007Y-75422612D01*
X102304140Y-75488137D01*
X102229836Y-75646477D01*
X102187371Y-75543957D01*
X102035799Y-75317114D01*
X101961692Y-75243007D01*
X102722612Y-75243007D01*
X103500000Y-76020395D01*
X104277388Y-75243007D01*
X104211863Y-75004140D01*
X103964884Y-74888240D01*
X103700040Y-74822750D01*
X103427508Y-74810188D01*
X103157762Y-74851035D01*
X102901168Y-74943723D01*
X102788137Y-75004140D01*
X102722612Y-75243007D01*
X101961692Y-75243007D01*
X101842886Y-75124201D01*
X101616043Y-74972629D01*
X101363989Y-74868225D01*
X101096411Y-74815000D01*
X100823589Y-74815000D01*
X100556011Y-74868225D01*
X100303957Y-74972629D01*
X100077114Y-75124201D01*
X99884201Y-75317114D01*
X99732629Y-75543957D01*
X99695000Y-75634802D01*
X99657371Y-75543957D01*
X99505799Y-75317114D01*
X99312886Y-75124201D01*
X99086043Y-74972629D01*
X98833989Y-74868225D01*
X98566411Y-74815000D01*
X98293589Y-74815000D01*
X98026011Y-74868225D01*
X97773957Y-74972629D01*
X97547114Y-75124201D01*
X97354201Y-75317114D01*
X97202629Y-75543957D01*
X97098225Y-75796011D01*
X97045000Y-76063589D01*
X96113606Y-76063589D01*
X96292577Y-75631513D01*
X96385000Y-75166872D01*
X96385000Y-74693128D01*
X113165000Y-74693128D01*
X113165000Y-75166872D01*
X113257423Y-75631513D01*
X113438716Y-76069195D01*
X113701914Y-76463098D01*
X114036902Y-76798086D01*
X114430805Y-77061284D01*
X114868487Y-77242577D01*
X115333128Y-77335000D01*
X115806872Y-77335000D01*
X116271513Y-77242577D01*
X116709195Y-77061284D01*
X117103098Y-76798086D01*
X117438086Y-76463098D01*
X117701284Y-76069195D01*
X117882577Y-75631513D01*
X117975000Y-75166872D01*
X117975000Y-74693128D01*
X117882577Y-74228487D01*
X117701284Y-73790805D01*
X117438086Y-73396902D01*
X117103098Y-73061914D01*
X116709195Y-72798716D01*
X116271513Y-72617423D01*
X115806872Y-72525000D01*
X115333128Y-72525000D01*
X114868487Y-72617423D01*
X114430805Y-72798716D01*
X114036902Y-73061914D01*
X113701914Y-73396902D01*
X113438716Y-73790805D01*
X113257423Y-74228487D01*
X113165000Y-74693128D01*
X96385000Y-74693128D01*
X96292577Y-74228487D01*
X96111284Y-73790805D01*
X95848086Y-73396902D01*
X95513098Y-73061914D01*
X95119195Y-72798716D01*
X94681513Y-72617423D01*
X94216872Y-72525000D01*
X93743128Y-72525000D01*
X93278487Y-72617423D01*
X92840805Y-72798716D01*
X92446902Y-73061914D01*
X92111914Y-73396902D01*
X91848716Y-73790805D01*
X91667423Y-74228487D01*
X91575000Y-74693128D01*
X84480000Y-74693128D01*
X84480000Y-71662911D01*
X115905000Y-71662911D01*
X115905000Y-71847089D01*
X115940932Y-72027729D01*
X116011414Y-72197889D01*
X116113738Y-72351028D01*
X116243972Y-72481262D01*
X116397111Y-72583586D01*
X116567271Y-72654068D01*
X116747911Y-72690000D01*
X116932089Y-72690000D01*
X117112729Y-72654068D01*
X117267404Y-72590000D01*
X119587596Y-72590000D01*
X119742271Y-72654068D01*
X119922911Y-72690000D01*
X120107089Y-72690000D01*
X120287729Y-72654068D01*
X120457889Y-72583586D01*
X120611028Y-72481262D01*
X120741262Y-72351028D01*
X120843586Y-72197889D01*
X120914068Y-72027729D01*
X120950000Y-71847089D01*
X120950000Y-71662911D01*
X120914068Y-71482271D01*
X120843586Y-71312111D01*
X120741262Y-71158972D01*
X120611028Y-71028738D01*
X120457889Y-70926414D01*
X120287729Y-70855932D01*
X120107089Y-70820000D01*
X119922911Y-70820000D01*
X119742271Y-70855932D01*
X119587596Y-70920000D01*
X117267404Y-70920000D01*
X117112729Y-70855932D01*
X116932089Y-70820000D01*
X116747911Y-70820000D01*
X116567271Y-70855932D01*
X116397111Y-70926414D01*
X116243972Y-71028738D01*
X116113738Y-71158972D01*
X116011414Y-71312111D01*
X115940932Y-71482271D01*
X115905000Y-71662911D01*
X84480000Y-71662911D01*
X84480000Y-58183128D01*
X91575000Y-58183128D01*
X91575000Y-58656872D01*
X91667423Y-59121513D01*
X91848716Y-59559195D01*
X92111914Y-59953098D01*
X92446902Y-60288086D01*
X92840805Y-60551284D01*
X93278487Y-60732577D01*
X93743128Y-60825000D01*
X94216872Y-60825000D01*
X94681513Y-60732577D01*
X95119195Y-60551284D01*
X95513098Y-60288086D01*
X95848086Y-59953098D01*
X96111284Y-59559195D01*
X96292577Y-59121513D01*
X96385000Y-58656872D01*
X96385000Y-58183128D01*
X96292577Y-57718487D01*
X96111284Y-57280805D01*
X95932736Y-57013589D01*
X99575000Y-57013589D01*
X99575000Y-57286411D01*
X99628225Y-57553989D01*
X99732629Y-57806043D01*
X99884201Y-58032886D01*
X100077114Y-58225799D01*
X100303957Y-58377371D01*
X100556011Y-58481775D01*
X100823589Y-58535000D01*
X101096411Y-58535000D01*
X101363989Y-58481775D01*
X101616043Y-58377371D01*
X101842886Y-58225799D01*
X102035799Y-58032886D01*
X102187371Y-57806043D01*
X102235000Y-57691056D01*
X102282629Y-57806043D01*
X102434201Y-58032886D01*
X102627114Y-58225799D01*
X102853957Y-58377371D01*
X103106011Y-58481775D01*
X103373589Y-58535000D01*
X103646411Y-58535000D01*
X103913989Y-58481775D01*
X104166043Y-58377371D01*
X104392886Y-58225799D01*
X104585799Y-58032886D01*
X104737371Y-57806043D01*
X104775000Y-57715198D01*
X104812629Y-57806043D01*
X104964201Y-58032886D01*
X105157114Y-58225799D01*
X105383957Y-58377371D01*
X105636011Y-58481775D01*
X105903589Y-58535000D01*
X106176411Y-58535000D01*
X106443989Y-58481775D01*
X106696043Y-58377371D01*
X106922886Y-58225799D01*
X107115799Y-58032886D01*
X107267371Y-57806043D01*
X107315000Y-57691056D01*
X107362629Y-57806043D01*
X107514201Y-58032886D01*
X107707114Y-58225799D01*
X107933957Y-58377371D01*
X108186011Y-58481775D01*
X108453589Y-58535000D01*
X108726411Y-58535000D01*
X108993989Y-58481775D01*
X109246043Y-58377371D01*
X109472886Y-58225799D01*
X109515557Y-58183128D01*
X113165000Y-58183128D01*
X113165000Y-58656872D01*
X113257423Y-59121513D01*
X113438716Y-59559195D01*
X113701914Y-59953098D01*
X114036902Y-60288086D01*
X114430805Y-60551284D01*
X114868487Y-60732577D01*
X115333128Y-60825000D01*
X115806872Y-60825000D01*
X116271513Y-60732577D01*
X116709195Y-60551284D01*
X117103098Y-60288086D01*
X117438086Y-59953098D01*
X117701284Y-59559195D01*
X117882577Y-59121513D01*
X117975000Y-58656872D01*
X117975000Y-58183128D01*
X117882577Y-57718487D01*
X117701284Y-57280805D01*
X117438086Y-56886902D01*
X117103098Y-56551914D01*
X116709195Y-56288716D01*
X116271513Y-56107423D01*
X115806872Y-56015000D01*
X115333128Y-56015000D01*
X114868487Y-56107423D01*
X114430805Y-56288716D01*
X114036902Y-56551914D01*
X113701914Y-56886902D01*
X113438716Y-57280805D01*
X113257423Y-57718487D01*
X113165000Y-58183128D01*
X109515557Y-58183128D01*
X109665799Y-58032886D01*
X109817371Y-57806043D01*
X109921775Y-57553989D01*
X109975000Y-57286411D01*
X109975000Y-57013589D01*
X109921775Y-56746011D01*
X109817371Y-56493957D01*
X109665799Y-56267114D01*
X109472886Y-56074201D01*
X109246043Y-55922629D01*
X108993989Y-55818225D01*
X108726411Y-55765000D01*
X108453589Y-55765000D01*
X108186011Y-55818225D01*
X107933957Y-55922629D01*
X107707114Y-56074201D01*
X107514201Y-56267114D01*
X107362629Y-56493957D01*
X107315000Y-56608944D01*
X107267371Y-56493957D01*
X107115799Y-56267114D01*
X106922886Y-56074201D01*
X106696043Y-55922629D01*
X106443989Y-55818225D01*
X106176411Y-55765000D01*
X105903589Y-55765000D01*
X105636011Y-55818225D01*
X105383957Y-55922629D01*
X105157114Y-56074201D01*
X104964201Y-56267114D01*
X104812629Y-56493957D01*
X104775000Y-56584802D01*
X104737371Y-56493957D01*
X104585799Y-56267114D01*
X104392886Y-56074201D01*
X104166043Y-55922629D01*
X103913989Y-55818225D01*
X103646411Y-55765000D01*
X103373589Y-55765000D01*
X103106011Y-55818225D01*
X102853957Y-55922629D01*
X102627114Y-56074201D01*
X102434201Y-56267114D01*
X102282629Y-56493957D01*
X102235000Y-56608944D01*
X102187371Y-56493957D01*
X102035799Y-56267114D01*
X101842886Y-56074201D01*
X101616043Y-55922629D01*
X101363989Y-55818225D01*
X101096411Y-55765000D01*
X100823589Y-55765000D01*
X100556011Y-55818225D01*
X100303957Y-55922629D01*
X100077114Y-56074201D01*
X99884201Y-56267114D01*
X99732629Y-56493957D01*
X99628225Y-56746011D01*
X99575000Y-57013589D01*
X95932736Y-57013589D01*
X95848086Y-56886902D01*
X95513098Y-56551914D01*
X95119195Y-56288716D01*
X94681513Y-56107423D01*
X94216872Y-56015000D01*
X93743128Y-56015000D01*
X93278487Y-56107423D01*
X92840805Y-56288716D01*
X92446902Y-56551914D01*
X92111914Y-56886902D01*
X91848716Y-57280805D01*
X91667423Y-57718487D01*
X91575000Y-58183128D01*
X84480000Y-58183128D01*
X84480000Y-55912279D01*
X84500161Y-55706655D01*
X84600000Y-55706655D01*
X84600000Y-56053345D01*
X84667636Y-56393373D01*
X84800308Y-56713673D01*
X84992919Y-57001935D01*
X85238065Y-57247081D01*
X85526327Y-57439692D01*
X85846627Y-57572364D01*
X86186655Y-57640000D01*
X86533345Y-57640000D01*
X86873373Y-57572364D01*
X87193673Y-57439692D01*
X87481935Y-57247081D01*
X87727081Y-57001935D01*
X87919692Y-56713673D01*
X88052364Y-56393373D01*
X88120000Y-56053345D01*
X88120000Y-55706655D01*
X120160000Y-55706655D01*
X120160000Y-56053345D01*
X120227636Y-56393373D01*
X120360308Y-56713673D01*
X120552919Y-57001935D01*
X120798065Y-57247081D01*
X121086327Y-57439692D01*
X121406627Y-57572364D01*
X121746655Y-57640000D01*
X122093345Y-57640000D01*
X122433373Y-57572364D01*
X122753673Y-57439692D01*
X123041935Y-57247081D01*
X123287081Y-57001935D01*
X123479692Y-56713673D01*
X123612364Y-56393373D01*
X123680000Y-56053345D01*
X123680000Y-55706655D01*
X123612364Y-55366627D01*
X123479692Y-55046327D01*
X123287081Y-54758065D01*
X123041935Y-54512919D01*
X122753673Y-54320308D01*
X122433373Y-54187636D01*
X122093345Y-54120000D01*
X121746655Y-54120000D01*
X121406627Y-54187636D01*
X121086327Y-54320308D01*
X120798065Y-54512919D01*
X120552919Y-54758065D01*
X120360308Y-55046327D01*
X120227636Y-55366627D01*
X120160000Y-55706655D01*
X88120000Y-55706655D01*
X88052364Y-55366627D01*
X87919692Y-55046327D01*
X87727081Y-54758065D01*
X87481935Y-54512919D01*
X87193673Y-54320308D01*
X86873373Y-54187636D01*
X86533345Y-54120000D01*
X86186655Y-54120000D01*
X85846627Y-54187636D01*
X85526327Y-54320308D01*
X85238065Y-54512919D01*
X84992919Y-54758065D01*
X84800308Y-55046327D01*
X84667636Y-55366627D01*
X84600000Y-55706655D01*
X84500161Y-55706655D01*
X84518909Y-55515455D01*
X84624780Y-55164792D01*
X84796744Y-54841375D01*
X85028254Y-54557516D01*
X85310486Y-54324035D01*
X85632695Y-54149817D01*
X85982614Y-54041498D01*
X86377443Y-54000000D01*
X121887721Y-54000000D01*
X122284545Y-54038909D01*
G37*
G04 #@! TD.AperFunction*
M02*
