G04 #@! TF.GenerationSoftware,KiCad,Pcbnew,(5.1.9)-1*
G04 #@! TF.CreationDate,2021-04-18T01:47:18-07:00*
G04 #@! TF.ProjectId,UAS_Teensy,5541535f-5465-4656-9e73-792e6b696361,rev?*
G04 #@! TF.SameCoordinates,Original*
G04 #@! TF.FileFunction,Copper,L1,Top*
G04 #@! TF.FilePolarity,Positive*
%FSLAX46Y46*%
G04 Gerber Fmt 4.6, Leading zero omitted, Abs format (unit mm)*
G04 Created by KiCad (PCBNEW (5.1.9)-1) date 2021-04-18 01:47:18*
%MOMM*%
%LPD*%
G01*
G04 APERTURE LIST*
G04 #@! TA.AperFunction,SMDPad,CuDef*
%ADD10R,1.500000X3.000000*%
G04 #@! TD*
G04 #@! TA.AperFunction,SMDPad,CuDef*
%ADD11R,2.700000X1.000000*%
G04 #@! TD*
G04 #@! TA.AperFunction,SMDPad,CuDef*
%ADD12R,1.700000X0.600000*%
G04 #@! TD*
G04 #@! TA.AperFunction,SMDPad,CuDef*
%ADD13R,1.803400X0.660400*%
G04 #@! TD*
G04 #@! TA.AperFunction,SMDPad,CuDef*
%ADD14R,2.794000X0.990600*%
G04 #@! TD*
G04 #@! TA.AperFunction,SMDPad,CuDef*
%ADD15R,1.000000X2.700000*%
G04 #@! TD*
G04 #@! TA.AperFunction,SMDPad,CuDef*
%ADD16R,0.600000X1.700000*%
G04 #@! TD*
G04 #@! TA.AperFunction,ComponentPad*
%ADD17C,1.500000*%
G04 #@! TD*
G04 #@! TA.AperFunction,ComponentPad*
%ADD18C,3.540000*%
G04 #@! TD*
G04 #@! TA.AperFunction,ComponentPad*
%ADD19C,1.600000*%
G04 #@! TD*
G04 #@! TA.AperFunction,ViaPad*
%ADD20C,2.250000*%
G04 #@! TD*
G04 #@! TA.AperFunction,ViaPad*
%ADD21C,0.600000*%
G04 #@! TD*
G04 #@! TA.AperFunction,Conductor*
%ADD22C,0.127000*%
G04 #@! TD*
G04 #@! TA.AperFunction,Conductor*
%ADD23C,0.200000*%
G04 #@! TD*
G04 #@! TA.AperFunction,Conductor*
%ADD24C,0.300000*%
G04 #@! TD*
G04 #@! TA.AperFunction,Conductor*
%ADD25C,0.500000*%
G04 #@! TD*
G04 #@! TA.AperFunction,Conductor*
%ADD26C,0.400000*%
G04 #@! TD*
G04 #@! TA.AperFunction,Conductor*
%ADD27C,0.150000*%
G04 #@! TD*
G04 #@! TA.AperFunction,Conductor*
%ADD28C,1.500000*%
G04 #@! TD*
G04 #@! TA.AperFunction,Conductor*
%ADD29C,0.600000*%
G04 #@! TD*
G04 APERTURE END LIST*
D10*
X121666000Y-101092000D03*
X84582000Y-101092000D03*
D11*
X122845000Y-62315000D03*
D12*
X119645000Y-64165000D03*
X119645000Y-65415000D03*
X119645000Y-67915000D03*
X119645000Y-66665000D03*
D11*
X122845000Y-69765000D03*
X85435000Y-69765000D03*
D12*
X88635000Y-67915000D03*
X88635000Y-66665000D03*
X88635000Y-64165000D03*
X88635000Y-65415000D03*
D11*
X85435000Y-62315000D03*
X80863000Y-87545000D03*
D12*
X84063000Y-85695000D03*
X84063000Y-84445000D03*
X84063000Y-81945000D03*
X84063000Y-83195000D03*
D11*
X80863000Y-80095000D03*
X127417000Y-80095000D03*
D12*
X124217000Y-81945000D03*
X124217000Y-83195000D03*
X124217000Y-85695000D03*
X124217000Y-84445000D03*
D11*
X127417000Y-87545000D03*
D13*
X83624979Y-93863000D03*
X83624979Y-95113000D03*
D14*
X80414978Y-92013001D03*
X80414978Y-96962999D03*
D15*
X117350000Y-102260000D03*
X104900000Y-102260000D03*
D16*
X115500000Y-99060000D03*
X106750000Y-99060000D03*
X108000000Y-99060000D03*
X109250000Y-99060000D03*
X114250000Y-99060000D03*
X113000000Y-99060000D03*
X111750000Y-99060000D03*
X110500000Y-99060000D03*
D15*
X102110000Y-102260000D03*
X89660000Y-102260000D03*
D16*
X100260000Y-99060000D03*
X91510000Y-99060000D03*
X92760000Y-99060000D03*
X94010000Y-99060000D03*
X99010000Y-99060000D03*
X97760000Y-99060000D03*
X96510000Y-99060000D03*
X95260000Y-99060000D03*
D17*
X111130000Y-76200000D03*
X108590000Y-76200000D03*
X106050000Y-76200000D03*
X103500000Y-76200000D03*
X100960000Y-76200000D03*
X98430000Y-76200000D03*
X108590000Y-57150000D03*
X106040000Y-57150000D03*
X103510000Y-57150000D03*
X100960000Y-57150000D03*
D18*
X93980000Y-74930000D03*
X115570000Y-74930000D03*
X93980000Y-58420000D03*
X115570000Y-58420000D03*
D19*
X113030000Y-92710000D03*
X115570000Y-92710000D03*
X113030000Y-90170000D03*
X115570000Y-90170000D03*
X113030000Y-87630000D03*
X115570000Y-87630000D03*
X113030000Y-85090000D03*
X115570000Y-85090000D03*
X113030000Y-82550000D03*
X115570000Y-82550000D03*
X87630000Y-95250000D03*
X90170000Y-95250000D03*
X92710000Y-95250000D03*
X95250000Y-95250000D03*
X97790000Y-95250000D03*
X100330000Y-95250000D03*
X102870000Y-95250000D03*
X105410000Y-95250000D03*
X107950000Y-95250000D03*
X110490000Y-95250000D03*
X113030000Y-95250000D03*
X115570000Y-95250000D03*
X118110000Y-95250000D03*
X90170000Y-82550000D03*
X87630000Y-80010000D03*
X90170000Y-80010000D03*
X92710000Y-80010000D03*
X95250000Y-80010000D03*
X97790000Y-80010000D03*
X100330000Y-80010000D03*
X102870000Y-80010000D03*
X105410000Y-80010000D03*
X107950000Y-80010000D03*
X110490000Y-80010000D03*
X113030000Y-80010000D03*
X115570000Y-80010000D03*
X118110000Y-80010000D03*
X120650000Y-95250000D03*
X120650000Y-92710000D03*
X120650000Y-90170000D03*
X120650000Y-80010000D03*
X120650000Y-82550000D03*
X120650000Y-85090000D03*
X120650000Y-87630000D03*
D13*
X124655021Y-94605000D03*
X124655021Y-93355000D03*
D14*
X127865022Y-96454999D03*
X127865022Y-91505001D03*
D20*
X86360000Y-55880000D03*
X121920000Y-55880000D03*
X127000000Y-101600000D03*
X81280000Y-101600000D03*
D21*
X107442000Y-83801000D03*
X110998000Y-81280000D03*
X118364000Y-78105000D03*
X112268000Y-78105000D03*
X106172000Y-98044000D03*
X106172000Y-100076000D03*
X87376000Y-66548000D03*
X118364000Y-65278000D03*
X120904000Y-65532000D03*
X89897164Y-67056000D03*
X91059000Y-99949000D03*
X91059005Y-98043995D03*
X125476000Y-83312000D03*
X85344000Y-84836000D03*
X82804000Y-84328000D03*
X120904000Y-99186986D03*
X122555006Y-102870000D03*
X88900000Y-85725000D03*
X116840000Y-71755000D03*
X120015000Y-71755000D03*
X122682000Y-85090000D03*
X126111000Y-84582000D03*
D22*
X102870000Y-95631000D02*
X102870000Y-95250000D01*
D23*
X101727000Y-96774000D02*
X102870000Y-95631000D01*
X100076000Y-96774000D02*
X101727000Y-96774000D01*
X99010000Y-97840000D02*
X100076000Y-96774000D01*
X99010000Y-99060000D02*
X99010000Y-97840000D01*
X99530001Y-96049999D02*
X100330000Y-95250000D01*
X97750000Y-97830000D02*
X99530001Y-96049999D01*
X97750000Y-98480000D02*
X97750000Y-97830000D01*
X96500000Y-96540000D02*
X97790000Y-95250000D01*
X96500000Y-98480000D02*
X96500000Y-96540000D01*
X95250000Y-98480000D02*
X95250000Y-95250000D01*
X94000000Y-96540000D02*
X92710000Y-95250000D01*
X94000000Y-98480000D02*
X94000000Y-96540000D01*
X90969999Y-96049999D02*
X90170000Y-95250000D01*
X92750000Y-97830000D02*
X90969999Y-96049999D01*
X92750000Y-98480000D02*
X92750000Y-97830000D01*
X116586000Y-96774000D02*
X118110000Y-95250000D01*
X114250000Y-97586000D02*
X115062000Y-96774000D01*
X115062000Y-96774000D02*
X116586000Y-96774000D01*
X114250000Y-99060000D02*
X114250000Y-97586000D01*
X112990000Y-97830000D02*
X115570000Y-95250000D01*
X113000000Y-97840000D02*
X113000000Y-99060000D01*
X112990000Y-97830000D02*
X113000000Y-97840000D01*
X111740000Y-96540000D02*
X113030000Y-95250000D01*
X111740000Y-98480000D02*
X111740000Y-96540000D01*
X110490000Y-98480000D02*
X110490000Y-95250000D01*
X109240000Y-96540000D02*
X107950000Y-95250000D01*
X109240000Y-98480000D02*
X109240000Y-96540000D01*
X106209999Y-96049999D02*
X105410000Y-95250000D01*
X107990000Y-97830000D02*
X106209999Y-96049999D01*
X107990000Y-98480000D02*
X107990000Y-97830000D01*
X84063000Y-81945000D02*
X86771000Y-81945000D01*
X88627000Y-83801000D02*
X107442000Y-83801000D01*
X86771000Y-81945000D02*
X88627000Y-83801000D01*
X107950000Y-84328000D02*
X86614000Y-84328000D01*
X110998000Y-81280000D02*
X107950000Y-84328000D01*
X85481000Y-83195000D02*
X84063000Y-83195000D01*
X86614000Y-84328000D02*
X85481000Y-83195000D01*
D22*
X89185000Y-64165000D02*
X89215000Y-64135000D01*
X88635000Y-64165000D02*
X89185000Y-64165000D01*
D23*
X97790000Y-78105000D02*
X97790000Y-80010000D01*
X90775000Y-64165000D02*
X91440000Y-64830000D01*
X88635000Y-64165000D02*
X90775000Y-64165000D01*
X91440000Y-64830000D02*
X91440000Y-76200000D01*
X91440000Y-76200000D02*
X92710000Y-77470000D01*
X92710000Y-77470000D02*
X97155000Y-77470000D01*
X97155000Y-77470000D02*
X97790000Y-78105000D01*
X95250000Y-78740000D02*
X95250000Y-80010000D01*
X89185000Y-65415000D02*
X90805000Y-67035000D01*
X90805000Y-67035000D02*
X90805000Y-77470000D01*
X90805000Y-77470000D02*
X91440000Y-78105000D01*
X91440000Y-78105000D02*
X94615000Y-78105000D01*
X94615000Y-78105000D02*
X95250000Y-78740000D01*
D22*
X88635000Y-65415000D02*
X89185000Y-65415000D01*
D23*
X111760000Y-78613000D02*
X112268000Y-78105000D01*
X113030000Y-82550000D02*
X111760000Y-81280000D01*
X111760000Y-81280000D02*
X111760000Y-78613000D01*
X118772000Y-69215000D02*
X118772000Y-72236000D01*
X119645000Y-68342000D02*
X118772000Y-69215000D01*
X119645000Y-67915000D02*
X119645000Y-68342000D01*
X118772000Y-77697000D02*
X118364000Y-78105000D01*
X118772000Y-72236000D02*
X118772000Y-77697000D01*
X119095000Y-66665000D02*
X118110000Y-67650000D01*
D22*
X119645000Y-66665000D02*
X119095000Y-66665000D01*
D23*
X118110000Y-67650000D02*
X118110000Y-77470000D01*
X118110000Y-77470000D02*
X116840000Y-78740000D01*
X116840000Y-81280000D02*
X115570000Y-82550000D01*
X116840000Y-78740000D02*
X116840000Y-81280000D01*
D24*
X106050000Y-78110000D02*
X107950000Y-80010000D01*
X106050000Y-76200000D02*
X106050000Y-78110000D01*
D22*
X124655021Y-93355000D02*
X124083521Y-93355000D01*
D23*
X121638321Y-91440000D02*
X123553321Y-93355000D01*
X118808500Y-91440000D02*
X121638321Y-91440000D01*
X123553321Y-93355000D02*
X124655021Y-93355000D01*
X118110000Y-90741500D02*
X118808500Y-91440000D01*
X118110000Y-89662000D02*
X118110000Y-90741500D01*
X114300000Y-88900000D02*
X117348000Y-88900000D01*
X117348000Y-88900000D02*
X118110000Y-89662000D01*
X113030000Y-87630000D02*
X114300000Y-88900000D01*
X121920000Y-93980000D02*
X114300000Y-93980000D01*
X114300000Y-93980000D02*
X113030000Y-92710000D01*
D22*
X124655021Y-94605000D02*
X124083521Y-94605000D01*
D23*
X122545000Y-94605000D02*
X124655021Y-94605000D01*
X121920000Y-93980000D02*
X122545000Y-94605000D01*
D25*
X88635000Y-66665000D02*
X89741328Y-66665000D01*
X87493000Y-66665000D02*
X87376000Y-66548000D01*
X88635000Y-66665000D02*
X87493000Y-66665000D01*
X118501000Y-65415000D02*
X118364000Y-65278000D01*
X119645000Y-65415000D02*
X118501000Y-65415000D01*
X120787000Y-65415000D02*
X120904000Y-65532000D01*
X119645000Y-65415000D02*
X120787000Y-65415000D01*
X124725000Y-83195000D02*
X123942000Y-83195000D01*
D26*
X106172000Y-98482000D02*
X106750000Y-99060000D01*
X106172000Y-98044000D02*
X106172000Y-98482000D01*
X106172000Y-99638000D02*
X106750000Y-99060000D01*
X106172000Y-100076000D02*
X106172000Y-99638000D01*
D25*
X89741328Y-66665000D02*
X89897164Y-66820836D01*
D26*
X91510000Y-99498000D02*
X91059000Y-99949000D01*
X91510000Y-99060000D02*
X91510000Y-99498000D01*
X91510000Y-98494990D02*
X91059005Y-98043995D01*
X91510000Y-99060000D02*
X91510000Y-98494990D01*
X125359000Y-83195000D02*
X125476000Y-83312000D01*
X124217000Y-83195000D02*
X125359000Y-83195000D01*
X82921000Y-84445000D02*
X82804000Y-84328000D01*
X84063000Y-84445000D02*
X82921000Y-84445000D01*
X84953000Y-84445000D02*
X85344000Y-84836000D01*
X84063000Y-84445000D02*
X84953000Y-84445000D01*
D25*
X87493000Y-95113000D02*
X87630000Y-95250000D01*
X83624979Y-95113000D02*
X87493000Y-95113000D01*
D24*
X87202000Y-95678000D02*
X87630000Y-95250000D01*
D25*
X121666000Y-101092000D02*
X121666000Y-99948986D01*
X121666000Y-99948986D02*
X120904000Y-99186986D01*
X121666000Y-101092000D02*
X121666000Y-101980994D01*
X121666000Y-101980994D02*
X122555006Y-102870000D01*
D26*
X88900000Y-85725000D02*
X94615000Y-85725000D01*
X95885000Y-86995000D02*
X95885000Y-88900000D01*
X94615000Y-85725000D02*
X95885000Y-86995000D01*
D27*
X124725000Y-81945000D02*
X124175000Y-81945000D01*
D28*
X95885000Y-88900000D02*
X106680000Y-88900000D01*
D26*
X89185000Y-67915000D02*
X90170000Y-68900000D01*
X88635000Y-67915000D02*
X89185000Y-67915000D01*
X90170000Y-68900000D02*
X90170000Y-77470000D01*
X90170000Y-77470000D02*
X89535000Y-78105000D01*
X89535000Y-78105000D02*
X88265000Y-78105000D01*
X87630000Y-78740000D02*
X87630000Y-80010000D01*
X88265000Y-78105000D02*
X87630000Y-78740000D01*
D27*
X119095000Y-64165000D02*
X119065000Y-64135000D01*
X119645000Y-64165000D02*
X119095000Y-64165000D01*
D26*
X119065000Y-64135000D02*
X118110000Y-64135000D01*
X118110000Y-64135000D02*
X116840000Y-65405000D01*
X116840000Y-65405000D02*
X116840000Y-71755000D01*
D27*
X116840000Y-71755000D02*
X116840000Y-71755000D01*
D26*
X120015000Y-71755000D02*
X121920000Y-71755000D01*
X121920000Y-71755000D02*
X123190000Y-73025000D01*
X123190000Y-73025000D02*
X123190000Y-80010000D01*
X123190000Y-80010000D02*
X123825000Y-80645000D01*
D27*
X123825000Y-80645000D02*
X123875000Y-80645000D01*
D26*
X109220000Y-86360000D02*
X106680000Y-88900000D01*
X116840000Y-86360000D02*
X109220000Y-86360000D01*
X119380000Y-83820000D02*
X116840000Y-86360000D01*
X124217000Y-81037000D02*
X123825000Y-80645000D01*
X124217000Y-81945000D02*
X124217000Y-81037000D01*
X122967000Y-81945000D02*
X124217000Y-81945000D01*
X122300000Y-82612000D02*
X122967000Y-81945000D01*
X119380000Y-83820000D02*
X121920000Y-83820000D01*
X122300000Y-83440000D02*
X122300000Y-82612000D01*
X121920000Y-83820000D02*
X122300000Y-83440000D01*
X88870000Y-85695000D02*
X88900000Y-85725000D01*
X84063000Y-85695000D02*
X88870000Y-85695000D01*
D29*
X83624979Y-93863000D02*
X85461000Y-93863000D01*
X90424000Y-88900000D02*
X95885000Y-88900000D01*
X85461000Y-93863000D02*
X90424000Y-88900000D01*
D26*
X98430000Y-76200000D02*
X98430000Y-74290000D01*
X100965000Y-71755000D02*
X98430000Y-74290000D01*
X116840000Y-71755000D02*
X100965000Y-71755000D01*
D24*
X82667000Y-93863000D02*
X83624979Y-93863000D01*
X82232500Y-94297500D02*
X82667000Y-93863000D01*
X82232500Y-96389619D02*
X82232500Y-94297500D01*
X84582000Y-98739119D02*
X82232500Y-96389619D01*
X84582000Y-101092000D02*
X84582000Y-98739119D01*
D23*
X123287000Y-85695000D02*
X122682000Y-85090000D01*
X123287000Y-85695000D02*
X124217000Y-85695000D01*
X125974000Y-84445000D02*
X126111000Y-84582000D01*
X124354000Y-84582000D02*
X124217000Y-84445000D01*
X126111000Y-84582000D02*
X124354000Y-84582000D01*
M02*
