G04 #@! TF.GenerationSoftware,KiCad,Pcbnew,(5.1.9)-1*
G04 #@! TF.CreationDate,2021-04-18T01:47:18-07:00*
G04 #@! TF.ProjectId,UAS_Teensy,5541535f-5465-4656-9e73-792e6b696361,rev?*
G04 #@! TF.SameCoordinates,Original*
G04 #@! TF.FileFunction,Paste,Top*
G04 #@! TF.FilePolarity,Positive*
%FSLAX46Y46*%
G04 Gerber Fmt 4.6, Leading zero omitted, Abs format (unit mm)*
G04 Created by KiCad (PCBNEW (5.1.9)-1) date 2021-04-18 01:47:18*
%MOMM*%
%LPD*%
G01*
G04 APERTURE LIST*
%ADD10R,1.500000X3.000000*%
%ADD11R,2.700000X1.000000*%
%ADD12R,1.700000X0.600000*%
%ADD13R,1.803400X0.660400*%
%ADD14R,2.794000X0.990600*%
%ADD15R,1.000000X2.700000*%
%ADD16R,0.600000X1.700000*%
G04 APERTURE END LIST*
D10*
X121666000Y-101092000D03*
X84582000Y-101092000D03*
D11*
X122845000Y-62315000D03*
D12*
X119645000Y-64165000D03*
X119645000Y-65415000D03*
X119645000Y-67915000D03*
X119645000Y-66665000D03*
D11*
X122845000Y-69765000D03*
X85435000Y-69765000D03*
D12*
X88635000Y-67915000D03*
X88635000Y-66665000D03*
X88635000Y-64165000D03*
X88635000Y-65415000D03*
D11*
X85435000Y-62315000D03*
X80863000Y-87545000D03*
D12*
X84063000Y-85695000D03*
X84063000Y-84445000D03*
X84063000Y-81945000D03*
X84063000Y-83195000D03*
D11*
X80863000Y-80095000D03*
X127417000Y-80095000D03*
D12*
X124217000Y-81945000D03*
X124217000Y-83195000D03*
X124217000Y-85695000D03*
X124217000Y-84445000D03*
D11*
X127417000Y-87545000D03*
D13*
X83624979Y-93863000D03*
X83624979Y-95113000D03*
D14*
X80414978Y-92013001D03*
X80414978Y-96962999D03*
D15*
X117350000Y-102260000D03*
X104900000Y-102260000D03*
D16*
X115500000Y-99060000D03*
X106750000Y-99060000D03*
X108000000Y-99060000D03*
X109250000Y-99060000D03*
X114250000Y-99060000D03*
X113000000Y-99060000D03*
X111750000Y-99060000D03*
X110500000Y-99060000D03*
D15*
X102110000Y-102260000D03*
X89660000Y-102260000D03*
D16*
X100260000Y-99060000D03*
X91510000Y-99060000D03*
X92760000Y-99060000D03*
X94010000Y-99060000D03*
X99010000Y-99060000D03*
X97760000Y-99060000D03*
X96510000Y-99060000D03*
X95260000Y-99060000D03*
D13*
X124655021Y-94605000D03*
X124655021Y-93355000D03*
D14*
X127865022Y-96454999D03*
X127865022Y-91505001D03*
M02*
