M48
; DRILL file {KiCad (5.1.9)-1} date 04/18/21 01:48:12
; FORMAT={-:-/ absolute / metric / decimal}
; #@! TF.CreationDate,2021-04-18T01:48:12-07:00
; #@! TF.GenerationSoftware,Kicad,Pcbnew,(5.1.9)-1
; #@! TF.FileFunction,Plated,1,2,PTH
FMAT,2
METRIC
T1C0.300
T2C1.020
T3C1.030
T4C1.100
T5C2.000
T6C2.540
%
G90
G05
T1
X82.804Y-84.328
X85.344Y-84.836
X87.376Y-66.548
X88.9Y-85.725
X89.897Y-67.056
X91.059Y-99.949
X91.059Y-98.044
X106.172Y-98.044
X106.172Y-100.076
X107.442Y-83.801
X110.998Y-81.28
X112.268Y-78.105
X116.84Y-71.755
X118.364Y-65.278
X118.364Y-78.105
X120.015Y-71.755
X120.904Y-65.532
X120.904Y-99.187
X122.555Y-102.87
X122.682Y-85.09
X125.476Y-83.312
X126.111Y-84.582
T2
X98.43Y-76.2
X100.96Y-57.15
X100.96Y-76.2
X103.5Y-76.2
X103.51Y-57.15
X106.04Y-57.15
X106.05Y-76.2
X108.59Y-76.2
X111.13Y-76.2
T3
X108.59Y-57.15
T4
X87.63Y-80.01
X87.63Y-95.25
X90.17Y-80.01
X90.17Y-82.55
X90.17Y-95.25
X92.71Y-80.01
X92.71Y-95.25
X95.25Y-80.01
X95.25Y-95.25
X97.79Y-80.01
X97.79Y-95.25
X100.33Y-80.01
X100.33Y-95.25
X102.87Y-80.01
X102.87Y-95.25
X105.41Y-80.01
X105.41Y-95.25
X107.95Y-80.01
X107.95Y-95.25
X110.49Y-80.01
X110.49Y-95.25
X113.03Y-80.01
X113.03Y-82.55
X113.03Y-85.09
X113.03Y-87.63
X113.03Y-90.17
X113.03Y-92.71
X113.03Y-95.25
X115.57Y-80.01
X115.57Y-82.55
X115.57Y-85.09
X115.57Y-87.63
X115.57Y-90.17
X115.57Y-92.71
X115.57Y-95.25
X118.11Y-80.01
X118.11Y-95.25
X120.65Y-80.01
X120.65Y-82.55
X120.65Y-85.09
X120.65Y-87.63
X120.65Y-90.17
X120.65Y-92.71
X120.65Y-95.25
T5
X81.28Y-101.6
X86.36Y-55.88
X121.92Y-55.88
X127.0Y-101.6
T6
X93.98Y-58.42
X93.98Y-74.93
X115.57Y-58.42
X115.57Y-74.93
T0
M30
