G04 #@! TF.GenerationSoftware,KiCad,Pcbnew,(5.1.8)-1*
G04 #@! TF.CreationDate,2021-02-28T23:40:20-08:00*
G04 #@! TF.ProjectId,UAS,5541532e-6b69-4636-9164-5f7063625858,1*
G04 #@! TF.SameCoordinates,Original*
G04 #@! TF.FileFunction,Soldermask,Top*
G04 #@! TF.FilePolarity,Negative*
%FSLAX46Y46*%
G04 Gerber Fmt 4.6, Leading zero omitted, Abs format (unit mm)*
G04 Created by KiCad (PCBNEW (5.1.8)-1) date 2021-02-28 23:40:20*
%MOMM*%
%LPD*%
G01*
G04 APERTURE LIST*
%ADD10R,3.000000X1.500000*%
%ADD11R,1.500000X3.000000*%
%ADD12C,3.250000*%
%ADD13O,3.000000X1.800000*%
%ADD14R,1.000000X2.700000*%
%ADD15R,1.800000X3.800000*%
%ADD16O,1.800000X3.500000*%
%ADD17O,1.800000X3.000000*%
%ADD18O,1.700000X1.950000*%
G04 APERTURE END LIST*
D10*
X166550000Y-111100000D03*
D11*
X140750000Y-111550000D03*
D10*
X166550000Y-107850000D03*
D11*
X137250000Y-111550000D03*
D12*
X148800000Y-118360000D03*
X162000000Y-105160000D03*
D13*
X147780000Y-114290000D03*
X147780000Y-111750000D03*
X147780000Y-109210000D03*
X147780000Y-106670000D03*
X147780000Y-104130000D03*
D14*
X133950000Y-82850000D03*
X131950000Y-82850000D03*
X135950000Y-82850000D03*
X137950000Y-82850000D03*
X129950000Y-82850000D03*
X127950000Y-82850000D03*
X139950000Y-82850000D03*
D15*
X142300000Y-78400000D03*
X125600000Y-78400000D03*
D16*
X164470000Y-87150000D03*
X161930000Y-87150000D03*
X159390000Y-87150000D03*
X156850000Y-87150000D03*
X154310000Y-87150000D03*
X151770000Y-87150000D03*
X149230000Y-87150000D03*
X146690000Y-87150000D03*
X164470000Y-99850000D03*
X161930000Y-99850000D03*
X159390000Y-99850000D03*
X156850000Y-99850000D03*
X154310000Y-99850000D03*
X151770000Y-99850000D03*
X149230000Y-99850000D03*
X146690000Y-99850000D03*
D17*
X134310000Y-104080000D03*
X131770000Y-104080000D03*
X129230000Y-104080000D03*
X126690000Y-104080000D03*
D11*
X128500000Y-118750000D03*
X125210000Y-118760000D03*
D14*
X155000000Y-82900000D03*
X153000000Y-82900000D03*
X157000000Y-82900000D03*
X159000000Y-82900000D03*
X151000000Y-82900000D03*
X149000000Y-82900000D03*
X161000000Y-82900000D03*
D15*
X163350000Y-78450000D03*
X146650000Y-78450000D03*
D18*
X135500000Y-118000000D03*
X138000000Y-118000000D03*
X140500000Y-118000000D03*
G36*
G01*
X143850000Y-117275000D02*
X143850000Y-118725000D01*
G75*
G02*
X143600000Y-118975000I-250000J0D01*
G01*
X142400000Y-118975000D01*
G75*
G02*
X142150000Y-118725000I0J250000D01*
G01*
X142150000Y-117275000D01*
G75*
G02*
X142400000Y-117025000I250000J0D01*
G01*
X143600000Y-117025000D01*
G75*
G02*
X143850000Y-117275000I0J-250000D01*
G01*
G37*
D12*
X120430000Y-107300000D03*
X133930000Y-91300000D03*
D17*
X134120000Y-108140000D03*
X131580000Y-108140000D03*
X129040000Y-108140000D03*
X126500000Y-108140000D03*
X123960000Y-108140000D03*
M02*
