G04 #@! TF.GenerationSoftware,KiCad,Pcbnew,(5.1.8)-1*
G04 #@! TF.CreationDate,2021-03-01T00:07:48-08:00*
G04 #@! TF.ProjectId,UAS,5541532e-6b69-4636-9164-5f7063625858,1*
G04 #@! TF.SameCoordinates,Original*
G04 #@! TF.FileFunction,Paste,Bot*
G04 #@! TF.FilePolarity,Positive*
%FSLAX46Y46*%
G04 Gerber Fmt 4.6, Leading zero omitted, Abs format (unit mm)*
G04 Created by KiCad (PCBNEW (5.1.8)-1) date 2021-03-01 00:07:48*
%MOMM*%
%LPD*%
G01*
G04 APERTURE LIST*
%ADD10R,1.000000X2.700000*%
%ADD11R,1.800000X3.800000*%
%ADD12O,3.500000X1.800000*%
%ADD13R,1.500000X3.000000*%
%ADD14R,2.700000X1.000000*%
%ADD15R,3.800000X1.800000*%
G04 APERTURE END LIST*
D10*
X124750000Y-111950000D03*
X126750000Y-111950000D03*
X128750000Y-111950000D03*
D11*
X122400000Y-116500000D03*
X131100000Y-116500000D03*
D10*
X157000000Y-111950000D03*
X159000000Y-111950000D03*
X161000000Y-111950000D03*
D11*
X154650000Y-116500000D03*
X163350000Y-116500000D03*
D12*
X153210000Y-103460000D03*
X153210000Y-106000000D03*
X153210000Y-108540000D03*
D13*
X124950000Y-79600000D03*
X124950000Y-75600000D03*
X126950000Y-79600000D03*
X126950000Y-75600000D03*
X128950000Y-79600000D03*
X128950000Y-75600000D03*
X130950000Y-79600000D03*
X130950000Y-75600000D03*
X132950000Y-79600000D03*
X132950000Y-75600000D03*
X134950000Y-79600000D03*
X134950000Y-75600000D03*
X136950000Y-79600000D03*
X136950000Y-75600000D03*
X138950000Y-79600000D03*
X138950000Y-75600000D03*
D14*
X126900000Y-91000000D03*
X126900000Y-89000000D03*
D15*
X122450000Y-86650000D03*
X122450000Y-93350000D03*
D14*
X126900000Y-100500000D03*
X126900000Y-98500000D03*
D15*
X122450000Y-96150000D03*
X122450000Y-102850000D03*
D14*
X158600000Y-96500000D03*
X158600000Y-98500000D03*
D15*
X163050000Y-100850000D03*
X163050000Y-94150000D03*
D14*
X158600000Y-87000000D03*
X158600000Y-89000000D03*
D15*
X163050000Y-91350000D03*
X163050000Y-84650000D03*
M02*
