M48
; DRILL file {KiCad (5.1.9)-1} date 04/17/21 19:10:08
; FORMAT={-:-/ absolute / inch / decimal}
; #@! TF.CreationDate,2021-04-17T19:10:08-07:00
; #@! TF.GenerationSoftware,Kicad,Pcbnew,(5.1.9)-1
FMAT,2
INCH
T1C0.0118
T2C0.0402
T3C0.0406
T4C0.0433
T5C0.0787
T6C0.1000
%
G90
G05
T1
X3.26Y-3.32
X3.36Y-3.34
X3.44Y-2.62
X3.5Y-3.375
X3.5393Y-2.64
X3.585Y-3.935
X3.585Y-3.86
X4.18Y-3.86
X4.18Y-3.94
X4.23Y-3.2993
X4.37Y-3.2
X4.42Y-3.075
X4.6Y-2.825
X4.66Y-2.57
X4.66Y-3.075
X4.725Y-2.825
X4.76Y-2.58
X4.76Y-3.905
X4.825Y-4.05
X4.83Y-3.35
X4.94Y-3.28
X4.965Y-3.33
T2
X3.8752Y-3.0
X3.9748Y-2.25
X3.9748Y-3.0
X4.0748Y-3.0
X4.0752Y-2.25
X4.1748Y-2.25
X4.1752Y-3.0
X4.2752Y-3.0
X4.3752Y-3.0
T3
X4.2752Y-2.25
T4
X3.45Y-3.15
X3.45Y-3.75
X3.55Y-3.15
X3.55Y-3.25
X3.55Y-3.75
X3.65Y-3.15
X3.65Y-3.75
X3.75Y-3.15
X3.75Y-3.75
X3.85Y-3.15
X3.85Y-3.75
X3.95Y-3.15
X3.95Y-3.75
X4.05Y-3.15
X4.05Y-3.75
X4.15Y-3.15
X4.15Y-3.75
X4.25Y-3.15
X4.25Y-3.75
X4.35Y-3.15
X4.35Y-3.75
X4.45Y-3.15
X4.45Y-3.25
X4.45Y-3.35
X4.45Y-3.45
X4.45Y-3.55
X4.45Y-3.65
X4.45Y-3.75
X4.55Y-3.15
X4.55Y-3.25
X4.55Y-3.35
X4.55Y-3.45
X4.55Y-3.55
X4.55Y-3.65
X4.55Y-3.75
X4.65Y-3.15
X4.65Y-3.75
X4.75Y-3.15
X4.75Y-3.25
X4.75Y-3.35
X4.75Y-3.45
X4.75Y-3.55
X4.75Y-3.65
X4.75Y-3.75
T5
X3.2Y-4.0
X3.4Y-2.2
X4.8Y-2.2
X5.0Y-4.0
T6
X3.7Y-2.3
X3.7Y-2.95
X4.55Y-2.3
X4.55Y-2.95
T0
M30
