0
SECTION
2
HEADER
9
$INSUNITS
70
1
9
$ACADVER
1
AC1014
9
$HANDSEED
5
FFFF
0
ENDSEC
0
SECTION
2
TABLES
0
TABLE
2
VPORT
5
8
100
AcDbSymbolTable
0
ENDTAB
0
TABLE
2
LTYPE
5
5
100
AcDbSymbolTable
0
LTYPE
5
14
100
AcDbSymbolTableRecord
100
AcDbLinetypeTableRecord
2
BYBLOCK
70
0
0
LTYPE
5
15
100
AcDbSymbolTableRecord
100
AcDbLinetypeTableRecord
2
BYLAYER
70
0
0
ENDTAB
0
TABLE
2
LAYER
5
2
100
AcDbSymbolTable
70
2
0
LAYER
5
50
100
AcDbSymbolTableRecord
100
AcDbLayerTableRecord
2
0
70
0
6
CONTINUOUS
0
ENDTAB
0
TABLE
2
STYLE
5
3
100
AcDbSymbolTable
70
1
0
STYLE
5
11
100
AcDbSymbolTableRecord
100
AcDbTextStyleTableRecord
2
STANDARD
70
0
0
ENDTAB
0
TABLE
2
VIEW
5
6
100
AcDbSymbolTable
70
0
0
ENDTAB
0
TABLE
2
UCS
5
7
100
AcDbSymbolTable
70
0
0
ENDTAB
0
TABLE
2
APPID
5
9
100
AcDbSymbolTable
70
2
0
APPID
5
12
100
AcDbSymbolTableRecord
100
AcDbRegAppTableRecord
2
ACAD
70
0
0
ENDTAB
0
TABLE
2
DIMSTYLE
5
A
100
AcDbSymbolTable
70
1
0
ENDTAB
0
TABLE
2
BLOCK_RECORD
5
1
100
AcDbSymbolTable
70
1
0
BLOCK_RECORD
5
1F
100
AcDbSymbolTableRecord
100
AcDbBlockTableRecord
2
*MODEL_SPACE
0
BLOCK_RECORD
5
1B
100
AcDbSymbolTableRecord
100
AcDbBlockTableRecord
2
*PAPER_SPACE
0
ENDTAB
0
ENDSEC
0
SECTION
2
BLOCKS
0
BLOCK
5
20
100
AcDbEntity
100
AcDbBlockBegin
2
*MODEL_SPACE
0
ENDBLK
5
21
100
AcDbEntity
100
AcDbBlockEnd
0
BLOCK
5
1C
100
AcDbEntity
100
AcDbBlockBegin
2
*PAPER_SPACE
0
ENDBLK
5
1D
100
AcDbEntity
100
AcDbBlockEnd
0
ENDSEC
0
SECTION
2
ENTITIES
0
ARC
5
100
100
AcDbEntity
8
0
100
AcDbCircle
10
0.038045394465503958
20
0.60660459536223132
30
0
40
0.90863212605384558
210
0
220
-0
230
1
100
AcDbArc
50
32.868649900141818
51
129.32014140337662
0
ARC
5
101
100
AcDbEntity
8
0
100
AcDbCircle
10
0.45568244135711672
20
0.54197542193235204
30
0
40
0.65611750195192042
210
-0
220
0
230
1
100
AcDbArc
50
-25.266052923397226
51
58.221209959697795
0
ARC
5
102
100
AcDbEntity
8
0
100
AcDbCircle
10
0.50500133284691462
20
1.0590612557806014
30
0
40
0.96508476848414571
210
0
220
0
230
1
100
AcDbArc
50
224.06842491525728
51
304.31301699704431
0
ARC
5
103
100
AcDbEntity
8
0
100
AcDbCircle
10
0.1649696200204287
20
0.65004180725146354
30
0
40
0.96626631804747787
210
0
220
0
230
1
100
AcDbArc
50
139.15136793875322
51
182.96860857425827
0
ARC
5
104
100
AcDbEntity
8
0
100
AcDbCircle
10
-0.95058570986160418
20
0.25146420683612752
30
0
40
0.37967520433850377
210
0
220
-0
230
1
100
AcDbArc
50
66.633132361997014
51
155.55133922316207
0
ARC
5
105
100
AcDbEntity
8
0
100
AcDbCircle
10
0.39463921551535447
20
-0.12368616326977164
30
0
40
1.7733617866642408
210
0
220
0
230
1
100
AcDbArc
50
162.89771253487427
51
204.63185044871022
0
ARC
5
106
100
AcDbEntity
8
0
100
AcDbCircle
10
-1.0345805715209893
20
-0.52947800229665098
30
0
40
0.40577108331607642
210
0
220
0
230
1
100
AcDbArc
50
252.51442664011867
51
285.61153270108025
0
ARC
5
107
100
AcDbEntity
8
0
100
AcDbCircle
10
0.049220576976877518
20
-0.95823892281302969
30
0
40
0.91120099257682807
210
0
220
0
230
1
100
AcDbArc
50
180.60778276010424
51
211.89430653063255
0
ARC
5
108
100
AcDbEntity
8
0
100
AcDbCircle
10
-0.38051597612866173
20
-1.1178928969268518
30
0
40
0.47402013235295998
210
0
220
0
230
1
100
AcDbArc
50
226.87349325857673
51
303.32512073747387
0
ARC
5
109
100
AcDbEntity
8
0
100
AcDbCircle
10
-0.82770289356409088
20
-0.97522401936729386
30
0
40
0.89718525219116074
210
0
220
0
230
1
100
AcDbArc
50
325.65428435873673
51
355.48392680869171
0
LINE
5
110
100
AcDbEntity
8
0
100
AcDbLine
10
0.13283481949088038
20
-0.9595376834564604
30
0
11
0.30000000957428935
21
-0.90000002872286811
31
0
0
LINE
5
111
100
AcDbEntity
8
0
100
AcDbLine
10
0.30000000957428935
20
-0.90000002872286811
30
0
11
0.25278581009577528
21
-0.97492560008168583
31
0
0
ARC
5
112
100
AcDbEntity
8
0
100
AcDbCircle
10
1.1109730827787458
20
-1.0866880949621096
30
0
40
0.86962674803662288
210
0
220
0
230
1
100
AcDbArc
50
173.83959261406557
51
199.32533109148432
0
ARC
5
113
100
AcDbEntity
8
0
100
AcDbCircle
10
0.56839170463318889
20
-1.0140198863395466
30
0
40
0.47537241242751649
210
0
220
0
230
1
100
AcDbArc
50
240.70352229520856
51
307.21525962215054
0
ARC
5
114
100
AcDbEntity
8
0
100
AcDbCircle
10
-1.786367245447853
20
-0.26933045104173264
30
0
40
2.8847411210252751
210
0
220
0
230
1
100
AcDbArc
50
-22.009807607035558
51
10.612293425628982
0
ARC
5
115
100
AcDbEntity
8
0
100
AcDbCircle
10
-1.1264542792253398
20
-0.82112020984718548
30
0
40
0.1000000000000434
210
0
220
0
230
1
100
AcDbArc
50
204.63185044871022
51
252.51442664012225
0
ARC
5
116
100
AcDbEntity
8
0
100
AcDbCircle
10
-0.91192633622893404
20
-0.96843496938116036
30
0
40
0.050000000000000051
210
0
220
-0
230
1
100
AcDbArc
50
0.60778276010428833
51
105.61153270108041
0
ARC
5
117
100
AcDbEntity
8
0
100
AcDbCircle
10
2.6589420264935071
20
-0.3517883995541225
30
0
40
3.5875034931332306
210
0
220
0
230
1
100
AcDbArc
50
164.6148271220753
51
189.24988287219685
0
ARC
5
118
100
AcDbEntity
8
0
100
AcDbCircle
10
0.16638638198601111
20
-1.0537411475866885
30
0
40
0.099999999999999076
210
0
220
0
230
1
100
AcDbArc
50
109.60389587397178
51
175.48392680869202
0
ARC
5
119
100
AcDbEntity
8
0
100
AcDbCircle
10
0.28942512283325006
20
-0.99801378998761714
30
0
40
0.043307086614165477
210
0
220
0
230
1
100
AcDbArc
50
147.78300196302931
51
173.83959261406557
0
ARC
5
120
100
AcDbEntity
8
0
100
AcDbCircle
10
0.38471115756710289
20
-1.3413819254356785
30
0
40
0.10000000000000378
210
0
220
0
230
1
100
AcDbArc
50
199.32533109148471
51
240.70352229520924
0
ARC
5
121
100
AcDbEntity
8
0
100
AcDbCircle
10
0.7954211565081335
20
-1.3129547889404114
30
0
40
0.10000000000003623
210
-0
220
0
230
1
100
AcDbArc
50
307.2152596221581
51
337.99019239296115
0
ARC
5
122
100
AcDbEntity
8
0
100
AcDbCircle
10
0.20000000638285959
20
0.6000000191485787
30
0
40
0.44721360977246594
210
0
220
0
230
1
100
AcDbArc
50
116.56504901794351
51
204.25229824299296
0
ARC
5
123
100
AcDbEntity
8
0
100
AcDbCircle
10
0.54166669468305417
20
-0.083333421828661547
30
0
40
1.2112036080393396
210
0
220
-0
230
1
100
AcDbArc
50
77.625862129221005
51
116.56504901794354
0
ARC
5
124
100
AcDbEntity
8
0
100
AcDbCircle
10
-0.11657046352058568
20
0.45738014537099636
30
0
40
0.10000000000000657
210
0
220
0
230
1
100
AcDbArc
50
204.25229824299348
51
224.0684249152564
0
ELLIPSE
5
125
100
AcDbEntity
8
0
100
AcDbEllipse
10
0.6000000191485787
20
0.80000002553143834
30
0
11
0.25602313370943874
21
-0.046285894861869271
31
0.0
40
0.31869814179734135
41
0
42
6.2831853071795862
0
LINE
5
126
100
AcDbEntity
8
0
100
AcDbLine
10
0.34397688543914001
20
0.84628592039330763
30
0
11
0.85602315285801744
21
0.75371413066956905
31
0
0
LINE
5
127
100
AcDbEntity
8
0
100
AcDbLine
10
0.58524879046467393
20
0.71840592856110796
30
0
11
0.61475124783248358
21
0.88159412250176883
31
0
0
ARC
5
128
100
AcDbEntity
8
0
100
AcDbCircle
10
-0.18602113308021534
20
-1.4137002838169845
30
0
40
0.11999999999999821
210
-0
220
0
230
1
100
AcDbArc
50
303.32512073747336
51
325.6542843587365
0
ARC
5
129
100
AcDbEntity
8
0
100
AcDbCircle
10
-0.62252820822908039
20
-1.3762731082917605
30
0
40
0.12000000000000763
210
0
220
0
230
1
100
AcDbArc
50
211.89430653063374
51
226.8734932585769
0
ARC
5
130
100
AcDbEntity
8
0
100
AcDbCircle
10
-0.39197179613660627
20
1.1316062889776235
30
0
40
0.23000000000000073
210
0
220
0
230
1
100
AcDbArc
50
129.32014140337688
51
139.15136793875345
0
ARC
5
131
100
AcDbEntity
8
0
100
AcDbCircle
10
-1.2142864589428271
20
0.37135431878269765
30
0
40
0.089999999999991018
210
0
220
0
230
1
100
AcDbArc
50
155.55133922316148
51
162.8977125348745
0
ENDSEC
0
SECTION
2
OBJECTS
0
DICTIONARY
5
C
100
AcDbDictionary
3
ACAD_GROUP
350
D
3
ACAD_MLINESTYLE
350
17
0
DICTIONARY
5
D
100
AcDbDictionary
0
DICTIONARY
5
1A
330
C
100
AcDbDictionary
0
DICTIONARY
5
17
100
AcDbDictionary
0
ENDSEC
0
EOF
