G04 #@! TF.GenerationSoftware,KiCad,Pcbnew,(5.1.8)-1*
G04 #@! TF.CreationDate,2021-03-01T03:03:40-08:00*
G04 #@! TF.ProjectId,UAS,5541532e-6b69-4636-9164-5f7063625858,1*
G04 #@! TF.SameCoordinates,Original*
G04 #@! TF.FileFunction,Copper,L1,Top*
G04 #@! TF.FilePolarity,Positive*
%FSLAX46Y46*%
G04 Gerber Fmt 4.6, Leading zero omitted, Abs format (unit mm)*
G04 Created by KiCad (PCBNEW (5.1.8)-1) date 2021-03-01 03:03:40*
%MOMM*%
%LPD*%
G01*
G04 APERTURE LIST*
G04 #@! TA.AperFunction,ComponentPad*
%ADD10C,3.250000*%
G04 #@! TD*
G04 #@! TA.AperFunction,ComponentPad*
%ADD11O,3.000000X1.800000*%
G04 #@! TD*
G04 #@! TA.AperFunction,ComponentPad*
%ADD12C,1.500000*%
G04 #@! TD*
G04 #@! TA.AperFunction,SMDPad,CuDef*
%ADD13R,3.000000X1.500000*%
G04 #@! TD*
G04 #@! TA.AperFunction,SMDPad,CuDef*
%ADD14R,1.500000X3.000000*%
G04 #@! TD*
G04 #@! TA.AperFunction,SMDPad,CuDef*
%ADD15R,1.000000X2.700000*%
G04 #@! TD*
G04 #@! TA.AperFunction,SMDPad,CuDef*
%ADD16R,1.800000X3.800000*%
G04 #@! TD*
G04 #@! TA.AperFunction,SMDPad,CuDef*
%ADD17O,1.800000X3.500000*%
G04 #@! TD*
G04 #@! TA.AperFunction,ComponentPad*
%ADD18O,1.800000X3.000000*%
G04 #@! TD*
G04 #@! TA.AperFunction,ComponentPad*
%ADD19O,1.700000X1.950000*%
G04 #@! TD*
G04 #@! TA.AperFunction,ViaPad*
%ADD20C,2.500000*%
G04 #@! TD*
G04 #@! TA.AperFunction,ViaPad*
%ADD21C,1.100000*%
G04 #@! TD*
G04 #@! TA.AperFunction,ViaPad*
%ADD22C,0.900000*%
G04 #@! TD*
G04 #@! TA.AperFunction,ViaPad*
%ADD23C,0.800000*%
G04 #@! TD*
G04 #@! TA.AperFunction,ViaPad*
%ADD24C,0.700000*%
G04 #@! TD*
G04 #@! TA.AperFunction,ViaPad*
%ADD25C,0.600000*%
G04 #@! TD*
G04 #@! TA.AperFunction,Conductor*
%ADD26C,0.700000*%
G04 #@! TD*
G04 #@! TA.AperFunction,Conductor*
%ADD27C,0.600000*%
G04 #@! TD*
G04 #@! TA.AperFunction,Conductor*
%ADD28C,1.000000*%
G04 #@! TD*
G04 #@! TA.AperFunction,Conductor*
%ADD29C,1.200000*%
G04 #@! TD*
G04 #@! TA.AperFunction,Conductor*
%ADD30C,0.400000*%
G04 #@! TD*
G04 #@! TA.AperFunction,Conductor*
%ADD31C,1.400000*%
G04 #@! TD*
G04 #@! TA.AperFunction,Conductor*
%ADD32C,1.500000*%
G04 #@! TD*
G04 #@! TA.AperFunction,Conductor*
%ADD33C,2.800000*%
G04 #@! TD*
G04 APERTURE END LIST*
D10*
X148800000Y-118360000D03*
X162000000Y-105160000D03*
D11*
X147780000Y-114290000D03*
X147780000Y-111750000D03*
X147780000Y-109210000D03*
X147780000Y-106670000D03*
X147780000Y-104130000D03*
D12*
X124750000Y-112750000D03*
X126750000Y-112750000D03*
X128750000Y-112750000D03*
X157000000Y-112750000D03*
X159000000Y-112750000D03*
X161000000Y-112750000D03*
D13*
X166550000Y-111100000D03*
D14*
X140500000Y-111550000D03*
D13*
X166550000Y-107850000D03*
D14*
X137250000Y-111550000D03*
D15*
X133950000Y-82850000D03*
X131950000Y-82850000D03*
X135950000Y-82850000D03*
X137950000Y-82850000D03*
X129950000Y-82850000D03*
X127950000Y-82850000D03*
X139950000Y-82850000D03*
D16*
X142300000Y-78400000D03*
X125600000Y-78400000D03*
D17*
X164470000Y-87150000D03*
X161930000Y-87150000D03*
X159390000Y-87150000D03*
X156850000Y-87150000D03*
X154310000Y-87150000D03*
X151770000Y-87150000D03*
X149230000Y-87150000D03*
X146690000Y-87150000D03*
X164470000Y-99850000D03*
X161930000Y-99850000D03*
X159390000Y-99850000D03*
X156850000Y-99850000D03*
X154310000Y-99850000D03*
X151770000Y-99850000D03*
X149230000Y-99850000D03*
X146690000Y-99850000D03*
D18*
X134310000Y-104080000D03*
X131770000Y-104080000D03*
X129230000Y-104080000D03*
X126690000Y-104080000D03*
D14*
X128500000Y-118750000D03*
X125210000Y-118760000D03*
D15*
X155000000Y-82900000D03*
X153000000Y-82900000D03*
X157000000Y-82900000D03*
X159000000Y-82900000D03*
X151000000Y-82900000D03*
X149000000Y-82900000D03*
X161000000Y-82900000D03*
D16*
X163350000Y-78450000D03*
X146650000Y-78450000D03*
D19*
X135500000Y-118000000D03*
X138000000Y-118000000D03*
X140500000Y-118000000D03*
G04 #@! TA.AperFunction,ComponentPad*
G36*
G01*
X143850000Y-117275000D02*
X143850000Y-118725000D01*
G75*
G02*
X143600000Y-118975000I-250000J0D01*
G01*
X142400000Y-118975000D01*
G75*
G02*
X142150000Y-118725000I0J250000D01*
G01*
X142150000Y-117275000D01*
G75*
G02*
X142400000Y-117025000I250000J0D01*
G01*
X143600000Y-117025000D01*
G75*
G02*
X143850000Y-117275000I0J-250000D01*
G01*
G37*
G04 #@! TD.AperFunction*
D10*
X120430000Y-107300000D03*
X133930000Y-91300000D03*
D18*
X134120000Y-108140000D03*
X131580000Y-108140000D03*
X129040000Y-108140000D03*
X126500000Y-108140000D03*
X123960000Y-108140000D03*
D20*
X120000000Y-118550000D03*
X120000000Y-76000000D03*
X165725000Y-76000000D03*
X165720000Y-118540000D03*
D21*
X140500000Y-111500000D03*
D22*
X151765000Y-97891600D03*
X154305000Y-97891600D03*
D23*
X157000000Y-96500000D03*
D22*
X159385000Y-101803200D03*
D23*
X159400000Y-97900000D03*
D24*
X134340600Y-81305400D03*
X132359400Y-81330800D03*
X136347200Y-81330800D03*
X138328400Y-81330800D03*
X130352800Y-81330800D03*
X128346200Y-81330800D03*
X140131800Y-81343500D03*
X158250000Y-105500000D03*
D21*
X125210000Y-118760000D03*
D24*
X131300000Y-120457999D03*
X152800000Y-119000000D03*
D21*
X128500000Y-118750000D03*
D24*
X153500000Y-112750000D03*
D22*
X152000000Y-104250000D03*
D21*
X146700000Y-101800000D03*
X146700000Y-97800000D03*
X125200000Y-88980000D03*
X126900000Y-88100000D03*
X128500000Y-98500000D03*
X125300000Y-98480000D03*
X126669800Y-81381600D03*
D23*
X165500000Y-99850000D03*
D21*
X127550000Y-77600000D03*
D22*
X155750000Y-104250000D03*
D23*
X164500000Y-101800000D03*
D21*
X126920000Y-99730000D03*
X126930000Y-91740000D03*
X149225000Y-97815400D03*
D23*
X151206200Y-103460000D03*
D25*
X137250000Y-103350000D03*
X137250000Y-100150000D03*
X144600000Y-98450000D03*
X156000000Y-95500000D03*
D21*
X166550000Y-107850000D03*
X137250000Y-111550000D03*
D25*
X140750000Y-114950000D03*
X149850000Y-116100000D03*
D21*
X166550000Y-111100000D03*
D26*
X151770000Y-97896600D02*
X151765000Y-97891600D01*
X151770000Y-99850000D02*
X151770000Y-97896600D01*
X154310000Y-97896600D02*
X154305000Y-97891600D01*
X154310000Y-99850000D02*
X154310000Y-97896600D01*
X157000000Y-96500000D02*
X157000000Y-99700000D01*
X159385000Y-101803200D02*
X159385000Y-99855000D01*
X159400000Y-101788200D02*
X159385000Y-101803200D01*
X159400000Y-97900000D02*
X159400000Y-101788200D01*
D27*
X133950000Y-81696000D02*
X134340600Y-81305400D01*
X133950000Y-82850000D02*
X133950000Y-81696000D01*
X131950000Y-81740200D02*
X132359400Y-81330800D01*
X131950000Y-82850000D02*
X131950000Y-81740200D01*
X135950000Y-81728000D02*
X136347200Y-81330800D01*
X135950000Y-82850000D02*
X135950000Y-81728000D01*
X137950000Y-81709200D02*
X138328400Y-81330800D01*
X137950000Y-82850000D02*
X137950000Y-81709200D01*
X129950000Y-81733600D02*
X130352800Y-81330800D01*
X129950000Y-82850000D02*
X129950000Y-81733600D01*
X127950000Y-81727000D02*
X128346200Y-81330800D01*
X127950000Y-82850000D02*
X127950000Y-81727000D01*
X139950000Y-81525300D02*
X140131800Y-81343500D01*
X139950000Y-82850000D02*
X139950000Y-81525300D01*
X161930000Y-101820000D02*
X161930000Y-99850000D01*
X158250000Y-105500000D02*
X161930000Y-101820000D01*
X163367200Y-82900000D02*
X161000000Y-82900000D01*
X164470000Y-84002800D02*
X163367200Y-82900000D01*
X164470000Y-87150000D02*
X164470000Y-84002800D01*
X162430000Y-87150000D02*
X162430000Y-86910000D01*
X162366675Y-87150000D02*
X162430000Y-87150000D01*
X161930000Y-87150000D02*
X161930000Y-85298200D01*
X161930000Y-85298200D02*
X161544000Y-84912200D01*
X161544000Y-84912200D02*
X159397700Y-84912200D01*
X159000000Y-84514500D02*
X159397700Y-84912200D01*
X159000000Y-82900000D02*
X159000000Y-84514500D01*
X159890000Y-86890000D02*
X159890000Y-87150000D01*
X159390000Y-87150000D02*
X159390000Y-86034800D01*
X159390000Y-87150000D02*
X159390000Y-85996700D01*
X159390000Y-85996700D02*
X158305500Y-84912200D01*
X158305500Y-84912200D02*
X157391100Y-84912200D01*
X157000000Y-84521100D02*
X157391100Y-84912200D01*
X157000000Y-82900000D02*
X157000000Y-84521100D01*
X157350000Y-86350000D02*
X157350000Y-87150000D01*
X156850000Y-87150000D02*
X156850000Y-85526800D01*
X156850000Y-85526800D02*
X156286200Y-84963000D01*
X156286200Y-84963000D02*
X155333700Y-84963000D01*
X155000000Y-84629300D02*
X155333700Y-84963000D01*
X155000000Y-82900000D02*
X155000000Y-84629300D01*
X151770000Y-87150000D02*
X151770000Y-85351700D01*
X151770000Y-85351700D02*
X152120600Y-85001100D01*
X152120600Y-85001100D02*
X152628600Y-85001100D01*
X153000000Y-84629700D02*
X152628600Y-85001100D01*
X153000000Y-82900000D02*
X153000000Y-84629700D01*
X149230000Y-87150000D02*
X149230000Y-85250100D01*
X149230000Y-85250100D02*
X149504400Y-84975700D01*
X149504400Y-84975700D02*
X150660100Y-84975700D01*
X151000000Y-84635800D02*
X150660100Y-84975700D01*
X151000000Y-82900000D02*
X151000000Y-84635800D01*
X146690000Y-87150000D02*
X146690000Y-84060000D01*
X147850000Y-82900000D02*
X149000000Y-82900000D01*
X146690000Y-84060000D02*
X147850000Y-82900000D01*
X125250000Y-118720000D02*
X125210000Y-118760000D01*
D26*
X125210000Y-115481800D02*
X124739400Y-115011200D01*
X125210000Y-118760000D02*
X125210000Y-118760000D01*
X125210000Y-118760000D02*
X125210000Y-115481800D01*
D27*
X124739400Y-112760600D02*
X124750000Y-112750000D01*
D26*
X124739400Y-115011200D02*
X124739400Y-112760600D01*
D27*
X131300000Y-120457999D02*
X130207999Y-120457999D01*
X130207999Y-120457999D02*
X128500000Y-118750000D01*
X128500000Y-118750000D02*
X128500000Y-118750000D01*
X152800000Y-113450000D02*
X153500000Y-112750000D01*
X152800000Y-119000000D02*
X152800000Y-113450000D01*
X131770000Y-104870000D02*
X131770000Y-104080000D01*
X129040000Y-108140000D02*
X129040000Y-107600000D01*
D26*
X164470000Y-99850000D02*
X165500000Y-99850000D01*
D28*
X146700000Y-97800000D02*
X146700000Y-99840000D01*
X146700000Y-101800000D02*
X146700000Y-99860000D01*
D26*
X164470000Y-101770000D02*
X164500000Y-101800000D01*
X164470000Y-99850000D02*
X164470000Y-101770000D01*
D27*
X134120000Y-104270000D02*
X134310000Y-104080000D01*
D29*
X134120000Y-108140000D02*
X134120000Y-104270000D01*
D27*
X126920000Y-91750000D02*
X126930000Y-91740000D01*
D28*
X126920000Y-99730000D02*
X126920000Y-91750000D01*
D27*
X149666675Y-99850000D02*
X149730000Y-99850000D01*
X149230000Y-101270000D02*
X149230000Y-99850000D01*
D28*
X149230000Y-97820400D02*
X149225000Y-97815400D01*
D29*
X149225000Y-99845000D02*
X149230000Y-99850000D01*
X149225000Y-97815400D02*
X149225000Y-99845000D01*
D30*
X129230000Y-104710000D02*
X129230000Y-104080000D01*
D31*
X126500000Y-107440000D02*
X129230000Y-104710000D01*
D30*
X126500000Y-108140000D02*
X126500000Y-107440000D01*
D32*
X129230000Y-104080000D02*
X129230000Y-102810000D01*
D31*
X129230000Y-102810000D02*
X130620000Y-101420000D01*
X130620000Y-101420000D02*
X141460000Y-101420000D01*
X141460000Y-101420000D02*
X143000000Y-102960000D01*
X143000000Y-110870000D02*
X144660000Y-109210000D01*
X144660000Y-109210000D02*
X147780000Y-109210000D01*
D27*
X150522999Y-104143201D02*
X151206200Y-103460000D01*
X150522999Y-108303001D02*
X150522999Y-104143201D01*
X149616000Y-109210000D02*
X150522999Y-108303001D01*
X147780000Y-109210000D02*
X149616000Y-109210000D01*
D33*
X143000000Y-118000000D02*
X143000000Y-110870000D01*
D31*
X143000000Y-102960000D02*
X143000000Y-110870000D01*
D27*
X137250000Y-111550000D02*
X137250000Y-111550000D01*
X137250000Y-100150000D02*
X137250000Y-99350000D01*
X137250000Y-99350000D02*
X137250000Y-99000000D01*
X137800000Y-98450000D02*
X144600000Y-98450000D01*
X137250000Y-99000000D02*
X137800000Y-98450000D01*
X166550000Y-95550000D02*
X166550000Y-107850000D01*
X165700000Y-94700000D02*
X166550000Y-95550000D01*
X156800000Y-94700000D02*
X165700000Y-94700000D01*
X156000000Y-95500000D02*
X156800000Y-94700000D01*
X166550000Y-107850000D02*
X166550000Y-107850000D01*
X137250000Y-111550000D02*
X137250000Y-103350000D01*
X153850000Y-108700000D02*
X164150000Y-108700000D01*
X151450000Y-111100000D02*
X153850000Y-108700000D01*
X164150000Y-108700000D02*
X166550000Y-111100000D01*
X151450000Y-114500000D02*
X151450000Y-111100000D01*
X149850000Y-116100000D02*
X151450000Y-114500000D01*
X166550000Y-111100000D02*
X166550000Y-111100000D01*
X140500000Y-114700000D02*
X140750000Y-114950000D01*
X140500000Y-111500000D02*
X140500000Y-114700000D01*
M02*
