M48
; DRILL file {KiCad (5.1.8)-1} date 03/01/21 03:03:42
; FORMAT={-:-/ absolute / inch / decimal}
; #@! TF.CreationDate,2021-03-01T03:03:42-08:00
; #@! TF.GenerationSoftware,Kicad,Pcbnew,(5.1.8)-1
FMAT,2
INCH
T1C0.0118
T2C0.0157
T3C0.0197
T4C0.0315
T5C0.0374
T6C0.0402
T7C0.0787
T8C0.0858
T9C0.0472
%
G90
G05
T1
X5.053Y-3.202
X5.132Y-3.202
X5.1693Y-4.7424
X5.211Y-3.202
X5.289Y-3.201
X5.368Y-3.202
X5.4035Y-3.9429
X5.4035Y-4.0689
X5.446Y-3.202
X5.517Y-3.2025
X5.5413Y-4.5256
X5.6929Y-3.876
X5.8996Y-4.5709
X6.0157Y-4.685
X6.0433Y-4.439
X6.1417Y-3.7598
X6.2303Y-4.1535
T2
X5.953Y-4.0732
X5.975Y-3.854
X5.9843Y-4.1043
X6.075Y-3.854
X6.1319Y-4.1043
X6.1811Y-3.7992
X6.275Y-4.008
X6.2756Y-3.8543
X6.4764Y-4.0079
X6.5157Y-3.9311
T3
X4.9291Y-3.5031
X4.9295Y-4.6756
X4.9331Y-3.8772
X4.987Y-3.204
X4.9961Y-3.4685
X4.9969Y-3.9264
X4.9972Y-3.6118
X5.0217Y-3.0551
X5.0591Y-3.878
X5.0591Y-4.6752
X5.4035Y-4.3917
X5.5315Y-4.3898
X5.7756Y-3.8504
X5.7756Y-4.0079
X5.875Y-3.851
X6.5571Y-4.2461
X6.5571Y-4.374
T4
X6.1811Y-4.439
X6.2598Y-4.439
X6.3386Y-4.439
X4.9114Y-4.439
X4.9902Y-4.439
X5.0689Y-4.439
T5
X5.3346Y-4.6457
X5.4331Y-4.6457
X5.5315Y-4.6457
X5.6299Y-4.6457
T6
X5.8181Y-4.0996
X5.8181Y-4.1996
X5.8181Y-4.2996
X5.8181Y-4.3996
X5.8181Y-4.4996
X4.9878Y-4.0976
X5.0878Y-4.0976
X5.1878Y-4.0976
X5.2878Y-4.0976
X4.8803Y-4.2575
X4.9803Y-4.2575
X5.0803Y-4.2575
X5.1803Y-4.2575
X5.2803Y-4.2575
T7
X4.7244Y-2.9921
X4.7244Y-4.6673
X6.5244Y-4.6669
X6.5246Y-2.9921
T8
X5.8583Y-4.6598
X6.378Y-4.1402
X4.7413Y-4.2244
X5.2728Y-3.5945
T9
X6.122Y-4.5217
X6.3976Y-4.5217
X4.8524Y-4.5217
X5.128Y-4.5217
T0
M30
