%TF.GenerationSoftware,KiCad,Pcbnew,(5.1.8)-1*%
%TF.CreationDate,2021-01-10T20:37:24-08:00*%
%TF.ProjectId,PJS,504a532e-6b69-4636-9164-5f7063625858,rev?*%
%TF.SameCoordinates,Original*%
%TF.FileFunction,Copper,L2,Bot*%
%TF.FilePolarity,Positive*%
%FSLAX46Y46*%
G04 Gerber Fmt 4.6, Leading zero omitted, Abs format (unit mm)*
G04 Created by KiCad (PCBNEW (5.1.8)-1) date 2021-01-10 20:37:24*
%MOMM*%
%LPD*%
G01*
G04 APERTURE LIST*
%TA.AperFunction,ComponentPad*%
%ADD10C,0.800000*%
%TD*%
%TA.AperFunction,ComponentPad*%
%ADD11C,6.000000*%
%TD*%
%TA.AperFunction,ComponentPad*%
%ADD12O,1.270000X1.000000*%
%TD*%
%TA.AperFunction,ComponentPad*%
%ADD13C,1.900000*%
%TD*%
%TA.AperFunction,ComponentPad*%
%ADD14C,1.308000*%
%TD*%
%TA.AperFunction,ComponentPad*%
%ADD15C,4.064000*%
%TD*%
%TA.AperFunction,ComponentPad*%
%ADD16C,4.000000*%
%TD*%
%TA.AperFunction,ComponentPad*%
%ADD17R,3.800000X3.800000*%
%TD*%
%TA.AperFunction,ComponentPad*%
%ADD18C,1.530000*%
%TD*%
%TA.AperFunction,ComponentPad*%
%ADD19C,1.524000*%
%TD*%
%TA.AperFunction,ViaPad*%
%ADD20C,6.000000*%
%TD*%
%TA.AperFunction,ViaPad*%
%ADD21C,0.800000*%
%TD*%
%TA.AperFunction,Conductor*%
%ADD22C,0.250000*%
%TD*%
%TA.AperFunction,Conductor*%
%ADD23C,0.500000*%
%TD*%
%TA.AperFunction,Conductor*%
%ADD24C,1.500000*%
%TD*%
%TA.AperFunction,Conductor*%
%ADD25C,0.254000*%
%TD*%
%TA.AperFunction,Conductor*%
%ADD26C,0.100000*%
%TD*%
G04 APERTURE END LIST*
D10*
%TO.P,K1,5*%
%TO.N,/Door_RelayOut1*%
X101342500Y-115642999D03*
%TO.P,K1,3*%
%TO.N,+12V*%
X101342500Y-120642999D03*
%TO.P,K1,2*%
%TO.N,Net-(K1-Pad2)*%
X101342500Y-125642999D03*
%TO.P,K1,1*%
%TO.N,+5V*%
X101342500Y-140642999D03*
%TO.P,K1,5*%
%TO.N,/Door_RelayOut1*%
X108842500Y-115642999D03*
%TO.P,K1,6*%
%TO.N,+12V*%
X108842500Y-120642999D03*
%TO.P,K1,7*%
%TO.N,Net-(K1-Pad7)*%
X108842500Y-125642999D03*
%TO.P,K1,8*%
%TO.N,Net-(D1-Pad1)*%
X108842500Y-140642999D03*
%TD*%
%TO.P,X3,*%
%TO.N,GND*%
%TA.AperFunction,ComponentPad*%
G36*
G01*
X145875000Y-48664999D02*
X145875000Y-51664999D01*
G75*
G02*
X144375000Y-53164999I-1500000J0D01*
G01*
X141375000Y-53164999D01*
G75*
G02*
X139875000Y-51664999I0J1500000D01*
G01*
X139875000Y-48664999D01*
G75*
G02*
X141375000Y-47164999I1500000J0D01*
G01*
X144375000Y-47164999D01*
G75*
G02*
X145875000Y-48664999I0J-1500000D01*
G01*
G37*
%TD.AperFunction*%
D11*
%TO.P,X3,2*%
%TO.N,Net-(X3-Pad2)*%
X135675000Y-50164999D03*
%TD*%
D12*
%TO.P,A6,13*%
%TO.N,N/C*%
X125092600Y-111454999D03*
%TO.P,A6,11*%
X129092600Y-111454999D03*
D13*
%TO.P,A6,1*%
%TO.N,GND*%
X142122600Y-96844999D03*
%TO.P,A6,4*%
%TO.N,/RF_CH2*%
X142122600Y-104464999D03*
D12*
%TO.P,A6,8*%
%TO.N,/RF_CH6*%
X135092600Y-111454999D03*
%TO.P,A6,7*%
%TO.N,/RF_CH5*%
X137092600Y-111454999D03*
%TO.P,A6,9*%
%TO.N,N/C*%
X133092600Y-111454999D03*
D13*
%TO.P,A6,5*%
%TO.N,/RF_CH3*%
X142122600Y-107004999D03*
%TO.P,A6,2*%
%TO.N,+5V*%
X142122600Y-99384999D03*
%TO.P,A6,3*%
%TO.N,/RF_CH1*%
X142122600Y-101924999D03*
%TO.P,A6,6*%
%TO.N,/RF_CH4*%
X142122600Y-109544999D03*
D12*
%TO.P,A6,14*%
%TO.N,N/C*%
X123092600Y-111454999D03*
%TO.P,A6,12*%
X127092600Y-111454999D03*
%TO.P,A6,10*%
X131092600Y-111454999D03*
%TD*%
D14*
%TO.P,A5,3*%
%TO.N,GND*%
X137414000Y-142112999D03*
%TO.P,A5,5*%
%TO.N,Net-(A5-Pad5)*%
X137414000Y-137032999D03*
%TO.P,A5,2*%
%TO.N,Net-(A5-Pad2)*%
X137414000Y-144652999D03*
D15*
%TO.P,A5, *%
%TO.N,N/C*%
X126111000Y-130047999D03*
D14*
%TO.P,A5,4*%
%TO.N,/Alt_SCK*%
X137414000Y-139572999D03*
%TO.P,A5,1*%
%TO.N,+5V*%
X137414000Y-147192999D03*
%TO.P,A5,6*%
%TO.N,/Alt_SDI*%
X137414000Y-134492999D03*
%TO.P,A5,8*%
%TO.N,Net-(A5-Pad8)*%
X137414000Y-129412999D03*
%TO.P,A5,7*%
%TO.N,Net-(A5-Pad7)*%
X137414000Y-131952999D03*
D15*
%TO.P,A5, *%
%TO.N,N/C*%
X126111000Y-146557999D03*
%TD*%
D16*
%TO.P,X2,2*%
%TO.N,GND*%
X81715000Y-119414999D03*
D17*
%TO.P,X2,1*%
%TO.N,/Door_RelayOut1*%
X86715000Y-119414999D03*
%TD*%
D16*
%TO.P,X1,2*%
%TO.N,GND*%
X81765000Y-128464999D03*
D17*
%TO.P,X1,1*%
%TO.N,/Door_RelayOut1*%
X86765000Y-128464999D03*
%TD*%
%TO.P,X4,1*%
%TO.N,Net-(X3-Pad2)*%
%TA.AperFunction,ComponentPad*%
G36*
G01*
X127307600Y-48995199D02*
X127307600Y-51995199D01*
G75*
G02*
X125807600Y-53495199I-1500000J0D01*
G01*
X122807600Y-53495199D01*
G75*
G02*
X121307600Y-51995199I0J1500000D01*
G01*
X121307600Y-48995199D01*
G75*
G02*
X122807600Y-47495199I1500000J0D01*
G01*
X125807600Y-47495199D01*
G75*
G02*
X127307600Y-48995199I0J-1500000D01*
G01*
G37*
%TD.AperFunction*%
D11*
%TO.P,X4,2*%
%TO.N,+12V*%
X117107600Y-50495199D03*
%TD*%
D18*
%TO.P,U2,ONOFF*%
%TO.N,N/C*%
X161772600Y-111048799D03*
%TO.P,U2,PGM*%
X159232600Y-111048799D03*
%TO.P,U2,G2*%
X156692600Y-111048799D03*
%TO.P,U2,3.3V_1*%
X154152600Y-111048799D03*
%TO.P,U2,VBAT*%
%TO.N,/3.3V_Coin*%
X151612600Y-111048799D03*
%TO.P,U2,VIN*%
%TO.N,N/C*%
X164312600Y-78028799D03*
%TO.P,U2,G3*%
X164312600Y-80568799D03*
%TO.P,U2,3.3V_2*%
X164312600Y-83108799D03*
%TO.P,U2,23*%
%TO.N,/S3_UAS*%
X164312600Y-85648799D03*
%TO.P,U2,22*%
%TO.N,/S2_Door*%
X164312600Y-88188799D03*
%TO.P,U2,21*%
%TO.N,/S1_Link*%
X164312600Y-90728799D03*
%TO.P,U2,20*%
%TO.N,Net-(U2-Pad20)*%
X164312600Y-93268799D03*
%TO.P,U2,19*%
%TO.N,/Alt_SCK*%
X164312600Y-95808799D03*
%TO.P,U2,18*%
%TO.N,/Alt_SDI*%
X164312600Y-98348799D03*
%TO.P,U2,17*%
%TO.N,Net-(U2-Pad17)*%
X164312600Y-100888799D03*
%TO.P,U2,16*%
%TO.N,Net-(U2-Pad16)*%
X164312600Y-103428799D03*
%TO.P,U2,15*%
%TO.N,Net-(U2-Pad15)*%
X164312600Y-105968799D03*
%TO.P,U2,14*%
%TO.N,/RF_CH6*%
X164312600Y-108508799D03*
%TO.P,U2,13*%
%TO.N,/RF_CH5*%
X164312600Y-111048799D03*
%TO.P,U2,G1*%
%TO.N,GND*%
X149072600Y-78028799D03*
%TO.P,U2,0*%
%TO.N,/UAS_DriverIN1*%
X149072600Y-80568799D03*
%TO.P,U2,1*%
%TO.N,/UAS_DriverIN2*%
X149072600Y-83108799D03*
%TO.P,U2,2*%
%TO.N,/Link_DriverIN1*%
X149072600Y-85648799D03*
%TO.P,U2,3*%
%TO.N,/Link_DriverIN2*%
X149072600Y-88188799D03*
%TO.P,U2,4*%
%TO.N,/LockA_DriverIN1*%
X149072600Y-90728799D03*
%TO.P,U2,5*%
%TO.N,/LockA_DriverIN2*%
X149072600Y-93268799D03*
%TO.P,U2,6*%
%TO.N,/LockB_DriverIN1*%
X149072600Y-95808799D03*
%TO.P,U2,7*%
%TO.N,/LockB_DriverIN2*%
X149072600Y-98348799D03*
%TO.P,U2,8*%
%TO.N,/RF_CH1*%
X149072600Y-100888799D03*
%TO.P,U2,9*%
%TO.N,/RF_CH2*%
X149072600Y-103428799D03*
%TO.P,U2,10*%
%TO.N,/RF_CH3*%
X149072600Y-105968799D03*
%TO.P,U2,11*%
%TO.N,/RF_CH4*%
X149072600Y-108508799D03*
%TO.P,U2,12*%
%TO.N,/Relay_Signal*%
X149072600Y-111048799D03*
%TD*%
D19*
%TO.P,VR1,5*%
%TO.N,+5V*%
X138366500Y-63944499D03*
%TO.P,VR1,4*%
%TO.N,GND*%
X138366500Y-66484499D03*
%TO.P,VR1,3*%
%TO.N,+12V*%
X138366500Y-69024499D03*
%TO.P,VR1,2*%
%TO.N,Net-(VR1-Pad2)*%
X138366500Y-71564499D03*
%TO.P,VR1,1*%
%TO.N,Net-(VR1-Pad1)*%
X138376500Y-74114499D03*
%TD*%
D20*
%TO.N,*%
X168275000Y-136524999D03*
X168275000Y-60324999D03*
X92075000Y-60324999D03*
X92075000Y-136524999D03*
D21*
%TO.N,GND*%
X175425000Y-97424999D03*
X178685000Y-85624999D03*
X175425000Y-85594999D03*
X178715000Y-73814999D03*
X175435000Y-73804999D03*
X178665000Y-121034999D03*
X175425000Y-121054999D03*
X178685000Y-109244999D03*
X175465000Y-109254999D03*
X178675000Y-97434999D03*
X101635000Y-66658999D03*
X101635000Y-65658999D03*
X102835000Y-64658999D03*
X102835000Y-66658999D03*
X102835000Y-65658999D03*
X101635000Y-64658999D03*
X101635000Y-79951665D03*
X101635000Y-78951665D03*
X102835000Y-77951665D03*
X102835000Y-79951665D03*
X102835000Y-78951665D03*
X101635000Y-77951665D03*
X101635000Y-93244331D03*
X101635000Y-92244331D03*
X102835000Y-91244331D03*
X102835000Y-93244331D03*
X102835000Y-92244331D03*
X101635000Y-91244331D03*
X101635000Y-106536999D03*
X102835000Y-105536999D03*
X102835000Y-104536999D03*
X102835000Y-106536999D03*
X101635000Y-105536999D03*
X101635000Y-104536999D03*
X155555000Y-123834999D03*
X158225000Y-123854999D03*
X158095000Y-121294999D03*
X107205000Y-62584999D03*
X96510000Y-63689999D03*
X97195000Y-74189999D03*
X97215000Y-72939999D03*
X97295000Y-99664999D03*
X98585000Y-92914999D03*
X96475000Y-90319999D03*
X96240000Y-103629999D03*
X107265000Y-76114999D03*
X98575000Y-79604999D03*
X96410000Y-77044999D03*
X155525000Y-121264999D03*
X156845000Y-122554999D03*
X152400000Y-55879999D03*
X160020000Y-55879999D03*
X163830000Y-57784999D03*
X163195000Y-66039999D03*
X148590000Y-69214999D03*
X98404680Y-106182159D03*
X107185000Y-89204999D03*
X98565000Y-66274999D03*
X97235000Y-59424999D03*
X97235000Y-60394999D03*
X107845000Y-145274999D03*
X97285000Y-100674999D03*
X97225000Y-86284999D03*
X97215000Y-87344999D03*
X106155000Y-67564999D03*
X106065000Y-80834999D03*
X106155000Y-94154999D03*
X107325000Y-102634999D03*
X106165000Y-107474999D03*
%TO.N,/UAS_DriverIN2*%
X112125000Y-66324999D03*
X119755000Y-63524999D03*
%TO.N,/UAS_DriverIN1*%
X112125000Y-65024999D03*
X119657340Y-61887339D03*
%TO.N,/Link_DriverIN1*%
X119625000Y-78184999D03*
X112175000Y-78184999D03*
%TO.N,/Link_DriverIN2*%
X112025000Y-79644999D03*
X119615000Y-79654999D03*
%TO.N,/LockA_DriverIN2*%
X112075000Y-92899999D03*
X119705000Y-90329999D03*
%TO.N,/LockA_DriverIN1*%
X112050000Y-91624999D03*
X119705000Y-88729999D03*
%TO.N,/LockB_DriverIN1*%
X112075000Y-104874999D03*
X119775000Y-102134999D03*
%TO.N,/LockB_DriverIN2*%
X112050000Y-106174999D03*
X119675000Y-103854999D03*
%TD*%
D22*
%TO.N,GND*%
X155525000Y-121264999D02*
X156825000Y-122564999D01*
X156835000Y-122564999D02*
X156845000Y-122554999D01*
X156825000Y-122564999D02*
X156835000Y-122564999D01*
X152400000Y-55879999D02*
X153035000Y-55244999D01*
X159385000Y-55244999D02*
X160020000Y-55879999D01*
X153035000Y-55244999D02*
X159385000Y-55244999D01*
X163830000Y-57784999D02*
X163195000Y-58419999D01*
X163195000Y-58419999D02*
X163195000Y-67309999D01*
X163195000Y-67309999D02*
X163830000Y-67944999D01*
D23*
X99065000Y-59174999D02*
X99505000Y-59614999D01*
X99505000Y-59644999D02*
X99055000Y-60094999D01*
X99505000Y-59614999D02*
X99505000Y-59644999D01*
D22*
%TO.N,/UAS_DriverIN2*%
X116955000Y-66324999D02*
X119755000Y-63524999D01*
X112125000Y-66324999D02*
X116955000Y-66324999D01*
%TO.N,/UAS_DriverIN1*%
X116519680Y-65024999D02*
X119657340Y-61887339D01*
X112125000Y-65024999D02*
X116519680Y-65024999D01*
%TO.N,/Link_DriverIN1*%
X112325000Y-78034999D02*
X112175000Y-78184999D01*
X119615000Y-78184999D02*
X119635000Y-78204999D01*
X112175000Y-78184999D02*
X119615000Y-78184999D01*
%TO.N,/Link_DriverIN2*%
X119315000Y-79644999D02*
X119615000Y-79944999D01*
X112025000Y-79644999D02*
X119315000Y-79644999D01*
%TO.N,/LockA_DriverIN2*%
X117135000Y-92899999D02*
X119705000Y-90329999D01*
X112075000Y-92899999D02*
X117135000Y-92899999D01*
%TO.N,/LockA_DriverIN1*%
X112050000Y-91624999D02*
X116810000Y-91624999D01*
X116810000Y-91624999D02*
X119705000Y-88729999D01*
%TO.N,/LockB_DriverIN1*%
X112075000Y-104874999D02*
X117035000Y-104874999D01*
X117035000Y-104874999D02*
X119775000Y-102134999D01*
%TO.N,/LockB_DriverIN2*%
X117355000Y-106174999D02*
X119675000Y-103854999D01*
X112050000Y-106174999D02*
X117355000Y-106174999D01*
D24*
%TO.N,+5V*%
X138366500Y-63944499D02*
X136585500Y-63944499D01*
X136585500Y-63944499D02*
X135785000Y-64744999D01*
X135785000Y-64744999D02*
X135785000Y-95854999D01*
X135785000Y-95854999D02*
X139315000Y-99384999D01*
X137414000Y-147192999D02*
X139405000Y-145201999D01*
X139405000Y-99474999D02*
X139315000Y-99384999D01*
X137414000Y-147192999D02*
X134173000Y-147192999D01*
X134173000Y-147192999D02*
X125935000Y-138954999D01*
X103030500Y-138954999D02*
X101342500Y-140642999D01*
X125935000Y-138954999D02*
X103030500Y-138954999D01*
X141765000Y-99384999D02*
X142122600Y-99384999D01*
X139405000Y-101744999D02*
X141765000Y-99384999D01*
X139405000Y-145201999D02*
X139405000Y-101744999D01*
X139405000Y-101744999D02*
X139405000Y-99474999D01*
%TD*%
D25*
%TO.N,GND*%
X133302623Y-36085595D02*
X136450979Y-36283673D01*
X139585406Y-36639688D01*
X142697987Y-37152740D01*
X145780858Y-37821533D01*
X148826233Y-38644379D01*
X151826417Y-39619198D01*
X154773834Y-40743528D01*
X157661036Y-42014529D01*
X160480731Y-43428990D01*
X163225796Y-44983338D01*
X165889297Y-46673647D01*
X168464505Y-48495647D01*
X170944915Y-50444735D01*
X173324262Y-52515988D01*
X175596535Y-54704173D01*
X177755994Y-57003764D01*
X179797185Y-59408950D01*
X181714950Y-61913657D01*
X183504446Y-64511557D01*
X185161151Y-67196088D01*
X186680882Y-69960469D01*
X188059799Y-72797715D01*
X189294419Y-75700661D01*
X190381623Y-78661973D01*
X191318665Y-81674170D01*
X192103177Y-84729644D01*
X192733178Y-87820676D01*
X193207077Y-90939458D01*
X193523676Y-94078111D01*
X193682176Y-97228708D01*
X193682176Y-100383288D01*
X193523676Y-103533885D01*
X193207077Y-106672538D01*
X192733178Y-109791320D01*
X192103177Y-112882352D01*
X191318665Y-115937826D01*
X190381623Y-118950023D01*
X189294419Y-121911335D01*
X188059799Y-124814281D01*
X186680882Y-127651527D01*
X185161151Y-130415908D01*
X183504446Y-133100439D01*
X181714950Y-135698339D01*
X179797185Y-138203046D01*
X177755994Y-140608232D01*
X175596535Y-142907823D01*
X173324262Y-145096008D01*
X170944915Y-147167261D01*
X168464505Y-149116349D01*
X165889297Y-150938349D01*
X163225796Y-152628658D01*
X160480731Y-154183006D01*
X157661036Y-155597467D01*
X154773834Y-156868468D01*
X151826417Y-157992798D01*
X148826233Y-158967617D01*
X145780858Y-159790463D01*
X142697987Y-160459256D01*
X139585406Y-160972308D01*
X136450979Y-161328323D01*
X133302623Y-161526401D01*
X130148292Y-161566041D01*
X126995952Y-161447145D01*
X123853568Y-161170011D01*
X120729077Y-160735340D01*
X117630373Y-160144231D01*
X114565282Y-159398176D01*
X111541548Y-158499059D01*
X108566808Y-157449153D01*
X105648577Y-156251109D01*
X102794227Y-154907954D01*
X100010968Y-153423080D01*
X97305831Y-151800239D01*
X94685649Y-150043530D01*
X92157041Y-148157391D01*
X89906188Y-146295322D01*
X123444000Y-146295322D01*
X123444000Y-146820676D01*
X123546492Y-147335934D01*
X123747536Y-147821297D01*
X124039406Y-148258112D01*
X124410887Y-148629593D01*
X124847702Y-148921463D01*
X125333065Y-149122507D01*
X125848323Y-149224999D01*
X126373677Y-149224999D01*
X126888935Y-149122507D01*
X127374298Y-148921463D01*
X127811113Y-148629593D01*
X128182594Y-148258112D01*
X128474464Y-147821297D01*
X128675508Y-147335934D01*
X128778000Y-146820676D01*
X128778000Y-146295322D01*
X128675508Y-145780064D01*
X128474464Y-145294701D01*
X128182594Y-144857886D01*
X127811113Y-144486405D01*
X127374298Y-144194535D01*
X126888935Y-143993491D01*
X126373677Y-143890999D01*
X125848323Y-143890999D01*
X125333065Y-143993491D01*
X124847702Y-144194535D01*
X124410887Y-144486405D01*
X124039406Y-144857886D01*
X123747536Y-145294701D01*
X123546492Y-145780064D01*
X123444000Y-146295322D01*
X89906188Y-146295322D01*
X89726395Y-146146585D01*
X87399850Y-144016193D01*
X85183284Y-141771596D01*
X84175619Y-140642999D01*
X99950800Y-140642999D01*
X99977540Y-140914506D01*
X100056736Y-141175579D01*
X100185344Y-141416187D01*
X100358419Y-141627080D01*
X100569312Y-141800155D01*
X100809920Y-141928763D01*
X101070993Y-142007959D01*
X101342500Y-142034699D01*
X101614007Y-142007959D01*
X101875080Y-141928763D01*
X102115688Y-141800155D01*
X102273733Y-141670451D01*
X103604185Y-140339999D01*
X107847730Y-140339999D01*
X107847274Y-140341101D01*
X107807500Y-140541060D01*
X107807500Y-140744938D01*
X107847274Y-140944897D01*
X107925295Y-141133255D01*
X108038563Y-141302773D01*
X108182726Y-141446936D01*
X108352244Y-141560204D01*
X108540602Y-141638225D01*
X108740561Y-141677999D01*
X108944439Y-141677999D01*
X109144398Y-141638225D01*
X109332756Y-141560204D01*
X109502274Y-141446936D01*
X109646437Y-141302773D01*
X109759705Y-141133255D01*
X109837726Y-140944897D01*
X109877500Y-140744938D01*
X109877500Y-140541060D01*
X109837726Y-140341101D01*
X109837270Y-140339999D01*
X125361315Y-140339999D01*
X133145550Y-148124235D01*
X133188919Y-148177080D01*
X133241764Y-148220449D01*
X133241766Y-148220451D01*
X133287656Y-148258112D01*
X133399812Y-148350156D01*
X133640419Y-148478763D01*
X133901493Y-148557959D01*
X134104963Y-148577999D01*
X134104972Y-148577999D01*
X134172999Y-148584699D01*
X134241026Y-148577999D01*
X137345971Y-148577999D01*
X137414000Y-148584699D01*
X137482029Y-148577999D01*
X137482037Y-148577999D01*
X137685507Y-148557959D01*
X137946581Y-148478763D01*
X138187188Y-148350156D01*
X138398081Y-148177080D01*
X138441454Y-148124230D01*
X140336241Y-146229444D01*
X140389080Y-146186080D01*
X140432445Y-146133240D01*
X140432452Y-146133233D01*
X140562156Y-145975188D01*
X140562157Y-145975187D01*
X140690764Y-145734580D01*
X140769960Y-145473506D01*
X140790000Y-145270036D01*
X140790000Y-145270027D01*
X140796700Y-145202000D01*
X140790000Y-145133973D01*
X140790000Y-136166983D01*
X164640000Y-136166983D01*
X164640000Y-136883015D01*
X164779691Y-137585289D01*
X165053705Y-138246817D01*
X165451511Y-138842176D01*
X165957823Y-139348488D01*
X166553182Y-139746294D01*
X167214710Y-140020308D01*
X167916984Y-140159999D01*
X168633016Y-140159999D01*
X169335290Y-140020308D01*
X169996818Y-139746294D01*
X170592177Y-139348488D01*
X171098489Y-138842176D01*
X171496295Y-138246817D01*
X171770309Y-137585289D01*
X171910000Y-136883015D01*
X171910000Y-136166983D01*
X171770309Y-135464709D01*
X171496295Y-134803181D01*
X171098489Y-134207822D01*
X170592177Y-133701510D01*
X169996818Y-133303704D01*
X169335290Y-133029690D01*
X168633016Y-132889999D01*
X167916984Y-132889999D01*
X167214710Y-133029690D01*
X166553182Y-133303704D01*
X165957823Y-133701510D01*
X165451511Y-134207822D01*
X165053705Y-134803181D01*
X164779691Y-135464709D01*
X164640000Y-136166983D01*
X140790000Y-136166983D01*
X140790000Y-110403547D01*
X140891450Y-110555378D01*
X141112221Y-110776149D01*
X141371821Y-110949608D01*
X141660273Y-111069088D01*
X141966491Y-111129999D01*
X142278709Y-111129999D01*
X142584927Y-111069088D01*
X142873379Y-110949608D01*
X143132979Y-110776149D01*
X143353750Y-110555378D01*
X143527209Y-110295778D01*
X143646689Y-110007326D01*
X143707600Y-109701108D01*
X143707600Y-109388890D01*
X143646689Y-109082672D01*
X143527209Y-108794220D01*
X143353750Y-108534620D01*
X143132979Y-108313849D01*
X143074836Y-108274999D01*
X143132979Y-108236149D01*
X143353750Y-108015378D01*
X143527209Y-107755778D01*
X143646689Y-107467326D01*
X143707600Y-107161108D01*
X143707600Y-106848890D01*
X143646689Y-106542672D01*
X143527209Y-106254220D01*
X143353750Y-105994620D01*
X143132979Y-105773849D01*
X143074836Y-105734999D01*
X143132979Y-105696149D01*
X143353750Y-105475378D01*
X143527209Y-105215778D01*
X143646689Y-104927326D01*
X143707600Y-104621108D01*
X143707600Y-104308890D01*
X143646689Y-104002672D01*
X143527209Y-103714220D01*
X143353750Y-103454620D01*
X143132979Y-103233849D01*
X143074836Y-103194999D01*
X143132979Y-103156149D01*
X143353750Y-102935378D01*
X143527209Y-102675778D01*
X143646689Y-102387326D01*
X143707600Y-102081108D01*
X143707600Y-101768890D01*
X143646689Y-101462672D01*
X143527209Y-101174220D01*
X143353750Y-100914620D01*
X143132979Y-100693849D01*
X143074836Y-100654999D01*
X143132979Y-100616149D01*
X143353750Y-100395378D01*
X143527209Y-100135778D01*
X143646689Y-99847326D01*
X143707600Y-99541108D01*
X143707600Y-99228890D01*
X143646689Y-98922672D01*
X143527209Y-98634220D01*
X143353750Y-98374620D01*
X143132979Y-98153849D01*
X143000924Y-98065612D01*
X143042747Y-97944751D01*
X142122600Y-97024604D01*
X141202453Y-97944751D01*
X141244276Y-98065612D01*
X141112221Y-98153849D01*
X141091526Y-98174544D01*
X140991812Y-98227842D01*
X140991810Y-98227843D01*
X140991811Y-98227843D01*
X140833766Y-98357547D01*
X140833764Y-98357549D01*
X140780919Y-98400918D01*
X140737550Y-98453763D01*
X140529407Y-98661906D01*
X140389081Y-98490918D01*
X140336236Y-98447549D01*
X138798259Y-96909572D01*
X140531241Y-96909572D01*
X140574416Y-97218790D01*
X140677087Y-97513643D01*
X140763558Y-97675420D01*
X141022848Y-97765146D01*
X141942995Y-96844999D01*
X142302205Y-96844999D01*
X143222352Y-97765146D01*
X143481642Y-97675420D01*
X143617535Y-97394328D01*
X143695979Y-97092126D01*
X143713959Y-96780426D01*
X143670784Y-96471208D01*
X143568113Y-96176355D01*
X143481642Y-96014578D01*
X143222352Y-95924852D01*
X142302205Y-96844999D01*
X141942995Y-96844999D01*
X141022848Y-95924852D01*
X140763558Y-96014578D01*
X140627665Y-96295670D01*
X140549221Y-96597872D01*
X140531241Y-96909572D01*
X138798259Y-96909572D01*
X137633934Y-95745247D01*
X141202453Y-95745247D01*
X142122600Y-96665394D01*
X143042747Y-95745247D01*
X142953021Y-95485957D01*
X142671929Y-95350064D01*
X142369727Y-95271620D01*
X142058027Y-95253640D01*
X141748809Y-95296815D01*
X141453956Y-95399486D01*
X141292179Y-95485957D01*
X141202453Y-95745247D01*
X137633934Y-95745247D01*
X137170000Y-95281314D01*
X137170000Y-80430911D01*
X147672600Y-80430911D01*
X147672600Y-80706687D01*
X147726401Y-80977164D01*
X147831936Y-81231948D01*
X147985149Y-81461247D01*
X148180152Y-81656250D01*
X148409451Y-81809463D01*
X148480274Y-81838799D01*
X148409451Y-81868135D01*
X148180152Y-82021348D01*
X147985149Y-82216351D01*
X147831936Y-82445650D01*
X147726401Y-82700434D01*
X147672600Y-82970911D01*
X147672600Y-83246687D01*
X147726401Y-83517164D01*
X147831936Y-83771948D01*
X147985149Y-84001247D01*
X148180152Y-84196250D01*
X148409451Y-84349463D01*
X148480274Y-84378799D01*
X148409451Y-84408135D01*
X148180152Y-84561348D01*
X147985149Y-84756351D01*
X147831936Y-84985650D01*
X147726401Y-85240434D01*
X147672600Y-85510911D01*
X147672600Y-85786687D01*
X147726401Y-86057164D01*
X147831936Y-86311948D01*
X147985149Y-86541247D01*
X148180152Y-86736250D01*
X148409451Y-86889463D01*
X148480274Y-86918799D01*
X148409451Y-86948135D01*
X148180152Y-87101348D01*
X147985149Y-87296351D01*
X147831936Y-87525650D01*
X147726401Y-87780434D01*
X147672600Y-88050911D01*
X147672600Y-88326687D01*
X147726401Y-88597164D01*
X147831936Y-88851948D01*
X147985149Y-89081247D01*
X148180152Y-89276250D01*
X148409451Y-89429463D01*
X148480274Y-89458799D01*
X148409451Y-89488135D01*
X148180152Y-89641348D01*
X147985149Y-89836351D01*
X147831936Y-90065650D01*
X147726401Y-90320434D01*
X147672600Y-90590911D01*
X147672600Y-90866687D01*
X147726401Y-91137164D01*
X147831936Y-91391948D01*
X147985149Y-91621247D01*
X148180152Y-91816250D01*
X148409451Y-91969463D01*
X148480274Y-91998799D01*
X148409451Y-92028135D01*
X148180152Y-92181348D01*
X147985149Y-92376351D01*
X147831936Y-92605650D01*
X147726401Y-92860434D01*
X147672600Y-93130911D01*
X147672600Y-93406687D01*
X147726401Y-93677164D01*
X147831936Y-93931948D01*
X147985149Y-94161247D01*
X148180152Y-94356250D01*
X148409451Y-94509463D01*
X148480274Y-94538799D01*
X148409451Y-94568135D01*
X148180152Y-94721348D01*
X147985149Y-94916351D01*
X147831936Y-95145650D01*
X147726401Y-95400434D01*
X147672600Y-95670911D01*
X147672600Y-95946687D01*
X147726401Y-96217164D01*
X147831936Y-96471948D01*
X147985149Y-96701247D01*
X148180152Y-96896250D01*
X148409451Y-97049463D01*
X148480274Y-97078799D01*
X148409451Y-97108135D01*
X148180152Y-97261348D01*
X147985149Y-97456351D01*
X147831936Y-97685650D01*
X147726401Y-97940434D01*
X147672600Y-98210911D01*
X147672600Y-98486687D01*
X147726401Y-98757164D01*
X147831936Y-99011948D01*
X147985149Y-99241247D01*
X148180152Y-99436250D01*
X148409451Y-99589463D01*
X148480274Y-99618799D01*
X148409451Y-99648135D01*
X148180152Y-99801348D01*
X147985149Y-99996351D01*
X147831936Y-100225650D01*
X147726401Y-100480434D01*
X147672600Y-100750911D01*
X147672600Y-101026687D01*
X147726401Y-101297164D01*
X147831936Y-101551948D01*
X147985149Y-101781247D01*
X148180152Y-101976250D01*
X148409451Y-102129463D01*
X148480274Y-102158799D01*
X148409451Y-102188135D01*
X148180152Y-102341348D01*
X147985149Y-102536351D01*
X147831936Y-102765650D01*
X147726401Y-103020434D01*
X147672600Y-103290911D01*
X147672600Y-103566687D01*
X147726401Y-103837164D01*
X147831936Y-104091948D01*
X147985149Y-104321247D01*
X148180152Y-104516250D01*
X148409451Y-104669463D01*
X148480274Y-104698799D01*
X148409451Y-104728135D01*
X148180152Y-104881348D01*
X147985149Y-105076351D01*
X147831936Y-105305650D01*
X147726401Y-105560434D01*
X147672600Y-105830911D01*
X147672600Y-106106687D01*
X147726401Y-106377164D01*
X147831936Y-106631948D01*
X147985149Y-106861247D01*
X148180152Y-107056250D01*
X148409451Y-107209463D01*
X148480274Y-107238799D01*
X148409451Y-107268135D01*
X148180152Y-107421348D01*
X147985149Y-107616351D01*
X147831936Y-107845650D01*
X147726401Y-108100434D01*
X147672600Y-108370911D01*
X147672600Y-108646687D01*
X147726401Y-108917164D01*
X147831936Y-109171948D01*
X147985149Y-109401247D01*
X148180152Y-109596250D01*
X148409451Y-109749463D01*
X148480274Y-109778799D01*
X148409451Y-109808135D01*
X148180152Y-109961348D01*
X147985149Y-110156351D01*
X147831936Y-110385650D01*
X147726401Y-110640434D01*
X147672600Y-110910911D01*
X147672600Y-111186687D01*
X147726401Y-111457164D01*
X147831936Y-111711948D01*
X147985149Y-111941247D01*
X148180152Y-112136250D01*
X148409451Y-112289463D01*
X148664235Y-112394998D01*
X148934712Y-112448799D01*
X149210488Y-112448799D01*
X149480965Y-112394998D01*
X149735749Y-112289463D01*
X149965048Y-112136250D01*
X150160051Y-111941247D01*
X150313264Y-111711948D01*
X150342600Y-111641125D01*
X150371936Y-111711948D01*
X150525149Y-111941247D01*
X150720152Y-112136250D01*
X150949451Y-112289463D01*
X151204235Y-112394998D01*
X151474712Y-112448799D01*
X151750488Y-112448799D01*
X152020965Y-112394998D01*
X152275749Y-112289463D01*
X152505048Y-112136250D01*
X152700051Y-111941247D01*
X152853264Y-111711948D01*
X152882600Y-111641125D01*
X152911936Y-111711948D01*
X153065149Y-111941247D01*
X153260152Y-112136250D01*
X153489451Y-112289463D01*
X153744235Y-112394998D01*
X154014712Y-112448799D01*
X154290488Y-112448799D01*
X154560965Y-112394998D01*
X154815749Y-112289463D01*
X155045048Y-112136250D01*
X155240051Y-111941247D01*
X155393264Y-111711948D01*
X155422600Y-111641125D01*
X155451936Y-111711948D01*
X155605149Y-111941247D01*
X155800152Y-112136250D01*
X156029451Y-112289463D01*
X156284235Y-112394998D01*
X156554712Y-112448799D01*
X156830488Y-112448799D01*
X157100965Y-112394998D01*
X157355749Y-112289463D01*
X157585048Y-112136250D01*
X157780051Y-111941247D01*
X157933264Y-111711948D01*
X157962600Y-111641125D01*
X157991936Y-111711948D01*
X158145149Y-111941247D01*
X158340152Y-112136250D01*
X158569451Y-112289463D01*
X158824235Y-112394998D01*
X159094712Y-112448799D01*
X159370488Y-112448799D01*
X159640965Y-112394998D01*
X159895749Y-112289463D01*
X160125048Y-112136250D01*
X160320051Y-111941247D01*
X160473264Y-111711948D01*
X160502600Y-111641125D01*
X160531936Y-111711948D01*
X160685149Y-111941247D01*
X160880152Y-112136250D01*
X161109451Y-112289463D01*
X161364235Y-112394998D01*
X161634712Y-112448799D01*
X161910488Y-112448799D01*
X162180965Y-112394998D01*
X162435749Y-112289463D01*
X162665048Y-112136250D01*
X162860051Y-111941247D01*
X163013264Y-111711948D01*
X163042600Y-111641125D01*
X163071936Y-111711948D01*
X163225149Y-111941247D01*
X163420152Y-112136250D01*
X163649451Y-112289463D01*
X163904235Y-112394998D01*
X164174712Y-112448799D01*
X164450488Y-112448799D01*
X164720965Y-112394998D01*
X164975749Y-112289463D01*
X165205048Y-112136250D01*
X165400051Y-111941247D01*
X165553264Y-111711948D01*
X165658799Y-111457164D01*
X165712600Y-111186687D01*
X165712600Y-110910911D01*
X165658799Y-110640434D01*
X165553264Y-110385650D01*
X165400051Y-110156351D01*
X165205048Y-109961348D01*
X164975749Y-109808135D01*
X164904926Y-109778799D01*
X164975749Y-109749463D01*
X165205048Y-109596250D01*
X165400051Y-109401247D01*
X165553264Y-109171948D01*
X165658799Y-108917164D01*
X165712600Y-108646687D01*
X165712600Y-108370911D01*
X165658799Y-108100434D01*
X165553264Y-107845650D01*
X165400051Y-107616351D01*
X165205048Y-107421348D01*
X164975749Y-107268135D01*
X164904926Y-107238799D01*
X164975749Y-107209463D01*
X165205048Y-107056250D01*
X165400051Y-106861247D01*
X165553264Y-106631948D01*
X165658799Y-106377164D01*
X165712600Y-106106687D01*
X165712600Y-105830911D01*
X165658799Y-105560434D01*
X165553264Y-105305650D01*
X165400051Y-105076351D01*
X165205048Y-104881348D01*
X164975749Y-104728135D01*
X164904926Y-104698799D01*
X164975749Y-104669463D01*
X165205048Y-104516250D01*
X165400051Y-104321247D01*
X165553264Y-104091948D01*
X165658799Y-103837164D01*
X165712600Y-103566687D01*
X165712600Y-103290911D01*
X165658799Y-103020434D01*
X165553264Y-102765650D01*
X165400051Y-102536351D01*
X165205048Y-102341348D01*
X164975749Y-102188135D01*
X164904926Y-102158799D01*
X164975749Y-102129463D01*
X165205048Y-101976250D01*
X165400051Y-101781247D01*
X165553264Y-101551948D01*
X165658799Y-101297164D01*
X165712600Y-101026687D01*
X165712600Y-100750911D01*
X165658799Y-100480434D01*
X165553264Y-100225650D01*
X165400051Y-99996351D01*
X165205048Y-99801348D01*
X164975749Y-99648135D01*
X164904926Y-99618799D01*
X164975749Y-99589463D01*
X165205048Y-99436250D01*
X165400051Y-99241247D01*
X165553264Y-99011948D01*
X165658799Y-98757164D01*
X165712600Y-98486687D01*
X165712600Y-98210911D01*
X165658799Y-97940434D01*
X165553264Y-97685650D01*
X165400051Y-97456351D01*
X165205048Y-97261348D01*
X164975749Y-97108135D01*
X164904926Y-97078799D01*
X164975749Y-97049463D01*
X165205048Y-96896250D01*
X165400051Y-96701247D01*
X165553264Y-96471948D01*
X165658799Y-96217164D01*
X165712600Y-95946687D01*
X165712600Y-95670911D01*
X165658799Y-95400434D01*
X165553264Y-95145650D01*
X165400051Y-94916351D01*
X165205048Y-94721348D01*
X164975749Y-94568135D01*
X164904926Y-94538799D01*
X164975749Y-94509463D01*
X165205048Y-94356250D01*
X165400051Y-94161247D01*
X165553264Y-93931948D01*
X165658799Y-93677164D01*
X165712600Y-93406687D01*
X165712600Y-93130911D01*
X165658799Y-92860434D01*
X165553264Y-92605650D01*
X165400051Y-92376351D01*
X165205048Y-92181348D01*
X164975749Y-92028135D01*
X164904926Y-91998799D01*
X164975749Y-91969463D01*
X165205048Y-91816250D01*
X165400051Y-91621247D01*
X165553264Y-91391948D01*
X165658799Y-91137164D01*
X165712600Y-90866687D01*
X165712600Y-90590911D01*
X165658799Y-90320434D01*
X165553264Y-90065650D01*
X165400051Y-89836351D01*
X165205048Y-89641348D01*
X164975749Y-89488135D01*
X164904926Y-89458799D01*
X164975749Y-89429463D01*
X165205048Y-89276250D01*
X165400051Y-89081247D01*
X165553264Y-88851948D01*
X165658799Y-88597164D01*
X165712600Y-88326687D01*
X165712600Y-88050911D01*
X165658799Y-87780434D01*
X165553264Y-87525650D01*
X165400051Y-87296351D01*
X165205048Y-87101348D01*
X164975749Y-86948135D01*
X164904926Y-86918799D01*
X164975749Y-86889463D01*
X165205048Y-86736250D01*
X165400051Y-86541247D01*
X165553264Y-86311948D01*
X165658799Y-86057164D01*
X165712600Y-85786687D01*
X165712600Y-85510911D01*
X165658799Y-85240434D01*
X165553264Y-84985650D01*
X165400051Y-84756351D01*
X165205048Y-84561348D01*
X164975749Y-84408135D01*
X164904926Y-84378799D01*
X164975749Y-84349463D01*
X165205048Y-84196250D01*
X165400051Y-84001247D01*
X165553264Y-83771948D01*
X165658799Y-83517164D01*
X165712600Y-83246687D01*
X165712600Y-82970911D01*
X165658799Y-82700434D01*
X165553264Y-82445650D01*
X165400051Y-82216351D01*
X165205048Y-82021348D01*
X164975749Y-81868135D01*
X164904926Y-81838799D01*
X164975749Y-81809463D01*
X165205048Y-81656250D01*
X165400051Y-81461247D01*
X165553264Y-81231948D01*
X165658799Y-80977164D01*
X165712600Y-80706687D01*
X165712600Y-80430911D01*
X165658799Y-80160434D01*
X165553264Y-79905650D01*
X165400051Y-79676351D01*
X165205048Y-79481348D01*
X164975749Y-79328135D01*
X164904926Y-79298799D01*
X164975749Y-79269463D01*
X165205048Y-79116250D01*
X165400051Y-78921247D01*
X165553264Y-78691948D01*
X165658799Y-78437164D01*
X165712600Y-78166687D01*
X165712600Y-77890911D01*
X165658799Y-77620434D01*
X165553264Y-77365650D01*
X165400051Y-77136351D01*
X165205048Y-76941348D01*
X164975749Y-76788135D01*
X164720965Y-76682600D01*
X164450488Y-76628799D01*
X164174712Y-76628799D01*
X163904235Y-76682600D01*
X163649451Y-76788135D01*
X163420152Y-76941348D01*
X163225149Y-77136351D01*
X163071936Y-77365650D01*
X162966401Y-77620434D01*
X162912600Y-77890911D01*
X162912600Y-78166687D01*
X162966401Y-78437164D01*
X163071936Y-78691948D01*
X163225149Y-78921247D01*
X163420152Y-79116250D01*
X163649451Y-79269463D01*
X163720274Y-79298799D01*
X163649451Y-79328135D01*
X163420152Y-79481348D01*
X163225149Y-79676351D01*
X163071936Y-79905650D01*
X162966401Y-80160434D01*
X162912600Y-80430911D01*
X162912600Y-80706687D01*
X162966401Y-80977164D01*
X163071936Y-81231948D01*
X163225149Y-81461247D01*
X163420152Y-81656250D01*
X163649451Y-81809463D01*
X163720274Y-81838799D01*
X163649451Y-81868135D01*
X163420152Y-82021348D01*
X163225149Y-82216351D01*
X163071936Y-82445650D01*
X162966401Y-82700434D01*
X162912600Y-82970911D01*
X162912600Y-83246687D01*
X162966401Y-83517164D01*
X163071936Y-83771948D01*
X163225149Y-84001247D01*
X163420152Y-84196250D01*
X163649451Y-84349463D01*
X163720274Y-84378799D01*
X163649451Y-84408135D01*
X163420152Y-84561348D01*
X163225149Y-84756351D01*
X163071936Y-84985650D01*
X162966401Y-85240434D01*
X162912600Y-85510911D01*
X162912600Y-85786687D01*
X162966401Y-86057164D01*
X163071936Y-86311948D01*
X163225149Y-86541247D01*
X163420152Y-86736250D01*
X163649451Y-86889463D01*
X163720274Y-86918799D01*
X163649451Y-86948135D01*
X163420152Y-87101348D01*
X163225149Y-87296351D01*
X163071936Y-87525650D01*
X162966401Y-87780434D01*
X162912600Y-88050911D01*
X162912600Y-88326687D01*
X162966401Y-88597164D01*
X163071936Y-88851948D01*
X163225149Y-89081247D01*
X163420152Y-89276250D01*
X163649451Y-89429463D01*
X163720274Y-89458799D01*
X163649451Y-89488135D01*
X163420152Y-89641348D01*
X163225149Y-89836351D01*
X163071936Y-90065650D01*
X162966401Y-90320434D01*
X162912600Y-90590911D01*
X162912600Y-90866687D01*
X162966401Y-91137164D01*
X163071936Y-91391948D01*
X163225149Y-91621247D01*
X163420152Y-91816250D01*
X163649451Y-91969463D01*
X163720274Y-91998799D01*
X163649451Y-92028135D01*
X163420152Y-92181348D01*
X163225149Y-92376351D01*
X163071936Y-92605650D01*
X162966401Y-92860434D01*
X162912600Y-93130911D01*
X162912600Y-93406687D01*
X162966401Y-93677164D01*
X163071936Y-93931948D01*
X163225149Y-94161247D01*
X163420152Y-94356250D01*
X163649451Y-94509463D01*
X163720274Y-94538799D01*
X163649451Y-94568135D01*
X163420152Y-94721348D01*
X163225149Y-94916351D01*
X163071936Y-95145650D01*
X162966401Y-95400434D01*
X162912600Y-95670911D01*
X162912600Y-95946687D01*
X162966401Y-96217164D01*
X163071936Y-96471948D01*
X163225149Y-96701247D01*
X163420152Y-96896250D01*
X163649451Y-97049463D01*
X163720274Y-97078799D01*
X163649451Y-97108135D01*
X163420152Y-97261348D01*
X163225149Y-97456351D01*
X163071936Y-97685650D01*
X162966401Y-97940434D01*
X162912600Y-98210911D01*
X162912600Y-98486687D01*
X162966401Y-98757164D01*
X163071936Y-99011948D01*
X163225149Y-99241247D01*
X163420152Y-99436250D01*
X163649451Y-99589463D01*
X163720274Y-99618799D01*
X163649451Y-99648135D01*
X163420152Y-99801348D01*
X163225149Y-99996351D01*
X163071936Y-100225650D01*
X162966401Y-100480434D01*
X162912600Y-100750911D01*
X162912600Y-101026687D01*
X162966401Y-101297164D01*
X163071936Y-101551948D01*
X163225149Y-101781247D01*
X163420152Y-101976250D01*
X163649451Y-102129463D01*
X163720274Y-102158799D01*
X163649451Y-102188135D01*
X163420152Y-102341348D01*
X163225149Y-102536351D01*
X163071936Y-102765650D01*
X162966401Y-103020434D01*
X162912600Y-103290911D01*
X162912600Y-103566687D01*
X162966401Y-103837164D01*
X163071936Y-104091948D01*
X163225149Y-104321247D01*
X163420152Y-104516250D01*
X163649451Y-104669463D01*
X163720274Y-104698799D01*
X163649451Y-104728135D01*
X163420152Y-104881348D01*
X163225149Y-105076351D01*
X163071936Y-105305650D01*
X162966401Y-105560434D01*
X162912600Y-105830911D01*
X162912600Y-106106687D01*
X162966401Y-106377164D01*
X163071936Y-106631948D01*
X163225149Y-106861247D01*
X163420152Y-107056250D01*
X163649451Y-107209463D01*
X163720274Y-107238799D01*
X163649451Y-107268135D01*
X163420152Y-107421348D01*
X163225149Y-107616351D01*
X163071936Y-107845650D01*
X162966401Y-108100434D01*
X162912600Y-108370911D01*
X162912600Y-108646687D01*
X162966401Y-108917164D01*
X163071936Y-109171948D01*
X163225149Y-109401247D01*
X163420152Y-109596250D01*
X163649451Y-109749463D01*
X163720274Y-109778799D01*
X163649451Y-109808135D01*
X163420152Y-109961348D01*
X163225149Y-110156351D01*
X163071936Y-110385650D01*
X163042600Y-110456473D01*
X163013264Y-110385650D01*
X162860051Y-110156351D01*
X162665048Y-109961348D01*
X162435749Y-109808135D01*
X162180965Y-109702600D01*
X161910488Y-109648799D01*
X161634712Y-109648799D01*
X161364235Y-109702600D01*
X161109451Y-109808135D01*
X160880152Y-109961348D01*
X160685149Y-110156351D01*
X160531936Y-110385650D01*
X160502600Y-110456473D01*
X160473264Y-110385650D01*
X160320051Y-110156351D01*
X160125048Y-109961348D01*
X159895749Y-109808135D01*
X159640965Y-109702600D01*
X159370488Y-109648799D01*
X159094712Y-109648799D01*
X158824235Y-109702600D01*
X158569451Y-109808135D01*
X158340152Y-109961348D01*
X158145149Y-110156351D01*
X157991936Y-110385650D01*
X157962600Y-110456473D01*
X157933264Y-110385650D01*
X157780051Y-110156351D01*
X157585048Y-109961348D01*
X157355749Y-109808135D01*
X157100965Y-109702600D01*
X156830488Y-109648799D01*
X156554712Y-109648799D01*
X156284235Y-109702600D01*
X156029451Y-109808135D01*
X155800152Y-109961348D01*
X155605149Y-110156351D01*
X155451936Y-110385650D01*
X155422600Y-110456473D01*
X155393264Y-110385650D01*
X155240051Y-110156351D01*
X155045048Y-109961348D01*
X154815749Y-109808135D01*
X154560965Y-109702600D01*
X154290488Y-109648799D01*
X154014712Y-109648799D01*
X153744235Y-109702600D01*
X153489451Y-109808135D01*
X153260152Y-109961348D01*
X153065149Y-110156351D01*
X152911936Y-110385650D01*
X152882600Y-110456473D01*
X152853264Y-110385650D01*
X152700051Y-110156351D01*
X152505048Y-109961348D01*
X152275749Y-109808135D01*
X152020965Y-109702600D01*
X151750488Y-109648799D01*
X151474712Y-109648799D01*
X151204235Y-109702600D01*
X150949451Y-109808135D01*
X150720152Y-109961348D01*
X150525149Y-110156351D01*
X150371936Y-110385650D01*
X150342600Y-110456473D01*
X150313264Y-110385650D01*
X150160051Y-110156351D01*
X149965048Y-109961348D01*
X149735749Y-109808135D01*
X149664926Y-109778799D01*
X149735749Y-109749463D01*
X149965048Y-109596250D01*
X150160051Y-109401247D01*
X150313264Y-109171948D01*
X150418799Y-108917164D01*
X150472600Y-108646687D01*
X150472600Y-108370911D01*
X150418799Y-108100434D01*
X150313264Y-107845650D01*
X150160051Y-107616351D01*
X149965048Y-107421348D01*
X149735749Y-107268135D01*
X149664926Y-107238799D01*
X149735749Y-107209463D01*
X149965048Y-107056250D01*
X150160051Y-106861247D01*
X150313264Y-106631948D01*
X150418799Y-106377164D01*
X150472600Y-106106687D01*
X150472600Y-105830911D01*
X150418799Y-105560434D01*
X150313264Y-105305650D01*
X150160051Y-105076351D01*
X149965048Y-104881348D01*
X149735749Y-104728135D01*
X149664926Y-104698799D01*
X149735749Y-104669463D01*
X149965048Y-104516250D01*
X150160051Y-104321247D01*
X150313264Y-104091948D01*
X150418799Y-103837164D01*
X150472600Y-103566687D01*
X150472600Y-103290911D01*
X150418799Y-103020434D01*
X150313264Y-102765650D01*
X150160051Y-102536351D01*
X149965048Y-102341348D01*
X149735749Y-102188135D01*
X149664926Y-102158799D01*
X149735749Y-102129463D01*
X149965048Y-101976250D01*
X150160051Y-101781247D01*
X150313264Y-101551948D01*
X150418799Y-101297164D01*
X150472600Y-101026687D01*
X150472600Y-100750911D01*
X150418799Y-100480434D01*
X150313264Y-100225650D01*
X150160051Y-99996351D01*
X149965048Y-99801348D01*
X149735749Y-99648135D01*
X149664926Y-99618799D01*
X149735749Y-99589463D01*
X149965048Y-99436250D01*
X150160051Y-99241247D01*
X150313264Y-99011948D01*
X150418799Y-98757164D01*
X150472600Y-98486687D01*
X150472600Y-98210911D01*
X150418799Y-97940434D01*
X150313264Y-97685650D01*
X150160051Y-97456351D01*
X149965048Y-97261348D01*
X149735749Y-97108135D01*
X149664926Y-97078799D01*
X149735749Y-97049463D01*
X149965048Y-96896250D01*
X150160051Y-96701247D01*
X150313264Y-96471948D01*
X150418799Y-96217164D01*
X150472600Y-95946687D01*
X150472600Y-95670911D01*
X150418799Y-95400434D01*
X150313264Y-95145650D01*
X150160051Y-94916351D01*
X149965048Y-94721348D01*
X149735749Y-94568135D01*
X149664926Y-94538799D01*
X149735749Y-94509463D01*
X149965048Y-94356250D01*
X150160051Y-94161247D01*
X150313264Y-93931948D01*
X150418799Y-93677164D01*
X150472600Y-93406687D01*
X150472600Y-93130911D01*
X150418799Y-92860434D01*
X150313264Y-92605650D01*
X150160051Y-92376351D01*
X149965048Y-92181348D01*
X149735749Y-92028135D01*
X149664926Y-91998799D01*
X149735749Y-91969463D01*
X149965048Y-91816250D01*
X150160051Y-91621247D01*
X150313264Y-91391948D01*
X150418799Y-91137164D01*
X150472600Y-90866687D01*
X150472600Y-90590911D01*
X150418799Y-90320434D01*
X150313264Y-90065650D01*
X150160051Y-89836351D01*
X149965048Y-89641348D01*
X149735749Y-89488135D01*
X149664926Y-89458799D01*
X149735749Y-89429463D01*
X149965048Y-89276250D01*
X150160051Y-89081247D01*
X150313264Y-88851948D01*
X150418799Y-88597164D01*
X150472600Y-88326687D01*
X150472600Y-88050911D01*
X150418799Y-87780434D01*
X150313264Y-87525650D01*
X150160051Y-87296351D01*
X149965048Y-87101348D01*
X149735749Y-86948135D01*
X149664926Y-86918799D01*
X149735749Y-86889463D01*
X149965048Y-86736250D01*
X150160051Y-86541247D01*
X150313264Y-86311948D01*
X150418799Y-86057164D01*
X150472600Y-85786687D01*
X150472600Y-85510911D01*
X150418799Y-85240434D01*
X150313264Y-84985650D01*
X150160051Y-84756351D01*
X149965048Y-84561348D01*
X149735749Y-84408135D01*
X149664926Y-84378799D01*
X149735749Y-84349463D01*
X149965048Y-84196250D01*
X150160051Y-84001247D01*
X150313264Y-83771948D01*
X150418799Y-83517164D01*
X150472600Y-83246687D01*
X150472600Y-82970911D01*
X150418799Y-82700434D01*
X150313264Y-82445650D01*
X150160051Y-82216351D01*
X149965048Y-82021348D01*
X149735749Y-81868135D01*
X149664926Y-81838799D01*
X149735749Y-81809463D01*
X149965048Y-81656250D01*
X150160051Y-81461247D01*
X150313264Y-81231948D01*
X150418799Y-80977164D01*
X150472600Y-80706687D01*
X150472600Y-80430911D01*
X150418799Y-80160434D01*
X150313264Y-79905650D01*
X150160051Y-79676351D01*
X149965048Y-79481348D01*
X149735749Y-79328135D01*
X149671006Y-79301317D01*
X149676672Y-79299277D01*
X149793360Y-79236905D01*
X149860702Y-78996506D01*
X149072600Y-78208404D01*
X148284498Y-78996506D01*
X148351840Y-79236905D01*
X148481936Y-79298111D01*
X148409451Y-79328135D01*
X148180152Y-79481348D01*
X147985149Y-79676351D01*
X147831936Y-79905650D01*
X147726401Y-80160434D01*
X147672600Y-80430911D01*
X137170000Y-80430911D01*
X137170000Y-78100698D01*
X147667664Y-78100698D01*
X147708686Y-78373406D01*
X147802122Y-78632871D01*
X147864494Y-78749559D01*
X148104893Y-78816901D01*
X148892995Y-78028799D01*
X149252205Y-78028799D01*
X150040307Y-78816901D01*
X150280706Y-78749559D01*
X150398106Y-78500019D01*
X150464567Y-78232372D01*
X150477536Y-77956900D01*
X150436514Y-77684192D01*
X150343078Y-77424727D01*
X150280706Y-77308039D01*
X150040307Y-77240697D01*
X149252205Y-78028799D01*
X148892995Y-78028799D01*
X148104893Y-77240697D01*
X147864494Y-77308039D01*
X147747094Y-77557579D01*
X147680633Y-77825226D01*
X147667664Y-78100698D01*
X137170000Y-78100698D01*
X137170000Y-77061092D01*
X148284498Y-77061092D01*
X149072600Y-77849194D01*
X149860702Y-77061092D01*
X149793360Y-76820693D01*
X149543820Y-76703293D01*
X149276173Y-76636832D01*
X149000701Y-76623863D01*
X148727993Y-76664885D01*
X148468528Y-76758321D01*
X148351840Y-76820693D01*
X148284498Y-77061092D01*
X137170000Y-77061092D01*
X137170000Y-74823376D01*
X137291380Y-75005034D01*
X137485965Y-75199619D01*
X137714773Y-75352504D01*
X137969010Y-75457813D01*
X138238908Y-75511499D01*
X138514092Y-75511499D01*
X138783990Y-75457813D01*
X139038227Y-75352504D01*
X139267035Y-75199619D01*
X139461620Y-75005034D01*
X139614505Y-74776226D01*
X139719814Y-74521989D01*
X139773500Y-74252091D01*
X139773500Y-73976907D01*
X139719814Y-73707009D01*
X139614505Y-73452772D01*
X139461620Y-73223964D01*
X139267035Y-73029379D01*
X139038227Y-72876494D01*
X138943914Y-72837428D01*
X139028227Y-72802504D01*
X139257035Y-72649619D01*
X139451620Y-72455034D01*
X139604505Y-72226226D01*
X139709814Y-71971989D01*
X139763500Y-71702091D01*
X139763500Y-71426907D01*
X139709814Y-71157009D01*
X139604505Y-70902772D01*
X139451620Y-70673964D01*
X139257035Y-70479379D01*
X139028227Y-70326494D01*
X138950985Y-70294499D01*
X139028227Y-70262504D01*
X139257035Y-70109619D01*
X139451620Y-69915034D01*
X139604505Y-69686226D01*
X139709814Y-69431989D01*
X139763500Y-69162091D01*
X139763500Y-68886907D01*
X139709814Y-68617009D01*
X139604505Y-68362772D01*
X139451620Y-68133964D01*
X139257035Y-67939379D01*
X139028227Y-67786494D01*
X138956557Y-67756807D01*
X138969523Y-67752135D01*
X139085480Y-67690155D01*
X139152460Y-67450064D01*
X138366500Y-66664104D01*
X137580540Y-67450064D01*
X137647520Y-67690155D01*
X137783260Y-67753984D01*
X137704773Y-67786494D01*
X137475965Y-67939379D01*
X137281380Y-68133964D01*
X137170000Y-68300656D01*
X137170000Y-67206033D01*
X137400935Y-67270459D01*
X138186895Y-66484499D01*
X138546105Y-66484499D01*
X139332065Y-67270459D01*
X139572156Y-67203479D01*
X139689256Y-66954451D01*
X139755523Y-66687364D01*
X139768410Y-66412482D01*
X139727422Y-66140366D01*
X139634136Y-65881476D01*
X139572156Y-65765519D01*
X139332065Y-65698539D01*
X138546105Y-66484499D01*
X138186895Y-66484499D01*
X137400935Y-65698539D01*
X137170000Y-65762965D01*
X137170000Y-65329499D01*
X137633388Y-65329499D01*
X137580540Y-65518934D01*
X138366500Y-66304894D01*
X139152460Y-65518934D01*
X139085480Y-65278843D01*
X138949740Y-65215014D01*
X139028227Y-65182504D01*
X139257035Y-65029619D01*
X139451620Y-64835034D01*
X139604505Y-64606226D01*
X139709814Y-64351989D01*
X139763500Y-64082091D01*
X139763500Y-63806907D01*
X139709814Y-63537009D01*
X139604505Y-63282772D01*
X139451620Y-63053964D01*
X139257035Y-62859379D01*
X139028227Y-62706494D01*
X138773990Y-62601185D01*
X138504092Y-62547499D01*
X138228908Y-62547499D01*
X138168580Y-62559499D01*
X136653529Y-62559499D01*
X136585500Y-62552799D01*
X136517471Y-62559499D01*
X136517463Y-62559499D01*
X136337392Y-62577234D01*
X136313992Y-62579539D01*
X136052919Y-62658735D01*
X135812312Y-62787342D01*
X135601419Y-62960418D01*
X135558046Y-63013268D01*
X134853765Y-63717549D01*
X134800919Y-63760919D01*
X134757550Y-63813764D01*
X134757548Y-63813766D01*
X134746772Y-63826897D01*
X134627843Y-63971812D01*
X134593533Y-64036002D01*
X134499236Y-64212419D01*
X134466768Y-64319453D01*
X134420040Y-64473493D01*
X134400000Y-64676963D01*
X134400000Y-64676970D01*
X134393300Y-64744999D01*
X134400000Y-64813028D01*
X134400001Y-95786960D01*
X134393300Y-95854999D01*
X134420040Y-96126506D01*
X134499236Y-96387579D01*
X134627844Y-96628187D01*
X134757548Y-96786232D01*
X134757551Y-96786235D01*
X134800920Y-96839080D01*
X134853764Y-96882448D01*
X138020001Y-100048686D01*
X138020000Y-101676969D01*
X138013300Y-101744999D01*
X138020000Y-101813028D01*
X138020000Y-101813035D01*
X138020001Y-101813045D01*
X138020001Y-110637021D01*
X137861223Y-110506715D01*
X137664047Y-110401323D01*
X137450099Y-110336422D01*
X137283352Y-110319999D01*
X136901848Y-110319999D01*
X136735101Y-110336422D01*
X136521153Y-110401323D01*
X136323977Y-110506715D01*
X136151151Y-110648550D01*
X136092600Y-110719894D01*
X136034049Y-110648550D01*
X135861223Y-110506715D01*
X135664047Y-110401323D01*
X135450099Y-110336422D01*
X135283352Y-110319999D01*
X134901848Y-110319999D01*
X134735101Y-110336422D01*
X134521153Y-110401323D01*
X134323977Y-110506715D01*
X134151151Y-110648550D01*
X134092600Y-110719894D01*
X134034049Y-110648550D01*
X133861223Y-110506715D01*
X133664047Y-110401323D01*
X133450099Y-110336422D01*
X133283352Y-110319999D01*
X132901848Y-110319999D01*
X132735101Y-110336422D01*
X132521153Y-110401323D01*
X132323977Y-110506715D01*
X132151151Y-110648550D01*
X132092600Y-110719894D01*
X132034049Y-110648550D01*
X131861223Y-110506715D01*
X131664047Y-110401323D01*
X131450099Y-110336422D01*
X131283352Y-110319999D01*
X130901848Y-110319999D01*
X130735101Y-110336422D01*
X130521153Y-110401323D01*
X130323977Y-110506715D01*
X130151151Y-110648550D01*
X130092600Y-110719894D01*
X130034049Y-110648550D01*
X129861223Y-110506715D01*
X129664047Y-110401323D01*
X129450099Y-110336422D01*
X129283352Y-110319999D01*
X128901848Y-110319999D01*
X128735101Y-110336422D01*
X128521153Y-110401323D01*
X128323977Y-110506715D01*
X128151151Y-110648550D01*
X128092600Y-110719894D01*
X128034049Y-110648550D01*
X127861223Y-110506715D01*
X127664047Y-110401323D01*
X127450099Y-110336422D01*
X127283352Y-110319999D01*
X126901848Y-110319999D01*
X126735101Y-110336422D01*
X126521153Y-110401323D01*
X126323977Y-110506715D01*
X126151151Y-110648550D01*
X126092600Y-110719894D01*
X126034049Y-110648550D01*
X125861223Y-110506715D01*
X125664047Y-110401323D01*
X125450099Y-110336422D01*
X125283352Y-110319999D01*
X124901848Y-110319999D01*
X124735101Y-110336422D01*
X124521153Y-110401323D01*
X124323977Y-110506715D01*
X124151151Y-110648550D01*
X124092600Y-110719894D01*
X124034049Y-110648550D01*
X123861223Y-110506715D01*
X123664047Y-110401323D01*
X123450099Y-110336422D01*
X123283352Y-110319999D01*
X122901848Y-110319999D01*
X122735101Y-110336422D01*
X122521153Y-110401323D01*
X122323977Y-110506715D01*
X122151151Y-110648550D01*
X122009316Y-110821376D01*
X121903924Y-111018552D01*
X121839023Y-111232500D01*
X121817109Y-111454999D01*
X121839023Y-111677498D01*
X121903924Y-111891446D01*
X122009316Y-112088622D01*
X122151151Y-112261448D01*
X122323977Y-112403283D01*
X122521153Y-112508675D01*
X122735101Y-112573576D01*
X122901848Y-112589999D01*
X123283352Y-112589999D01*
X123450099Y-112573576D01*
X123664047Y-112508675D01*
X123861223Y-112403283D01*
X124034049Y-112261448D01*
X124092600Y-112190104D01*
X124151151Y-112261448D01*
X124323977Y-112403283D01*
X124521153Y-112508675D01*
X124735101Y-112573576D01*
X124901848Y-112589999D01*
X125283352Y-112589999D01*
X125450099Y-112573576D01*
X125664047Y-112508675D01*
X125861223Y-112403283D01*
X126034049Y-112261448D01*
X126092600Y-112190104D01*
X126151151Y-112261448D01*
X126323977Y-112403283D01*
X126521153Y-112508675D01*
X126735101Y-112573576D01*
X126901848Y-112589999D01*
X127283352Y-112589999D01*
X127450099Y-112573576D01*
X127664047Y-112508675D01*
X127861223Y-112403283D01*
X128034049Y-112261448D01*
X128092600Y-112190104D01*
X128151151Y-112261448D01*
X128323977Y-112403283D01*
X128521153Y-112508675D01*
X128735101Y-112573576D01*
X128901848Y-112589999D01*
X129283352Y-112589999D01*
X129450099Y-112573576D01*
X129664047Y-112508675D01*
X129861223Y-112403283D01*
X130034049Y-112261448D01*
X130092600Y-112190104D01*
X130151151Y-112261448D01*
X130323977Y-112403283D01*
X130521153Y-112508675D01*
X130735101Y-112573576D01*
X130901848Y-112589999D01*
X131283352Y-112589999D01*
X131450099Y-112573576D01*
X131664047Y-112508675D01*
X131861223Y-112403283D01*
X132034049Y-112261448D01*
X132092600Y-112190104D01*
X132151151Y-112261448D01*
X132323977Y-112403283D01*
X132521153Y-112508675D01*
X132735101Y-112573576D01*
X132901848Y-112589999D01*
X133283352Y-112589999D01*
X133450099Y-112573576D01*
X133664047Y-112508675D01*
X133861223Y-112403283D01*
X134034049Y-112261448D01*
X134092600Y-112190104D01*
X134151151Y-112261448D01*
X134323977Y-112403283D01*
X134521153Y-112508675D01*
X134735101Y-112573576D01*
X134901848Y-112589999D01*
X135283352Y-112589999D01*
X135450099Y-112573576D01*
X135664047Y-112508675D01*
X135861223Y-112403283D01*
X136034049Y-112261448D01*
X136092600Y-112190104D01*
X136151151Y-112261448D01*
X136323977Y-112403283D01*
X136521153Y-112508675D01*
X136735101Y-112573576D01*
X136901848Y-112589999D01*
X137283352Y-112589999D01*
X137450099Y-112573576D01*
X137664047Y-112508675D01*
X137861223Y-112403283D01*
X138020001Y-112272977D01*
X138020000Y-128268809D01*
X137789987Y-128173534D01*
X137540955Y-128123999D01*
X137287045Y-128123999D01*
X137038013Y-128173534D01*
X136803430Y-128270702D01*
X136592310Y-128411767D01*
X136412768Y-128591309D01*
X136271703Y-128802429D01*
X136174535Y-129037012D01*
X136125000Y-129286044D01*
X136125000Y-129539954D01*
X136174535Y-129788986D01*
X136271703Y-130023569D01*
X136412768Y-130234689D01*
X136592310Y-130414231D01*
X136803430Y-130555296D01*
X137038013Y-130652464D01*
X137191524Y-130682999D01*
X137038013Y-130713534D01*
X136803430Y-130810702D01*
X136592310Y-130951767D01*
X136412768Y-131131309D01*
X136271703Y-131342429D01*
X136174535Y-131577012D01*
X136125000Y-131826044D01*
X136125000Y-132079954D01*
X136174535Y-132328986D01*
X136271703Y-132563569D01*
X136412768Y-132774689D01*
X136592310Y-132954231D01*
X136803430Y-133095296D01*
X137038013Y-133192464D01*
X137191524Y-133222999D01*
X137038013Y-133253534D01*
X136803430Y-133350702D01*
X136592310Y-133491767D01*
X136412768Y-133671309D01*
X136271703Y-133882429D01*
X136174535Y-134117012D01*
X136125000Y-134366044D01*
X136125000Y-134619954D01*
X136174535Y-134868986D01*
X136271703Y-135103569D01*
X136412768Y-135314689D01*
X136592310Y-135494231D01*
X136803430Y-135635296D01*
X137038013Y-135732464D01*
X137191524Y-135762999D01*
X137038013Y-135793534D01*
X136803430Y-135890702D01*
X136592310Y-136031767D01*
X136412768Y-136211309D01*
X136271703Y-136422429D01*
X136174535Y-136657012D01*
X136125000Y-136906044D01*
X136125000Y-137159954D01*
X136174535Y-137408986D01*
X136271703Y-137643569D01*
X136412768Y-137854689D01*
X136592310Y-138034231D01*
X136803430Y-138175296D01*
X137038013Y-138272464D01*
X137191524Y-138302999D01*
X137038013Y-138333534D01*
X136803430Y-138430702D01*
X136592310Y-138571767D01*
X136412768Y-138751309D01*
X136271703Y-138962429D01*
X136174535Y-139197012D01*
X136125000Y-139446044D01*
X136125000Y-139699954D01*
X136174535Y-139948986D01*
X136271703Y-140183569D01*
X136412768Y-140394689D01*
X136592310Y-140574231D01*
X136803430Y-140715296D01*
X137038013Y-140812464D01*
X137191999Y-140843093D01*
X137086921Y-140859740D01*
X136848707Y-140947631D01*
X136759093Y-140995531D01*
X136705218Y-141224612D01*
X137414000Y-141933394D01*
X137428143Y-141919252D01*
X137607748Y-142098857D01*
X137593605Y-142112999D01*
X137607748Y-142127142D01*
X137428143Y-142306747D01*
X137414000Y-142292604D01*
X136705218Y-143001386D01*
X136759093Y-143230467D01*
X136989684Y-143336762D01*
X137186484Y-143384002D01*
X137038013Y-143413534D01*
X136803430Y-143510702D01*
X136592310Y-143651767D01*
X136412768Y-143831309D01*
X136271703Y-144042429D01*
X136174535Y-144277012D01*
X136125000Y-144526044D01*
X136125000Y-144779954D01*
X136174535Y-145028986D01*
X136271703Y-145263569D01*
X136412768Y-145474689D01*
X136592310Y-145654231D01*
X136803430Y-145795296D01*
X136834098Y-145807999D01*
X134746686Y-145807999D01*
X131127982Y-142189295D01*
X136121012Y-142189295D01*
X136160741Y-142440078D01*
X136248632Y-142678292D01*
X136296532Y-142767906D01*
X136525613Y-142821781D01*
X137234395Y-142112999D01*
X136525613Y-141404217D01*
X136296532Y-141458092D01*
X136190237Y-141688683D01*
X136130972Y-141935580D01*
X136121012Y-142189295D01*
X131127982Y-142189295D01*
X126962454Y-138023768D01*
X126919081Y-137970918D01*
X126708188Y-137797842D01*
X126467581Y-137669235D01*
X126206507Y-137590039D01*
X126003037Y-137569999D01*
X126003029Y-137569999D01*
X125935000Y-137563299D01*
X125866971Y-137569999D01*
X103098526Y-137569999D01*
X103030499Y-137563299D01*
X102962472Y-137569999D01*
X102962463Y-137569999D01*
X102758993Y-137590039D01*
X102497919Y-137669235D01*
X102257312Y-137797842D01*
X102046419Y-137970918D01*
X102003046Y-138023768D01*
X100315048Y-139711766D01*
X100185344Y-139869811D01*
X100056736Y-140110419D01*
X99977540Y-140371492D01*
X99950800Y-140642999D01*
X84175619Y-140642999D01*
X83082296Y-139418465D01*
X81102192Y-136962743D01*
X80524039Y-136166983D01*
X88440000Y-136166983D01*
X88440000Y-136883015D01*
X88579691Y-137585289D01*
X88853705Y-138246817D01*
X89251511Y-138842176D01*
X89757823Y-139348488D01*
X90353182Y-139746294D01*
X91014710Y-140020308D01*
X91716984Y-140159999D01*
X92433016Y-140159999D01*
X93135290Y-140020308D01*
X93796818Y-139746294D01*
X94392177Y-139348488D01*
X94898489Y-138842176D01*
X95296295Y-138246817D01*
X95570309Y-137585289D01*
X95710000Y-136883015D01*
X95710000Y-136166983D01*
X95570309Y-135464709D01*
X95296295Y-134803181D01*
X94898489Y-134207822D01*
X94392177Y-133701510D01*
X93796818Y-133303704D01*
X93135290Y-133029690D01*
X92433016Y-132889999D01*
X91716984Y-132889999D01*
X91014710Y-133029690D01*
X90353182Y-133303704D01*
X89757823Y-133701510D01*
X89251511Y-134207822D01*
X88853705Y-134803181D01*
X88579691Y-135464709D01*
X88440000Y-136166983D01*
X80524039Y-136166983D01*
X79247976Y-134410633D01*
X77524331Y-131768583D01*
X76675508Y-130312498D01*
X80097106Y-130312498D01*
X80313228Y-130679257D01*
X80773105Y-130919937D01*
X81271098Y-131066274D01*
X81788071Y-131112647D01*
X82304159Y-131057272D01*
X82799526Y-130902278D01*
X83216772Y-130679257D01*
X83432894Y-130312498D01*
X81765000Y-128644604D01*
X80097106Y-130312498D01*
X76675508Y-130312498D01*
X75935611Y-129043267D01*
X75648316Y-128488070D01*
X79117352Y-128488070D01*
X79172727Y-129004158D01*
X79327721Y-129499525D01*
X79550742Y-129916771D01*
X79917501Y-130132893D01*
X81585395Y-128464999D01*
X81944605Y-128464999D01*
X83612499Y-130132893D01*
X83979258Y-129916771D01*
X84219938Y-129456894D01*
X84226928Y-129433107D01*
X84226928Y-130364999D01*
X84239188Y-130489481D01*
X84275498Y-130609179D01*
X84334463Y-130719493D01*
X84413815Y-130816184D01*
X84510506Y-130895536D01*
X84620820Y-130954501D01*
X84740518Y-130990811D01*
X84865000Y-131003071D01*
X88665000Y-131003071D01*
X88789482Y-130990811D01*
X88909180Y-130954501D01*
X89019494Y-130895536D01*
X89116185Y-130816184D01*
X89195537Y-130719493D01*
X89254502Y-130609179D01*
X89290812Y-130489481D01*
X89303072Y-130364999D01*
X89303072Y-129785322D01*
X123444000Y-129785322D01*
X123444000Y-130310676D01*
X123546492Y-130825934D01*
X123747536Y-131311297D01*
X124039406Y-131748112D01*
X124410887Y-132119593D01*
X124847702Y-132411463D01*
X125333065Y-132612507D01*
X125848323Y-132714999D01*
X126373677Y-132714999D01*
X126888935Y-132612507D01*
X127374298Y-132411463D01*
X127811113Y-132119593D01*
X128182594Y-131748112D01*
X128474464Y-131311297D01*
X128675508Y-130825934D01*
X128778000Y-130310676D01*
X128778000Y-129785322D01*
X128675508Y-129270064D01*
X128474464Y-128784701D01*
X128182594Y-128347886D01*
X127811113Y-127976405D01*
X127374298Y-127684535D01*
X126888935Y-127483491D01*
X126373677Y-127380999D01*
X125848323Y-127380999D01*
X125333065Y-127483491D01*
X124847702Y-127684535D01*
X124410887Y-127976405D01*
X124039406Y-128347886D01*
X123747536Y-128784701D01*
X123546492Y-129270064D01*
X123444000Y-129785322D01*
X89303072Y-129785322D01*
X89303072Y-126564999D01*
X89290812Y-126440517D01*
X89254502Y-126320819D01*
X89195537Y-126210505D01*
X89116185Y-126113814D01*
X89019494Y-126034462D01*
X88909180Y-125975497D01*
X88789482Y-125939187D01*
X88665000Y-125926927D01*
X84865000Y-125926927D01*
X84740518Y-125939187D01*
X84620820Y-125975497D01*
X84510506Y-126034462D01*
X84413815Y-126113814D01*
X84334463Y-126210505D01*
X84275498Y-126320819D01*
X84239188Y-126440517D01*
X84226928Y-126564999D01*
X84226928Y-127509252D01*
X84202279Y-127430473D01*
X83979258Y-127013227D01*
X83612499Y-126797105D01*
X81944605Y-128464999D01*
X81585395Y-128464999D01*
X79917501Y-126797105D01*
X79550742Y-127013227D01*
X79310062Y-127473104D01*
X79163725Y-127971097D01*
X79117352Y-128488070D01*
X75648316Y-128488070D01*
X74680361Y-126617500D01*
X80097106Y-126617500D01*
X81765000Y-128285394D01*
X83432894Y-126617500D01*
X83216772Y-126250741D01*
X82756895Y-126010061D01*
X82258902Y-125863724D01*
X81741929Y-125817351D01*
X81225841Y-125872726D01*
X80730474Y-126027720D01*
X80313228Y-126250741D01*
X80097106Y-126617500D01*
X74680361Y-126617500D01*
X74485829Y-126241569D01*
X74166884Y-125541060D01*
X100307500Y-125541060D01*
X100307500Y-125744938D01*
X100347274Y-125944897D01*
X100425295Y-126133255D01*
X100538563Y-126302773D01*
X100682726Y-126446936D01*
X100852244Y-126560204D01*
X101040602Y-126638225D01*
X101240561Y-126677999D01*
X101444439Y-126677999D01*
X101644398Y-126638225D01*
X101832756Y-126560204D01*
X102002274Y-126446936D01*
X102146437Y-126302773D01*
X102259705Y-126133255D01*
X102337726Y-125944897D01*
X102377500Y-125744938D01*
X102377500Y-125541060D01*
X107807500Y-125541060D01*
X107807500Y-125744938D01*
X107847274Y-125944897D01*
X107925295Y-126133255D01*
X108038563Y-126302773D01*
X108182726Y-126446936D01*
X108352244Y-126560204D01*
X108540602Y-126638225D01*
X108740561Y-126677999D01*
X108944439Y-126677999D01*
X109144398Y-126638225D01*
X109332756Y-126560204D01*
X109502274Y-126446936D01*
X109646437Y-126302773D01*
X109759705Y-126133255D01*
X109837726Y-125944897D01*
X109877500Y-125744938D01*
X109877500Y-125541060D01*
X109837726Y-125341101D01*
X109759705Y-125152743D01*
X109646437Y-124983225D01*
X109502274Y-124839062D01*
X109332756Y-124725794D01*
X109144398Y-124647773D01*
X108944439Y-124607999D01*
X108740561Y-124607999D01*
X108540602Y-124647773D01*
X108352244Y-124725794D01*
X108182726Y-124839062D01*
X108038563Y-124983225D01*
X107925295Y-125152743D01*
X107847274Y-125341101D01*
X107807500Y-125541060D01*
X102377500Y-125541060D01*
X102337726Y-125341101D01*
X102259705Y-125152743D01*
X102146437Y-124983225D01*
X102002274Y-124839062D01*
X101832756Y-124725794D01*
X101644398Y-124647773D01*
X101444439Y-124607999D01*
X101240561Y-124607999D01*
X101040602Y-124647773D01*
X100852244Y-124725794D01*
X100682726Y-124839062D01*
X100538563Y-124983225D01*
X100425295Y-125152743D01*
X100347274Y-125341101D01*
X100307500Y-125541060D01*
X74166884Y-125541060D01*
X73178648Y-123370566D01*
X72344005Y-121262498D01*
X80047106Y-121262498D01*
X80263228Y-121629257D01*
X80723105Y-121869937D01*
X81221098Y-122016274D01*
X81738071Y-122062647D01*
X82254159Y-122007272D01*
X82749526Y-121852278D01*
X83166772Y-121629257D01*
X83382894Y-121262498D01*
X81715000Y-119594604D01*
X80047106Y-121262498D01*
X72344005Y-121262498D01*
X72017369Y-120437511D01*
X71678689Y-119438070D01*
X79067352Y-119438070D01*
X79122727Y-119954158D01*
X79277721Y-120449525D01*
X79500742Y-120866771D01*
X79867501Y-121082893D01*
X81535395Y-119414999D01*
X81894605Y-119414999D01*
X83562499Y-121082893D01*
X83929258Y-120866771D01*
X84169938Y-120406894D01*
X84176928Y-120383107D01*
X84176928Y-121314999D01*
X84189188Y-121439481D01*
X84225498Y-121559179D01*
X84284463Y-121669493D01*
X84363815Y-121766184D01*
X84460506Y-121845536D01*
X84570820Y-121904501D01*
X84690518Y-121940811D01*
X84815000Y-121953071D01*
X88615000Y-121953071D01*
X88739482Y-121940811D01*
X88859180Y-121904501D01*
X88969494Y-121845536D01*
X89066185Y-121766184D01*
X89145537Y-121669493D01*
X89204502Y-121559179D01*
X89240812Y-121439481D01*
X89253072Y-121314999D01*
X89253072Y-120541060D01*
X100307500Y-120541060D01*
X100307500Y-120744938D01*
X100347274Y-120944897D01*
X100425295Y-121133255D01*
X100538563Y-121302773D01*
X100682726Y-121446936D01*
X100852244Y-121560204D01*
X101040602Y-121638225D01*
X101240561Y-121677999D01*
X101444439Y-121677999D01*
X101644398Y-121638225D01*
X101832756Y-121560204D01*
X102002274Y-121446936D01*
X102146437Y-121302773D01*
X102259705Y-121133255D01*
X102337726Y-120944897D01*
X102377500Y-120744938D01*
X102377500Y-120541060D01*
X107807500Y-120541060D01*
X107807500Y-120744938D01*
X107847274Y-120944897D01*
X107925295Y-121133255D01*
X108038563Y-121302773D01*
X108182726Y-121446936D01*
X108352244Y-121560204D01*
X108540602Y-121638225D01*
X108740561Y-121677999D01*
X108944439Y-121677999D01*
X109144398Y-121638225D01*
X109332756Y-121560204D01*
X109502274Y-121446936D01*
X109646437Y-121302773D01*
X109759705Y-121133255D01*
X109837726Y-120944897D01*
X109877500Y-120744938D01*
X109877500Y-120541060D01*
X109837726Y-120341101D01*
X109759705Y-120152743D01*
X109646437Y-119983225D01*
X109502274Y-119839062D01*
X109332756Y-119725794D01*
X109144398Y-119647773D01*
X108944439Y-119607999D01*
X108740561Y-119607999D01*
X108540602Y-119647773D01*
X108352244Y-119725794D01*
X108182726Y-119839062D01*
X108038563Y-119983225D01*
X107925295Y-120152743D01*
X107847274Y-120341101D01*
X107807500Y-120541060D01*
X102377500Y-120541060D01*
X102337726Y-120341101D01*
X102259705Y-120152743D01*
X102146437Y-119983225D01*
X102002274Y-119839062D01*
X101832756Y-119725794D01*
X101644398Y-119647773D01*
X101444439Y-119607999D01*
X101240561Y-119607999D01*
X101040602Y-119647773D01*
X100852244Y-119725794D01*
X100682726Y-119839062D01*
X100538563Y-119983225D01*
X100425295Y-120152743D01*
X100347274Y-120341101D01*
X100307500Y-120541060D01*
X89253072Y-120541060D01*
X89253072Y-117514999D01*
X89240812Y-117390517D01*
X89204502Y-117270819D01*
X89145537Y-117160505D01*
X89066185Y-117063814D01*
X88969494Y-116984462D01*
X88859180Y-116925497D01*
X88739482Y-116889187D01*
X88615000Y-116876927D01*
X84815000Y-116876927D01*
X84690518Y-116889187D01*
X84570820Y-116925497D01*
X84460506Y-116984462D01*
X84363815Y-117063814D01*
X84284463Y-117160505D01*
X84225498Y-117270819D01*
X84189188Y-117390517D01*
X84176928Y-117514999D01*
X84176928Y-118459252D01*
X84152279Y-118380473D01*
X83929258Y-117963227D01*
X83562499Y-117747105D01*
X81894605Y-119414999D01*
X81535395Y-119414999D01*
X79867501Y-117747105D01*
X79500742Y-117963227D01*
X79260062Y-118423104D01*
X79113725Y-118921097D01*
X79067352Y-119438070D01*
X71678689Y-119438070D01*
X71044808Y-117567500D01*
X80047106Y-117567500D01*
X81715000Y-119235394D01*
X83382894Y-117567500D01*
X83166772Y-117200741D01*
X82706895Y-116960061D01*
X82208902Y-116813724D01*
X81691929Y-116767351D01*
X81175841Y-116822726D01*
X80680474Y-116977720D01*
X80263228Y-117200741D01*
X80047106Y-117567500D01*
X71044808Y-117567500D01*
X71004927Y-117449813D01*
X70463365Y-115541060D01*
X100307500Y-115541060D01*
X100307500Y-115744938D01*
X100347274Y-115944897D01*
X100425295Y-116133255D01*
X100538563Y-116302773D01*
X100682726Y-116446936D01*
X100852244Y-116560204D01*
X101040602Y-116638225D01*
X101240561Y-116677999D01*
X101444439Y-116677999D01*
X101644398Y-116638225D01*
X101832756Y-116560204D01*
X102002274Y-116446936D01*
X102146437Y-116302773D01*
X102259705Y-116133255D01*
X102337726Y-115944897D01*
X102377500Y-115744938D01*
X102377500Y-115541060D01*
X107807500Y-115541060D01*
X107807500Y-115744938D01*
X107847274Y-115944897D01*
X107925295Y-116133255D01*
X108038563Y-116302773D01*
X108182726Y-116446936D01*
X108352244Y-116560204D01*
X108540602Y-116638225D01*
X108740561Y-116677999D01*
X108944439Y-116677999D01*
X109144398Y-116638225D01*
X109332756Y-116560204D01*
X109502274Y-116446936D01*
X109646437Y-116302773D01*
X109759705Y-116133255D01*
X109837726Y-115944897D01*
X109877500Y-115744938D01*
X109877500Y-115541060D01*
X109837726Y-115341101D01*
X109759705Y-115152743D01*
X109646437Y-114983225D01*
X109502274Y-114839062D01*
X109332756Y-114725794D01*
X109144398Y-114647773D01*
X108944439Y-114607999D01*
X108740561Y-114607999D01*
X108540602Y-114647773D01*
X108352244Y-114725794D01*
X108182726Y-114839062D01*
X108038563Y-114983225D01*
X107925295Y-115152743D01*
X107847274Y-115341101D01*
X107807500Y-115541060D01*
X102377500Y-115541060D01*
X102337726Y-115341101D01*
X102259705Y-115152743D01*
X102146437Y-114983225D01*
X102002274Y-114839062D01*
X101832756Y-114725794D01*
X101644398Y-114647773D01*
X101444439Y-114607999D01*
X101240561Y-114607999D01*
X101040602Y-114647773D01*
X100852244Y-114725794D01*
X100682726Y-114839062D01*
X100538563Y-114983225D01*
X100425295Y-115152743D01*
X100347274Y-115341101D01*
X100307500Y-115541060D01*
X70463365Y-115541060D01*
X70143878Y-114415019D01*
X69436398Y-111340795D01*
X68884273Y-108234907D01*
X68611169Y-106073060D01*
X111015000Y-106073060D01*
X111015000Y-106276938D01*
X111054774Y-106476897D01*
X111132795Y-106665255D01*
X111246063Y-106834773D01*
X111390226Y-106978936D01*
X111559744Y-107092204D01*
X111748102Y-107170225D01*
X111948061Y-107209999D01*
X112151939Y-107209999D01*
X112351898Y-107170225D01*
X112540256Y-107092204D01*
X112709774Y-106978936D01*
X112753711Y-106934999D01*
X117317678Y-106934999D01*
X117355000Y-106938675D01*
X117392322Y-106934999D01*
X117392333Y-106934999D01*
X117503986Y-106924002D01*
X117647247Y-106880545D01*
X117779276Y-106809973D01*
X117895001Y-106715000D01*
X117918804Y-106685997D01*
X119714803Y-104889999D01*
X119776939Y-104889999D01*
X119976898Y-104850225D01*
X120165256Y-104772204D01*
X120334774Y-104658936D01*
X120478937Y-104514773D01*
X120592205Y-104345255D01*
X120670226Y-104156897D01*
X120710000Y-103956938D01*
X120710000Y-103753060D01*
X120670226Y-103553101D01*
X120592205Y-103364743D01*
X120478937Y-103195225D01*
X120334774Y-103051062D01*
X120300870Y-103028408D01*
X120434774Y-102938936D01*
X120578937Y-102794773D01*
X120692205Y-102625255D01*
X120770226Y-102436897D01*
X120810000Y-102236938D01*
X120810000Y-102033060D01*
X120770226Y-101833101D01*
X120692205Y-101644743D01*
X120578937Y-101475225D01*
X120434774Y-101331062D01*
X120265256Y-101217794D01*
X120076898Y-101139773D01*
X119876939Y-101099999D01*
X119673061Y-101099999D01*
X119473102Y-101139773D01*
X119284744Y-101217794D01*
X119115226Y-101331062D01*
X118971063Y-101475225D01*
X118857795Y-101644743D01*
X118779774Y-101833101D01*
X118740000Y-102033060D01*
X118740000Y-102095197D01*
X116720199Y-104114999D01*
X112778711Y-104114999D01*
X112734774Y-104071062D01*
X112565256Y-103957794D01*
X112376898Y-103879773D01*
X112176939Y-103839999D01*
X111973061Y-103839999D01*
X111773102Y-103879773D01*
X111584744Y-103957794D01*
X111415226Y-104071062D01*
X111271063Y-104215225D01*
X111157795Y-104384743D01*
X111079774Y-104573101D01*
X111040000Y-104773060D01*
X111040000Y-104976938D01*
X111079774Y-105176897D01*
X111157795Y-105365255D01*
X111253220Y-105508068D01*
X111246063Y-105515225D01*
X111132795Y-105684743D01*
X111054774Y-105873101D01*
X111015000Y-106073060D01*
X68611169Y-106073060D01*
X68488899Y-105105201D01*
X68251275Y-101959583D01*
X68172000Y-98805998D01*
X68251275Y-95652413D01*
X68488899Y-92506795D01*
X68613173Y-91523060D01*
X111015000Y-91523060D01*
X111015000Y-91726938D01*
X111054774Y-91926897D01*
X111132795Y-92115255D01*
X111243680Y-92281207D01*
X111157795Y-92409743D01*
X111079774Y-92598101D01*
X111040000Y-92798060D01*
X111040000Y-93001938D01*
X111079774Y-93201897D01*
X111157795Y-93390255D01*
X111271063Y-93559773D01*
X111415226Y-93703936D01*
X111584744Y-93817204D01*
X111773102Y-93895225D01*
X111973061Y-93934999D01*
X112176939Y-93934999D01*
X112376898Y-93895225D01*
X112565256Y-93817204D01*
X112734774Y-93703936D01*
X112778711Y-93659999D01*
X117097678Y-93659999D01*
X117135000Y-93663675D01*
X117172322Y-93659999D01*
X117172333Y-93659999D01*
X117283986Y-93649002D01*
X117427247Y-93605545D01*
X117559276Y-93534973D01*
X117675001Y-93440000D01*
X117698804Y-93410996D01*
X119744802Y-91364999D01*
X119806939Y-91364999D01*
X120006898Y-91325225D01*
X120195256Y-91247204D01*
X120364774Y-91133936D01*
X120508937Y-90989773D01*
X120622205Y-90820255D01*
X120700226Y-90631897D01*
X120740000Y-90431938D01*
X120740000Y-90228060D01*
X120700226Y-90028101D01*
X120622205Y-89839743D01*
X120508937Y-89670225D01*
X120368711Y-89529999D01*
X120508937Y-89389773D01*
X120622205Y-89220255D01*
X120700226Y-89031897D01*
X120740000Y-88831938D01*
X120740000Y-88628060D01*
X120700226Y-88428101D01*
X120622205Y-88239743D01*
X120508937Y-88070225D01*
X120364774Y-87926062D01*
X120195256Y-87812794D01*
X120006898Y-87734773D01*
X119806939Y-87694999D01*
X119603061Y-87694999D01*
X119403102Y-87734773D01*
X119214744Y-87812794D01*
X119045226Y-87926062D01*
X118901063Y-88070225D01*
X118787795Y-88239743D01*
X118709774Y-88428101D01*
X118670000Y-88628060D01*
X118670000Y-88690197D01*
X116495199Y-90864999D01*
X112753711Y-90864999D01*
X112709774Y-90821062D01*
X112540256Y-90707794D01*
X112351898Y-90629773D01*
X112151939Y-90589999D01*
X111948061Y-90589999D01*
X111748102Y-90629773D01*
X111559744Y-90707794D01*
X111390226Y-90821062D01*
X111246063Y-90965225D01*
X111132795Y-91134743D01*
X111054774Y-91323101D01*
X111015000Y-91523060D01*
X68613173Y-91523060D01*
X68884273Y-89377089D01*
X69436398Y-86271201D01*
X70143878Y-83196977D01*
X71004927Y-80162183D01*
X71214729Y-79543060D01*
X110990000Y-79543060D01*
X110990000Y-79746938D01*
X111029774Y-79946897D01*
X111107795Y-80135255D01*
X111221063Y-80304773D01*
X111365226Y-80448936D01*
X111534744Y-80562204D01*
X111723102Y-80640225D01*
X111923061Y-80679999D01*
X112126939Y-80679999D01*
X112326898Y-80640225D01*
X112515256Y-80562204D01*
X112684774Y-80448936D01*
X112728711Y-80404999D01*
X118901289Y-80404999D01*
X118955226Y-80458936D01*
X119124744Y-80572204D01*
X119313102Y-80650225D01*
X119338072Y-80655192D01*
X119466013Y-80694001D01*
X119614999Y-80708675D01*
X119763985Y-80694001D01*
X119891925Y-80655192D01*
X119916898Y-80650225D01*
X120105256Y-80572204D01*
X120274774Y-80458936D01*
X120418937Y-80314773D01*
X120532205Y-80145255D01*
X120610226Y-79956897D01*
X120650000Y-79756938D01*
X120650000Y-79553060D01*
X120610226Y-79353101D01*
X120532205Y-79164743D01*
X120418937Y-78995225D01*
X120348711Y-78924999D01*
X120428937Y-78844773D01*
X120542205Y-78675255D01*
X120620226Y-78486897D01*
X120660000Y-78286938D01*
X120660000Y-78083060D01*
X120620226Y-77883101D01*
X120542205Y-77694743D01*
X120428937Y-77525225D01*
X120284774Y-77381062D01*
X120115256Y-77267794D01*
X119926898Y-77189773D01*
X119726939Y-77149999D01*
X119523061Y-77149999D01*
X119323102Y-77189773D01*
X119134744Y-77267794D01*
X118965226Y-77381062D01*
X118921289Y-77424999D01*
X112878711Y-77424999D01*
X112834774Y-77381062D01*
X112665256Y-77267794D01*
X112476898Y-77189773D01*
X112276939Y-77149999D01*
X112073061Y-77149999D01*
X111873102Y-77189773D01*
X111684744Y-77267794D01*
X111515226Y-77381062D01*
X111371063Y-77525225D01*
X111257795Y-77694743D01*
X111179774Y-77883101D01*
X111140000Y-78083060D01*
X111140000Y-78286938D01*
X111179774Y-78486897D01*
X111257795Y-78675255D01*
X111367547Y-78839511D01*
X111365226Y-78841062D01*
X111221063Y-78985225D01*
X111107795Y-79154743D01*
X111029774Y-79343101D01*
X110990000Y-79543060D01*
X71214729Y-79543060D01*
X72017369Y-77174485D01*
X73178648Y-74241430D01*
X73801145Y-72874220D01*
X122011500Y-72874220D01*
X122011500Y-73294778D01*
X122093547Y-73707255D01*
X122254488Y-74095801D01*
X122488137Y-74445482D01*
X122785517Y-74742862D01*
X123135198Y-74976511D01*
X123523744Y-75137452D01*
X123936221Y-75219499D01*
X124356779Y-75219499D01*
X124769256Y-75137452D01*
X125157802Y-74976511D01*
X125507483Y-74742862D01*
X125804863Y-74445482D01*
X126038512Y-74095801D01*
X126199453Y-73707255D01*
X126281500Y-73294778D01*
X126281500Y-72874220D01*
X126199453Y-72461743D01*
X126038512Y-72073197D01*
X125804863Y-71723516D01*
X125507483Y-71426136D01*
X125157802Y-71192487D01*
X124769256Y-71031546D01*
X124356779Y-70949499D01*
X123936221Y-70949499D01*
X123523744Y-71031546D01*
X123135198Y-71192487D01*
X122785517Y-71426136D01*
X122488137Y-71723516D01*
X122254488Y-72073197D01*
X122093547Y-72461743D01*
X122011500Y-72874220D01*
X73801145Y-72874220D01*
X74485829Y-71370427D01*
X75935611Y-68568729D01*
X77524331Y-65843413D01*
X78124759Y-64923060D01*
X111090000Y-64923060D01*
X111090000Y-65126938D01*
X111129774Y-65326897D01*
X111207795Y-65515255D01*
X111314532Y-65674999D01*
X111207795Y-65834743D01*
X111129774Y-66023101D01*
X111090000Y-66223060D01*
X111090000Y-66426938D01*
X111129774Y-66626897D01*
X111207795Y-66815255D01*
X111321063Y-66984773D01*
X111465226Y-67128936D01*
X111634744Y-67242204D01*
X111823102Y-67320225D01*
X112023061Y-67359999D01*
X112226939Y-67359999D01*
X112426898Y-67320225D01*
X112615256Y-67242204D01*
X112784774Y-67128936D01*
X112828711Y-67084999D01*
X116917678Y-67084999D01*
X116955000Y-67088675D01*
X116992322Y-67084999D01*
X116992333Y-67084999D01*
X117103986Y-67074002D01*
X117247247Y-67030545D01*
X117379276Y-66959973D01*
X117495001Y-66865000D01*
X117518804Y-66835996D01*
X119794802Y-64559999D01*
X119856939Y-64559999D01*
X120056898Y-64520225D01*
X120245256Y-64442204D01*
X120414774Y-64328936D01*
X120558937Y-64184773D01*
X120672205Y-64015255D01*
X120750226Y-63826897D01*
X120790000Y-63626938D01*
X120790000Y-63423060D01*
X120750226Y-63223101D01*
X120672205Y-63034743D01*
X120558937Y-62865225D01*
X120414774Y-62721062D01*
X120338376Y-62670014D01*
X120461277Y-62547113D01*
X120574545Y-62377595D01*
X120652566Y-62189237D01*
X120692340Y-61989278D01*
X120692340Y-61785400D01*
X120652566Y-61585441D01*
X120574545Y-61397083D01*
X120461277Y-61227565D01*
X120317114Y-61083402D01*
X120147596Y-60970134D01*
X119959238Y-60892113D01*
X119759279Y-60852339D01*
X119555401Y-60852339D01*
X119355442Y-60892113D01*
X119167084Y-60970134D01*
X118997566Y-61083402D01*
X118853403Y-61227565D01*
X118740135Y-61397083D01*
X118662114Y-61585441D01*
X118622340Y-61785400D01*
X118622340Y-61847537D01*
X116204879Y-64264999D01*
X112828711Y-64264999D01*
X112784774Y-64221062D01*
X112615256Y-64107794D01*
X112426898Y-64029773D01*
X112226939Y-63989999D01*
X112023061Y-63989999D01*
X111823102Y-64029773D01*
X111634744Y-64107794D01*
X111465226Y-64221062D01*
X111321063Y-64365225D01*
X111207795Y-64534743D01*
X111129774Y-64723101D01*
X111090000Y-64923060D01*
X78124759Y-64923060D01*
X79247976Y-63201363D01*
X81102192Y-60649253D01*
X81652321Y-59966983D01*
X88440000Y-59966983D01*
X88440000Y-60683015D01*
X88579691Y-61385289D01*
X88853705Y-62046817D01*
X89251511Y-62642176D01*
X89757823Y-63148488D01*
X90353182Y-63546294D01*
X91014710Y-63820308D01*
X91716984Y-63959999D01*
X92433016Y-63959999D01*
X93135290Y-63820308D01*
X93796818Y-63546294D01*
X94392177Y-63148488D01*
X94898489Y-62642176D01*
X95296295Y-62046817D01*
X95570309Y-61385289D01*
X95710000Y-60683015D01*
X95710000Y-59966983D01*
X95651766Y-59674220D01*
X135211500Y-59674220D01*
X135211500Y-60094778D01*
X135293547Y-60507255D01*
X135454488Y-60895801D01*
X135688137Y-61245482D01*
X135985517Y-61542862D01*
X136335198Y-61776511D01*
X136723744Y-61937452D01*
X137136221Y-62019499D01*
X137556779Y-62019499D01*
X137969256Y-61937452D01*
X138357802Y-61776511D01*
X138707483Y-61542862D01*
X139004863Y-61245482D01*
X139238512Y-60895801D01*
X139399453Y-60507255D01*
X139481500Y-60094778D01*
X139481500Y-59966983D01*
X164640000Y-59966983D01*
X164640000Y-60683015D01*
X164779691Y-61385289D01*
X165053705Y-62046817D01*
X165451511Y-62642176D01*
X165957823Y-63148488D01*
X166553182Y-63546294D01*
X167214710Y-63820308D01*
X167916984Y-63959999D01*
X168633016Y-63959999D01*
X169335290Y-63820308D01*
X169996818Y-63546294D01*
X170592177Y-63148488D01*
X171098489Y-62642176D01*
X171496295Y-62046817D01*
X171770309Y-61385289D01*
X171910000Y-60683015D01*
X171910000Y-59966983D01*
X171770309Y-59264709D01*
X171496295Y-58603181D01*
X171098489Y-58007822D01*
X170592177Y-57501510D01*
X169996818Y-57103704D01*
X169335290Y-56829690D01*
X168633016Y-56689999D01*
X167916984Y-56689999D01*
X167214710Y-56829690D01*
X166553182Y-57103704D01*
X165957823Y-57501510D01*
X165451511Y-58007822D01*
X165053705Y-58603181D01*
X164779691Y-59264709D01*
X164640000Y-59966983D01*
X139481500Y-59966983D01*
X139481500Y-59674220D01*
X139399453Y-59261743D01*
X139238512Y-58873197D01*
X139004863Y-58523516D01*
X138707483Y-58226136D01*
X138357802Y-57992487D01*
X137969256Y-57831546D01*
X137556779Y-57749499D01*
X137136221Y-57749499D01*
X136723744Y-57831546D01*
X136335198Y-57992487D01*
X135985517Y-58226136D01*
X135688137Y-58523516D01*
X135454488Y-58873197D01*
X135293547Y-59261743D01*
X135211500Y-59674220D01*
X95651766Y-59674220D01*
X95570309Y-59264709D01*
X95296295Y-58603181D01*
X94898489Y-58007822D01*
X94392177Y-57501510D01*
X93796818Y-57103704D01*
X93135290Y-56829690D01*
X92433016Y-56689999D01*
X91716984Y-56689999D01*
X91014710Y-56829690D01*
X90353182Y-57103704D01*
X89757823Y-57501510D01*
X89251511Y-58007822D01*
X88853705Y-58603181D01*
X88579691Y-59264709D01*
X88440000Y-59966983D01*
X81652321Y-59966983D01*
X83082296Y-58193531D01*
X85183284Y-55840400D01*
X87399850Y-53595803D01*
X89726395Y-51465411D01*
X91331946Y-50137183D01*
X113472600Y-50137183D01*
X113472600Y-50853215D01*
X113612291Y-51555489D01*
X113886305Y-52217017D01*
X114284111Y-52812376D01*
X114790423Y-53318688D01*
X115385782Y-53716494D01*
X116047310Y-53990508D01*
X116749584Y-54130199D01*
X117465616Y-54130199D01*
X118167890Y-53990508D01*
X118829418Y-53716494D01*
X119424777Y-53318688D01*
X119931089Y-52812376D01*
X120328895Y-52217017D01*
X120602909Y-51555489D01*
X120669528Y-51220573D01*
X120669528Y-51995199D01*
X120710610Y-52412316D01*
X120832279Y-52813404D01*
X121029858Y-53183048D01*
X121295755Y-53507044D01*
X121619751Y-53772941D01*
X121989395Y-53970520D01*
X122390483Y-54092189D01*
X122807600Y-54133271D01*
X125807600Y-54133271D01*
X126224717Y-54092189D01*
X126625805Y-53970520D01*
X126995449Y-53772941D01*
X127319445Y-53507044D01*
X127585342Y-53183048D01*
X127782921Y-52813404D01*
X127904590Y-52412316D01*
X127945672Y-51995199D01*
X127945672Y-49806983D01*
X132040000Y-49806983D01*
X132040000Y-50523015D01*
X132179691Y-51225289D01*
X132453705Y-51886817D01*
X132851511Y-52482176D01*
X133357823Y-52988488D01*
X133953182Y-53386294D01*
X134614710Y-53660308D01*
X135316984Y-53799999D01*
X136033016Y-53799999D01*
X136735290Y-53660308D01*
X137396818Y-53386294D01*
X137992177Y-52988488D01*
X138498489Y-52482176D01*
X138896295Y-51886817D01*
X139170309Y-51225289D01*
X139239517Y-50877356D01*
X139236928Y-53164999D01*
X139249188Y-53289481D01*
X139285498Y-53409179D01*
X139344463Y-53519493D01*
X139423815Y-53616184D01*
X139520506Y-53695536D01*
X139630820Y-53754501D01*
X139750518Y-53790811D01*
X139875000Y-53803071D01*
X142589250Y-53799999D01*
X142748000Y-53641249D01*
X142748000Y-50291999D01*
X143002000Y-50291999D01*
X143002000Y-53641249D01*
X143160750Y-53799999D01*
X145875000Y-53803071D01*
X145999482Y-53790811D01*
X146119180Y-53754501D01*
X146229494Y-53695536D01*
X146326185Y-53616184D01*
X146405537Y-53519493D01*
X146464502Y-53409179D01*
X146500812Y-53289481D01*
X146513072Y-53164999D01*
X146510000Y-50450749D01*
X146351250Y-50291999D01*
X143002000Y-50291999D01*
X142748000Y-50291999D01*
X142728000Y-50291999D01*
X142728000Y-50037999D01*
X142748000Y-50037999D01*
X142748000Y-46688749D01*
X143002000Y-46688749D01*
X143002000Y-50037999D01*
X146351250Y-50037999D01*
X146510000Y-49879249D01*
X146513072Y-47164999D01*
X146500812Y-47040517D01*
X146464502Y-46920819D01*
X146405537Y-46810505D01*
X146326185Y-46713814D01*
X146229494Y-46634462D01*
X146119180Y-46575497D01*
X145999482Y-46539187D01*
X145875000Y-46526927D01*
X143160750Y-46529999D01*
X143002000Y-46688749D01*
X142748000Y-46688749D01*
X142589250Y-46529999D01*
X139875000Y-46526927D01*
X139750518Y-46539187D01*
X139630820Y-46575497D01*
X139520506Y-46634462D01*
X139423815Y-46713814D01*
X139344463Y-46810505D01*
X139285498Y-46920819D01*
X139249188Y-47040517D01*
X139236928Y-47164999D01*
X139239517Y-49452642D01*
X139170309Y-49104709D01*
X138896295Y-48443181D01*
X138498489Y-47847822D01*
X137992177Y-47341510D01*
X137396818Y-46943704D01*
X136735290Y-46669690D01*
X136033016Y-46529999D01*
X135316984Y-46529999D01*
X134614710Y-46669690D01*
X133953182Y-46943704D01*
X133357823Y-47341510D01*
X132851511Y-47847822D01*
X132453705Y-48443181D01*
X132179691Y-49104709D01*
X132040000Y-49806983D01*
X127945672Y-49806983D01*
X127945672Y-48995199D01*
X127904590Y-48578082D01*
X127782921Y-48176994D01*
X127585342Y-47807350D01*
X127319445Y-47483354D01*
X126995449Y-47217457D01*
X126625805Y-47019878D01*
X126224717Y-46898209D01*
X125807600Y-46857127D01*
X122807600Y-46857127D01*
X122390483Y-46898209D01*
X121989395Y-47019878D01*
X121619751Y-47217457D01*
X121295755Y-47483354D01*
X121029858Y-47807350D01*
X120832279Y-48176994D01*
X120710610Y-48578082D01*
X120669528Y-48995199D01*
X120669528Y-49769825D01*
X120602909Y-49434909D01*
X120328895Y-48773381D01*
X119931089Y-48178022D01*
X119424777Y-47671710D01*
X118829418Y-47273904D01*
X118167890Y-46999890D01*
X117465616Y-46860199D01*
X116749584Y-46860199D01*
X116047310Y-46999890D01*
X115385782Y-47273904D01*
X114790423Y-47671710D01*
X114284111Y-48178022D01*
X113886305Y-48773381D01*
X113612291Y-49434909D01*
X113472600Y-50137183D01*
X91331946Y-50137183D01*
X92157041Y-49454605D01*
X94685649Y-47568466D01*
X97305831Y-45811757D01*
X100010968Y-44188916D01*
X102794227Y-42704042D01*
X105648577Y-41360887D01*
X108566808Y-40162843D01*
X111541548Y-39112937D01*
X114565282Y-38213820D01*
X117630373Y-37467765D01*
X120729077Y-36876656D01*
X123853568Y-36441985D01*
X126995952Y-36164851D01*
X130148292Y-36045955D01*
X133302623Y-36085595D01*
%TA.AperFunction,Conductor*%
D26*
G36*
X133302623Y-36085595D02*
G01*
X136450979Y-36283673D01*
X139585406Y-36639688D01*
X142697987Y-37152740D01*
X145780858Y-37821533D01*
X148826233Y-38644379D01*
X151826417Y-39619198D01*
X154773834Y-40743528D01*
X157661036Y-42014529D01*
X160480731Y-43428990D01*
X163225796Y-44983338D01*
X165889297Y-46673647D01*
X168464505Y-48495647D01*
X170944915Y-50444735D01*
X173324262Y-52515988D01*
X175596535Y-54704173D01*
X177755994Y-57003764D01*
X179797185Y-59408950D01*
X181714950Y-61913657D01*
X183504446Y-64511557D01*
X185161151Y-67196088D01*
X186680882Y-69960469D01*
X188059799Y-72797715D01*
X189294419Y-75700661D01*
X190381623Y-78661973D01*
X191318665Y-81674170D01*
X192103177Y-84729644D01*
X192733178Y-87820676D01*
X193207077Y-90939458D01*
X193523676Y-94078111D01*
X193682176Y-97228708D01*
X193682176Y-100383288D01*
X193523676Y-103533885D01*
X193207077Y-106672538D01*
X192733178Y-109791320D01*
X192103177Y-112882352D01*
X191318665Y-115937826D01*
X190381623Y-118950023D01*
X189294419Y-121911335D01*
X188059799Y-124814281D01*
X186680882Y-127651527D01*
X185161151Y-130415908D01*
X183504446Y-133100439D01*
X181714950Y-135698339D01*
X179797185Y-138203046D01*
X177755994Y-140608232D01*
X175596535Y-142907823D01*
X173324262Y-145096008D01*
X170944915Y-147167261D01*
X168464505Y-149116349D01*
X165889297Y-150938349D01*
X163225796Y-152628658D01*
X160480731Y-154183006D01*
X157661036Y-155597467D01*
X154773834Y-156868468D01*
X151826417Y-157992798D01*
X148826233Y-158967617D01*
X145780858Y-159790463D01*
X142697987Y-160459256D01*
X139585406Y-160972308D01*
X136450979Y-161328323D01*
X133302623Y-161526401D01*
X130148292Y-161566041D01*
X126995952Y-161447145D01*
X123853568Y-161170011D01*
X120729077Y-160735340D01*
X117630373Y-160144231D01*
X114565282Y-159398176D01*
X111541548Y-158499059D01*
X108566808Y-157449153D01*
X105648577Y-156251109D01*
X102794227Y-154907954D01*
X100010968Y-153423080D01*
X97305831Y-151800239D01*
X94685649Y-150043530D01*
X92157041Y-148157391D01*
X89906188Y-146295322D01*
X123444000Y-146295322D01*
X123444000Y-146820676D01*
X123546492Y-147335934D01*
X123747536Y-147821297D01*
X124039406Y-148258112D01*
X124410887Y-148629593D01*
X124847702Y-148921463D01*
X125333065Y-149122507D01*
X125848323Y-149224999D01*
X126373677Y-149224999D01*
X126888935Y-149122507D01*
X127374298Y-148921463D01*
X127811113Y-148629593D01*
X128182594Y-148258112D01*
X128474464Y-147821297D01*
X128675508Y-147335934D01*
X128778000Y-146820676D01*
X128778000Y-146295322D01*
X128675508Y-145780064D01*
X128474464Y-145294701D01*
X128182594Y-144857886D01*
X127811113Y-144486405D01*
X127374298Y-144194535D01*
X126888935Y-143993491D01*
X126373677Y-143890999D01*
X125848323Y-143890999D01*
X125333065Y-143993491D01*
X124847702Y-144194535D01*
X124410887Y-144486405D01*
X124039406Y-144857886D01*
X123747536Y-145294701D01*
X123546492Y-145780064D01*
X123444000Y-146295322D01*
X89906188Y-146295322D01*
X89726395Y-146146585D01*
X87399850Y-144016193D01*
X85183284Y-141771596D01*
X84175619Y-140642999D01*
X99950800Y-140642999D01*
X99977540Y-140914506D01*
X100056736Y-141175579D01*
X100185344Y-141416187D01*
X100358419Y-141627080D01*
X100569312Y-141800155D01*
X100809920Y-141928763D01*
X101070993Y-142007959D01*
X101342500Y-142034699D01*
X101614007Y-142007959D01*
X101875080Y-141928763D01*
X102115688Y-141800155D01*
X102273733Y-141670451D01*
X103604185Y-140339999D01*
X107847730Y-140339999D01*
X107847274Y-140341101D01*
X107807500Y-140541060D01*
X107807500Y-140744938D01*
X107847274Y-140944897D01*
X107925295Y-141133255D01*
X108038563Y-141302773D01*
X108182726Y-141446936D01*
X108352244Y-141560204D01*
X108540602Y-141638225D01*
X108740561Y-141677999D01*
X108944439Y-141677999D01*
X109144398Y-141638225D01*
X109332756Y-141560204D01*
X109502274Y-141446936D01*
X109646437Y-141302773D01*
X109759705Y-141133255D01*
X109837726Y-140944897D01*
X109877500Y-140744938D01*
X109877500Y-140541060D01*
X109837726Y-140341101D01*
X109837270Y-140339999D01*
X125361315Y-140339999D01*
X133145550Y-148124235D01*
X133188919Y-148177080D01*
X133241764Y-148220449D01*
X133241766Y-148220451D01*
X133287656Y-148258112D01*
X133399812Y-148350156D01*
X133640419Y-148478763D01*
X133901493Y-148557959D01*
X134104963Y-148577999D01*
X134104972Y-148577999D01*
X134172999Y-148584699D01*
X134241026Y-148577999D01*
X137345971Y-148577999D01*
X137414000Y-148584699D01*
X137482029Y-148577999D01*
X137482037Y-148577999D01*
X137685507Y-148557959D01*
X137946581Y-148478763D01*
X138187188Y-148350156D01*
X138398081Y-148177080D01*
X138441454Y-148124230D01*
X140336241Y-146229444D01*
X140389080Y-146186080D01*
X140432445Y-146133240D01*
X140432452Y-146133233D01*
X140562156Y-145975188D01*
X140562157Y-145975187D01*
X140690764Y-145734580D01*
X140769960Y-145473506D01*
X140790000Y-145270036D01*
X140790000Y-145270027D01*
X140796700Y-145202000D01*
X140790000Y-145133973D01*
X140790000Y-136166983D01*
X164640000Y-136166983D01*
X164640000Y-136883015D01*
X164779691Y-137585289D01*
X165053705Y-138246817D01*
X165451511Y-138842176D01*
X165957823Y-139348488D01*
X166553182Y-139746294D01*
X167214710Y-140020308D01*
X167916984Y-140159999D01*
X168633016Y-140159999D01*
X169335290Y-140020308D01*
X169996818Y-139746294D01*
X170592177Y-139348488D01*
X171098489Y-138842176D01*
X171496295Y-138246817D01*
X171770309Y-137585289D01*
X171910000Y-136883015D01*
X171910000Y-136166983D01*
X171770309Y-135464709D01*
X171496295Y-134803181D01*
X171098489Y-134207822D01*
X170592177Y-133701510D01*
X169996818Y-133303704D01*
X169335290Y-133029690D01*
X168633016Y-132889999D01*
X167916984Y-132889999D01*
X167214710Y-133029690D01*
X166553182Y-133303704D01*
X165957823Y-133701510D01*
X165451511Y-134207822D01*
X165053705Y-134803181D01*
X164779691Y-135464709D01*
X164640000Y-136166983D01*
X140790000Y-136166983D01*
X140790000Y-110403547D01*
X140891450Y-110555378D01*
X141112221Y-110776149D01*
X141371821Y-110949608D01*
X141660273Y-111069088D01*
X141966491Y-111129999D01*
X142278709Y-111129999D01*
X142584927Y-111069088D01*
X142873379Y-110949608D01*
X143132979Y-110776149D01*
X143353750Y-110555378D01*
X143527209Y-110295778D01*
X143646689Y-110007326D01*
X143707600Y-109701108D01*
X143707600Y-109388890D01*
X143646689Y-109082672D01*
X143527209Y-108794220D01*
X143353750Y-108534620D01*
X143132979Y-108313849D01*
X143074836Y-108274999D01*
X143132979Y-108236149D01*
X143353750Y-108015378D01*
X143527209Y-107755778D01*
X143646689Y-107467326D01*
X143707600Y-107161108D01*
X143707600Y-106848890D01*
X143646689Y-106542672D01*
X143527209Y-106254220D01*
X143353750Y-105994620D01*
X143132979Y-105773849D01*
X143074836Y-105734999D01*
X143132979Y-105696149D01*
X143353750Y-105475378D01*
X143527209Y-105215778D01*
X143646689Y-104927326D01*
X143707600Y-104621108D01*
X143707600Y-104308890D01*
X143646689Y-104002672D01*
X143527209Y-103714220D01*
X143353750Y-103454620D01*
X143132979Y-103233849D01*
X143074836Y-103194999D01*
X143132979Y-103156149D01*
X143353750Y-102935378D01*
X143527209Y-102675778D01*
X143646689Y-102387326D01*
X143707600Y-102081108D01*
X143707600Y-101768890D01*
X143646689Y-101462672D01*
X143527209Y-101174220D01*
X143353750Y-100914620D01*
X143132979Y-100693849D01*
X143074836Y-100654999D01*
X143132979Y-100616149D01*
X143353750Y-100395378D01*
X143527209Y-100135778D01*
X143646689Y-99847326D01*
X143707600Y-99541108D01*
X143707600Y-99228890D01*
X143646689Y-98922672D01*
X143527209Y-98634220D01*
X143353750Y-98374620D01*
X143132979Y-98153849D01*
X143000924Y-98065612D01*
X143042747Y-97944751D01*
X142122600Y-97024604D01*
X141202453Y-97944751D01*
X141244276Y-98065612D01*
X141112221Y-98153849D01*
X141091526Y-98174544D01*
X140991812Y-98227842D01*
X140991810Y-98227843D01*
X140991811Y-98227843D01*
X140833766Y-98357547D01*
X140833764Y-98357549D01*
X140780919Y-98400918D01*
X140737550Y-98453763D01*
X140529407Y-98661906D01*
X140389081Y-98490918D01*
X140336236Y-98447549D01*
X138798259Y-96909572D01*
X140531241Y-96909572D01*
X140574416Y-97218790D01*
X140677087Y-97513643D01*
X140763558Y-97675420D01*
X141022848Y-97765146D01*
X141942995Y-96844999D01*
X142302205Y-96844999D01*
X143222352Y-97765146D01*
X143481642Y-97675420D01*
X143617535Y-97394328D01*
X143695979Y-97092126D01*
X143713959Y-96780426D01*
X143670784Y-96471208D01*
X143568113Y-96176355D01*
X143481642Y-96014578D01*
X143222352Y-95924852D01*
X142302205Y-96844999D01*
X141942995Y-96844999D01*
X141022848Y-95924852D01*
X140763558Y-96014578D01*
X140627665Y-96295670D01*
X140549221Y-96597872D01*
X140531241Y-96909572D01*
X138798259Y-96909572D01*
X137633934Y-95745247D01*
X141202453Y-95745247D01*
X142122600Y-96665394D01*
X143042747Y-95745247D01*
X142953021Y-95485957D01*
X142671929Y-95350064D01*
X142369727Y-95271620D01*
X142058027Y-95253640D01*
X141748809Y-95296815D01*
X141453956Y-95399486D01*
X141292179Y-95485957D01*
X141202453Y-95745247D01*
X137633934Y-95745247D01*
X137170000Y-95281314D01*
X137170000Y-80430911D01*
X147672600Y-80430911D01*
X147672600Y-80706687D01*
X147726401Y-80977164D01*
X147831936Y-81231948D01*
X147985149Y-81461247D01*
X148180152Y-81656250D01*
X148409451Y-81809463D01*
X148480274Y-81838799D01*
X148409451Y-81868135D01*
X148180152Y-82021348D01*
X147985149Y-82216351D01*
X147831936Y-82445650D01*
X147726401Y-82700434D01*
X147672600Y-82970911D01*
X147672600Y-83246687D01*
X147726401Y-83517164D01*
X147831936Y-83771948D01*
X147985149Y-84001247D01*
X148180152Y-84196250D01*
X148409451Y-84349463D01*
X148480274Y-84378799D01*
X148409451Y-84408135D01*
X148180152Y-84561348D01*
X147985149Y-84756351D01*
X147831936Y-84985650D01*
X147726401Y-85240434D01*
X147672600Y-85510911D01*
X147672600Y-85786687D01*
X147726401Y-86057164D01*
X147831936Y-86311948D01*
X147985149Y-86541247D01*
X148180152Y-86736250D01*
X148409451Y-86889463D01*
X148480274Y-86918799D01*
X148409451Y-86948135D01*
X148180152Y-87101348D01*
X147985149Y-87296351D01*
X147831936Y-87525650D01*
X147726401Y-87780434D01*
X147672600Y-88050911D01*
X147672600Y-88326687D01*
X147726401Y-88597164D01*
X147831936Y-88851948D01*
X147985149Y-89081247D01*
X148180152Y-89276250D01*
X148409451Y-89429463D01*
X148480274Y-89458799D01*
X148409451Y-89488135D01*
X148180152Y-89641348D01*
X147985149Y-89836351D01*
X147831936Y-90065650D01*
X147726401Y-90320434D01*
X147672600Y-90590911D01*
X147672600Y-90866687D01*
X147726401Y-91137164D01*
X147831936Y-91391948D01*
X147985149Y-91621247D01*
X148180152Y-91816250D01*
X148409451Y-91969463D01*
X148480274Y-91998799D01*
X148409451Y-92028135D01*
X148180152Y-92181348D01*
X147985149Y-92376351D01*
X147831936Y-92605650D01*
X147726401Y-92860434D01*
X147672600Y-93130911D01*
X147672600Y-93406687D01*
X147726401Y-93677164D01*
X147831936Y-93931948D01*
X147985149Y-94161247D01*
X148180152Y-94356250D01*
X148409451Y-94509463D01*
X148480274Y-94538799D01*
X148409451Y-94568135D01*
X148180152Y-94721348D01*
X147985149Y-94916351D01*
X147831936Y-95145650D01*
X147726401Y-95400434D01*
X147672600Y-95670911D01*
X147672600Y-95946687D01*
X147726401Y-96217164D01*
X147831936Y-96471948D01*
X147985149Y-96701247D01*
X148180152Y-96896250D01*
X148409451Y-97049463D01*
X148480274Y-97078799D01*
X148409451Y-97108135D01*
X148180152Y-97261348D01*
X147985149Y-97456351D01*
X147831936Y-97685650D01*
X147726401Y-97940434D01*
X147672600Y-98210911D01*
X147672600Y-98486687D01*
X147726401Y-98757164D01*
X147831936Y-99011948D01*
X147985149Y-99241247D01*
X148180152Y-99436250D01*
X148409451Y-99589463D01*
X148480274Y-99618799D01*
X148409451Y-99648135D01*
X148180152Y-99801348D01*
X147985149Y-99996351D01*
X147831936Y-100225650D01*
X147726401Y-100480434D01*
X147672600Y-100750911D01*
X147672600Y-101026687D01*
X147726401Y-101297164D01*
X147831936Y-101551948D01*
X147985149Y-101781247D01*
X148180152Y-101976250D01*
X148409451Y-102129463D01*
X148480274Y-102158799D01*
X148409451Y-102188135D01*
X148180152Y-102341348D01*
X147985149Y-102536351D01*
X147831936Y-102765650D01*
X147726401Y-103020434D01*
X147672600Y-103290911D01*
X147672600Y-103566687D01*
X147726401Y-103837164D01*
X147831936Y-104091948D01*
X147985149Y-104321247D01*
X148180152Y-104516250D01*
X148409451Y-104669463D01*
X148480274Y-104698799D01*
X148409451Y-104728135D01*
X148180152Y-104881348D01*
X147985149Y-105076351D01*
X147831936Y-105305650D01*
X147726401Y-105560434D01*
X147672600Y-105830911D01*
X147672600Y-106106687D01*
X147726401Y-106377164D01*
X147831936Y-106631948D01*
X147985149Y-106861247D01*
X148180152Y-107056250D01*
X148409451Y-107209463D01*
X148480274Y-107238799D01*
X148409451Y-107268135D01*
X148180152Y-107421348D01*
X147985149Y-107616351D01*
X147831936Y-107845650D01*
X147726401Y-108100434D01*
X147672600Y-108370911D01*
X147672600Y-108646687D01*
X147726401Y-108917164D01*
X147831936Y-109171948D01*
X147985149Y-109401247D01*
X148180152Y-109596250D01*
X148409451Y-109749463D01*
X148480274Y-109778799D01*
X148409451Y-109808135D01*
X148180152Y-109961348D01*
X147985149Y-110156351D01*
X147831936Y-110385650D01*
X147726401Y-110640434D01*
X147672600Y-110910911D01*
X147672600Y-111186687D01*
X147726401Y-111457164D01*
X147831936Y-111711948D01*
X147985149Y-111941247D01*
X148180152Y-112136250D01*
X148409451Y-112289463D01*
X148664235Y-112394998D01*
X148934712Y-112448799D01*
X149210488Y-112448799D01*
X149480965Y-112394998D01*
X149735749Y-112289463D01*
X149965048Y-112136250D01*
X150160051Y-111941247D01*
X150313264Y-111711948D01*
X150342600Y-111641125D01*
X150371936Y-111711948D01*
X150525149Y-111941247D01*
X150720152Y-112136250D01*
X150949451Y-112289463D01*
X151204235Y-112394998D01*
X151474712Y-112448799D01*
X151750488Y-112448799D01*
X152020965Y-112394998D01*
X152275749Y-112289463D01*
X152505048Y-112136250D01*
X152700051Y-111941247D01*
X152853264Y-111711948D01*
X152882600Y-111641125D01*
X152911936Y-111711948D01*
X153065149Y-111941247D01*
X153260152Y-112136250D01*
X153489451Y-112289463D01*
X153744235Y-112394998D01*
X154014712Y-112448799D01*
X154290488Y-112448799D01*
X154560965Y-112394998D01*
X154815749Y-112289463D01*
X155045048Y-112136250D01*
X155240051Y-111941247D01*
X155393264Y-111711948D01*
X155422600Y-111641125D01*
X155451936Y-111711948D01*
X155605149Y-111941247D01*
X155800152Y-112136250D01*
X156029451Y-112289463D01*
X156284235Y-112394998D01*
X156554712Y-112448799D01*
X156830488Y-112448799D01*
X157100965Y-112394998D01*
X157355749Y-112289463D01*
X157585048Y-112136250D01*
X157780051Y-111941247D01*
X157933264Y-111711948D01*
X157962600Y-111641125D01*
X157991936Y-111711948D01*
X158145149Y-111941247D01*
X158340152Y-112136250D01*
X158569451Y-112289463D01*
X158824235Y-112394998D01*
X159094712Y-112448799D01*
X159370488Y-112448799D01*
X159640965Y-112394998D01*
X159895749Y-112289463D01*
X160125048Y-112136250D01*
X160320051Y-111941247D01*
X160473264Y-111711948D01*
X160502600Y-111641125D01*
X160531936Y-111711948D01*
X160685149Y-111941247D01*
X160880152Y-112136250D01*
X161109451Y-112289463D01*
X161364235Y-112394998D01*
X161634712Y-112448799D01*
X161910488Y-112448799D01*
X162180965Y-112394998D01*
X162435749Y-112289463D01*
X162665048Y-112136250D01*
X162860051Y-111941247D01*
X163013264Y-111711948D01*
X163042600Y-111641125D01*
X163071936Y-111711948D01*
X163225149Y-111941247D01*
X163420152Y-112136250D01*
X163649451Y-112289463D01*
X163904235Y-112394998D01*
X164174712Y-112448799D01*
X164450488Y-112448799D01*
X164720965Y-112394998D01*
X164975749Y-112289463D01*
X165205048Y-112136250D01*
X165400051Y-111941247D01*
X165553264Y-111711948D01*
X165658799Y-111457164D01*
X165712600Y-111186687D01*
X165712600Y-110910911D01*
X165658799Y-110640434D01*
X165553264Y-110385650D01*
X165400051Y-110156351D01*
X165205048Y-109961348D01*
X164975749Y-109808135D01*
X164904926Y-109778799D01*
X164975749Y-109749463D01*
X165205048Y-109596250D01*
X165400051Y-109401247D01*
X165553264Y-109171948D01*
X165658799Y-108917164D01*
X165712600Y-108646687D01*
X165712600Y-108370911D01*
X165658799Y-108100434D01*
X165553264Y-107845650D01*
X165400051Y-107616351D01*
X165205048Y-107421348D01*
X164975749Y-107268135D01*
X164904926Y-107238799D01*
X164975749Y-107209463D01*
X165205048Y-107056250D01*
X165400051Y-106861247D01*
X165553264Y-106631948D01*
X165658799Y-106377164D01*
X165712600Y-106106687D01*
X165712600Y-105830911D01*
X165658799Y-105560434D01*
X165553264Y-105305650D01*
X165400051Y-105076351D01*
X165205048Y-104881348D01*
X164975749Y-104728135D01*
X164904926Y-104698799D01*
X164975749Y-104669463D01*
X165205048Y-104516250D01*
X165400051Y-104321247D01*
X165553264Y-104091948D01*
X165658799Y-103837164D01*
X165712600Y-103566687D01*
X165712600Y-103290911D01*
X165658799Y-103020434D01*
X165553264Y-102765650D01*
X165400051Y-102536351D01*
X165205048Y-102341348D01*
X164975749Y-102188135D01*
X164904926Y-102158799D01*
X164975749Y-102129463D01*
X165205048Y-101976250D01*
X165400051Y-101781247D01*
X165553264Y-101551948D01*
X165658799Y-101297164D01*
X165712600Y-101026687D01*
X165712600Y-100750911D01*
X165658799Y-100480434D01*
X165553264Y-100225650D01*
X165400051Y-99996351D01*
X165205048Y-99801348D01*
X164975749Y-99648135D01*
X164904926Y-99618799D01*
X164975749Y-99589463D01*
X165205048Y-99436250D01*
X165400051Y-99241247D01*
X165553264Y-99011948D01*
X165658799Y-98757164D01*
X165712600Y-98486687D01*
X165712600Y-98210911D01*
X165658799Y-97940434D01*
X165553264Y-97685650D01*
X165400051Y-97456351D01*
X165205048Y-97261348D01*
X164975749Y-97108135D01*
X164904926Y-97078799D01*
X164975749Y-97049463D01*
X165205048Y-96896250D01*
X165400051Y-96701247D01*
X165553264Y-96471948D01*
X165658799Y-96217164D01*
X165712600Y-95946687D01*
X165712600Y-95670911D01*
X165658799Y-95400434D01*
X165553264Y-95145650D01*
X165400051Y-94916351D01*
X165205048Y-94721348D01*
X164975749Y-94568135D01*
X164904926Y-94538799D01*
X164975749Y-94509463D01*
X165205048Y-94356250D01*
X165400051Y-94161247D01*
X165553264Y-93931948D01*
X165658799Y-93677164D01*
X165712600Y-93406687D01*
X165712600Y-93130911D01*
X165658799Y-92860434D01*
X165553264Y-92605650D01*
X165400051Y-92376351D01*
X165205048Y-92181348D01*
X164975749Y-92028135D01*
X164904926Y-91998799D01*
X164975749Y-91969463D01*
X165205048Y-91816250D01*
X165400051Y-91621247D01*
X165553264Y-91391948D01*
X165658799Y-91137164D01*
X165712600Y-90866687D01*
X165712600Y-90590911D01*
X165658799Y-90320434D01*
X165553264Y-90065650D01*
X165400051Y-89836351D01*
X165205048Y-89641348D01*
X164975749Y-89488135D01*
X164904926Y-89458799D01*
X164975749Y-89429463D01*
X165205048Y-89276250D01*
X165400051Y-89081247D01*
X165553264Y-88851948D01*
X165658799Y-88597164D01*
X165712600Y-88326687D01*
X165712600Y-88050911D01*
X165658799Y-87780434D01*
X165553264Y-87525650D01*
X165400051Y-87296351D01*
X165205048Y-87101348D01*
X164975749Y-86948135D01*
X164904926Y-86918799D01*
X164975749Y-86889463D01*
X165205048Y-86736250D01*
X165400051Y-86541247D01*
X165553264Y-86311948D01*
X165658799Y-86057164D01*
X165712600Y-85786687D01*
X165712600Y-85510911D01*
X165658799Y-85240434D01*
X165553264Y-84985650D01*
X165400051Y-84756351D01*
X165205048Y-84561348D01*
X164975749Y-84408135D01*
X164904926Y-84378799D01*
X164975749Y-84349463D01*
X165205048Y-84196250D01*
X165400051Y-84001247D01*
X165553264Y-83771948D01*
X165658799Y-83517164D01*
X165712600Y-83246687D01*
X165712600Y-82970911D01*
X165658799Y-82700434D01*
X165553264Y-82445650D01*
X165400051Y-82216351D01*
X165205048Y-82021348D01*
X164975749Y-81868135D01*
X164904926Y-81838799D01*
X164975749Y-81809463D01*
X165205048Y-81656250D01*
X165400051Y-81461247D01*
X165553264Y-81231948D01*
X165658799Y-80977164D01*
X165712600Y-80706687D01*
X165712600Y-80430911D01*
X165658799Y-80160434D01*
X165553264Y-79905650D01*
X165400051Y-79676351D01*
X165205048Y-79481348D01*
X164975749Y-79328135D01*
X164904926Y-79298799D01*
X164975749Y-79269463D01*
X165205048Y-79116250D01*
X165400051Y-78921247D01*
X165553264Y-78691948D01*
X165658799Y-78437164D01*
X165712600Y-78166687D01*
X165712600Y-77890911D01*
X165658799Y-77620434D01*
X165553264Y-77365650D01*
X165400051Y-77136351D01*
X165205048Y-76941348D01*
X164975749Y-76788135D01*
X164720965Y-76682600D01*
X164450488Y-76628799D01*
X164174712Y-76628799D01*
X163904235Y-76682600D01*
X163649451Y-76788135D01*
X163420152Y-76941348D01*
X163225149Y-77136351D01*
X163071936Y-77365650D01*
X162966401Y-77620434D01*
X162912600Y-77890911D01*
X162912600Y-78166687D01*
X162966401Y-78437164D01*
X163071936Y-78691948D01*
X163225149Y-78921247D01*
X163420152Y-79116250D01*
X163649451Y-79269463D01*
X163720274Y-79298799D01*
X163649451Y-79328135D01*
X163420152Y-79481348D01*
X163225149Y-79676351D01*
X163071936Y-79905650D01*
X162966401Y-80160434D01*
X162912600Y-80430911D01*
X162912600Y-80706687D01*
X162966401Y-80977164D01*
X163071936Y-81231948D01*
X163225149Y-81461247D01*
X163420152Y-81656250D01*
X163649451Y-81809463D01*
X163720274Y-81838799D01*
X163649451Y-81868135D01*
X163420152Y-82021348D01*
X163225149Y-82216351D01*
X163071936Y-82445650D01*
X162966401Y-82700434D01*
X162912600Y-82970911D01*
X162912600Y-83246687D01*
X162966401Y-83517164D01*
X163071936Y-83771948D01*
X163225149Y-84001247D01*
X163420152Y-84196250D01*
X163649451Y-84349463D01*
X163720274Y-84378799D01*
X163649451Y-84408135D01*
X163420152Y-84561348D01*
X163225149Y-84756351D01*
X163071936Y-84985650D01*
X162966401Y-85240434D01*
X162912600Y-85510911D01*
X162912600Y-85786687D01*
X162966401Y-86057164D01*
X163071936Y-86311948D01*
X163225149Y-86541247D01*
X163420152Y-86736250D01*
X163649451Y-86889463D01*
X163720274Y-86918799D01*
X163649451Y-86948135D01*
X163420152Y-87101348D01*
X163225149Y-87296351D01*
X163071936Y-87525650D01*
X162966401Y-87780434D01*
X162912600Y-88050911D01*
X162912600Y-88326687D01*
X162966401Y-88597164D01*
X163071936Y-88851948D01*
X163225149Y-89081247D01*
X163420152Y-89276250D01*
X163649451Y-89429463D01*
X163720274Y-89458799D01*
X163649451Y-89488135D01*
X163420152Y-89641348D01*
X163225149Y-89836351D01*
X163071936Y-90065650D01*
X162966401Y-90320434D01*
X162912600Y-90590911D01*
X162912600Y-90866687D01*
X162966401Y-91137164D01*
X163071936Y-91391948D01*
X163225149Y-91621247D01*
X163420152Y-91816250D01*
X163649451Y-91969463D01*
X163720274Y-91998799D01*
X163649451Y-92028135D01*
X163420152Y-92181348D01*
X163225149Y-92376351D01*
X163071936Y-92605650D01*
X162966401Y-92860434D01*
X162912600Y-93130911D01*
X162912600Y-93406687D01*
X162966401Y-93677164D01*
X163071936Y-93931948D01*
X163225149Y-94161247D01*
X163420152Y-94356250D01*
X163649451Y-94509463D01*
X163720274Y-94538799D01*
X163649451Y-94568135D01*
X163420152Y-94721348D01*
X163225149Y-94916351D01*
X163071936Y-95145650D01*
X162966401Y-95400434D01*
X162912600Y-95670911D01*
X162912600Y-95946687D01*
X162966401Y-96217164D01*
X163071936Y-96471948D01*
X163225149Y-96701247D01*
X163420152Y-96896250D01*
X163649451Y-97049463D01*
X163720274Y-97078799D01*
X163649451Y-97108135D01*
X163420152Y-97261348D01*
X163225149Y-97456351D01*
X163071936Y-97685650D01*
X162966401Y-97940434D01*
X162912600Y-98210911D01*
X162912600Y-98486687D01*
X162966401Y-98757164D01*
X163071936Y-99011948D01*
X163225149Y-99241247D01*
X163420152Y-99436250D01*
X163649451Y-99589463D01*
X163720274Y-99618799D01*
X163649451Y-99648135D01*
X163420152Y-99801348D01*
X163225149Y-99996351D01*
X163071936Y-100225650D01*
X162966401Y-100480434D01*
X162912600Y-100750911D01*
X162912600Y-101026687D01*
X162966401Y-101297164D01*
X163071936Y-101551948D01*
X163225149Y-101781247D01*
X163420152Y-101976250D01*
X163649451Y-102129463D01*
X163720274Y-102158799D01*
X163649451Y-102188135D01*
X163420152Y-102341348D01*
X163225149Y-102536351D01*
X163071936Y-102765650D01*
X162966401Y-103020434D01*
X162912600Y-103290911D01*
X162912600Y-103566687D01*
X162966401Y-103837164D01*
X163071936Y-104091948D01*
X163225149Y-104321247D01*
X163420152Y-104516250D01*
X163649451Y-104669463D01*
X163720274Y-104698799D01*
X163649451Y-104728135D01*
X163420152Y-104881348D01*
X163225149Y-105076351D01*
X163071936Y-105305650D01*
X162966401Y-105560434D01*
X162912600Y-105830911D01*
X162912600Y-106106687D01*
X162966401Y-106377164D01*
X163071936Y-106631948D01*
X163225149Y-106861247D01*
X163420152Y-107056250D01*
X163649451Y-107209463D01*
X163720274Y-107238799D01*
X163649451Y-107268135D01*
X163420152Y-107421348D01*
X163225149Y-107616351D01*
X163071936Y-107845650D01*
X162966401Y-108100434D01*
X162912600Y-108370911D01*
X162912600Y-108646687D01*
X162966401Y-108917164D01*
X163071936Y-109171948D01*
X163225149Y-109401247D01*
X163420152Y-109596250D01*
X163649451Y-109749463D01*
X163720274Y-109778799D01*
X163649451Y-109808135D01*
X163420152Y-109961348D01*
X163225149Y-110156351D01*
X163071936Y-110385650D01*
X163042600Y-110456473D01*
X163013264Y-110385650D01*
X162860051Y-110156351D01*
X162665048Y-109961348D01*
X162435749Y-109808135D01*
X162180965Y-109702600D01*
X161910488Y-109648799D01*
X161634712Y-109648799D01*
X161364235Y-109702600D01*
X161109451Y-109808135D01*
X160880152Y-109961348D01*
X160685149Y-110156351D01*
X160531936Y-110385650D01*
X160502600Y-110456473D01*
X160473264Y-110385650D01*
X160320051Y-110156351D01*
X160125048Y-109961348D01*
X159895749Y-109808135D01*
X159640965Y-109702600D01*
X159370488Y-109648799D01*
X159094712Y-109648799D01*
X158824235Y-109702600D01*
X158569451Y-109808135D01*
X158340152Y-109961348D01*
X158145149Y-110156351D01*
X157991936Y-110385650D01*
X157962600Y-110456473D01*
X157933264Y-110385650D01*
X157780051Y-110156351D01*
X157585048Y-109961348D01*
X157355749Y-109808135D01*
X157100965Y-109702600D01*
X156830488Y-109648799D01*
X156554712Y-109648799D01*
X156284235Y-109702600D01*
X156029451Y-109808135D01*
X155800152Y-109961348D01*
X155605149Y-110156351D01*
X155451936Y-110385650D01*
X155422600Y-110456473D01*
X155393264Y-110385650D01*
X155240051Y-110156351D01*
X155045048Y-109961348D01*
X154815749Y-109808135D01*
X154560965Y-109702600D01*
X154290488Y-109648799D01*
X154014712Y-109648799D01*
X153744235Y-109702600D01*
X153489451Y-109808135D01*
X153260152Y-109961348D01*
X153065149Y-110156351D01*
X152911936Y-110385650D01*
X152882600Y-110456473D01*
X152853264Y-110385650D01*
X152700051Y-110156351D01*
X152505048Y-109961348D01*
X152275749Y-109808135D01*
X152020965Y-109702600D01*
X151750488Y-109648799D01*
X151474712Y-109648799D01*
X151204235Y-109702600D01*
X150949451Y-109808135D01*
X150720152Y-109961348D01*
X150525149Y-110156351D01*
X150371936Y-110385650D01*
X150342600Y-110456473D01*
X150313264Y-110385650D01*
X150160051Y-110156351D01*
X149965048Y-109961348D01*
X149735749Y-109808135D01*
X149664926Y-109778799D01*
X149735749Y-109749463D01*
X149965048Y-109596250D01*
X150160051Y-109401247D01*
X150313264Y-109171948D01*
X150418799Y-108917164D01*
X150472600Y-108646687D01*
X150472600Y-108370911D01*
X150418799Y-108100434D01*
X150313264Y-107845650D01*
X150160051Y-107616351D01*
X149965048Y-107421348D01*
X149735749Y-107268135D01*
X149664926Y-107238799D01*
X149735749Y-107209463D01*
X149965048Y-107056250D01*
X150160051Y-106861247D01*
X150313264Y-106631948D01*
X150418799Y-106377164D01*
X150472600Y-106106687D01*
X150472600Y-105830911D01*
X150418799Y-105560434D01*
X150313264Y-105305650D01*
X150160051Y-105076351D01*
X149965048Y-104881348D01*
X149735749Y-104728135D01*
X149664926Y-104698799D01*
X149735749Y-104669463D01*
X149965048Y-104516250D01*
X150160051Y-104321247D01*
X150313264Y-104091948D01*
X150418799Y-103837164D01*
X150472600Y-103566687D01*
X150472600Y-103290911D01*
X150418799Y-103020434D01*
X150313264Y-102765650D01*
X150160051Y-102536351D01*
X149965048Y-102341348D01*
X149735749Y-102188135D01*
X149664926Y-102158799D01*
X149735749Y-102129463D01*
X149965048Y-101976250D01*
X150160051Y-101781247D01*
X150313264Y-101551948D01*
X150418799Y-101297164D01*
X150472600Y-101026687D01*
X150472600Y-100750911D01*
X150418799Y-100480434D01*
X150313264Y-100225650D01*
X150160051Y-99996351D01*
X149965048Y-99801348D01*
X149735749Y-99648135D01*
X149664926Y-99618799D01*
X149735749Y-99589463D01*
X149965048Y-99436250D01*
X150160051Y-99241247D01*
X150313264Y-99011948D01*
X150418799Y-98757164D01*
X150472600Y-98486687D01*
X150472600Y-98210911D01*
X150418799Y-97940434D01*
X150313264Y-97685650D01*
X150160051Y-97456351D01*
X149965048Y-97261348D01*
X149735749Y-97108135D01*
X149664926Y-97078799D01*
X149735749Y-97049463D01*
X149965048Y-96896250D01*
X150160051Y-96701247D01*
X150313264Y-96471948D01*
X150418799Y-96217164D01*
X150472600Y-95946687D01*
X150472600Y-95670911D01*
X150418799Y-95400434D01*
X150313264Y-95145650D01*
X150160051Y-94916351D01*
X149965048Y-94721348D01*
X149735749Y-94568135D01*
X149664926Y-94538799D01*
X149735749Y-94509463D01*
X149965048Y-94356250D01*
X150160051Y-94161247D01*
X150313264Y-93931948D01*
X150418799Y-93677164D01*
X150472600Y-93406687D01*
X150472600Y-93130911D01*
X150418799Y-92860434D01*
X150313264Y-92605650D01*
X150160051Y-92376351D01*
X149965048Y-92181348D01*
X149735749Y-92028135D01*
X149664926Y-91998799D01*
X149735749Y-91969463D01*
X149965048Y-91816250D01*
X150160051Y-91621247D01*
X150313264Y-91391948D01*
X150418799Y-91137164D01*
X150472600Y-90866687D01*
X150472600Y-90590911D01*
X150418799Y-90320434D01*
X150313264Y-90065650D01*
X150160051Y-89836351D01*
X149965048Y-89641348D01*
X149735749Y-89488135D01*
X149664926Y-89458799D01*
X149735749Y-89429463D01*
X149965048Y-89276250D01*
X150160051Y-89081247D01*
X150313264Y-88851948D01*
X150418799Y-88597164D01*
X150472600Y-88326687D01*
X150472600Y-88050911D01*
X150418799Y-87780434D01*
X150313264Y-87525650D01*
X150160051Y-87296351D01*
X149965048Y-87101348D01*
X149735749Y-86948135D01*
X149664926Y-86918799D01*
X149735749Y-86889463D01*
X149965048Y-86736250D01*
X150160051Y-86541247D01*
X150313264Y-86311948D01*
X150418799Y-86057164D01*
X150472600Y-85786687D01*
X150472600Y-85510911D01*
X150418799Y-85240434D01*
X150313264Y-84985650D01*
X150160051Y-84756351D01*
X149965048Y-84561348D01*
X149735749Y-84408135D01*
X149664926Y-84378799D01*
X149735749Y-84349463D01*
X149965048Y-84196250D01*
X150160051Y-84001247D01*
X150313264Y-83771948D01*
X150418799Y-83517164D01*
X150472600Y-83246687D01*
X150472600Y-82970911D01*
X150418799Y-82700434D01*
X150313264Y-82445650D01*
X150160051Y-82216351D01*
X149965048Y-82021348D01*
X149735749Y-81868135D01*
X149664926Y-81838799D01*
X149735749Y-81809463D01*
X149965048Y-81656250D01*
X150160051Y-81461247D01*
X150313264Y-81231948D01*
X150418799Y-80977164D01*
X150472600Y-80706687D01*
X150472600Y-80430911D01*
X150418799Y-80160434D01*
X150313264Y-79905650D01*
X150160051Y-79676351D01*
X149965048Y-79481348D01*
X149735749Y-79328135D01*
X149671006Y-79301317D01*
X149676672Y-79299277D01*
X149793360Y-79236905D01*
X149860702Y-78996506D01*
X149072600Y-78208404D01*
X148284498Y-78996506D01*
X148351840Y-79236905D01*
X148481936Y-79298111D01*
X148409451Y-79328135D01*
X148180152Y-79481348D01*
X147985149Y-79676351D01*
X147831936Y-79905650D01*
X147726401Y-80160434D01*
X147672600Y-80430911D01*
X137170000Y-80430911D01*
X137170000Y-78100698D01*
X147667664Y-78100698D01*
X147708686Y-78373406D01*
X147802122Y-78632871D01*
X147864494Y-78749559D01*
X148104893Y-78816901D01*
X148892995Y-78028799D01*
X149252205Y-78028799D01*
X150040307Y-78816901D01*
X150280706Y-78749559D01*
X150398106Y-78500019D01*
X150464567Y-78232372D01*
X150477536Y-77956900D01*
X150436514Y-77684192D01*
X150343078Y-77424727D01*
X150280706Y-77308039D01*
X150040307Y-77240697D01*
X149252205Y-78028799D01*
X148892995Y-78028799D01*
X148104893Y-77240697D01*
X147864494Y-77308039D01*
X147747094Y-77557579D01*
X147680633Y-77825226D01*
X147667664Y-78100698D01*
X137170000Y-78100698D01*
X137170000Y-77061092D01*
X148284498Y-77061092D01*
X149072600Y-77849194D01*
X149860702Y-77061092D01*
X149793360Y-76820693D01*
X149543820Y-76703293D01*
X149276173Y-76636832D01*
X149000701Y-76623863D01*
X148727993Y-76664885D01*
X148468528Y-76758321D01*
X148351840Y-76820693D01*
X148284498Y-77061092D01*
X137170000Y-77061092D01*
X137170000Y-74823376D01*
X137291380Y-75005034D01*
X137485965Y-75199619D01*
X137714773Y-75352504D01*
X137969010Y-75457813D01*
X138238908Y-75511499D01*
X138514092Y-75511499D01*
X138783990Y-75457813D01*
X139038227Y-75352504D01*
X139267035Y-75199619D01*
X139461620Y-75005034D01*
X139614505Y-74776226D01*
X139719814Y-74521989D01*
X139773500Y-74252091D01*
X139773500Y-73976907D01*
X139719814Y-73707009D01*
X139614505Y-73452772D01*
X139461620Y-73223964D01*
X139267035Y-73029379D01*
X139038227Y-72876494D01*
X138943914Y-72837428D01*
X139028227Y-72802504D01*
X139257035Y-72649619D01*
X139451620Y-72455034D01*
X139604505Y-72226226D01*
X139709814Y-71971989D01*
X139763500Y-71702091D01*
X139763500Y-71426907D01*
X139709814Y-71157009D01*
X139604505Y-70902772D01*
X139451620Y-70673964D01*
X139257035Y-70479379D01*
X139028227Y-70326494D01*
X138950985Y-70294499D01*
X139028227Y-70262504D01*
X139257035Y-70109619D01*
X139451620Y-69915034D01*
X139604505Y-69686226D01*
X139709814Y-69431989D01*
X139763500Y-69162091D01*
X139763500Y-68886907D01*
X139709814Y-68617009D01*
X139604505Y-68362772D01*
X139451620Y-68133964D01*
X139257035Y-67939379D01*
X139028227Y-67786494D01*
X138956557Y-67756807D01*
X138969523Y-67752135D01*
X139085480Y-67690155D01*
X139152460Y-67450064D01*
X138366500Y-66664104D01*
X137580540Y-67450064D01*
X137647520Y-67690155D01*
X137783260Y-67753984D01*
X137704773Y-67786494D01*
X137475965Y-67939379D01*
X137281380Y-68133964D01*
X137170000Y-68300656D01*
X137170000Y-67206033D01*
X137400935Y-67270459D01*
X138186895Y-66484499D01*
X138546105Y-66484499D01*
X139332065Y-67270459D01*
X139572156Y-67203479D01*
X139689256Y-66954451D01*
X139755523Y-66687364D01*
X139768410Y-66412482D01*
X139727422Y-66140366D01*
X139634136Y-65881476D01*
X139572156Y-65765519D01*
X139332065Y-65698539D01*
X138546105Y-66484499D01*
X138186895Y-66484499D01*
X137400935Y-65698539D01*
X137170000Y-65762965D01*
X137170000Y-65329499D01*
X137633388Y-65329499D01*
X137580540Y-65518934D01*
X138366500Y-66304894D01*
X139152460Y-65518934D01*
X139085480Y-65278843D01*
X138949740Y-65215014D01*
X139028227Y-65182504D01*
X139257035Y-65029619D01*
X139451620Y-64835034D01*
X139604505Y-64606226D01*
X139709814Y-64351989D01*
X139763500Y-64082091D01*
X139763500Y-63806907D01*
X139709814Y-63537009D01*
X139604505Y-63282772D01*
X139451620Y-63053964D01*
X139257035Y-62859379D01*
X139028227Y-62706494D01*
X138773990Y-62601185D01*
X138504092Y-62547499D01*
X138228908Y-62547499D01*
X138168580Y-62559499D01*
X136653529Y-62559499D01*
X136585500Y-62552799D01*
X136517471Y-62559499D01*
X136517463Y-62559499D01*
X136337392Y-62577234D01*
X136313992Y-62579539D01*
X136052919Y-62658735D01*
X135812312Y-62787342D01*
X135601419Y-62960418D01*
X135558046Y-63013268D01*
X134853765Y-63717549D01*
X134800919Y-63760919D01*
X134757550Y-63813764D01*
X134757548Y-63813766D01*
X134746772Y-63826897D01*
X134627843Y-63971812D01*
X134593533Y-64036002D01*
X134499236Y-64212419D01*
X134466768Y-64319453D01*
X134420040Y-64473493D01*
X134400000Y-64676963D01*
X134400000Y-64676970D01*
X134393300Y-64744999D01*
X134400000Y-64813028D01*
X134400001Y-95786960D01*
X134393300Y-95854999D01*
X134420040Y-96126506D01*
X134499236Y-96387579D01*
X134627844Y-96628187D01*
X134757548Y-96786232D01*
X134757551Y-96786235D01*
X134800920Y-96839080D01*
X134853764Y-96882448D01*
X138020001Y-100048686D01*
X138020000Y-101676969D01*
X138013300Y-101744999D01*
X138020000Y-101813028D01*
X138020000Y-101813035D01*
X138020001Y-101813045D01*
X138020001Y-110637021D01*
X137861223Y-110506715D01*
X137664047Y-110401323D01*
X137450099Y-110336422D01*
X137283352Y-110319999D01*
X136901848Y-110319999D01*
X136735101Y-110336422D01*
X136521153Y-110401323D01*
X136323977Y-110506715D01*
X136151151Y-110648550D01*
X136092600Y-110719894D01*
X136034049Y-110648550D01*
X135861223Y-110506715D01*
X135664047Y-110401323D01*
X135450099Y-110336422D01*
X135283352Y-110319999D01*
X134901848Y-110319999D01*
X134735101Y-110336422D01*
X134521153Y-110401323D01*
X134323977Y-110506715D01*
X134151151Y-110648550D01*
X134092600Y-110719894D01*
X134034049Y-110648550D01*
X133861223Y-110506715D01*
X133664047Y-110401323D01*
X133450099Y-110336422D01*
X133283352Y-110319999D01*
X132901848Y-110319999D01*
X132735101Y-110336422D01*
X132521153Y-110401323D01*
X132323977Y-110506715D01*
X132151151Y-110648550D01*
X132092600Y-110719894D01*
X132034049Y-110648550D01*
X131861223Y-110506715D01*
X131664047Y-110401323D01*
X131450099Y-110336422D01*
X131283352Y-110319999D01*
X130901848Y-110319999D01*
X130735101Y-110336422D01*
X130521153Y-110401323D01*
X130323977Y-110506715D01*
X130151151Y-110648550D01*
X130092600Y-110719894D01*
X130034049Y-110648550D01*
X129861223Y-110506715D01*
X129664047Y-110401323D01*
X129450099Y-110336422D01*
X129283352Y-110319999D01*
X128901848Y-110319999D01*
X128735101Y-110336422D01*
X128521153Y-110401323D01*
X128323977Y-110506715D01*
X128151151Y-110648550D01*
X128092600Y-110719894D01*
X128034049Y-110648550D01*
X127861223Y-110506715D01*
X127664047Y-110401323D01*
X127450099Y-110336422D01*
X127283352Y-110319999D01*
X126901848Y-110319999D01*
X126735101Y-110336422D01*
X126521153Y-110401323D01*
X126323977Y-110506715D01*
X126151151Y-110648550D01*
X126092600Y-110719894D01*
X126034049Y-110648550D01*
X125861223Y-110506715D01*
X125664047Y-110401323D01*
X125450099Y-110336422D01*
X125283352Y-110319999D01*
X124901848Y-110319999D01*
X124735101Y-110336422D01*
X124521153Y-110401323D01*
X124323977Y-110506715D01*
X124151151Y-110648550D01*
X124092600Y-110719894D01*
X124034049Y-110648550D01*
X123861223Y-110506715D01*
X123664047Y-110401323D01*
X123450099Y-110336422D01*
X123283352Y-110319999D01*
X122901848Y-110319999D01*
X122735101Y-110336422D01*
X122521153Y-110401323D01*
X122323977Y-110506715D01*
X122151151Y-110648550D01*
X122009316Y-110821376D01*
X121903924Y-111018552D01*
X121839023Y-111232500D01*
X121817109Y-111454999D01*
X121839023Y-111677498D01*
X121903924Y-111891446D01*
X122009316Y-112088622D01*
X122151151Y-112261448D01*
X122323977Y-112403283D01*
X122521153Y-112508675D01*
X122735101Y-112573576D01*
X122901848Y-112589999D01*
X123283352Y-112589999D01*
X123450099Y-112573576D01*
X123664047Y-112508675D01*
X123861223Y-112403283D01*
X124034049Y-112261448D01*
X124092600Y-112190104D01*
X124151151Y-112261448D01*
X124323977Y-112403283D01*
X124521153Y-112508675D01*
X124735101Y-112573576D01*
X124901848Y-112589999D01*
X125283352Y-112589999D01*
X125450099Y-112573576D01*
X125664047Y-112508675D01*
X125861223Y-112403283D01*
X126034049Y-112261448D01*
X126092600Y-112190104D01*
X126151151Y-112261448D01*
X126323977Y-112403283D01*
X126521153Y-112508675D01*
X126735101Y-112573576D01*
X126901848Y-112589999D01*
X127283352Y-112589999D01*
X127450099Y-112573576D01*
X127664047Y-112508675D01*
X127861223Y-112403283D01*
X128034049Y-112261448D01*
X128092600Y-112190104D01*
X128151151Y-112261448D01*
X128323977Y-112403283D01*
X128521153Y-112508675D01*
X128735101Y-112573576D01*
X128901848Y-112589999D01*
X129283352Y-112589999D01*
X129450099Y-112573576D01*
X129664047Y-112508675D01*
X129861223Y-112403283D01*
X130034049Y-112261448D01*
X130092600Y-112190104D01*
X130151151Y-112261448D01*
X130323977Y-112403283D01*
X130521153Y-112508675D01*
X130735101Y-112573576D01*
X130901848Y-112589999D01*
X131283352Y-112589999D01*
X131450099Y-112573576D01*
X131664047Y-112508675D01*
X131861223Y-112403283D01*
X132034049Y-112261448D01*
X132092600Y-112190104D01*
X132151151Y-112261448D01*
X132323977Y-112403283D01*
X132521153Y-112508675D01*
X132735101Y-112573576D01*
X132901848Y-112589999D01*
X133283352Y-112589999D01*
X133450099Y-112573576D01*
X133664047Y-112508675D01*
X133861223Y-112403283D01*
X134034049Y-112261448D01*
X134092600Y-112190104D01*
X134151151Y-112261448D01*
X134323977Y-112403283D01*
X134521153Y-112508675D01*
X134735101Y-112573576D01*
X134901848Y-112589999D01*
X135283352Y-112589999D01*
X135450099Y-112573576D01*
X135664047Y-112508675D01*
X135861223Y-112403283D01*
X136034049Y-112261448D01*
X136092600Y-112190104D01*
X136151151Y-112261448D01*
X136323977Y-112403283D01*
X136521153Y-112508675D01*
X136735101Y-112573576D01*
X136901848Y-112589999D01*
X137283352Y-112589999D01*
X137450099Y-112573576D01*
X137664047Y-112508675D01*
X137861223Y-112403283D01*
X138020001Y-112272977D01*
X138020000Y-128268809D01*
X137789987Y-128173534D01*
X137540955Y-128123999D01*
X137287045Y-128123999D01*
X137038013Y-128173534D01*
X136803430Y-128270702D01*
X136592310Y-128411767D01*
X136412768Y-128591309D01*
X136271703Y-128802429D01*
X136174535Y-129037012D01*
X136125000Y-129286044D01*
X136125000Y-129539954D01*
X136174535Y-129788986D01*
X136271703Y-130023569D01*
X136412768Y-130234689D01*
X136592310Y-130414231D01*
X136803430Y-130555296D01*
X137038013Y-130652464D01*
X137191524Y-130682999D01*
X137038013Y-130713534D01*
X136803430Y-130810702D01*
X136592310Y-130951767D01*
X136412768Y-131131309D01*
X136271703Y-131342429D01*
X136174535Y-131577012D01*
X136125000Y-131826044D01*
X136125000Y-132079954D01*
X136174535Y-132328986D01*
X136271703Y-132563569D01*
X136412768Y-132774689D01*
X136592310Y-132954231D01*
X136803430Y-133095296D01*
X137038013Y-133192464D01*
X137191524Y-133222999D01*
X137038013Y-133253534D01*
X136803430Y-133350702D01*
X136592310Y-133491767D01*
X136412768Y-133671309D01*
X136271703Y-133882429D01*
X136174535Y-134117012D01*
X136125000Y-134366044D01*
X136125000Y-134619954D01*
X136174535Y-134868986D01*
X136271703Y-135103569D01*
X136412768Y-135314689D01*
X136592310Y-135494231D01*
X136803430Y-135635296D01*
X137038013Y-135732464D01*
X137191524Y-135762999D01*
X137038013Y-135793534D01*
X136803430Y-135890702D01*
X136592310Y-136031767D01*
X136412768Y-136211309D01*
X136271703Y-136422429D01*
X136174535Y-136657012D01*
X136125000Y-136906044D01*
X136125000Y-137159954D01*
X136174535Y-137408986D01*
X136271703Y-137643569D01*
X136412768Y-137854689D01*
X136592310Y-138034231D01*
X136803430Y-138175296D01*
X137038013Y-138272464D01*
X137191524Y-138302999D01*
X137038013Y-138333534D01*
X136803430Y-138430702D01*
X136592310Y-138571767D01*
X136412768Y-138751309D01*
X136271703Y-138962429D01*
X136174535Y-139197012D01*
X136125000Y-139446044D01*
X136125000Y-139699954D01*
X136174535Y-139948986D01*
X136271703Y-140183569D01*
X136412768Y-140394689D01*
X136592310Y-140574231D01*
X136803430Y-140715296D01*
X137038013Y-140812464D01*
X137191999Y-140843093D01*
X137086921Y-140859740D01*
X136848707Y-140947631D01*
X136759093Y-140995531D01*
X136705218Y-141224612D01*
X137414000Y-141933394D01*
X137428143Y-141919252D01*
X137607748Y-142098857D01*
X137593605Y-142112999D01*
X137607748Y-142127142D01*
X137428143Y-142306747D01*
X137414000Y-142292604D01*
X136705218Y-143001386D01*
X136759093Y-143230467D01*
X136989684Y-143336762D01*
X137186484Y-143384002D01*
X137038013Y-143413534D01*
X136803430Y-143510702D01*
X136592310Y-143651767D01*
X136412768Y-143831309D01*
X136271703Y-144042429D01*
X136174535Y-144277012D01*
X136125000Y-144526044D01*
X136125000Y-144779954D01*
X136174535Y-145028986D01*
X136271703Y-145263569D01*
X136412768Y-145474689D01*
X136592310Y-145654231D01*
X136803430Y-145795296D01*
X136834098Y-145807999D01*
X134746686Y-145807999D01*
X131127982Y-142189295D01*
X136121012Y-142189295D01*
X136160741Y-142440078D01*
X136248632Y-142678292D01*
X136296532Y-142767906D01*
X136525613Y-142821781D01*
X137234395Y-142112999D01*
X136525613Y-141404217D01*
X136296532Y-141458092D01*
X136190237Y-141688683D01*
X136130972Y-141935580D01*
X136121012Y-142189295D01*
X131127982Y-142189295D01*
X126962454Y-138023768D01*
X126919081Y-137970918D01*
X126708188Y-137797842D01*
X126467581Y-137669235D01*
X126206507Y-137590039D01*
X126003037Y-137569999D01*
X126003029Y-137569999D01*
X125935000Y-137563299D01*
X125866971Y-137569999D01*
X103098526Y-137569999D01*
X103030499Y-137563299D01*
X102962472Y-137569999D01*
X102962463Y-137569999D01*
X102758993Y-137590039D01*
X102497919Y-137669235D01*
X102257312Y-137797842D01*
X102046419Y-137970918D01*
X102003046Y-138023768D01*
X100315048Y-139711766D01*
X100185344Y-139869811D01*
X100056736Y-140110419D01*
X99977540Y-140371492D01*
X99950800Y-140642999D01*
X84175619Y-140642999D01*
X83082296Y-139418465D01*
X81102192Y-136962743D01*
X80524039Y-136166983D01*
X88440000Y-136166983D01*
X88440000Y-136883015D01*
X88579691Y-137585289D01*
X88853705Y-138246817D01*
X89251511Y-138842176D01*
X89757823Y-139348488D01*
X90353182Y-139746294D01*
X91014710Y-140020308D01*
X91716984Y-140159999D01*
X92433016Y-140159999D01*
X93135290Y-140020308D01*
X93796818Y-139746294D01*
X94392177Y-139348488D01*
X94898489Y-138842176D01*
X95296295Y-138246817D01*
X95570309Y-137585289D01*
X95710000Y-136883015D01*
X95710000Y-136166983D01*
X95570309Y-135464709D01*
X95296295Y-134803181D01*
X94898489Y-134207822D01*
X94392177Y-133701510D01*
X93796818Y-133303704D01*
X93135290Y-133029690D01*
X92433016Y-132889999D01*
X91716984Y-132889999D01*
X91014710Y-133029690D01*
X90353182Y-133303704D01*
X89757823Y-133701510D01*
X89251511Y-134207822D01*
X88853705Y-134803181D01*
X88579691Y-135464709D01*
X88440000Y-136166983D01*
X80524039Y-136166983D01*
X79247976Y-134410633D01*
X77524331Y-131768583D01*
X76675508Y-130312498D01*
X80097106Y-130312498D01*
X80313228Y-130679257D01*
X80773105Y-130919937D01*
X81271098Y-131066274D01*
X81788071Y-131112647D01*
X82304159Y-131057272D01*
X82799526Y-130902278D01*
X83216772Y-130679257D01*
X83432894Y-130312498D01*
X81765000Y-128644604D01*
X80097106Y-130312498D01*
X76675508Y-130312498D01*
X75935611Y-129043267D01*
X75648316Y-128488070D01*
X79117352Y-128488070D01*
X79172727Y-129004158D01*
X79327721Y-129499525D01*
X79550742Y-129916771D01*
X79917501Y-130132893D01*
X81585395Y-128464999D01*
X81944605Y-128464999D01*
X83612499Y-130132893D01*
X83979258Y-129916771D01*
X84219938Y-129456894D01*
X84226928Y-129433107D01*
X84226928Y-130364999D01*
X84239188Y-130489481D01*
X84275498Y-130609179D01*
X84334463Y-130719493D01*
X84413815Y-130816184D01*
X84510506Y-130895536D01*
X84620820Y-130954501D01*
X84740518Y-130990811D01*
X84865000Y-131003071D01*
X88665000Y-131003071D01*
X88789482Y-130990811D01*
X88909180Y-130954501D01*
X89019494Y-130895536D01*
X89116185Y-130816184D01*
X89195537Y-130719493D01*
X89254502Y-130609179D01*
X89290812Y-130489481D01*
X89303072Y-130364999D01*
X89303072Y-129785322D01*
X123444000Y-129785322D01*
X123444000Y-130310676D01*
X123546492Y-130825934D01*
X123747536Y-131311297D01*
X124039406Y-131748112D01*
X124410887Y-132119593D01*
X124847702Y-132411463D01*
X125333065Y-132612507D01*
X125848323Y-132714999D01*
X126373677Y-132714999D01*
X126888935Y-132612507D01*
X127374298Y-132411463D01*
X127811113Y-132119593D01*
X128182594Y-131748112D01*
X128474464Y-131311297D01*
X128675508Y-130825934D01*
X128778000Y-130310676D01*
X128778000Y-129785322D01*
X128675508Y-129270064D01*
X128474464Y-128784701D01*
X128182594Y-128347886D01*
X127811113Y-127976405D01*
X127374298Y-127684535D01*
X126888935Y-127483491D01*
X126373677Y-127380999D01*
X125848323Y-127380999D01*
X125333065Y-127483491D01*
X124847702Y-127684535D01*
X124410887Y-127976405D01*
X124039406Y-128347886D01*
X123747536Y-128784701D01*
X123546492Y-129270064D01*
X123444000Y-129785322D01*
X89303072Y-129785322D01*
X89303072Y-126564999D01*
X89290812Y-126440517D01*
X89254502Y-126320819D01*
X89195537Y-126210505D01*
X89116185Y-126113814D01*
X89019494Y-126034462D01*
X88909180Y-125975497D01*
X88789482Y-125939187D01*
X88665000Y-125926927D01*
X84865000Y-125926927D01*
X84740518Y-125939187D01*
X84620820Y-125975497D01*
X84510506Y-126034462D01*
X84413815Y-126113814D01*
X84334463Y-126210505D01*
X84275498Y-126320819D01*
X84239188Y-126440517D01*
X84226928Y-126564999D01*
X84226928Y-127509252D01*
X84202279Y-127430473D01*
X83979258Y-127013227D01*
X83612499Y-126797105D01*
X81944605Y-128464999D01*
X81585395Y-128464999D01*
X79917501Y-126797105D01*
X79550742Y-127013227D01*
X79310062Y-127473104D01*
X79163725Y-127971097D01*
X79117352Y-128488070D01*
X75648316Y-128488070D01*
X74680361Y-126617500D01*
X80097106Y-126617500D01*
X81765000Y-128285394D01*
X83432894Y-126617500D01*
X83216772Y-126250741D01*
X82756895Y-126010061D01*
X82258902Y-125863724D01*
X81741929Y-125817351D01*
X81225841Y-125872726D01*
X80730474Y-126027720D01*
X80313228Y-126250741D01*
X80097106Y-126617500D01*
X74680361Y-126617500D01*
X74485829Y-126241569D01*
X74166884Y-125541060D01*
X100307500Y-125541060D01*
X100307500Y-125744938D01*
X100347274Y-125944897D01*
X100425295Y-126133255D01*
X100538563Y-126302773D01*
X100682726Y-126446936D01*
X100852244Y-126560204D01*
X101040602Y-126638225D01*
X101240561Y-126677999D01*
X101444439Y-126677999D01*
X101644398Y-126638225D01*
X101832756Y-126560204D01*
X102002274Y-126446936D01*
X102146437Y-126302773D01*
X102259705Y-126133255D01*
X102337726Y-125944897D01*
X102377500Y-125744938D01*
X102377500Y-125541060D01*
X107807500Y-125541060D01*
X107807500Y-125744938D01*
X107847274Y-125944897D01*
X107925295Y-126133255D01*
X108038563Y-126302773D01*
X108182726Y-126446936D01*
X108352244Y-126560204D01*
X108540602Y-126638225D01*
X108740561Y-126677999D01*
X108944439Y-126677999D01*
X109144398Y-126638225D01*
X109332756Y-126560204D01*
X109502274Y-126446936D01*
X109646437Y-126302773D01*
X109759705Y-126133255D01*
X109837726Y-125944897D01*
X109877500Y-125744938D01*
X109877500Y-125541060D01*
X109837726Y-125341101D01*
X109759705Y-125152743D01*
X109646437Y-124983225D01*
X109502274Y-124839062D01*
X109332756Y-124725794D01*
X109144398Y-124647773D01*
X108944439Y-124607999D01*
X108740561Y-124607999D01*
X108540602Y-124647773D01*
X108352244Y-124725794D01*
X108182726Y-124839062D01*
X108038563Y-124983225D01*
X107925295Y-125152743D01*
X107847274Y-125341101D01*
X107807500Y-125541060D01*
X102377500Y-125541060D01*
X102337726Y-125341101D01*
X102259705Y-125152743D01*
X102146437Y-124983225D01*
X102002274Y-124839062D01*
X101832756Y-124725794D01*
X101644398Y-124647773D01*
X101444439Y-124607999D01*
X101240561Y-124607999D01*
X101040602Y-124647773D01*
X100852244Y-124725794D01*
X100682726Y-124839062D01*
X100538563Y-124983225D01*
X100425295Y-125152743D01*
X100347274Y-125341101D01*
X100307500Y-125541060D01*
X74166884Y-125541060D01*
X73178648Y-123370566D01*
X72344005Y-121262498D01*
X80047106Y-121262498D01*
X80263228Y-121629257D01*
X80723105Y-121869937D01*
X81221098Y-122016274D01*
X81738071Y-122062647D01*
X82254159Y-122007272D01*
X82749526Y-121852278D01*
X83166772Y-121629257D01*
X83382894Y-121262498D01*
X81715000Y-119594604D01*
X80047106Y-121262498D01*
X72344005Y-121262498D01*
X72017369Y-120437511D01*
X71678689Y-119438070D01*
X79067352Y-119438070D01*
X79122727Y-119954158D01*
X79277721Y-120449525D01*
X79500742Y-120866771D01*
X79867501Y-121082893D01*
X81535395Y-119414999D01*
X81894605Y-119414999D01*
X83562499Y-121082893D01*
X83929258Y-120866771D01*
X84169938Y-120406894D01*
X84176928Y-120383107D01*
X84176928Y-121314999D01*
X84189188Y-121439481D01*
X84225498Y-121559179D01*
X84284463Y-121669493D01*
X84363815Y-121766184D01*
X84460506Y-121845536D01*
X84570820Y-121904501D01*
X84690518Y-121940811D01*
X84815000Y-121953071D01*
X88615000Y-121953071D01*
X88739482Y-121940811D01*
X88859180Y-121904501D01*
X88969494Y-121845536D01*
X89066185Y-121766184D01*
X89145537Y-121669493D01*
X89204502Y-121559179D01*
X89240812Y-121439481D01*
X89253072Y-121314999D01*
X89253072Y-120541060D01*
X100307500Y-120541060D01*
X100307500Y-120744938D01*
X100347274Y-120944897D01*
X100425295Y-121133255D01*
X100538563Y-121302773D01*
X100682726Y-121446936D01*
X100852244Y-121560204D01*
X101040602Y-121638225D01*
X101240561Y-121677999D01*
X101444439Y-121677999D01*
X101644398Y-121638225D01*
X101832756Y-121560204D01*
X102002274Y-121446936D01*
X102146437Y-121302773D01*
X102259705Y-121133255D01*
X102337726Y-120944897D01*
X102377500Y-120744938D01*
X102377500Y-120541060D01*
X107807500Y-120541060D01*
X107807500Y-120744938D01*
X107847274Y-120944897D01*
X107925295Y-121133255D01*
X108038563Y-121302773D01*
X108182726Y-121446936D01*
X108352244Y-121560204D01*
X108540602Y-121638225D01*
X108740561Y-121677999D01*
X108944439Y-121677999D01*
X109144398Y-121638225D01*
X109332756Y-121560204D01*
X109502274Y-121446936D01*
X109646437Y-121302773D01*
X109759705Y-121133255D01*
X109837726Y-120944897D01*
X109877500Y-120744938D01*
X109877500Y-120541060D01*
X109837726Y-120341101D01*
X109759705Y-120152743D01*
X109646437Y-119983225D01*
X109502274Y-119839062D01*
X109332756Y-119725794D01*
X109144398Y-119647773D01*
X108944439Y-119607999D01*
X108740561Y-119607999D01*
X108540602Y-119647773D01*
X108352244Y-119725794D01*
X108182726Y-119839062D01*
X108038563Y-119983225D01*
X107925295Y-120152743D01*
X107847274Y-120341101D01*
X107807500Y-120541060D01*
X102377500Y-120541060D01*
X102337726Y-120341101D01*
X102259705Y-120152743D01*
X102146437Y-119983225D01*
X102002274Y-119839062D01*
X101832756Y-119725794D01*
X101644398Y-119647773D01*
X101444439Y-119607999D01*
X101240561Y-119607999D01*
X101040602Y-119647773D01*
X100852244Y-119725794D01*
X100682726Y-119839062D01*
X100538563Y-119983225D01*
X100425295Y-120152743D01*
X100347274Y-120341101D01*
X100307500Y-120541060D01*
X89253072Y-120541060D01*
X89253072Y-117514999D01*
X89240812Y-117390517D01*
X89204502Y-117270819D01*
X89145537Y-117160505D01*
X89066185Y-117063814D01*
X88969494Y-116984462D01*
X88859180Y-116925497D01*
X88739482Y-116889187D01*
X88615000Y-116876927D01*
X84815000Y-116876927D01*
X84690518Y-116889187D01*
X84570820Y-116925497D01*
X84460506Y-116984462D01*
X84363815Y-117063814D01*
X84284463Y-117160505D01*
X84225498Y-117270819D01*
X84189188Y-117390517D01*
X84176928Y-117514999D01*
X84176928Y-118459252D01*
X84152279Y-118380473D01*
X83929258Y-117963227D01*
X83562499Y-117747105D01*
X81894605Y-119414999D01*
X81535395Y-119414999D01*
X79867501Y-117747105D01*
X79500742Y-117963227D01*
X79260062Y-118423104D01*
X79113725Y-118921097D01*
X79067352Y-119438070D01*
X71678689Y-119438070D01*
X71044808Y-117567500D01*
X80047106Y-117567500D01*
X81715000Y-119235394D01*
X83382894Y-117567500D01*
X83166772Y-117200741D01*
X82706895Y-116960061D01*
X82208902Y-116813724D01*
X81691929Y-116767351D01*
X81175841Y-116822726D01*
X80680474Y-116977720D01*
X80263228Y-117200741D01*
X80047106Y-117567500D01*
X71044808Y-117567500D01*
X71004927Y-117449813D01*
X70463365Y-115541060D01*
X100307500Y-115541060D01*
X100307500Y-115744938D01*
X100347274Y-115944897D01*
X100425295Y-116133255D01*
X100538563Y-116302773D01*
X100682726Y-116446936D01*
X100852244Y-116560204D01*
X101040602Y-116638225D01*
X101240561Y-116677999D01*
X101444439Y-116677999D01*
X101644398Y-116638225D01*
X101832756Y-116560204D01*
X102002274Y-116446936D01*
X102146437Y-116302773D01*
X102259705Y-116133255D01*
X102337726Y-115944897D01*
X102377500Y-115744938D01*
X102377500Y-115541060D01*
X107807500Y-115541060D01*
X107807500Y-115744938D01*
X107847274Y-115944897D01*
X107925295Y-116133255D01*
X108038563Y-116302773D01*
X108182726Y-116446936D01*
X108352244Y-116560204D01*
X108540602Y-116638225D01*
X108740561Y-116677999D01*
X108944439Y-116677999D01*
X109144398Y-116638225D01*
X109332756Y-116560204D01*
X109502274Y-116446936D01*
X109646437Y-116302773D01*
X109759705Y-116133255D01*
X109837726Y-115944897D01*
X109877500Y-115744938D01*
X109877500Y-115541060D01*
X109837726Y-115341101D01*
X109759705Y-115152743D01*
X109646437Y-114983225D01*
X109502274Y-114839062D01*
X109332756Y-114725794D01*
X109144398Y-114647773D01*
X108944439Y-114607999D01*
X108740561Y-114607999D01*
X108540602Y-114647773D01*
X108352244Y-114725794D01*
X108182726Y-114839062D01*
X108038563Y-114983225D01*
X107925295Y-115152743D01*
X107847274Y-115341101D01*
X107807500Y-115541060D01*
X102377500Y-115541060D01*
X102337726Y-115341101D01*
X102259705Y-115152743D01*
X102146437Y-114983225D01*
X102002274Y-114839062D01*
X101832756Y-114725794D01*
X101644398Y-114647773D01*
X101444439Y-114607999D01*
X101240561Y-114607999D01*
X101040602Y-114647773D01*
X100852244Y-114725794D01*
X100682726Y-114839062D01*
X100538563Y-114983225D01*
X100425295Y-115152743D01*
X100347274Y-115341101D01*
X100307500Y-115541060D01*
X70463365Y-115541060D01*
X70143878Y-114415019D01*
X69436398Y-111340795D01*
X68884273Y-108234907D01*
X68611169Y-106073060D01*
X111015000Y-106073060D01*
X111015000Y-106276938D01*
X111054774Y-106476897D01*
X111132795Y-106665255D01*
X111246063Y-106834773D01*
X111390226Y-106978936D01*
X111559744Y-107092204D01*
X111748102Y-107170225D01*
X111948061Y-107209999D01*
X112151939Y-107209999D01*
X112351898Y-107170225D01*
X112540256Y-107092204D01*
X112709774Y-106978936D01*
X112753711Y-106934999D01*
X117317678Y-106934999D01*
X117355000Y-106938675D01*
X117392322Y-106934999D01*
X117392333Y-106934999D01*
X117503986Y-106924002D01*
X117647247Y-106880545D01*
X117779276Y-106809973D01*
X117895001Y-106715000D01*
X117918804Y-106685997D01*
X119714803Y-104889999D01*
X119776939Y-104889999D01*
X119976898Y-104850225D01*
X120165256Y-104772204D01*
X120334774Y-104658936D01*
X120478937Y-104514773D01*
X120592205Y-104345255D01*
X120670226Y-104156897D01*
X120710000Y-103956938D01*
X120710000Y-103753060D01*
X120670226Y-103553101D01*
X120592205Y-103364743D01*
X120478937Y-103195225D01*
X120334774Y-103051062D01*
X120300870Y-103028408D01*
X120434774Y-102938936D01*
X120578937Y-102794773D01*
X120692205Y-102625255D01*
X120770226Y-102436897D01*
X120810000Y-102236938D01*
X120810000Y-102033060D01*
X120770226Y-101833101D01*
X120692205Y-101644743D01*
X120578937Y-101475225D01*
X120434774Y-101331062D01*
X120265256Y-101217794D01*
X120076898Y-101139773D01*
X119876939Y-101099999D01*
X119673061Y-101099999D01*
X119473102Y-101139773D01*
X119284744Y-101217794D01*
X119115226Y-101331062D01*
X118971063Y-101475225D01*
X118857795Y-101644743D01*
X118779774Y-101833101D01*
X118740000Y-102033060D01*
X118740000Y-102095197D01*
X116720199Y-104114999D01*
X112778711Y-104114999D01*
X112734774Y-104071062D01*
X112565256Y-103957794D01*
X112376898Y-103879773D01*
X112176939Y-103839999D01*
X111973061Y-103839999D01*
X111773102Y-103879773D01*
X111584744Y-103957794D01*
X111415226Y-104071062D01*
X111271063Y-104215225D01*
X111157795Y-104384743D01*
X111079774Y-104573101D01*
X111040000Y-104773060D01*
X111040000Y-104976938D01*
X111079774Y-105176897D01*
X111157795Y-105365255D01*
X111253220Y-105508068D01*
X111246063Y-105515225D01*
X111132795Y-105684743D01*
X111054774Y-105873101D01*
X111015000Y-106073060D01*
X68611169Y-106073060D01*
X68488899Y-105105201D01*
X68251275Y-101959583D01*
X68172000Y-98805998D01*
X68251275Y-95652413D01*
X68488899Y-92506795D01*
X68613173Y-91523060D01*
X111015000Y-91523060D01*
X111015000Y-91726938D01*
X111054774Y-91926897D01*
X111132795Y-92115255D01*
X111243680Y-92281207D01*
X111157795Y-92409743D01*
X111079774Y-92598101D01*
X111040000Y-92798060D01*
X111040000Y-93001938D01*
X111079774Y-93201897D01*
X111157795Y-93390255D01*
X111271063Y-93559773D01*
X111415226Y-93703936D01*
X111584744Y-93817204D01*
X111773102Y-93895225D01*
X111973061Y-93934999D01*
X112176939Y-93934999D01*
X112376898Y-93895225D01*
X112565256Y-93817204D01*
X112734774Y-93703936D01*
X112778711Y-93659999D01*
X117097678Y-93659999D01*
X117135000Y-93663675D01*
X117172322Y-93659999D01*
X117172333Y-93659999D01*
X117283986Y-93649002D01*
X117427247Y-93605545D01*
X117559276Y-93534973D01*
X117675001Y-93440000D01*
X117698804Y-93410996D01*
X119744802Y-91364999D01*
X119806939Y-91364999D01*
X120006898Y-91325225D01*
X120195256Y-91247204D01*
X120364774Y-91133936D01*
X120508937Y-90989773D01*
X120622205Y-90820255D01*
X120700226Y-90631897D01*
X120740000Y-90431938D01*
X120740000Y-90228060D01*
X120700226Y-90028101D01*
X120622205Y-89839743D01*
X120508937Y-89670225D01*
X120368711Y-89529999D01*
X120508937Y-89389773D01*
X120622205Y-89220255D01*
X120700226Y-89031897D01*
X120740000Y-88831938D01*
X120740000Y-88628060D01*
X120700226Y-88428101D01*
X120622205Y-88239743D01*
X120508937Y-88070225D01*
X120364774Y-87926062D01*
X120195256Y-87812794D01*
X120006898Y-87734773D01*
X119806939Y-87694999D01*
X119603061Y-87694999D01*
X119403102Y-87734773D01*
X119214744Y-87812794D01*
X119045226Y-87926062D01*
X118901063Y-88070225D01*
X118787795Y-88239743D01*
X118709774Y-88428101D01*
X118670000Y-88628060D01*
X118670000Y-88690197D01*
X116495199Y-90864999D01*
X112753711Y-90864999D01*
X112709774Y-90821062D01*
X112540256Y-90707794D01*
X112351898Y-90629773D01*
X112151939Y-90589999D01*
X111948061Y-90589999D01*
X111748102Y-90629773D01*
X111559744Y-90707794D01*
X111390226Y-90821062D01*
X111246063Y-90965225D01*
X111132795Y-91134743D01*
X111054774Y-91323101D01*
X111015000Y-91523060D01*
X68613173Y-91523060D01*
X68884273Y-89377089D01*
X69436398Y-86271201D01*
X70143878Y-83196977D01*
X71004927Y-80162183D01*
X71214729Y-79543060D01*
X110990000Y-79543060D01*
X110990000Y-79746938D01*
X111029774Y-79946897D01*
X111107795Y-80135255D01*
X111221063Y-80304773D01*
X111365226Y-80448936D01*
X111534744Y-80562204D01*
X111723102Y-80640225D01*
X111923061Y-80679999D01*
X112126939Y-80679999D01*
X112326898Y-80640225D01*
X112515256Y-80562204D01*
X112684774Y-80448936D01*
X112728711Y-80404999D01*
X118901289Y-80404999D01*
X118955226Y-80458936D01*
X119124744Y-80572204D01*
X119313102Y-80650225D01*
X119338072Y-80655192D01*
X119466013Y-80694001D01*
X119614999Y-80708675D01*
X119763985Y-80694001D01*
X119891925Y-80655192D01*
X119916898Y-80650225D01*
X120105256Y-80572204D01*
X120274774Y-80458936D01*
X120418937Y-80314773D01*
X120532205Y-80145255D01*
X120610226Y-79956897D01*
X120650000Y-79756938D01*
X120650000Y-79553060D01*
X120610226Y-79353101D01*
X120532205Y-79164743D01*
X120418937Y-78995225D01*
X120348711Y-78924999D01*
X120428937Y-78844773D01*
X120542205Y-78675255D01*
X120620226Y-78486897D01*
X120660000Y-78286938D01*
X120660000Y-78083060D01*
X120620226Y-77883101D01*
X120542205Y-77694743D01*
X120428937Y-77525225D01*
X120284774Y-77381062D01*
X120115256Y-77267794D01*
X119926898Y-77189773D01*
X119726939Y-77149999D01*
X119523061Y-77149999D01*
X119323102Y-77189773D01*
X119134744Y-77267794D01*
X118965226Y-77381062D01*
X118921289Y-77424999D01*
X112878711Y-77424999D01*
X112834774Y-77381062D01*
X112665256Y-77267794D01*
X112476898Y-77189773D01*
X112276939Y-77149999D01*
X112073061Y-77149999D01*
X111873102Y-77189773D01*
X111684744Y-77267794D01*
X111515226Y-77381062D01*
X111371063Y-77525225D01*
X111257795Y-77694743D01*
X111179774Y-77883101D01*
X111140000Y-78083060D01*
X111140000Y-78286938D01*
X111179774Y-78486897D01*
X111257795Y-78675255D01*
X111367547Y-78839511D01*
X111365226Y-78841062D01*
X111221063Y-78985225D01*
X111107795Y-79154743D01*
X111029774Y-79343101D01*
X110990000Y-79543060D01*
X71214729Y-79543060D01*
X72017369Y-77174485D01*
X73178648Y-74241430D01*
X73801145Y-72874220D01*
X122011500Y-72874220D01*
X122011500Y-73294778D01*
X122093547Y-73707255D01*
X122254488Y-74095801D01*
X122488137Y-74445482D01*
X122785517Y-74742862D01*
X123135198Y-74976511D01*
X123523744Y-75137452D01*
X123936221Y-75219499D01*
X124356779Y-75219499D01*
X124769256Y-75137452D01*
X125157802Y-74976511D01*
X125507483Y-74742862D01*
X125804863Y-74445482D01*
X126038512Y-74095801D01*
X126199453Y-73707255D01*
X126281500Y-73294778D01*
X126281500Y-72874220D01*
X126199453Y-72461743D01*
X126038512Y-72073197D01*
X125804863Y-71723516D01*
X125507483Y-71426136D01*
X125157802Y-71192487D01*
X124769256Y-71031546D01*
X124356779Y-70949499D01*
X123936221Y-70949499D01*
X123523744Y-71031546D01*
X123135198Y-71192487D01*
X122785517Y-71426136D01*
X122488137Y-71723516D01*
X122254488Y-72073197D01*
X122093547Y-72461743D01*
X122011500Y-72874220D01*
X73801145Y-72874220D01*
X74485829Y-71370427D01*
X75935611Y-68568729D01*
X77524331Y-65843413D01*
X78124759Y-64923060D01*
X111090000Y-64923060D01*
X111090000Y-65126938D01*
X111129774Y-65326897D01*
X111207795Y-65515255D01*
X111314532Y-65674999D01*
X111207795Y-65834743D01*
X111129774Y-66023101D01*
X111090000Y-66223060D01*
X111090000Y-66426938D01*
X111129774Y-66626897D01*
X111207795Y-66815255D01*
X111321063Y-66984773D01*
X111465226Y-67128936D01*
X111634744Y-67242204D01*
X111823102Y-67320225D01*
X112023061Y-67359999D01*
X112226939Y-67359999D01*
X112426898Y-67320225D01*
X112615256Y-67242204D01*
X112784774Y-67128936D01*
X112828711Y-67084999D01*
X116917678Y-67084999D01*
X116955000Y-67088675D01*
X116992322Y-67084999D01*
X116992333Y-67084999D01*
X117103986Y-67074002D01*
X117247247Y-67030545D01*
X117379276Y-66959973D01*
X117495001Y-66865000D01*
X117518804Y-66835996D01*
X119794802Y-64559999D01*
X119856939Y-64559999D01*
X120056898Y-64520225D01*
X120245256Y-64442204D01*
X120414774Y-64328936D01*
X120558937Y-64184773D01*
X120672205Y-64015255D01*
X120750226Y-63826897D01*
X120790000Y-63626938D01*
X120790000Y-63423060D01*
X120750226Y-63223101D01*
X120672205Y-63034743D01*
X120558937Y-62865225D01*
X120414774Y-62721062D01*
X120338376Y-62670014D01*
X120461277Y-62547113D01*
X120574545Y-62377595D01*
X120652566Y-62189237D01*
X120692340Y-61989278D01*
X120692340Y-61785400D01*
X120652566Y-61585441D01*
X120574545Y-61397083D01*
X120461277Y-61227565D01*
X120317114Y-61083402D01*
X120147596Y-60970134D01*
X119959238Y-60892113D01*
X119759279Y-60852339D01*
X119555401Y-60852339D01*
X119355442Y-60892113D01*
X119167084Y-60970134D01*
X118997566Y-61083402D01*
X118853403Y-61227565D01*
X118740135Y-61397083D01*
X118662114Y-61585441D01*
X118622340Y-61785400D01*
X118622340Y-61847537D01*
X116204879Y-64264999D01*
X112828711Y-64264999D01*
X112784774Y-64221062D01*
X112615256Y-64107794D01*
X112426898Y-64029773D01*
X112226939Y-63989999D01*
X112023061Y-63989999D01*
X111823102Y-64029773D01*
X111634744Y-64107794D01*
X111465226Y-64221062D01*
X111321063Y-64365225D01*
X111207795Y-64534743D01*
X111129774Y-64723101D01*
X111090000Y-64923060D01*
X78124759Y-64923060D01*
X79247976Y-63201363D01*
X81102192Y-60649253D01*
X81652321Y-59966983D01*
X88440000Y-59966983D01*
X88440000Y-60683015D01*
X88579691Y-61385289D01*
X88853705Y-62046817D01*
X89251511Y-62642176D01*
X89757823Y-63148488D01*
X90353182Y-63546294D01*
X91014710Y-63820308D01*
X91716984Y-63959999D01*
X92433016Y-63959999D01*
X93135290Y-63820308D01*
X93796818Y-63546294D01*
X94392177Y-63148488D01*
X94898489Y-62642176D01*
X95296295Y-62046817D01*
X95570309Y-61385289D01*
X95710000Y-60683015D01*
X95710000Y-59966983D01*
X95651766Y-59674220D01*
X135211500Y-59674220D01*
X135211500Y-60094778D01*
X135293547Y-60507255D01*
X135454488Y-60895801D01*
X135688137Y-61245482D01*
X135985517Y-61542862D01*
X136335198Y-61776511D01*
X136723744Y-61937452D01*
X137136221Y-62019499D01*
X137556779Y-62019499D01*
X137969256Y-61937452D01*
X138357802Y-61776511D01*
X138707483Y-61542862D01*
X139004863Y-61245482D01*
X139238512Y-60895801D01*
X139399453Y-60507255D01*
X139481500Y-60094778D01*
X139481500Y-59966983D01*
X164640000Y-59966983D01*
X164640000Y-60683015D01*
X164779691Y-61385289D01*
X165053705Y-62046817D01*
X165451511Y-62642176D01*
X165957823Y-63148488D01*
X166553182Y-63546294D01*
X167214710Y-63820308D01*
X167916984Y-63959999D01*
X168633016Y-63959999D01*
X169335290Y-63820308D01*
X169996818Y-63546294D01*
X170592177Y-63148488D01*
X171098489Y-62642176D01*
X171496295Y-62046817D01*
X171770309Y-61385289D01*
X171910000Y-60683015D01*
X171910000Y-59966983D01*
X171770309Y-59264709D01*
X171496295Y-58603181D01*
X171098489Y-58007822D01*
X170592177Y-57501510D01*
X169996818Y-57103704D01*
X169335290Y-56829690D01*
X168633016Y-56689999D01*
X167916984Y-56689999D01*
X167214710Y-56829690D01*
X166553182Y-57103704D01*
X165957823Y-57501510D01*
X165451511Y-58007822D01*
X165053705Y-58603181D01*
X164779691Y-59264709D01*
X164640000Y-59966983D01*
X139481500Y-59966983D01*
X139481500Y-59674220D01*
X139399453Y-59261743D01*
X139238512Y-58873197D01*
X139004863Y-58523516D01*
X138707483Y-58226136D01*
X138357802Y-57992487D01*
X137969256Y-57831546D01*
X137556779Y-57749499D01*
X137136221Y-57749499D01*
X136723744Y-57831546D01*
X136335198Y-57992487D01*
X135985517Y-58226136D01*
X135688137Y-58523516D01*
X135454488Y-58873197D01*
X135293547Y-59261743D01*
X135211500Y-59674220D01*
X95651766Y-59674220D01*
X95570309Y-59264709D01*
X95296295Y-58603181D01*
X94898489Y-58007822D01*
X94392177Y-57501510D01*
X93796818Y-57103704D01*
X93135290Y-56829690D01*
X92433016Y-56689999D01*
X91716984Y-56689999D01*
X91014710Y-56829690D01*
X90353182Y-57103704D01*
X89757823Y-57501510D01*
X89251511Y-58007822D01*
X88853705Y-58603181D01*
X88579691Y-59264709D01*
X88440000Y-59966983D01*
X81652321Y-59966983D01*
X83082296Y-58193531D01*
X85183284Y-55840400D01*
X87399850Y-53595803D01*
X89726395Y-51465411D01*
X91331946Y-50137183D01*
X113472600Y-50137183D01*
X113472600Y-50853215D01*
X113612291Y-51555489D01*
X113886305Y-52217017D01*
X114284111Y-52812376D01*
X114790423Y-53318688D01*
X115385782Y-53716494D01*
X116047310Y-53990508D01*
X116749584Y-54130199D01*
X117465616Y-54130199D01*
X118167890Y-53990508D01*
X118829418Y-53716494D01*
X119424777Y-53318688D01*
X119931089Y-52812376D01*
X120328895Y-52217017D01*
X120602909Y-51555489D01*
X120669528Y-51220573D01*
X120669528Y-51995199D01*
X120710610Y-52412316D01*
X120832279Y-52813404D01*
X121029858Y-53183048D01*
X121295755Y-53507044D01*
X121619751Y-53772941D01*
X121989395Y-53970520D01*
X122390483Y-54092189D01*
X122807600Y-54133271D01*
X125807600Y-54133271D01*
X126224717Y-54092189D01*
X126625805Y-53970520D01*
X126995449Y-53772941D01*
X127319445Y-53507044D01*
X127585342Y-53183048D01*
X127782921Y-52813404D01*
X127904590Y-52412316D01*
X127945672Y-51995199D01*
X127945672Y-49806983D01*
X132040000Y-49806983D01*
X132040000Y-50523015D01*
X132179691Y-51225289D01*
X132453705Y-51886817D01*
X132851511Y-52482176D01*
X133357823Y-52988488D01*
X133953182Y-53386294D01*
X134614710Y-53660308D01*
X135316984Y-53799999D01*
X136033016Y-53799999D01*
X136735290Y-53660308D01*
X137396818Y-53386294D01*
X137992177Y-52988488D01*
X138498489Y-52482176D01*
X138896295Y-51886817D01*
X139170309Y-51225289D01*
X139239517Y-50877356D01*
X139236928Y-53164999D01*
X139249188Y-53289481D01*
X139285498Y-53409179D01*
X139344463Y-53519493D01*
X139423815Y-53616184D01*
X139520506Y-53695536D01*
X139630820Y-53754501D01*
X139750518Y-53790811D01*
X139875000Y-53803071D01*
X142589250Y-53799999D01*
X142748000Y-53641249D01*
X142748000Y-50291999D01*
X143002000Y-50291999D01*
X143002000Y-53641249D01*
X143160750Y-53799999D01*
X145875000Y-53803071D01*
X145999482Y-53790811D01*
X146119180Y-53754501D01*
X146229494Y-53695536D01*
X146326185Y-53616184D01*
X146405537Y-53519493D01*
X146464502Y-53409179D01*
X146500812Y-53289481D01*
X146513072Y-53164999D01*
X146510000Y-50450749D01*
X146351250Y-50291999D01*
X143002000Y-50291999D01*
X142748000Y-50291999D01*
X142728000Y-50291999D01*
X142728000Y-50037999D01*
X142748000Y-50037999D01*
X142748000Y-46688749D01*
X143002000Y-46688749D01*
X143002000Y-50037999D01*
X146351250Y-50037999D01*
X146510000Y-49879249D01*
X146513072Y-47164999D01*
X146500812Y-47040517D01*
X146464502Y-46920819D01*
X146405537Y-46810505D01*
X146326185Y-46713814D01*
X146229494Y-46634462D01*
X146119180Y-46575497D01*
X145999482Y-46539187D01*
X145875000Y-46526927D01*
X143160750Y-46529999D01*
X143002000Y-46688749D01*
X142748000Y-46688749D01*
X142589250Y-46529999D01*
X139875000Y-46526927D01*
X139750518Y-46539187D01*
X139630820Y-46575497D01*
X139520506Y-46634462D01*
X139423815Y-46713814D01*
X139344463Y-46810505D01*
X139285498Y-46920819D01*
X139249188Y-47040517D01*
X139236928Y-47164999D01*
X139239517Y-49452642D01*
X139170309Y-49104709D01*
X138896295Y-48443181D01*
X138498489Y-47847822D01*
X137992177Y-47341510D01*
X137396818Y-46943704D01*
X136735290Y-46669690D01*
X136033016Y-46529999D01*
X135316984Y-46529999D01*
X134614710Y-46669690D01*
X133953182Y-46943704D01*
X133357823Y-47341510D01*
X132851511Y-47847822D01*
X132453705Y-48443181D01*
X132179691Y-49104709D01*
X132040000Y-49806983D01*
X127945672Y-49806983D01*
X127945672Y-48995199D01*
X127904590Y-48578082D01*
X127782921Y-48176994D01*
X127585342Y-47807350D01*
X127319445Y-47483354D01*
X126995449Y-47217457D01*
X126625805Y-47019878D01*
X126224717Y-46898209D01*
X125807600Y-46857127D01*
X122807600Y-46857127D01*
X122390483Y-46898209D01*
X121989395Y-47019878D01*
X121619751Y-47217457D01*
X121295755Y-47483354D01*
X121029858Y-47807350D01*
X120832279Y-48176994D01*
X120710610Y-48578082D01*
X120669528Y-48995199D01*
X120669528Y-49769825D01*
X120602909Y-49434909D01*
X120328895Y-48773381D01*
X119931089Y-48178022D01*
X119424777Y-47671710D01*
X118829418Y-47273904D01*
X118167890Y-46999890D01*
X117465616Y-46860199D01*
X116749584Y-46860199D01*
X116047310Y-46999890D01*
X115385782Y-47273904D01*
X114790423Y-47671710D01*
X114284111Y-48178022D01*
X113886305Y-48773381D01*
X113612291Y-49434909D01*
X113472600Y-50137183D01*
X91331946Y-50137183D01*
X92157041Y-49454605D01*
X94685649Y-47568466D01*
X97305831Y-45811757D01*
X100010968Y-44188916D01*
X102794227Y-42704042D01*
X105648577Y-41360887D01*
X108566808Y-40162843D01*
X111541548Y-39112937D01*
X114565282Y-38213820D01*
X117630373Y-37467765D01*
X120729077Y-36876656D01*
X123853568Y-36441985D01*
X126995952Y-36164851D01*
X130148292Y-36045955D01*
X133302623Y-36085595D01*
G37*
%TD.AperFunction*%
%TD*%
M02*
