%TF.GenerationSoftware,KiCad,Pcbnew,(5.1.8)-1*%
%TF.CreationDate,2021-01-10T20:37:24-08:00*%
%TF.ProjectId,PJS,504a532e-6b69-4636-9164-5f7063625858,rev?*%
%TF.SameCoordinates,Original*%
%TF.FileFunction,Soldermask,Bot*%
%TF.FilePolarity,Negative*%
%FSLAX46Y46*%
G04 Gerber Fmt 4.6, Leading zero omitted, Abs format (unit mm)*
G04 Created by KiCad (PCBNEW (5.1.8)-1) date 2021-01-10 20:37:24*
%MOMM*%
%LPD*%
G01*
G04 APERTURE LIST*
%ADD10C,0.901600*%
%ADD11C,6.101600*%
%ADD12O,1.371600X1.101600*%
%ADD13C,2.001600*%
%ADD14C,1.409600*%
%ADD15C,4.165600*%
%ADD16C,4.101600*%
%ADD17C,1.631600*%
%ADD18C,3.101600*%
%ADD19C,1.625600*%
%ADD20C,0.100000*%
G04 APERTURE END LIST*
D10*
%TO.C,K1*%
X101342500Y-115642999D03*
X101342500Y-120642999D03*
X101342500Y-125642999D03*
X101342500Y-140642999D03*
X108842500Y-115642999D03*
X108842500Y-120642999D03*
X108842500Y-125642999D03*
X108842500Y-140642999D03*
%TD*%
%TO.C,X3*%
G36*
G01*
X145925800Y-48639599D02*
X145925800Y-51690399D01*
G75*
G02*
X144400400Y-53215799I-1525400J0D01*
G01*
X141349600Y-53215799D01*
G75*
G02*
X139824200Y-51690399I0J1525400D01*
G01*
X139824200Y-48639599D01*
G75*
G02*
X141349600Y-47114199I1525400J0D01*
G01*
X144400400Y-47114199D01*
G75*
G02*
X145925800Y-48639599I0J-1525400D01*
G01*
G37*
D11*
X135675000Y-50164999D03*
%TD*%
D12*
%TO.C,A6*%
X125092600Y-111454999D03*
X129092600Y-111454999D03*
D13*
X142122600Y-96844999D03*
X142122600Y-104464999D03*
D12*
X135092600Y-111454999D03*
X137092600Y-111454999D03*
X133092600Y-111454999D03*
D13*
X142122600Y-107004999D03*
X142122600Y-99384999D03*
X142122600Y-101924999D03*
X142122600Y-109544999D03*
D12*
X123092600Y-111454999D03*
X127092600Y-111454999D03*
X131092600Y-111454999D03*
%TD*%
D14*
%TO.C,A5*%
X137414000Y-142112999D03*
X137414000Y-137032999D03*
X137414000Y-144652999D03*
D15*
X126111000Y-130047999D03*
D14*
X137414000Y-139572999D03*
X137414000Y-147192999D03*
X137414000Y-134492999D03*
X137414000Y-129412999D03*
X137414000Y-131952999D03*
D15*
X126111000Y-146557999D03*
%TD*%
D16*
%TO.C,X2*%
X81715000Y-119414999D03*
G36*
G01*
X88665800Y-117514999D02*
X88665800Y-121314999D01*
G75*
G02*
X88615000Y-121365799I-50800J0D01*
G01*
X84815000Y-121365799D01*
G75*
G02*
X84764200Y-121314999I0J50800D01*
G01*
X84764200Y-117514999D01*
G75*
G02*
X84815000Y-117464199I50800J0D01*
G01*
X88615000Y-117464199D01*
G75*
G02*
X88665800Y-117514999I0J-50800D01*
G01*
G37*
%TD*%
%TO.C,X1*%
X81765000Y-128464999D03*
G36*
G01*
X88715800Y-126564999D02*
X88715800Y-130364999D01*
G75*
G02*
X88665000Y-130415799I-50800J0D01*
G01*
X84865000Y-130415799D01*
G75*
G02*
X84814200Y-130364999I0J50800D01*
G01*
X84814200Y-126564999D01*
G75*
G02*
X84865000Y-126514199I50800J0D01*
G01*
X88665000Y-126514199D01*
G75*
G02*
X88715800Y-126564999I0J-50800D01*
G01*
G37*
%TD*%
%TO.C,X4*%
G36*
G01*
X127358400Y-48969799D02*
X127358400Y-52020599D01*
G75*
G02*
X125833000Y-53545999I-1525400J0D01*
G01*
X122782200Y-53545999D01*
G75*
G02*
X121256800Y-52020599I0J1525400D01*
G01*
X121256800Y-48969799D01*
G75*
G02*
X122782200Y-47444399I1525400J0D01*
G01*
X125833000Y-47444399D01*
G75*
G02*
X127358400Y-48969799I0J-1525400D01*
G01*
G37*
D11*
X117107600Y-50495199D03*
%TD*%
D17*
%TO.C,U2*%
X161772600Y-111048799D03*
X159232600Y-111048799D03*
X156692600Y-111048799D03*
X154152600Y-111048799D03*
X151612600Y-111048799D03*
X164312600Y-78028799D03*
X164312600Y-80568799D03*
X164312600Y-83108799D03*
X164312600Y-85648799D03*
X164312600Y-88188799D03*
X164312600Y-90728799D03*
X164312600Y-93268799D03*
X164312600Y-95808799D03*
X164312600Y-98348799D03*
X164312600Y-100888799D03*
X164312600Y-103428799D03*
X164312600Y-105968799D03*
X164312600Y-108508799D03*
X164312600Y-111048799D03*
X149072600Y-78028799D03*
X149072600Y-80568799D03*
X149072600Y-83108799D03*
X149072600Y-85648799D03*
X149072600Y-88188799D03*
X149072600Y-90728799D03*
X149072600Y-93268799D03*
X149072600Y-95808799D03*
X149072600Y-98348799D03*
X149072600Y-100888799D03*
X149072600Y-103428799D03*
X149072600Y-105968799D03*
X149072600Y-108508799D03*
X149072600Y-111048799D03*
%TD*%
D18*
%TO.C,VR1*%
X124146500Y-73084499D03*
X137346500Y-59884499D03*
D19*
X138366500Y-63944499D03*
X138366500Y-66484499D03*
X138366500Y-69024499D03*
X138366500Y-71564499D03*
X138376500Y-74114499D03*
%TD*%
D20*
G36*
X121258790Y-52020403D02*
G01*
X121288080Y-52317795D01*
X121374771Y-52603575D01*
X121515547Y-52866950D01*
X121705000Y-53097799D01*
X121935849Y-53287252D01*
X122199224Y-53428028D01*
X122485004Y-53514719D01*
X122782396Y-53544009D01*
X122784022Y-53545174D01*
X122783826Y-53547164D01*
X122782200Y-53547999D01*
X122759433Y-53547999D01*
X122759237Y-53547989D01*
X122464138Y-53518925D01*
X122463753Y-53518849D01*
X122182377Y-53433494D01*
X122182015Y-53433344D01*
X121922704Y-53294739D01*
X121922378Y-53294521D01*
X121695088Y-53107988D01*
X121694811Y-53107711D01*
X121508278Y-52880421D01*
X121508060Y-52880095D01*
X121369455Y-52620784D01*
X121369305Y-52620422D01*
X121283950Y-52339046D01*
X121283874Y-52338661D01*
X121254810Y-52043562D01*
X121254800Y-52043366D01*
X121254800Y-52020599D01*
X121255800Y-52018867D01*
X121257800Y-52018867D01*
X121258790Y-52020403D01*
G37*
G36*
X127359565Y-52018973D02*
G01*
X127360400Y-52020599D01*
X127360400Y-52043366D01*
X127360390Y-52043562D01*
X127331326Y-52338661D01*
X127331250Y-52339046D01*
X127245895Y-52620422D01*
X127245745Y-52620784D01*
X127107140Y-52880095D01*
X127106922Y-52880421D01*
X126920389Y-53107711D01*
X126920112Y-53107988D01*
X126692822Y-53294521D01*
X126692496Y-53294739D01*
X126433185Y-53433344D01*
X126432823Y-53433494D01*
X126151447Y-53518849D01*
X126151062Y-53518925D01*
X125855963Y-53547989D01*
X125855767Y-53547999D01*
X125833000Y-53547999D01*
X125831268Y-53546999D01*
X125831268Y-53544999D01*
X125832804Y-53544009D01*
X126130196Y-53514719D01*
X126415976Y-53428028D01*
X126679351Y-53287252D01*
X126910200Y-53097799D01*
X127099653Y-52866950D01*
X127240429Y-52603575D01*
X127327120Y-52317795D01*
X127356410Y-52020403D01*
X127357575Y-52018777D01*
X127359565Y-52018973D01*
G37*
G36*
X145926965Y-51688773D02*
G01*
X145927800Y-51690399D01*
X145927800Y-51713166D01*
X145927790Y-51713362D01*
X145898726Y-52008461D01*
X145898650Y-52008846D01*
X145813295Y-52290222D01*
X145813145Y-52290584D01*
X145674540Y-52549895D01*
X145674322Y-52550221D01*
X145487789Y-52777511D01*
X145487512Y-52777788D01*
X145260222Y-52964321D01*
X145259896Y-52964539D01*
X145000585Y-53103144D01*
X145000223Y-53103294D01*
X144718847Y-53188649D01*
X144718462Y-53188725D01*
X144423363Y-53217789D01*
X144423167Y-53217799D01*
X144400400Y-53217799D01*
X144398668Y-53216799D01*
X144398668Y-53214799D01*
X144400204Y-53213809D01*
X144697596Y-53184519D01*
X144983376Y-53097828D01*
X145246751Y-52957052D01*
X145477600Y-52767599D01*
X145667053Y-52536750D01*
X145807829Y-52273375D01*
X145894520Y-51987595D01*
X145923810Y-51690203D01*
X145924975Y-51688577D01*
X145926965Y-51688773D01*
G37*
G36*
X139826190Y-51690203D02*
G01*
X139855480Y-51987595D01*
X139942171Y-52273375D01*
X140082947Y-52536750D01*
X140272400Y-52767599D01*
X140503249Y-52957052D01*
X140766624Y-53097828D01*
X141052404Y-53184519D01*
X141349796Y-53213809D01*
X141351422Y-53214974D01*
X141351226Y-53216964D01*
X141349600Y-53217799D01*
X141326833Y-53217799D01*
X141326637Y-53217789D01*
X141031538Y-53188725D01*
X141031153Y-53188649D01*
X140749777Y-53103294D01*
X140749415Y-53103144D01*
X140490104Y-52964539D01*
X140489778Y-52964321D01*
X140262488Y-52777788D01*
X140262211Y-52777511D01*
X140075678Y-52550221D01*
X140075460Y-52549895D01*
X139936855Y-52290584D01*
X139936705Y-52290222D01*
X139851350Y-52008846D01*
X139851274Y-52008461D01*
X139822210Y-51713362D01*
X139822200Y-51713166D01*
X139822200Y-51690399D01*
X139823200Y-51688667D01*
X139825200Y-51688667D01*
X139826190Y-51690203D01*
G37*
G36*
X122783932Y-47443399D02*
G01*
X122783932Y-47445399D01*
X122782396Y-47446389D01*
X122485004Y-47475679D01*
X122199224Y-47562370D01*
X121935849Y-47703146D01*
X121705000Y-47892599D01*
X121515547Y-48123448D01*
X121374771Y-48386823D01*
X121288080Y-48672603D01*
X121258790Y-48969995D01*
X121257625Y-48971621D01*
X121255635Y-48971425D01*
X121254800Y-48969799D01*
X121254800Y-48947032D01*
X121254810Y-48946836D01*
X121283874Y-48651737D01*
X121283950Y-48651352D01*
X121369305Y-48369976D01*
X121369455Y-48369614D01*
X121508060Y-48110303D01*
X121508278Y-48109977D01*
X121694811Y-47882687D01*
X121695088Y-47882410D01*
X121922378Y-47695877D01*
X121922704Y-47695659D01*
X122182015Y-47557054D01*
X122182377Y-47556904D01*
X122463753Y-47471549D01*
X122464138Y-47471473D01*
X122759237Y-47442409D01*
X122759433Y-47442399D01*
X122782200Y-47442399D01*
X122783932Y-47443399D01*
G37*
G36*
X125855963Y-47442409D02*
G01*
X126151062Y-47471473D01*
X126151447Y-47471549D01*
X126432823Y-47556904D01*
X126433185Y-47557054D01*
X126692496Y-47695659D01*
X126692822Y-47695877D01*
X126920112Y-47882410D01*
X126920389Y-47882687D01*
X127106922Y-48109977D01*
X127107140Y-48110303D01*
X127245745Y-48369614D01*
X127245895Y-48369976D01*
X127331250Y-48651352D01*
X127331326Y-48651737D01*
X127360390Y-48946836D01*
X127360400Y-48947032D01*
X127360400Y-48969799D01*
X127359400Y-48971531D01*
X127357400Y-48971531D01*
X127356410Y-48969995D01*
X127327120Y-48672603D01*
X127240429Y-48386823D01*
X127099653Y-48123448D01*
X126910200Y-47892599D01*
X126679351Y-47703146D01*
X126415976Y-47562370D01*
X126130196Y-47475679D01*
X125832804Y-47446389D01*
X125831178Y-47445224D01*
X125831374Y-47443234D01*
X125833000Y-47442399D01*
X125855767Y-47442399D01*
X125855963Y-47442409D01*
G37*
G36*
X141351332Y-47113199D02*
G01*
X141351332Y-47115199D01*
X141349796Y-47116189D01*
X141052404Y-47145479D01*
X140766624Y-47232170D01*
X140503249Y-47372946D01*
X140272400Y-47562399D01*
X140082947Y-47793248D01*
X139942171Y-48056623D01*
X139855480Y-48342403D01*
X139826190Y-48639795D01*
X139825025Y-48641421D01*
X139823035Y-48641225D01*
X139822200Y-48639599D01*
X139822200Y-48616832D01*
X139822210Y-48616636D01*
X139851274Y-48321537D01*
X139851350Y-48321152D01*
X139936705Y-48039776D01*
X139936855Y-48039414D01*
X140075460Y-47780103D01*
X140075678Y-47779777D01*
X140262211Y-47552487D01*
X140262488Y-47552210D01*
X140489778Y-47365677D01*
X140490104Y-47365459D01*
X140749415Y-47226854D01*
X140749777Y-47226704D01*
X141031153Y-47141349D01*
X141031538Y-47141273D01*
X141326637Y-47112209D01*
X141326833Y-47112199D01*
X141349600Y-47112199D01*
X141351332Y-47113199D01*
G37*
G36*
X144423363Y-47112209D02*
G01*
X144718462Y-47141273D01*
X144718847Y-47141349D01*
X145000223Y-47226704D01*
X145000585Y-47226854D01*
X145259896Y-47365459D01*
X145260222Y-47365677D01*
X145487512Y-47552210D01*
X145487789Y-47552487D01*
X145674322Y-47779777D01*
X145674540Y-47780103D01*
X145813145Y-48039414D01*
X145813295Y-48039776D01*
X145898650Y-48321152D01*
X145898726Y-48321537D01*
X145927790Y-48616636D01*
X145927800Y-48616832D01*
X145927800Y-48639599D01*
X145926800Y-48641331D01*
X145924800Y-48641331D01*
X145923810Y-48639795D01*
X145894520Y-48342403D01*
X145807829Y-48056623D01*
X145667053Y-47793248D01*
X145477600Y-47562399D01*
X145246751Y-47372946D01*
X144983376Y-47232170D01*
X144697596Y-47145479D01*
X144400204Y-47116189D01*
X144398578Y-47115024D01*
X144398774Y-47113034D01*
X144400400Y-47112199D01*
X144423167Y-47112199D01*
X144423363Y-47112209D01*
G37*
M02*
