%TF.GenerationSoftware,KiCad,Pcbnew,(5.1.9)-1*%
%TF.CreationDate,2021-04-17T19:11:21-07:00*%
%TF.ProjectId,UAS_V2,5541535f-5632-42e6-9b69-6361645f7063,rev?*%
%TF.SameCoordinates,Original*%
%TF.FileFunction,Copper,L1,Top*%
%TF.FilePolarity,Positive*%
%FSLAX46Y46*%
G04 Gerber Fmt 4.6, Leading zero omitted, Abs format (unit mm)*
G04 Created by KiCad (PCBNEW (5.1.9)-1) date 2021-04-17 19:11:21*
%MOMM*%
%LPD*%
G01*
G04 APERTURE LIST*
%TA.AperFunction,ComponentPad*%
%ADD10R,0.890000X0.930000*%
%TD*%
%TA.AperFunction,ComponentPad*%
%ADD11R,0.870000X0.930000*%
%TD*%
%TA.AperFunction,ComponentPad*%
%ADD12R,1.500000X1.500000*%
%TD*%
%TA.AperFunction,ComponentPad*%
%ADD13C,1.500000*%
%TD*%
%TA.AperFunction,SMDPad,CuDef*%
%ADD14O,1.800000X3.500000*%
%TD*%
%TA.AperFunction,SMDPad,CuDef*%
%ADD15R,0.600000X1.700000*%
%TD*%
%TA.AperFunction,SMDPad,CuDef*%
%ADD16R,1.000000X2.700000*%
%TD*%
%TA.AperFunction,ComponentPad*%
%ADD17C,3.000000*%
%TD*%
%TA.AperFunction,ComponentPad*%
%ADD18O,3.000000X1.800000*%
%TD*%
%TA.AperFunction,ComponentPad*%
%ADD19R,3.000000X1.800000*%
%TD*%
%TA.AperFunction,ComponentPad*%
%ADD20O,1.800000X3.000000*%
%TD*%
%TA.AperFunction,ComponentPad*%
%ADD21C,3.250000*%
%TD*%
%TA.AperFunction,SMDPad,CuDef*%
%ADD22R,1.500000X3.000000*%
%TD*%
%TA.AperFunction,ComponentPad*%
%ADD23C,4.000000*%
%TD*%
%TA.AperFunction,ComponentPad*%
%ADD24R,4.000000X4.000000*%
%TD*%
%TA.AperFunction,ViaPad*%
%ADD25C,2.250000*%
%TD*%
%TA.AperFunction,ViaPad*%
%ADD26C,1.300000*%
%TD*%
%TA.AperFunction,ViaPad*%
%ADD27C,0.850000*%
%TD*%
%TA.AperFunction,ViaPad*%
%ADD28C,0.750000*%
%TD*%
%TA.AperFunction,Conductor*%
%ADD29C,0.400000*%
%TD*%
%TA.AperFunction,Conductor*%
%ADD30C,1.000000*%
%TD*%
%TA.AperFunction,Conductor*%
%ADD31C,2.000000*%
%TD*%
%TA.AperFunction,Conductor*%
%ADD32C,0.600000*%
%TD*%
G04 APERTURE END LIST*
D10*
%TO.P,D1,1*%
%TO.N,GND*%
X149046000Y-115570000D03*
%TO.P,D1,2*%
%TO.N,Net-(D1-Pad2)*%
X150674000Y-115570000D03*
%TD*%
D11*
%TO.P,R1,2*%
%TO.N,+5V*%
X149080000Y-113030000D03*
%TO.P,R1,1*%
%TO.N,Net-(D1-Pad2)*%
X150640000Y-113030000D03*
%TD*%
D12*
%TO.P,J3,1*%
%TO.N,GND*%
X167640000Y-120650000D03*
D13*
%TO.P,J3,2*%
%TO.N,+7.5V*%
X165640000Y-120650000D03*
%TO.P,J3,3*%
%TO.N,Net-(J3-Pad3)*%
X163640000Y-120650000D03*
%TD*%
D12*
%TO.P,J2,1*%
%TO.N,GND*%
X135890000Y-120650000D03*
D13*
%TO.P,J2,2*%
%TO.N,+7.5V*%
X133890000Y-120650000D03*
%TO.P,J2,3*%
%TO.N,Net-(J2-Pad3)*%
X131890000Y-120650000D03*
%TD*%
D14*
%TO.P,U5,16*%
%TO.N,GND*%
X172720000Y-90170000D03*
%TO.P,U5,15*%
%TO.N,Net-(J4-Pad1)*%
X170180000Y-90170000D03*
%TO.P,U5,14*%
%TO.N,Net-(J4-Pad2)*%
X167640000Y-90170000D03*
%TO.P,U5,13*%
%TO.N,Net-(J4-Pad3)*%
X165100000Y-90170000D03*
%TO.P,U5,12*%
%TO.N,Net-(J4-Pad4)*%
X162560000Y-90170000D03*
%TO.P,U5,11*%
%TO.N,Net-(J4-Pad5)*%
X160020000Y-90170000D03*
%TO.P,U5,10*%
%TO.N,Net-(J4-Pad6)*%
X157480000Y-90170000D03*
%TO.P,U5,9*%
%TO.N,Net-(J4-Pad7)*%
X154940000Y-90170000D03*
%TO.P,U5,8*%
%TO.N,GND*%
X172720000Y-102870000D03*
%TO.P,U5,7*%
%TO.N,+12V*%
X170180000Y-102870000D03*
%TO.P,U5,6*%
%TO.N,Net-(J10-Pad4)*%
X167640000Y-102870000D03*
%TO.P,U5,5*%
%TO.N,Net-(J10-Pad3)*%
X165100000Y-102870000D03*
%TO.P,U5,4*%
%TO.N,Net-(J10-Pad2)*%
X162560000Y-102870000D03*
%TO.P,U5,3*%
%TO.N,Net-(J10-Pad1)*%
X160020000Y-102870000D03*
%TO.P,U5,2*%
%TO.N,+5V*%
X157480000Y-102870000D03*
%TO.P,U5,1*%
%TO.N,GND*%
X154940000Y-102870000D03*
%TD*%
D15*
%TO.P,J7,4*%
%TO.N,Net-(J7-Pad4)*%
X136515000Y-83820000D03*
%TO.P,J7,5*%
%TO.N,Net-(J7-Pad5)*%
X135265000Y-83820000D03*
%TO.P,J7,6*%
%TO.N,Net-(J7-Pad6)*%
X134015000Y-83820000D03*
%TO.P,J7,7*%
%TO.N,Net-(J7-Pad7)*%
X132765000Y-83820000D03*
%TO.P,J7,3*%
%TO.N,Net-(J7-Pad3)*%
X137765000Y-83820000D03*
%TO.P,J7,2*%
%TO.N,Net-(J7-Pad2)*%
X139015000Y-83820000D03*
%TO.P,J7,1*%
%TO.N,Net-(J7-Pad1)*%
X140265000Y-83820000D03*
%TO.P,J7,8*%
%TO.N,N/C*%
X131515000Y-83820000D03*
D16*
%TO.P,J7,SH1*%
X142115000Y-80620000D03*
%TO.P,J7,SH2*%
X129665000Y-80620000D03*
%TD*%
D15*
%TO.P,J4,4*%
%TO.N,Net-(J4-Pad4)*%
X164455000Y-83820000D03*
%TO.P,J4,5*%
%TO.N,Net-(J4-Pad5)*%
X163205000Y-83820000D03*
%TO.P,J4,6*%
%TO.N,Net-(J4-Pad6)*%
X161955000Y-83820000D03*
%TO.P,J4,7*%
%TO.N,Net-(J4-Pad7)*%
X160705000Y-83820000D03*
%TO.P,J4,3*%
%TO.N,Net-(J4-Pad3)*%
X165705000Y-83820000D03*
%TO.P,J4,2*%
%TO.N,Net-(J4-Pad2)*%
X166955000Y-83820000D03*
%TO.P,J4,1*%
%TO.N,Net-(J4-Pad1)*%
X168205000Y-83820000D03*
%TO.P,J4,8*%
%TO.N,N/C*%
X159455000Y-83820000D03*
D16*
%TO.P,J4,SH1*%
X170055000Y-80620000D03*
%TO.P,J4,SH2*%
X157605000Y-80620000D03*
%TD*%
D17*
%TO.P,U3,6*%
%TO.N,N/C*%
X173060000Y-122310000D03*
%TO.P,U3,7*%
X159630000Y-108880000D03*
D18*
%TO.P,U3,1*%
%TO.N,+24V*%
X158750000Y-112390000D03*
%TO.P,U3,2*%
%TO.N,Net-(U3-Pad2)*%
X158750000Y-114930000D03*
D19*
%TO.P,U3,3*%
%TO.N,GND*%
X158750000Y-117470000D03*
%TO.P,U3,4*%
X158750000Y-120010000D03*
D18*
%TO.P,U3,5*%
%TO.N,+7.5V*%
X158750000Y-122550000D03*
%TD*%
D20*
%TO.P,U2,4*%
%TO.N,+5V*%
X139065000Y-109220000D03*
%TO.P,U2,3*%
%TO.N,GND*%
X136525000Y-109220000D03*
%TO.P,U2,2*%
%TO.N,+24V*%
X133985000Y-109220000D03*
%TO.P,U2,1*%
%TO.N,Net-(U2-Pad1)*%
X131445000Y-109220000D03*
%TD*%
D21*
%TO.P,U1,7*%
%TO.N,N/C*%
X127915000Y-112190000D03*
%TO.P,U1,6*%
X141415000Y-96190000D03*
D20*
%TO.P,U1,5*%
%TO.N,+5V*%
X141605000Y-113030000D03*
%TO.P,U1,4*%
%TO.N,GND*%
X139065000Y-113030000D03*
%TO.P,U1,3*%
X136525000Y-113030000D03*
%TO.P,U1,2*%
%TO.N,+24V*%
X133985000Y-113030000D03*
%TO.P,U1,1*%
%TO.N,Net-(U1-Pad1)*%
X131445000Y-113030000D03*
%TD*%
D22*
%TO.P,Left,1*%
%TO.N,Net-(J2-Pad3)*%
X130810000Y-126365000D03*
%TD*%
%TO.P,Right,1*%
%TO.N,Net-(J3-Pad3)*%
X137160000Y-126365000D03*
%TD*%
D23*
%TO.P,J1,2*%
%TO.N,+24V*%
X152110000Y-125490000D03*
D24*
%TO.P,J1,1*%
%TO.N,GND*%
X146960000Y-125490000D03*
%TD*%
D25*
%TO.N,*%
X127000000Y-127000000D03*
X172720000Y-127000000D03*
X172720000Y-81280000D03*
X127000000Y-81280000D03*
D26*
%TO.N,GND*%
X155575000Y-100965000D03*
X154305000Y-104775000D03*
X173355000Y-104775000D03*
X173355000Y-88265000D03*
D27*
X147955000Y-116205000D03*
%TO.N,+5V*%
X149860000Y-109220000D03*
D28*
X157480000Y-105410000D03*
D27*
%TO.N,Net-(J7-Pad1)*%
X143440000Y-86430000D03*
%TO.N,Net-(J7-Pad2)*%
X142190000Y-87326000D03*
%TO.N,Net-(J7-Pad3)*%
X138315000Y-86245000D03*
%TO.N,Net-(J7-Pad4)*%
X137065000Y-86709000D03*
%TO.N,Net-(J7-Pad5)*%
X135815000Y-87047000D03*
%TO.N,Net-(J7-Pad6)*%
X134620000Y-90170000D03*
%TO.N,Net-(J7-Pad7)*%
X134620000Y-82042000D03*
%TO.N,Net-(J10-Pad2)*%
X168402000Y-96012000D03*
%TO.N,Net-(J10-Pad1)*%
X168148000Y-94742000D03*
%TO.N,Net-(J10-Pad3)*%
X168656000Y-97282000D03*
%TO.N,Net-(J10-Pad4)*%
X168910014Y-98552000D03*
D26*
%TO.N,+12V*%
X170180000Y-105410000D03*
%TD*%
D29*
%TO.N,GND*%
X148590000Y-115570000D02*
X147955000Y-116205000D01*
X149046000Y-115570000D02*
X148590000Y-115570000D01*
X147955000Y-116205000D02*
X147955000Y-116205000D01*
D30*
X136525000Y-109220000D02*
X136525000Y-113030000D01*
D29*
%TO.N,Net-(D1-Pad2)*%
X150640000Y-115536000D02*
X150674000Y-115570000D01*
X150640000Y-113030000D02*
X150640000Y-115536000D01*
D31*
%TO.N,+24V*%
X156215000Y-112390000D02*
X158750000Y-112390000D01*
X154305000Y-118110000D02*
X154305000Y-114300000D01*
X152110000Y-120305000D02*
X154305000Y-118110000D01*
X152110000Y-125490000D02*
X152110000Y-120305000D01*
X133985000Y-109220000D02*
X133985000Y-113030000D01*
X154305000Y-114300000D02*
X156215000Y-112390000D01*
X133985000Y-107315000D02*
X133985000Y-109220000D01*
X135255000Y-106045000D02*
X133985000Y-107315000D01*
X149860000Y-106045000D02*
X135255000Y-106045000D01*
X154305000Y-110490000D02*
X149860000Y-106045000D01*
X154305000Y-114300000D02*
X154305000Y-110490000D01*
D32*
%TO.N,Net-(J4-Pad1)*%
X168205000Y-86290000D02*
X168205000Y-83820000D01*
X170180000Y-88265000D02*
X168205000Y-86290000D01*
X170180000Y-90170000D02*
X170180000Y-88265000D01*
%TO.N,Net-(J4-Pad2)*%
X167640000Y-90170000D02*
X167640000Y-88265000D01*
X166955000Y-87580000D02*
X166955000Y-83820000D01*
X167640000Y-88265000D02*
X166955000Y-87580000D01*
%TO.N,Net-(J4-Pad3)*%
X165100000Y-90170000D02*
X165100000Y-88265000D01*
X165705000Y-87660000D02*
X165705000Y-83820000D01*
X165100000Y-88265000D02*
X165705000Y-87660000D01*
%TO.N,Net-(J4-Pad4)*%
X164455000Y-85989000D02*
X164455000Y-83820000D01*
X162560000Y-87884000D02*
X164455000Y-85989000D01*
X162560000Y-90170000D02*
X162560000Y-87884000D01*
%TO.N,Net-(J4-Pad5)*%
X163205000Y-85715000D02*
X163205000Y-83820000D01*
X160020000Y-88900000D02*
X163205000Y-85715000D01*
X160020000Y-90170000D02*
X160020000Y-88900000D01*
%TO.N,Net-(J4-Pad6)*%
X157480000Y-90170000D02*
X157480000Y-88900000D01*
X161955000Y-85441000D02*
X161955000Y-83820000D01*
X160528000Y-86868000D02*
X161955000Y-85441000D01*
X158496000Y-86868000D02*
X160528000Y-86868000D01*
X157480000Y-87884000D02*
X158496000Y-86868000D01*
X157480000Y-90170000D02*
X157480000Y-87884000D01*
%TO.N,Net-(J4-Pad7)*%
X160705000Y-85270000D02*
X160705000Y-83820000D01*
X160250000Y-85725000D02*
X160705000Y-85270000D01*
X157480000Y-85725000D02*
X160250000Y-85725000D01*
X154940000Y-88265000D02*
X157480000Y-85725000D01*
X154940000Y-88900000D02*
X154940000Y-88265000D01*
D29*
%TO.N,+5V*%
X149080000Y-113030000D02*
X140970000Y-113030000D01*
D32*
X139065000Y-109220000D02*
X149860000Y-109220000D01*
X157480000Y-105410000D02*
X157480000Y-102870000D01*
%TO.N,Net-(J7-Pad1)*%
X140265000Y-83820000D02*
X140265000Y-84639000D01*
X140265000Y-84639000D02*
X140716000Y-85090000D01*
X142100000Y-85090000D02*
X143440000Y-86430000D01*
X140716000Y-85090000D02*
X142100000Y-85090000D01*
%TO.N,Net-(J7-Pad2)*%
X141071000Y-87326000D02*
X142190000Y-87326000D01*
X139015000Y-85270000D02*
X141071000Y-87326000D01*
X139015000Y-83820000D02*
X139015000Y-85270000D01*
%TO.N,Net-(J7-Pad3)*%
X137765000Y-85695000D02*
X138315000Y-86245000D01*
X137765000Y-83820000D02*
X137765000Y-85695000D01*
%TO.N,Net-(J7-Pad4)*%
X136515000Y-86159000D02*
X137065000Y-86709000D01*
X136515000Y-83820000D02*
X136515000Y-86159000D01*
%TO.N,Net-(J7-Pad5)*%
X135265000Y-83820000D02*
X135265000Y-86497000D01*
X135265000Y-86497000D02*
X135815000Y-87047000D01*
%TO.N,Net-(J7-Pad6)*%
X134015000Y-89565000D02*
X134620000Y-90170000D01*
X134015000Y-83820000D02*
X134015000Y-89565000D01*
%TO.N,Net-(J7-Pad7)*%
X133874398Y-82042000D02*
X134620000Y-82042000D01*
X132765000Y-83151398D02*
X133874398Y-82042000D01*
X132765000Y-83820000D02*
X132765000Y-83151398D01*
%TO.N,Net-(J10-Pad2)*%
X164846000Y-96012000D02*
X168402000Y-96012000D01*
X162560000Y-98298000D02*
X164846000Y-96012000D01*
X162560000Y-102870000D02*
X162560000Y-98298000D01*
%TO.N,Net-(J10-Pad1)*%
X160020000Y-102870000D02*
X160020000Y-97790000D01*
X163068000Y-94742000D02*
X168148000Y-94742000D01*
X160020000Y-97790000D02*
X163068000Y-94742000D01*
%TO.N,Net-(J10-Pad3)*%
X166878000Y-97282000D02*
X168656000Y-97282000D01*
X165100000Y-99060000D02*
X166878000Y-97282000D01*
X165100000Y-102870000D02*
X165100000Y-99060000D01*
%TO.N,Net-(J10-Pad4)*%
X167640000Y-102870000D02*
X167640000Y-99822014D01*
X167640000Y-99822014D02*
X168910014Y-98552000D01*
%TO.N,Net-(J3-Pad3)*%
X139247001Y-128452001D02*
X162377999Y-128452001D01*
X137160000Y-126365000D02*
X139247001Y-128452001D01*
X163640000Y-127190000D02*
X163640000Y-120650000D01*
X162377999Y-128452001D02*
X163640000Y-127190000D01*
D29*
%TO.N,Net-(J2-Pad3)*%
X131890000Y-120650000D02*
X130810000Y-121730000D01*
X130810000Y-121730000D02*
X130810000Y-126365000D01*
D30*
%TO.N,+12V*%
X170180000Y-105410000D02*
X170180000Y-102870000D01*
%TD*%
M02*
