M48
; DRILL file {KiCad (5.1.9)-1} date 04/17/21 19:00:45
; FORMAT={-:-/ absolute / inch / decimal}
; #@! TF.CreationDate,2021-04-17T19:00:45-07:00
; #@! TF.GenerationSoftware,Kicad,Pcbnew,(5.1.9)-1
FMAT,2
INCH
T1C0.0197
T2C0.0236
T3C0.0354
T4C0.0394
T5C0.0402
T6C0.0787
T7C0.0858
T8C0.1063
%
G90
G05
T1
X5.868Y-4.55
X5.8693Y-4.45
X5.9307Y-4.45
X5.932Y-4.55
T2
X5.3Y-3.23
X5.3Y-3.55
X5.347Y-3.427
X5.3963Y-3.4137
X5.4455Y-3.3955
X5.598Y-3.438
X5.6472Y-3.4028
X5.825Y-4.575
X5.9Y-4.3
X6.2Y-4.15
X6.62Y-3.73
X6.63Y-3.78
X6.64Y-3.83
X6.65Y-3.88
T3
X5.1925Y-4.75
X5.2713Y-4.75
X5.35Y-4.75
X6.4425Y-4.75
X6.5213Y-4.75
X6.6Y-4.75
T4
X6.075Y-4.125
X6.125Y-3.975
X6.7Y-4.15
X6.825Y-3.475
X6.825Y-4.125
T5
X5.175Y-4.3
X5.175Y-4.45
X5.275Y-4.3
X5.275Y-4.45
X5.375Y-4.3
X5.375Y-4.45
X5.475Y-4.3
X5.475Y-4.45
X5.575Y-4.45
X6.25Y-4.4248
X6.25Y-4.5248
X6.25Y-4.6248
X6.25Y-4.7248
X6.25Y-4.8248
T6
X5.0Y-3.2
X5.0Y-5.0
X6.8Y-3.2
X6.8Y-5.0
T7
X5.036Y-4.4169
X5.5675Y-3.787
X6.2846Y-4.2866
X6.8134Y-4.8154
T8
X5.7858Y-4.9406
X5.9886Y-4.9406
T0
M30
