%TF.GenerationSoftware,KiCad,Pcbnew,(5.1.9)-1*%
%TF.CreationDate,2021-04-17T19:11:21-07:00*%
%TF.ProjectId,UAS_V2,5541535f-5632-42e6-9b69-6361645f7063,rev?*%
%TF.SameCoordinates,Original*%
%TF.FileFunction,Copper,L2,Bot*%
%TF.FilePolarity,Positive*%
%FSLAX46Y46*%
G04 Gerber Fmt 4.6, Leading zero omitted, Abs format (unit mm)*
G04 Created by KiCad (PCBNEW (5.1.9)-1) date 2021-04-17 19:11:21*
%MOMM*%
%LPD*%
G01*
G04 APERTURE LIST*
%TA.AperFunction,ComponentPad*%
%ADD10R,0.890000X0.930000*%
%TD*%
%TA.AperFunction,ComponentPad*%
%ADD11R,0.870000X0.930000*%
%TD*%
%TA.AperFunction,SMDPad,CuDef*%
%ADD12R,2.700000X1.000000*%
%TD*%
%TA.AperFunction,SMDPad,CuDef*%
%ADD13R,1.700000X0.600000*%
%TD*%
%TA.AperFunction,SMDPad,CuDef*%
%ADD14R,0.600000X1.700000*%
%TD*%
%TA.AperFunction,SMDPad,CuDef*%
%ADD15R,1.000000X2.700000*%
%TD*%
%TA.AperFunction,ComponentPad*%
%ADD16R,1.500000X1.500000*%
%TD*%
%TA.AperFunction,ComponentPad*%
%ADD17C,1.500000*%
%TD*%
%TA.AperFunction,SMDPad,CuDef*%
%ADD18O,3.000000X1.800000*%
%TD*%
%TA.AperFunction,SMDPad,CuDef*%
%ADD19R,3.000000X1.800000*%
%TD*%
%TA.AperFunction,ComponentPad*%
%ADD20C,3.000000*%
%TD*%
%TA.AperFunction,ComponentPad*%
%ADD21O,3.000000X1.800000*%
%TD*%
%TA.AperFunction,ComponentPad*%
%ADD22R,3.000000X1.800000*%
%TD*%
%TA.AperFunction,ComponentPad*%
%ADD23O,1.800000X3.000000*%
%TD*%
%TA.AperFunction,ComponentPad*%
%ADD24C,3.250000*%
%TD*%
%TA.AperFunction,ComponentPad*%
%ADD25C,4.000000*%
%TD*%
%TA.AperFunction,ComponentPad*%
%ADD26R,4.000000X4.000000*%
%TD*%
%TA.AperFunction,ViaPad*%
%ADD27C,2.250000*%
%TD*%
%TA.AperFunction,ViaPad*%
%ADD28C,1.300000*%
%TD*%
%TA.AperFunction,ViaPad*%
%ADD29C,0.850000*%
%TD*%
%TA.AperFunction,ViaPad*%
%ADD30C,0.750000*%
%TD*%
%TA.AperFunction,Conductor*%
%ADD31C,0.600000*%
%TD*%
%TA.AperFunction,Conductor*%
%ADD32C,2.000000*%
%TD*%
%TA.AperFunction,Conductor*%
%ADD33C,0.750000*%
%TD*%
%TA.AperFunction,Conductor*%
%ADD34C,1.000000*%
%TD*%
%TA.AperFunction,Conductor*%
%ADD35C,0.254000*%
%TD*%
%TA.AperFunction,Conductor*%
%ADD36C,0.100000*%
%TD*%
G04 APERTURE END LIST*
D10*
%TO.P,D1,1*%
%TO.N,GND*%
X149046000Y-115570000D03*
%TO.P,D1,2*%
%TO.N,Net-(D1-Pad2)*%
X150674000Y-115570000D03*
%TD*%
D11*
%TO.P,R1,2*%
%TO.N,+5V*%
X149080000Y-113030000D03*
%TO.P,R1,1*%
%TO.N,Net-(D1-Pad2)*%
X150640000Y-113030000D03*
%TD*%
D12*
%TO.P,J10,SH1*%
%TO.N,N/C*%
X173645000Y-92795000D03*
D13*
%TO.P,J10,2*%
%TO.N,Net-(J10-Pad2)*%
X170445000Y-95895000D03*
%TO.P,J10,1*%
%TO.N,Net-(J10-Pad1)*%
X170445000Y-94645000D03*
%TO.P,J10,3*%
%TO.N,Net-(J10-Pad3)*%
X170445000Y-97145000D03*
%TO.P,J10,4*%
%TO.N,Net-(J10-Pad4)*%
X170445000Y-98395000D03*
D12*
%TO.P,J10,SH2*%
%TO.N,N/C*%
X173645000Y-100245000D03*
%TD*%
D14*
%TO.P,J9,4*%
%TO.N,Net-(J7-Pad3)*%
X138440000Y-83820000D03*
%TO.P,J9,5*%
%TO.N,GND*%
X139690000Y-83820000D03*
%TO.P,J9,6*%
%TO.N,+5V*%
X140940000Y-83820000D03*
%TO.P,J9,7*%
%TO.N,Net-(J7-Pad2)*%
X142190000Y-83820000D03*
%TO.P,J9,3*%
%TO.N,Net-(J7-Pad4)*%
X137190000Y-83820000D03*
%TO.P,J9,2*%
%TO.N,Net-(J7-Pad5)*%
X135940000Y-83820000D03*
%TO.P,J9,1*%
%TO.N,Net-(J7-Pad7)*%
X134690000Y-83820000D03*
%TO.P,J9,8*%
%TO.N,Net-(J7-Pad1)*%
X143440000Y-83820000D03*
D15*
%TO.P,J9,SH1*%
%TO.N,N/C*%
X132840000Y-80620000D03*
%TO.P,J9,SH2*%
X145290000Y-80620000D03*
%TD*%
D14*
%TO.P,J8,4*%
%TO.N,Net-(J7-Pad3)*%
X138315000Y-92075000D03*
%TO.P,J8,5*%
%TO.N,GND*%
X139565000Y-92075000D03*
%TO.P,J8,6*%
%TO.N,+5V*%
X140815000Y-92075000D03*
%TO.P,J8,7*%
%TO.N,Net-(J7-Pad2)*%
X142065000Y-92075000D03*
%TO.P,J8,3*%
%TO.N,Net-(J7-Pad4)*%
X137065000Y-92075000D03*
%TO.P,J8,2*%
%TO.N,Net-(J7-Pad5)*%
X135815000Y-92075000D03*
%TO.P,J8,1*%
%TO.N,Net-(J7-Pad6)*%
X134565000Y-92075000D03*
%TO.P,J8,8*%
%TO.N,Net-(J7-Pad1)*%
X143315000Y-92075000D03*
D15*
%TO.P,J8,SH1*%
%TO.N,N/C*%
X132715000Y-88875000D03*
%TO.P,J8,SH2*%
X145165000Y-88875000D03*
%TD*%
D16*
%TO.P,J3,1*%
%TO.N,GND*%
X167640000Y-120650000D03*
D17*
%TO.P,J3,2*%
%TO.N,+7.5V*%
X165640000Y-120650000D03*
%TO.P,J3,3*%
%TO.N,Net-(J3-Pad3)*%
X163640000Y-120650000D03*
%TD*%
D16*
%TO.P,J2,1*%
%TO.N,GND*%
X135890000Y-120650000D03*
D17*
%TO.P,J2,2*%
%TO.N,+7.5V*%
X133890000Y-120650000D03*
%TO.P,J2,3*%
%TO.N,Net-(J2-Pad3)*%
X131890000Y-120650000D03*
%TD*%
D18*
%TO.P,U4,4*%
%TO.N,+12V*%
X163830000Y-106085000D03*
D19*
%TO.P,U4,3*%
%TO.N,GND*%
X163830000Y-108625000D03*
D18*
%TO.P,U4,2*%
%TO.N,+24V*%
X163830000Y-111165000D03*
%TO.P,U4,1*%
%TO.N,Net-(U4-Pad1)*%
X163830000Y-113705000D03*
%TD*%
D20*
%TO.P,U3,6*%
%TO.N,N/C*%
X173060000Y-122310000D03*
%TO.P,U3,7*%
X159630000Y-108880000D03*
D21*
%TO.P,U3,1*%
%TO.N,+24V*%
X158750000Y-112390000D03*
%TO.P,U3,2*%
%TO.N,Net-(U3-Pad2)*%
X158750000Y-114930000D03*
D22*
%TO.P,U3,3*%
%TO.N,GND*%
X158750000Y-117470000D03*
%TO.P,U3,4*%
X158750000Y-120010000D03*
D21*
%TO.P,U3,5*%
%TO.N,+7.5V*%
X158750000Y-122550000D03*
%TD*%
D23*
%TO.P,U2,4*%
%TO.N,+5V*%
X139065000Y-109220000D03*
%TO.P,U2,3*%
%TO.N,GND*%
X136525000Y-109220000D03*
%TO.P,U2,2*%
%TO.N,+24V*%
X133985000Y-109220000D03*
%TO.P,U2,1*%
%TO.N,Net-(U2-Pad1)*%
X131445000Y-109220000D03*
%TD*%
D24*
%TO.P,U1,7*%
%TO.N,N/C*%
X127915000Y-112190000D03*
%TO.P,U1,6*%
X141415000Y-96190000D03*
D23*
%TO.P,U1,5*%
%TO.N,+5V*%
X141605000Y-113030000D03*
%TO.P,U1,4*%
%TO.N,GND*%
X139065000Y-113030000D03*
%TO.P,U1,3*%
X136525000Y-113030000D03*
%TO.P,U1,2*%
%TO.N,+24V*%
X133985000Y-113030000D03*
%TO.P,U1,1*%
%TO.N,Net-(U1-Pad1)*%
X131445000Y-113030000D03*
%TD*%
D12*
%TO.P,J6,SH1*%
%TO.N,N/C*%
X126710000Y-98340000D03*
D13*
%TO.P,J6,2*%
%TO.N,+5V*%
X129910000Y-95240000D03*
%TO.P,J6,1*%
X129910000Y-96490000D03*
%TO.P,J6,3*%
%TO.N,GND*%
X129910000Y-93990000D03*
%TO.P,J6,4*%
X129910000Y-92740000D03*
D12*
%TO.P,J6,SH2*%
%TO.N,N/C*%
X126710000Y-90890000D03*
%TD*%
%TO.P,J5,SH1*%
%TO.N,N/C*%
X126710000Y-108500000D03*
D13*
%TO.P,J5,2*%
%TO.N,+5V*%
X129910000Y-105400000D03*
%TO.P,J5,1*%
X129910000Y-106650000D03*
%TO.P,J5,3*%
%TO.N,GND*%
X129910000Y-104150000D03*
%TO.P,J5,4*%
X129910000Y-102900000D03*
D12*
%TO.P,J5,SH2*%
%TO.N,N/C*%
X126710000Y-101050000D03*
%TD*%
D25*
%TO.P,J1,2*%
%TO.N,+24V*%
X152110000Y-125490000D03*
D26*
%TO.P,J1,1*%
%TO.N,GND*%
X146960000Y-125490000D03*
%TD*%
D27*
%TO.N,*%
X127000000Y-127000000D03*
X172720000Y-127000000D03*
X172720000Y-81280000D03*
X127000000Y-81280000D03*
D28*
%TO.N,GND*%
X155575000Y-100965000D03*
X154305000Y-104775000D03*
X173355000Y-104775000D03*
X173355000Y-88265000D03*
D29*
X147955000Y-116205000D03*
%TO.N,+5V*%
X149860000Y-109220000D03*
D30*
X157480000Y-105410000D03*
D29*
%TO.N,Net-(J7-Pad1)*%
X143440000Y-86430000D03*
%TO.N,Net-(J7-Pad2)*%
X142190000Y-87326000D03*
%TO.N,Net-(J7-Pad3)*%
X138315000Y-86245000D03*
%TO.N,Net-(J7-Pad4)*%
X137065000Y-86709000D03*
%TO.N,Net-(J7-Pad5)*%
X135815000Y-87047000D03*
%TO.N,Net-(J7-Pad6)*%
X134620000Y-90170000D03*
%TO.N,Net-(J7-Pad7)*%
X134620000Y-82042000D03*
%TO.N,Net-(J10-Pad2)*%
X168402000Y-96012000D03*
%TO.N,Net-(J10-Pad1)*%
X168148000Y-94742000D03*
%TO.N,Net-(J10-Pad3)*%
X168656000Y-97282000D03*
%TO.N,Net-(J10-Pad4)*%
X168910014Y-98552000D03*
D28*
%TO.N,+12V*%
X170180000Y-105410000D03*
%TD*%
D31*
%TO.N,GND*%
X139690000Y-91950000D02*
X139565000Y-92075000D01*
X139690000Y-83820000D02*
X139690000Y-91950000D01*
D32*
%TO.N,+24V*%
X160007962Y-112390000D02*
X161232962Y-111165000D01*
X158750000Y-112390000D02*
X160007962Y-112390000D01*
X161232962Y-111165000D02*
X163830000Y-111165000D01*
D31*
%TO.N,+5V*%
X149860000Y-109220000D02*
X152400000Y-109220000D01*
D33*
X139065000Y-109220000D02*
X139065000Y-107315000D01*
D31*
X139065000Y-107315000D02*
X138430000Y-106680000D01*
X129940000Y-106680000D02*
X129910000Y-106650000D01*
X138430000Y-106680000D02*
X129940000Y-106680000D01*
X138420000Y-105400000D02*
X129910000Y-105400000D01*
X139065000Y-106045000D02*
X138420000Y-105400000D01*
D34*
X139065000Y-109220000D02*
X139065000Y-106045000D01*
D32*
X141605000Y-111760000D02*
X141605000Y-113030000D01*
X139065000Y-109220000D02*
X141605000Y-111760000D01*
D34*
X141605000Y-113030000D02*
X141605000Y-101600000D01*
X141605000Y-101600000D02*
X138430000Y-98425000D01*
D31*
X129920000Y-95250000D02*
X129910000Y-95240000D01*
X138430000Y-95250000D02*
X137160000Y-93980000D01*
X137160000Y-93980000D02*
X132080000Y-93980000D01*
X130820000Y-95240000D02*
X129910000Y-95240000D01*
X132080000Y-93980000D02*
X130820000Y-95240000D01*
D34*
X138430000Y-96520000D02*
X138430000Y-95250000D01*
D31*
X137130000Y-96490000D02*
X129910000Y-96490000D01*
X137130000Y-96490000D02*
X138430000Y-97790000D01*
D34*
X138430000Y-97790000D02*
X138430000Y-96520000D01*
X138430000Y-98425000D02*
X138430000Y-97790000D01*
D31*
X140815000Y-92865000D02*
X140815000Y-92075000D01*
X138430000Y-95250000D02*
X140815000Y-92865000D01*
X140815000Y-83945000D02*
X140940000Y-83820000D01*
X140815000Y-92075000D02*
X140815000Y-83945000D01*
X153670000Y-109220000D02*
X157480000Y-105410000D01*
X152400000Y-109220000D02*
X153670000Y-109220000D01*
%TO.N,Net-(J7-Pad1)*%
X143440000Y-91950000D02*
X143315000Y-92075000D01*
X143440000Y-83820000D02*
X143440000Y-85274000D01*
X143440000Y-86430000D02*
X143440000Y-91950000D01*
X143440000Y-85274000D02*
X143440000Y-86430000D01*
%TO.N,Net-(J7-Pad2)*%
X142190000Y-91950000D02*
X142065000Y-92075000D01*
X142190000Y-83820000D02*
X142190000Y-85902000D01*
X142190000Y-87326000D02*
X142190000Y-91950000D01*
X142190000Y-85902000D02*
X142190000Y-87326000D01*
%TO.N,Net-(J7-Pad3)*%
X138315000Y-83945000D02*
X138440000Y-83820000D01*
X138315000Y-86245000D02*
X138315000Y-83945000D01*
X138315000Y-92075000D02*
X138315000Y-86245000D01*
%TO.N,Net-(J7-Pad4)*%
X137065000Y-83945000D02*
X137190000Y-83820000D01*
X137065000Y-86709000D02*
X137065000Y-83945000D01*
X137065000Y-92075000D02*
X137065000Y-86709000D01*
%TO.N,Net-(J7-Pad5)*%
X135815000Y-83945000D02*
X135940000Y-83820000D01*
X135815000Y-87047000D02*
X135815000Y-83945000D01*
X135815000Y-92075000D02*
X135815000Y-87047000D01*
%TO.N,Net-(J7-Pad6)*%
X134620000Y-92020000D02*
X134565000Y-92075000D01*
X134620000Y-90170000D02*
X134620000Y-92020000D01*
%TO.N,Net-(J7-Pad7)*%
X134620000Y-83750000D02*
X134690000Y-83820000D01*
X134620000Y-82042000D02*
X134620000Y-83750000D01*
%TO.N,Net-(J10-Pad2)*%
X170328000Y-96012000D02*
X170445000Y-95895000D01*
X168402000Y-96012000D02*
X170328000Y-96012000D01*
%TO.N,Net-(J10-Pad1)*%
X170348000Y-94742000D02*
X170445000Y-94645000D01*
X168148000Y-94742000D02*
X170348000Y-94742000D01*
%TO.N,Net-(J10-Pad3)*%
X170308000Y-97282000D02*
X170445000Y-97145000D01*
X168656000Y-97282000D02*
X170308000Y-97282000D01*
%TO.N,Net-(J10-Pad4)*%
X170445000Y-98395000D02*
X169067014Y-98395000D01*
X169067014Y-98395000D02*
X168910014Y-98552000D01*
D34*
%TO.N,+7.5V*%
X165640000Y-121380000D02*
X165640000Y-120650000D01*
X164470000Y-122550000D02*
X165640000Y-121380000D01*
X158750000Y-122550000D02*
X164470000Y-122550000D01*
X134729340Y-122550000D02*
X158750000Y-122550000D01*
X133890000Y-121710660D02*
X134729340Y-122550000D01*
X133890000Y-120650000D02*
X133890000Y-121710660D01*
%TO.N,+12V*%
X169505000Y-106085000D02*
X170180000Y-105410000D01*
X169505000Y-106085000D02*
X163830000Y-106085000D01*
%TD*%
D35*
%TO.N,GND*%
X131701928Y-81970000D02*
X131714188Y-82094482D01*
X131750498Y-82214180D01*
X131809463Y-82324494D01*
X131888815Y-82421185D01*
X131985506Y-82500537D01*
X132095820Y-82559502D01*
X132215518Y-82595812D01*
X132340000Y-82608072D01*
X133340000Y-82608072D01*
X133464482Y-82595812D01*
X133584180Y-82559502D01*
X133668379Y-82514496D01*
X133680640Y-82544098D01*
X133685000Y-82550624D01*
X133685001Y-83704058D01*
X133680476Y-83750000D01*
X133698529Y-83933291D01*
X133719764Y-84003292D01*
X133751928Y-84109322D01*
X133751928Y-84670000D01*
X133764188Y-84794482D01*
X133800498Y-84914180D01*
X133859463Y-85024494D01*
X133938815Y-85121185D01*
X134035506Y-85200537D01*
X134145820Y-85259502D01*
X134265518Y-85295812D01*
X134390000Y-85308072D01*
X134880001Y-85308072D01*
X134880000Y-86538377D01*
X134875640Y-86544902D01*
X134795735Y-86737809D01*
X134755000Y-86942599D01*
X134755000Y-87151401D01*
X134795735Y-87356191D01*
X134875640Y-87549098D01*
X134880001Y-87555625D01*
X134880001Y-89140950D01*
X134724401Y-89110000D01*
X134515599Y-89110000D01*
X134310809Y-89150735D01*
X134117902Y-89230640D01*
X133944289Y-89346644D01*
X133853072Y-89437861D01*
X133853072Y-87525000D01*
X133840812Y-87400518D01*
X133804502Y-87280820D01*
X133745537Y-87170506D01*
X133666185Y-87073815D01*
X133569494Y-86994463D01*
X133459180Y-86935498D01*
X133339482Y-86899188D01*
X133215000Y-86886928D01*
X132215000Y-86886928D01*
X132090518Y-86899188D01*
X131970820Y-86935498D01*
X131860506Y-86994463D01*
X131763815Y-87073815D01*
X131684463Y-87170506D01*
X131625498Y-87280820D01*
X131589188Y-87400518D01*
X131576928Y-87525000D01*
X131576928Y-90225000D01*
X131589188Y-90349482D01*
X131625498Y-90469180D01*
X131684463Y-90579494D01*
X131763815Y-90676185D01*
X131860506Y-90755537D01*
X131970820Y-90814502D01*
X132090518Y-90850812D01*
X132215000Y-90863072D01*
X133215000Y-90863072D01*
X133339482Y-90850812D01*
X133459180Y-90814502D01*
X133569494Y-90755537D01*
X133666185Y-90676185D01*
X133676916Y-90663109D01*
X133680640Y-90672098D01*
X133685000Y-90678624D01*
X133685000Y-90963042D01*
X133675498Y-90980820D01*
X133639188Y-91100518D01*
X133626928Y-91225000D01*
X133626928Y-92060258D01*
X133625476Y-92075000D01*
X133626928Y-92089742D01*
X133626928Y-92925000D01*
X133638747Y-93045000D01*
X132125931Y-93045000D01*
X132079999Y-93040476D01*
X131896707Y-93058529D01*
X131843243Y-93074747D01*
X131720460Y-93111993D01*
X131558028Y-93198814D01*
X131415656Y-93315656D01*
X131386374Y-93351336D01*
X131329434Y-93408276D01*
X131306302Y-93365000D01*
X131349502Y-93284180D01*
X131385812Y-93164482D01*
X131398072Y-93040000D01*
X131395000Y-93025750D01*
X131236250Y-92867000D01*
X130037000Y-92867000D01*
X130037000Y-93863000D01*
X130057000Y-93863000D01*
X130057000Y-94117000D01*
X130037000Y-94117000D01*
X130037000Y-94137000D01*
X129783000Y-94137000D01*
X129783000Y-94117000D01*
X128583750Y-94117000D01*
X128425000Y-94275750D01*
X128421928Y-94290000D01*
X128434188Y-94414482D01*
X128470498Y-94534180D01*
X128513698Y-94615000D01*
X128470498Y-94695820D01*
X128434188Y-94815518D01*
X128421928Y-94940000D01*
X128421928Y-95540000D01*
X128434188Y-95664482D01*
X128470498Y-95784180D01*
X128513698Y-95865000D01*
X128470498Y-95945820D01*
X128434188Y-96065518D01*
X128421928Y-96190000D01*
X128421928Y-96790000D01*
X128434188Y-96914482D01*
X128470498Y-97034180D01*
X128529463Y-97144494D01*
X128608815Y-97241185D01*
X128705506Y-97320537D01*
X128815820Y-97379502D01*
X128935518Y-97415812D01*
X129060000Y-97428072D01*
X130760000Y-97428072D01*
X130791192Y-97425000D01*
X136742711Y-97425000D01*
X137295000Y-97977289D01*
X137295000Y-98369249D01*
X137289509Y-98425000D01*
X137295000Y-98480751D01*
X137311423Y-98647498D01*
X137376324Y-98861446D01*
X137481716Y-99058623D01*
X137623551Y-99231449D01*
X137666865Y-99266996D01*
X140470001Y-102070133D01*
X140470000Y-107992291D01*
X140347481Y-107763073D01*
X140200000Y-107583366D01*
X140200000Y-105989248D01*
X140183577Y-105822501D01*
X140118676Y-105608553D01*
X140013284Y-105411377D01*
X139871449Y-105238551D01*
X139698623Y-105096716D01*
X139501447Y-104991324D01*
X139287499Y-104926423D01*
X139266660Y-104924371D01*
X139113630Y-104771341D01*
X139084344Y-104735656D01*
X138941972Y-104618814D01*
X138779540Y-104531993D01*
X138603292Y-104478529D01*
X138465932Y-104465000D01*
X138420000Y-104460476D01*
X138374068Y-104465000D01*
X131396595Y-104465000D01*
X131398072Y-104450000D01*
X131395000Y-104435750D01*
X131236250Y-104277000D01*
X130037000Y-104277000D01*
X130037000Y-104297000D01*
X129783000Y-104297000D01*
X129783000Y-104277000D01*
X128583750Y-104277000D01*
X128425000Y-104435750D01*
X128421928Y-104450000D01*
X128434188Y-104574482D01*
X128470498Y-104694180D01*
X128513698Y-104775000D01*
X128470498Y-104855820D01*
X128434188Y-104975518D01*
X128421928Y-105100000D01*
X128421928Y-105700000D01*
X128434188Y-105824482D01*
X128470498Y-105944180D01*
X128513698Y-106025000D01*
X128470498Y-106105820D01*
X128434188Y-106225518D01*
X128421928Y-106350000D01*
X128421928Y-106950000D01*
X128434188Y-107074482D01*
X128470498Y-107194180D01*
X128529463Y-107304494D01*
X128608815Y-107401185D01*
X128705506Y-107480537D01*
X128815820Y-107539502D01*
X128935518Y-107575812D01*
X129060000Y-107588072D01*
X129712537Y-107588072D01*
X129753566Y-107600518D01*
X129756708Y-107601471D01*
X129939999Y-107619524D01*
X129985931Y-107615000D01*
X130284039Y-107615000D01*
X130162519Y-107763074D01*
X130019983Y-108029740D01*
X129932210Y-108319088D01*
X129910000Y-108544593D01*
X129910000Y-109895408D01*
X129932210Y-110120913D01*
X130019983Y-110410261D01*
X130162520Y-110676927D01*
X130354340Y-110910661D01*
X130588074Y-111102481D01*
X130630204Y-111125000D01*
X130588073Y-111147519D01*
X130354339Y-111339339D01*
X130162519Y-111573074D01*
X130114450Y-111663005D01*
X130088149Y-111530782D01*
X129917786Y-111119489D01*
X129670456Y-110749334D01*
X129355666Y-110434544D01*
X128985511Y-110187214D01*
X128574218Y-110016851D01*
X128137591Y-109930000D01*
X127692409Y-109930000D01*
X127255782Y-110016851D01*
X126844489Y-110187214D01*
X126474334Y-110434544D01*
X126159544Y-110749334D01*
X125912214Y-111119489D01*
X125741851Y-111530782D01*
X125655000Y-111967409D01*
X125655000Y-112412591D01*
X125741851Y-112849218D01*
X125912214Y-113260511D01*
X126159544Y-113630666D01*
X126474334Y-113945456D01*
X126844489Y-114192786D01*
X127255782Y-114363149D01*
X127692409Y-114450000D01*
X128137591Y-114450000D01*
X128574218Y-114363149D01*
X128985511Y-114192786D01*
X129355666Y-113945456D01*
X129670456Y-113630666D01*
X129910000Y-113272164D01*
X129910000Y-113705408D01*
X129932210Y-113930913D01*
X130019983Y-114220261D01*
X130162520Y-114486927D01*
X130354340Y-114720661D01*
X130588074Y-114912481D01*
X130854740Y-115055017D01*
X131144088Y-115142790D01*
X131445000Y-115172427D01*
X131745913Y-115142790D01*
X132035261Y-115055017D01*
X132301927Y-114912481D01*
X132535661Y-114720661D01*
X132715001Y-114502135D01*
X132894340Y-114720661D01*
X133128074Y-114912481D01*
X133394740Y-115055017D01*
X133684088Y-115142790D01*
X133985000Y-115172427D01*
X134285913Y-115142790D01*
X134575261Y-115055017D01*
X134841927Y-114912481D01*
X135075661Y-114720661D01*
X135259781Y-114496309D01*
X135319252Y-114588396D01*
X135529394Y-114805210D01*
X135777796Y-114976862D01*
X136054913Y-115096755D01*
X136160260Y-115121036D01*
X136398000Y-115000378D01*
X136398000Y-113157000D01*
X136652000Y-113157000D01*
X136652000Y-115000378D01*
X136889740Y-115121036D01*
X136995087Y-115096755D01*
X137272204Y-114976862D01*
X137520606Y-114805210D01*
X137730748Y-114588396D01*
X137795000Y-114488905D01*
X137859252Y-114588396D01*
X138069394Y-114805210D01*
X138317796Y-114976862D01*
X138594913Y-115096755D01*
X138700260Y-115121036D01*
X138938000Y-115000378D01*
X138938000Y-113157000D01*
X136652000Y-113157000D01*
X136398000Y-113157000D01*
X136378000Y-113157000D01*
X136378000Y-112903000D01*
X136398000Y-112903000D01*
X136398000Y-109347000D01*
X136378000Y-109347000D01*
X136378000Y-109093000D01*
X136398000Y-109093000D01*
X136398000Y-109073000D01*
X136652000Y-109073000D01*
X136652000Y-109093000D01*
X136672000Y-109093000D01*
X136672000Y-109347000D01*
X136652000Y-109347000D01*
X136652000Y-112903000D01*
X138938000Y-112903000D01*
X138938000Y-112883000D01*
X139192000Y-112883000D01*
X139192000Y-112903000D01*
X139212000Y-112903000D01*
X139212000Y-113157000D01*
X139192000Y-113157000D01*
X139192000Y-115000378D01*
X139429740Y-115121036D01*
X139535087Y-115096755D01*
X139812204Y-114976862D01*
X140060606Y-114805210D01*
X140270748Y-114588396D01*
X140330219Y-114496308D01*
X140514340Y-114720661D01*
X140748074Y-114912481D01*
X141014740Y-115055017D01*
X141304088Y-115142790D01*
X141605000Y-115172427D01*
X141905913Y-115142790D01*
X142030489Y-115105000D01*
X147962928Y-115105000D01*
X147966000Y-115284250D01*
X148124750Y-115443000D01*
X148919000Y-115443000D01*
X148919000Y-114628750D01*
X149173000Y-114628750D01*
X149173000Y-115443000D01*
X149193000Y-115443000D01*
X149193000Y-115697000D01*
X149173000Y-115697000D01*
X149173000Y-116511250D01*
X149331750Y-116670000D01*
X149491000Y-116673072D01*
X149615482Y-116660812D01*
X149735180Y-116624502D01*
X149845494Y-116565537D01*
X149860000Y-116553632D01*
X149874506Y-116565537D01*
X149984820Y-116624502D01*
X150104518Y-116660812D01*
X150229000Y-116673072D01*
X151119000Y-116673072D01*
X151243482Y-116660812D01*
X151363180Y-116624502D01*
X151473494Y-116565537D01*
X151570185Y-116486185D01*
X151649537Y-116389494D01*
X151708502Y-116279180D01*
X151744812Y-116159482D01*
X151757072Y-116035000D01*
X151757072Y-115105000D01*
X151744812Y-114980518D01*
X151708502Y-114860820D01*
X151649537Y-114750506D01*
X151570185Y-114653815D01*
X151473494Y-114574463D01*
X151363180Y-114515498D01*
X151243482Y-114479188D01*
X151119000Y-114466928D01*
X150229000Y-114466928D01*
X150104518Y-114479188D01*
X149984820Y-114515498D01*
X149874506Y-114574463D01*
X149860000Y-114586368D01*
X149845494Y-114574463D01*
X149735180Y-114515498D01*
X149615482Y-114479188D01*
X149491000Y-114466928D01*
X149331750Y-114470000D01*
X149173000Y-114628750D01*
X148919000Y-114628750D01*
X148760250Y-114470000D01*
X148601000Y-114466928D01*
X148476518Y-114479188D01*
X148356820Y-114515498D01*
X148246506Y-114574463D01*
X148149815Y-114653815D01*
X148070463Y-114750506D01*
X148011498Y-114860820D01*
X147975188Y-114980518D01*
X147962928Y-115105000D01*
X142030489Y-115105000D01*
X142195261Y-115055017D01*
X142461927Y-114912481D01*
X142695661Y-114720661D01*
X142887481Y-114486927D01*
X143030017Y-114220261D01*
X143117790Y-113930913D01*
X143140000Y-113705408D01*
X143140000Y-113602186D01*
X143216343Y-113350516D01*
X143240000Y-113110322D01*
X143240000Y-112565000D01*
X148006928Y-112565000D01*
X148006928Y-113495000D01*
X148019188Y-113619482D01*
X148055498Y-113739180D01*
X148114463Y-113849494D01*
X148193815Y-113946185D01*
X148290506Y-114025537D01*
X148400820Y-114084502D01*
X148520518Y-114120812D01*
X148645000Y-114133072D01*
X149515000Y-114133072D01*
X149639482Y-114120812D01*
X149759180Y-114084502D01*
X149860000Y-114030612D01*
X149960820Y-114084502D01*
X150080518Y-114120812D01*
X150205000Y-114133072D01*
X151075000Y-114133072D01*
X151199482Y-114120812D01*
X151319180Y-114084502D01*
X151429494Y-114025537D01*
X151526185Y-113946185D01*
X151605537Y-113849494D01*
X151664502Y-113739180D01*
X151700812Y-113619482D01*
X151713072Y-113495000D01*
X151713072Y-112565000D01*
X151700812Y-112440518D01*
X151685488Y-112390000D01*
X156607573Y-112390000D01*
X156637210Y-112690913D01*
X156724983Y-112980261D01*
X156867519Y-113246927D01*
X157059339Y-113480661D01*
X157277865Y-113660000D01*
X157059339Y-113839339D01*
X156867519Y-114073073D01*
X156724983Y-114339739D01*
X156637210Y-114629087D01*
X156607573Y-114930000D01*
X156637210Y-115230913D01*
X156724983Y-115520261D01*
X156867519Y-115786927D01*
X157022280Y-115975505D01*
X157005820Y-115980498D01*
X156895506Y-116039463D01*
X156798815Y-116118815D01*
X156719463Y-116215506D01*
X156660498Y-116325820D01*
X156624188Y-116445518D01*
X156611928Y-116570000D01*
X156615000Y-117184250D01*
X156773750Y-117343000D01*
X158623000Y-117343000D01*
X158623000Y-117323000D01*
X158877000Y-117323000D01*
X158877000Y-117343000D01*
X160726250Y-117343000D01*
X160885000Y-117184250D01*
X160888072Y-116570000D01*
X160875812Y-116445518D01*
X160839502Y-116325820D01*
X160780537Y-116215506D01*
X160701185Y-116118815D01*
X160604494Y-116039463D01*
X160494180Y-115980498D01*
X160477720Y-115975505D01*
X160632481Y-115786927D01*
X160775017Y-115520261D01*
X160862790Y-115230913D01*
X160892427Y-114930000D01*
X160862790Y-114629087D01*
X160775017Y-114339739D01*
X160632481Y-114073073D01*
X160524752Y-113941804D01*
X160636677Y-113907852D01*
X160920714Y-113756031D01*
X161169676Y-113551714D01*
X161220886Y-113489314D01*
X161910201Y-112800000D01*
X161986971Y-112800000D01*
X161947519Y-112848073D01*
X161804983Y-113114739D01*
X161717210Y-113404087D01*
X161687573Y-113705000D01*
X161717210Y-114005913D01*
X161804983Y-114295261D01*
X161947519Y-114561927D01*
X162139339Y-114795661D01*
X162373073Y-114987481D01*
X162639739Y-115130017D01*
X162929087Y-115217790D01*
X163154592Y-115240000D01*
X164505408Y-115240000D01*
X164730913Y-115217790D01*
X165020261Y-115130017D01*
X165286927Y-114987481D01*
X165520661Y-114795661D01*
X165712481Y-114561927D01*
X165855017Y-114295261D01*
X165942790Y-114005913D01*
X165972427Y-113705000D01*
X165942790Y-113404087D01*
X165855017Y-113114739D01*
X165712481Y-112848073D01*
X165520661Y-112614339D01*
X165302135Y-112435000D01*
X165520661Y-112255661D01*
X165712481Y-112021927D01*
X165855017Y-111755261D01*
X165942790Y-111465913D01*
X165972427Y-111165000D01*
X165942790Y-110864087D01*
X165855017Y-110574739D01*
X165712481Y-110308073D01*
X165557720Y-110119495D01*
X165574180Y-110114502D01*
X165684494Y-110055537D01*
X165781185Y-109976185D01*
X165860537Y-109879494D01*
X165919502Y-109769180D01*
X165955812Y-109649482D01*
X165968072Y-109525000D01*
X165965000Y-108910750D01*
X165806250Y-108752000D01*
X163957000Y-108752000D01*
X163957000Y-108772000D01*
X163703000Y-108772000D01*
X163703000Y-108752000D01*
X163683000Y-108752000D01*
X163683000Y-108498000D01*
X163703000Y-108498000D01*
X163703000Y-108478000D01*
X163957000Y-108478000D01*
X163957000Y-108498000D01*
X165806250Y-108498000D01*
X165965000Y-108339250D01*
X165968072Y-107725000D01*
X165955812Y-107600518D01*
X165919502Y-107480820D01*
X165860537Y-107370506D01*
X165781185Y-107273815D01*
X165715611Y-107220000D01*
X169449249Y-107220000D01*
X169505000Y-107225491D01*
X169560751Y-107220000D01*
X169560752Y-107220000D01*
X169727499Y-107203577D01*
X169941447Y-107138676D01*
X170138623Y-107033284D01*
X170311449Y-106891449D01*
X170346996Y-106848135D01*
X170548194Y-106646937D01*
X170554821Y-106645619D01*
X170788676Y-106548753D01*
X170999140Y-106408125D01*
X171178125Y-106229140D01*
X171318753Y-106018676D01*
X171415619Y-105784821D01*
X171465000Y-105536561D01*
X171465000Y-105283439D01*
X171415619Y-105035179D01*
X171318753Y-104801324D01*
X171178125Y-104590860D01*
X170999140Y-104411875D01*
X170788676Y-104271247D01*
X170554821Y-104174381D01*
X170306561Y-104125000D01*
X170053439Y-104125000D01*
X169805179Y-104174381D01*
X169571324Y-104271247D01*
X169360860Y-104411875D01*
X169181875Y-104590860D01*
X169041247Y-104801324D01*
X168979663Y-104950000D01*
X165466634Y-104950000D01*
X165286927Y-104802519D01*
X165020261Y-104659983D01*
X164730913Y-104572210D01*
X164505408Y-104550000D01*
X163154592Y-104550000D01*
X162929087Y-104572210D01*
X162639739Y-104659983D01*
X162373073Y-104802519D01*
X162139339Y-104994339D01*
X161947519Y-105228073D01*
X161804983Y-105494739D01*
X161717210Y-105784087D01*
X161687573Y-106085000D01*
X161717210Y-106385913D01*
X161804983Y-106675261D01*
X161947519Y-106941927D01*
X162102280Y-107130505D01*
X162085820Y-107135498D01*
X161975506Y-107194463D01*
X161878815Y-107273815D01*
X161799463Y-107370506D01*
X161740498Y-107480820D01*
X161704188Y-107600518D01*
X161691928Y-107725000D01*
X161694890Y-108317255D01*
X161682953Y-108257244D01*
X161522012Y-107868698D01*
X161288363Y-107519017D01*
X160990983Y-107221637D01*
X160641302Y-106987988D01*
X160252756Y-106827047D01*
X159840279Y-106745000D01*
X159419721Y-106745000D01*
X159007244Y-106827047D01*
X158618698Y-106987988D01*
X158269017Y-107221637D01*
X157971637Y-107519017D01*
X157737988Y-107868698D01*
X157577047Y-108257244D01*
X157495000Y-108669721D01*
X157495000Y-109090279D01*
X157577047Y-109502756D01*
X157737988Y-109891302D01*
X157971637Y-110240983D01*
X158269017Y-110538363D01*
X158603058Y-110761562D01*
X158429484Y-110778657D01*
X158177814Y-110855000D01*
X158074592Y-110855000D01*
X157849087Y-110877210D01*
X157559739Y-110964983D01*
X157293073Y-111107519D01*
X157059339Y-111299339D01*
X156867519Y-111533073D01*
X156724983Y-111799739D01*
X156637210Y-112089087D01*
X156607573Y-112390000D01*
X151685488Y-112390000D01*
X151664502Y-112320820D01*
X151605537Y-112210506D01*
X151526185Y-112113815D01*
X151429494Y-112034463D01*
X151319180Y-111975498D01*
X151199482Y-111939188D01*
X151075000Y-111926928D01*
X150205000Y-111926928D01*
X150080518Y-111939188D01*
X149960820Y-111975498D01*
X149860000Y-112029388D01*
X149759180Y-111975498D01*
X149639482Y-111939188D01*
X149515000Y-111926928D01*
X148645000Y-111926928D01*
X148520518Y-111939188D01*
X148400820Y-111975498D01*
X148290506Y-112034463D01*
X148193815Y-112113815D01*
X148114463Y-112210506D01*
X148055498Y-112320820D01*
X148019188Y-112440518D01*
X148006928Y-112565000D01*
X143240000Y-112565000D01*
X143240000Y-111840319D01*
X143247911Y-111759999D01*
X143229500Y-111573073D01*
X143216343Y-111439484D01*
X143122852Y-111131285D01*
X142971031Y-110847248D01*
X142766714Y-110598286D01*
X142740000Y-110576363D01*
X142740000Y-109115599D01*
X148800000Y-109115599D01*
X148800000Y-109324401D01*
X148840735Y-109529191D01*
X148920640Y-109722098D01*
X149036644Y-109895711D01*
X149184289Y-110043356D01*
X149357902Y-110159360D01*
X149550809Y-110239265D01*
X149755599Y-110280000D01*
X149964401Y-110280000D01*
X150169191Y-110239265D01*
X150362098Y-110159360D01*
X150368623Y-110155000D01*
X153624068Y-110155000D01*
X153670000Y-110159524D01*
X153715932Y-110155000D01*
X153853292Y-110141471D01*
X154029540Y-110088007D01*
X154191972Y-110001186D01*
X154334344Y-109884344D01*
X154363630Y-109848659D01*
X157871053Y-106341236D01*
X157958414Y-106305050D01*
X158123837Y-106194518D01*
X158264518Y-106053837D01*
X158375050Y-105888414D01*
X158451186Y-105704606D01*
X158490000Y-105509476D01*
X158490000Y-105310524D01*
X158451186Y-105115394D01*
X158375050Y-104931586D01*
X158264518Y-104766163D01*
X158123837Y-104625482D01*
X157958414Y-104514950D01*
X157774606Y-104438814D01*
X157579476Y-104400000D01*
X157380524Y-104400000D01*
X157185394Y-104438814D01*
X157001586Y-104514950D01*
X156836163Y-104625482D01*
X156695482Y-104766163D01*
X156584950Y-104931586D01*
X156548764Y-105018947D01*
X153282711Y-108285000D01*
X150368623Y-108285000D01*
X150362098Y-108280640D01*
X150169191Y-108200735D01*
X149964401Y-108160000D01*
X149755599Y-108160000D01*
X149550809Y-108200735D01*
X149357902Y-108280640D01*
X149184289Y-108396644D01*
X149036644Y-108544289D01*
X148920640Y-108717902D01*
X148840735Y-108910809D01*
X148800000Y-109115599D01*
X142740000Y-109115599D01*
X142740000Y-101655751D01*
X142745491Y-101599999D01*
X142723577Y-101377501D01*
X142658676Y-101163553D01*
X142624436Y-101099494D01*
X142553284Y-100966377D01*
X142411449Y-100793551D01*
X142368141Y-100758009D01*
X139565000Y-97954869D01*
X139565000Y-97489171D01*
X139659544Y-97630666D01*
X139974334Y-97945456D01*
X140344489Y-98192786D01*
X140755782Y-98363149D01*
X141192409Y-98450000D01*
X141637591Y-98450000D01*
X142074218Y-98363149D01*
X142485511Y-98192786D01*
X142855666Y-97945456D01*
X143170456Y-97630666D01*
X143417786Y-97260511D01*
X143588149Y-96849218D01*
X143675000Y-96412591D01*
X143675000Y-95967409D01*
X143588149Y-95530782D01*
X143417786Y-95119489D01*
X143170456Y-94749334D01*
X143058721Y-94637599D01*
X167088000Y-94637599D01*
X167088000Y-94846401D01*
X167128735Y-95051191D01*
X167208640Y-95244098D01*
X167324644Y-95417711D01*
X167449224Y-95542291D01*
X167382735Y-95702809D01*
X167342000Y-95907599D01*
X167342000Y-96116401D01*
X167382735Y-96321191D01*
X167462640Y-96514098D01*
X167578644Y-96687711D01*
X167703224Y-96812291D01*
X167636735Y-96972809D01*
X167596000Y-97177599D01*
X167596000Y-97386401D01*
X167636735Y-97591191D01*
X167716640Y-97784098D01*
X167832644Y-97957711D01*
X167957234Y-98082301D01*
X167890749Y-98242809D01*
X167850014Y-98447599D01*
X167850014Y-98656401D01*
X167890749Y-98861191D01*
X167970654Y-99054098D01*
X168086658Y-99227711D01*
X168234303Y-99375356D01*
X168407916Y-99491360D01*
X168600823Y-99571265D01*
X168805613Y-99612000D01*
X169014415Y-99612000D01*
X169219205Y-99571265D01*
X169412112Y-99491360D01*
X169585725Y-99375356D01*
X169628009Y-99333072D01*
X171295000Y-99333072D01*
X171419482Y-99320812D01*
X171539180Y-99284502D01*
X171649494Y-99225537D01*
X171746185Y-99146185D01*
X171825537Y-99049494D01*
X171884502Y-98939180D01*
X171920812Y-98819482D01*
X171933072Y-98695000D01*
X171933072Y-98095000D01*
X171920812Y-97970518D01*
X171884502Y-97850820D01*
X171841302Y-97770000D01*
X171884502Y-97689180D01*
X171920812Y-97569482D01*
X171933072Y-97445000D01*
X171933072Y-96845000D01*
X171920812Y-96720518D01*
X171884502Y-96600820D01*
X171841302Y-96520000D01*
X171884502Y-96439180D01*
X171920812Y-96319482D01*
X171933072Y-96195000D01*
X171933072Y-95595000D01*
X171920812Y-95470518D01*
X171884502Y-95350820D01*
X171841302Y-95270000D01*
X171884502Y-95189180D01*
X171920812Y-95069482D01*
X171933072Y-94945000D01*
X171933072Y-94345000D01*
X171920812Y-94220518D01*
X171884502Y-94100820D01*
X171825537Y-93990506D01*
X171746185Y-93893815D01*
X171649494Y-93814463D01*
X171539180Y-93755498D01*
X171419482Y-93719188D01*
X171295000Y-93706928D01*
X170459743Y-93706928D01*
X170445000Y-93705476D01*
X170430257Y-93706928D01*
X169595000Y-93706928D01*
X169470518Y-93719188D01*
X169350820Y-93755498D01*
X169254468Y-93807000D01*
X168656623Y-93807000D01*
X168650098Y-93802640D01*
X168457191Y-93722735D01*
X168252401Y-93682000D01*
X168043599Y-93682000D01*
X167838809Y-93722735D01*
X167645902Y-93802640D01*
X167472289Y-93918644D01*
X167324644Y-94066289D01*
X167208640Y-94239902D01*
X167128735Y-94432809D01*
X167088000Y-94637599D01*
X143058721Y-94637599D01*
X142855666Y-94434544D01*
X142485511Y-94187214D01*
X142074218Y-94016851D01*
X141637591Y-93930000D01*
X141192409Y-93930000D01*
X141042464Y-93959826D01*
X141443666Y-93558624D01*
X141479344Y-93529344D01*
X141500457Y-93503618D01*
X141520820Y-93514502D01*
X141640518Y-93550812D01*
X141765000Y-93563072D01*
X142365000Y-93563072D01*
X142489482Y-93550812D01*
X142609180Y-93514502D01*
X142690000Y-93471302D01*
X142770820Y-93514502D01*
X142890518Y-93550812D01*
X143015000Y-93563072D01*
X143615000Y-93563072D01*
X143739482Y-93550812D01*
X143859180Y-93514502D01*
X143969494Y-93455537D01*
X144066185Y-93376185D01*
X144145537Y-93279494D01*
X144204502Y-93169180D01*
X144240812Y-93049482D01*
X144253072Y-92925000D01*
X144253072Y-92412317D01*
X144308007Y-92309540D01*
X144340237Y-92203292D01*
X144361472Y-92133291D01*
X144379524Y-91950000D01*
X144375000Y-91904065D01*
X144375000Y-90790010D01*
X144420820Y-90814502D01*
X144540518Y-90850812D01*
X144665000Y-90863072D01*
X145665000Y-90863072D01*
X145789482Y-90850812D01*
X145909180Y-90814502D01*
X146019494Y-90755537D01*
X146116185Y-90676185D01*
X146195537Y-90579494D01*
X146254502Y-90469180D01*
X146290812Y-90349482D01*
X146303072Y-90225000D01*
X146303072Y-87525000D01*
X146290812Y-87400518D01*
X146254502Y-87280820D01*
X146195537Y-87170506D01*
X146116185Y-87073815D01*
X146019494Y-86994463D01*
X145909180Y-86935498D01*
X145789482Y-86899188D01*
X145665000Y-86886928D01*
X144665000Y-86886928D01*
X144540518Y-86899188D01*
X144420820Y-86935498D01*
X144375000Y-86959990D01*
X144375000Y-86938623D01*
X144379360Y-86932098D01*
X144459265Y-86739191D01*
X144500000Y-86534401D01*
X144500000Y-86325599D01*
X144459265Y-86120809D01*
X144379360Y-85927902D01*
X144375000Y-85921377D01*
X144375000Y-84701192D01*
X144378072Y-84670000D01*
X144378072Y-82970000D01*
X144365812Y-82845518D01*
X144329502Y-82725820D01*
X144270537Y-82615506D01*
X144191185Y-82518815D01*
X144094494Y-82439463D01*
X143984180Y-82380498D01*
X143864482Y-82344188D01*
X143740000Y-82331928D01*
X143140000Y-82331928D01*
X143015518Y-82344188D01*
X142895820Y-82380498D01*
X142815000Y-82423698D01*
X142734180Y-82380498D01*
X142614482Y-82344188D01*
X142490000Y-82331928D01*
X141890000Y-82331928D01*
X141765518Y-82344188D01*
X141645820Y-82380498D01*
X141565000Y-82423698D01*
X141484180Y-82380498D01*
X141364482Y-82344188D01*
X141240000Y-82331928D01*
X140640000Y-82331928D01*
X140515518Y-82344188D01*
X140395820Y-82380498D01*
X140315000Y-82423698D01*
X140234180Y-82380498D01*
X140114482Y-82344188D01*
X139990000Y-82331928D01*
X139975750Y-82335000D01*
X139817000Y-82493750D01*
X139817000Y-83693000D01*
X139837000Y-83693000D01*
X139837000Y-83947000D01*
X139817000Y-83947000D01*
X139817000Y-85146250D01*
X139880001Y-85209251D01*
X139880000Y-90588405D01*
X139865000Y-90586928D01*
X139850750Y-90590000D01*
X139692000Y-90748750D01*
X139692000Y-91948000D01*
X139712000Y-91948000D01*
X139712000Y-92202000D01*
X139692000Y-92202000D01*
X139692000Y-92222000D01*
X139438000Y-92222000D01*
X139438000Y-92202000D01*
X139418000Y-92202000D01*
X139418000Y-91948000D01*
X139438000Y-91948000D01*
X139438000Y-90748750D01*
X139279250Y-90590000D01*
X139265000Y-90586928D01*
X139250000Y-90588405D01*
X139250000Y-86753623D01*
X139254360Y-86747098D01*
X139334265Y-86554191D01*
X139375000Y-86349401D01*
X139375000Y-86140599D01*
X139334265Y-85935809D01*
X139254360Y-85742902D01*
X139250000Y-85736377D01*
X139250000Y-85291105D01*
X139265518Y-85295812D01*
X139390000Y-85308072D01*
X139404250Y-85305000D01*
X139563000Y-85146250D01*
X139563000Y-83947000D01*
X139543000Y-83947000D01*
X139543000Y-83693000D01*
X139563000Y-83693000D01*
X139563000Y-82493750D01*
X139404250Y-82335000D01*
X139390000Y-82331928D01*
X139265518Y-82344188D01*
X139145820Y-82380498D01*
X139065000Y-82423698D01*
X138984180Y-82380498D01*
X138864482Y-82344188D01*
X138740000Y-82331928D01*
X138140000Y-82331928D01*
X138015518Y-82344188D01*
X137895820Y-82380498D01*
X137815000Y-82423698D01*
X137734180Y-82380498D01*
X137614482Y-82344188D01*
X137490000Y-82331928D01*
X136890000Y-82331928D01*
X136765518Y-82344188D01*
X136645820Y-82380498D01*
X136565000Y-82423698D01*
X136484180Y-82380498D01*
X136364482Y-82344188D01*
X136240000Y-82331928D01*
X135643097Y-82331928D01*
X135680000Y-82146401D01*
X135680000Y-81937599D01*
X135639265Y-81732809D01*
X135559360Y-81539902D01*
X135443356Y-81366289D01*
X135295711Y-81218644D01*
X135122098Y-81102640D01*
X134929191Y-81022735D01*
X134724401Y-80982000D01*
X134515599Y-80982000D01*
X134310809Y-81022735D01*
X134117902Y-81102640D01*
X133978072Y-81196071D01*
X133978072Y-79400000D01*
X144151928Y-79400000D01*
X144151928Y-81970000D01*
X144164188Y-82094482D01*
X144200498Y-82214180D01*
X144259463Y-82324494D01*
X144338815Y-82421185D01*
X144435506Y-82500537D01*
X144545820Y-82559502D01*
X144665518Y-82595812D01*
X144790000Y-82608072D01*
X145790000Y-82608072D01*
X145914482Y-82595812D01*
X146034180Y-82559502D01*
X146144494Y-82500537D01*
X146241185Y-82421185D01*
X146320537Y-82324494D01*
X146379502Y-82214180D01*
X146415812Y-82094482D01*
X146428072Y-81970000D01*
X146428072Y-81106655D01*
X170960000Y-81106655D01*
X170960000Y-81453345D01*
X171027636Y-81793373D01*
X171160308Y-82113673D01*
X171352919Y-82401935D01*
X171598065Y-82647081D01*
X171886327Y-82839692D01*
X172206627Y-82972364D01*
X172546655Y-83040000D01*
X172893345Y-83040000D01*
X173233373Y-82972364D01*
X173553673Y-82839692D01*
X173841935Y-82647081D01*
X174087081Y-82401935D01*
X174279692Y-82113673D01*
X174412364Y-81793373D01*
X174480000Y-81453345D01*
X174480000Y-81106655D01*
X174412364Y-80766627D01*
X174279692Y-80446327D01*
X174087081Y-80158065D01*
X173841935Y-79912919D01*
X173553673Y-79720308D01*
X173233373Y-79587636D01*
X172893345Y-79520000D01*
X172546655Y-79520000D01*
X172206627Y-79587636D01*
X171886327Y-79720308D01*
X171598065Y-79912919D01*
X171352919Y-80158065D01*
X171160308Y-80446327D01*
X171027636Y-80766627D01*
X170960000Y-81106655D01*
X146428072Y-81106655D01*
X146428072Y-79400000D01*
X172687731Y-79400000D01*
X173084545Y-79438908D01*
X173435203Y-79544777D01*
X173758624Y-79716745D01*
X174042484Y-79948255D01*
X174275965Y-80230486D01*
X174450185Y-80552697D01*
X174558500Y-80902611D01*
X174599999Y-81297443D01*
X174599999Y-91656928D01*
X172295000Y-91656928D01*
X172170518Y-91669188D01*
X172050820Y-91705498D01*
X171940506Y-91764463D01*
X171843815Y-91843815D01*
X171764463Y-91940506D01*
X171705498Y-92050820D01*
X171669188Y-92170518D01*
X171656928Y-92295000D01*
X171656928Y-93295000D01*
X171669188Y-93419482D01*
X171705498Y-93539180D01*
X171764463Y-93649494D01*
X171843815Y-93746185D01*
X171940506Y-93825537D01*
X172050820Y-93884502D01*
X172170518Y-93920812D01*
X172295000Y-93933072D01*
X174599999Y-93933072D01*
X174599999Y-99106928D01*
X172295000Y-99106928D01*
X172170518Y-99119188D01*
X172050820Y-99155498D01*
X171940506Y-99214463D01*
X171843815Y-99293815D01*
X171764463Y-99390506D01*
X171705498Y-99500820D01*
X171669188Y-99620518D01*
X171656928Y-99745000D01*
X171656928Y-100745000D01*
X171669188Y-100869482D01*
X171705498Y-100989180D01*
X171764463Y-101099494D01*
X171843815Y-101196185D01*
X171940506Y-101275537D01*
X172050820Y-101334502D01*
X172170518Y-101370812D01*
X172295000Y-101383072D01*
X174599999Y-101383072D01*
X174600000Y-120830654D01*
X174420983Y-120651637D01*
X174071302Y-120417988D01*
X173682756Y-120257047D01*
X173270279Y-120175000D01*
X172849721Y-120175000D01*
X172437244Y-120257047D01*
X172048698Y-120417988D01*
X171699017Y-120651637D01*
X171401637Y-120949017D01*
X171167988Y-121298698D01*
X171007047Y-121687244D01*
X170925000Y-122099721D01*
X170925000Y-122520279D01*
X171007047Y-122932756D01*
X171167988Y-123321302D01*
X171401637Y-123670983D01*
X171699017Y-123968363D01*
X172048698Y-124202012D01*
X172437244Y-124362953D01*
X172849721Y-124445000D01*
X173270279Y-124445000D01*
X173682756Y-124362953D01*
X174071302Y-124202012D01*
X174420983Y-123968363D01*
X174600000Y-123789346D01*
X174600000Y-126967698D01*
X174561089Y-127364542D01*
X174455218Y-127715205D01*
X174283255Y-128038621D01*
X174051746Y-128322479D01*
X173769510Y-128555965D01*
X173447303Y-128730182D01*
X173097384Y-128838500D01*
X172702556Y-128879998D01*
X127032277Y-128879998D01*
X126635453Y-128841089D01*
X126284793Y-128735219D01*
X125961376Y-128563255D01*
X125677518Y-128331745D01*
X125444031Y-128049508D01*
X125269815Y-127727302D01*
X125161498Y-127377385D01*
X125120000Y-126982555D01*
X125120000Y-126826655D01*
X125240000Y-126826655D01*
X125240000Y-127173345D01*
X125307636Y-127513373D01*
X125440308Y-127833673D01*
X125632919Y-128121935D01*
X125878065Y-128367081D01*
X126166327Y-128559692D01*
X126486627Y-128692364D01*
X126826655Y-128760000D01*
X127173345Y-128760000D01*
X127513373Y-128692364D01*
X127833673Y-128559692D01*
X128121935Y-128367081D01*
X128367081Y-128121935D01*
X128559692Y-127833673D01*
X128692364Y-127513373D01*
X128697013Y-127490000D01*
X144321928Y-127490000D01*
X144334188Y-127614482D01*
X144370498Y-127734180D01*
X144429463Y-127844494D01*
X144508815Y-127941185D01*
X144605506Y-128020537D01*
X144715820Y-128079502D01*
X144835518Y-128115812D01*
X144960000Y-128128072D01*
X146674250Y-128125000D01*
X146833000Y-127966250D01*
X146833000Y-125617000D01*
X144483750Y-125617000D01*
X144325000Y-125775750D01*
X144321928Y-127490000D01*
X128697013Y-127490000D01*
X128760000Y-127173345D01*
X128760000Y-126826655D01*
X128692364Y-126486627D01*
X128559692Y-126166327D01*
X128367081Y-125878065D01*
X128121935Y-125632919D01*
X127833673Y-125440308D01*
X127513373Y-125307636D01*
X127173345Y-125240000D01*
X126826655Y-125240000D01*
X126486627Y-125307636D01*
X126166327Y-125440308D01*
X125878065Y-125632919D01*
X125632919Y-125878065D01*
X125440308Y-126166327D01*
X125307636Y-126486627D01*
X125240000Y-126826655D01*
X125120000Y-126826655D01*
X125120000Y-120513589D01*
X130505000Y-120513589D01*
X130505000Y-120786411D01*
X130558225Y-121053989D01*
X130662629Y-121306043D01*
X130814201Y-121532886D01*
X131007114Y-121725799D01*
X131233957Y-121877371D01*
X131486011Y-121981775D01*
X131753589Y-122035000D01*
X132026411Y-122035000D01*
X132293989Y-121981775D01*
X132546043Y-121877371D01*
X132752351Y-121739520D01*
X132755000Y-121766411D01*
X132755000Y-121766412D01*
X132771423Y-121933159D01*
X132836324Y-122147107D01*
X132941717Y-122344283D01*
X133083552Y-122517109D01*
X133126860Y-122552651D01*
X133887348Y-123313140D01*
X133922891Y-123356449D01*
X134095717Y-123498284D01*
X134292893Y-123603676D01*
X134506841Y-123668577D01*
X134729339Y-123690491D01*
X134785091Y-123685000D01*
X144322277Y-123685000D01*
X144325000Y-125204250D01*
X144483750Y-125363000D01*
X146833000Y-125363000D01*
X146833000Y-125343000D01*
X147087000Y-125343000D01*
X147087000Y-125363000D01*
X147107000Y-125363000D01*
X147107000Y-125617000D01*
X147087000Y-125617000D01*
X147087000Y-127966250D01*
X147245750Y-128125000D01*
X148960000Y-128128072D01*
X149084482Y-128115812D01*
X149204180Y-128079502D01*
X149314494Y-128020537D01*
X149411185Y-127941185D01*
X149490537Y-127844494D01*
X149549502Y-127734180D01*
X149585812Y-127614482D01*
X149598072Y-127490000D01*
X149595950Y-126306136D01*
X149774893Y-126738141D01*
X150063262Y-127169715D01*
X150430285Y-127536738D01*
X150861859Y-127825107D01*
X151341399Y-128023739D01*
X151850475Y-128125000D01*
X152369525Y-128125000D01*
X152878601Y-128023739D01*
X153358141Y-127825107D01*
X153789715Y-127536738D01*
X154156738Y-127169715D01*
X154385963Y-126826655D01*
X170960000Y-126826655D01*
X170960000Y-127173345D01*
X171027636Y-127513373D01*
X171160308Y-127833673D01*
X171352919Y-128121935D01*
X171598065Y-128367081D01*
X171886327Y-128559692D01*
X172206627Y-128692364D01*
X172546655Y-128760000D01*
X172893345Y-128760000D01*
X173233373Y-128692364D01*
X173553673Y-128559692D01*
X173841935Y-128367081D01*
X174087081Y-128121935D01*
X174279692Y-127833673D01*
X174412364Y-127513373D01*
X174480000Y-127173345D01*
X174480000Y-126826655D01*
X174412364Y-126486627D01*
X174279692Y-126166327D01*
X174087081Y-125878065D01*
X173841935Y-125632919D01*
X173553673Y-125440308D01*
X173233373Y-125307636D01*
X172893345Y-125240000D01*
X172546655Y-125240000D01*
X172206627Y-125307636D01*
X171886327Y-125440308D01*
X171598065Y-125632919D01*
X171352919Y-125878065D01*
X171160308Y-126166327D01*
X171027636Y-126486627D01*
X170960000Y-126826655D01*
X154385963Y-126826655D01*
X154445107Y-126738141D01*
X154643739Y-126258601D01*
X154745000Y-125749525D01*
X154745000Y-125230475D01*
X154643739Y-124721399D01*
X154445107Y-124241859D01*
X154156738Y-123810285D01*
X154031453Y-123685000D01*
X157113366Y-123685000D01*
X157293073Y-123832481D01*
X157559739Y-123975017D01*
X157849087Y-124062790D01*
X158074592Y-124085000D01*
X159425408Y-124085000D01*
X159650913Y-124062790D01*
X159940261Y-123975017D01*
X160206927Y-123832481D01*
X160386634Y-123685000D01*
X164414249Y-123685000D01*
X164470000Y-123690491D01*
X164525751Y-123685000D01*
X164525752Y-123685000D01*
X164692499Y-123668577D01*
X164906447Y-123603676D01*
X165103623Y-123498284D01*
X165276449Y-123356449D01*
X165311996Y-123313136D01*
X166403140Y-122221992D01*
X166446449Y-122186449D01*
X166588284Y-122013623D01*
X166611097Y-121970942D01*
X166645820Y-121989502D01*
X166765518Y-122025812D01*
X166890000Y-122038072D01*
X167354250Y-122035000D01*
X167513000Y-121876250D01*
X167513000Y-120777000D01*
X167767000Y-120777000D01*
X167767000Y-121876250D01*
X167925750Y-122035000D01*
X168390000Y-122038072D01*
X168514482Y-122025812D01*
X168634180Y-121989502D01*
X168744494Y-121930537D01*
X168841185Y-121851185D01*
X168920537Y-121754494D01*
X168979502Y-121644180D01*
X169015812Y-121524482D01*
X169028072Y-121400000D01*
X169025000Y-120935750D01*
X168866250Y-120777000D01*
X167767000Y-120777000D01*
X167513000Y-120777000D01*
X167493000Y-120777000D01*
X167493000Y-120523000D01*
X167513000Y-120523000D01*
X167513000Y-119423750D01*
X167767000Y-119423750D01*
X167767000Y-120523000D01*
X168866250Y-120523000D01*
X169025000Y-120364250D01*
X169028072Y-119900000D01*
X169015812Y-119775518D01*
X168979502Y-119655820D01*
X168920537Y-119545506D01*
X168841185Y-119448815D01*
X168744494Y-119369463D01*
X168634180Y-119310498D01*
X168514482Y-119274188D01*
X168390000Y-119261928D01*
X167925750Y-119265000D01*
X167767000Y-119423750D01*
X167513000Y-119423750D01*
X167354250Y-119265000D01*
X166890000Y-119261928D01*
X166765518Y-119274188D01*
X166645820Y-119310498D01*
X166535506Y-119369463D01*
X166438815Y-119448815D01*
X166402131Y-119493515D01*
X166296043Y-119422629D01*
X166043989Y-119318225D01*
X165776411Y-119265000D01*
X165503589Y-119265000D01*
X165236011Y-119318225D01*
X164983957Y-119422629D01*
X164757114Y-119574201D01*
X164640000Y-119691315D01*
X164522886Y-119574201D01*
X164296043Y-119422629D01*
X164043989Y-119318225D01*
X163776411Y-119265000D01*
X163503589Y-119265000D01*
X163236011Y-119318225D01*
X162983957Y-119422629D01*
X162757114Y-119574201D01*
X162564201Y-119767114D01*
X162412629Y-119993957D01*
X162308225Y-120246011D01*
X162255000Y-120513589D01*
X162255000Y-120786411D01*
X162308225Y-121053989D01*
X162412629Y-121306043D01*
X162485432Y-121415000D01*
X160635611Y-121415000D01*
X160701185Y-121361185D01*
X160780537Y-121264494D01*
X160839502Y-121154180D01*
X160875812Y-121034482D01*
X160888072Y-120910000D01*
X160885000Y-120295750D01*
X160726250Y-120137000D01*
X158877000Y-120137000D01*
X158877000Y-120157000D01*
X158623000Y-120157000D01*
X158623000Y-120137000D01*
X156773750Y-120137000D01*
X156615000Y-120295750D01*
X156611928Y-120910000D01*
X156624188Y-121034482D01*
X156660498Y-121154180D01*
X156719463Y-121264494D01*
X156798815Y-121361185D01*
X156864389Y-121415000D01*
X137276595Y-121415000D01*
X137278072Y-121400000D01*
X137275000Y-120935750D01*
X137116250Y-120777000D01*
X136017000Y-120777000D01*
X136017000Y-120797000D01*
X135763000Y-120797000D01*
X135763000Y-120777000D01*
X135743000Y-120777000D01*
X135743000Y-120523000D01*
X135763000Y-120523000D01*
X135763000Y-119423750D01*
X136017000Y-119423750D01*
X136017000Y-120523000D01*
X137116250Y-120523000D01*
X137275000Y-120364250D01*
X137278072Y-119900000D01*
X137265812Y-119775518D01*
X137229502Y-119655820D01*
X137170537Y-119545506D01*
X137091185Y-119448815D01*
X136994494Y-119369463D01*
X136884180Y-119310498D01*
X136764482Y-119274188D01*
X136640000Y-119261928D01*
X136175750Y-119265000D01*
X136017000Y-119423750D01*
X135763000Y-119423750D01*
X135604250Y-119265000D01*
X135140000Y-119261928D01*
X135015518Y-119274188D01*
X134895820Y-119310498D01*
X134785506Y-119369463D01*
X134688815Y-119448815D01*
X134652131Y-119493515D01*
X134546043Y-119422629D01*
X134293989Y-119318225D01*
X134026411Y-119265000D01*
X133753589Y-119265000D01*
X133486011Y-119318225D01*
X133233957Y-119422629D01*
X133007114Y-119574201D01*
X132890000Y-119691315D01*
X132772886Y-119574201D01*
X132546043Y-119422629D01*
X132293989Y-119318225D01*
X132026411Y-119265000D01*
X131753589Y-119265000D01*
X131486011Y-119318225D01*
X131233957Y-119422629D01*
X131007114Y-119574201D01*
X130814201Y-119767114D01*
X130662629Y-119993957D01*
X130558225Y-120246011D01*
X130505000Y-120513589D01*
X125120000Y-120513589D01*
X125120000Y-118370000D01*
X156611928Y-118370000D01*
X156624188Y-118494482D01*
X156660498Y-118614180D01*
X156719463Y-118724494D01*
X156732188Y-118740000D01*
X156719463Y-118755506D01*
X156660498Y-118865820D01*
X156624188Y-118985518D01*
X156611928Y-119110000D01*
X156615000Y-119724250D01*
X156773750Y-119883000D01*
X158623000Y-119883000D01*
X158623000Y-117597000D01*
X158877000Y-117597000D01*
X158877000Y-119883000D01*
X160726250Y-119883000D01*
X160885000Y-119724250D01*
X160888072Y-119110000D01*
X160875812Y-118985518D01*
X160839502Y-118865820D01*
X160780537Y-118755506D01*
X160767812Y-118740000D01*
X160780537Y-118724494D01*
X160839502Y-118614180D01*
X160875812Y-118494482D01*
X160888072Y-118370000D01*
X160885000Y-117755750D01*
X160726250Y-117597000D01*
X158877000Y-117597000D01*
X158623000Y-117597000D01*
X156773750Y-117597000D01*
X156615000Y-117755750D01*
X156611928Y-118370000D01*
X125120000Y-118370000D01*
X125120000Y-116035000D01*
X147962928Y-116035000D01*
X147975188Y-116159482D01*
X148011498Y-116279180D01*
X148070463Y-116389494D01*
X148149815Y-116486185D01*
X148246506Y-116565537D01*
X148356820Y-116624502D01*
X148476518Y-116660812D01*
X148601000Y-116673072D01*
X148760250Y-116670000D01*
X148919000Y-116511250D01*
X148919000Y-115697000D01*
X148124750Y-115697000D01*
X147966000Y-115855750D01*
X147962928Y-116035000D01*
X125120000Y-116035000D01*
X125120000Y-109590770D01*
X125235518Y-109625812D01*
X125360000Y-109638072D01*
X128060000Y-109638072D01*
X128184482Y-109625812D01*
X128304180Y-109589502D01*
X128414494Y-109530537D01*
X128511185Y-109451185D01*
X128590537Y-109354494D01*
X128649502Y-109244180D01*
X128685812Y-109124482D01*
X128698072Y-109000000D01*
X128698072Y-108000000D01*
X128685812Y-107875518D01*
X128649502Y-107755820D01*
X128590537Y-107645506D01*
X128511185Y-107548815D01*
X128414494Y-107469463D01*
X128304180Y-107410498D01*
X128184482Y-107374188D01*
X128060000Y-107361928D01*
X125360000Y-107361928D01*
X125235518Y-107374188D01*
X125120000Y-107409230D01*
X125120000Y-103200000D01*
X128421928Y-103200000D01*
X128434188Y-103324482D01*
X128470498Y-103444180D01*
X128513698Y-103525000D01*
X128470498Y-103605820D01*
X128434188Y-103725518D01*
X128421928Y-103850000D01*
X128425000Y-103864250D01*
X128583750Y-104023000D01*
X129783000Y-104023000D01*
X129783000Y-103027000D01*
X130037000Y-103027000D01*
X130037000Y-104023000D01*
X131236250Y-104023000D01*
X131395000Y-103864250D01*
X131398072Y-103850000D01*
X131385812Y-103725518D01*
X131349502Y-103605820D01*
X131306302Y-103525000D01*
X131349502Y-103444180D01*
X131385812Y-103324482D01*
X131398072Y-103200000D01*
X131395000Y-103185750D01*
X131236250Y-103027000D01*
X130037000Y-103027000D01*
X129783000Y-103027000D01*
X128583750Y-103027000D01*
X128425000Y-103185750D01*
X128421928Y-103200000D01*
X125120000Y-103200000D01*
X125120000Y-102600000D01*
X128421928Y-102600000D01*
X128425000Y-102614250D01*
X128583750Y-102773000D01*
X129783000Y-102773000D01*
X129783000Y-102123750D01*
X130037000Y-102123750D01*
X130037000Y-102773000D01*
X131236250Y-102773000D01*
X131395000Y-102614250D01*
X131398072Y-102600000D01*
X131385812Y-102475518D01*
X131349502Y-102355820D01*
X131290537Y-102245506D01*
X131211185Y-102148815D01*
X131114494Y-102069463D01*
X131004180Y-102010498D01*
X130884482Y-101974188D01*
X130760000Y-101961928D01*
X130195750Y-101965000D01*
X130037000Y-102123750D01*
X129783000Y-102123750D01*
X129624250Y-101965000D01*
X129060000Y-101961928D01*
X128935518Y-101974188D01*
X128815820Y-102010498D01*
X128705506Y-102069463D01*
X128608815Y-102148815D01*
X128529463Y-102245506D01*
X128470498Y-102355820D01*
X128434188Y-102475518D01*
X128421928Y-102600000D01*
X125120000Y-102600000D01*
X125120000Y-102140770D01*
X125235518Y-102175812D01*
X125360000Y-102188072D01*
X128060000Y-102188072D01*
X128184482Y-102175812D01*
X128304180Y-102139502D01*
X128414494Y-102080537D01*
X128511185Y-102001185D01*
X128590537Y-101904494D01*
X128649502Y-101794180D01*
X128685812Y-101674482D01*
X128698072Y-101550000D01*
X128698072Y-100550000D01*
X128685812Y-100425518D01*
X128649502Y-100305820D01*
X128590537Y-100195506D01*
X128511185Y-100098815D01*
X128414494Y-100019463D01*
X128304180Y-99960498D01*
X128184482Y-99924188D01*
X128060000Y-99911928D01*
X125360000Y-99911928D01*
X125235518Y-99924188D01*
X125120000Y-99959230D01*
X125120000Y-99430770D01*
X125235518Y-99465812D01*
X125360000Y-99478072D01*
X128060000Y-99478072D01*
X128184482Y-99465812D01*
X128304180Y-99429502D01*
X128414494Y-99370537D01*
X128511185Y-99291185D01*
X128590537Y-99194494D01*
X128649502Y-99084180D01*
X128685812Y-98964482D01*
X128698072Y-98840000D01*
X128698072Y-97840000D01*
X128685812Y-97715518D01*
X128649502Y-97595820D01*
X128590537Y-97485506D01*
X128511185Y-97388815D01*
X128414494Y-97309463D01*
X128304180Y-97250498D01*
X128184482Y-97214188D01*
X128060000Y-97201928D01*
X125360000Y-97201928D01*
X125235518Y-97214188D01*
X125120000Y-97249230D01*
X125120000Y-93040000D01*
X128421928Y-93040000D01*
X128434188Y-93164482D01*
X128470498Y-93284180D01*
X128513698Y-93365000D01*
X128470498Y-93445820D01*
X128434188Y-93565518D01*
X128421928Y-93690000D01*
X128425000Y-93704250D01*
X128583750Y-93863000D01*
X129783000Y-93863000D01*
X129783000Y-92867000D01*
X128583750Y-92867000D01*
X128425000Y-93025750D01*
X128421928Y-93040000D01*
X125120000Y-93040000D01*
X125120000Y-92440000D01*
X128421928Y-92440000D01*
X128425000Y-92454250D01*
X128583750Y-92613000D01*
X129783000Y-92613000D01*
X129783000Y-91963750D01*
X130037000Y-91963750D01*
X130037000Y-92613000D01*
X131236250Y-92613000D01*
X131395000Y-92454250D01*
X131398072Y-92440000D01*
X131385812Y-92315518D01*
X131349502Y-92195820D01*
X131290537Y-92085506D01*
X131211185Y-91988815D01*
X131114494Y-91909463D01*
X131004180Y-91850498D01*
X130884482Y-91814188D01*
X130760000Y-91801928D01*
X130195750Y-91805000D01*
X130037000Y-91963750D01*
X129783000Y-91963750D01*
X129624250Y-91805000D01*
X129060000Y-91801928D01*
X128935518Y-91814188D01*
X128815820Y-91850498D01*
X128705506Y-91909463D01*
X128608815Y-91988815D01*
X128529463Y-92085506D01*
X128470498Y-92195820D01*
X128434188Y-92315518D01*
X128421928Y-92440000D01*
X125120000Y-92440000D01*
X125120000Y-91980770D01*
X125235518Y-92015812D01*
X125360000Y-92028072D01*
X128060000Y-92028072D01*
X128184482Y-92015812D01*
X128304180Y-91979502D01*
X128414494Y-91920537D01*
X128511185Y-91841185D01*
X128590537Y-91744494D01*
X128649502Y-91634180D01*
X128685812Y-91514482D01*
X128698072Y-91390000D01*
X128698072Y-90390000D01*
X128685812Y-90265518D01*
X128649502Y-90145820D01*
X128590537Y-90035506D01*
X128511185Y-89938815D01*
X128414494Y-89859463D01*
X128304180Y-89800498D01*
X128184482Y-89764188D01*
X128060000Y-89751928D01*
X125360000Y-89751928D01*
X125235518Y-89764188D01*
X125120000Y-89799230D01*
X125120000Y-81312279D01*
X125140161Y-81106655D01*
X125240000Y-81106655D01*
X125240000Y-81453345D01*
X125307636Y-81793373D01*
X125440308Y-82113673D01*
X125632919Y-82401935D01*
X125878065Y-82647081D01*
X126166327Y-82839692D01*
X126486627Y-82972364D01*
X126826655Y-83040000D01*
X127173345Y-83040000D01*
X127513373Y-82972364D01*
X127833673Y-82839692D01*
X128121935Y-82647081D01*
X128367081Y-82401935D01*
X128559692Y-82113673D01*
X128692364Y-81793373D01*
X128760000Y-81453345D01*
X128760000Y-81106655D01*
X128692364Y-80766627D01*
X128559692Y-80446327D01*
X128367081Y-80158065D01*
X128121935Y-79912919D01*
X127833673Y-79720308D01*
X127513373Y-79587636D01*
X127173345Y-79520000D01*
X126826655Y-79520000D01*
X126486627Y-79587636D01*
X126166327Y-79720308D01*
X125878065Y-79912919D01*
X125632919Y-80158065D01*
X125440308Y-80446327D01*
X125307636Y-80766627D01*
X125240000Y-81106655D01*
X125140161Y-81106655D01*
X125158909Y-80915455D01*
X125264780Y-80564792D01*
X125436744Y-80241375D01*
X125668254Y-79957516D01*
X125950486Y-79724035D01*
X126272695Y-79549817D01*
X126622614Y-79441498D01*
X127017443Y-79400000D01*
X131701928Y-79400000D01*
X131701928Y-81970000D01*
%TA.AperFunction,Conductor*%
D36*
G36*
X131701928Y-81970000D02*
G01*
X131714188Y-82094482D01*
X131750498Y-82214180D01*
X131809463Y-82324494D01*
X131888815Y-82421185D01*
X131985506Y-82500537D01*
X132095820Y-82559502D01*
X132215518Y-82595812D01*
X132340000Y-82608072D01*
X133340000Y-82608072D01*
X133464482Y-82595812D01*
X133584180Y-82559502D01*
X133668379Y-82514496D01*
X133680640Y-82544098D01*
X133685000Y-82550624D01*
X133685001Y-83704058D01*
X133680476Y-83750000D01*
X133698529Y-83933291D01*
X133719764Y-84003292D01*
X133751928Y-84109322D01*
X133751928Y-84670000D01*
X133764188Y-84794482D01*
X133800498Y-84914180D01*
X133859463Y-85024494D01*
X133938815Y-85121185D01*
X134035506Y-85200537D01*
X134145820Y-85259502D01*
X134265518Y-85295812D01*
X134390000Y-85308072D01*
X134880001Y-85308072D01*
X134880000Y-86538377D01*
X134875640Y-86544902D01*
X134795735Y-86737809D01*
X134755000Y-86942599D01*
X134755000Y-87151401D01*
X134795735Y-87356191D01*
X134875640Y-87549098D01*
X134880001Y-87555625D01*
X134880001Y-89140950D01*
X134724401Y-89110000D01*
X134515599Y-89110000D01*
X134310809Y-89150735D01*
X134117902Y-89230640D01*
X133944289Y-89346644D01*
X133853072Y-89437861D01*
X133853072Y-87525000D01*
X133840812Y-87400518D01*
X133804502Y-87280820D01*
X133745537Y-87170506D01*
X133666185Y-87073815D01*
X133569494Y-86994463D01*
X133459180Y-86935498D01*
X133339482Y-86899188D01*
X133215000Y-86886928D01*
X132215000Y-86886928D01*
X132090518Y-86899188D01*
X131970820Y-86935498D01*
X131860506Y-86994463D01*
X131763815Y-87073815D01*
X131684463Y-87170506D01*
X131625498Y-87280820D01*
X131589188Y-87400518D01*
X131576928Y-87525000D01*
X131576928Y-90225000D01*
X131589188Y-90349482D01*
X131625498Y-90469180D01*
X131684463Y-90579494D01*
X131763815Y-90676185D01*
X131860506Y-90755537D01*
X131970820Y-90814502D01*
X132090518Y-90850812D01*
X132215000Y-90863072D01*
X133215000Y-90863072D01*
X133339482Y-90850812D01*
X133459180Y-90814502D01*
X133569494Y-90755537D01*
X133666185Y-90676185D01*
X133676916Y-90663109D01*
X133680640Y-90672098D01*
X133685000Y-90678624D01*
X133685000Y-90963042D01*
X133675498Y-90980820D01*
X133639188Y-91100518D01*
X133626928Y-91225000D01*
X133626928Y-92060258D01*
X133625476Y-92075000D01*
X133626928Y-92089742D01*
X133626928Y-92925000D01*
X133638747Y-93045000D01*
X132125931Y-93045000D01*
X132079999Y-93040476D01*
X131896707Y-93058529D01*
X131843243Y-93074747D01*
X131720460Y-93111993D01*
X131558028Y-93198814D01*
X131415656Y-93315656D01*
X131386374Y-93351336D01*
X131329434Y-93408276D01*
X131306302Y-93365000D01*
X131349502Y-93284180D01*
X131385812Y-93164482D01*
X131398072Y-93040000D01*
X131395000Y-93025750D01*
X131236250Y-92867000D01*
X130037000Y-92867000D01*
X130037000Y-93863000D01*
X130057000Y-93863000D01*
X130057000Y-94117000D01*
X130037000Y-94117000D01*
X130037000Y-94137000D01*
X129783000Y-94137000D01*
X129783000Y-94117000D01*
X128583750Y-94117000D01*
X128425000Y-94275750D01*
X128421928Y-94290000D01*
X128434188Y-94414482D01*
X128470498Y-94534180D01*
X128513698Y-94615000D01*
X128470498Y-94695820D01*
X128434188Y-94815518D01*
X128421928Y-94940000D01*
X128421928Y-95540000D01*
X128434188Y-95664482D01*
X128470498Y-95784180D01*
X128513698Y-95865000D01*
X128470498Y-95945820D01*
X128434188Y-96065518D01*
X128421928Y-96190000D01*
X128421928Y-96790000D01*
X128434188Y-96914482D01*
X128470498Y-97034180D01*
X128529463Y-97144494D01*
X128608815Y-97241185D01*
X128705506Y-97320537D01*
X128815820Y-97379502D01*
X128935518Y-97415812D01*
X129060000Y-97428072D01*
X130760000Y-97428072D01*
X130791192Y-97425000D01*
X136742711Y-97425000D01*
X137295000Y-97977289D01*
X137295000Y-98369249D01*
X137289509Y-98425000D01*
X137295000Y-98480751D01*
X137311423Y-98647498D01*
X137376324Y-98861446D01*
X137481716Y-99058623D01*
X137623551Y-99231449D01*
X137666865Y-99266996D01*
X140470001Y-102070133D01*
X140470000Y-107992291D01*
X140347481Y-107763073D01*
X140200000Y-107583366D01*
X140200000Y-105989248D01*
X140183577Y-105822501D01*
X140118676Y-105608553D01*
X140013284Y-105411377D01*
X139871449Y-105238551D01*
X139698623Y-105096716D01*
X139501447Y-104991324D01*
X139287499Y-104926423D01*
X139266660Y-104924371D01*
X139113630Y-104771341D01*
X139084344Y-104735656D01*
X138941972Y-104618814D01*
X138779540Y-104531993D01*
X138603292Y-104478529D01*
X138465932Y-104465000D01*
X138420000Y-104460476D01*
X138374068Y-104465000D01*
X131396595Y-104465000D01*
X131398072Y-104450000D01*
X131395000Y-104435750D01*
X131236250Y-104277000D01*
X130037000Y-104277000D01*
X130037000Y-104297000D01*
X129783000Y-104297000D01*
X129783000Y-104277000D01*
X128583750Y-104277000D01*
X128425000Y-104435750D01*
X128421928Y-104450000D01*
X128434188Y-104574482D01*
X128470498Y-104694180D01*
X128513698Y-104775000D01*
X128470498Y-104855820D01*
X128434188Y-104975518D01*
X128421928Y-105100000D01*
X128421928Y-105700000D01*
X128434188Y-105824482D01*
X128470498Y-105944180D01*
X128513698Y-106025000D01*
X128470498Y-106105820D01*
X128434188Y-106225518D01*
X128421928Y-106350000D01*
X128421928Y-106950000D01*
X128434188Y-107074482D01*
X128470498Y-107194180D01*
X128529463Y-107304494D01*
X128608815Y-107401185D01*
X128705506Y-107480537D01*
X128815820Y-107539502D01*
X128935518Y-107575812D01*
X129060000Y-107588072D01*
X129712537Y-107588072D01*
X129753566Y-107600518D01*
X129756708Y-107601471D01*
X129939999Y-107619524D01*
X129985931Y-107615000D01*
X130284039Y-107615000D01*
X130162519Y-107763074D01*
X130019983Y-108029740D01*
X129932210Y-108319088D01*
X129910000Y-108544593D01*
X129910000Y-109895408D01*
X129932210Y-110120913D01*
X130019983Y-110410261D01*
X130162520Y-110676927D01*
X130354340Y-110910661D01*
X130588074Y-111102481D01*
X130630204Y-111125000D01*
X130588073Y-111147519D01*
X130354339Y-111339339D01*
X130162519Y-111573074D01*
X130114450Y-111663005D01*
X130088149Y-111530782D01*
X129917786Y-111119489D01*
X129670456Y-110749334D01*
X129355666Y-110434544D01*
X128985511Y-110187214D01*
X128574218Y-110016851D01*
X128137591Y-109930000D01*
X127692409Y-109930000D01*
X127255782Y-110016851D01*
X126844489Y-110187214D01*
X126474334Y-110434544D01*
X126159544Y-110749334D01*
X125912214Y-111119489D01*
X125741851Y-111530782D01*
X125655000Y-111967409D01*
X125655000Y-112412591D01*
X125741851Y-112849218D01*
X125912214Y-113260511D01*
X126159544Y-113630666D01*
X126474334Y-113945456D01*
X126844489Y-114192786D01*
X127255782Y-114363149D01*
X127692409Y-114450000D01*
X128137591Y-114450000D01*
X128574218Y-114363149D01*
X128985511Y-114192786D01*
X129355666Y-113945456D01*
X129670456Y-113630666D01*
X129910000Y-113272164D01*
X129910000Y-113705408D01*
X129932210Y-113930913D01*
X130019983Y-114220261D01*
X130162520Y-114486927D01*
X130354340Y-114720661D01*
X130588074Y-114912481D01*
X130854740Y-115055017D01*
X131144088Y-115142790D01*
X131445000Y-115172427D01*
X131745913Y-115142790D01*
X132035261Y-115055017D01*
X132301927Y-114912481D01*
X132535661Y-114720661D01*
X132715001Y-114502135D01*
X132894340Y-114720661D01*
X133128074Y-114912481D01*
X133394740Y-115055017D01*
X133684088Y-115142790D01*
X133985000Y-115172427D01*
X134285913Y-115142790D01*
X134575261Y-115055017D01*
X134841927Y-114912481D01*
X135075661Y-114720661D01*
X135259781Y-114496309D01*
X135319252Y-114588396D01*
X135529394Y-114805210D01*
X135777796Y-114976862D01*
X136054913Y-115096755D01*
X136160260Y-115121036D01*
X136398000Y-115000378D01*
X136398000Y-113157000D01*
X136652000Y-113157000D01*
X136652000Y-115000378D01*
X136889740Y-115121036D01*
X136995087Y-115096755D01*
X137272204Y-114976862D01*
X137520606Y-114805210D01*
X137730748Y-114588396D01*
X137795000Y-114488905D01*
X137859252Y-114588396D01*
X138069394Y-114805210D01*
X138317796Y-114976862D01*
X138594913Y-115096755D01*
X138700260Y-115121036D01*
X138938000Y-115000378D01*
X138938000Y-113157000D01*
X136652000Y-113157000D01*
X136398000Y-113157000D01*
X136378000Y-113157000D01*
X136378000Y-112903000D01*
X136398000Y-112903000D01*
X136398000Y-109347000D01*
X136378000Y-109347000D01*
X136378000Y-109093000D01*
X136398000Y-109093000D01*
X136398000Y-109073000D01*
X136652000Y-109073000D01*
X136652000Y-109093000D01*
X136672000Y-109093000D01*
X136672000Y-109347000D01*
X136652000Y-109347000D01*
X136652000Y-112903000D01*
X138938000Y-112903000D01*
X138938000Y-112883000D01*
X139192000Y-112883000D01*
X139192000Y-112903000D01*
X139212000Y-112903000D01*
X139212000Y-113157000D01*
X139192000Y-113157000D01*
X139192000Y-115000378D01*
X139429740Y-115121036D01*
X139535087Y-115096755D01*
X139812204Y-114976862D01*
X140060606Y-114805210D01*
X140270748Y-114588396D01*
X140330219Y-114496308D01*
X140514340Y-114720661D01*
X140748074Y-114912481D01*
X141014740Y-115055017D01*
X141304088Y-115142790D01*
X141605000Y-115172427D01*
X141905913Y-115142790D01*
X142030489Y-115105000D01*
X147962928Y-115105000D01*
X147966000Y-115284250D01*
X148124750Y-115443000D01*
X148919000Y-115443000D01*
X148919000Y-114628750D01*
X149173000Y-114628750D01*
X149173000Y-115443000D01*
X149193000Y-115443000D01*
X149193000Y-115697000D01*
X149173000Y-115697000D01*
X149173000Y-116511250D01*
X149331750Y-116670000D01*
X149491000Y-116673072D01*
X149615482Y-116660812D01*
X149735180Y-116624502D01*
X149845494Y-116565537D01*
X149860000Y-116553632D01*
X149874506Y-116565537D01*
X149984820Y-116624502D01*
X150104518Y-116660812D01*
X150229000Y-116673072D01*
X151119000Y-116673072D01*
X151243482Y-116660812D01*
X151363180Y-116624502D01*
X151473494Y-116565537D01*
X151570185Y-116486185D01*
X151649537Y-116389494D01*
X151708502Y-116279180D01*
X151744812Y-116159482D01*
X151757072Y-116035000D01*
X151757072Y-115105000D01*
X151744812Y-114980518D01*
X151708502Y-114860820D01*
X151649537Y-114750506D01*
X151570185Y-114653815D01*
X151473494Y-114574463D01*
X151363180Y-114515498D01*
X151243482Y-114479188D01*
X151119000Y-114466928D01*
X150229000Y-114466928D01*
X150104518Y-114479188D01*
X149984820Y-114515498D01*
X149874506Y-114574463D01*
X149860000Y-114586368D01*
X149845494Y-114574463D01*
X149735180Y-114515498D01*
X149615482Y-114479188D01*
X149491000Y-114466928D01*
X149331750Y-114470000D01*
X149173000Y-114628750D01*
X148919000Y-114628750D01*
X148760250Y-114470000D01*
X148601000Y-114466928D01*
X148476518Y-114479188D01*
X148356820Y-114515498D01*
X148246506Y-114574463D01*
X148149815Y-114653815D01*
X148070463Y-114750506D01*
X148011498Y-114860820D01*
X147975188Y-114980518D01*
X147962928Y-115105000D01*
X142030489Y-115105000D01*
X142195261Y-115055017D01*
X142461927Y-114912481D01*
X142695661Y-114720661D01*
X142887481Y-114486927D01*
X143030017Y-114220261D01*
X143117790Y-113930913D01*
X143140000Y-113705408D01*
X143140000Y-113602186D01*
X143216343Y-113350516D01*
X143240000Y-113110322D01*
X143240000Y-112565000D01*
X148006928Y-112565000D01*
X148006928Y-113495000D01*
X148019188Y-113619482D01*
X148055498Y-113739180D01*
X148114463Y-113849494D01*
X148193815Y-113946185D01*
X148290506Y-114025537D01*
X148400820Y-114084502D01*
X148520518Y-114120812D01*
X148645000Y-114133072D01*
X149515000Y-114133072D01*
X149639482Y-114120812D01*
X149759180Y-114084502D01*
X149860000Y-114030612D01*
X149960820Y-114084502D01*
X150080518Y-114120812D01*
X150205000Y-114133072D01*
X151075000Y-114133072D01*
X151199482Y-114120812D01*
X151319180Y-114084502D01*
X151429494Y-114025537D01*
X151526185Y-113946185D01*
X151605537Y-113849494D01*
X151664502Y-113739180D01*
X151700812Y-113619482D01*
X151713072Y-113495000D01*
X151713072Y-112565000D01*
X151700812Y-112440518D01*
X151685488Y-112390000D01*
X156607573Y-112390000D01*
X156637210Y-112690913D01*
X156724983Y-112980261D01*
X156867519Y-113246927D01*
X157059339Y-113480661D01*
X157277865Y-113660000D01*
X157059339Y-113839339D01*
X156867519Y-114073073D01*
X156724983Y-114339739D01*
X156637210Y-114629087D01*
X156607573Y-114930000D01*
X156637210Y-115230913D01*
X156724983Y-115520261D01*
X156867519Y-115786927D01*
X157022280Y-115975505D01*
X157005820Y-115980498D01*
X156895506Y-116039463D01*
X156798815Y-116118815D01*
X156719463Y-116215506D01*
X156660498Y-116325820D01*
X156624188Y-116445518D01*
X156611928Y-116570000D01*
X156615000Y-117184250D01*
X156773750Y-117343000D01*
X158623000Y-117343000D01*
X158623000Y-117323000D01*
X158877000Y-117323000D01*
X158877000Y-117343000D01*
X160726250Y-117343000D01*
X160885000Y-117184250D01*
X160888072Y-116570000D01*
X160875812Y-116445518D01*
X160839502Y-116325820D01*
X160780537Y-116215506D01*
X160701185Y-116118815D01*
X160604494Y-116039463D01*
X160494180Y-115980498D01*
X160477720Y-115975505D01*
X160632481Y-115786927D01*
X160775017Y-115520261D01*
X160862790Y-115230913D01*
X160892427Y-114930000D01*
X160862790Y-114629087D01*
X160775017Y-114339739D01*
X160632481Y-114073073D01*
X160524752Y-113941804D01*
X160636677Y-113907852D01*
X160920714Y-113756031D01*
X161169676Y-113551714D01*
X161220886Y-113489314D01*
X161910201Y-112800000D01*
X161986971Y-112800000D01*
X161947519Y-112848073D01*
X161804983Y-113114739D01*
X161717210Y-113404087D01*
X161687573Y-113705000D01*
X161717210Y-114005913D01*
X161804983Y-114295261D01*
X161947519Y-114561927D01*
X162139339Y-114795661D01*
X162373073Y-114987481D01*
X162639739Y-115130017D01*
X162929087Y-115217790D01*
X163154592Y-115240000D01*
X164505408Y-115240000D01*
X164730913Y-115217790D01*
X165020261Y-115130017D01*
X165286927Y-114987481D01*
X165520661Y-114795661D01*
X165712481Y-114561927D01*
X165855017Y-114295261D01*
X165942790Y-114005913D01*
X165972427Y-113705000D01*
X165942790Y-113404087D01*
X165855017Y-113114739D01*
X165712481Y-112848073D01*
X165520661Y-112614339D01*
X165302135Y-112435000D01*
X165520661Y-112255661D01*
X165712481Y-112021927D01*
X165855017Y-111755261D01*
X165942790Y-111465913D01*
X165972427Y-111165000D01*
X165942790Y-110864087D01*
X165855017Y-110574739D01*
X165712481Y-110308073D01*
X165557720Y-110119495D01*
X165574180Y-110114502D01*
X165684494Y-110055537D01*
X165781185Y-109976185D01*
X165860537Y-109879494D01*
X165919502Y-109769180D01*
X165955812Y-109649482D01*
X165968072Y-109525000D01*
X165965000Y-108910750D01*
X165806250Y-108752000D01*
X163957000Y-108752000D01*
X163957000Y-108772000D01*
X163703000Y-108772000D01*
X163703000Y-108752000D01*
X163683000Y-108752000D01*
X163683000Y-108498000D01*
X163703000Y-108498000D01*
X163703000Y-108478000D01*
X163957000Y-108478000D01*
X163957000Y-108498000D01*
X165806250Y-108498000D01*
X165965000Y-108339250D01*
X165968072Y-107725000D01*
X165955812Y-107600518D01*
X165919502Y-107480820D01*
X165860537Y-107370506D01*
X165781185Y-107273815D01*
X165715611Y-107220000D01*
X169449249Y-107220000D01*
X169505000Y-107225491D01*
X169560751Y-107220000D01*
X169560752Y-107220000D01*
X169727499Y-107203577D01*
X169941447Y-107138676D01*
X170138623Y-107033284D01*
X170311449Y-106891449D01*
X170346996Y-106848135D01*
X170548194Y-106646937D01*
X170554821Y-106645619D01*
X170788676Y-106548753D01*
X170999140Y-106408125D01*
X171178125Y-106229140D01*
X171318753Y-106018676D01*
X171415619Y-105784821D01*
X171465000Y-105536561D01*
X171465000Y-105283439D01*
X171415619Y-105035179D01*
X171318753Y-104801324D01*
X171178125Y-104590860D01*
X170999140Y-104411875D01*
X170788676Y-104271247D01*
X170554821Y-104174381D01*
X170306561Y-104125000D01*
X170053439Y-104125000D01*
X169805179Y-104174381D01*
X169571324Y-104271247D01*
X169360860Y-104411875D01*
X169181875Y-104590860D01*
X169041247Y-104801324D01*
X168979663Y-104950000D01*
X165466634Y-104950000D01*
X165286927Y-104802519D01*
X165020261Y-104659983D01*
X164730913Y-104572210D01*
X164505408Y-104550000D01*
X163154592Y-104550000D01*
X162929087Y-104572210D01*
X162639739Y-104659983D01*
X162373073Y-104802519D01*
X162139339Y-104994339D01*
X161947519Y-105228073D01*
X161804983Y-105494739D01*
X161717210Y-105784087D01*
X161687573Y-106085000D01*
X161717210Y-106385913D01*
X161804983Y-106675261D01*
X161947519Y-106941927D01*
X162102280Y-107130505D01*
X162085820Y-107135498D01*
X161975506Y-107194463D01*
X161878815Y-107273815D01*
X161799463Y-107370506D01*
X161740498Y-107480820D01*
X161704188Y-107600518D01*
X161691928Y-107725000D01*
X161694890Y-108317255D01*
X161682953Y-108257244D01*
X161522012Y-107868698D01*
X161288363Y-107519017D01*
X160990983Y-107221637D01*
X160641302Y-106987988D01*
X160252756Y-106827047D01*
X159840279Y-106745000D01*
X159419721Y-106745000D01*
X159007244Y-106827047D01*
X158618698Y-106987988D01*
X158269017Y-107221637D01*
X157971637Y-107519017D01*
X157737988Y-107868698D01*
X157577047Y-108257244D01*
X157495000Y-108669721D01*
X157495000Y-109090279D01*
X157577047Y-109502756D01*
X157737988Y-109891302D01*
X157971637Y-110240983D01*
X158269017Y-110538363D01*
X158603058Y-110761562D01*
X158429484Y-110778657D01*
X158177814Y-110855000D01*
X158074592Y-110855000D01*
X157849087Y-110877210D01*
X157559739Y-110964983D01*
X157293073Y-111107519D01*
X157059339Y-111299339D01*
X156867519Y-111533073D01*
X156724983Y-111799739D01*
X156637210Y-112089087D01*
X156607573Y-112390000D01*
X151685488Y-112390000D01*
X151664502Y-112320820D01*
X151605537Y-112210506D01*
X151526185Y-112113815D01*
X151429494Y-112034463D01*
X151319180Y-111975498D01*
X151199482Y-111939188D01*
X151075000Y-111926928D01*
X150205000Y-111926928D01*
X150080518Y-111939188D01*
X149960820Y-111975498D01*
X149860000Y-112029388D01*
X149759180Y-111975498D01*
X149639482Y-111939188D01*
X149515000Y-111926928D01*
X148645000Y-111926928D01*
X148520518Y-111939188D01*
X148400820Y-111975498D01*
X148290506Y-112034463D01*
X148193815Y-112113815D01*
X148114463Y-112210506D01*
X148055498Y-112320820D01*
X148019188Y-112440518D01*
X148006928Y-112565000D01*
X143240000Y-112565000D01*
X143240000Y-111840319D01*
X143247911Y-111759999D01*
X143229500Y-111573073D01*
X143216343Y-111439484D01*
X143122852Y-111131285D01*
X142971031Y-110847248D01*
X142766714Y-110598286D01*
X142740000Y-110576363D01*
X142740000Y-109115599D01*
X148800000Y-109115599D01*
X148800000Y-109324401D01*
X148840735Y-109529191D01*
X148920640Y-109722098D01*
X149036644Y-109895711D01*
X149184289Y-110043356D01*
X149357902Y-110159360D01*
X149550809Y-110239265D01*
X149755599Y-110280000D01*
X149964401Y-110280000D01*
X150169191Y-110239265D01*
X150362098Y-110159360D01*
X150368623Y-110155000D01*
X153624068Y-110155000D01*
X153670000Y-110159524D01*
X153715932Y-110155000D01*
X153853292Y-110141471D01*
X154029540Y-110088007D01*
X154191972Y-110001186D01*
X154334344Y-109884344D01*
X154363630Y-109848659D01*
X157871053Y-106341236D01*
X157958414Y-106305050D01*
X158123837Y-106194518D01*
X158264518Y-106053837D01*
X158375050Y-105888414D01*
X158451186Y-105704606D01*
X158490000Y-105509476D01*
X158490000Y-105310524D01*
X158451186Y-105115394D01*
X158375050Y-104931586D01*
X158264518Y-104766163D01*
X158123837Y-104625482D01*
X157958414Y-104514950D01*
X157774606Y-104438814D01*
X157579476Y-104400000D01*
X157380524Y-104400000D01*
X157185394Y-104438814D01*
X157001586Y-104514950D01*
X156836163Y-104625482D01*
X156695482Y-104766163D01*
X156584950Y-104931586D01*
X156548764Y-105018947D01*
X153282711Y-108285000D01*
X150368623Y-108285000D01*
X150362098Y-108280640D01*
X150169191Y-108200735D01*
X149964401Y-108160000D01*
X149755599Y-108160000D01*
X149550809Y-108200735D01*
X149357902Y-108280640D01*
X149184289Y-108396644D01*
X149036644Y-108544289D01*
X148920640Y-108717902D01*
X148840735Y-108910809D01*
X148800000Y-109115599D01*
X142740000Y-109115599D01*
X142740000Y-101655751D01*
X142745491Y-101599999D01*
X142723577Y-101377501D01*
X142658676Y-101163553D01*
X142624436Y-101099494D01*
X142553284Y-100966377D01*
X142411449Y-100793551D01*
X142368141Y-100758009D01*
X139565000Y-97954869D01*
X139565000Y-97489171D01*
X139659544Y-97630666D01*
X139974334Y-97945456D01*
X140344489Y-98192786D01*
X140755782Y-98363149D01*
X141192409Y-98450000D01*
X141637591Y-98450000D01*
X142074218Y-98363149D01*
X142485511Y-98192786D01*
X142855666Y-97945456D01*
X143170456Y-97630666D01*
X143417786Y-97260511D01*
X143588149Y-96849218D01*
X143675000Y-96412591D01*
X143675000Y-95967409D01*
X143588149Y-95530782D01*
X143417786Y-95119489D01*
X143170456Y-94749334D01*
X143058721Y-94637599D01*
X167088000Y-94637599D01*
X167088000Y-94846401D01*
X167128735Y-95051191D01*
X167208640Y-95244098D01*
X167324644Y-95417711D01*
X167449224Y-95542291D01*
X167382735Y-95702809D01*
X167342000Y-95907599D01*
X167342000Y-96116401D01*
X167382735Y-96321191D01*
X167462640Y-96514098D01*
X167578644Y-96687711D01*
X167703224Y-96812291D01*
X167636735Y-96972809D01*
X167596000Y-97177599D01*
X167596000Y-97386401D01*
X167636735Y-97591191D01*
X167716640Y-97784098D01*
X167832644Y-97957711D01*
X167957234Y-98082301D01*
X167890749Y-98242809D01*
X167850014Y-98447599D01*
X167850014Y-98656401D01*
X167890749Y-98861191D01*
X167970654Y-99054098D01*
X168086658Y-99227711D01*
X168234303Y-99375356D01*
X168407916Y-99491360D01*
X168600823Y-99571265D01*
X168805613Y-99612000D01*
X169014415Y-99612000D01*
X169219205Y-99571265D01*
X169412112Y-99491360D01*
X169585725Y-99375356D01*
X169628009Y-99333072D01*
X171295000Y-99333072D01*
X171419482Y-99320812D01*
X171539180Y-99284502D01*
X171649494Y-99225537D01*
X171746185Y-99146185D01*
X171825537Y-99049494D01*
X171884502Y-98939180D01*
X171920812Y-98819482D01*
X171933072Y-98695000D01*
X171933072Y-98095000D01*
X171920812Y-97970518D01*
X171884502Y-97850820D01*
X171841302Y-97770000D01*
X171884502Y-97689180D01*
X171920812Y-97569482D01*
X171933072Y-97445000D01*
X171933072Y-96845000D01*
X171920812Y-96720518D01*
X171884502Y-96600820D01*
X171841302Y-96520000D01*
X171884502Y-96439180D01*
X171920812Y-96319482D01*
X171933072Y-96195000D01*
X171933072Y-95595000D01*
X171920812Y-95470518D01*
X171884502Y-95350820D01*
X171841302Y-95270000D01*
X171884502Y-95189180D01*
X171920812Y-95069482D01*
X171933072Y-94945000D01*
X171933072Y-94345000D01*
X171920812Y-94220518D01*
X171884502Y-94100820D01*
X171825537Y-93990506D01*
X171746185Y-93893815D01*
X171649494Y-93814463D01*
X171539180Y-93755498D01*
X171419482Y-93719188D01*
X171295000Y-93706928D01*
X170459743Y-93706928D01*
X170445000Y-93705476D01*
X170430257Y-93706928D01*
X169595000Y-93706928D01*
X169470518Y-93719188D01*
X169350820Y-93755498D01*
X169254468Y-93807000D01*
X168656623Y-93807000D01*
X168650098Y-93802640D01*
X168457191Y-93722735D01*
X168252401Y-93682000D01*
X168043599Y-93682000D01*
X167838809Y-93722735D01*
X167645902Y-93802640D01*
X167472289Y-93918644D01*
X167324644Y-94066289D01*
X167208640Y-94239902D01*
X167128735Y-94432809D01*
X167088000Y-94637599D01*
X143058721Y-94637599D01*
X142855666Y-94434544D01*
X142485511Y-94187214D01*
X142074218Y-94016851D01*
X141637591Y-93930000D01*
X141192409Y-93930000D01*
X141042464Y-93959826D01*
X141443666Y-93558624D01*
X141479344Y-93529344D01*
X141500457Y-93503618D01*
X141520820Y-93514502D01*
X141640518Y-93550812D01*
X141765000Y-93563072D01*
X142365000Y-93563072D01*
X142489482Y-93550812D01*
X142609180Y-93514502D01*
X142690000Y-93471302D01*
X142770820Y-93514502D01*
X142890518Y-93550812D01*
X143015000Y-93563072D01*
X143615000Y-93563072D01*
X143739482Y-93550812D01*
X143859180Y-93514502D01*
X143969494Y-93455537D01*
X144066185Y-93376185D01*
X144145537Y-93279494D01*
X144204502Y-93169180D01*
X144240812Y-93049482D01*
X144253072Y-92925000D01*
X144253072Y-92412317D01*
X144308007Y-92309540D01*
X144340237Y-92203292D01*
X144361472Y-92133291D01*
X144379524Y-91950000D01*
X144375000Y-91904065D01*
X144375000Y-90790010D01*
X144420820Y-90814502D01*
X144540518Y-90850812D01*
X144665000Y-90863072D01*
X145665000Y-90863072D01*
X145789482Y-90850812D01*
X145909180Y-90814502D01*
X146019494Y-90755537D01*
X146116185Y-90676185D01*
X146195537Y-90579494D01*
X146254502Y-90469180D01*
X146290812Y-90349482D01*
X146303072Y-90225000D01*
X146303072Y-87525000D01*
X146290812Y-87400518D01*
X146254502Y-87280820D01*
X146195537Y-87170506D01*
X146116185Y-87073815D01*
X146019494Y-86994463D01*
X145909180Y-86935498D01*
X145789482Y-86899188D01*
X145665000Y-86886928D01*
X144665000Y-86886928D01*
X144540518Y-86899188D01*
X144420820Y-86935498D01*
X144375000Y-86959990D01*
X144375000Y-86938623D01*
X144379360Y-86932098D01*
X144459265Y-86739191D01*
X144500000Y-86534401D01*
X144500000Y-86325599D01*
X144459265Y-86120809D01*
X144379360Y-85927902D01*
X144375000Y-85921377D01*
X144375000Y-84701192D01*
X144378072Y-84670000D01*
X144378072Y-82970000D01*
X144365812Y-82845518D01*
X144329502Y-82725820D01*
X144270537Y-82615506D01*
X144191185Y-82518815D01*
X144094494Y-82439463D01*
X143984180Y-82380498D01*
X143864482Y-82344188D01*
X143740000Y-82331928D01*
X143140000Y-82331928D01*
X143015518Y-82344188D01*
X142895820Y-82380498D01*
X142815000Y-82423698D01*
X142734180Y-82380498D01*
X142614482Y-82344188D01*
X142490000Y-82331928D01*
X141890000Y-82331928D01*
X141765518Y-82344188D01*
X141645820Y-82380498D01*
X141565000Y-82423698D01*
X141484180Y-82380498D01*
X141364482Y-82344188D01*
X141240000Y-82331928D01*
X140640000Y-82331928D01*
X140515518Y-82344188D01*
X140395820Y-82380498D01*
X140315000Y-82423698D01*
X140234180Y-82380498D01*
X140114482Y-82344188D01*
X139990000Y-82331928D01*
X139975750Y-82335000D01*
X139817000Y-82493750D01*
X139817000Y-83693000D01*
X139837000Y-83693000D01*
X139837000Y-83947000D01*
X139817000Y-83947000D01*
X139817000Y-85146250D01*
X139880001Y-85209251D01*
X139880000Y-90588405D01*
X139865000Y-90586928D01*
X139850750Y-90590000D01*
X139692000Y-90748750D01*
X139692000Y-91948000D01*
X139712000Y-91948000D01*
X139712000Y-92202000D01*
X139692000Y-92202000D01*
X139692000Y-92222000D01*
X139438000Y-92222000D01*
X139438000Y-92202000D01*
X139418000Y-92202000D01*
X139418000Y-91948000D01*
X139438000Y-91948000D01*
X139438000Y-90748750D01*
X139279250Y-90590000D01*
X139265000Y-90586928D01*
X139250000Y-90588405D01*
X139250000Y-86753623D01*
X139254360Y-86747098D01*
X139334265Y-86554191D01*
X139375000Y-86349401D01*
X139375000Y-86140599D01*
X139334265Y-85935809D01*
X139254360Y-85742902D01*
X139250000Y-85736377D01*
X139250000Y-85291105D01*
X139265518Y-85295812D01*
X139390000Y-85308072D01*
X139404250Y-85305000D01*
X139563000Y-85146250D01*
X139563000Y-83947000D01*
X139543000Y-83947000D01*
X139543000Y-83693000D01*
X139563000Y-83693000D01*
X139563000Y-82493750D01*
X139404250Y-82335000D01*
X139390000Y-82331928D01*
X139265518Y-82344188D01*
X139145820Y-82380498D01*
X139065000Y-82423698D01*
X138984180Y-82380498D01*
X138864482Y-82344188D01*
X138740000Y-82331928D01*
X138140000Y-82331928D01*
X138015518Y-82344188D01*
X137895820Y-82380498D01*
X137815000Y-82423698D01*
X137734180Y-82380498D01*
X137614482Y-82344188D01*
X137490000Y-82331928D01*
X136890000Y-82331928D01*
X136765518Y-82344188D01*
X136645820Y-82380498D01*
X136565000Y-82423698D01*
X136484180Y-82380498D01*
X136364482Y-82344188D01*
X136240000Y-82331928D01*
X135643097Y-82331928D01*
X135680000Y-82146401D01*
X135680000Y-81937599D01*
X135639265Y-81732809D01*
X135559360Y-81539902D01*
X135443356Y-81366289D01*
X135295711Y-81218644D01*
X135122098Y-81102640D01*
X134929191Y-81022735D01*
X134724401Y-80982000D01*
X134515599Y-80982000D01*
X134310809Y-81022735D01*
X134117902Y-81102640D01*
X133978072Y-81196071D01*
X133978072Y-79400000D01*
X144151928Y-79400000D01*
X144151928Y-81970000D01*
X144164188Y-82094482D01*
X144200498Y-82214180D01*
X144259463Y-82324494D01*
X144338815Y-82421185D01*
X144435506Y-82500537D01*
X144545820Y-82559502D01*
X144665518Y-82595812D01*
X144790000Y-82608072D01*
X145790000Y-82608072D01*
X145914482Y-82595812D01*
X146034180Y-82559502D01*
X146144494Y-82500537D01*
X146241185Y-82421185D01*
X146320537Y-82324494D01*
X146379502Y-82214180D01*
X146415812Y-82094482D01*
X146428072Y-81970000D01*
X146428072Y-81106655D01*
X170960000Y-81106655D01*
X170960000Y-81453345D01*
X171027636Y-81793373D01*
X171160308Y-82113673D01*
X171352919Y-82401935D01*
X171598065Y-82647081D01*
X171886327Y-82839692D01*
X172206627Y-82972364D01*
X172546655Y-83040000D01*
X172893345Y-83040000D01*
X173233373Y-82972364D01*
X173553673Y-82839692D01*
X173841935Y-82647081D01*
X174087081Y-82401935D01*
X174279692Y-82113673D01*
X174412364Y-81793373D01*
X174480000Y-81453345D01*
X174480000Y-81106655D01*
X174412364Y-80766627D01*
X174279692Y-80446327D01*
X174087081Y-80158065D01*
X173841935Y-79912919D01*
X173553673Y-79720308D01*
X173233373Y-79587636D01*
X172893345Y-79520000D01*
X172546655Y-79520000D01*
X172206627Y-79587636D01*
X171886327Y-79720308D01*
X171598065Y-79912919D01*
X171352919Y-80158065D01*
X171160308Y-80446327D01*
X171027636Y-80766627D01*
X170960000Y-81106655D01*
X146428072Y-81106655D01*
X146428072Y-79400000D01*
X172687731Y-79400000D01*
X173084545Y-79438908D01*
X173435203Y-79544777D01*
X173758624Y-79716745D01*
X174042484Y-79948255D01*
X174275965Y-80230486D01*
X174450185Y-80552697D01*
X174558500Y-80902611D01*
X174599999Y-81297443D01*
X174599999Y-91656928D01*
X172295000Y-91656928D01*
X172170518Y-91669188D01*
X172050820Y-91705498D01*
X171940506Y-91764463D01*
X171843815Y-91843815D01*
X171764463Y-91940506D01*
X171705498Y-92050820D01*
X171669188Y-92170518D01*
X171656928Y-92295000D01*
X171656928Y-93295000D01*
X171669188Y-93419482D01*
X171705498Y-93539180D01*
X171764463Y-93649494D01*
X171843815Y-93746185D01*
X171940506Y-93825537D01*
X172050820Y-93884502D01*
X172170518Y-93920812D01*
X172295000Y-93933072D01*
X174599999Y-93933072D01*
X174599999Y-99106928D01*
X172295000Y-99106928D01*
X172170518Y-99119188D01*
X172050820Y-99155498D01*
X171940506Y-99214463D01*
X171843815Y-99293815D01*
X171764463Y-99390506D01*
X171705498Y-99500820D01*
X171669188Y-99620518D01*
X171656928Y-99745000D01*
X171656928Y-100745000D01*
X171669188Y-100869482D01*
X171705498Y-100989180D01*
X171764463Y-101099494D01*
X171843815Y-101196185D01*
X171940506Y-101275537D01*
X172050820Y-101334502D01*
X172170518Y-101370812D01*
X172295000Y-101383072D01*
X174599999Y-101383072D01*
X174600000Y-120830654D01*
X174420983Y-120651637D01*
X174071302Y-120417988D01*
X173682756Y-120257047D01*
X173270279Y-120175000D01*
X172849721Y-120175000D01*
X172437244Y-120257047D01*
X172048698Y-120417988D01*
X171699017Y-120651637D01*
X171401637Y-120949017D01*
X171167988Y-121298698D01*
X171007047Y-121687244D01*
X170925000Y-122099721D01*
X170925000Y-122520279D01*
X171007047Y-122932756D01*
X171167988Y-123321302D01*
X171401637Y-123670983D01*
X171699017Y-123968363D01*
X172048698Y-124202012D01*
X172437244Y-124362953D01*
X172849721Y-124445000D01*
X173270279Y-124445000D01*
X173682756Y-124362953D01*
X174071302Y-124202012D01*
X174420983Y-123968363D01*
X174600000Y-123789346D01*
X174600000Y-126967698D01*
X174561089Y-127364542D01*
X174455218Y-127715205D01*
X174283255Y-128038621D01*
X174051746Y-128322479D01*
X173769510Y-128555965D01*
X173447303Y-128730182D01*
X173097384Y-128838500D01*
X172702556Y-128879998D01*
X127032277Y-128879998D01*
X126635453Y-128841089D01*
X126284793Y-128735219D01*
X125961376Y-128563255D01*
X125677518Y-128331745D01*
X125444031Y-128049508D01*
X125269815Y-127727302D01*
X125161498Y-127377385D01*
X125120000Y-126982555D01*
X125120000Y-126826655D01*
X125240000Y-126826655D01*
X125240000Y-127173345D01*
X125307636Y-127513373D01*
X125440308Y-127833673D01*
X125632919Y-128121935D01*
X125878065Y-128367081D01*
X126166327Y-128559692D01*
X126486627Y-128692364D01*
X126826655Y-128760000D01*
X127173345Y-128760000D01*
X127513373Y-128692364D01*
X127833673Y-128559692D01*
X128121935Y-128367081D01*
X128367081Y-128121935D01*
X128559692Y-127833673D01*
X128692364Y-127513373D01*
X128697013Y-127490000D01*
X144321928Y-127490000D01*
X144334188Y-127614482D01*
X144370498Y-127734180D01*
X144429463Y-127844494D01*
X144508815Y-127941185D01*
X144605506Y-128020537D01*
X144715820Y-128079502D01*
X144835518Y-128115812D01*
X144960000Y-128128072D01*
X146674250Y-128125000D01*
X146833000Y-127966250D01*
X146833000Y-125617000D01*
X144483750Y-125617000D01*
X144325000Y-125775750D01*
X144321928Y-127490000D01*
X128697013Y-127490000D01*
X128760000Y-127173345D01*
X128760000Y-126826655D01*
X128692364Y-126486627D01*
X128559692Y-126166327D01*
X128367081Y-125878065D01*
X128121935Y-125632919D01*
X127833673Y-125440308D01*
X127513373Y-125307636D01*
X127173345Y-125240000D01*
X126826655Y-125240000D01*
X126486627Y-125307636D01*
X126166327Y-125440308D01*
X125878065Y-125632919D01*
X125632919Y-125878065D01*
X125440308Y-126166327D01*
X125307636Y-126486627D01*
X125240000Y-126826655D01*
X125120000Y-126826655D01*
X125120000Y-120513589D01*
X130505000Y-120513589D01*
X130505000Y-120786411D01*
X130558225Y-121053989D01*
X130662629Y-121306043D01*
X130814201Y-121532886D01*
X131007114Y-121725799D01*
X131233957Y-121877371D01*
X131486011Y-121981775D01*
X131753589Y-122035000D01*
X132026411Y-122035000D01*
X132293989Y-121981775D01*
X132546043Y-121877371D01*
X132752351Y-121739520D01*
X132755000Y-121766411D01*
X132755000Y-121766412D01*
X132771423Y-121933159D01*
X132836324Y-122147107D01*
X132941717Y-122344283D01*
X133083552Y-122517109D01*
X133126860Y-122552651D01*
X133887348Y-123313140D01*
X133922891Y-123356449D01*
X134095717Y-123498284D01*
X134292893Y-123603676D01*
X134506841Y-123668577D01*
X134729339Y-123690491D01*
X134785091Y-123685000D01*
X144322277Y-123685000D01*
X144325000Y-125204250D01*
X144483750Y-125363000D01*
X146833000Y-125363000D01*
X146833000Y-125343000D01*
X147087000Y-125343000D01*
X147087000Y-125363000D01*
X147107000Y-125363000D01*
X147107000Y-125617000D01*
X147087000Y-125617000D01*
X147087000Y-127966250D01*
X147245750Y-128125000D01*
X148960000Y-128128072D01*
X149084482Y-128115812D01*
X149204180Y-128079502D01*
X149314494Y-128020537D01*
X149411185Y-127941185D01*
X149490537Y-127844494D01*
X149549502Y-127734180D01*
X149585812Y-127614482D01*
X149598072Y-127490000D01*
X149595950Y-126306136D01*
X149774893Y-126738141D01*
X150063262Y-127169715D01*
X150430285Y-127536738D01*
X150861859Y-127825107D01*
X151341399Y-128023739D01*
X151850475Y-128125000D01*
X152369525Y-128125000D01*
X152878601Y-128023739D01*
X153358141Y-127825107D01*
X153789715Y-127536738D01*
X154156738Y-127169715D01*
X154385963Y-126826655D01*
X170960000Y-126826655D01*
X170960000Y-127173345D01*
X171027636Y-127513373D01*
X171160308Y-127833673D01*
X171352919Y-128121935D01*
X171598065Y-128367081D01*
X171886327Y-128559692D01*
X172206627Y-128692364D01*
X172546655Y-128760000D01*
X172893345Y-128760000D01*
X173233373Y-128692364D01*
X173553673Y-128559692D01*
X173841935Y-128367081D01*
X174087081Y-128121935D01*
X174279692Y-127833673D01*
X174412364Y-127513373D01*
X174480000Y-127173345D01*
X174480000Y-126826655D01*
X174412364Y-126486627D01*
X174279692Y-126166327D01*
X174087081Y-125878065D01*
X173841935Y-125632919D01*
X173553673Y-125440308D01*
X173233373Y-125307636D01*
X172893345Y-125240000D01*
X172546655Y-125240000D01*
X172206627Y-125307636D01*
X171886327Y-125440308D01*
X171598065Y-125632919D01*
X171352919Y-125878065D01*
X171160308Y-126166327D01*
X171027636Y-126486627D01*
X170960000Y-126826655D01*
X154385963Y-126826655D01*
X154445107Y-126738141D01*
X154643739Y-126258601D01*
X154745000Y-125749525D01*
X154745000Y-125230475D01*
X154643739Y-124721399D01*
X154445107Y-124241859D01*
X154156738Y-123810285D01*
X154031453Y-123685000D01*
X157113366Y-123685000D01*
X157293073Y-123832481D01*
X157559739Y-123975017D01*
X157849087Y-124062790D01*
X158074592Y-124085000D01*
X159425408Y-124085000D01*
X159650913Y-124062790D01*
X159940261Y-123975017D01*
X160206927Y-123832481D01*
X160386634Y-123685000D01*
X164414249Y-123685000D01*
X164470000Y-123690491D01*
X164525751Y-123685000D01*
X164525752Y-123685000D01*
X164692499Y-123668577D01*
X164906447Y-123603676D01*
X165103623Y-123498284D01*
X165276449Y-123356449D01*
X165311996Y-123313136D01*
X166403140Y-122221992D01*
X166446449Y-122186449D01*
X166588284Y-122013623D01*
X166611097Y-121970942D01*
X166645820Y-121989502D01*
X166765518Y-122025812D01*
X166890000Y-122038072D01*
X167354250Y-122035000D01*
X167513000Y-121876250D01*
X167513000Y-120777000D01*
X167767000Y-120777000D01*
X167767000Y-121876250D01*
X167925750Y-122035000D01*
X168390000Y-122038072D01*
X168514482Y-122025812D01*
X168634180Y-121989502D01*
X168744494Y-121930537D01*
X168841185Y-121851185D01*
X168920537Y-121754494D01*
X168979502Y-121644180D01*
X169015812Y-121524482D01*
X169028072Y-121400000D01*
X169025000Y-120935750D01*
X168866250Y-120777000D01*
X167767000Y-120777000D01*
X167513000Y-120777000D01*
X167493000Y-120777000D01*
X167493000Y-120523000D01*
X167513000Y-120523000D01*
X167513000Y-119423750D01*
X167767000Y-119423750D01*
X167767000Y-120523000D01*
X168866250Y-120523000D01*
X169025000Y-120364250D01*
X169028072Y-119900000D01*
X169015812Y-119775518D01*
X168979502Y-119655820D01*
X168920537Y-119545506D01*
X168841185Y-119448815D01*
X168744494Y-119369463D01*
X168634180Y-119310498D01*
X168514482Y-119274188D01*
X168390000Y-119261928D01*
X167925750Y-119265000D01*
X167767000Y-119423750D01*
X167513000Y-119423750D01*
X167354250Y-119265000D01*
X166890000Y-119261928D01*
X166765518Y-119274188D01*
X166645820Y-119310498D01*
X166535506Y-119369463D01*
X166438815Y-119448815D01*
X166402131Y-119493515D01*
X166296043Y-119422629D01*
X166043989Y-119318225D01*
X165776411Y-119265000D01*
X165503589Y-119265000D01*
X165236011Y-119318225D01*
X164983957Y-119422629D01*
X164757114Y-119574201D01*
X164640000Y-119691315D01*
X164522886Y-119574201D01*
X164296043Y-119422629D01*
X164043989Y-119318225D01*
X163776411Y-119265000D01*
X163503589Y-119265000D01*
X163236011Y-119318225D01*
X162983957Y-119422629D01*
X162757114Y-119574201D01*
X162564201Y-119767114D01*
X162412629Y-119993957D01*
X162308225Y-120246011D01*
X162255000Y-120513589D01*
X162255000Y-120786411D01*
X162308225Y-121053989D01*
X162412629Y-121306043D01*
X162485432Y-121415000D01*
X160635611Y-121415000D01*
X160701185Y-121361185D01*
X160780537Y-121264494D01*
X160839502Y-121154180D01*
X160875812Y-121034482D01*
X160888072Y-120910000D01*
X160885000Y-120295750D01*
X160726250Y-120137000D01*
X158877000Y-120137000D01*
X158877000Y-120157000D01*
X158623000Y-120157000D01*
X158623000Y-120137000D01*
X156773750Y-120137000D01*
X156615000Y-120295750D01*
X156611928Y-120910000D01*
X156624188Y-121034482D01*
X156660498Y-121154180D01*
X156719463Y-121264494D01*
X156798815Y-121361185D01*
X156864389Y-121415000D01*
X137276595Y-121415000D01*
X137278072Y-121400000D01*
X137275000Y-120935750D01*
X137116250Y-120777000D01*
X136017000Y-120777000D01*
X136017000Y-120797000D01*
X135763000Y-120797000D01*
X135763000Y-120777000D01*
X135743000Y-120777000D01*
X135743000Y-120523000D01*
X135763000Y-120523000D01*
X135763000Y-119423750D01*
X136017000Y-119423750D01*
X136017000Y-120523000D01*
X137116250Y-120523000D01*
X137275000Y-120364250D01*
X137278072Y-119900000D01*
X137265812Y-119775518D01*
X137229502Y-119655820D01*
X137170537Y-119545506D01*
X137091185Y-119448815D01*
X136994494Y-119369463D01*
X136884180Y-119310498D01*
X136764482Y-119274188D01*
X136640000Y-119261928D01*
X136175750Y-119265000D01*
X136017000Y-119423750D01*
X135763000Y-119423750D01*
X135604250Y-119265000D01*
X135140000Y-119261928D01*
X135015518Y-119274188D01*
X134895820Y-119310498D01*
X134785506Y-119369463D01*
X134688815Y-119448815D01*
X134652131Y-119493515D01*
X134546043Y-119422629D01*
X134293989Y-119318225D01*
X134026411Y-119265000D01*
X133753589Y-119265000D01*
X133486011Y-119318225D01*
X133233957Y-119422629D01*
X133007114Y-119574201D01*
X132890000Y-119691315D01*
X132772886Y-119574201D01*
X132546043Y-119422629D01*
X132293989Y-119318225D01*
X132026411Y-119265000D01*
X131753589Y-119265000D01*
X131486011Y-119318225D01*
X131233957Y-119422629D01*
X131007114Y-119574201D01*
X130814201Y-119767114D01*
X130662629Y-119993957D01*
X130558225Y-120246011D01*
X130505000Y-120513589D01*
X125120000Y-120513589D01*
X125120000Y-118370000D01*
X156611928Y-118370000D01*
X156624188Y-118494482D01*
X156660498Y-118614180D01*
X156719463Y-118724494D01*
X156732188Y-118740000D01*
X156719463Y-118755506D01*
X156660498Y-118865820D01*
X156624188Y-118985518D01*
X156611928Y-119110000D01*
X156615000Y-119724250D01*
X156773750Y-119883000D01*
X158623000Y-119883000D01*
X158623000Y-117597000D01*
X158877000Y-117597000D01*
X158877000Y-119883000D01*
X160726250Y-119883000D01*
X160885000Y-119724250D01*
X160888072Y-119110000D01*
X160875812Y-118985518D01*
X160839502Y-118865820D01*
X160780537Y-118755506D01*
X160767812Y-118740000D01*
X160780537Y-118724494D01*
X160839502Y-118614180D01*
X160875812Y-118494482D01*
X160888072Y-118370000D01*
X160885000Y-117755750D01*
X160726250Y-117597000D01*
X158877000Y-117597000D01*
X158623000Y-117597000D01*
X156773750Y-117597000D01*
X156615000Y-117755750D01*
X156611928Y-118370000D01*
X125120000Y-118370000D01*
X125120000Y-116035000D01*
X147962928Y-116035000D01*
X147975188Y-116159482D01*
X148011498Y-116279180D01*
X148070463Y-116389494D01*
X148149815Y-116486185D01*
X148246506Y-116565537D01*
X148356820Y-116624502D01*
X148476518Y-116660812D01*
X148601000Y-116673072D01*
X148760250Y-116670000D01*
X148919000Y-116511250D01*
X148919000Y-115697000D01*
X148124750Y-115697000D01*
X147966000Y-115855750D01*
X147962928Y-116035000D01*
X125120000Y-116035000D01*
X125120000Y-109590770D01*
X125235518Y-109625812D01*
X125360000Y-109638072D01*
X128060000Y-109638072D01*
X128184482Y-109625812D01*
X128304180Y-109589502D01*
X128414494Y-109530537D01*
X128511185Y-109451185D01*
X128590537Y-109354494D01*
X128649502Y-109244180D01*
X128685812Y-109124482D01*
X128698072Y-109000000D01*
X128698072Y-108000000D01*
X128685812Y-107875518D01*
X128649502Y-107755820D01*
X128590537Y-107645506D01*
X128511185Y-107548815D01*
X128414494Y-107469463D01*
X128304180Y-107410498D01*
X128184482Y-107374188D01*
X128060000Y-107361928D01*
X125360000Y-107361928D01*
X125235518Y-107374188D01*
X125120000Y-107409230D01*
X125120000Y-103200000D01*
X128421928Y-103200000D01*
X128434188Y-103324482D01*
X128470498Y-103444180D01*
X128513698Y-103525000D01*
X128470498Y-103605820D01*
X128434188Y-103725518D01*
X128421928Y-103850000D01*
X128425000Y-103864250D01*
X128583750Y-104023000D01*
X129783000Y-104023000D01*
X129783000Y-103027000D01*
X130037000Y-103027000D01*
X130037000Y-104023000D01*
X131236250Y-104023000D01*
X131395000Y-103864250D01*
X131398072Y-103850000D01*
X131385812Y-103725518D01*
X131349502Y-103605820D01*
X131306302Y-103525000D01*
X131349502Y-103444180D01*
X131385812Y-103324482D01*
X131398072Y-103200000D01*
X131395000Y-103185750D01*
X131236250Y-103027000D01*
X130037000Y-103027000D01*
X129783000Y-103027000D01*
X128583750Y-103027000D01*
X128425000Y-103185750D01*
X128421928Y-103200000D01*
X125120000Y-103200000D01*
X125120000Y-102600000D01*
X128421928Y-102600000D01*
X128425000Y-102614250D01*
X128583750Y-102773000D01*
X129783000Y-102773000D01*
X129783000Y-102123750D01*
X130037000Y-102123750D01*
X130037000Y-102773000D01*
X131236250Y-102773000D01*
X131395000Y-102614250D01*
X131398072Y-102600000D01*
X131385812Y-102475518D01*
X131349502Y-102355820D01*
X131290537Y-102245506D01*
X131211185Y-102148815D01*
X131114494Y-102069463D01*
X131004180Y-102010498D01*
X130884482Y-101974188D01*
X130760000Y-101961928D01*
X130195750Y-101965000D01*
X130037000Y-102123750D01*
X129783000Y-102123750D01*
X129624250Y-101965000D01*
X129060000Y-101961928D01*
X128935518Y-101974188D01*
X128815820Y-102010498D01*
X128705506Y-102069463D01*
X128608815Y-102148815D01*
X128529463Y-102245506D01*
X128470498Y-102355820D01*
X128434188Y-102475518D01*
X128421928Y-102600000D01*
X125120000Y-102600000D01*
X125120000Y-102140770D01*
X125235518Y-102175812D01*
X125360000Y-102188072D01*
X128060000Y-102188072D01*
X128184482Y-102175812D01*
X128304180Y-102139502D01*
X128414494Y-102080537D01*
X128511185Y-102001185D01*
X128590537Y-101904494D01*
X128649502Y-101794180D01*
X128685812Y-101674482D01*
X128698072Y-101550000D01*
X128698072Y-100550000D01*
X128685812Y-100425518D01*
X128649502Y-100305820D01*
X128590537Y-100195506D01*
X128511185Y-100098815D01*
X128414494Y-100019463D01*
X128304180Y-99960498D01*
X128184482Y-99924188D01*
X128060000Y-99911928D01*
X125360000Y-99911928D01*
X125235518Y-99924188D01*
X125120000Y-99959230D01*
X125120000Y-99430770D01*
X125235518Y-99465812D01*
X125360000Y-99478072D01*
X128060000Y-99478072D01*
X128184482Y-99465812D01*
X128304180Y-99429502D01*
X128414494Y-99370537D01*
X128511185Y-99291185D01*
X128590537Y-99194494D01*
X128649502Y-99084180D01*
X128685812Y-98964482D01*
X128698072Y-98840000D01*
X128698072Y-97840000D01*
X128685812Y-97715518D01*
X128649502Y-97595820D01*
X128590537Y-97485506D01*
X128511185Y-97388815D01*
X128414494Y-97309463D01*
X128304180Y-97250498D01*
X128184482Y-97214188D01*
X128060000Y-97201928D01*
X125360000Y-97201928D01*
X125235518Y-97214188D01*
X125120000Y-97249230D01*
X125120000Y-93040000D01*
X128421928Y-93040000D01*
X128434188Y-93164482D01*
X128470498Y-93284180D01*
X128513698Y-93365000D01*
X128470498Y-93445820D01*
X128434188Y-93565518D01*
X128421928Y-93690000D01*
X128425000Y-93704250D01*
X128583750Y-93863000D01*
X129783000Y-93863000D01*
X129783000Y-92867000D01*
X128583750Y-92867000D01*
X128425000Y-93025750D01*
X128421928Y-93040000D01*
X125120000Y-93040000D01*
X125120000Y-92440000D01*
X128421928Y-92440000D01*
X128425000Y-92454250D01*
X128583750Y-92613000D01*
X129783000Y-92613000D01*
X129783000Y-91963750D01*
X130037000Y-91963750D01*
X130037000Y-92613000D01*
X131236250Y-92613000D01*
X131395000Y-92454250D01*
X131398072Y-92440000D01*
X131385812Y-92315518D01*
X131349502Y-92195820D01*
X131290537Y-92085506D01*
X131211185Y-91988815D01*
X131114494Y-91909463D01*
X131004180Y-91850498D01*
X130884482Y-91814188D01*
X130760000Y-91801928D01*
X130195750Y-91805000D01*
X130037000Y-91963750D01*
X129783000Y-91963750D01*
X129624250Y-91805000D01*
X129060000Y-91801928D01*
X128935518Y-91814188D01*
X128815820Y-91850498D01*
X128705506Y-91909463D01*
X128608815Y-91988815D01*
X128529463Y-92085506D01*
X128470498Y-92195820D01*
X128434188Y-92315518D01*
X128421928Y-92440000D01*
X125120000Y-92440000D01*
X125120000Y-91980770D01*
X125235518Y-92015812D01*
X125360000Y-92028072D01*
X128060000Y-92028072D01*
X128184482Y-92015812D01*
X128304180Y-91979502D01*
X128414494Y-91920537D01*
X128511185Y-91841185D01*
X128590537Y-91744494D01*
X128649502Y-91634180D01*
X128685812Y-91514482D01*
X128698072Y-91390000D01*
X128698072Y-90390000D01*
X128685812Y-90265518D01*
X128649502Y-90145820D01*
X128590537Y-90035506D01*
X128511185Y-89938815D01*
X128414494Y-89859463D01*
X128304180Y-89800498D01*
X128184482Y-89764188D01*
X128060000Y-89751928D01*
X125360000Y-89751928D01*
X125235518Y-89764188D01*
X125120000Y-89799230D01*
X125120000Y-81312279D01*
X125140161Y-81106655D01*
X125240000Y-81106655D01*
X125240000Y-81453345D01*
X125307636Y-81793373D01*
X125440308Y-82113673D01*
X125632919Y-82401935D01*
X125878065Y-82647081D01*
X126166327Y-82839692D01*
X126486627Y-82972364D01*
X126826655Y-83040000D01*
X127173345Y-83040000D01*
X127513373Y-82972364D01*
X127833673Y-82839692D01*
X128121935Y-82647081D01*
X128367081Y-82401935D01*
X128559692Y-82113673D01*
X128692364Y-81793373D01*
X128760000Y-81453345D01*
X128760000Y-81106655D01*
X128692364Y-80766627D01*
X128559692Y-80446327D01*
X128367081Y-80158065D01*
X128121935Y-79912919D01*
X127833673Y-79720308D01*
X127513373Y-79587636D01*
X127173345Y-79520000D01*
X126826655Y-79520000D01*
X126486627Y-79587636D01*
X126166327Y-79720308D01*
X125878065Y-79912919D01*
X125632919Y-80158065D01*
X125440308Y-80446327D01*
X125307636Y-80766627D01*
X125240000Y-81106655D01*
X125140161Y-81106655D01*
X125158909Y-80915455D01*
X125264780Y-80564792D01*
X125436744Y-80241375D01*
X125668254Y-79957516D01*
X125950486Y-79724035D01*
X126272695Y-79549817D01*
X126622614Y-79441498D01*
X127017443Y-79400000D01*
X131701928Y-79400000D01*
X131701928Y-81970000D01*
G37*
%TD.AperFunction*%
%TD*%
M02*
